<?xml version="1.0" encoding="utf-8"?>
<!-- Generator: Adobe Illustrator 16.0.0, SVG Export Plug-In . SVG Version: 6.00 Build 0)  -->
<!DOCTYPE svg PUBLIC "-//W3C//DTD SVG 1.1//EN" "http://www.w3.org/Graphics/SVG/1.1/DTD/svg11.dtd">
<svg version="1.1" id="Layer_1" xmlns="http://www.w3.org/2000/svg" xmlns:xlink="http://www.w3.org/1999/xlink" x="0px" y="0px"
	 width="51.594px" height="52.396px" viewBox="0 0 51.594 52.396" enable-background="new 0 0 51.594 52.396" xml:space="preserve">
<g>
	<polyline fill="#D1D2D1" points="0.5,15.756 25.797,4.214 51.094,15.756 51.094,12.226 25.689,0.55 0.5,12.117 	"/>
	<path fill="#D0B42C" d="M2.099,52.396v-8.865V37.55c0,0,0.612-2.884,4.36-2.884s27.243,0,27.243,0s3.1,0.145,3.171,3.532
		c0.025,1.155,0.032,3.174,0.032,5.333c0,4.171-0.032,8.865-0.032,8.865h-3.478v-3.748L5.667,48.793v3.604H2.099z"/>
	<polygon fill="#D0B42C" points="42.59,25.518 50.014,25.518 47.851,20.401 44.752,20.401 	"/>
	<circle fill="#D0B42C" cx="27.669" cy="12.394" r="4.669"/>
	<g>
		<polyline fill="none" stroke="#000000" stroke-miterlimit="10" points="0.5,21.955 0.5,12.117 25.689,0.55 51.094,12.226 
			51.094,21.955 		"/>
		<path fill="none" stroke="#000000" stroke-miterlimit="10" d="M4.068,32.683V24.82c0,0,0.27-1.838,2.054-1.838
			c1.784,0,23.297,0,23.297,0s2.379-0.433,2.379,2.541c0,2.972,0,7.16,0,7.16"/>
		<path fill="none" stroke="#000000" stroke-miterlimit="10" d="M7.473,32.683v-3.646c0,0-0.163-1.838,2.108-1.838s5.054,0,5.054,0
			s1.594-0.163,1.622,1.945v3.539"/>
		<path fill="none" stroke="#000000" stroke-miterlimit="10" d="M19.505,32.683v-3.646c0,0-0.162-1.838,2.108-1.838s5.054,0,5.054,0
			s1.595-0.163,1.622,1.945v3.539"/>
		<path fill="none" stroke="#000000" stroke-miterlimit="10" d="M0.5,51.036v-8.865V36.19c0,0,0.613-2.883,4.36-2.883
			c3.747,0,27.243,0,27.243,0s3.099,0.144,3.171,3.532c0.025,1.155,0.032,3.173,0.032,5.333c-0.001,4.171-0.032,8.865-0.032,8.865
			h-3.477v-3.748L4.068,47.433v3.604H0.5z"/>
		<line fill="none" stroke="#000000" stroke-miterlimit="10" x1="34.914" y1="42.171" x2="0.5" y2="42.171"/>
		<polyline fill="none" stroke="#000000" stroke-miterlimit="10" points="38.59,46.352 38.59,40.37 38.59,33.307 51.094,33.307 
			51.094,40.153 51.094,46.352 		"/>
		<line fill="none" stroke="#000000" stroke-miterlimit="10" x1="38.951" y1="40.514" x2="50.77" y2="40.514"/>
		<line fill="none" stroke="#000000" stroke-miterlimit="10" x1="43.203" y1="36.838" x2="46.302" y2="36.838"/>
		<line fill="none" stroke="#000000" stroke-miterlimit="10" x1="42.41" y1="29.939" x2="47.238" y2="29.939"/>
		<line fill="none" stroke="#000000" stroke-miterlimit="10" x1="44.752" y1="29.559" x2="44.752" y2="25.451"/>
		<polygon fill="none" stroke="#000000" stroke-miterlimit="10" points="41.041,25.451 48.464,25.451 46.302,20.334 43.203,20.334 
					"/>
		<polyline fill="none" stroke="#000000" stroke-miterlimit="10" points="23.896,11.973 25.797,13.631 31.797,7.505 		"/>
		<path fill="none" stroke="#000000" stroke-miterlimit="10" d="M27.059,8.442c0,0-4.325-0.937-5.694,3.243
			c-0.757,4.072,3.711,6.018,5.694,5.189c1.982-0.829,3.173-2.771,2.811-4.901"/>
	</g>
</g>
</svg>
