<?xml version="1.0" encoding="utf-8"?>
<!-- Generator: Adobe Illustrator 22.0.0, SVG Export Plug-In . SVG Version: 6.00 Build 0)  -->
<svg version="1.1" id="Layer_1" xmlns="http://www.w3.org/2000/svg" xmlns:xlink="http://www.w3.org/1999/xlink" x="0px" y="0px"
	 viewBox="0 0 778.5 1070" style="enable-background:new 0 0 778.5 1070;" xml:space="preserve">
<style type="text/css">
	.st0{fill:#F48634;}
</style>
<g>
	<g>
		<path class="st0" d="M368.6,734.7l-0.5,0c-128.2-4-280.3-103.2-309.7-279.1c-15-89.8,5.8-179.4,58.5-252.3
			c25.8-35.6,57.7-65.5,95-88.6c38.2-23.7,80-39.2,124.4-46.1C447.8,51.2,530.5,88.6,580.2,123c62.1,43,109.2,106.6,129.3,174.5
			l0.2,0.6l-32,0c-40.3,0-82,0-123,0.1l-0.3,0l-0.1-0.2c-32.1-49.7-77.3-79.7-134.3-89.1C318.1,192.2,219.4,261,200,362.3
			c-20,103.9,42.5,201,145.3,226c7.6,1.9,15.4,3,22.7,4l0.4,0l0.1,0.4c0.5,3,0.7,136.6,0.2,141.6L368.6,734.7z M391.6,65.2
			c-17.9,0-36.3,1.4-55.2,4.3c-87,13.5-166.8,62.4-218.8,134.3c-52.6,72.7-73.3,162.1-58.3,251.6
			c29.2,175.2,180.5,274.1,308.3,278.3c0.5-9.7,0.3-132.5-0.2-140.5c-7.2-1-14.9-2.1-22.4-4c-49.6-12-91.8-41.9-119-84
			c-27.1-42.2-36.8-93-27.1-143.1c19.6-101.9,118.7-171.1,221-154.2c57.2,9.4,102.6,39.5,134.9,89.3c40.9-0.1,82.5-0.1,122.8-0.1
			l30.7,0C672.9,178,553.1,65.2,391.6,65.2z"/>
	</g>
	<g>
		<path class="st0" d="M387.4,1005.8c-85.1,0-149.5-31.5-190.6-60.4c-61-42.8-107.4-105.9-127.4-173.1l-0.2-0.6l28.6,0
			c41.5,0,84.3,0,126.5-0.1h0.3l0.1,0.2c30.2,46.9,72.8,76.4,126.5,87.8c13.3,2.8,27.3,4,42.9,3.6c44-1.1,83.5-15.8,117.4-43.5
			c36.8-30.1,59.7-69.2,68.3-116.4c2.8-15.5,3.6-31.2,2.4-46.7c-2.2-28.9-10.2-55.9-23.8-80.3c-11.1-20-25.6-37.7-42.9-52.7
			c-24-20.8-52.4-35.1-84.3-42.5c-4.6-1.1-9.1-1.8-14-2.5c-2.2-0.3-4.4-0.7-6.7-1.1l-0.4-0.1V334.8l0.5,0
			c69.5,4.9,131.7,28.5,184.7,70.3c70.7,55.6,113,127.9,125.8,214.8c13.8,94-12.8,190.1-72.9,263.7
			c-55.3,67.6-127.2,107.7-213.7,119.1C418.2,1004.9,402.5,1005.8,387.4,1005.8z M70.6,772.7c38.8,129.3,179.3,253.4,363.9,229
			c86.2-11.4,157.9-51.4,213.1-118.8c60-73.3,86.5-169.1,72.7-262.9c-12.7-86.7-54.9-158.8-125.4-214.2
			c-52.8-41.5-114.5-65-183.6-70v140.8c2.1,0.4,4.2,0.7,6.2,1c4.8,0.8,9.4,1.5,14,2.6c32.1,7.4,60.6,21.8,84.8,42.7
			c17.4,15.1,31.9,32.9,43.1,53c13.6,24.5,21.7,51.6,23.9,80.7c1.2,15.6,0.4,31.4-2.5,47c-8.6,47.4-31.7,86.8-68.6,117
			c-34.1,27.9-73.8,42.6-118.1,43.7c-15.6,0.4-29.7-0.8-43.1-3.6c-54-11.4-96.7-41-127-88c-42.1,0.1-84.8,0.1-126.2,0.1L70.6,772.7z
			"/>
	</g>
</g>
</svg>
