<?xml version="1.0" encoding="utf-8"?>
<!-- Generator: Adobe Illustrator 22.0.0, SVG Export Plug-In . SVG Version: 6.00 Build 0)  -->
<svg version="1.1" id="Layer_1" xmlns="http://www.w3.org/2000/svg" xmlns:xlink="http://www.w3.org/1999/xlink" x="0px" y="0px"
	 viewBox="0 0 20 28" style="enable-background:new 0 0 20 28;" xml:space="preserve">
<style type="text/css">
	.st0{fill:#f58634;}
</style>
<path class="st0" d="M9.5,28c-2.9-0.1-5.7-1.4-7.4-3.6c-0.3-0.4-0.6-0.9-0.9-1.3c0,0,0,0,0-0.1c0.1,0,0.1,0,0.1,0c0.7,0,1.3,0,2,0
	c0.2,0,0.3,0.1,0.4,0.2c0.1,0.1,0.2,0.2,0.2,0.2c0.3,0.3,0.6,0.6,0.9,0.8c0.4,0.4,0.9,0.7,1.4,1c2.2,1.1,5,1.1,7.3,0.1
	c2.2-1,3.8-3.2,4.3-5.4c0.1-0.4,0.1-0.8,0.1-1.2c0.1-3.3-2.4-6.9-5.9-7.6V11c0-0.6,0-1.3,0-1.9l0,0c0.4,0.1,0.8,0.2,1.2,0.3
	c0.5,0.2,1,0.4,1.5,0.6c2.6,1.3,4.5,3.6,5.1,6.3c1.1,4.8-1.9,9.8-6.8,11.3C11.8,27.9,10.7,28,9.5,28z"/>
<path class="st0" d="M18.8,5.1c-0.8,0-1.5,0-2.3,0h-0.1c-1.9-2.5-5.6-3.6-8.6-2.7C5,3.2,2.7,5.6,2.2,8.4c-0.6,3.2,1.3,6.8,4.4,8.2
	C7,16.8,7.5,16.9,8,17c0,0.7,0,1.3,0,2c-0.4-0.1-0.8-0.2-1.1-0.3c-0.5-0.2-0.9-0.3-1.4-0.6c-0.7-0.3-1.4-0.7-2-1.2
	C1.2,15.2-0.1,12.2,0,9.5c0.1-3.3,1.9-6.3,4.9-8C5.4,1.1,6,0.9,6.6,0.7s1.1-0.4,1.7-0.5C8.6,0.1,9,0.1,9.3,0c0.4,0,0.8,0,1.1,0
	c0.4,0,0.8,0.1,1.2,0.2c0.5,0.1,1,0.2,1.6,0.4s1.2,0.5,1.7,0.8c0.7,0.4,1.4,0.9,2,1.4C17.5,3.4,18,4,18.4,4.7c0,0.1,0.1,0.2,0.1,0.2
	C18.7,5,18.7,5.1,18.8,5.1z"/>
</svg>
