<?xml version="1.0" encoding="utf-8"?>
<!-- Generator: Adobe Illustrator 15.1.0, SVG Export Plug-In . SVG Version: 6.00 Build 0)  -->
<!DOCTYPE svg PUBLIC "-//W3C//DTD SVG 1.1//EN" "http://www.w3.org/Graphics/SVG/1.1/DTD/svg11.dtd">
<svg version="1.1" id="Layer_1" xmlns="http://www.w3.org/2000/svg" xmlns:xlink="http://www.w3.org/1999/xlink" x="0px" y="0px"
	 width="28px" height="18px" viewBox="947.901 135.725 28 18" enable-background="new 947.901 135.725 28 18" xml:space="preserve">
<title>tripadvisor-logo-final</title>
<path id="ta-owl-face" d="M975.568,139.632c-0.467,0.714-0.862,1.461-1.097,2.286c-0.032,0.083-0.022,0.177,0.029,0.249
	c1.223,1.754,1.61,3.68,1.101,5.754c-0.447,1.821-1.489,3.24-3.077,4.245c-1.112,0.704-2.405,1.075-3.721,1.068
	c-0.565,0.001-1.127-0.071-1.672-0.214c-1.315-0.329-2.506-1.032-3.431-2.023c-0.124-0.132-0.242-0.271-0.374-0.421
	c-0.496,0.744-0.992,1.477-1.495,2.229c-0.501-0.75-0.987-1.476-1.471-2.198c-0.017,0.007-0.033,0.016-0.05,0.025
	c-0.011,0.01-0.021,0.02-0.028,0.031c-1.143,1.35-2.579,2.177-4.333,2.454c-0.961,0.153-1.946,0.097-2.884-0.165
	c-2.659-0.729-4.646-2.949-5.072-5.674c-0.24-1.258,0.053-2.47,0.126-2.764c0.214-0.846,0.582-1.646,1.088-2.357
	c0.036-0.06,0.046-0.133,0.03-0.202c-0.207-0.761-0.563-1.448-0.984-2.11c-0.106-0.165-0.232-0.322-0.35-0.483v-0.056
	c0.023,0.004,0.047,0.007,0.07,0.007c1.404,0,2.808,0,4.21,0c0.065-0.002,0.128-0.023,0.181-0.059
	c0.986-0.628,2.039-1.139,3.143-1.524c0.796-0.28,1.61-0.501,2.438-0.662c0.8-0.157,1.61-0.264,2.425-0.318
	c1.985-0.155,3.576,0.056,4.632,0.204c0.778,0.118,1.546,0.298,2.295,0.538c1.313,0.401,2.565,0.972,3.727,1.698
	c0.088,0.052,0.186,0.08,0.287,0.083c1.371,0.005,2.741,0,4.113,0.004c0.11,0,0.22,0.011,0.332,0.018
	c0.002,0.015,0.002,0.03,0,0.044C975.697,139.438,975.629,139.538,975.568,139.632z M949.328,146.32
	c0.055,3.076,2.591,5.525,5.667,5.472c3.074-0.054,5.524-2.591,5.471-5.667c-0.054-3.041-2.535-5.476-5.576-5.472
	C951.893,140.627,949.278,143.129,949.328,146.32z M962.241,137.937c-2.438-0.048-4.808,0.311-7.075,1.261
	c1.694,0.104,3.181,0.694,4.439,1.837c1.257,1.143,1.99,2.563,2.255,4.238c0.275-1.654,0.994-3.065,2.223-4.194
	c1.229-1.129,2.696-1.724,4.366-1.849C966.472,138.352,964.387,137.979,962.241,137.937z M968.701,140.675
	c-3.044,0.062-5.426,2.515-5.453,5.549c0,3.082,2.501,5.601,5.572,5.588c3.063,0.011,5.557-2.465,5.568-5.53
	c0-0.015,0-0.029,0-0.044C974.389,143.026,971.782,140.614,968.701,140.675L968.701,140.675z M968.948,149.606
	c-1.907,0.081-3.519-1.399-3.598-3.306c-0.001,0-0.001-0.001-0.001-0.001c0-0.048,0-0.096,0-0.145c0-1.957,1.614-3.48,3.46-3.448
	c1.906-0.007,3.456,1.531,3.464,3.438c0.008,1.861-1.462,3.393-3.321,3.462l0,0L968.948,149.606z M968.816,143.9
	c-1.245-0.008-2.262,0.995-2.271,2.241c-0.008,1.246,0.996,2.262,2.24,2.27c1.245,0.008,2.262-0.995,2.271-2.241c0,0,0,0,0-0.001
	c0-0.005,0-0.009,0-0.014C971.051,144.918,970.053,143.913,968.816,143.9L968.816,143.9z M954.978,149.606
	c-1.907,0.092-3.528-1.38-3.62-3.287c-0.004-0.055-0.005-0.111-0.005-0.171c0-1.969,1.627-3.473,3.465-3.443
	c1.903-0.046,3.487,1.463,3.53,3.369c0.046,1.905-1.462,3.487-3.368,3.531L954.978,149.606z M954.787,143.901
	c-1.245,0.013-2.245,1.033-2.232,2.279s1.033,2.244,2.278,2.232c1.24-0.013,2.238-1.024,2.233-2.264
	c-0.005-1.246-1.019-2.252-2.265-2.247C954.798,143.901,954.792,143.901,954.787,143.901z"/>
<path id="ta-owl-forehead" fill="#FFD881" d="M964.083,141.08c1.232-1.128,2.696-1.724,4.366-1.849
	c-1.978-0.88-4.062-1.252-6.203-1.294c-2.438-0.048-4.811,0.312-7.075,1.261c1.693,0.104,3.181,0.694,4.438,1.837
	c1.257,1.143,1.989,2.563,2.256,4.238C962.136,143.619,962.852,142.209,964.083,141.08z"/>
<path id="ta-owl-lefteye" fill="#BE3538" d="M954.811,145.002c-0.639,0-1.158,0.518-1.158,1.156c0,0.641,0.52,1.159,1.158,1.159
	s1.157-0.519,1.157-1.159c0-0.001,0-0.003,0-0.006C955.965,145.516,955.448,145.002,954.811,145.002L954.811,145.002z"/>
<path id="ta-owl-righteye" fill="#589442" d="M968.812,145.011c-0.628,0.005-1.134,0.518-1.129,1.145
	c0.006,0.628,0.52,1.133,1.146,1.128c0.628-0.005,1.132-0.518,1.127-1.146c-0.004-0.621-0.506-1.122-1.127-1.127H968.812z"/>
</svg>
