<?xml version="1.0" encoding="utf-8"?>
<!-- Generator: Adobe Illustrator 16.0.0, SVG Export Plug-In . SVG Version: 6.00 Build 0)  -->
<!DOCTYPE svg PUBLIC "-//W3C//DTD SVG 1.1//EN" "http://www.w3.org/Graphics/SVG/1.1/DTD/svg11.dtd">
<svg version="1.1" id="Layer_1" xmlns="http://www.w3.org/2000/svg" xmlns:xlink="http://www.w3.org/1999/xlink" x="0px" y="0px"
	 width="49.333px" height="49.333px" viewBox="0 0 49.333 49.333" enable-background="new 0 0 49.333 49.333" xml:space="preserve">
<circle fill="#FFFFFF" cx="25.333" cy="24.542" r="22.834"/>
<g>
	<path fill="#06B28B" d="M24.667,49.333C11.065,49.333,0,38.268,0,24.667C0,11.065,11.065,0,24.667,0
		c13.601,0,24.666,11.065,24.666,24.667C49.333,38.268,38.268,49.333,24.667,49.333z M24.667,3C12.72,3,3,12.72,3,24.667
		c0,11.947,9.72,21.667,21.667,21.667s21.666-9.721,21.666-21.667C46.333,12.72,36.614,3,24.667,3z"/>
	<g>
		<g>
			<path fill="#0882A1" d="M23.206,39.6c-2.995,0-6.975-0.913-8.833-2.954c-0.769-0.845-1.118-1.829-1.008-2.847
				c0.322-3.01,1.868-4.092,2.398-4.377c-0.171-1.737-0.165-3.947,0.489-6.043c0.988-3.17,3.054-5.071,4.18-5.914
				c-0.679-1.549-1.959-4.629-1.959-5.863c0-1.032,0.523-1.952,1.399-2.46c0.728-0.421,1.572-0.458,2.207-0.096
				c0.161,0.092,0.349,0.213,0.552,0.344c0.245,0.158,0.701,0.453,0.992,0.58c0.992-1.037,2.495-1.626,3.84-0.729
				c0.668,0.446,1.041,1.039,1.313,1.472c0.074,0.118,0.169,0.27,0.238,0.358c1.283-0.135,2.679-0.155,3.473,0.615
				c0.391,0.377,0.579,0.9,0.533,1.472c-0.094,1.178-1.619,3.016-2.807,4.281c1.556,0.942,4.143,2.727,4.758,4.484
				c0.412,1.177,0.482,2.693,0.553,4.16c0.055,1.17,0.118,2.496,0.377,2.959c0.855,1.529,3.133,5.592,0.7,7.817
				c-2.824,2.581-12.789,2.735-13.212,2.74C23.328,39.599,23.267,39.6,23.206,39.6z M16.125,31.737
				c-0.308,0.42-0.648,1.127-0.771,2.275c-0.047,0.445,0.116,0.867,0.499,1.287c1.228,1.35,4.434,2.33,7.511,2.299
				c4.717-0.059,10.452-0.904,11.889-2.217c0.836-0.766,0.469-2.57-1.096-5.363c-0.49-0.874-0.555-2.25-0.629-3.842
				c-0.061-1.261-0.127-2.69-0.443-3.592c-0.418-1.196-3.149-3.08-4.955-4.035l-1.207-0.639l0.974-0.958
				c1.519-1.495,2.917-3.241,3.112-3.871c-0.19-0.067-0.678-0.145-1.879-0.012c-1.146,0.136-1.711-0.762-2.045-1.294
				c-0.213-0.341-0.416-0.663-0.729-0.871c-0.594-0.396-1.406,0.583-1.415,0.593c-0.943,1.156-2.477,0.165-3.393-0.427
				c-0.168-0.109-0.325-0.211-0.459-0.288c-0.005,0.007-0.159,0.031-0.321,0.167c-0.134,0.112-0.292,0.316-0.292,0.652
				c0,0.712,1.103,3.568,2.125,5.807l0.383,0.839l-0.806,0.45c-0.025,0.015-2.891,1.674-4.014,5.277
				c-1.162,3.728,0.096,8.075,0.109,8.118l-1.918,0.566C16.338,32.609,16.241,32.276,16.125,31.737z"/>
			<path fill="#0882A1" d="M25.735,19.133c-1.461,0-3.019-0.162-4.18-0.318l0.267-1.982c2.884,0.387,5.884,0.382,6.417-0.009
				l1.483,1.338C29.081,18.903,27.475,19.133,25.735,19.133z"/>
			<path fill="#F6A720" d="M22.739,20.798l-0.625-0.781c2.319-1.854,1.127-4.875,1.115-4.905l0.927-0.376
				C24.171,14.772,25.633,18.482,22.739,20.798z"/>
			<path fill="#F6A720" d="M28.292,20.751c-2.74-2.111-2.166-5.607-2.14-5.755l0.985,0.171c-0.006,0.03-0.49,3.056,1.764,4.792
				L28.292,20.751z"/>
			<g>
				<g>
					<g>
						<path fill="#F6A720" d="M26.87,25.014c-0.201-0.129-0.408-0.231-0.615-0.307s-0.401-0.113-0.584-0.113
							c-0.244,0-0.474,0.029-0.688,0.089c-0.215,0.06-0.404,0.142-0.568,0.248s-0.293,0.231-0.39,0.376
							c-0.096,0.145-0.144,0.302-0.144,0.472c0,0.198,0.037,0.366,0.109,0.503c0.073,0.139,0.188,0.26,0.351,0.368
							c0.16,0.108,0.369,0.21,0.625,0.308c0.258,0.097,0.57,0.199,0.938,0.311c0.183,0.064,0.364,0.125,0.55,0.184
							c0.185,0.057,0.363,0.118,0.541,0.187c0.176,0.065,0.351,0.139,0.521,0.217c0.171,0.079,0.335,0.17,0.489,0.276
							c0.785,0.529,1.177,1.24,1.177,2.137c0,0.404-0.086,0.779-0.257,1.124c-0.172,0.344-0.404,0.646-0.697,0.905
							c-0.293,0.261-0.635,0.475-1.027,0.642c-0.391,0.168-0.808,0.28-1.248,0.335v1.158h-0.81v-1.124
							c-0.919-0.037-1.685-0.3-2.297-0.79c-0.135-0.105-0.254-0.213-0.357-0.322c-0.104-0.107-0.193-0.213-0.27-0.314
							c-0.074-0.102-0.138-0.192-0.19-0.275c-0.051-0.083-0.093-0.15-0.125-0.207l0.374-0.172c0.197-0.105,0.402-0.159,0.615-0.159
							c0.337,0,0.623,0.108,0.856,0.324l0.125,0.089c0.196,0.146,0.415,0.262,0.657,0.342c0.241,0.08,0.517,0.12,0.829,0.12
							c0.254,0,0.515-0.036,0.785-0.11c0.271-0.072,0.517-0.18,0.735-0.319c0.221-0.14,0.401-0.315,0.545-0.522
							c0.144-0.209,0.215-0.451,0.215-0.728c0-0.267-0.067-0.487-0.203-0.661c-0.135-0.176-0.311-0.324-0.523-0.448
							c-0.218-0.124-0.459-0.229-0.726-0.317c-0.267-0.086-0.53-0.176-0.789-0.269c-0.385-0.133-0.759-0.271-1.125-0.413
							c-0.366-0.142-0.693-0.316-0.981-0.52c-0.288-0.205-0.519-0.455-0.692-0.752c-0.174-0.295-0.261-0.664-0.261-1.104
							c0-0.362,0.077-0.69,0.229-0.981c0.153-0.292,0.358-0.544,0.615-0.758c0.257-0.213,0.553-0.387,0.891-0.521
							c0.337-0.133,0.693-0.22,1.067-0.261v-0.944h0.809v0.924c0.28,0.027,0.557,0.09,0.829,0.189
							c0.271,0.099,0.526,0.216,0.763,0.352c0.237,0.136,0.451,0.282,0.646,0.438c0.193,0.156,0.355,0.306,0.484,0.448l-0.396,0.262
							c-0.218,0.166-0.47,0.25-0.756,0.25C27.28,25.172,27.062,25.119,26.87,25.014z"/>
					</g>
					<rect x="25.115" y="22.411" fill="#F6A720" width="0.738" height="12.075"/>
				</g>
			</g>
		</g>
	</g>
</g>
</svg>
