<?xml version="1.0" encoding="utf-8"?>
<!-- Generator: Adobe Illustrator 16.0.0, SVG Export Plug-In . SVG Version: 6.00 Build 0)  -->
<!DOCTYPE svg PUBLIC "-//W3C//DTD SVG 1.1//EN" "http://www.w3.org/Graphics/SVG/1.1/DTD/svg11.dtd">
<svg version="1.1" id="Layer_1" xmlns="http://www.w3.org/2000/svg" xmlns:xlink="http://www.w3.org/1999/xlink" x="0px" y="0px"
	 width="92.502px" height="92.502px" viewBox="0 0 92.502 92.502" enable-background="new 0 0 92.502 92.502" xml:space="preserve">
<g>
	<g>
		<g opacity="0.5">
			<g>
				<path fill="#4AB59C" d="M92.502,46.251C92.502,20.748,71.754,0,46.25,0C20.748,0,0,20.748,0,46.251
					c0,12.683,5.134,24.188,13.43,32.55c8.384,8.455,20.001,13.701,32.82,13.701c12.955,0,24.673-5.361,33.077-13.972
					c0.016,0.003,0.029,0.004,0.045,0.007c0.009-0.023,0.015-0.053,0.022-0.079c0.751-0.772,1.479-1.567,2.175-2.39
					C88.382,68.009,92.502,57.606,92.502,46.251z M46.25,88.596c-11.783,0-22.456-4.843-30.141-12.638
					C8.57,68.307,3.904,57.814,3.904,46.251c0-23.349,18.998-42.345,42.346-42.345c23.348,0,42.346,18.997,42.346,42.345
					c0,11.658-4.741,22.224-12.39,29.887c-0.007,0.007-0.017,0.016-0.025,0.024c-0.426,0.425-0.869,0.833-1.313,1.24
					c-0.834,0.756-1.959,1.72-3.314,2.745c-0.103,0.074-0.199,0.151-0.301,0.224c-0.384,0.286-0.779,0.573-1.193,0.861
					C63.269,85.869,55.075,88.596,46.25,88.596z M70.61,78.988c-0.063,0.047-0.125,0.093-0.188,0.14
					C70.485,79.081,70.546,79.035,70.61,78.988z"/>
			</g>
		</g>
		<g>
			<path fill-rule="evenodd" clip-rule="evenodd" fill="#4AB59C" d="M75.16,64.923c0,0.52-12.945,0.947-28.912,0.947
				c-15.966,0-28.905-0.427-28.905-0.947c0-0.527,12.939-0.952,28.905-0.952C62.214,63.972,75.16,64.396,75.16,64.923z"/>
			<ellipse fill-rule="evenodd" clip-rule="evenodd" fill="#4AB59C" cx="43.937" cy="69.959" rx="21.265" ry="0.949"/>
			<ellipse fill-rule="evenodd" clip-rule="evenodd" fill="#4AB59C" cx="45.982" cy="75.587" rx="13.368" ry="0.951"/>
		</g>
		<g>
			<g>
				<path fill-rule="evenodd" clip-rule="evenodd" fill="#4AB59C" d="M20.053,28.818c2.321,4.227,0.357,12.74,1.007,18.639
					C18.739,43.231,20.704,34.715,20.053,28.818z"/>
				<path fill-rule="evenodd" clip-rule="evenodd" fill="#4AB59C" d="M14.007,50.42c15.694-1.284,41.549-0.464,61.164-0.934
					C67.622,50.802,25.212,50.027,14.007,50.42z"/>
				<path fill-rule="evenodd" clip-rule="evenodd" fill="#4AB59C" d="M13.503,50.479c3.335-0.642,11.247-1.513,13.098,1.006
					c16.941,0.317,33.258,0.011,48.36-1.511c-0.553,5.893-8.055,4.031-13.099,4.031c-10.816,0-22.132,0.117-33.247,0
					c-5.543-0.06-11.202,0.456-14.609-2.016C14.051,51.275,14.091,50.564,13.503,50.479z"/>
				<path fill-rule="evenodd" clip-rule="evenodd" fill="#4AB59C" d="M71.94,54.509c1.554,1.918-2.004,3.015-2.017,5.038
					c-7.393,0-17.099,0-26.194,0c-8.114,0-19.621,2.73-21.662-4.534C36.872,54.74,59.245,55.563,71.94,54.509z"/>
				<g>
					<path fill="#4AB59C" d="M42.721,14.208c-1.461,14.159-1.423,23.154-1.009,32.241c6.887,0,13.771,0,20.655,0
						C66.437,28.607,58.458,15.456,42.721,14.208z M51.285,17.232c-0.545,5.987-5.75,10.146-8.564,13.097
						C43.749,26.147,48.888,21.721,51.285,17.232z M42.721,42.418c0.536-1.472,5.681-2.73,8.878-3.288
						c3.68-0.643,8.44-1.281,11.272-0.741C56.656,40.232,48.868,40.508,42.721,42.418z M61.36,31.336
						c0.518-0.067,0.545-0.035,0.32,0.05c0.854,0.218-2.714,0.728-3.343,0.957c-4.147,1.51-10.195,4.321-15.112,5.038
						c-0.271,0.039-0.377,0.025-0.374-0.027c-0.524-0.337,2.933-2.726,3.417-2.904C50.357,32.942,55.106,30.735,61.36,31.336z
						 M42.721,34.36c3.947-7.067,11.544-9.964,15.114-12.091C54.265,28.593,45.913,31.7,42.721,34.36z"/>
					<path fill="#4AB59C" d="M40.202,23.779c0.326,7.57-0.654,19.125,0.505,24.18C40.383,40.389,41.364,28.837,40.202,23.779z"/>
					<path fill="#4AB59C" d="M22.573,21.261c-1.219,7.515-1.062,16.404-1.01,25.188c5.542,0,11.085,0,16.625,0
						C40.708,32.068,35.102,22.194,22.573,21.261z M29.596,27.347c-0.333,3.696-3.546,6.257-5.281,8.077
						C24.95,32.847,28.118,30.117,29.596,27.347z M33.632,30.454c-1.396,4.121-6.812,6.451-9.317,7.458
						C26.068,35.316,30.57,32.088,33.632,30.454z M24.315,42.879c0.329-0.906,3.501-1.682,5.475-2.026
						c2.27-0.397,5.203-0.79,6.952-0.458C32.906,41.532,28.104,41.701,24.315,42.879z M33.938,37.284
						c-2.56,0.931-6.516,2.866-9.315,2.49c-1.113-0.148,2.115-1.156,2.45-1.276c2.52-0.931,5.488-2.03,8.735-2.451
						C36.936,35.897,34.357,37.132,33.938,37.284z"/>
					<path fill="#4AB59C" d="M61.36,31.336c0.146,0.015,0.244,0.032,0.32,0.05C61.905,31.301,61.877,31.27,61.36,31.336z"/>
					<path fill="#4AB59C" d="M42.852,37.354c-0.003,0.052,0.103,0.066,0.374,0.027C43.028,37.411,42.914,37.396,42.852,37.354z"/>
					<g>
						<path fill="#4AB59C" d="M66.901,26.801c-1.448,5.439-0.91,12.861-1.008,19.648c4.367,0,8.734,0,13.098,0
							C81.139,35.31,76.406,27.847,66.901,26.801z M76.631,39.675c-2.561,0.932-6.518,2.866-9.315,2.492
							c-1.114-0.15,2.112-1.154,2.449-1.278c2.521-0.93,5.489-2.027,8.735-2.448C79.628,38.29,77.052,39.525,76.631,39.675z
							 M72.288,29.741c-0.335,3.692-3.546,6.255-5.28,8.079C67.642,35.239,70.809,32.51,72.288,29.741z M76.325,32.847
							c-1.396,4.124-6.807,6.453-9.317,7.456C68.761,37.709,73.263,34.483,76.325,32.847z M67.008,45.271
							c0.329-0.905,3.502-1.681,5.475-2.026c2.269-0.397,5.201-0.789,6.951-0.457C75.601,43.925,70.798,44.093,67.008,45.271z"/>
					</g>
				</g>
			</g>
		</g>
	</g>
</g>
</svg>
