<?xml version="1.0" encoding="utf-8"?>
<!-- Generator: Adobe Illustrator 16.0.0, SVG Export Plug-In . SVG Version: 6.00 Build 0)  -->
<!DOCTYPE svg PUBLIC "-//W3C//DTD SVG 1.1//EN" "http://www.w3.org/Graphics/SVG/1.1/DTD/svg11.dtd">
<svg version="1.1" id="Layer_1" xmlns="http://www.w3.org/2000/svg" xmlns:xlink="http://www.w3.org/1999/xlink" x="0px" y="0px"
	 width="49.333px" height="49.333px" viewBox="0 0 49.333 49.333" enable-background="new 0 0 49.333 49.333" xml:space="preserve">
<circle fill="#FFFFFF" cx="24.666" cy="24.667" r="22.834"/>
<g>
	<path fill="#06B28B" d="M24.667,49.333C11.065,49.333,0,38.268,0,24.667C0,11.065,11.065,0,24.667,0
		c13.601,0,24.666,11.064,24.666,24.667C49.333,38.268,38.268,49.333,24.667,49.333z M24.667,3C12.72,3,3,12.72,3,24.667
		c0,11.946,9.72,21.667,21.667,21.667s21.666-9.722,21.666-21.667C46.333,12.72,36.614,3,24.667,3z"/>
</g>
<g>
	<path fill="#0882A1" d="M30.466,39.624c-0.916,0-1.861-0.382-2.859-0.785c-0.905-0.364-1.84-0.742-2.599-0.742
		c-0.698,0-1.481,0.313-2.312,0.644c-1.038,0.414-2.214,0.882-3.552,0.882c-2.199,0-5.002-2.045-5.315-2.279l1.153-1.545
		c0.708,0.528,2.837,1.897,4.162,1.897c0.968,0,1.876-0.363,2.838-0.746c0.963-0.383,1.957-0.78,3.025-0.78
		c1.133,0,2.295,0.47,3.32,0.883c0.808,0.326,1.65,0.659,2.185,0.644c1.261-0.046,3.022-1.057,3.934-1.967l1.36,1.363
		c-0.974,0.975-3.172,2.454-5.223,2.53C30.545,39.622,30.505,39.624,30.466,39.624z"/>
	<polygon fill="#F6A720" points="19.788,34.984 16.354,33.72 13.041,19.383 24.727,14.926 36.292,19.564 33.038,33.779 
		29.666,34.864 32.798,21.552 24.666,18.299 16.655,21.371 	"/>
	<polygon fill="#F6A720" points="19.185,16.573 19.145,11.754 30.308,11.754 30.269,16.573 28.863,15.89 28.742,13.28 20.67,13.24 
		20.63,15.89 	"/>
	<path fill="#F6A720" d="M21.564,11.064l6.325,0.061c0,0-0.211-1.295-0.995-1.416c-4.517,0-4.517,0-4.517,0
		S21.444,10.221,21.564,11.064z"/>
</g>
</svg>
