<?xml version="1.0" encoding="utf-8"?>
<!-- Generator: Adobe Illustrator 15.1.0, SVG Export Plug-In . SVG Version: 6.00 Build 0)  -->
<!DOCTYPE svg PUBLIC "-//W3C//DTD SVG 1.1//EN" "http://www.w3.org/Graphics/SVG/1.1/DTD/svg11.dtd">
<svg version="1.1" id="Layer_1" xmlns="http://www.w3.org/2000/svg" xmlns:xlink="http://www.w3.org/1999/xlink" x="0px" y="0px"
	 width="809px" height="178.5px" viewBox="0 0 809 178.5" enable-background="new 0 0 809 178.5" xml:space="preserve">
<g>
	<g>
		<g>
			<g>
				<path id="SVGID_3_" fill="#53AAB5" d="M4.798,52.598l44.141,0.513L48.61,8.689C48.61,8.689,6.147,10.412,4.798,52.598"/>
			</g>
		</g>
	</g>
	<g>
		<g>
			<g>
				<path id="SVGID_9_" fill="#99CCD2" d="M4.8,109.691l44.138,0.509l-0.327-44.417C48.611,65.783,6.148,67.506,4.8,109.691"/>
			</g>
		</g>
	</g>
	<g>
		<g>
			<g>
				<path id="SVGID_15_" fill="#B1D6DA" d="M4.816,167.932l44.139,0.514l-0.327-44.422C48.627,124.021,6.167,125.745,4.816,167.932"
					/>
			</g>
		</g>
	</g>
	<g>
		<g>
			<g>
				<path id="SVGID_21_" fill="#B2D7DC" d="M63.649,109.753l44.136,0.515l-0.327-44.417
					C107.458,65.851,64.996,67.571,63.649,109.753"/>
			</g>
		</g>
	</g>
	<g>
		<g>
			<g>
				<path id="SVGID_27_" fill="#B2D7DB" d="M121.816,52.962l44.142,0.516l-0.333-44.419
					C165.625,9.058,123.165,10.778,121.816,52.962"/>
			</g>
			<g>
				<defs>
					<path id="SVGID_1_" d="M117.496,47.432l42.892,10.435l9.67-43.353C170.058,14.513,128.302,6.635,117.496,47.432"/>
				</defs>
				<clipPath id="SVGID_2_">
					<use xlink:href="#SVGID_1_"  overflow="visible"/>
				</clipPath>
			</g>
		</g>
	</g>
	<g>
		<g>
			<g>
				<path id="SVGID_33_" fill="#E4F0F1" d="M121.829,109.751l44.141,0.513l-0.329-44.415
					C165.641,65.849,123.177,67.571,121.829,109.751"/>
			</g>
		</g>
	</g>
	<g>
		<g>
			<g>
				<path id="SVGID_39_" fill="#FDFEFF" d="M122.549,168.422l44.141,0.4l-0.439-44.418
					C166.251,124.404,123.792,126.236,122.549,168.422"/>
			</g>
		</g>
	</g>
	<g>
		<path fill="#FCFCFC" d="M413.434,107.279v11.838h-26.544V92.266h-0.75c-1.84,0.267-6.308,1.187-10.029,4.209
			c-3.557,2.889-4.68,7.803-5.026,10.18v55.826h15.805v-29.789h26.544v29.789h15.807V92.327c-0.998,0.098-6.366,0.758-10.715,4.291
			C414.701,99.721,413.688,105.164,413.434,107.279z"/>
		<path fill="#FCFCFC" d="M494.977,123.371c-2.272-5.673-4.529-11.059-6.77-16.159c-2.239-5.101-4.512-10.082-6.819-14.946h-5.333
			c-1.737,0.159-6.804,0.93-10.253,4.644c-3.801,4.088-6.262,10.423-6.262,10.423s-0.018-0.027-0.026-0.046
			c-2.191,5.082-4.418,10.44-6.676,16.086c-2.271,5.676-4.59,11.721-6.962,18.135c-2.371,6.419-4.877,13.411-7.519,20.976h16.411
			c0.769-2.422,1.599-4.922,2.488-7.496c0.89-2.572,1.779-5.141,2.667-7.701h27.423c0.891,2.549,1.787,5.109,2.686,7.682
			c0.899,2.568,1.739,5.076,2.521,7.516h16.929c-2.646-7.563-5.159-14.555-7.533-20.975
			C499.575,135.092,497.249,129.047,494.977,123.371z M463.521,134.721c1.104-3.035,2.193-5.938,3.267-8.699
			c1.072-2.768,2.043-5.301,2.909-7.602c0.868-2.299,1.642-4.327,2.319-6.083c0.68-1.754,1.193-3.144,1.548-4.162
			c0.421,0.997,0.973,2.371,1.654,4.125c0.688,1.755,1.479,3.779,2.389,6.078c0.904,2.304,1.862,4.84,2.869,7.615
			c1.007,2.772,2.047,5.682,3.121,8.728H463.521z"/>
		<path fill="#FCFCFC" d="M550.517,92.266h-0.464c-1.54,0.188-6.395,1.014-10.389,4.258c-3.337,2.709-4.533,7.207-4.954,9.711
			v56.246h46.911v-13.576h-31.104L550.517,92.266L550.517,92.266z"/>
		<path fill="#FCFCFC" d="M648.387,99.968c-3.177-3.104-6.89-5.437-11.145-6.991c-4.258-1.551-8.783-2.33-13.577-2.33
			c-4.661,0-9.104,0.779-13.324,2.33c-4.222,1.556-7.938,3.887-11.146,6.991c-3.207,3.105-5.758,6.938-7.647,11.499
			c-1.893,4.561-2.838,9.848-2.838,15.855c0,6.016,0.914,11.3,2.736,15.857c1.823,4.559,4.319,8.375,7.497,11.447
			c3.175,3.074,6.889,5.389,11.145,6.939c4.255,1.553,8.781,2.332,13.577,2.332c4.93,0,9.54-0.779,13.829-2.332
			c4.289-1.551,7.988-3.865,11.096-6.939c3.104-3.072,5.556-6.891,7.344-11.447c1.789-4.559,2.687-9.843,2.687-15.857
			c0-6.01-0.911-11.295-2.735-15.855C654.059,106.906,651.56,103.073,648.387,99.968z M641.039,136.645
			c-0.844,2.771-2.061,5.152-3.646,7.144c-1.588,1.993-3.547,3.53-5.876,4.608c-2.329,1.08-4.947,1.621-7.853,1.621
			c-2.973,0-5.608-0.541-7.903-1.621c-2.296-1.078-4.239-2.615-5.825-4.608c-1.587-1.99-2.804-4.373-3.647-7.144
			c-0.847-2.77-1.268-5.877-1.268-9.321c0-3.378,0.421-6.468,1.268-9.269c0.845-2.804,2.062-5.199,3.647-7.195
			c1.586-1.989,3.529-3.547,5.825-4.659c2.295-1.116,4.932-1.675,7.903-1.675c2.904,0,5.521,0.543,7.853,1.623
			c2.329,1.082,4.288,2.617,5.876,4.611c1.586,1.991,2.803,4.391,3.646,7.192c0.847,2.803,1.267,5.926,1.267,9.37
			C642.306,130.768,641.886,133.875,641.039,136.645z"/>
		<path fill="#FCFCFC" d="M732.034,92.383c0,0-6.08,0.4-10.895,4.307c-2.78,2.263-4.073,5.761-4.67,8.314v28.702
			c-2.433-3.646-5.032-7.444-7.802-11.397c-2.771-3.951-5.557-7.768-8.359-11.449s-5.556-7.144-8.256-10.385
			c-2.703-3.242-5.168-5.979-7.396-8.209h-12.868v70.215h15.604v-45.998c5.943,6.957,11.552,14.354,16.817,22.188
			c5.27,7.837,10.165,15.771,14.692,23.81h13.271V92.266h-0.243L732.034,92.383z"/>
		<path fill="#FCFCFC" d="M782.63,104.425c0.64,0,1.261,0.028,1.884,0.06l-0.022-0.053c0,0,0.089,0.025,0.244,0.063
			c1.552,0.088,3.045,0.28,4.479,0.565c2.034,0.06,4.508-0.142,6.985-1.014c3.385-1.191,5.495-3.617,6.679-5.454l0.928-2.577
			c-0.541-0.339-1.438-0.809-2.686-1.418c-1.251-0.609-2.836-1.197-4.761-1.771c-1.926-0.573-4.225-1.078-6.891-1.521
			c-2.669-0.438-5.656-0.658-8.968-0.658c-4.864,0-9.439,0.812-13.728,2.434c-4.29,1.621-8.021,4.001-11.195,7.143
			c-3.176,3.143-5.674,6.976-7.499,11.5c-1.823,4.523-2.734,9.726-2.734,15.602c0,5.81,0.825,10.977,2.483,15.503
			c1.652,4.526,4.002,8.342,7.041,11.448c3.039,3.104,6.702,5.472,10.993,7.093c4.288,1.62,9.066,2.43,14.335,2.43
			c6.146,0,11.313-0.422,15.503-1.264c4.187-0.847,7.227-1.64,9.116-2.384V125.4h-15.806v24.418
			c-0.945,0.201-2.042,0.338-3.29,0.404c-1.253,0.067-2.755,0.103-4.512,0.103c-3.24,0-6.079-0.56-8.508-1.673
			c-2.435-1.114-4.462-2.687-6.081-4.713c-1.621-2.023-2.836-4.439-3.647-7.242c-0.81-2.803-1.215-5.928-1.215-9.373
			c0-7.092,1.638-12.678,4.913-16.768C769.947,106.471,775.267,104.425,782.63,104.425z"/>
		<g>
			<path fill="#FCFCFC" d="M226.829,23.441c-2.416-2.061-5.345-3.623-8.703-4.642c-3.308-1.001-6.986-1.508-10.929-1.508
				c-1.92,0-4.063,0.082-6.362,0.24c-2.341,0.165-4.499,0.482-6.412,0.948l-0.882,0.216v47.46l0.882,0.214
				c1.913,0.466,4.069,0.784,6.41,0.947c2.301,0.16,4.443,0.242,6.364,0.242c3.942,0,7.621-0.508,10.931-1.509
				c3.355-1.021,6.285-2.582,8.701-4.644c2.438-2.077,4.348-4.739,5.682-7.902c1.322-3.142,1.992-6.869,1.992-11.081
				c0-4.205-0.669-7.934-1.994-11.079C231.177,28.18,229.267,25.52,226.829,23.441z M225.192,42.422
				c0,5.415-1.445,9.658-4.295,12.611c-2.838,2.941-7.266,4.436-13.156,4.436c-1.837,0-3.254-0.023-4.261-0.067
				c-0.393-0.018-0.735-0.035-1.035-0.052V25.5c0.299-0.02,0.642-0.038,1.035-0.056c1.007-0.043,2.424-0.065,4.261-0.065
				c5.89,0,10.318,1.492,13.156,4.434C223.747,32.766,225.192,37.01,225.192,42.422z"/>
			<path fill="#FCFCFC" d="M265.677,59.564c-0.036,0.006-0.073,0.01-0.113,0.014c-0.513,0.069-1.082,0.135-1.706,0.202
				c-0.619,0.065-1.278,0.118-1.984,0.164c-0.702,0.044-1.377,0.065-2.034,0.065c-2.852,0-4.789-0.753-5.926-2.309
				c-1.203-1.647-1.816-4.525-1.816-8.555V29.516h-8.631v20.991c0,2.487,0.264,4.788,0.783,6.835
				c0.535,2.119,1.427,3.99,2.654,5.558c1.25,1.602,2.914,2.849,4.941,3.716c1.994,0.851,4.454,1.279,7.315,1.279
				c3.173,0,6.017-0.211,8.447-0.627c2.393-0.412,4.353-0.805,5.823-1.169l0.877-0.223v-36.36h-8.63V59.564z"/>
			<path fill="#FCFCFC" d="M323.327,58.531c-0.448,0.183-1.241,0.483-2.38,0.908c-1.02,0.378-2.426,0.57-4.182,0.57
				c-0.956,0-1.792-0.117-2.484-0.349c-0.611-0.202-1.107-0.539-1.512-1.032c-0.426-0.514-0.759-1.269-0.987-2.242
				c-0.25-1.063-0.376-2.447-0.376-4.116V37.13h13.379v-7.614h-13.379V18.363l-8.634,1.488v32.486c0,2.428,0.205,4.598,0.604,6.459
				c0.417,1.948,1.165,3.625,2.221,4.986c1.079,1.384,2.512,2.433,4.262,3.116c1.69,0.662,3.832,0.995,6.364,0.995
				c2.14,0,4.081-0.254,5.766-0.762c1.663-0.497,2.812-0.909,3.512-1.261l0.82-0.408l-1.738-7.439L323.327,58.531z"/>
			<path fill="#FCFCFC" d="M362.689,33.729c-1.23-1.576-2.881-2.814-4.908-3.681c-1.997-0.85-4.502-1.28-7.45-1.28
				c-1.371,0-2.78,0.133-4.185,0.395c-0.824,0.152-1.626,0.347-2.398,0.575V11.912l-8.634,1.482v53.754h8.634V37.499
				c0.079-0.021,0.165-0.044,0.253-0.069c0.492-0.125,1.048-0.244,1.671-0.349c0.637-0.111,1.312-0.212,2.018-0.3
				c2.302-0.289,4.354-0.093,5.762,0.444c0.921,0.349,1.637,0.892,2.186,1.663c0.577,0.805,1.003,1.908,1.264,3.275
				c0.279,1.465,0.42,3.263,0.42,5.354v19.631h8.633v-20.99c0-2.468-0.238-4.771-0.708-6.846
				C364.757,37.164,363.898,35.285,362.689,33.729z"/>
			<path fill="#FCFCFC" d="M398.013,59.564c-0.035,0.006-0.075,0.01-0.111,0.014c-0.514,0.069-1.082,0.135-1.707,0.202
				c-0.619,0.065-1.28,0.118-1.986,0.164c-0.701,0.044-1.376,0.065-2.033,0.065c-2.849,0-4.788-0.753-5.926-2.309
				c-1.203-1.647-1.813-4.525-1.813-8.555V29.516h-8.632v20.991c0,2.487,0.265,4.788,0.782,6.835
				c0.535,2.119,1.429,3.99,2.656,5.558c1.249,1.602,2.911,2.849,4.941,3.716c1.992,0.851,4.453,1.279,7.313,1.279
				c3.175,0,6.019-0.211,8.448-0.627c2.392-0.412,4.353-0.805,5.823-1.169l0.879-0.223v-36.36h-8.633L398.013,59.564L398.013,59.564
				z"/>
			<path fill="#FCFCFC" d="M440.435,30.416c-1.118,4.883-2.326,9.713-3.588,14.355c-1.013,3.723-2.188,7.527-3.503,11.341
				c-0.658-1.49-1.298-3.009-1.912-4.543c-0.984-2.463-1.915-4.958-2.765-7.418c-0.851-2.462-1.634-4.892-2.327-7.223
				c-0.689-2.307-1.291-4.505-1.784-6.528l-0.216-0.884h-9.2l0.378,1.451c1.639,6.275,3.722,12.55,6.194,18.648
				c2.39,5.904,5,11.579,7.761,16.881c-0.986,2.047-2.072,3.548-3.229,4.461c-1.188,0.941-2.91,1.415-5.123,1.415
				c-0.669,0-1.36-0.091-2.055-0.27c-0.724-0.185-1.312-0.378-1.745-0.576l-1.293-0.589l-1.67,7.367l0.812,0.406
				c0.213,0.104,0.575,0.245,1.086,0.406c0.461,0.146,0.972,0.281,1.529,0.4c0.554,0.122,1.121,0.218,1.697,0.289
				c0.593,0.075,1.162,0.111,1.707,0.111c1.963,0,3.757-0.246,5.332-0.729c1.603-0.492,3.068-1.271,4.36-2.312
				c1.261-1.019,2.426-2.328,3.465-3.896c1.003-1.518,1.982-3.346,2.914-5.442c2.309-5.337,4.492-11.164,6.492-17.322
				c1.992-6.132,3.826-12.615,5.456-19.264l0.352-1.435h-8.918L440.435,30.416z"/>
			<polygon fill="#FCFCFC" points="469.486,24.549 472.328,29.789 479.549,29.789 472.314,17.759 466.65,17.759 459.583,29.789 
				466.644,29.789 			"/>
			<polygon fill="#FCFCFC" points="459.677,26.616 455.542,17.957 449.11,17.957 455.144,26.616 			"/>
			<path fill="#FCFCFC" d="M469.622,31.21c-9.761,0-16.577,7.767-16.577,18.886c0,10.771,6.8,17.73,17.325,17.73
				c5.52,0,9.253-1.164,11.412-2.139l0.872-0.396l-1.56-6.541l-1.262,0.535c-1.964,0.835-4.37,1.607-8.65,1.607
				c-2.855,0-9.354-0.917-10.058-9.095h22.915l0.146-1.305c0.071-0.606,0.181-1.523,0.181-2.64
				C484.366,39.57,479.807,31.21,469.622,31.21z M476.237,45.201h-14.89c0.727-3.209,2.942-7.396,7.797-7.396
				c2.043,0,3.684,0.614,4.872,1.825C475.653,41.297,476.117,43.69,476.237,45.201z"/>
			<path fill="#FCFCFC" d="M522.372,39.313c-0.489-2.148-1.35-4.027-2.56-5.583c-1.229-1.576-2.88-2.814-4.907-3.681
				c-1.994-0.85-4.502-1.28-7.449-1.28c-3.165,0-6.02,0.212-8.479,0.628c-2.42,0.412-4.39,0.805-5.859,1.171l-0.878,0.22v36.36
				h8.633V37.141c0.052-0.008,0.104-0.019,0.161-0.03c0.495-0.083,1.06-0.158,1.687-0.226c0.642-0.063,1.315-0.119,2.024-0.165
				c2.326-0.141,4.412-0.035,5.832,0.506c0.924,0.349,1.638,0.892,2.187,1.663c0.576,0.805,1.002,1.908,1.265,3.275
				c0.278,1.465,0.423,3.263,0.423,5.354v19.631h8.632v-20.99C523.081,43.69,522.842,41.388,522.372,39.313z"/>
		</g>
		<g enable-background="new    ">
			<path fill="#FCFCFC" d="M230.926,117.963c-2.168,8.117-4.711,15.898-7.629,23.347c-2.918,7.45-5.74,14.12-8.463,20.012h-7.004
				c-2.725-5.892-5.545-12.562-8.463-20.012c-2.918-7.448-5.461-15.229-7.629-23.347h8.338c0.667,2.725,1.459,5.629,2.376,8.714
				c0.917,3.085,1.889,6.143,2.918,9.172c1.028,3.03,2.07,5.962,3.127,8.797c1.055,2.835,2.056,5.364,3.001,7.587
				c0.945-2.223,1.945-4.752,3.002-7.587c1.055-2.835,2.097-5.767,3.126-8.797c1.028-3.029,2.001-6.087,2.918-9.172
				s1.709-5.989,2.376-8.714H230.926z"/>
		</g>
		<g enable-background="new    ">
			<path fill="#FCFCFC" d="M246.517,109.629c0.083,2.502-1.751,4.503-4.669,4.503c-2.584,0-4.419-2.001-4.419-4.503
				c0-2.584,1.918-4.585,4.586-4.585C244.766,105.044,246.517,107.045,246.517,109.629z M246.1,172.243
				c0,2.335-1.667,4.336-4.168,4.336c-2.418,0-4.168-2.001-4.168-4.336c0-2.334,1.834-4.252,4.252-4.252
				C244.35,167.991,246.1,169.909,246.1,172.243z M238.347,161.321v-40.353h7.337v40.353H238.347z"/>
		</g>
		<g enable-background="new    ">
			<path fill="#FCFCFC" d="M258.442,119.214c1.778-0.444,4.141-0.917,7.087-1.417c2.946-0.5,6.337-0.75,10.172-0.75
				c3.446,0,6.308,0.486,8.588,1.459c2.278,0.973,4.099,2.334,5.461,4.085c1.361,1.751,2.32,3.851,2.876,6.296
				c0.555,2.446,0.834,5.142,0.834,8.088v24.347h-7.754v-22.68c0-2.668-0.181-4.946-0.542-6.837
				c-0.362-1.89-0.959-3.419-1.793-4.586c-0.833-1.168-1.946-2.014-3.335-2.543c-1.39-0.527-3.114-0.793-5.17-0.793
				c-0.833,0-1.696,0.029-2.584,0.084c-0.89,0.057-1.738,0.125-2.543,0.209c-0.807,0.083-1.53,0.181-2.168,0.291
				c-0.64,0.112-1.099,0.195-1.376,0.25v36.604h-7.754V119.214z"/>
			<path fill="#FCFCFC" d="M306.301,161.321V97.952l7.754-1.334v22.179c1.445-0.555,2.987-0.986,4.627-1.292
				c1.639-0.306,3.265-0.458,4.878-0.458c3.446,0,6.308,0.486,8.588,1.459c2.278,0.973,4.099,2.334,5.461,4.085
				c1.361,1.751,2.32,3.851,2.876,6.296c0.555,2.446,0.834,5.142,0.834,8.088v24.347h-7.754v-22.68c0-2.668-0.181-4.946-0.542-6.837
				c-0.362-1.89-0.959-3.419-1.793-4.586c-0.833-1.168-1.946-2.014-3.335-2.543c-1.39-0.527-3.114-0.793-5.17-0.793
				c-0.833,0-1.696,0.057-2.584,0.168c-0.89,0.111-1.738,0.236-2.543,0.375c-0.807,0.139-1.53,0.291-2.168,0.458
				c-0.64,0.167-1.099,0.306-1.376,0.417v36.021H306.301z"/>
		</g>
		<path fill="#FCFCFC" d="M477.592,170.491c0,2.718-2.203,4.919-4.923,4.919c-2.717,0-4.921-2.201-4.921-4.919
			c0-2.722,2.204-4.923,4.921-4.923C475.389,165.568,477.592,167.771,477.592,170.491z"/>
	</g>
</g>
</svg>
