<?xml version="1.0" encoding="utf-8"?>
<!-- Generator: Adobe Illustrator 16.0.0, SVG Export Plug-In . SVG Version: 6.00 Build 0)  -->
<!DOCTYPE svg PUBLIC "-//W3C//DTD SVG 1.1//EN" "http://www.w3.org/Graphics/SVG/1.1/DTD/svg11.dtd">
<svg version="1.1" id="Layer_1" xmlns="http://www.w3.org/2000/svg" xmlns:xlink="http://www.w3.org/1999/xlink" x="0px" y="0px"
	 width="57.857px" height="57.143px" viewBox="0 0 57.857 57.143" enable-background="new 0 0 57.857 57.143" xml:space="preserve">
<g>
	<g>
		<path fill-rule="evenodd" clip-rule="evenodd" fill="#D0B42C" d="M36.704,10.272c-0.024,2.96-0.973,5.224-2.552,7.286
			c-2.494,3.256-4.935,6.552-7.398,9.831c-0.622,0.827-0.688,0.833-1.303,0.015c-2.625-3.49-5.282-6.961-7.859-10.488
			C12.9,10.492,16.553,1.386,24.366,0.141C30.998-0.916,36.627,4.103,36.704,10.272z"/>
		<polyline fill-rule="evenodd" clip-rule="evenodd" fill="#D1D2D1" points="2.378,32.126 13.652,37.481 24.111,33.181 
			35.645,37.481 46.612,33.181 57.857,37.481 57.857,51.847 47.547,46.763 36.121,50.903 25.145,46.173 13.652,50.335 2.378,45.136 
					"/>
	</g>
	<g>
		<g>
			<path fill-rule="evenodd" clip-rule="evenodd" fill="none" stroke="#000000" stroke-miterlimit="10" d="M32.691,11.249
				c-0.022,2.923-0.958,5.158-2.519,7.193c-2.46,3.212-4.866,6.466-7.3,9.7c-0.614,0.817-0.679,0.823-1.285,0.015
				c-2.592-3.445-5.213-6.868-7.756-10.35c-4.631-6.341-1.026-15.326,6.686-16.555C27.063,0.209,32.615,5.162,32.691,11.249z"/>
			<path fill-rule="evenodd" clip-rule="evenodd" fill="none" stroke="#000000" stroke-miterlimit="10" d="M22.338,6.266
				c2.116,0.034,3.788,1.766,3.768,3.901c-0.024,2.168-1.766,3.88-3.911,3.839c-2.197-0.041-3.86-1.735-3.843-3.908
				C18.373,7.888,20.096,6.232,22.338,6.266z"/>
		</g>
		<polyline fill-rule="evenodd" clip-rule="evenodd" fill="none" stroke="#000000" stroke-miterlimit="10" points="26.105,24.595 
			34.339,28.759 44.798,24.244 55.98,28.759 55.98,56.352 44.829,51.059 34.244,55.408 22.616,50.398 11.775,54.84 0.5,49.641 
			0.5,22.567 11.775,26.582 		"/>
		
			<line fill-rule="evenodd" clip-rule="evenodd" fill="none" stroke="#000000" stroke-miterlimit="10" x1="44.735" y1="25.068" x2="44.735" y2="50.303"/>
		
			<line fill-rule="evenodd" clip-rule="evenodd" fill="none" stroke="#000000" stroke-miterlimit="10" x1="34.621" y1="29.322" x2="34.621" y2="54.651"/>
		
			<line fill-rule="evenodd" clip-rule="evenodd" fill="none" stroke="#000000" stroke-miterlimit="10" x1="11.775" y1="27.904" x2="11.775" y2="53.895"/>
		
			<line fill-rule="evenodd" clip-rule="evenodd" fill="none" stroke="#000000" stroke-miterlimit="10" x1="22.616" y1="29.322" x2="22.616" y2="49.737"/>
	</g>
</g>
</svg>
