<?xml version="1.0" encoding="utf-8"?>
<!-- Generator: Adobe Illustrator 16.0.0, SVG Export Plug-In . SVG Version: 6.00 Build 0)  -->
<!DOCTYPE svg PUBLIC "-//W3C//DTD SVG 1.1//EN" "http://www.w3.org/Graphics/SVG/1.1/DTD/svg11.dtd">
<svg version="1.1" id="Layer_1" xmlns="http://www.w3.org/2000/svg" xmlns:xlink="http://www.w3.org/1999/xlink" x="0px" y="0px"
	 width="78.188px" height="52.226px" viewBox="0 0 78.188 52.226" enable-background="new 0 0 78.188 52.226" xml:space="preserve">
<g>
	<path fill="#D0B42C" d="M34.631,15.048c1.82,0.125,3.358,0.753,3.641,1.726c0.283,0.974,0.251,1.789-0.879,2.354
		c-1.13,0.564-1.256,0.816-1.192,1.412c0.063,0.597,0.533,1.067,0.533,1.413c0,0.345-0.533,0.973-1.381,2.103
		c-0.847,1.131-1.35,2.605-1.35,3.642c0,1.035,0.408,3.547,1.412,3.955c1.005,0.407,1.036,0.753,2.009,0.251
		c0.973-0.503,2.26-0.911,2.699-0.251c0.44,0.659,1.664,1.538,1.884,3.201s-0.282,4.395,0.22,5.713s0.597,2.699,1.193,3.201
		c0.596,0.502,2.949,0.722,3.893-2.166c0.941-2.888,1.256-2.542,1.758-3.609s1.129-1.789,1.129-3.233
		c0-1.443-0.314-1.412,0.691-2.385c1.004-0.974,1.852-1.256,1.35-2.04c-0.502-0.785-0.785-1.318-1.695-1.853
		c-0.91-0.533-2.668-3.139-2.889-4.237c-0.219-1.099-1.631-1.883-2.447-2.386c-0.816-0.502-0.377-1.694-2.26-2.009
		c-1.884-0.313-3.422-0.565-2.574,0.534c0.848,1.099,2.982,0.407,4.99,0.847c2.01,0.439,2.795,1.036,3.234,2.229
		c0.438,1.193,0.689,1.978,2.133,2.7c1.445,0.722,2.197,1.099,3.139,0.597c0.943-0.503,0.189-1.633,0-1.695
		c-0.188-0.063-2.416-0.628-1.506-1.633c0.91-1.004,1.1-0.251,2.104,0.628s1.225,1.443,2.197,1.412s1.318-0.25,1.6,1.633
		c0.283,1.884,0.127,3.453,1.193,3.265s1.537-0.942,1.789-2.354s0.031-1.758,1.381-1.632c1.35,0.125,1.633-0.848,2.48,1.286
		c0.848,2.135,1.16,2.794,1.506,3.642s0.252,1.161,1.57,2.135c1.318,0.973,2.512,2.416,3.012,2.103
		c0.504-0.313,0.314-1.35,1.037-1.099s1.35,1.225,1.727,2.856s0.596,3.17,0,4.175c-0.596,1.004-2.322,2.95-3.17,3.295
		c-0.848,0.346-0.879,0.408-1.318,0.314c-0.439-0.095-0.473-0.126-0.221-1.225c0.252-1.098,0.127-1.945-1.066-2.385
		s-2.668-0.221-3.297,0.346c-0.627,0.564-0.596,0.721-1.254,0.533c-0.66-0.189-1.225,0.345-0.975-1.287
		c0.252-1.632-0.408-1.538,0.754-3.013c1.162-1.476,1.193-0.691,2.418-1.884c1.223-1.192,1.459-0.505,1.725-1.758
		c0.268-1.252,0.598-1.036,0.441-2.511c-0.158-1.476-0.535-0.785,0.188-2.072c0.723-1.286,1.066-1.476,0.564-2.229
		s-1.129-1.412-0.471-1.789s1.57,0,2.512-0.439s1.664-0.816,1.098-1.915c-0.564-1.099-3.014-2.354-2.291-3.044
		c0.723-0.691,0.973-0.188,2.008-0.691c1.037-0.502,1.822-0.471,1.32-1.914c-0.504-1.444-3.172-2.543-2.543-3.798
		c0.627-1.256,1.475-1.318,2.605-0.816c1.129,0.503,2.133,2.637,3.137,2.856c1.006,0.22,1.162-0.439,0.912-1.443
		c-0.252-1.005,0.156-0.69,0.564-1.444c0.408-0.753,1.318-1.601-0.533-1.82s-3.328,0.188-4.488-0.22
		c-1.162-0.408-2.982-1.318-4.176-1.35c-1.191-0.031-1.914,0.313-3.045,0.847c-1.129,0.534-0.752,0.503-2.572-0.313
		s-2.48-1.256-4.459-0.941c-1.977,0.313-3.389,0.816-5.053,1.663c-1.664,0.848-2.385,1.225-3.83,1.413
		c-1.443,0.188-1.725,0.784-3.607,0.502c-1.885-0.282-5.244-1.193-5.338,0c-0.094,1.192,2.261,3.17,4.865,0.471"/>
	<path fill="#D0B42C" d="M37.567,12.725c0.502-0.69,1.978-2.448-0.88-2.417"/>
	<path fill="#D1D2D1" d="M13.586,10.942c0,0,4.75-1.334,5.75,0c1,1.333-3.3,2.265-2.166,2.833c1.133,0.569,1.131-1.278,2.836-0.957
		c1.704,0.322,3.462,2.436,3.07,3.043c-0.391,0.607-3.023,1.471-3.321,1.697s-1.621,2.035-2.001,2.188
		c-0.38,0.151-1.334,0.279-1.668,0.946c-0.333,0.666-0.749,0.858-0.916,2.221s-2.199,1.041-2.543,0.881
		c-0.344-0.159-1.403-1.767-1.374,0.151s1.669,2.008,2.293,3.794s1.015,2.246,0.819,2.017c-0.195-0.23-7.845-2.541-8.563-5.394
		c-0.719-2.854-1.716-4.504-1.383-5.67c0.333-1.167,0.996-4.126,0.666-4.834c-0.33-0.707-2.416,0.25-3.25,0
		c-0.833-0.25-2.011-0.626-0.089-1.646c1.923-1.02,0.327-2.556,3.708-1.413c3.381,1.144,4.048,1.31,4.965,1.06
		c0.916-0.25,1.166-0.916,1.166-0.916"/>
	<path fill="none" stroke="#000000" stroke-miterlimit="10" d="M13.759,10.904c0,0-1.255-0.628-2.071-0.314
		c-0.815,0.314-1.978,0.565-2.071,0.597s-2.04-0.188-2.668-0.188s-2.229-0.564-3.704,0.063c-1.476,0.627-1.946,1.914-2.165,2.165
		c-0.22,0.252-1.067,0.91-0.188,1.099c0.878,0.188,1.601-0.156,2.166-0.438c0.564-0.283,1.977-1.538,2.793,0.063
		s-0.377,4.331-0.628,5.493c-0.251,1.161-0.376,4.362,1.287,5.807c1.663,1.443,5.305,3.296,6.184,3.609s1.35,1.161,2.479,0.91
		s0.91-0.91,2.292-0.722c1.381,0.188,2.605,0.784,3.201,1.538c0.597,0.753,1.632,1.727,2.762,2.197s4.552,1.35,4.803,2.542
		s-1.161,1.695-1.193,3.014c-0.031,1.318,0.44,2.385-0.438,2.824s-2.041,1.476-2.292,2.229c-0.251,0.754-0.596,1.946-1.475,2.448
		c-0.879,0.503-2.292,1.005-2.292,1.664s0.282,1.632,0.723,2.855c0.438,1.224,0.533,1.538-0.188,1.287
		c-0.723-0.252-2.731-2.763-2.763-4.864c-0.031-2.104,0.157-7.313-1.412-8.192s-3.39-1.758-2.731-4.96
		c0.66-3.201,0.534-3.986-0.282-5.43s-3.704-2.479-3.296-3.704c0.408-1.224,0.628-1.538,1.287-1.099s2.119,1.067,2.504,0.346
		c0.384-0.722,0.572-1.192,0.541-2.166c-0.031-0.973,0.188-1.099,1.224-1.476c1.036-0.377,1.382,0.126,2.01-0.784
		c0.627-0.91,0.784-1.162,1.601-1.758c0.815-0.597,0.815-0.628,2.04-0.848c1.224-0.22,1.507-0.408,1.13-1.852
		c-0.377-1.444-1.915-2.479-2.919-2.041c-1.005,0.439-1.758,1.821-2.135,1.853c-0.376,0.031-1.663,0.282-1.538-1.13
		c0.126-1.413,2.731-2.605,5.713-2.009c2.982,0.596,3.296,1.569,4.708,1.789c1.413,0.22,3.735,0.094,4.238-0.597
		c0.502-0.69,1.977-2.448-0.88-2.417c-2.855,0.031-2.672,1.303-2.637,2.197c0.036,0.895,1.067,2.417,2.888,2.543
		c1.821,0.125,3.359,0.753,3.642,1.726c0.282,0.974,0.251,1.789-0.879,2.354c-1.13,0.564-1.256,0.816-1.192,1.412
		c0.063,0.597,0.533,1.067,0.533,1.413c0,0.345-0.533,0.973-1.381,2.103c-0.848,1.131-1.35,2.605-1.35,3.642
		c0,1.035,0.408,3.547,1.412,3.955c1.004,0.407,1.036,0.753,2.009,0.251c0.973-0.503,2.26-0.911,2.699-0.251
		c0.44,0.659,1.664,1.538,1.884,3.201s-0.282,4.395,0.22,5.713s0.597,2.699,1.193,3.201c0.596,0.502,2.949,0.722,3.893-2.166
		c0.94-2.888,1.255-2.542,1.757-3.609c0.504-1.067,1.131-1.789,1.131-3.233c0-1.443-0.314-1.412,0.689-2.385
		c1.004-0.974,1.854-1.256,1.35-2.04c-0.502-0.785-0.783-1.318-1.693-1.853c-0.91-0.533-2.669-3.139-2.89-4.237
		c-0.219-1.099-1.632-1.883-2.447-2.386c-0.816-0.502-0.377-1.694-2.26-2.009c-1.884-0.313-3.422-0.565-2.574,0.534
		c0.848,1.099,2.982,0.407,4.99,0.847c2.01,0.439,2.794,1.036,3.233,2.229c0.439,1.193,0.691,1.978,2.135,2.7
		c1.443,0.722,2.197,1.099,3.139,0.597c0.941-0.503,0.188-1.633,0-1.695c-0.188-0.063-2.416-0.628-1.506-1.633
		c0.91-1.004,1.098-0.251,2.104,0.628c1.004,0.879,1.223,1.443,2.195,1.412s1.318-0.25,1.602,1.633
		c0.283,1.884,0.125,3.453,1.193,3.265c1.066-0.188,1.537-0.942,1.789-2.354c0.25-1.412,0.031-1.758,1.381-1.632
		c1.35,0.125,1.631-0.848,2.479,1.286c0.848,2.135,1.162,2.794,1.508,3.642c0.344,0.848,0.25,1.161,1.568,2.135
		c1.318,0.973,2.512,2.416,3.014,2.103s0.314-1.35,1.035-1.099c0.723,0.251,1.35,1.225,1.727,2.856s0.596,3.17,0,4.175
		c-0.596,1.004-2.322,2.95-3.17,3.295c-0.848,0.346-0.879,0.408-1.318,0.314c-0.439-0.095-0.471-0.126-0.219-1.225
		c0.25-1.098,0.125-1.945-1.068-2.385c-1.191-0.439-2.668-0.221-3.295,0.346c-0.629,0.564-0.598,0.721-1.256,0.533
		c-0.658-0.189-1.225,0.345-0.973-1.287c0.25-1.632-0.408-1.538,0.754-3.013c1.16-1.476,1.191-0.691,2.416-1.884
		s1.461-0.505,1.727-1.758c0.266-1.252,0.596-1.036,0.439-2.511c-0.158-1.476-0.533-0.785,0.188-2.072
		c0.723-1.286,1.068-1.476,0.566-2.229c-0.504-0.753-1.131-1.412-0.471-1.789c0.658-0.377,1.568,0,2.51-0.439
		s1.664-0.816,1.098-1.915c-0.564-1.099-3.012-2.354-2.289-3.044c0.721-0.691,0.973-0.188,2.008-0.691
		c1.035-0.502,1.82-0.471,1.318-1.914c-0.502-1.444-3.17-2.543-2.543-3.798c0.629-1.256,1.477-1.318,2.605-0.816
		c1.131,0.503,2.135,2.637,3.139,2.856c1.006,0.22,1.162-0.439,0.91-1.443c-0.25-1.005,0.158-0.69,0.566-1.444
		c0.408-0.753,1.316-1.601-0.535-1.82s-3.326,0.188-4.488-0.22c-1.16-0.408-2.982-1.318-4.174-1.35
		c-1.193-0.031-1.914,0.313-3.045,0.847c-1.131,0.534-0.754,0.503-2.574-0.313s-2.48-1.256-4.457-0.941
		c-1.977,0.313-3.391,0.816-5.053,1.663c-1.664,0.848-2.385,1.225-3.83,1.413c-1.444,0.188-1.726,0.784-3.609,0.502
		s-5.243-1.193-5.337,0c-0.094,1.192,2.261,3.17,4.865,0.471c2.605-2.699,6.058-7.251,9.731-8.726"/>
	<path fill-rule="evenodd" clip-rule="evenodd" d="M53.244,3.214c-0.592,0.376-1.162,0.735-1.73,1.101
		C51.49,4.33,51.477,4.388,51.48,4.422c0.064,0.416,0.131,0.831,0.203,1.245c0.014,0.071-0.004,0.111-0.061,0.152
		c-0.076,0.054-0.148,0.119-0.229,0.187c-0.199-0.446-0.391-0.875-0.578-1.297c-0.268,0.103-0.529,0.203-0.791,0.304
		c-0.01-0.013-0.02-0.023-0.029-0.035c0.166-0.225,0.33-0.448,0.502-0.684c-0.355-0.293-0.717-0.59-1.088-0.896
		c0.098-0.071,0.186-0.144,0.281-0.202c0.027-0.016,0.084-0.005,0.117,0.012c0.381,0.171,0.758,0.345,1.137,0.521
		c0.057,0.026,0.096,0.029,0.145-0.015c0.49-0.443,0.984-0.885,1.475-1.327c0.004-0.004,0.006-0.012,0.023-0.04
		c-0.156-0.167-0.307-0.354-0.482-0.51c-0.621-0.555-1.252-1.1-1.881-1.648c-0.01-0.009-0.02-0.02-0.051-0.052
		c0.074-0.047,0.139-0.097,0.211-0.132c0.031-0.013,0.08-0.002,0.115,0.013c0.402,0.169,0.805,0.339,1.207,0.515
		c0.066,0.028,0.113,0.027,0.17-0.021c0.082-0.071,0.172-0.134,0.26-0.199c0.104-0.076,0.174-0.067,0.254,0.034
		c0.043,0.057,0.088,0.113,0.129,0.171c0.09,0.122,0.082,0.18-0.037,0.274c-0.016,0.012-0.029,0.025-0.055,0.046
		c0.127,0.056,0.242,0.11,0.359,0.155c0.027,0.01,0.074-0.008,0.1-0.027c0.104-0.072,0.201-0.152,0.305-0.227
		c0.1-0.073,0.168-0.063,0.246,0.033c0.047,0.058,0.092,0.118,0.137,0.179c0.08,0.106,0.07,0.178-0.033,0.261
		c-0.025,0.021-0.049,0.044-0.084,0.073c0.094,0.04,0.176,0.081,0.26,0.109c0.027,0.009,0.068-0.008,0.096-0.025
		c0.318-0.229,0.631-0.466,0.953-0.688c0.299-0.205,0.633-0.332,0.996-0.36c0.072-0.006,0.15,0.001,0.223,0.019
		c0.088,0.022,0.119,0.092,0.109,0.182c-0.02,0.21-0.121,0.388-0.23,0.56c-0.143,0.228-0.326,0.417-0.535,0.583
		c-0.258,0.204-0.512,0.409-0.773,0.605c-0.076,0.058-0.107,0.111-0.08,0.201c0.012,0.042,0.014,0.087,0.021,0.139
		c0.023-0.012,0.043-0.021,0.061-0.033c0.129-0.093,0.188-0.085,0.283,0.037c0.047,0.06,0.094,0.118,0.137,0.18
		c0.063,0.091,0.053,0.161-0.033,0.229c-0.096,0.076-0.199,0.146-0.293,0.226c-0.027,0.024-0.057,0.073-0.055,0.107
		c0.01,0.122,0.033,0.241,0.051,0.373c0.031-0.021,0.055-0.035,0.08-0.052c0.076-0.051,0.158-0.043,0.217,0.026
		c0.061,0.073,0.119,0.149,0.174,0.228s0.043,0.154-0.033,0.216c-0.084,0.068-0.168,0.14-0.26,0.197
		c-0.078,0.047-0.09,0.104-0.078,0.185c0.059,0.427,0.111,0.854,0.17,1.281c0.01,0.077,0.002,0.135-0.072,0.176
		c-0.047,0.026-0.084,0.07-0.135,0.115c-0.031-0.056-0.057-0.096-0.076-0.137c-0.348-0.735-0.691-1.473-1.047-2.203
		C53.492,3.569,53.361,3.397,53.244,3.214z"/>
</g>
</svg>
