<?xml version="1.0" encoding="utf-8"?>
<!-- Generator: Adobe Illustrator 15.1.0, SVG Export Plug-In . SVG Version: 6.00 Build 0)  -->
<!DOCTYPE svg PUBLIC "-//W3C//DTD SVG 1.1//EN" "http://www.w3.org/Graphics/SVG/1.1/DTD/svg11.dtd">
<svg version="1.1" id="Layer_1" xmlns="http://www.w3.org/2000/svg" xmlns:xlink="http://www.w3.org/1999/xlink" x="0px" y="0px"
	 width="24px" height="24px" viewBox="0 0 24 24" enable-background="new 0 0 24 24" xml:space="preserve">
<g>
	<path fill="none" stroke="#333333" stroke-width="0.5" stroke-miterlimit="10" d="M1.349,11.843h21.131
		c0,0,1.377,0.051,1.007,1.482c-0.371,0.954-1.324,0.636-1.324,0.636s-0.847,4.289-2.646,5.826
		c-0.056,2.223-0.056,2.223-0.056,2.223h-0.739l-0.213-1.693L6.75,20.158L6.329,22.01H5.586L5.48,20.209c0,0-0.581,0.371-1.8-1.324
		c-1.217-1.693-1.272-4.023-1.96-4.66c-0.688-0.635-1.27-0.899-1.27-1.429C0.449,12.266,1.349,11.843,1.349,11.843z"/>
	<path fill="none" stroke="#333333" stroke-width="0.5" stroke-miterlimit="10" d="M4.421,11.047c0,0,0-2.382,2.224-2.594
		c2.223-0.213,2.542,2.275,2.49,2.594c0.701-1.035,2.201-1.358,3.458,0"/>
	<circle fill="none" stroke="#333333" stroke-width="0.5" stroke-miterlimit="10" cx="5.373" cy="5.932" r="1.219"/>
	<circle fill="none" stroke="#333333" stroke-width="0.5" stroke-miterlimit="10" cx="9.15" cy="6.723" r="1.312"/>
	<circle fill="none" stroke="#333333" stroke-width="0.5" stroke-miterlimit="10" cx="7.779" cy="2.983" r="0.993"/>
	<circle fill="none" stroke="#333333" stroke-width="0.5" stroke-miterlimit="10" cx="16.175" cy="8.44" r="1.9"/>
</g>
</svg>
