<?xml version="1.0" encoding="utf-8"?>
<!-- Generator: Adobe Illustrator 15.1.0, SVG Export Plug-In . SVG Version: 6.00 Build 0)  -->
<!DOCTYPE svg PUBLIC "-//W3C//DTD SVG 1.1//EN" "http://www.w3.org/Graphics/SVG/1.1/DTD/svg11.dtd">
<svg version="1.1" id="Layer_1" xmlns="http://www.w3.org/2000/svg" xmlns:xlink="http://www.w3.org/1999/xlink" x="0px" y="0px"
	 width="24px" height="24px" viewBox="-2 -2 24 24" enable-background="new -2 -2 24 24" xml:space="preserve">
<g>
	<path fill="none" stroke="#333333" stroke-width="0.5" stroke-miterlimit="10" d="M6.079-1.287c0,0-2.947,1.505-2.67,6.062"/>
	<path fill="none" stroke="#333333" stroke-width="0.5" stroke-miterlimit="10" d="M3.619-1.287c0,0-3.413,2.883-3.583,7.398"/>
	<path fill="none" stroke="#333333" stroke-width="0.5" stroke-miterlimit="10" d="M8.877,3.694c0,0-8.225,3.519-8.352,3.731
		c-0.128,0.213-0.72,2.848,1.908,3.797c0.975,0.402,0.848-0.83,0.465-1.38c-0.382-0.553-0.72-1.654-0.72-1.654l8.436-3.413"/>
	<path fill="none" stroke="#333333" stroke-width="0.5" stroke-miterlimit="10" d="M12.438,0.77c0,0,2.204,2.119,1.653,2.584
		C13.54,3.822,9.384,4.458,9.639,6.11c0.254,1.654,1.995,5.191,1.995,5.191s0.542,4.051,0.271,4.56
		c-0.27,0.506-1.926,3.604-1.926,4.579s1.357,1.822,2.29,0c0.935-1.824,2.12-4.918,2.12-4.918l0.679-4.961l-1.526-5.003
		c0,0,2.67-0.721,2.543-1.866c-0.127-1.144-2.502-4.534-3.941-4.534"/>
	<circle fill="none" stroke="#333333" stroke-width="0.5" stroke-miterlimit="10" cx="9.95" cy="1.288" r="2.872"/>
	<path fill="none" stroke="#333333" stroke-width="0.5" stroke-miterlimit="10" d="M15.235,10.944l2.756,7.548
		c0,0,1.313,2.396,0,3.021c-1.315,0.624-1.696-1.031-2.078-2.217s-1.467-4.204-1.467-4.204"/>
</g>
</svg>
