<?xml version="1.0" encoding="utf-8"?>
<!-- Generator: Adobe Illustrator 15.1.0, SVG Export Plug-In . SVG Version: 6.00 Build 0)  -->
<!DOCTYPE svg PUBLIC "-//W3C//DTD SVG 1.1//EN" "http://www.w3.org/Graphics/SVG/1.1/DTD/svg11.dtd">
<svg version="1.1" id="Layer_1" xmlns="http://www.w3.org/2000/svg" xmlns:xlink="http://www.w3.org/1999/xlink" x="0px" y="0px"
	 width="15.529px" height="15.594px" viewBox="47.919 3.474 15.529 15.594" enable-background="new 47.919 3.474 15.529 15.594"
	 xml:space="preserve">
<g>
	<path fill="#419453" d="M55.684,18.919c-4.266,0-7.649-3.453-7.649-7.651c0-4.266,3.452-7.651,7.649-7.651
		c4.198,0,7.65,3.385,7.65,7.583C63.335,15.466,59.883,18.919,55.684,18.919"/>
	<path fill="#FFFFFF" d="M55.684,5.107c-3.386,0-6.094,2.708-6.094,6.094c0,3.387,2.776,6.094,6.094,6.094
		c3.318,0,6.095-2.709,6.095-6.094C61.779,7.883,59.071,5.107,55.684,5.107"/>
	<path fill="#419453" d="M51.284,11.132c0,2.438,1.963,4.402,4.399,4.402c2.438,0,4.401-1.964,4.401-4.402
		c0-2.437-1.964-4.399-4.401-4.399C53.247,6.733,51.284,8.696,51.284,11.132"/>
</g>
</svg>
