<?xml version="1.0" encoding="utf-8"?>
<!-- Generator: Adobe Illustrator 15.1.0, SVG Export Plug-In . SVG Version: 6.00 Build 0)  -->
<!DOCTYPE svg PUBLIC "-//W3C//DTD SVG 1.1//EN" "http://www.w3.org/Graphics/SVG/1.1/DTD/svg11.dtd">
<svg version="1.1" id="Layer_1" xmlns="http://www.w3.org/2000/svg" xmlns:xlink="http://www.w3.org/1999/xlink" x="0px" y="0px"
	 width="15.781px" height="15.656px" viewBox="93.656 3.427 15.781 15.656" enable-background="new 93.656 3.427 15.781 15.656"
	 xml:space="preserve">
<path d="M101.609,5.107c-3.386,0-6.094,2.708-6.094,6.094c0,3.387,2.775,6.094,6.094,6.094c3.386,0,6.094-2.709,6.094-6.094
	C107.702,7.883,104.994,5.107,101.609,5.107"/>
<path fill="#FFFFFF" d="M101.609,18.919c-4.266,0-7.65-3.453-7.65-7.651c0-4.266,3.453-7.651,7.65-7.651
	c4.266,0,7.65,3.453,7.65,7.651C109.327,15.466,105.874,18.919,101.609,18.919"/>
<path fill="#419453" d="M101.609,18.919c-4.266,0-7.65-3.453-7.65-7.651c0-4.266,3.453-7.651,7.65-7.651s7.65,3.453,7.65,7.651
	C109.327,15.466,105.874,18.919,101.609,18.919"/>
<path fill="#FFFFFF" d="M101.609,5.107c-3.386,0-6.094,2.708-6.094,6.094c0,3.387,2.775,6.094,6.094,6.094
	c3.317,0,6.094-2.709,6.094-6.094C107.702,7.883,104.994,5.107,101.609,5.107"/>
<path fill="#419453" d="M97.208,11.269c0,2.438,1.963,4.4,4.4,4.4V6.868C99.171,6.868,97.208,8.832,97.208,11.269"/>
</svg>
