<?xml version="1.0" encoding="utf-8"?>
<!-- Generator: Adobe Illustrator 16.0.0, SVG Export Plug-In . SVG Version: 6.00 Build 0)  -->
<!DOCTYPE svg PUBLIC "-//W3C//DTD SVG 1.1//EN" "http://www.w3.org/Graphics/SVG/1.1/DTD/svg11.dtd">
<svg version="1.1" id="Layer_1" xmlns="http://www.w3.org/2000/svg" xmlns:xlink="http://www.w3.org/1999/xlink" x="0px" y="0px"
	 width="265.356px" height="35.465px" viewBox="0 0 265.356 35.465" enable-background="new 0 0 265.356 35.465"
	 xml:space="preserve">
<polygon fill="#FFFFFF" points="56.708,0.65 56.708,0.6 56.698,0.6 "/>
<g>
	<g>
		<path fill="#B2D7DB" d="M41.735,31.477c0-2.253,1.628-3.933,3.841-3.933c2.192,0,3.831,1.668,3.831,3.933
			s-1.639,3.933-3.831,3.933C43.364,35.41,41.735,33.731,41.735,31.477z M48.634,31.477c0-1.845-1.305-3.204-3.058-3.204
			c-1.764,0-3.079,1.359-3.079,3.204c0,1.845,1.315,3.204,3.079,3.204C47.33,34.681,48.634,33.322,48.634,31.477z"/>
		<path fill="#B2D7DB" d="M52.347,28.848v0.685h1.691v0.663h-1.67v5.148h-0.741v-5.148h-0.981v-0.663h0.981v-0.718
			c0-1.039,0.584-1.724,1.66-1.724c0.407,0,0.824,0.122,1.096,0.365l-0.25,0.585c-0.208-0.188-0.501-0.287-0.814-0.287
			C52.681,27.754,52.347,28.13,52.347,28.848z"/>
		<path fill="#B2D7DB" d="M57.345,27.091c0.407,0,0.824,0.122,1.096,0.365l-0.25,0.585c-0.208-0.188-0.501-0.287-0.814-0.287
			c-0.637,0-0.971,0.375-0.971,1.093v0.685h1.691v0.663h-1.67v5.148h-0.741v-5.148h-0.981v-0.663h0.981v-0.718
			C55.685,27.776,56.27,27.091,57.345,27.091z M60.852,27.688c0,0.32-0.229,0.574-0.543,0.574c-0.303,0-0.542-0.254-0.542-0.563
			c0-0.298,0.24-0.553,0.542-0.553S60.852,27.39,60.852,27.688z M59.933,29.533h0.741v5.811h-0.741V29.533z"/>
		<path fill="#B2D7DB" d="M62.707,32.438c0-1.734,1.19-2.95,2.829-2.95c0.929,0,1.711,0.387,2.15,1.149l-0.553,0.397
			c-0.376-0.585-0.96-0.861-1.597-0.861c-1.2,0-2.077,0.906-2.077,2.265c0,1.37,0.877,2.265,2.077,2.265
			c0.637,0,1.221-0.265,1.597-0.851l0.553,0.397c-0.438,0.751-1.221,1.149-2.15,1.149C63.896,35.399,62.707,34.173,62.707,32.438z"
			/>
		<path fill="#B2D7DB" d="M69.488,27.699c0-0.298,0.24-0.553,0.543-0.553s0.542,0.243,0.542,0.542c0,0.32-0.229,0.574-0.542,0.574
			C69.729,28.262,69.488,28.008,69.488,27.699z M69.655,29.533h0.741v5.811h-0.741V29.533z"/>
		<path fill="#B2D7DB" d="M77.127,31.742v3.602h-0.709v-0.906c-0.334,0.596-0.981,0.961-1.889,0.961
			c-1.242,0-2.004-0.685-2.004-1.69c0-0.895,0.543-1.646,2.119-1.646h1.743v-0.354c0-0.994-0.532-1.535-1.555-1.535
			c-0.71,0-1.378,0.265-1.827,0.685l-0.334-0.585c0.553-0.497,1.367-0.784,2.234-0.784C76.323,29.489,77.127,30.24,77.127,31.742z
			 M76.386,33.598v-0.95h-1.722c-1.064,0-1.409,0.441-1.409,1.038c0,0.674,0.512,1.094,1.388,1.094
			C75.478,34.78,76.094,34.36,76.386,33.598z"/>
		<path fill="#B2D7DB" d="M79.661,27.146h0.741v8.197h-0.741V27.146z"/>
		<path fill="#B2D7DB" d="M96.431,27.61l-2.463,7.733h-0.814l-2.14-6.595l-2.15,6.595h-0.804l-2.463-7.733h0.793l2.108,6.651
			l2.181-6.651h0.72l2.15,6.684l2.14-6.684H96.431z"/>
		<path fill="#B2D7DB" d="M102.564,32.681h-4.592c0.083,1.215,0.96,2.022,2.161,2.022c0.668,0,1.263-0.254,1.68-0.762l0.417,0.508
			c-0.491,0.619-1.252,0.95-2.119,0.95c-1.712,0-2.881-1.237-2.881-2.96c0-1.724,1.138-2.95,2.683-2.95s2.661,1.204,2.661,2.95
			C102.574,32.504,102.564,32.593,102.564,32.681z M97.972,32.096h3.893c-0.094-1.138-0.876-1.933-1.952-1.933
			C98.849,30.163,98.065,30.958,97.972,32.096z"/>
		<path fill="#B2D7DB" d="M110.17,32.438c0,1.756-1.169,2.96-2.734,2.96c-0.908,0-1.67-0.42-2.119-1.204v1.149h-0.709v-8.197h0.741
			v3.491c0.459-0.751,1.211-1.149,2.087-1.149C109.001,29.489,110.17,30.682,110.17,32.438z M109.429,32.438
			c0-1.359-0.887-2.265-2.045-2.265c-1.169,0-2.046,0.906-2.046,2.265c0,1.358,0.877,2.265,2.046,2.265
			C108.542,34.703,109.429,33.797,109.429,32.438z"/>
		<path fill="#B2D7DB" d="M111.441,34.681l0.334-0.618c0.438,0.364,1.179,0.651,1.952,0.651c1.044,0,1.472-0.375,1.472-0.95
			c0-1.514-3.559-0.321-3.559-2.619c0-0.95,0.772-1.657,2.171-1.657c0.709,0,1.482,0.21,1.941,0.541l-0.324,0.63
			c-0.48-0.354-1.054-0.497-1.618-0.497c-0.992,0-1.43,0.409-1.43,0.961c0,1.569,3.559,0.387,3.559,2.618
			c0,1.005-0.835,1.657-2.265,1.657C112.767,35.399,111.89,35.09,111.441,34.681z"/>
		<path fill="#B2D7DB" d="M117.659,27.699c0-0.298,0.24-0.553,0.543-0.553s0.543,0.243,0.543,0.542c0,0.32-0.229,0.574-0.543,0.574
			C117.899,28.262,117.659,28.008,117.659,27.699z M117.826,29.533h0.741v5.811h-0.741V29.533z"/>
		<path fill="#B2D7DB" d="M124.046,34.99c-0.292,0.276-0.73,0.409-1.159,0.409c-1.033,0-1.607-0.619-1.607-1.69v-3.513h-0.981
			v-0.663h0.981v-1.271h0.741v1.271h1.67v0.663h-1.67v3.469c0,0.685,0.334,1.061,0.95,1.061c0.303,0,0.605-0.1,0.814-0.298
			L124.046,34.99z"/>
		<path fill="#B2D7DB" d="M130.494,32.681h-4.592c0.083,1.215,0.96,2.022,2.16,2.022c0.668,0,1.263-0.254,1.681-0.762l0.417,0.508
			c-0.49,0.619-1.252,0.95-2.119,0.95c-1.711,0-2.88-1.237-2.88-2.96c0-1.724,1.138-2.95,2.682-2.95s2.662,1.204,2.662,2.95
			C130.505,32.504,130.494,32.593,130.494,32.681z M125.902,32.096h3.893c-0.094-1.138-0.876-1.933-1.952-1.933
			C126.779,30.163,125.996,30.958,125.902,32.096z"/>
		<path fill="#B2D7DB" d="M141.178,35.465l-1.012-1.105c-0.616,0.696-1.451,1.05-2.442,1.05c-1.43,0-2.453-0.795-2.453-1.967
			c0-0.917,0.501-1.591,1.837-2.408c-0.709-0.773-0.918-1.237-0.918-1.834c0-0.983,0.72-1.646,1.847-1.646
			c1.033,0,1.701,0.575,1.701,1.536c0,0.773-0.438,1.315-1.628,2.044l2.004,2.188c0.22-0.409,0.387-0.906,0.491-1.492l0.605,0.199
			c-0.136,0.696-0.355,1.293-0.647,1.779l1.043,1.138L141.178,35.465z M139.728,33.886l-2.202-2.397
			c-1.169,0.707-1.524,1.193-1.524,1.878c0,0.84,0.709,1.392,1.764,1.392C138.559,34.758,139.227,34.471,139.728,33.886z
			 M136.878,29.19c0,0.453,0.157,0.773,0.825,1.491c1.054-0.641,1.398-1.027,1.398-1.58c0-0.575-0.386-0.961-1.064-0.961
			C137.306,28.141,136.878,28.572,136.878,29.19z"/>
		<path fill="#B2D7DB" d="M152.812,33.278c0,1.315-0.918,2.066-2.745,2.066h-3.361V27.61h3.152c1.628,0,2.568,0.729,2.568,1.989
			c0,0.884-0.449,1.469-1.117,1.756C152.248,31.577,152.812,32.229,152.812,33.278z M147.479,28.285v2.806h2.327
			c1.169,0,1.848-0.475,1.848-1.403s-0.679-1.403-1.848-1.403H147.479z M152.039,33.211c0-1.005-0.699-1.447-1.982-1.447h-2.578
			v2.905h2.578C151.34,34.67,152.039,34.228,152.039,33.211z"/>
		<path fill="#B2D7DB" d="M159.718,32.681h-4.592c0.083,1.215,0.96,2.022,2.16,2.022c0.668,0,1.263-0.254,1.681-0.762l0.417,0.508
			c-0.491,0.619-1.252,0.95-2.119,0.95c-1.712,0-2.881-1.237-2.881-2.96c0-1.724,1.138-2.95,2.683-2.95
			c1.544,0,2.661,1.204,2.661,2.95C159.729,32.504,159.718,32.593,159.718,32.681z M155.126,32.096h3.893
			c-0.094-1.138-0.877-1.933-1.952-1.933C156.003,30.163,155.22,30.958,155.126,32.096z"/>
		<path fill="#B2D7DB" d="M161,34.681l0.334-0.618c0.438,0.364,1.179,0.651,1.952,0.651c1.044,0,1.472-0.375,1.472-0.95
			c0-1.514-3.559-0.321-3.559-2.619c0-0.95,0.772-1.657,2.171-1.657c0.709,0,1.482,0.21,1.941,0.541l-0.324,0.63
			c-0.48-0.354-1.054-0.497-1.618-0.497c-0.992,0-1.43,0.409-1.43,0.961c0,1.569,3.559,0.387,3.559,2.618
			c0,1.005-0.835,1.657-2.265,1.657C162.325,35.399,161.448,35.09,161,34.681z"/>
		<path fill="#B2D7DB" d="M170.276,34.99c-0.292,0.276-0.731,0.409-1.159,0.409c-1.033,0-1.607-0.619-1.607-1.69v-3.513h-0.981
			v-0.663h0.981v-1.271h0.741v1.271h1.67v0.663h-1.67v3.469c0,0.685,0.334,1.061,0.95,1.061c0.303,0,0.605-0.1,0.814-0.298
			L170.276,34.99z"/>
		<path fill="#B2D7DB" d="M181.274,30.262c0,1.646-1.127,2.641-2.985,2.641h-1.962v2.441h-0.772V27.61h2.734
			C180.146,27.61,181.274,28.605,181.274,30.262z M180.501,30.262c0-1.237-0.772-1.944-2.233-1.944h-1.941v3.867h1.941
			C179.729,32.184,180.501,31.477,180.501,30.262z"/>
		<path fill="#B2D7DB" d="M185.937,29.489v0.762c-0.063,0-0.125-0.011-0.178-0.011c-1.147,0-1.847,0.773-1.847,2.143v2.961h-0.741
			v-5.811h0.709v1.138C184.225,29.897,184.924,29.489,185.937,29.489z"/>
		<path fill="#B2D7DB" d="M187.626,27.699c0-0.298,0.24-0.553,0.542-0.553s0.542,0.243,0.542,0.542c0,0.32-0.229,0.574-0.542,0.574
			C187.866,28.262,187.626,28.008,187.626,27.699z M187.793,29.533h0.741v5.811h-0.741V29.533z"/>
		<path fill="#B2D7DB" d="M190.568,32.438c0-1.734,1.19-2.95,2.829-2.95c0.929,0,1.711,0.387,2.149,1.149l-0.553,0.397
			c-0.376-0.585-0.96-0.861-1.597-0.861c-1.201,0-2.077,0.906-2.077,2.265c0,1.37,0.876,2.265,2.077,2.265
			c0.636,0,1.221-0.265,1.597-0.851l0.553,0.397c-0.438,0.751-1.221,1.149-2.149,1.149
			C191.758,35.399,190.568,34.173,190.568,32.438z"/>
		<path fill="#B2D7DB" d="M202.203,32.681h-4.593c0.084,1.215,0.96,2.022,2.161,2.022c0.668,0,1.263-0.254,1.68-0.762l0.418,0.508
			c-0.491,0.619-1.253,0.95-2.119,0.95c-1.711,0-2.88-1.237-2.88-2.96c0-1.724,1.138-2.95,2.682-2.95
			c1.545,0,2.662,1.204,2.662,2.95C202.213,32.504,202.203,32.593,202.203,32.681z M197.61,32.096h3.894
			c-0.094-1.138-0.877-1.933-1.952-1.933C198.487,30.163,197.705,30.958,197.61,32.096z"/>
		<path fill="#B2D7DB" d="M212.804,31.477h0.741v2.95c-0.689,0.652-1.67,0.983-2.682,0.983c-2.223,0-3.852-1.668-3.852-3.933
			s1.628-3.933,3.862-3.933c1.106,0,2.066,0.375,2.713,1.116l-0.48,0.519c-0.616-0.641-1.346-0.906-2.202-0.906
			c-1.806,0-3.131,1.359-3.131,3.204c0,1.834,1.326,3.204,3.121,3.204c0.699,0,1.346-0.166,1.91-0.596V31.477z"/>
		<path fill="#B2D7DB" d="M221.035,29.533v5.811h-0.709v-1.061c-0.386,0.707-1.096,1.116-1.973,1.116
			c-1.398,0-2.317-0.829-2.317-2.497v-3.37h0.741v3.292c0,1.237,0.605,1.867,1.648,1.867c1.148,0,1.869-0.784,1.869-2.11v-3.049
			H221.035z"/>
		<path fill="#B2D7DB" d="M227.775,31.742v3.602h-0.709v-0.906c-0.334,0.596-0.981,0.961-1.89,0.961
			c-1.242,0-2.004-0.685-2.004-1.69c0-0.895,0.543-1.646,2.119-1.646h1.743v-0.354c0-0.994-0.533-1.535-1.556-1.535
			c-0.709,0-1.377,0.265-1.826,0.685l-0.334-0.585c0.553-0.497,1.367-0.784,2.233-0.784
			C226.971,29.489,227.775,30.24,227.775,31.742z M227.034,33.598v-0.95h-1.723c-1.064,0-1.409,0.441-1.409,1.038
			c0,0.674,0.511,1.094,1.388,1.094C226.126,34.78,226.742,34.36,227.034,33.598z"/>
		<path fill="#B2D7DB" d="M233.075,29.489v0.762c-0.063,0-0.125-0.011-0.177-0.011c-1.148,0-1.848,0.773-1.848,2.143v2.961h-0.741
			v-5.811h0.71v1.138C231.363,29.897,232.063,29.489,233.075,29.489z"/>
		<path fill="#B2D7DB" d="M239.064,31.742v3.602h-0.709v-0.906c-0.334,0.596-0.981,0.961-1.89,0.961
			c-1.242,0-2.004-0.685-2.004-1.69c0-0.895,0.543-1.646,2.119-1.646h1.743v-0.354c0-0.994-0.533-1.535-1.556-1.535
			c-0.709,0-1.377,0.265-1.826,0.685l-0.334-0.585c0.553-0.497,1.367-0.784,2.233-0.784C238.26,29.489,239.064,30.24,239.064,31.742
			z M238.323,33.598v-0.95h-1.723c-1.064,0-1.409,0.441-1.409,1.038c0,0.674,0.511,1.094,1.388,1.094
			C237.415,34.78,238.031,34.36,238.323,33.598z"/>
		<path fill="#B2D7DB" d="M246.649,31.974v3.37h-0.741v-3.292c0-1.227-0.605-1.856-1.649-1.856c-1.179,0-1.92,0.773-1.92,2.099
			v3.049h-0.741v-5.811h0.71v1.072c0.396-0.707,1.138-1.116,2.087-1.116C245.731,29.489,246.649,30.306,246.649,31.974z"/>
		<path fill="#B2D7DB" d="M252.074,34.99c-0.292,0.276-0.731,0.409-1.159,0.409c-1.033,0-1.607-0.619-1.607-1.69v-3.513h-0.981
			v-0.663h0.981v-1.271h0.741v1.271h1.67v0.663h-1.67v3.469c0,0.685,0.334,1.061,0.95,1.061c0.303,0,0.605-0.1,0.814-0.298
			L252.074,34.99z"/>
		<path fill="#B2D7DB" d="M258.522,32.681h-4.592c0.083,1.215,0.96,2.022,2.161,2.022c0.668,0,1.263-0.254,1.68-0.762l0.417,0.508
			c-0.491,0.619-1.252,0.95-2.119,0.95c-1.712,0-2.881-1.237-2.881-2.96c0-1.724,1.138-2.95,2.682-2.95
			c1.545,0,2.662,1.204,2.662,2.95C258.533,32.504,258.522,32.593,258.522,32.681z M253.93,32.096h3.893
			c-0.094-1.138-0.877-1.933-1.952-1.933C254.807,30.163,254.024,30.958,253.93,32.096z"/>
		<path fill="#B2D7DB" d="M265.346,32.681h-4.592c0.083,1.215,0.96,2.022,2.16,2.022c0.668,0,1.263-0.254,1.681-0.762l0.417,0.508
			c-0.49,0.619-1.252,0.95-2.119,0.95c-1.711,0-2.88-1.237-2.88-2.96c0-1.724,1.138-2.95,2.682-2.95s2.662,1.204,2.662,2.95
			C265.356,32.504,265.346,32.593,265.346,32.681z M260.754,32.096h3.893c-0.094-1.138-0.876-1.933-1.952-1.933
			C261.63,30.163,260.848,30.958,260.754,32.096z"/>
	</g>
	<g>
		<path id="SVGID_56_" fill="#4FA8B1" d="M0,10.522l9.368,0.108l-0.07-9.426C9.298,1.204,0.286,1.568,0,10.522"/>
	</g>
	<g>
		<path id="SVGID_55_" fill="#99CBD0" d="M0,22.639l9.368,0.107l-0.069-9.427C9.298,13.319,0.288,13.686,0,22.639"/>
	</g>
	<g>
		<path id="SVGID_54_" fill="#B2D7DB" d="M0.004,34.999l9.368,0.108l-0.07-9.428C9.302,25.679,0.291,26.045,0.004,34.999"/>
	</g>
	<g>
		<path id="SVGID_53_" fill="#B2D7DB" d="M12.49,22.652l9.367,0.108l-0.069-9.426C21.788,13.334,12.776,13.7,12.49,22.652"/>
	</g>
	<g>
		<path id="SVGID_52_" fill="#B2D7DB" d="M24.976,10.155l9.368,0.11l-0.071-9.427C34.273,0.838,25.262,1.202,24.976,10.155"/>
	</g>
	<g>
		<path id="SVGID_51_" fill="#E2EFF0" d="M24.837,22.65l9.367,0.109l-0.07-9.425C34.135,13.334,25.124,13.7,24.837,22.65"/>
	</g>
	<g>
		<path id="SVGID_50_" fill="#FDFEFF" d="M24.991,35.102l9.367,0.084l-0.093-9.427C34.265,25.76,25.253,26.149,24.991,35.102"/>
	</g>
	<rect x="219" y="4.951" fill="#FFFFFF" width="3.921" height="13.112"/>
	<path fill="none" d="M63.991,13.01c-0.318,0.309-0.473,0.677-0.473,1.127c0,0.353,0.107,0.622,0.328,0.825
		c0.224,0.205,0.549,0.309,0.968,0.309c0.537,0,1.022-0.135,1.442-0.401c0.399-0.253,0.678-0.542,0.833-0.86v-1.46h-1.646
		C64.796,12.549,64.307,12.704,63.991,13.01z"/>
	<path fill="none" d="M149.809,13.01c-0.318,0.309-0.473,0.677-0.473,1.127c0,0.353,0.107,0.622,0.328,0.825
		c0.224,0.205,0.55,0.309,0.968,0.309c0.538,0,1.023-0.135,1.442-0.401c0.398-0.253,0.678-0.542,0.832-0.86v-1.46h-1.646
		C150.612,12.549,150.125,12.704,149.809,13.01z"/>
	<path fill="#FFFFFF" d="M52.787,3.782v4.101h-6.375V0.6h-0.714c-1.102,0.138-3.038,0.71-3.207,2.991v14.472h3.921v-7.038h6.375
		v7.038h3.921V0.65C56.708,0.65,52.949,0.485,52.787,3.782z"/>
	<path fill="#FFFFFF" d="M71.141,16.209c-0.086-0.502-0.13-1.047-0.13-1.62v-5.2c0-1.495-0.504-2.664-1.499-3.473
		c-0.979-0.795-2.269-1.199-3.836-1.199c-1.635,0-2.983,0.408-4.007,1.213c-1.047,0.824-1.549,1.823-1.49,2.971l0.096,0.319h3.721
		V8.959c0-0.391,0.118-0.687,0.36-0.904c0.249-0.222,0.618-0.334,1.1-0.334c0.551,0,0.965,0.141,1.23,0.419
		c0.268,0.281,0.404,0.694,0.404,1.227v0.739h-1.646c-1.87,0-3.321,0.359-4.311,1.067c-1.019,0.728-1.535,1.764-1.535,3.081
		c0,1.24,0.388,2.238,1.152,2.964c0.76,0.723,1.846,1.09,3.229,1.09c0.842,0,1.582-0.219,2.198-0.652
		c0.417-0.292,0.78-0.641,1.085-1.041c0.027,0.118,0.056,0.235,0.088,0.35c0.092,0.328,0.203,0.644,0.332,0.941l0.068,0.158h3.937
		l-0.134-0.354C71.365,17.214,71.226,16.71,71.141,16.209z M67.089,14.009c-0.154,0.318-0.434,0.607-0.833,0.86
		c-0.419,0.266-0.905,0.401-1.442,0.401c-0.419,0-0.744-0.104-0.968-0.309c-0.221-0.203-0.328-0.472-0.328-0.825
		c0-0.45,0.154-0.818,0.473-1.127c0.316-0.306,0.805-0.461,1.452-0.461h1.646V14.009z"/>
	<path fill="#FFFFFF" d="M74.4,3.063v15h3.921V0h-0.742C76.479,0.138,74.53,0.719,74.4,3.063z"/>
	<path fill="#FFFFFF" d="M87.441,4.719c-1.924,0-3.455,0.635-4.548,1.887c-1.085,1.242-1.636,2.852-1.636,4.785v0.245
		c0,1.95,0.553,3.564,1.642,4.798c1.098,1.244,2.633,1.874,4.565,1.874c1.923,0,3.456-0.63,4.553-1.874
		c1.089-1.234,1.641-2.849,1.641-4.798v-0.245c0-1.941-0.554-3.554-1.647-4.792C90.909,5.352,89.372,4.719,87.441,4.719z
		 M89.738,11.635c0,1.087-0.193,1.971-0.575,2.625c-0.36,0.618-0.916,0.917-1.699,0.917c-0.807,0-1.372-0.298-1.729-0.911
		c-0.377-0.65-0.569-1.536-0.569-2.631v-0.245c0-1.057,0.194-1.931,0.576-2.598c0.36-0.628,0.916-0.933,1.698-0.933
		c0.791,0,1.352,0.304,1.717,0.929c0.385,0.662,0.581,1.538,0.581,2.602V11.635z"/>
	<path fill="#FFFFFF" d="M103.546,4.719c-0.803,0-1.541,0.192-2.19,0.571c-0.453,0.263-0.859,0.604-1.212,1.017l-0.114-1.355h-3.667
		v13.112h3.921V8.781c0.214-0.267,0.484-0.482,0.802-0.64c0.346-0.171,0.755-0.257,1.216-0.257c0.552,0,0.948,0.153,1.212,0.47
		c0.272,0.326,0.41,0.914,0.41,1.746v7.963h3.933v-7.975c0-1.825-0.382-3.188-1.135-4.052C105.96,5.162,104.892,4.719,103.546,4.719
		z"/>
	<path fill="#FFFFFF" d="M118.821,6.164c-0.319-0.382-0.682-0.693-1.082-0.932c-0.573-0.341-1.245-0.514-1.995-0.514
		c-1.642,0-2.935,0.651-3.844,1.937c-0.889,1.258-1.34,2.926-1.34,4.957v0.245c0,1.911,0.453,3.475,1.345,4.649
		c0.909,1.195,2.192,1.801,3.815,1.801c0.689,0,1.312-0.134,1.85-0.399c0.339-0.167,0.652-0.383,0.937-0.646v0.47
		c0,0.74-0.192,1.284-0.569,1.618c-0.387,0.343-1.02,0.516-1.88,0.516c-0.621,0-1.206-0.063-1.739-0.185
		c-0.532-0.123-1.056-0.306-1.556-0.545l-0.297-0.141l-0.687,3.057l0.183,0.092c0.621,0.31,1.304,0.558,2.034,0.735
		c0.73,0.179,1.432,0.269,2.086,0.269c1.97,0,3.534-0.472,4.647-1.404c1.128-0.944,1.7-2.29,1.7-4V4.951h-3.404L118.821,6.164z
		 M118.506,14.213c-0.188,0.295-0.426,0.516-0.727,0.674c-0.32,0.169-0.724,0.254-1.198,0.254c-0.744,0-1.262-0.268-1.583-0.818
		c-0.343-0.588-0.517-1.418-0.517-2.468v-0.245c0-1.139,0.182-2.069,0.541-2.765c0.334-0.649,0.852-0.963,1.583-0.963
		c0.455,0,0.847,0.094,1.165,0.278c0.3,0.174,0.547,0.423,0.736,0.74V14.213z"/>
	<path fill="#FFFFFF" d="M156.958,16.209c-0.086-0.502-0.129-1.047-0.129-1.62v-5.2c0-1.495-0.505-2.664-1.499-3.473
		c-0.979-0.795-2.269-1.199-3.836-1.199c-1.635,0-2.983,0.408-4.007,1.213c-1.047,0.824-1.549,1.823-1.49,2.971l0.096,0.319h3.72
		V8.959c0-0.391,0.118-0.687,0.361-0.904c0.248-0.222,0.617-0.334,1.099-0.334c0.55,0,0.964,0.141,1.229,0.419
		c0.269,0.281,0.404,0.694,0.404,1.227v0.739h-1.646c-1.871,0-3.32,0.359-4.311,1.067c-1.019,0.728-1.535,1.764-1.535,3.081
		c0,1.24,0.388,2.238,1.152,2.964c0.759,0.723,1.846,1.09,3.228,1.09c0.843,0,1.582-0.219,2.198-0.652
		c0.417-0.292,0.78-0.641,1.086-1.041c0.026,0.118,0.055,0.235,0.088,0.35c0.092,0.328,0.203,0.644,0.332,0.941l0.069,0.158h3.937
		l-0.134-0.354C157.182,17.214,157.043,16.71,156.958,16.209z M152.906,14.009c-0.154,0.318-0.434,0.607-0.832,0.86
		c-0.419,0.266-0.905,0.401-1.442,0.401c-0.418,0-0.745-0.104-0.968-0.309c-0.221-0.203-0.328-0.472-0.328-0.825
		c0-0.45,0.155-0.818,0.473-1.127c0.316-0.306,0.803-0.461,1.452-0.461h1.646V14.009z"/>
	<path fill="#FFFFFF" d="M167.09,4.951l-2.212,7.354l-2.143-7.354h-4.221l4.559,12.832l-0.359,0.887
		c-0.147,0.372-0.359,0.686-0.631,0.932c-0.251,0.229-0.626,0.345-1.115,0.345c-0.083,0-0.176-0.007-0.279-0.021l-0.579-0.085
		l-0.475,2.974l0.234,0.057c0.354,0.086,0.655,0.153,0.904,0.201c0.258,0.049,0.543,0.074,0.846,0.074
		c1.292,0,2.282-0.337,2.943-1.002c0.634-0.639,1.143-1.434,1.516-2.373l5.23-14.821H167.09z"/>
	<g>
		<path fill="#FFFFFF" d="M142.311,10.188c-0.446-0.602-1.064-1.036-1.843-1.295c0.513-0.304,0.926-0.693,1.235-1.163
			c0.43-0.653,0.648-1.402,0.648-2.226c0-1.62-0.602-2.86-1.788-3.688c-1.156-0.807-2.776-1.216-4.815-1.216h-4.241
			c-0.811,0.442-1.528,1.239-1.565,2.688c-0.002-0.005-0.003-0.009-0.005-0.014v14.789h6.812c2.013,0,3.598-0.439,4.71-1.306
			c1.132-0.881,1.706-2.19,1.706-3.889C143.165,11.854,142.877,10.952,142.311,10.188z M133.858,3.742h1.89
			c0.914,0,1.603,0.17,2.047,0.505c0.427,0.323,0.634,0.822,0.634,1.524c0,0.633-0.206,1.098-0.629,1.421
			c-0.44,0.335-1.091,0.505-1.936,0.505h-2.006V3.742z M138.64,14.406c-0.421,0.35-1.058,0.527-1.892,0.527h-2.891v-4.362h2.856
			c0.864,0,1.512,0.199,1.925,0.591c0.415,0.394,0.616,0.952,0.616,1.706C139.255,13.561,139.054,14.063,138.64,14.406z"/>
	</g>
	<g>
		<path fill="#FFFFFF" d="M219.003,3.462h3.919V0.391h-0.739C221.082,0.529,219.129,1.11,219.003,3.462z"/>
	</g>
	<path fill="#FFFFFF" d="M191.691,6.72l0.06-0.179l0.037-0.148c0.032-1.902-0.57-3.403-1.789-4.46
		c-1.207-1.046-2.893-1.576-5.011-1.576c-2.045,0-3.722,0.691-4.986,2.055c-1.258,1.359-1.896,3.124-1.896,5.245v3.362
		c0,2.131,0.655,3.896,1.946,5.248c1.294,1.354,3.014,2.041,5.111,2.041c2.051,0,3.687-0.54,4.864-1.603
		c1.186-1.071,1.771-2.567,1.738-4.445l-0.097-0.327h-3.743v0.262c0,1.027-0.228,1.791-0.679,2.269
		c-0.446,0.474-1.148,0.715-2.083,0.715c-0.991,0-1.742-0.369-2.295-1.126c-0.565-0.772-0.852-1.793-0.852-3.033V7.633
		c0-1.234,0.272-2.25,0.808-3.02c0.523-0.75,1.231-1.115,2.165-1.115c1.016,0,1.769,0.242,2.239,0.719
		c0.471,0.478,0.709,1.233,0.709,2.242V6.72H191.691z"/>
	<path fill="#FFFFFF" d="M201.462,4.764c-0.159-0.029-0.333-0.045-0.52-0.045c-0.67,0-1.271,0.205-1.785,0.608
		c-0.296,0.233-0.561,0.521-0.793,0.862l-0.101-1.237h-3.657v13.112h3.91V9.354c0.149-0.312,0.353-0.548,0.624-0.722
		c0.282-0.181,0.653-0.272,1.097-0.272l1.483,0.042l0.416-3.479l-0.221-0.057C201.762,4.827,201.611,4.792,201.462,4.764z"/>
	<path fill="#FFFFFF" d="M211.679,14.281c-0.213,0.271-0.482,0.48-0.799,0.623c-0.353,0.158-0.786,0.238-1.289,0.238
		c-0.545,0-0.93-0.165-1.179-0.503c-0.181-0.247-0.397-0.813-0.397-2.107v-7.58h-3.909v7.556c0,1.947,0.398,3.413,1.183,4.356
		c0.796,0.958,1.911,1.444,3.313,1.444c0.836,0,1.582-0.197,2.219-0.585c0.459-0.28,0.862-0.649,1.206-1.103l0.28,1.444h3.293V4.951
		h-3.921V14.281z"/>
	<path fill="#FFFFFF" d="M235.77,11.494c-0.786-0.625-1.984-1.102-3.563-1.419c-1.202-0.231-1.697-0.459-1.9-0.61
		c-0.262-0.194-0.389-0.436-0.389-0.738c0-0.317,0.126-0.58,0.385-0.801c0.268-0.229,0.645-0.345,1.122-0.345
		c0.54,0,0.951,0.136,1.225,0.402c0.275,0.27,0.41,0.611,0.41,1.046v0.262h3.732l0.06-0.179l0.036-0.143
		c0.042-1.215-0.456-2.243-1.478-3.054c-1-0.794-2.341-1.197-3.984-1.197c-1.576,0-2.862,0.404-3.821,1.2
		c-0.973,0.809-1.467,1.805-1.467,2.959c0,1.104,0.42,1.991,1.247,2.638c0.793,0.62,1.96,1.087,3.465,1.388
		c0.935,0.193,1.575,0.414,1.904,0.658c0.292,0.217,0.435,0.462,0.435,0.75c0,0.351-0.128,0.62-0.392,0.821
		c-0.281,0.216-0.711,0.325-1.278,0.325c-0.615,0-1.116-0.136-1.486-0.404c-0.354-0.255-0.535-0.668-0.555-1.262l-0.009-0.253
		h-3.548l-0.06,0.179l-0.037,0.141c-0.05,1.165,0.448,2.211,1.48,3.111c1.018,0.888,2.412,1.338,4.145,1.338
		c1.641,0,2.985-0.381,3.996-1.133c1.036-0.771,1.56-1.776,1.56-2.991C237.003,13.049,236.588,12.145,235.77,11.494z"/>
	<path fill="#FFFFFF" d="M262.898,11.528c-0.786-0.625-1.984-1.102-3.563-1.419c-1.202-0.231-1.697-0.459-1.9-0.61
		c-0.262-0.194-0.389-0.436-0.389-0.738c0-0.317,0.126-0.58,0.385-0.801c0.268-0.229,0.645-0.345,1.121-0.345
		c0.54,0,0.952,0.136,1.225,0.402c0.275,0.27,0.41,0.611,0.41,1.046v0.262h3.731l0.06-0.179l0.036-0.143
		c0.042-1.215-0.456-2.243-1.478-3.054c-1-0.794-2.341-1.197-3.985-1.197c-1.576,0-2.862,0.404-3.821,1.2
		c-0.973,0.809-1.467,1.805-1.467,2.959c0,1.104,0.418,1.991,1.247,2.638c0.793,0.62,1.96,1.087,3.465,1.388
		c0.935,0.193,1.575,0.414,1.904,0.658c0.292,0.217,0.435,0.462,0.435,0.75c0,0.351-0.128,0.62-0.392,0.821
		c-0.281,0.216-0.711,0.325-1.277,0.325c-0.615,0-1.116-0.136-1.487-0.404c-0.353-0.255-0.534-0.668-0.555-1.262l-0.009-0.253
		h-3.548l-0.06,0.179l-0.036,0.141c-0.05,1.165,0.448,2.211,1.479,3.111c1.018,0.888,2.412,1.338,4.145,1.338
		c1.641,0,2.985-0.381,3.996-1.133c1.036-0.771,1.561-1.776,1.561-2.991C264.131,13.083,263.716,12.179,262.898,11.528z"/>
	<path fill="#FFFFFF" d="M250.864,10.716c0-1.81-0.478-3.275-1.42-4.355c-0.793-0.909-1.899-1.421-3.28-1.574
		c-0.275-0.031-0.545-0.069-0.843-0.069c-1.848,0-3.324,0.634-4.389,1.883c-1.06,1.246-1.598,2.861-1.598,4.8v0.465
		c0,1.874,0.555,3.431,1.651,4.627c0.938,1.024,2.2,1.614,3.755,1.768c0.271,0.027,0.547,0.044,0.835,0.044
		c1.003,0,1.941-0.142,2.799-0.408c0.031-0.01,0.067-0.013,0.098-0.023c0.887-0.288,1.605-0.652,2.132-1.082l0.154-0.126
		l-0.416-0.949l-0.699-1.593l-0.252,0.142c-0.545,0.307-1.081,0.538-1.591,0.687c-0.505,0.148-1.132,0.223-1.864,0.223
		c-0.852,0-1.471-0.233-1.891-0.714c-0.39-0.444-0.627-1.025-0.703-1.729h7.521V10.716z M243.398,10.126
		c0.097-0.663,0.309-1.206,0.631-1.616c0.343-0.438,0.826-0.649,1.475-0.649c0.636,0,1.077,0.185,1.348,0.564
		c0.29,0.402,0.436,0.976,0.437,1.701H243.398z"/>
	<path fill="#FFFFFF" d="M246.997,5.875l1.67-0.208c0,0,2.875,1.584,2.196,7.068c-0.367-0.422-1.21-0.954-1.21-0.954
		s-0.188-0.969-0.188-1.063s0-1.344,0-1.344"/>
</g>
</svg>
