<?xml version="1.0" encoding="utf-8"?>
<!-- Generator: Adobe Illustrator 16.0.0, SVG Export Plug-In . SVG Version: 6.00 Build 0)  -->
<!DOCTYPE svg PUBLIC "-//W3C//DTD SVG 1.1//EN" "http://www.w3.org/Graphics/SVG/1.1/DTD/svg11.dtd">
<svg version="1.1" id="Layer_1" xmlns="http://www.w3.org/2000/svg" xmlns:xlink="http://www.w3.org/1999/xlink" x="0px" y="0px"
	 width="140.875px" height="158.156px" viewBox="0 0 140.875 158.156" enable-background="new 0 0 140.875 158.156"
	 xml:space="preserve">
<g>
	<g>
		<defs>
			<path id="SVGID_1_" d="M48.638,87.797c0,0,49.382-57.347,67.966-68.232c15.398-9.822,17.787-7.036,20.576-5.31
				c2.787,1.726,5.841,6.239-7.169,18.054C117.002,44.124,84.77,78.13,66.85,119.545c-7.566,18.716-10.114,24.801-11.087,26.041
				c-0.975,1.239-2.877,2.655-4.381,2.523c-1.505-0.133-10.709-15.443-12.391-18.275c-1.681-2.832-23.673-33.275-28.718-37.523
				C5.229,88.063-2.071,79.7,7.487,75.584c9.557-4.115,30.53,7.699,35.974,11.018C48.902,89.92,48.638,87.797,48.638,87.797z"/>
		</defs>
		<clipPath id="SVGID_2_">
			<use xlink:href="#SVGID_1_"  overflow="visible"/>
		</clipPath>
		<g clip-path="url(#SVGID_2_)">
			<path fill="#D0B52C" d="M3.129,90.299l-0.795-0.063c0.154-1.934,0.851-3.968,1.522-5.937c0.288-0.845,0.561-1.643,0.785-2.416
				c0.239-0.82,0.446-1.752,0.664-2.74c0.493-2.221,1.001-4.518,1.993-6.203l0.688,0.404c-0.929,1.577-1.423,3.811-1.902,5.971
				c-0.222,1-0.431,1.944-0.677,2.79c-0.23,0.79-0.505,1.596-0.798,2.451C3.953,86.479,3.273,88.466,3.129,90.299z"/>
			<path fill="#D0B52C" d="M0.794,90.299L0,90.236c0.154-1.934,0.85-3.968,1.521-5.937c0.289-0.845,0.562-1.643,0.787-2.416
				c0.237-0.82,0.444-1.752,0.663-2.74c0.492-2.221,1.001-4.518,1.994-6.203l0.687,0.404c-0.928,1.577-1.424,3.811-1.903,5.971
				c-0.222,1-0.43,1.944-0.676,2.79c-0.229,0.79-0.507,1.596-0.798,2.451C1.619,86.479,0.94,88.466,0.794,90.299z"/>
			<g>
				<path fill="#D0B52C" d="M6.181,88.848l-0.793-0.08c0.116-1.145,0.432-2.278,0.735-3.374l0.13-0.473
					c0.401-1.465,0.9-2.886,1.383-4.262c0.274-0.787,0.56-1.6,0.823-2.414c0.408-1.255,0.836-2.591,1.179-3.905
					c0.049-0.19,0.057-0.354,0.064-0.528c0.014-0.351,0.031-0.75,0.431-1.199l0.596,0.529c-0.212,0.238-0.219,0.404-0.23,0.703
					c-0.009,0.188-0.019,0.423-0.089,0.696c-0.35,1.334-0.779,2.684-1.191,3.95c-0.268,0.823-0.555,1.641-0.832,2.432
					c-0.478,1.362-0.971,2.771-1.363,4.208L6.89,85.607C6.596,86.671,6.29,87.771,6.181,88.848z"/>
				<path fill="#D0B52C" d="M7.751,89.961L7.003,89.69c0.203-0.562,0.331-1.166,0.455-1.75c0.115-0.549,0.235-1.115,0.42-1.664
					l0.156-0.465c0.479-1.432,0.978-2.912,1.394-4.403c0.15-0.542,0.292-1.084,0.434-1.628c0.209-0.799,0.425-1.625,0.668-2.437
					c0.113-0.379,0.248-0.772,0.379-1.151c0.391-1.138,0.794-2.314,0.761-3.435l0.797-0.023c0.037,1.267-0.391,2.512-0.805,3.717
					c-0.134,0.389-0.26,0.757-0.37,1.121c-0.238,0.798-0.452,1.617-0.659,2.409c-0.143,0.547-0.285,1.094-0.437,1.64
					c-0.422,1.511-0.922,3.001-1.406,4.443l-0.155,0.464c-0.17,0.506-0.28,1.026-0.396,1.577
					C8.108,88.716,7.975,89.347,7.751,89.961z"/>
				<path fill="#D0B52C" d="M7.444,97.074l0.062-2.229c0.004-0.109,0.004-0.218,0.004-0.327l0.102-0.001
					c0.289-0.709,0.607-1.415,0.915-2.1c0.522-1.159,1.063-2.358,1.461-3.565c0.564-1.707,1.058-3.469,1.535-5.174
					c0.403-1.435,0.818-2.918,1.277-4.368c0.167-0.531,0.409-1.107,0.664-1.716c0.49-1.166,1.045-2.485,1.037-3.518l0.797-0.006
					c0.008,1.196-0.555,2.536-1.1,3.832c-0.249,0.592-0.483,1.151-0.641,1.647c-0.452,1.437-0.867,2.914-1.268,4.343
					c-0.48,1.714-0.978,3.485-1.547,5.209c-0.413,1.248-0.961,2.465-1.489,3.643c-0.333,0.739-0.677,1.503-0.979,2.26L7.444,97.074z
					"/>
				<path fill="#D0B52C" d="M10.893,93.766l-0.659-0.448c0.45-0.661,0.783-1.563,1.105-2.435c0.165-0.445,0.32-0.866,0.491-1.26
					l0.251-0.574c0.756-1.741,1.539-3.541,2.283-5.325c0.447-1.071,0.979-2.105,1.495-3.104c0.319-0.622,0.65-1.265,0.955-1.907
					l0.122-0.255c0.405-0.841,0.909-1.888,0.841-2.759l0.794-0.063c0.086,1.086-0.469,2.24-0.916,3.168l-0.121,0.251
					c-0.311,0.654-0.646,1.303-0.968,1.93c-0.508,0.986-1.033,2.006-1.467,3.048c-0.746,1.789-1.531,3.592-2.29,5.336l-0.247,0.572
					c-0.164,0.375-0.314,0.785-0.477,1.22C11.747,92.077,11.396,93.024,10.893,93.766z"/>
				<path fill="#D0B52C" d="M10.376,97.778L10.7,95.97c0.057-0.318,0.159-0.628,0.302-0.92l0.172,0.083
					c0.293-0.556,0.543-1.17,0.789-1.772c0.19-0.466,0.388-0.949,0.6-1.391c1.359-2.824,2.526-5.854,3.587-8.706
					c0.29-0.782,0.624-1.548,0.946-2.291c0.422-0.97,0.857-1.973,1.19-2.998c0.068-0.214,0.15-0.432,0.235-0.654
					c0.247-0.651,0.502-1.326,0.409-1.95l0.787-0.118c0.124,0.83-0.182,1.638-0.451,2.35c-0.08,0.209-0.158,0.415-0.223,0.616
					c-0.345,1.063-0.789,2.083-1.219,3.071c-0.317,0.731-0.646,1.488-0.929,2.25c-1.067,2.871-2.243,5.921-3.616,8.774
					c-0.201,0.42-0.386,0.87-0.58,1.346c-0.367,0.9-0.747,1.833-1.28,2.605L10.376,97.778z"/>
				<path fill="#D0B52C" d="M11.103,100.47l-0.547-0.579c0.276-0.261,0.425-0.712,0.568-1.147c0.062-0.184,0.124-0.375,0.198-0.553
					c0.54-1.315,1.118-2.635,1.711-3.983c0.896-2.04,1.771-4.132,2.615-6.155c0.608-1.458,1.236-2.965,1.871-4.443
					c0.275-0.643,0.595-1.306,0.902-1.947c0.907-1.892,1.848-3.847,2.01-5.851l0.795,0.064c-0.176,2.151-1.147,4.174-2.087,6.131
					c-0.318,0.663-0.618,1.289-0.888,1.917c-0.634,1.474-1.262,2.979-1.869,4.436c-0.845,2.026-1.72,4.121-2.62,6.168
					c-0.591,1.344-1.167,2.659-1.705,3.965c-0.062,0.152-0.117,0.322-0.178,0.501C11.714,99.499,11.524,100.071,11.103,100.47z"/>
				<path fill="#D0B52C" d="M12.54,100.019l-0.769-0.209c0.367-1.344,1.268-2.628,2.141-3.87c0.505-0.718,0.98-1.396,1.338-2.06
					c1.386-2.57,3.081-5.001,4.719-7.352c1.916-2.75,3.896-5.593,5.368-8.645l0.719,0.346c-1.5,3.109-3.499,5.978-5.434,8.754
					c-1.625,2.333-3.308,4.745-4.67,7.275c-0.379,0.705-0.869,1.401-1.388,2.14C13.731,97.583,12.87,98.81,12.54,100.019z"/>
				<path fill="#D0B52C" d="M16.383,103.231l-0.665-0.439c0.654-0.991,1.196-2.346,1.719-3.656c0.203-0.505,0.393-0.984,0.587-1.433
					l0.521-1.204c1.271-2.947,2.585-5.996,4.092-8.914c1.37-2.656,2.907-5.742,3.83-8.762l0.762,0.232
					c-0.941,3.083-2.498,6.208-3.885,8.895c-1.492,2.895-2.803,5.93-4.068,8.865l-0.52,1.204c-0.189,0.439-0.378,0.912-0.578,1.413
					C17.638,100.778,17.081,102.172,16.383,103.231z"/>
				<path fill="#D0B52C" d="M17.495,106.392l-0.768-0.211c0.182-0.659,0.425-1.331,0.662-1.98l0.113-0.318
					c0.312-0.864,0.704-1.694,1.086-2.496c0.112-0.238,0.227-0.476,0.337-0.715c1.906-4.108,3.817-8.498,5.68-13.049
					c0.294-0.719,0.611-1.443,0.917-2.144c0.88-2.016,1.791-4.1,2.263-6.269l0.779,0.17c-0.49,2.245-1.417,4.366-2.313,6.418
					c-0.304,0.696-0.619,1.416-0.909,2.127c-1.867,4.561-3.783,8.963-5.695,13.082c-0.111,0.241-0.225,0.48-0.339,0.721
					c-0.373,0.786-0.758,1.598-1.056,2.425l-0.116,0.319C17.908,105.106,17.669,105.763,17.495,106.392z"/>
				<path fill="#D0B52C" d="M16.596,116.792l-0.736-0.303c0.866-2.114,1.278-4.051,1.715-6.102c0.221-1.043,0.449-2.123,0.747-3.246
					c0.715-2.712,2.058-5.418,3.357-8.034c0.748-1.506,1.521-3.063,2.14-4.563c0.512-1.24,1.026-2.47,1.541-3.7
					c0.707-1.687,1.437-3.432,2.141-5.162c0.468-1.15,0.789-2.362,1.1-3.535c0.095-0.364,0.192-0.729,0.292-1.092
					c0.221-0.796,0.582-1.563,0.931-2.304c0.487-1.03,0.947-2.003,1.052-3.038l0.794,0.082c-0.122,1.171-0.631,2.251-1.124,3.297
					c-0.352,0.744-0.682,1.446-0.885,2.176c-0.1,0.362-0.195,0.723-0.291,1.084c-0.316,1.196-0.643,2.435-1.131,3.631
					c-0.706,1.734-1.437,3.48-2.143,5.169c-0.515,1.228-1.028,2.458-1.539,3.696c-0.631,1.525-1.409,3.095-2.164,4.614
					c-1.281,2.58-2.605,5.248-3.301,7.882c-0.291,1.104-0.519,2.173-0.738,3.208C17.91,112.64,17.49,114.612,16.596,116.792z"/>
				<path fill="#D0B52C" d="M20.319,113.941l-0.75-0.266c0.895-2.521,2.025-5.111,3.117-7.615c1.121-2.568,2.28-5.223,3.21-7.854
					c2.391-6.761,5.071-13.75,8.192-21.364l0.736,0.303c-3.116,7.602-5.791,14.578-8.179,21.327
					c-0.938,2.658-2.104,5.326-3.229,7.908C22.33,108.87,21.206,111.447,20.319,113.941z"/>
				<path fill="#D0B52C" d="M22.798,110.93l-0.753-0.261c1.844-5.306,4.381-10.55,6.834-15.62c2.355-4.87,4.791-9.905,6.62-15.004
					l0.75,0.269c-1.843,5.139-4.288,10.194-6.653,15.082C27.153,100.446,24.626,105.667,22.798,110.93z"/>
				<path fill="#D0B52C" d="M21.156,120.567v-0.55c0.002-1.281,0.728-2.752,1.366-4.05c0.245-0.498,0.477-0.968,0.65-1.392
					c0.974-2.361,1.935-4.672,3.013-6.958l0.079-0.167c2.154-4.569,4.381-9.295,7.003-13.685c0.726-1.213,1.424-2.472,2.099-3.689
					c0.61-1.103,1.242-2.244,1.896-3.351c0.268-0.455,0.575-0.919,0.873-1.37c0.842-1.274,1.714-2.592,1.947-4l0.785,0.13
					c-0.26,1.576-1.18,2.965-2.068,4.31c-0.306,0.461-0.594,0.897-0.851,1.334c-0.647,1.099-1.277,2.234-1.885,3.333
					c-0.68,1.223-1.381,2.488-2.112,3.711c-2.602,4.356-4.82,9.064-6.967,13.617l-0.079,0.167c-1.068,2.271-2.027,4.57-2.996,6.922
					c-0.185,0.449-0.421,0.93-0.672,1.44c-0.488,0.989-1.027,2.086-1.215,3.049c1.93-1.139,3.383-4.496,4.472-7.008
					c0.367-0.85,0.715-1.653,1.033-2.26c0.638-1.218,1.386-2.353,2.109-3.449c0.874-1.327,1.778-2.697,2.473-4.201
					c1.065-2.305,2.189-4.623,3.276-6.862c0.453-0.933,0.907-1.867,1.357-2.802c0.265-0.551,0.57-1.138,0.896-1.759
					c1.2-2.297,2.559-4.9,2.615-7.139l0.797,0.02c-0.062,2.424-1.468,5.114-2.706,7.488c-0.322,0.615-0.625,1.197-0.885,1.735
					c-0.45,0.937-0.905,1.871-1.357,2.804c-1.085,2.237-2.209,4.55-3.271,6.849c-0.719,1.559-1.64,2.955-2.53,4.306
					c-0.712,1.08-1.448,2.197-2.067,3.379c-0.305,0.582-0.646,1.371-1.009,2.207c-1.326,3.063-2.978,6.875-5.546,7.72
					L21.156,120.567z"/>
				<path fill="#D0B52C" d="M24.503,135.119l-0.622-0.497c0.807-1.01,1.488-2.741,1.987-4.005l0.037-0.094
					c0.361-0.914,0.719-1.829,1.075-2.742c1.36-3.484,2.769-7.086,4.339-10.59c0.599-1.334,1.198-2.667,1.797-4
					c2.814-6.258,5.724-12.728,8.436-19.156c0.37-0.877,0.723-1.806,1.065-2.703c1.067-2.806,2.173-5.707,4.101-8.044l0.613,0.506
					c-1.844,2.236-2.925,5.076-3.971,7.821c-0.344,0.904-0.699,1.839-1.075,2.729c-2.715,6.437-5.627,12.911-8.441,19.172
					c-0.599,1.333-1.198,2.666-1.797,4c-1.563,3.486-2.967,7.079-4.324,10.553c-0.356,0.915-0.716,1.83-1.076,2.745l-0.037,0.093
					C26.093,132.221,25.384,134.016,24.503,135.119z"/>
				<path fill="#D0B52C" d="M24.357,125.692l-0.687-0.403c1.833-3.115,3.585-6.646,5.278-10.061c0.512-1.031,1.019-2.05,1.521-3.044
					c4.9-9.724,9.968-19.778,14.06-30.202l0.742,0.29c-4.106,10.459-9.183,20.53-14.091,30.27c-0.502,0.993-1.007,2.011-1.518,3.041
					C27.963,119.009,26.204,122.553,24.357,125.692z"/>
				<path fill="#D0B52C" d="M32.782,145.108c-0.064,0-0.12-0.014-0.168-0.032c-0.333-0.129-0.326-0.525-0.324-0.654l0.289,0.004
					c0.388-2.074,1.185-4.15,1.957-6.158c0.492-1.278,1-2.6,1.385-3.882c0.554-1.849,1.157-3.731,1.744-5.551
					c1.229-3.831,2.503-7.792,3.396-11.729c1.47-6.478,3.486-12.93,5.439-19.17l0.091-0.291c0.478-1.527,0.821-3.143,1.152-4.705
					c0.262-1.231,0.533-2.505,0.87-3.739c0.43-1.58,0.63-2.799,0.668-4.08l0.795,0.023c-0.039,1.346-0.248,2.622-0.695,4.266
					c-0.33,1.212-0.599,2.475-0.858,3.696c-0.336,1.579-0.684,3.214-1.172,4.777l-0.091,0.291
					c-1.946,6.225-3.96,12.661-5.423,19.108c-0.901,3.971-2.179,7.949-3.416,11.796c-0.584,1.816-1.187,3.694-1.738,5.536
					c-0.394,1.312-0.907,2.646-1.403,3.938c-0.77,2.002-1.566,4.073-1.935,6.103l-0.019,0.109l-0.074,0.083
					C33.077,145.048,32.914,145.108,32.782,145.108z M32.777,144.431l0.264,0.003c-0.031-0.039-0.079-0.079-0.146-0.103
					c-0.091-0.033-0.176-0.021-0.229,0L32.777,144.431z"/>
				<path fill="#D0B52C" d="M36.56,152.736l-0.748-0.271c0.436-1.384,0.932-2.755,1.462-4.11c0.153-0.48,0.305-0.96,0.453-1.435
					c0.235-0.752,0.472-1.502,0.716-2.245c2.934-8.905,5.204-16.601,6.944-23.529c0.57-2.271,1.172-4.544,1.767-6.771
					c0.116-3.054,0.079-6.131,0.042-9.135c-0.019-1.487-0.039-3.023-0.039-4.531h0.797c0,1.503,0.02,3.038,0.037,4.521
					c0.025,1.946,0.05,3.923,0.033,5.907c2.959-11.048,5.658-21.57,5.683-33.084l0.796,0.001
					c-0.025,12.106-2.97,23.078-6.088,34.694c-0.155,0.579-0.311,1.16-0.467,1.746c-0.048,1.212-0.119,2.422-0.224,3.623
					c-0.471,5.371-2.212,11.133-3.854,16.062c-1.011,3.03-2.292,6.008-3.531,8.888c-0.781,1.818-1.58,3.673-2.314,5.554
					C37.582,150.004,37.111,151.397,36.56,152.736z M46.887,118.495c-0.245,0.947-0.489,1.897-0.728,2.846
					c-1.409,5.611-3.165,11.723-5.337,18.569c0.824-1.965,1.62-3.965,2.292-5.98C44.695,129.182,46.37,123.658,46.887,118.495z"/>
				<path fill="#D0B52C" d="M38.71,141.768l-0.719-0.341c0.71-1.496,1.101-3.327,1.478-5.098c0.206-0.967,0.419-1.966,0.68-2.875
					c0.912-3.188,1.813-6.442,2.686-9.589c0.783-2.831,1.594-5.757,2.41-8.629c0.407-1.431,0.848-2.878,1.273-4.28
					c1.124-3.698,2.287-7.522,2.942-11.381c0.247-1.448,0.451-2.928,0.648-4.36c0.241-1.747,0.49-3.551,0.818-5.321
					c0.911-4.911,0.876-9.971,0.846-14.864c-0.008-0.937-0.014-1.876-0.014-2.814h0.796c0,0.937,0.007,1.873,0.013,2.808
					c0.033,4.931,0.066,10.029-0.857,15.015c-0.324,1.752-0.572,3.548-0.813,5.285c-0.198,1.438-0.403,2.925-0.651,4.384
					c-0.665,3.91-1.835,7.758-2.967,11.479c-0.426,1.397-0.863,2.842-1.269,4.266c-0.816,2.87-1.626,5.795-2.409,8.624
					c-0.872,3.148-1.774,6.404-2.688,9.596c-0.253,0.883-0.453,1.825-0.666,2.823C39.861,138.31,39.46,140.188,38.71,141.768z"/>
				<path fill="#D0B52C" d="M41.217,148.237l-0.774-0.183c1.409-5.964,3.246-11.936,5.021-17.711
					c6.32-20.544,10.53-37.991,10.543-56.358l0.797,0c-0.014,20.532-5.467,39.978-10.577,56.593
					C44.453,136.34,42.62,142.298,41.217,148.237z"/>
				<path fill="#D0B52C" d="M44.909,152.202l-0.728-0.326c0.366-0.815,0.612-1.81,0.852-2.77c0.07-0.286,0.141-0.569,0.213-0.846
					c2.058-7.81,4.394-15.693,6.611-23.049c3.931-13.03,6.425-25.89,7.413-38.22c0.317-3.954,0.24-8.039,0.166-11.989
					c-0.033-1.729-0.066-3.518-0.066-5.266h0.797c0,1.742,0.034,3.526,0.065,5.251c0.075,3.97,0.152,8.075-0.168,12.068
					c-0.993,12.387-3.496,25.302-7.443,38.387c-2.217,7.349-4.55,15.224-6.604,23.022c-0.071,0.272-0.14,0.553-0.21,0.834
					C45.559,150.293,45.304,151.322,44.909,152.202z"/>
				<path fill="#D0B52C" d="M53.586,151.13l-0.735-0.304c0.68-1.642,1.104-3.536,1.513-5.368c0.29-1.297,0.591-2.639,0.979-3.886
					c1.85-5.923,2.777-11.779,3.759-17.978l0.024-0.154c0.523-3.305,0.982-6.674,1.428-9.934c0.625-4.575,1.27-9.306,2.102-13.937
					c0.244-1.357,0.517-2.757,0.779-4.11c0.863-4.448,1.756-9.046,1.955-13.492c0.194-4.3,0.128-8.707,0.064-12.969
					c-0.033-2.139-0.066-4.35-0.066-6.518h0.795c0,2.162,0.035,4.37,0.066,6.506c0.065,4.274,0.133,8.694-0.063,13.017
					c-0.202,4.505-1.1,9.133-1.97,13.608c-0.263,1.352-0.533,2.749-0.775,4.101c-0.83,4.614-1.475,9.336-2.097,13.903
					c-0.446,3.263-0.907,6.637-1.43,9.951l-0.025,0.155c-0.987,6.228-1.92,12.11-3.785,18.089c-0.381,1.216-0.676,2.541-0.963,3.822
					C54.723,147.497,54.293,149.425,53.586,151.13z"/>
				<path fill="#D0B52C" d="M53.084,156.682l-0.791-0.082c0.219-2.138,0.793-4.365,1.349-6.519c0.399-1.546,0.812-3.143,1.081-4.673
					c0.924-5.229,1.736-10.56,2.52-15.716c0.675-4.44,1.375-9.033,2.143-13.542c1.802-10.574,2.64-21.594,2.64-34.68
					c0-6.446-0.205-12.98-0.404-19.3c-0.043-1.367-0.085-2.734-0.126-4.103l0.796-0.023c0.041,1.368,0.085,2.735,0.127,4.103
					c0.198,6.324,0.404,12.865,0.404,19.324c0,13.132-0.844,24.194-2.651,34.814c-0.767,4.502-1.465,9.091-2.14,13.528
					c-0.786,5.162-1.598,10.497-2.522,15.735c-0.276,1.561-0.692,3.174-1.095,4.733C53.865,152.405,53.298,154.603,53.084,156.682z"
					/>
				<path fill="#D0B52C" d="M62.557,154.788c-0.184-3.978,0.479-8.42,1.121-12.716c0.301-2.013,0.584-3.913,0.774-5.717l0.186-1.743
					c0.699-6.621,1.424-13.467,2.211-20.2c1.07-9.147,2.011-18.481,2.918-27.508c0.796-7.915,1.62-16.099,2.528-24.125l0.788,0.159
					c-0.909,8.018-1.731,16.198-2.527,24.108c-0.909,9.033-1.848,18.373-2.92,27.532c-0.787,6.725-1.511,13.566-2.21,20.183
					l-0.185,1.744c-0.194,1.833-0.479,3.749-0.782,5.775c-0.632,4.229-1.284,8.603-1.108,12.444L62.557,154.788z"/>
				<path fill="#D0B52C" d="M65.23,156.243c-0.089,0-0.18-0.036-0.256-0.107c-0.307-0.28-0.357-0.896-0.307-3.661
					c0.007-0.326,0.013-0.613,0.013-0.822c0.002-1.8,0-3.6,0-5.399l-0.002-56.551c0-2.459,0.035-4.994,0.07-7.446
					c0.093-6.799,0.189-13.832-0.421-20.517l0.791-0.129c0.615,6.761,0.52,13.83,0.426,20.666c-0.033,2.447-0.068,4.978-0.068,7.427
					v56.55c0.002,1.801,0.002,3.603,0,5.403c0,0.215-0.007,0.511-0.012,0.847c-0.016,0.831-0.046,2.561,0.053,2.893
					c-0.01-0.031-0.056-0.126-0.152-0.181c-0.085-0.048-0.181-0.048-0.263-0.002l0.305,0.984
					C65.351,156.227,65.29,156.243,65.23,156.243z"/>
				<path fill="#D0B52C" d="M69.406,143.407l-0.098-3.546c-0.032-1.143,0.021-2.294,0.155-3.427l0.427,0.091
					c0.872-5.431,1.326-11.221,1.769-16.851c0.248-3.137,0.502-6.38,0.824-9.459c0.494-4.723,0.97-9.526,1.43-14.17
					c0.777-7.842,1.581-15.95,2.493-23.919c0.131-1.138,0.262-2.279,0.396-3.423c1.023-8.853,2.084-18.007,2.393-26.949l0.794,0.049
					c-0.31,9-1.372,18.183-2.4,27.063c-0.133,1.144-0.264,2.285-0.394,3.422c-0.911,7.958-1.715,16.062-2.491,23.897
					c-0.461,4.647-0.938,9.452-1.432,14.178c-0.319,3.061-0.573,6.295-0.82,9.423c-0.533,6.785-1.085,13.801-2.36,20.192
					L69.406,143.407z"/>
				<path fill="#D0B52C" d="M69.547,109.757h-0.796l0.008-1.966c0.053-5.781,0.319-11.503,0.577-17.056
					c0.116-2.477,0.348-4.98,0.571-7.4c0.276-3.016,0.563-6.135,0.629-9.218c0.067-3.197-0.012-6.458-0.088-9.611
					c-0.058-2.379-0.118-4.84-0.116-7.259c0.009-5.041,0.011-10.081,0.011-15.121h0.798c0,5.041-0.005,10.081-0.011,15.122
					c-0.004,2.409,0.056,4.864,0.114,7.238c0.076,3.163,0.156,6.433,0.089,9.647c-0.066,3.111-0.354,6.244-0.634,9.275
					c-0.222,2.411-0.451,4.904-0.567,7.364C69.845,96.944,69.547,103.326,69.547,109.757z"/>
				<rect x="68.043" y="52.214" fill="#D0B52C" width="0.796" height="6.018"/>
				<path fill="#D0B52C" d="M67.335,147.747l-0.621-0.667c0.571-0.953,0.657-3.014,0.726-4.669c0.029-0.702,0.056-1.363,0.116-1.907
					c0.389-3.536,0.621-6.885,0.713-10.239c0.219-8.081,1.199-16.25,2.146-24.15l0.284-2.368c0.291-2.446,0.594-4.905,0.897-7.373
					c1.637-13.264,3.327-26.98,3.348-40.386l0.798,0.002c-0.021,13.493-1.717,27.251-3.357,40.558
					c-0.306,2.466-0.608,4.923-0.899,7.367l-0.283,2.369c-0.944,7.867-1.922,16.004-2.138,24.02
					c-0.092,3.394-0.327,6.78-0.72,10.355c-0.056,0.496-0.082,1.134-0.109,1.81C68.156,144.371,68.067,146.527,67.335,147.747z"/>
				<path fill="#D0B52C" d="M62.422,145.898l-0.62-0.667c0.571-0.953,0.655-3.013,0.726-4.669c0.028-0.701,0.056-1.363,0.115-1.907
					c0.39-3.536,0.623-6.885,0.714-10.238c0.217-8.081,1.198-16.25,2.146-24.15l0.283-2.367c0.292-2.447,0.596-4.906,0.899-7.373
					c1.634-13.264,3.325-26.98,3.348-40.386l0.795,0.002c-0.021,13.493-1.717,27.251-3.357,40.557
					c-0.304,2.466-0.605,4.922-0.898,7.367l-0.283,2.369c-0.944,7.869-1.921,16.005-2.138,24.021
					c-0.093,3.392-0.327,6.78-0.721,10.355c-0.055,0.494-0.081,1.133-0.109,1.809C63.243,142.522,63.153,144.679,62.422,145.898z"/>
				<path fill="#D0B52C" d="M78.573,99.294h-0.796c0-1.113-0.008-2.226-0.015-3.337c-0.032-5.194-0.066-10.564,0.653-15.833
					c1.426-10.411,1.374-21.041,1.327-31.322c-0.011-1.929-0.019-3.859-0.019-5.792h0.796c0,1.932,0.01,3.861,0.018,5.788
					c0.05,10.309,0.101,20.968-1.333,31.434c-0.713,5.212-0.679,10.554-0.646,15.719C78.566,97.066,78.573,98.181,78.573,99.294z"/>
				<path fill="#D0B52C" d="M83.706,90.977l-0.796-0.002v-0.259c0.017-6.809,0.034-13.849,0.705-20.654
					c0.44-4.453,0.626-9.025,0.807-13.447c0.221-5.423,0.45-11.031,1.146-16.487l0.79,0.101c-0.693,5.422-0.921,11.013-1.141,16.419
					c-0.181,4.432-0.367,9.016-0.809,13.493c-0.668,6.766-0.686,13.787-0.703,20.577V90.977z"/>
				<path fill="#D0B52C" d="M86.531,91.703l-0.597-2.031l0.71-0.208c0.207-1.053,0.285-2.535,0.35-3.71
					c0.032-0.639,0.062-1.189,0.106-1.608c0.358-3.451,0.931-6.939,1.485-10.313c0.198-1.205,0.396-2.409,0.584-3.612
					c0.438-2.786,0.813-5.639,1.176-8.398c0.545-4.144,1.109-8.429,1.895-12.597c0.194-1.027,0.395-2.05,0.596-3.069
					c0.678-3.456,1.378-7.03,1.758-10.62l0.792,0.084c-0.383,3.625-1.087,7.216-1.77,10.689c-0.198,1.018-0.399,2.038-0.593,3.063
					c-0.782,4.146-1.344,8.42-1.889,12.554c-0.363,2.763-0.738,5.621-1.178,8.417c-0.188,1.206-0.387,2.411-0.585,3.617
					c-0.553,3.363-1.125,6.84-1.479,10.268c-0.042,0.4-0.07,0.941-0.105,1.568c-0.097,1.846-0.22,4.142-0.789,5.112L86.531,91.703z"
					/>
				<path fill="#D0B52C" d="M85.285,84.713l-0.767-0.219c0.337-1.178,0.386-2.619,0.436-4.014c0.013-0.386,0.027-0.763,0.046-1.122
					c0.101-1.902,0.318-3.806,0.528-5.648c0.215-1.887,0.438-3.838,0.532-5.769c0.143-2.917,0.563-5.82,0.969-8.627
					c0.334-2.321,0.682-4.721,0.867-7.104c0.251-3.218,0.212-6.523,0.174-9.72c-0.014-1.165-0.026-2.369-0.026-3.55h0.795
					c0,1.177,0.015,2.379,0.029,3.54c0.037,3.214,0.076,6.539-0.177,9.792c-0.189,2.41-0.537,4.822-0.874,7.156
					c-0.403,2.79-0.819,5.674-0.961,8.553c-0.095,1.957-0.319,3.921-0.536,5.82c-0.209,1.831-0.425,3.722-0.525,5.601
					c-0.019,0.354-0.03,0.727-0.045,1.107C85.702,81.884,85.647,83.443,85.285,84.713z"/>
				<path fill="#D0B52C" d="M88.963,78.926c-0.31-0.689-0.271-1.766-0.237-2.716c0.006-0.187,0.013-0.367,0.017-0.531
					c0.026-1.479,0.045-2.962,0.062-4.445c0.035-2.763,0.068-5.622,0.166-8.427c0.317-9.282,1.791-18.723,3.217-27.853
					c0.155-0.995,0.311-1.988,0.463-2.978l0.787,0.122c-0.153,0.991-0.309,1.984-0.464,2.979c-1.42,9.107-2.891,18.523-3.207,27.757
					c-0.096,2.796-0.131,5.649-0.164,8.409c-0.019,1.485-0.036,2.968-0.064,4.45c-0.002,0.169-0.009,0.352-0.015,0.544
					c-0.029,0.821-0.065,1.843,0.167,2.363L88.963,78.926z"/>
				<path fill="#D0B52C" d="M97.866,74.339h-0.797c0-6.035-0.044-12.504-0.093-19.353c-0.063-9.148-0.128-18.608-0.085-27.377
					l0.798,0.005c-0.044,8.764,0.021,18.221,0.085,27.366C97.821,61.831,97.866,68.302,97.866,74.339z"/>
				<rect x="101.672" y="15.93" fill="#D0B52C" width="0.796" height="46.906"/>
				<path fill="#D0B52C" d="M107.925,56.086l-0.792-0.074c0.424-9.239,0.287-18.712,0.156-27.873
					c-0.064-4.472-0.131-9.095-0.131-13.625h0.797c0,4.524,0.066,9.145,0.131,13.614c0.125,8.735,0.254,17.756-0.102,26.596
					l0.291,0.127C108.103,55.246,107.984,55.662,107.925,56.086z"/>
				<path fill="#D0B52C" d="M112.136,61.75l-0.328-1.656c-0.091-0.454-0.105-0.919-0.044-1.383l0.198,0.026
					c0.009-0.352-0.004-0.712-0.017-1.067c-0.01-0.325-0.022-0.661-0.018-0.986c0.078-5.521,0.162-10.12,0.489-14.848
					c0.521-7.586,1.165-14.746,1.971-21.889c0.143-1.263,0.327-2.545,0.507-3.785c0.421-2.912,0.857-5.922,0.761-8.891l0.795-0.026
					c0.1,3.04-0.341,6.085-0.768,9.032c-0.179,1.234-0.362,2.51-0.503,3.76c-0.804,7.131-1.446,14.28-1.97,21.854
					c-0.324,4.707-0.409,9.295-0.485,14.805c-0.004,0.306,0.006,0.617,0.017,0.948c0.029,0.829,0.058,1.688-0.159,2.479
					L112.136,61.75z"/>
				<rect x="121.141" fill="#D0B52C" width="0.796" height="54.29"/>
				<path fill="#D0B52C" d="M127.778,46.225h-0.796l0.01-1.268c0.059-3.957,0.375-8.167,0.985-13.125
					c0.372-3.021,0.473-6.134,0.571-9.143c0.089-2.732,0.18-5.557,0.474-8.325l0.005-0.051c0.457-4.313,0.888-8.386,1.498-12.6
					l0.788,0.115c-0.609,4.199-1.038,8.264-1.493,12.569l-0.007,0.051c-0.289,2.738-0.381,5.549-0.469,8.266
					c-0.1,3.028-0.2,6.158-0.576,9.215C128.097,37.388,127.782,41.93,127.778,46.225z"/>
				<path fill="#D0B52C" d="M129.895,39.905l-0.78-0.162c0.427-2.044,0.623-4.416,0.815-6.711c0.093-1.134,0.192-2.307,0.313-3.402
					c0.379-3.354,0.628-6.779,0.868-10.089c0.213-2.917,0.432-5.933,0.739-8.897c0.077-0.749,0.162-1.494,0.246-2.235
					c0.306-2.683,0.594-5.217,0.549-7.871l0.797-0.013c0.046,2.705-0.261,5.383-0.554,7.973c-0.085,0.739-0.17,1.481-0.246,2.228
					c-0.306,2.953-0.524,5.962-0.735,8.873c-0.242,3.319-0.492,6.75-0.872,10.122c-0.122,1.083-0.219,2.25-0.313,3.379
					C130.529,35.417,130.33,37.814,129.895,39.905z"/>
				<path fill="#D0B52C" d="M133.401,44.674l-0.605-2.346c-0.122-0.475-0.174-0.967-0.149-1.461l0.209,0.01
					c0.041-1.043,0.046-2.093,0.052-3.117c0.011-2.153,0.021-4.379,0.351-6.582l0.335-2.239c0.94-6.258,1.914-12.729,2.417-19.059
					l0.794,0.063c-0.506,6.357-1.48,12.842-2.423,19.114l-0.336,2.237c-0.32,2.147-0.332,4.344-0.342,6.468
					c-0.007,1.474-0.015,2.997-0.124,4.495L133.401,44.674z"/>
				<path fill="#D0B52C" d="M133.053,40.519l-0.727-0.327c0.825-1.832,0.897-4.38,0.961-6.628c0.01-0.337,0.019-0.666,0.031-0.981
					c0.165-4.475,0.12-9.045,0.076-13.465c-0.021-2.032-0.041-4.133-0.041-6.196h0.797c0,2.059,0.021,4.158,0.04,6.188
					c0.043,4.43,0.09,9.011-0.076,13.503c-0.013,0.313-0.021,0.64-0.031,0.974C134.017,35.909,133.942,38.542,133.053,40.519z"/>
				<path fill="#D0B52C" d="M121.246,50.797l-0.549-0.498c-0.194-0.177-0.486-0.571-0.24-1.233l0.229,0.084
					c0.287-2.065,0.496-4.162,0.696-6.198c0.183-1.849,0.372-3.761,0.622-5.642c0.42-3.175,0.931-6.38,1.425-9.48
					c0.834-5.224,1.694-10.625,2.138-16.004l0.793,0.065c-0.443,5.41-1.309,10.826-2.145,16.065
					c-0.494,3.095-1.003,6.294-1.422,9.458c-0.248,1.869-0.436,3.774-0.618,5.617c-0.228,2.307-0.465,4.691-0.817,7.031
					L121.246,50.797z"/>
				<path fill="#D0B52C" d="M123.443,43.207c-0.219-4.337,0.611-9.277,1.277-13.247c1.069-6.374,1.049-12.57,1.028-19.13
					c-0.004-0.894-0.006-1.789-0.006-2.687h0.795c0,0.897,0.004,1.792,0.007,2.685c0.021,6.595,0.041,12.824-1.04,19.265
					c-0.659,3.931-1.479,8.824-1.268,13.076L123.443,43.207z"/>
				<path fill="#D0B52C" d="M125.39,44.446c-0.149-3.026,0.443-6.125,1.018-9.122c0.369-1.927,0.751-3.92,0.921-5.841
					c0.223-2.543,0.66-5.091,1.083-7.556c0.621-3.623,1.265-7.371,1.226-11.126l0.797-0.009c0.039,3.827-0.609,7.611-1.237,11.271
					c-0.42,2.447-0.854,4.979-1.075,7.489c-0.173,1.961-0.558,3.975-0.932,5.921c-0.565,2.951-1.149,6.003-1.004,8.932
					L125.39,44.446z"/>
				<path fill="#D0B52C" d="M135.676,42.347l-0.662-0.442c1.301-1.947,1.469-4.807,1.615-7.33c0.05-0.827,0.095-1.608,0.176-2.342
					c0.297-2.692,0.767-5.513,1.521-9.146c0.188-0.911,0.465-1.867,0.731-2.791c0.49-1.694,0.996-3.446,1.023-5.079l0.795,0.012
					c-0.028,1.74-0.55,3.543-1.054,5.288c-0.274,0.952-0.534,1.85-0.717,2.732c-0.748,3.607-1.213,6.405-1.509,9.071
					c-0.078,0.713-0.124,1.485-0.171,2.301C137.271,37.245,137.098,40.219,135.676,42.347z"/>
				<path fill="#D0B52C" d="M114.495,56.687l-0.793-0.065c0.008-0.524,0.01-1.048,0.004-1.573l0.232-0.001
					c0.125-0.813,0.25-1.625,0.375-2.437c0.742-4.8,1.511-9.763,2.038-14.67c0.317-2.978,0.82-5.99,1.306-8.903
					c0.302-1.809,0.612-3.68,0.876-5.519c0.157-1.094,0.269-2.23,0.386-3.433c0.241-2.482,0.491-5.048,1.179-7.282l0.761,0.233
					c-0.663,2.159-0.908,4.684-1.147,7.126c-0.117,1.212-0.229,2.357-0.39,3.469c-0.263,1.847-0.577,3.723-0.879,5.537
					c-0.483,2.901-0.983,5.901-1.3,8.856c-0.529,4.925-1.298,9.898-2.042,14.707C114.898,54.051,114.694,55.369,114.495,56.687z"/>
				<path fill="#D0B52C" d="M109.371,57.879l-0.798-0.002c0.011-3.147,0.688-6.603,1.343-9.945c0.33-1.675,0.641-3.258,0.866-4.783
					c0.318-2.139,0.678-4.322,1.026-6.433c1.131-6.865,2.303-13.965,2.253-20.96l0.796-0.005c0.051,7.064-1.126,14.197-2.263,21.095
					c-0.349,2.109-0.707,4.287-1.024,6.42c-0.229,1.544-0.54,3.135-0.871,4.819C110.051,51.39,109.379,54.808,109.371,57.879z"/>
				<path fill="#D0B52C" d="M102.322,70.446l0.05-3.752c0.015-1.145,0.013-2.31,0.009-3.438c-0.001-0.436-0.002-0.872-0.002-1.308
					h0.797c0,0.139,0,0.278,0,0.417c0.459-3.03,0.724-6.104,0.938-9.052c0.284-3.943,0.797-7.935,1.293-11.794
					c0.128-0.986,0.255-1.972,0.379-2.958c0.125-1.002,0.275-2.044,0.421-3.053c0.49-3.383,0.996-6.882,0.775-10.171l0.795-0.053
					c0.226,3.373-0.287,6.914-0.782,10.338c-0.151,1.051-0.294,2.042-0.42,3.037c-0.122,0.987-0.25,1.974-0.377,2.96
					c-0.495,3.849-1.008,7.83-1.291,11.751c-0.316,4.371-0.746,9.024-1.75,13.417L102.322,70.446z"/>
				<path fill="#D0B52C" d="M102.651,65.993l-0.455-0.654c-0.058,0.04-0.076,0.082-0.078,0.082c0.13-0.277,0.105-1.807,0.093-2.542
					c-0.004-0.258-0.009-0.491-0.009-0.672v-8.775v-4.387c0-4.813,0.046-9.703,0.089-14.431c0.04-4.151,0.079-8.444,0.088-12.667
					l0.797,0.002c-0.008,4.225-0.05,8.518-0.088,12.672c-0.043,4.727-0.09,9.615-0.09,14.424l0.001,4.387l-0.001,8.775
					c0,0.179,0.004,0.406,0.009,0.659C103.046,65.18,102.979,65.764,102.651,65.993z"/>
				<path fill="#D0B52C" d="M95.698,73.456l-0.355-0.713c0.434-0.215,0.597-1.451,0.686-2.114c0.014-0.101,0.025-0.197,0.039-0.286
					c0.459-3.226,0.845-6.813,1.146-10.661c0.855-10.923,1.271-21.704,1.271-32.956h0.796c0,11.273-0.416,22.072-1.273,33.018
					c-0.303,3.865-0.69,7.469-1.153,10.71c-0.011,0.087-0.024,0.18-0.037,0.278C96.688,71.711,96.511,73.05,95.698,73.456z"/>
				<path fill="#D0B52C" d="M90.124,82.327l0.04-3.262c0.002-0.208,0-0.417-0.003-0.624c-0.004-0.347-0.007-0.704,0.011-1.06
					l0.437,0.021c2.427-9.144,3.249-18.912,4.046-28.376c0.302-3.575,0.612-7.271,1.004-10.851l0.877,0.095
					c-0.392,3.569-0.701,7.261-1.003,10.83c-0.846,10.042-1.72,20.425-4.505,30.092L90.124,82.327z"/>
				<path fill="#D0B52C" d="M93.633,81.531l-0.174-3.257c-0.012-0.207-0.028-0.414-0.043-0.622c-0.026-0.346-0.054-0.703-0.06-1.059
					l0.437-0.008c1.823-9.282,2.004-19.084,2.18-28.58c0.065-3.587,0.134-7.296,0.291-10.894l0.881,0.038
					c-0.156,3.587-0.226,7.291-0.291,10.872c-0.186,10.076-0.378,20.495-2.524,30.322L93.633,81.531z"/>
				<rect x="104.504" y="22.655" fill="#D0B52C" width="0.796" height="34.691"/>
				<path fill="#D0B52C" d="M105.612,68.675l-0.713-0.356c0.607-1.218,0.792-3.147,0.94-4.697c0.026-0.284,0.054-0.557,0.08-0.814
					c0.271-2.561,0.674-5.137,1.062-7.628c0.394-2.529,0.802-5.145,1.071-7.738c0.267-2.545,0.622-5.113,0.965-7.597
					c0.352-2.538,0.713-5.162,0.979-7.753c0.043-0.43,0.086-0.879,0.128-1.341c0.267-2.898,0.57-6.182,1.857-8.634l0.705,0.37
					c-1.214,2.313-1.509,5.514-1.769,8.337c-0.044,0.464-0.085,0.916-0.13,1.349c-0.268,2.605-0.631,5.237-0.982,7.781
					c-0.343,2.479-0.696,5.04-0.961,7.571c-0.272,2.614-0.682,5.239-1.076,7.778c-0.388,2.482-0.787,5.049-1.059,7.59
					c-0.026,0.255-0.052,0.525-0.078,0.806C106.478,65.313,106.286,67.324,105.612,68.675z"/>
				<path fill="#D0B52C" d="M31.131,132.091l-0.779-0.166c0.165-0.771,0.499-1.479,0.821-2.163c0.075-0.16,0.151-0.321,0.226-0.482
					c0.656-1.438,1.189-2.973,1.704-4.458c0.528-1.522,1.074-3.095,1.76-4.592c3.203-6.987,5.706-14.267,8.416-22.375
					c1.111-3.327,2.025-6.794,2.867-10.062c0.078-0.303,0.16-0.607,0.242-0.915c0.389-1.444,0.791-2.938,0.813-4.391l0.797,0.013
					c-0.025,1.551-0.439,3.093-0.842,4.584c-0.081,0.305-0.163,0.607-0.24,0.907c-0.844,3.281-1.763,6.765-2.883,10.116
					c-2.717,8.129-5.228,15.431-8.446,22.455c-0.671,1.462-1.21,3.018-1.732,4.521c-0.521,1.502-1.061,3.056-1.731,4.528
					c-0.075,0.164-0.153,0.328-0.229,0.49C31.577,130.775,31.275,131.411,31.131,132.091z"/>
				<path fill="#D0B52C" d="M36.04,129.843l-0.776-0.181c0.479-2.051,1.076-4.117,1.653-6.115c0.494-1.712,1.006-3.484,1.439-5.237
					c1.614-6.509,3.984-12.823,6.276-18.929l0.236-0.63c0.505-1.348,0.989-2.736,1.456-4.081c0.949-2.733,1.932-5.559,3.17-8.228
					l0.723,0.335c-1.221,2.634-2.196,5.441-3.141,8.154c-0.469,1.349-0.953,2.742-1.462,4.099l-0.236,0.63
					c-2.389,6.365-4.646,12.377-6.248,18.842c-0.438,1.767-0.953,3.546-1.449,5.266C37.108,125.756,36.514,127.812,36.04,129.843z"
					/>
				<path fill="#D0B52C" d="M47.866,158.154c-0.062,0.006-0.119-0.003-0.168-0.019c-0.342-0.104-0.366-0.499-0.373-0.627
					l0.288-0.018c0.234-2.097,0.877-4.226,1.499-6.285c0.396-1.311,0.805-2.666,1.094-3.973c0.416-1.885,0.88-3.806,1.329-5.664
					c0.945-3.912,1.923-7.956,2.523-11.948c0.988-6.568,2.524-13.152,4.012-19.519l0.068-0.296c0.363-1.559,0.587-3.195,0.803-4.777
					c0.171-1.248,0.346-2.538,0.591-3.793c0.313-1.607,0.423-2.839,0.365-4.118l0.795-0.035c0.062,1.345-0.053,2.632-0.378,4.304
					c-0.239,1.234-0.415,2.513-0.583,3.749c-0.22,1.601-0.445,3.256-0.817,4.851l-0.068,0.296
					c-1.484,6.351-3.016,12.919-3.999,19.456c-0.606,4.026-1.587,8.088-2.537,12.016c-0.449,1.854-0.911,3.772-1.326,5.649
					c-0.295,1.337-0.709,2.707-1.108,4.031c-0.62,2.054-1.262,4.177-1.479,6.228l-0.013,0.111l-0.066,0.089
					C48.157,158.073,47.999,158.146,47.866,158.154z M47.813,157.479l0.263-0.015c-0.034-0.036-0.085-0.073-0.152-0.092
					c-0.094-0.026-0.176-0.007-0.228,0.018L47.813,157.479z"/>
				<path fill="#D0B52C" d="M59.703,141.539l-0.793-0.079c0.206-2.096,0.526-4.222,0.836-6.278c0.267-1.762,0.542-3.585,0.742-5.381
					c0.748-6.665,2.269-13.235,3.74-19.589l0.151-0.656c0.324-1.402,0.621-2.842,0.908-4.235c0.583-2.834,1.188-5.765,2.064-8.574
					l0.761,0.238c-0.866,2.77-1.465,5.682-2.045,8.497c-0.288,1.397-0.586,2.842-0.912,4.254l-0.152,0.656
					c-1.533,6.623-2.982,12.879-3.724,19.498c-0.203,1.81-0.479,3.64-0.747,5.411C60.226,137.347,59.906,139.463,59.703,141.539z"/>
				<path fill="#D0B52C" d="M113.044,55.436c-0.14-2.472,0.262-5.174,0.648-7.787c0.15-1.008,0.291-1.959,0.4-2.883
					c0.611-5.2,1.359-10.748,2.224-16.488c0.412-2.733,0.53-5.631,0.646-8.434c0.054-1.325,0.109-2.694,0.196-4.015l0.796,0.052
					c-0.087,1.313-0.143,2.677-0.196,3.996c-0.116,2.824-0.237,5.745-0.654,8.521c-0.863,5.731-1.611,11.27-2.221,16.462
					c-0.111,0.936-0.252,1.894-0.402,2.907c-0.383,2.573-0.777,5.234-0.642,7.625L113.044,55.436z"/>
				<path fill="#D0B52C" d="M118.088,52.629l-0.797-0.006c0.024-3.238,0.402-6.536,0.768-9.727c0.08-0.692,0.158-1.384,0.235-2.075
					c0.241-2.2,0.529-4.427,0.809-6.581c0.292-2.256,0.594-4.589,0.842-6.892c0.147-1.358,0.411-2.779,0.668-4.153
					c0.43-2.309,0.874-4.696,0.794-6.928l0.797-0.029c0.083,2.32-0.37,4.751-0.808,7.103c-0.255,1.359-0.516,2.765-0.659,4.092
					c-0.248,2.311-0.552,4.648-0.844,6.909c-0.278,2.15-0.565,4.373-0.808,6.566c-0.076,0.691-0.155,1.384-0.234,2.078
					C118.486,46.156,118.111,49.433,118.088,52.629z"/>
				<rect x="99.902" y="31.386" fill="#D0B52C" width="0.796" height="46.196"/>
				<path fill="#D0B52C" d="M80.245,97.316l-0.776-0.175c0.494-2.185,0.751-4.521,0.999-6.779c0.133-1.192,0.268-2.426,0.437-3.614
					c0.526-3.712,0.981-7.506,1.422-11.174c0.56-4.68,1.141-9.519,1.877-14.254c0.332-2.131,0.591-4.32,0.841-6.436
					c0.302-2.554,0.614-5.195,1.058-7.763c0.161-0.925,0.485-1.836,0.802-2.718c0.317-0.892,0.648-1.815,0.791-2.724l0.786,0.124
					c-0.154,0.982-0.497,1.941-0.827,2.869c-0.318,0.888-0.618,1.728-0.767,2.585c-0.44,2.548-0.751,5.178-1.052,7.721
					c-0.25,2.124-0.511,4.319-0.845,6.465c-0.735,4.722-1.315,9.554-1.874,14.227c-0.44,3.673-0.896,7.471-1.423,11.191
					c-0.167,1.176-0.303,2.403-0.433,3.589C81.01,92.73,80.749,95.088,80.245,97.316z"/>
				<rect x="77.334" y="56.078" fill="#D0B52C" width="0.797" height="56.55"/>
				<path fill="#D0B52C" d="M75.104,114.625c-0.232-0.623-0.203-1.291-0.176-1.935c0.009-0.196,0.017-0.391,0.017-0.579V62.583
					h0.798v49.529c0,0.2-0.009,0.406-0.019,0.613c-0.024,0.566-0.05,1.152,0.126,1.623L75.104,114.625z"/>
				<path fill="#D0B52C" d="M136.546,34.867c-0.072-7.638,1.438-15.565,2.899-23.232l0.293-1.535l0.782,0.148l-0.292,1.537
					c-1.455,7.628-2.958,15.516-2.887,23.075L136.546,34.867z"/>
				<rect x="130.173" y="6.59" fill="#D0B52C" width="0.798" height="38.626"/>
				<path fill="#D0B52C" d="M135.505,28.716l-0.762-0.235c0.295-0.955,0.41-2.151,0.521-3.309c0.032-0.339,0.064-0.672,0.1-0.986
					c0.341-3.004,0.8-6.062,1.204-8.761c0.054-0.361,0.102-0.733,0.149-1.109c0.106-0.833,0.215-1.694,0.409-2.493l0.773,0.187
					c-0.183,0.756-0.29,1.594-0.393,2.406c-0.049,0.382-0.096,0.76-0.151,1.127c-0.403,2.691-0.862,5.743-1.201,8.732
					c-0.035,0.311-0.065,0.638-0.098,0.974C135.947,26.39,135.823,27.684,135.505,28.716z"/>
				<path fill="#D0B52C" d="M131.934,34.274l-0.788-0.111c0.136-0.963,0.31-1.944,0.479-2.893c0.288-1.618,0.587-3.29,0.7-4.927
					c0.128-1.814,0.088-3.697,0.05-5.517c-0.019-0.88-0.037-1.791-0.037-2.68c0-0.475,0.007-0.954,0.015-1.436
					c0.03-1.821,0.063-3.704-0.357-5.452l0.773-0.187c0.445,1.848,0.412,3.781,0.382,5.652c-0.009,0.477-0.017,0.952-0.017,1.423
					c0,0.88,0.019,1.788,0.037,2.663c0.039,1.839,0.078,3.74-0.051,5.59c-0.117,1.68-0.419,3.372-0.71,5.01
					C132.242,32.352,132.067,33.326,131.934,34.274z"/>
				<path fill="#D0B52C" d="M121.744,40.705l-0.764-0.228c0.103-0.342,0.113-0.725,0.126-1.129c0.01-0.336,0.021-0.683,0.083-1.027
					c0.124-0.665,0.191-1.315,0.262-2.003l0.039-0.374c0.129-1.219,0.32-2.451,0.504-3.641c0.105-0.682,0.211-1.364,0.307-2.044
					c0.062-0.447,0.126-0.895,0.189-1.345c0.413-2.917,0.841-5.934,0.901-8.882l0.007-0.372c0.021-1.083,0.045-2.203,0.043-3.302
					c0-0.156-0.007-0.317-0.013-0.481c-0.021-0.463-0.039-0.942,0.068-1.397l0.774,0.185c-0.082,0.348-0.064,0.771-0.047,1.18
					c0.006,0.174,0.013,0.347,0.014,0.513c0.001,1.108-0.021,2.233-0.043,3.32l-0.009,0.371c-0.06,2.996-0.491,6.037-0.908,8.979
					c-0.063,0.448-0.127,0.895-0.188,1.342c-0.095,0.684-0.2,1.37-0.308,2.056c-0.184,1.181-0.372,2.402-0.5,3.602l-0.038,0.372
					c-0.07,0.674-0.142,1.37-0.271,2.067c-0.054,0.284-0.062,0.585-0.072,0.905C121.889,39.809,121.877,40.262,121.744,40.705z"/>
				<path fill="#D0B52C" d="M7.051,88.946l-0.674-0.424c0.079-0.127,0.135-0.393,0.175-0.587l0.028-0.132
					c0.233-1.065,0.533-2.462,0.773-3.823c0.419-2.354,0.865-5.079,0.873-7.622c0.002-0.623-0.001-1.246-0.004-1.868
					c-0.002-0.489-0.004-0.977-0.004-1.465h0.795c0,0.488,0.002,0.974,0.005,1.461c0.004,0.625,0.006,1.25,0.004,1.874
					c-0.007,2.606-0.46,5.372-0.885,7.759c-0.244,1.374-0.545,2.782-0.781,3.854l-0.024,0.124
					C7.276,88.363,7.206,88.697,7.051,88.946z"/>
				<path fill="#D0B52C" d="M8.521,96.052l-0.693-0.389c0.979-1.744,1.743-3.553,2.569-5.566c0.531-1.294,1.101-2.59,1.651-3.844
					c0.293-0.669,0.588-1.339,0.878-2.012c1.366-3.169,2.455-5.961,3.33-8.536c0.077-0.227,0.168-0.463,0.262-0.705
					c0.312-0.817,0.635-1.661,0.554-2.418l0.791-0.086c0.104,0.949-0.271,1.927-0.603,2.79c-0.089,0.233-0.177,0.459-0.251,0.677
					c-0.88,2.595-1.978,5.406-3.352,8.595c-0.291,0.674-0.585,1.345-0.88,2.016c-0.549,1.249-1.116,2.542-1.645,3.826
					C10.297,92.437,9.522,94.269,8.521,96.052z"/>
				<path fill="#D0B52C" d="M8.252,92.718l-0.775-0.182c0.463-1.974,1.077-3.954,1.672-5.87c1.211-3.906,2.464-7.947,2.477-12.093
					l0.797,0.002c-0.014,4.266-1.283,8.364-2.513,12.328C9.317,88.803,8.708,90.771,8.252,92.718z"/>
				<path fill="#D0B52C" d="M10.38,105.85l-0.606-0.516c4.193-4.932,6.463-11.185,8.428-17.167c0.55-1.674,1.215-3.387,1.857-5.044
					c1.679-4.323,3.413-8.792,3.426-13.286l0.796,0.003c-0.012,4.64-1.774,9.18-3.479,13.571c-0.639,1.647-1.3,3.35-1.843,5.004
					C16.969,94.473,14.668,100.809,10.38,105.85z"/>
				<path fill="#D0B52C" d="M22.857,114.87l-0.782-0.148c0.445-2.355,2.049-4.876,3.464-7.102c0.521-0.818,1.013-1.592,1.428-2.322
					c2.771-4.869,4.892-10.136,6.943-15.229c1.396-3.469,2.841-7.054,4.479-10.491l0.72,0.343c-1.629,3.415-3.067,6.989-4.46,10.445
					c-2.062,5.118-4.192,10.41-6.99,15.326c-0.426,0.747-0.923,1.528-1.448,2.355C24.834,110.213,23.274,112.665,22.857,114.87z"/>
				<path fill="#D0B52C" d="M46.032,154.448l-0.582-0.542c0.67-0.719,1.086-2.422,1.391-3.666c0.064-0.264,0.126-0.514,0.186-0.743
					c0.379-1.444,0.747-2.929,1.101-4.365c0.6-2.427,1.221-4.937,1.931-7.391c2.729-9.434,6.135-21.919,8.255-34.841
					c0.706-4.309,1.506-8.916,2.806-13.705c0.906-3.337,0.728-7.08,0.556-10.699c-0.065-1.403-0.136-2.855-0.136-4.232h0.796
					c0,1.358,0.065,2.736,0.136,4.194c0.175,3.681,0.355,7.487-0.583,10.945c-1.289,4.752-2.085,9.337-2.788,13.625
					c-2.128,12.963-5.54,25.479-8.277,34.933c-0.704,2.44-1.322,4.942-1.921,7.361c-0.356,1.44-0.724,2.927-1.104,4.376
					c-0.059,0.224-0.118,0.471-0.183,0.73C47.271,151.832,46.844,153.578,46.032,154.448z"/>
				<path fill="#D0B52C" d="M41.593,152.212l-0.731-0.317c3.851-8.882,6.484-18.787,9.03-28.364c0.411-1.545,0.82-3.083,1.231-4.606
					c2.075-7.688,3.177-15.634,4.242-23.318c0.257-1.838,0.519-3.739,0.794-5.613c0.183-1.258,0.376-2.509,0.57-3.757
					c0.825-5.337,1.605-10.379,1.622-15.69l0.798,0.002c-0.019,5.371-0.839,10.678-1.633,15.81c-0.193,1.246-0.387,2.495-0.57,3.75
					c-0.272,1.872-0.535,3.771-0.791,5.607c-1.069,7.709-2.176,15.681-4.264,23.417c-0.411,1.522-0.819,3.06-1.229,4.604
					C48.107,133.342,45.467,143.275,41.593,152.212z"/>
			</g>
		</g>
	</g>
	<path fill="#D0B52C" d="M51.581,148.618c-0.082,0-0.163-0.004-0.243-0.011c-1.636-0.145-8.707-11.665-12.776-18.518
		c-1.434-2.415-23.582-33.162-28.61-37.396c-2.51-2.114-8.271-7.546-7.564-12.328c0.327-2.217,1.977-3.98,4.903-5.241
		c1.388-0.597,3.071-0.9,5.006-0.9c11.252,0,28.151,9.955,31.425,11.951c2.556,1.559,3.673,1.792,4.111,1.792l0,0
		c0.181,0,0.267-0.039,0.289-0.063l-0.027-0.22l0.165-0.212c0.494-0.574,49.649-57.535,68.092-68.338
		c7.597-4.846,12.756-7.108,16.218-7.108c2.077,0,3.306,0.795,4.39,1.496c0.162,0.104,0.323,0.208,0.484,0.309
		c1.61,0.997,2.505,2.354,2.659,4.034c0.334,3.649-2.947,8.634-9.755,14.815c-4.277,3.884-42.384,39.329-63.038,87.065
		c-7.591,18.776-10.12,24.835-11.152,26.15C55.092,147.248,53.179,148.617,51.581,148.618z M12.296,75.224
		c-1.798,0-3.349,0.276-4.611,0.819c-2.586,1.113-4.035,2.617-4.309,4.468c-0.633,4.283,4.838,9.411,7.22,11.417
		c5.277,4.444,27.37,35.197,28.825,37.65c5.001,8.421,10.923,17.606,12.049,18.041c0.008-0.004,0.06-0.002,0.111-0.001
		c1.219,0,2.884-1.19,3.789-2.341c0.941-1.2,3.705-7.834,11.016-25.919c20.743-47.939,58.995-83.52,63.289-87.419
		c8.174-7.423,9.64-11.702,9.431-13.984c-0.124-1.35-0.86-2.452-2.189-3.274c-0.167-0.104-0.333-0.211-0.501-0.32
		c-1.062-0.687-2.064-1.335-3.847-1.335c-3.219,0-8.353,2.277-15.696,6.961C98.985,30.464,51.792,84.912,49.13,87.992
		c-0.021,0.164-0.086,0.377-0.258,0.572c-0.161,0.183-0.474,0.402-1.04,0.402l0,0c-0.979,0-2.494-0.634-4.632-1.938
		C41.219,85.82,23.514,75.224,12.296,75.224z"/>
</g>
</svg>
