<?xml version="1.0" encoding="utf-8"?>
<!-- Generator: Adobe Illustrator 16.0.0, SVG Export Plug-In . SVG Version: 6.00 Build 0)  -->
<!DOCTYPE svg PUBLIC "-//W3C//DTD SVG 1.1//EN" "http://www.w3.org/Graphics/SVG/1.1/DTD/svg11.dtd">
<svg version="1.1" id="Layer_1" xmlns="http://www.w3.org/2000/svg" xmlns:xlink="http://www.w3.org/1999/xlink" x="0px" y="0px"
	 width="300px" height="306.029px" viewBox="0 0 300 306.029" enable-background="new 0 0 300 306.029" xml:space="preserve">
<g>
	<g>
		<path fill="#ECECEC" d="M276.24,128.54c0-69.72-56.52-126.239-126.241-126.239C80.279,2.301,23.76,58.82,23.76,128.54
			c0,33.376,12.959,63.724,34.113,86.296h-0.011c0,0,42.188,45.422,92.674,88.227v0.664c0.131-0.109,0.261-0.223,0.391-0.332
			c0.13,0.109,0.261,0.223,0.391,0.332v-0.664c50.474-42.813,91.448-88.9,91.448-88.9h-0.012
			C263.537,191.663,276.24,161.587,276.24,128.54z M151.094,274.563v0.551c-0.107-0.092-0.216-0.186-0.323-0.275
			c-0.11,0.09-0.216,0.184-0.326,0.275v-0.551c-41.947-35.566-77-73.307-77-73.307h0.01c-17.577-18.756-28.344-43.969-28.344-71.701
			c0-57.93,46.96-104.89,104.889-104.89c57.931,0,104.892,46.96,104.892,104.89c0,27.455-10.555,52.445-27.822,71.143h0.008
			C227.076,200.698,193.031,238.989,151.094,274.563z"/>
	</g>
	<path fill="#ECECEC" d="M214.525,68.218c8.488,8.655,14.781,18.437,18.885,29.347c4.1,10.911,6.027,22.147,5.781,33.707
		c-0.506,23.443-9.508,44.292-26.996,62.544l-60.778,59.598l-0.235-0.238c-4.398-4.488-6.553-9.84-6.461-16.064
		c0.092-6.221,2.402-11.781,6.924-16.691c-1.208,0.084-2.373,0.125-3.496,0.129c-11.564,0.02-22.76-2.131-33.583-6.445
		c-10.83-4.314-20.486-10.797-28.974-19.451c-8.566-8.734-14.9-18.561-18.999-29.469c-4.104-10.91-6.032-22.144-5.785-33.703
		c0.328-11.481,2.774-22.684,7.348-33.609c4.566-10.927,11.283-20.733,20.142-29.419c8.938-8.767,18.913-15.327,29.932-19.683
		c11.011-4.356,22.217-6.546,33.624-6.566c11.562-0.02,22.757,2.126,33.587,6.441C196.262,52.958,205.961,59.482,214.525,68.218z
		 M194.949,177.954l0.738-0.723c12.893-13.434,19.525-28.734,19.895-45.916c0.182-8.509-1.248-16.778-4.285-24.799
		c-3.041-8.021-7.666-15.198-13.873-21.528c-6.285-6.412-13.41-11.215-21.369-14.411c-7.961-3.198-16.161-4.748-24.593-4.648
		c-8.513,0.013-16.794,1.617-24.854,4.801c-8.06,3.188-15.368,7.995-21.93,14.429c-6.563,6.436-11.513,13.65-14.856,21.644
		c-3.343,7.998-5.107,16.245-5.29,24.759c-0.266,8.429,1.128,16.652,4.168,24.678c3.039,8.021,7.699,15.234,13.988,21.648
		c6.204,6.328,13.291,11.092,21.253,14.289c7.962,3.193,16.195,4.785,24.71,4.773C165.838,196.913,181.271,190.579,194.949,177.954z
		"/>
</g>
</svg>
