<?xml version="1.0" encoding="utf-8"?>
<!-- Generator: Adobe Illustrator 16.0.0, SVG Export Plug-In . SVG Version: 6.00 Build 0)  -->
<!DOCTYPE svg PUBLIC "-//W3C//DTD SVG 1.1//EN" "http://www.w3.org/Graphics/SVG/1.1/DTD/svg11.dtd">
<svg version="1.1" id="Layer_1" xmlns="http://www.w3.org/2000/svg" xmlns:xlink="http://www.w3.org/1999/xlink" x="0px" y="0px"
	 width="57.154px" height="76.678px" viewBox="16.123 12.229 57.154 76.678" enable-background="new 16.123 12.229 57.154 76.678"
	 xml:space="preserve">
<g>
	<g>
		<path fill="#37C1D3" d="M73.277,51.315L38.482,15.206l-0.129,0.126c-2.271-1.929-5.204-3.104-8.42-3.104
			c-7.184,0-13.009,5.826-13.009,13.006c0,4.05,1.846,7.66,4.744,10.042l32.857,34.1L73.277,51.315z"/>
		<path fill="#37C1D3" d="M55.208,32.557L19.1,67.346l0.129,0.132c-1.933,2.274-3.106,5.208-3.106,8.423
			c0,7.184,5.826,13.005,13.009,13.005c4.044,0,7.665-1.849,10.045-4.744l34.1-32.856L55.208,32.557z"/>
	</g>
</g>
</svg>
