<?xml version="1.0" encoding="utf-8"?>
<!-- Generator: Adobe Illustrator 15.1.0, SVG Export Plug-In . SVG Version: 6.00 Build 0)  -->
<!DOCTYPE svg PUBLIC "-//W3C//DTD SVG 1.1//EN" "http://www.w3.org/Graphics/SVG/1.1/DTD/svg11.dtd">
<svg version="1.1" id="Layer_1" xmlns="http://www.w3.org/2000/svg" xmlns:xlink="http://www.w3.org/1999/xlink" x="0px" y="0px"
	 width="117.5px" height="18.938px" viewBox="0 0 117.5 18.938" enable-background="new 0 0 117.5 18.938" xml:space="preserve">
<g>
	<g>
		<rect x="0.922" y="2.25" fill="#35BBC9" width="73.667" height="15"/>
		<rect x="76.422" y="2.25" fill="#221F1F" width="34.833" height="15"/>
		<g>
			<g enable-background="new    ">
				<path fill="#FFFFFF" d="M3.253,6.811c0.621-0.086,1.493-0.15,2.722-0.15c1.242,0,2.127,0.194,2.722,0.582
					c0.582,0.366,0.951,0.97,0.951,1.681s-0.277,1.325-0.819,1.724c-0.687,0.517-1.705,0.764-2.894,0.764
					c-0.264,0-0.502-0.01-0.687-0.043v2.607H3.253V6.811z M5.249,10.108c0.171,0.032,0.37,0.043,0.674,0.043
					c1.07,0,1.731-0.442,1.731-1.174c0-0.668-0.568-1.066-1.586-1.066c-0.396,0-0.674,0.021-0.819,0.054V10.108z"/>
				<path fill="#FFFFFF" d="M10.934,6.811c0.647-0.086,1.599-0.15,2.683-0.15c1.321,0,2.246,0.161,2.88,0.571
					c0.542,0.345,0.833,0.862,0.833,1.53c0,0.916-0.806,1.552-1.572,1.777v0.032c0.621,0.205,0.965,0.679,1.189,1.347
					c0.277,0.829,0.542,1.777,0.713,2.058h-2.062c-0.132-0.215-0.357-0.797-0.608-1.691c-0.251-0.916-0.634-1.152-1.467-1.164
					h-0.594v2.855h-1.996V6.811z M12.929,9.935h0.792c1.004,0,1.599-0.41,1.599-1.045c0-0.657-0.555-1.001-1.48-1.001
					c-0.489,0-0.767,0.021-0.912,0.054V9.935z"/>
				<path fill="#FFFFFF" d="M26.873,10.269c0,2.392-1.758,3.825-4.374,3.825c-2.629,0-4.189-1.627-4.189-3.707
					c0-2.175,1.718-3.802,4.334-3.802C25.38,6.585,26.873,8.255,26.873,10.269z M20.438,10.356c0,1.432,0.819,2.434,2.167,2.434
					c1.361,0,2.141-1.055,2.141-2.467c0-1.314-0.753-2.434-2.141-2.434C21.23,7.888,20.438,8.944,20.438,10.356z"/>
				<path fill="#FFFFFF" d="M29.559,8.093h-2.405V6.714h6.845v1.379h-2.431v5.882h-2.009V8.093z"/>
				<path fill="#FFFFFF" d="M40.371,10.905h-3.277v1.724h3.66v1.347h-5.669V6.714h5.484v1.347h-3.475v1.508h3.277V10.905z"/>
				<path fill="#FFFFFF" d="M48.66,13.781c-0.357,0.14-1.203,0.313-2.273,0.313c-3.079,0-4.665-1.573-4.665-3.642
					c0-2.478,2.167-3.846,4.863-3.846c1.044,0,1.837,0.162,2.194,0.323l-0.423,1.293c-0.396-0.14-0.965-0.27-1.691-0.27
					c-1.586,0-2.828,0.787-2.828,2.403c0,1.453,1.057,2.369,2.841,2.369c0.621,0,1.282-0.097,1.691-0.236L48.66,13.781z"/>
				<path fill="#FFFFFF" d="M51.913,8.093h-2.405V6.714h6.845v1.379h-2.431v5.882h-2.009V8.093z"/>
				<path fill="#FFFFFF" d="M62.726,10.905h-3.276v1.724h3.66v1.347H57.44V6.714h5.484v1.347h-3.475v1.508h3.276V10.905z"/>
				<path fill="#FFFFFF" d="M64.486,6.822c0.74-0.097,1.704-0.161,2.709-0.161c1.704,0,2.814,0.258,3.66,0.775
					c0.925,0.56,1.506,1.454,1.506,2.736c0,1.39-0.621,2.349-1.467,2.941c-0.938,0.635-2.378,0.937-4.122,0.937
					c-1.044,0-1.798-0.054-2.286-0.107V6.822z M66.495,12.737c0.171,0.031,0.462,0.031,0.7,0.031
					c1.837,0.012,3.039-0.808,3.039-2.542c0-1.508-1.084-2.305-2.828-2.305c-0.436,0-0.74,0.032-0.911,0.064V12.737z"/>
			</g>
		</g>
		<g>
			<g enable-background="new    ">
				<path fill="#FFFFFF" d="M78.346,6.703c0.642-0.098,1.478-0.164,2.349-0.164c1.479,0,2.441,0.262,3.175,0.787
					c0.802,0.568,1.306,1.475,1.306,2.775c0,1.409-0.538,2.382-1.271,2.982c-0.813,0.645-2.063,0.95-3.575,0.95
					c-0.905,0-1.559-0.055-1.982-0.109V6.703z M80.087,12.701c0.149,0.032,0.401,0.032,0.607,0.032
					c1.593,0.011,2.636-0.819,2.636-2.578c0-1.53-0.939-2.338-2.452-2.338c-0.378,0-0.642,0.033-0.791,0.066V12.701z"/>
				<path fill="#FFFFFF" d="M92.856,11.139c-0.034-0.885-0.068-1.956-0.068-3.027h-0.023c-0.252,0.94-0.572,1.989-0.87,2.851
					l-0.94,2.874h-1.363l-0.825-2.841c-0.252-0.874-0.504-1.923-0.699-2.884h-0.022c-0.034,0.995-0.08,2.13-0.126,3.048
					l-0.149,2.797h-1.615l0.492-7.364h2.326l0.757,2.458c0.252,0.852,0.481,1.77,0.653,2.633h0.046
					c0.206-0.853,0.47-1.825,0.733-2.644l0.813-2.447h2.292l0.412,7.364h-1.696L92.856,11.139z"/>
				<path fill="#FFFFFF" d="M101.686,13.76c-0.31,0.143-1.043,0.317-1.971,0.317c-2.67,0-4.046-1.595-4.046-3.692
					c0-2.513,1.88-3.9,4.218-3.9c0.905,0,1.593,0.164,1.902,0.328l-0.367,1.311c-0.344-0.142-0.837-0.273-1.467-0.273
					c-1.375,0-2.452,0.798-2.452,2.437c0,1.476,0.917,2.403,2.464,2.403c0.538,0,1.111-0.098,1.467-0.24L101.686,13.76z"/>
				<path fill="#FFFFFF" d="M104.76,12.067l-0.55,1.891h-1.8l2.35-7.364h2.292l2.406,7.364h-1.891l-0.596-1.891H104.76z
					 M106.72,10.822l-0.481-1.562c-0.138-0.437-0.275-0.983-0.39-1.42h-0.023c-0.114,0.437-0.229,0.994-0.354,1.42l-0.459,1.562
					H106.72z"/>
			</g>
		</g>
	</g>
	<g>
		<g enable-background="new    ">
			<path fill="#9BCB5A" d="M115.289,16.92c-0.368,0-0.623-0.248-0.623-0.603c0-0.349,0.248-0.589,0.623-0.597
				c0.355,0,0.616,0.242,0.616,0.61C115.905,16.672,115.645,16.92,115.289,16.92z"/>
			<path fill="#9BCB5A" d="M115.745,12.649c0.087,0.181,0.154,0.521,0.154,0.91c0,1.059-0.65,1.735-1.675,1.735
				c-0.958,0-1.742-0.656-1.742-1.876c0-0.268,0.047-0.563,0.128-0.776l0.757,0.161c-0.054,0.12-0.101,0.301-0.101,0.568
				c0,0.537,0.382,0.885,0.918,0.878c0.596,0,0.917-0.401,0.917-0.897c0-0.241-0.04-0.429-0.106-0.583L115.745,12.649z"/>
			<path fill="#9BCB5A" d="M114.157,8.926c1.199,0,1.748,0.851,1.748,1.729c0,0.957-0.629,1.694-1.688,1.694
				c-1.065,0-1.742-0.696-1.742-1.755C112.476,9.596,113.166,8.926,114.157,8.926z M114.19,11.297c0.563,0,0.985-0.234,0.985-0.67
				c0-0.402-0.396-0.649-0.991-0.649c-0.482,0-0.979,0.188-0.979,0.649C113.206,11.11,113.709,11.297,114.19,11.297z"/>
			<path fill="#9BCB5A" d="M113.602,8.299c-0.409,0-0.75,0.014-1.045,0.027V7.462l0.441-0.04v-0.02
				c-0.214-0.141-0.522-0.435-0.522-0.991c0-0.429,0.222-0.757,0.563-0.897V5.499c-0.175-0.127-0.309-0.268-0.402-0.429
				c-0.101-0.181-0.161-0.382-0.161-0.623c0-0.629,0.442-1.104,1.427-1.104h1.93v0.991h-1.782c-0.476,0-0.75,0.154-0.75,0.482
				c0,0.241,0.161,0.401,0.355,0.476c0.073,0.02,0.174,0.033,0.261,0.033h1.916v0.991h-1.842c-0.409,0-0.69,0.147-0.69,0.476
				c0,0.262,0.201,0.415,0.362,0.475c0.08,0.034,0.174,0.041,0.261,0.041h1.909v0.991H113.602z"/>
		</g>
	</g>
</g>
</svg>
