<?xml version="1.0" encoding="utf-8"?>
<!-- Generator: Adobe Illustrator 15.1.0, SVG Export Plug-In . SVG Version: 6.00 Build 0)  -->
<!DOCTYPE svg PUBLIC "-//W3C//DTD SVG 1.1//EN" "http://www.w3.org/Graphics/SVG/1.1/DTD/svg11.dtd">
<svg version="1.1" id="Layer_1" xmlns="http://www.w3.org/2000/svg" xmlns:xlink="http://www.w3.org/1999/xlink" x="0px" y="0px"
	 width="124.625px" height="99.875px" viewBox="0 0 124.625 99.875" enable-background="new 0 0 124.625 99.875"
	 xml:space="preserve">
<g>
	<polygon fill="#F6A822" points="123.938,65.364 0.688,65.364 10.224,52.26 0.688,39.155 123.938,39.155 114.401,52.26 	"/>
	<polygon fill="#48C0C1" points="108.222,53.85 112.593,49.938 108.222,46.027 111.849,41.414 106.863,38.32 109.634,33.152 
		104.188,30.97 106.017,25.396 100.277,24.196 101.11,18.389 95.247,18.201 95.06,12.338 89.255,13.174 88.052,7.431 82.479,9.263 
		80.297,3.814 75.128,6.585 72.033,1.602 67.421,5.227 63.509,0.855 59.599,5.227 54.987,1.602 51.894,6.586 46.724,3.814 
		44.542,9.263 38.969,7.433 37.767,13.174 31.961,12.339 31.774,18.203 25.911,18.391 26.745,24.196 21.005,25.398 22.834,30.97 
		17.389,33.152 20.158,38.321 15.174,41.414 18.801,46.027 14.429,49.938 18.801,53.85 15.174,58.462 20.158,61.555 17.388,66.725 
		22.834,68.906 21.004,74.479 26.745,75.68 25.911,81.486 31.774,81.675 31.961,87.536 37.768,86.703 38.969,92.444 44.543,90.615 
		46.723,96.061 51.895,93.291 54.987,98.274 59.599,94.65 63.509,99.02 67.421,94.65 72.033,98.274 75.126,93.291 80.297,96.061 
		82.478,90.615 88.052,92.444 89.254,86.703 95.06,87.538 95.247,81.675 101.11,81.489 100.276,75.68 106.017,74.479 
		104.188,68.906 109.634,66.728 106.863,61.555 111.849,58.462 	"/>
	<path fill="#FFFFFF" d="M101.513,50.482c0,21.177-17.171,38.346-38.349,38.346S24.817,71.659,24.817,50.482
		c0-21.179,17.169-38.349,38.347-38.349S101.513,29.304,101.513,50.482"/>
	<polygon fill="#F7B84E" points="33.721,45.74 35.874,50.106 40.691,50.806 37.205,54.204 38.029,59.004 33.721,56.737 
		29.41,59.004 30.233,54.204 26.748,50.806 31.564,50.106 	"/>
	<polygon fill="#F6A822" points="30.268,50.295 26.748,50.806 30.233,54.204 29.41,59.004 33.721,56.737 38.028,59.004 
		37.834,57.861 	"/>
	<polygon fill="#F7B84E" points="92.043,46.31 94.196,50.676 99.015,51.373 95.53,54.773 96.353,59.572 92.043,57.307 
		87.733,59.572 88.557,54.773 85.07,51.373 89.889,50.676 	"/>
	<polygon fill="#F6A822" points="88.59,50.864 85.07,51.373 88.557,54.773 87.733,59.572 92.043,57.307 96.353,59.572 96.156,58.43 
			"/>
	<path fill="#0B4D80" d="M82.497,50.482c0-10.678-8.656-19.333-19.333-19.333c-7.704,0-14.336,4.517-17.442,11.038l-0.016-0.016
		c-0.05,0.107-0.086,0.223-0.135,0.329c-0.172,0.379-0.328,0.765-0.477,1.157c-0.091,0.24-0.184,0.479-0.265,0.723
		c-0.135,0.406-0.248,0.819-0.355,1.236c-0.063,0.244-0.135,0.483-0.188,0.73c-0.099,0.454-0.17,0.921-0.236,1.387
		c-0.031,0.218-0.075,0.431-0.099,0.65c-0.075,0.689-0.119,1.387-0.119,2.098c0,10.676,8.656,19.331,19.332,19.331
		c0.713,0,1.415-0.044,2.107-0.12c0.198-0.021,0.39-0.063,0.586-0.089c0.488-0.069,0.975-0.144,1.45-0.248
		c0.236-0.051,0.466-0.12,0.699-0.18c0.426-0.108,0.848-0.225,1.261-0.361c0.243-0.081,0.48-0.174,0.72-0.264
		c0.39-0.148,0.775-0.304,1.152-0.475c0.109-0.05,0.226-0.086,0.334-0.137l-0.016-0.016C77.979,64.817,82.497,58.186,82.497,50.482z
		"/>
	<g>
		<g>
			<path fill="#007196" d="M47.586,73.117l-1.534-0.813c-0.11-0.059-0.143-0.191-0.09-0.291l0.436-0.822
				c0.053-0.101,0.181-0.148,0.291-0.09l4.381,2.32c0.11,0.059,0.143,0.191,0.09,0.292l-0.436,0.821
				c-0.053,0.101-0.181,0.148-0.291,0.09l-1.534-0.813l-2.979,5.624c-0.053,0.101-0.191,0.143-0.292,0.09l-0.932-0.494
				c-0.101-0.053-0.143-0.19-0.09-0.291L47.586,73.117z"/>
			<path fill="#007196" d="M56.128,74.94c2.204,0.55,3.524,2.763,2.975,4.966c-0.549,2.204-2.749,3.516-4.952,2.967
				c-2.203-0.55-3.518-2.738-2.969-4.941C51.731,75.729,53.925,74.392,56.128,74.94z M54.508,81.44
				c1.389,0.347,2.817-0.503,3.163-1.891c0.346-1.389-0.511-2.831-1.899-3.177s-2.812,0.527-3.157,1.916
				C52.268,79.677,53.12,81.095,54.508,81.44z"/>
			<path fill="#007196" d="M61.778,76.25c-0.007-0.113,0.089-0.221,0.203-0.228l1.077-0.064c0.124-0.007,0.222,0.09,0.228,0.203
				l0.275,4.637c0.057,0.964,0.76,1.685,1.746,1.626s1.609-0.857,1.554-1.81l-0.275-4.648c-0.007-0.113,0.077-0.221,0.202-0.229
				l1.077-0.063c0.113-0.007,0.222,0.089,0.229,0.202l0.279,4.717c0.102,1.724-1.188,3.199-2.979,3.305
				c-1.78,0.105-3.234-1.208-3.336-2.931L61.778,76.25z"/>
			<path fill="#007196" d="M70.43,75.385c-0.037-0.107,0.015-0.233,0.133-0.274l3.063-1.069c1.285-0.448,2.694,0.213,3.139,1.488
				c0.344,0.985-0.028,2.017-0.83,2.717l2.417,2.209c0.124,0.112,0.108,0.311-0.073,0.374l-1.125,0.393
				c-0.097,0.033-0.169-0.002-0.205-0.037l-2.415-2.341l-1.189,0.415l0.953,2.731c0.038,0.106-0.025,0.236-0.132,0.274l-0.985,0.344
				c-0.118,0.041-0.237-0.025-0.275-0.133L70.43,75.385z M74.701,77.499c0.567-0.198,0.888-0.862,0.679-1.463
				c-0.198-0.567-0.855-0.867-1.423-0.669l-1.746,0.609l0.744,2.132L74.701,77.499z"/>
			<path fill="#007196" d="M81.176,78.083l-0.054-0.812c-0.013-0.183,0.147-0.29,0.276-0.281c0.066-0.004,1.202,0.039,1.814-0.373
				c0.489-0.329,0.641-0.896,0.369-1.301c-0.323-0.48-0.95-0.537-1.956-0.325c-1.126,0.237-2.391,0.268-3.138-0.844
				c-0.563-0.838-0.595-2.226,0.902-3.232c0.961-0.646,2.023-0.649,2.308-0.636c0.132-0.007,0.268,0.135,0.265,0.273l0.004,0.777
				c0,0.163-0.09,0.334-0.254,0.334c-0.107,0.004-1.139,0.015-1.656,0.362c-0.537,0.361-0.588,0.915-0.386,1.217
				c0.298,0.442,0.849,0.509,1.82,0.307c1.16-0.247,2.582-0.41,3.398,0.805c0.652,0.97,0.416,2.428-0.911,3.32
				c-1.187,0.798-2.257,0.711-2.565,0.659C81.271,78.306,81.192,78.291,81.176,78.083z"/>
		</g>
	</g>
	<g>
		<g>
			<path fill="#007196" d="M30.718,36.141l-0.81,1.407c-0.062,0.108-0.196,0.136-0.294,0.079l-1.073-0.617
				c-0.098-0.057-0.142-0.187-0.08-0.294l2.514-4.37c0.063-0.108,0.196-0.136,0.294-0.08l1.073,0.617
				c0.099,0.057,0.142,0.186,0.08,0.294l-0.81,1.407l5.255,3.023c0.099,0.057,0.136,0.196,0.08,0.294l-0.679,1.182
				c-0.057,0.099-0.196,0.136-0.295,0.079L30.718,36.141z"/>
			<path fill="#007196" d="M35.531,26.928c1.642-1.568,4.218-1.501,5.787,0.14c1.568,1.642,1.502,4.202-0.14,5.771
				c-1.642,1.568-4.194,1.51-5.763-0.132C33.846,31.065,33.889,28.497,35.531,26.928z M39.923,31.525
				c0.903-0.863,0.936-2.308,0.081-3.203c-0.863-0.903-2.315-0.944-3.218-0.082c-0.895,0.855-0.92,2.308-0.057,3.211
				C37.583,32.347,39.028,32.38,39.923,31.525z"/>
			<path fill="#007196" d="M41.941,22.43c-0.05-0.102-0.013-0.233,0.099-0.288l2.457-1.203c1.253-0.614,2.782-0.099,3.386,1.135
				c0.619,1.264,0.093,2.797-1.15,3.406l-1.07,0.524l1.173,2.395c0.05,0.102,0.003,0.239-0.099,0.289l-1.203,0.589
				c-0.112,0.055-0.238,0.003-0.289-0.099L41.941,22.43z M45.902,24.042c0.438-0.214,0.635-0.741,0.411-1.199
				c-0.209-0.428-0.736-0.575-1.174-0.36l-0.968,0.474l0.763,1.56L45.902,24.042z"/>
			<path fill="#007196" d="M54.15,20.622l-1.075,0.18c-0.112,0.019-0.219-0.067-0.237-0.179l-0.118-0.706
				c-0.008-0.044,0.011-0.14,0.039-0.179l1.421-1.551l1.03-0.172c0.112-0.019,0.219,0.067,0.237,0.179l1.205,7.19
				c0.019,0.112-0.054,0.228-0.166,0.247l-1.243,0.208c-0.123,0.021-0.229-0.065-0.248-0.177L54.15,20.622z"/>
			<path fill="#007196" d="M58.475,21.454c-0.033-2.486,1.002-3.988,2.853-4.013s2.927,1.448,2.96,3.935
				c0.033,2.486-1.002,3.987-2.853,4.012C59.584,25.413,58.508,23.94,58.475,21.454z M62.459,21.4
				c-0.02-1.487-0.417-2.322-1.109-2.313s-1.067,0.854-1.047,2.342c0.02,1.499,0.417,2.322,1.11,2.313S62.479,22.899,62.459,21.4z"
				/>
			<path fill="#007196" d="M71.145,18.379c0.032-0.109,0.147-0.182,0.268-0.147l2.542,0.736c1.288,0.373,2.09,1.563,1.759,2.708
				c-0.244,0.84-1.174,1.233-1.766,1.357c0.51,0.408,1.238,1.198,0.947,2.202c-0.354,1.222-1.689,1.793-2.987,1.417l-2.706-0.783
				c-0.12-0.035-0.179-0.158-0.147-0.267L71.145,18.379z M72.141,25.029c0.426,0.123,0.887-0.122,1.016-0.569
				c0.127-0.437-0.248-0.9-0.674-1.023L71.6,23.181l-0.452,1.56L72.141,25.029z M72.861,22.009c0.414,0.12,0.864-0.128,0.99-0.564
				c0.127-0.437-0.134-0.843-0.549-0.963l-0.851-0.247l-0.442,1.527L72.861,22.009z"/>
			<path fill="#007196" d="M79.685,21.423c0.06-0.097,0.19-0.136,0.297-0.07l3.999,2.47c0.105,0.065,0.129,0.2,0.07,0.297
				l-0.65,1.053c-0.061,0.097-0.191,0.136-0.297,0.07l-2.676-1.653l-0.74,1.198l2.202,1.36c0.097,0.06,0.13,0.2,0.07,0.297
				l-0.65,1.053c-0.065,0.106-0.2,0.13-0.297,0.07l-2.202-1.36l-0.806,1.304l2.676,1.653c0.106,0.065,0.13,0.2,0.07,0.297
				l-0.65,1.053c-0.06,0.097-0.19,0.136-0.297,0.07l-3.999-2.47c-0.105-0.065-0.13-0.2-0.07-0.297L79.685,21.423z"/>
			<path fill="#007196" d="M81.611,30.698l1.055-0.242c0.171-0.033,0.299,0.142,0.311,0.239c0.015,0.049,0.122,1.058,0.627,1.611
				c0.307,0.335,0.738,0.387,1.031,0.119c0.353-0.322,0.353-0.86,0.058-1.637c-0.374-0.98-0.64-2.398,0.365-3.318
				c0.829-0.758,2.257-0.879,3.437,0.411c0.797,0.872,0.965,1.948,1.011,2.367c0.033,0.154-0.133,0.275-0.222,0.295l-1.036,0.163
				c-0.146,0.026-0.358-0.056-0.369-0.185c-0.027-0.114-0.126-1.146-0.593-1.658c-0.275-0.301-0.684-0.344-0.91-0.137
				c-0.31,0.283-0.314,0.749,0.022,1.656c0.338,0.891,0.776,2.397-0.362,3.439c-0.863,0.789-2.416,0.84-3.542-0.392
				c-0.995-1.089-1.095-2.106-1.078-2.475C81.422,30.794,81.433,30.738,81.611,30.698z"/>
			<path fill="#007196" d="M91.16,34.496l-0.781-1.422c-0.06-0.109-0.014-0.238,0.086-0.293l1.084-0.595
				c0.1-0.055,0.232-0.024,0.293,0.085l2.426,4.417c0.06,0.109,0.014,0.238-0.086,0.293l-1.084,0.595
				c-0.1,0.055-0.232,0.024-0.293-0.085l-0.781-1.423l-5.313,2.917c-0.1,0.055-0.238,0.015-0.293-0.085l-0.655-1.193
				c-0.055-0.1-0.015-0.238,0.085-0.293L91.16,34.496z"/>
		</g>
	</g>
	<circle fill="none" stroke="#FFFFFF" stroke-miterlimit="10" stroke-dasharray="1,2" cx="62.879" cy="51.125" r="42.121"/>
	<g>
		<g>
			<path fill="#48C0C1" d="M108.265,66.437c0.854,0,2.004-1.297,0.697-1.297C108.108,65.14,106.958,66.437,108.265,66.437
				L108.265,66.437z"/>
		</g>
	</g>
	<g>
		<g>
			<path fill="#48C0C1" d="M108.614,66.467c1.083,0,1.501-1.357,0.188-1.357C107.719,65.109,107.301,66.467,108.614,66.467
				L108.614,66.467z"/>
		</g>
	</g>
	<g>
		<path fill="#FFFFFF" stroke="#1B75BB" stroke-width="0.5" stroke-miterlimit="10" d="M63.183,60.882l-0.728-0.059
			c-2.9-0.228-5.226-1.454-6.91-3.643c-3.713-4.816-2.986-12.583-2.953-12.913l0.085-0.838l0.771,0.125
			c10.963,1.758,9.822,16.392,9.81,16.537L63.183,60.882z"/>
		<path fill="#FFFFFF" stroke="#1B75BB" stroke-width="0.5" stroke-miterlimit="10" d="M57.468,61.962h-0.002
			C48.958,61.96,45.646,50.98,45.616,50.87l-0.184-0.626l0.532-0.323c0.745-0.454,1.572-0.687,2.456-0.687
			c1.863,0,3.334,1.015,3.395,1.059l0.275,0.191l0.06,0.35c1.387,8.393,6.651,9.366,6.875,9.404l5.252,0.821l-5.262,0.786
			C58.499,61.923,57.979,61.962,57.468,61.962z"/>
		<path fill="#FFFFFF" stroke="#1B75BB" stroke-width="0.5" stroke-miterlimit="10" d="M63.074,50.581l-0.237-0.667
			c-0.281-0.788-1.125-2.789-2.888-4.35l-0.148-0.135l0.076-0.193c0.346-0.874,1.318-3.059,2.879-4.456l0.16-0.142l0.163,0.139
			c0.715,0.604,2.431,2.252,2.918,4.475l0.031,0.143l-0.096,0.108c-0.071,0.085-1.76,2.056-2.616,4.411L63.074,50.581z"/>
		<path fill="#FFFFFF" stroke="#1B75BB" stroke-width="0.5" stroke-miterlimit="10" d="M63.265,60.979l-0.12-0.788
			c-0.021-0.147-2.02-14.647,9.167-17.299l0.767-0.181l0.134,0.838c0.051,0.316,1.221,7.834-2.231,12.979
			c-1.611,2.403-3.961,3.862-6.985,4.335L63.265,60.979z"/>
		<path fill="#FFFFFF" stroke="#1B75BB" stroke-width="0.5" stroke-miterlimit="10" d="M68.65,61.954
			c-0.468,0-0.95-0.03-1.429-0.093l-4.452-0.854l4.424-0.754c0.23-0.04,5.661-1.063,6.987-9.517l0.054-0.354l0.281-0.193
			c0.065-0.049,1.622-1.105,3.552-1.105c0.874,0,1.695,0.217,2.44,0.64l0.553,0.315l-0.186,0.645
			C80.841,50.796,77.555,61.954,68.65,61.954z"/>
	</g>
</g>
</svg>
