<?xml version="1.0" encoding="utf-8"?>
<!-- Generator: Adobe Illustrator 16.0.0, SVG Export Plug-In . SVG Version: 6.00 Build 0)  -->
<!DOCTYPE svg PUBLIC "-//W3C//DTD SVG 1.1//EN" "http://www.w3.org/Graphics/SVG/1.1/DTD/svg11.dtd">
<svg version="1.1" id="Layer_1" xmlns="http://www.w3.org/2000/svg" xmlns:xlink="http://www.w3.org/1999/xlink" x="0px" y="0px"
	 width="69.443px" height="69.447px" viewBox="0 0 69.443 69.447" enable-background="new 0 0 69.443 69.447" xml:space="preserve">
<path fill="#FFFFFF" d="M34.722,69.328c-19.081,0-34.604-15.523-34.604-34.604S15.641,0.12,34.722,0.12
	c19.08,0,34.604,15.523,34.604,34.604S53.802,69.328,34.722,69.328z M34.722,1.12c-18.53,0-33.604,15.075-33.604,33.604
	c0,18.53,15.075,33.604,33.604,33.604c18.529,0,33.604-15.074,33.604-33.604C68.326,16.195,53.252,1.12,34.722,1.12z"/>
<g>
	<circle fill="#FFFFFF" cx="28.803" cy="16.189" r="3.34"/>
	<circle fill="#FFFFFF" cx="42.247" cy="16.232" r="3.295"/>
	<g>
		<path fill="#FFFFFF" d="M50.288,24.339c-0.221-3.053-2.967-2.833-2.967-2.833s-5.977-0.066-9.117,0.043
			c-3.141,0.109-3.292,0.878-3.732,1.691c-0.396-1.669-1.804-1.734-1.804-1.734s-6.393-0.243-8.721,0
			c-2.328,0.242-2.593,3.844-2.593,3.844s-1.538,7.228-1.801,8.482c-0.267,1.254-0.97,2.94,0,3.093
			c0.967,0.153,1.339-1.098,1.339-1.098s1.869-5.339,2.46-7.25c0.594-1.911,1.187-0.855,1.187-0.855L20.893,41.54h3.427
			c0,0,0.074,13.254,0.06,13.592c-0.015,0.336,0.411,1.069,3.69,1.289c3.281,0.219,4.115-0.98,4.115-0.98l-0.087-8.129l-2.153-0.06
			c0,0,1.669-6.078,1.817-6.769c0.146-0.688,0.629-1.64,0.247-1.978c-0.382-0.335-1.641,4.16-1.803,4.716
			c-0.16,0.557-0.453,1.305-1.082,1.229c-0.63-0.072-0.22-1.375-0.22-1.421c0-0.045,0.921-3.514,1.537-6.016
			c0.616-2.5,1.523-2.022,1.523-2.022s3.28-0.06,4.817,0c1.539,0.058,1.566,0.54,1.566,0.54s2.053,7.354,2.168,8.496
			c-1.056,1.082-1.261-0.528-1.261-0.528s-0.674-2.313-1.11-3.776c-0.441-1.466-0.97-0.88-1.056-0.729
			c-0.09,0.152,2.371,8.372,2.371,8.372l-2.021,0.118c0,0,0.029,7.496,0.088,7.85c0.059,0.352,0.996,1.171,4.158,1.259
			c4.629,0.06,4.717-1.317,4.717-1.317s0.08-24.918,0.037-27.271c0.68-1.34,1.317,0.021,1.317,0.021s-0.047,7.977-0.047,8.4
			c0,0.424,0.269,1.574,1.32,1.551c1.053-0.021,1.252-1.217,1.252-1.217S50.507,27.394,50.288,24.339z M34.408,33.646
			c-1.604,0-2.904-1.301-2.904-2.904c0-1.603,1.302-2.904,2.904-2.904c1.605,0,2.904,1.301,2.904,2.904
			C37.312,32.345,36.011,33.646,34.408,33.646z"/>
	</g>
</g>
</svg>
