<?xml version="1.0" encoding="utf-8"?>
<!-- Generator: Adobe Illustrator 16.0.0, SVG Export Plug-In . SVG Version: 6.00 Build 0)  -->
<!DOCTYPE svg PUBLIC "-//W3C//DTD SVG 1.1//EN" "http://www.w3.org/Graphics/SVG/1.1/DTD/svg11.dtd">
<svg version="1.1" id="Layer_1" xmlns="http://www.w3.org/2000/svg" xmlns:xlink="http://www.w3.org/1999/xlink" x="0px" y="0px"
	 width="58.181px" height="39.996px" viewBox="0 0 58.181 39.996" enable-background="new 0 0 58.181 39.996" xml:space="preserve">
<g>
	<g>
		<path fill="#D0B42C" d="M25.083,23.08c0,0,28.468-16.434,29.076-22.571c2.164,0.719,6.583,2.858,2.061,6.552
			c-4.522,3.694-10.251,6.199-10.931,14.727c-0.68,8.528-1.495,17.223-2.679,18.176c-1.184,0.953-6.936-19.175-6.936-19.175
			S33.106,19.245,25.083,23.08z"/>
		<path fill="#D1D2D1" d="M25.775,24.859c0,0-8.592-3.088-11.965-0.821c3.197,2.623,9.035,9.486,9.263,12.425
			c1.443-2.258,2.347-2.172,3.277-11.495"/>
		<path fill="none" stroke="#000000" stroke-miterlimit="10" d="M21.449,28.2c0,0,0.347,3.602-0.334,5.882
			c-0.683,2.279-1.699,1.627-1.699,1.627s-3.319-9.283-8.426-11.681c-1.445-0.863,0.706-1.674,3.819-1.175s9.489,1.792,10.664,1.939
			c1.175,0.146,4.906-1.646,5.923-2.462c1.016-0.817,3.396-0.317,3.566,1.315s2.473,16.146,4.676,15.776
			c2.205-0.37,2.116-19.35,3.432-22.916s5.917-6.469,8.449-8.278c2.532-1.809,5.711-4.236,4.5-7.126
			c-1.897-1.682-7.109,0.175-14.454,5.316c-4.683,2.62-9.694,0.44-15.318-1.315C20.626,3.347,14.247,2.12,14.169,3.441
			c-0.077,1.321,11.634,8.524,12.685,9.717c1.052,1.193,2.621,2.479-3.402,6.593"/>
	</g>
	<line fill="none" stroke="#000000" stroke-miterlimit="10" x1="10.53" y1="28.438" x2="0.247" y2="34.278"/>
	<line fill="none" stroke="#000000" stroke-miterlimit="10" x1="14.198" y1="29.181" x2="7.764" y2="33.067"/>
	<line fill="none" stroke="#000000" stroke-miterlimit="10" x1="12.753" y1="33.997" x2="6.32" y2="37.884"/>
</g>
</svg>
