<?xml version="1.0" encoding="utf-8"?>
<!-- Generator: Adobe Illustrator 16.0.0, SVG Export Plug-In . SVG Version: 6.00 Build 0)  -->
<!DOCTYPE svg PUBLIC "-//W3C//DTD SVG 1.1//EN" "http://www.w3.org/Graphics/SVG/1.1/DTD/svg11.dtd">
<svg version="1.1" id="Layer_1" xmlns="http://www.w3.org/2000/svg" xmlns:xlink="http://www.w3.org/1999/xlink" x="0px" y="0px"
	 width="300px" height="306.029px" viewBox="936.821 314.184 300 306.029" enable-background="new 936.821 314.184 300 306.029"
	 xml:space="preserve">
<path fill="#ECECEC" d="M1086.963,314.184c20.631,0,40.02,3.993,58.168,11.971c18.145,7.986,34.1,18.984,47.852,32.997
	c27.886,28.427,42.499,64.061,43.838,106.881v144.258h-0.572c-10.699,0-19.77-3.747-27.221-11.244
	c-7.449-7.494-11.462-16.887-12.036-28.181c-1.337,1.559-2.677,3.021-4.011,4.383c-13.755,14.013-29.707,25.011-47.851,32.991
	c-18.153,7.983-37.538,11.974-58.169,11.974c-20.821,0-40.305-3.99-58.453-11.974c-18.149-7.98-34.099-18.979-47.851-32.991
	c-13.564-14.024-24.259-30.272-32.092-48.771c-7.833-18.492-11.745-38.25-11.745-59.276c0-21.22,3.912-41.074,11.746-59.575
	c7.832-18.492,18.527-34.649,32.092-48.478c13.756-14.013,29.703-25.011,47.852-32.997
	C1046.658,318.177,1066.141,314.184,1086.963,314.184z M1196.997,468.081v-1.755c-0.959-31.538-11.656-57.718-32.092-78.554
	c-10.13-10.313-21.879-18.398-35.243-24.237c-13.376-5.836-27.609-8.76-42.697-8.76c-15.284,0-29.61,2.918-42.979,8.76
	c-13.372,5.836-25.026,13.919-34.958,24.237c-10.127,10.318-18.052,22.242-23.783,35.774c-5.73,13.532-8.596,28.081-8.596,43.655
	c0,15.58,2.865,30.129,8.596,43.658c5.73,13.535,13.652,25.456,23.783,35.777c9.932,10.318,21.586,18.393,34.958,24.231
	c13.368,5.842,27.692,8.766,42.979,8.766c15.093,0,29.323-2.921,42.697-8.766c13.364-5.839,25.113-13.916,35.243-24.231
	C1185.342,525.801,1196.04,499.613,1196.997,468.081z"/>
</svg>
