<?xml version="1.0" encoding="utf-8"?>
<!-- Generator: Adobe Illustrator 16.0.0, SVG Export Plug-In . SVG Version: 6.00 Build 0)  -->
<!DOCTYPE svg PUBLIC "-//W3C//DTD SVG 1.1//EN" "http://www.w3.org/Graphics/SVG/1.1/DTD/svg11.dtd">
<svg version="1.1" id="Layer_1" xmlns="http://www.w3.org/2000/svg" xmlns:xlink="http://www.w3.org/1999/xlink" x="0px" y="0px"
	 width="51.838px" height="52.138px" viewBox="0 0 51.838 52.138" enable-background="new 0 0 51.838 52.138" xml:space="preserve">
<g>
	<path fill="#D1D2D1" d="M31.181,0.016C32.386,0.051,12.549,1.39,7.299,19.404c-4.029,13.824,9.125,38.985,38.5,24.495
		c0,0-20.562,16.019-37.781-3.537C-3.535,28.973,3.897-0.775,31.181,0.016z"/>
	<path d="M25.919,52.138C11.627,52.138,0,40.511,0,26.219S11.627,0.3,25.919,0.3s25.919,11.627,25.919,25.919
		S40.211,52.138,25.919,52.138z M25.919,1.3C12.179,1.3,1,12.479,1,26.219s11.179,24.919,24.919,24.919s24.919-11.179,24.919-24.919
		S39.659,1.3,25.919,1.3z"/>
	<g>
		<path d="M9.843,26.075c0-3.997,1.421-7.667,3.784-10.534c-0.209-0.279-0.386-0.586-0.51-0.926
			c-2.656,3.082-4.274,7.082-4.274,11.46c0,6.264,3.301,11.759,8.245,14.876c0.045-0.355,0.122-0.697,0.242-1.022
			C12.826,36.959,9.843,31.862,9.843,26.075z"/>
		<path d="M44.022,26.075c0-9.699-7.891-17.59-17.59-17.59c-2.986,0-5.797,0.753-8.263,2.071c0.261,0.224,0.499,0.479,0.687,0.777
			c2.274-1.174,4.846-1.849,7.577-1.849c9.147,0,16.59,7.442,16.59,16.59c0,6.014-3.227,11.273-8.03,14.184
			c0.093,0.328,0.157,0.669,0.157,1.029c0,0.016-0.004,0.031-0.004,0.047C40.44,38.3,44.022,32.604,44.022,26.075z"/>
		<path d="M26.433,42.665c-0.22,0-0.434-0.024-0.652-0.033c-0.082,0.347-0.206,0.672-0.359,0.982
			c0.336,0.019,0.669,0.051,1.011,0.051c0.973,0,1.921-0.1,2.851-0.253c-0.198-0.283-0.355-0.598-0.468-0.938
			C28.036,42.587,27.244,42.665,26.433,42.665z"/>
	</g>
	<g>
		<g>
			<path fill="#D0B42C" d="M18.509,12.491v8.516l3.219,3.73c0,0-0.814,15.647-0.873,15.942c-0.06,0.295-0.031,2.546,2.113,2.84
				s2.204-2.545,2.204-2.545l-1.155-16.191l2.989-3.086v-8.931"/>
			<line fill="#D0B42C" x1="21.387" y1="12.491" x2="21.387" y2="20.81"/>
			<line fill="#D0B42C" x1="24.284" y1="12.491" x2="24.284" y2="21.224"/>
			<path fill="#D0B42C" d="M32.546,24.905l-0.672,17.34c0,0,0.428,0.857,1.711,0.979c1.284,0.122,1.101-1.712,1.101-1.712
				l-0.734-16.607c0,0,1.834-1.057,2.2-1.912c0.367-0.855,0.979-3.097,0-6.286c-0.978-3.188-2.077-2.942-2.75-2.942
				s-2.139,0.264-2.751,2.942C30.041,19.387,28.696,23.027,32.546,24.905z"/>
		</g>
	</g>
	<g>
		<path d="M20.949,43.563c-0.121,0-0.246-0.009-0.374-0.026c-0.831-0.114-1.506-0.507-1.953-1.137
			c-0.669-0.942-0.628-2.069-0.583-2.298c0.048-0.396,0.533-9.514,0.854-15.669l-3.209-3.72v-8.701h1v8.33l3.229,3.741l-0.01,0.201
			C19.658,29,19.081,40.001,19.021,40.3c-0.018,0.12-0.018,0.938,0.442,1.556c0.291,0.39,0.699,0.615,1.249,0.691
			c0.389,0.054,0.702-0.022,0.946-0.23c0.539-0.459,0.68-1.478,0.689-1.831l-1.17-16.367l3.004-3.102v-8.729h1v9.133l-2.975,3.072
			l1.14,15.969c0,0.115-0.046,1.767-1.036,2.613C21.929,43.399,21.473,43.563,20.949,43.563z"/>
		<rect x="18.563" y="12.013" width="1" height="8.318"/>
		<rect x="21.46" y="12.013" width="1" height="8.732"/>
		<path d="M30.779,43.307L30.779,43.307c-0.476,0-0.884-0.164-1.182-0.476c-0.557-0.583-0.534-1.466-0.529-1.564l0.642-16.541
			c-3.51-1.91-2.673-5.322-2.058-7.831c0.065-0.267,0.129-0.526,0.187-0.777c0.662-2.898,2.313-3.331,3.239-3.331l0.29-0.004
			c0.952,0,2.046,0.392,2.938,3.3c1.094,3.563,0.262,5.976-0.019,6.63c-0.341,0.796-1.583,1.639-2.147,1.989l0.72,16.311
			c0.068,0.609-0.151,1.907-1.485,2.221C31.166,43.282,30.965,43.307,30.779,43.307z M31.368,13.782l-0.29,0.004
			c-1.1,0-1.882,0.883-2.264,2.554c-0.058,0.256-0.123,0.521-0.19,0.793c-0.642,2.616-1.306,5.321,1.817,6.845l0.293,0.143
			l-0.667,17.188c-0.005,0.153,0.03,0.601,0.255,0.834c0.095,0.1,0.359,0.225,0.823,0.117c0.79-0.187,0.728-1.073,0.718-1.174
			l-0.749-16.94l0.263-0.152c0.702-0.404,1.784-1.192,1.991-1.676c0.247-0.575,0.976-2.704-0.019-5.942
			C32.554,13.782,31.782,13.782,31.368,13.782z"/>
	</g>
</g>
</svg>
