<?xml version="1.0" encoding="utf-8"?>
<!-- Generator: Adobe Illustrator 16.0.0, SVG Export Plug-In . SVG Version: 6.00 Build 0)  -->
<!DOCTYPE svg PUBLIC "-//W3C//DTD SVG 1.1//EN" "http://www.w3.org/Graphics/SVG/1.1/DTD/svg11.dtd">
<svg version="1.1" id="Layer_1" xmlns="http://www.w3.org/2000/svg" xmlns:xlink="http://www.w3.org/1999/xlink" x="0px" y="0px"
	 width="72.16px" height="37.846px" viewBox="0 0 72.16 37.846" enable-background="new 0 0 72.16 37.846" xml:space="preserve">
<g>
	<circle fill="#D1D2D1" cx="20.211" cy="32.092" r="5.755"/>
	<circle fill="#D1D2D1" cx="54.822" cy="32.092" r="5.755"/>
	<g>
		<g>
			<line fill="#D0B42C" x1="35.392" y1="27.852" x2="56.216" y2="27.852"/>
			<polyline fill="#D0B42C" points="29.577,6.002 29.577,3.055 58.814,3.055 64.648,12.687 72.16,16.783 72.16,27.852 68,27.852 
				32.877,27.637 29.577,27.626 			"/>
			<polygon fill="#D0B42C" points="30.129,15.454 30.129,7.942 52.708,7.942 58.047,15.454 			"/>
			<line fill="#D0B42C" x1="48.437" y1="8.446" x2="48.437" y2="15.058"/>
		</g>
	</g>
	<g>
		<circle fill="none" stroke="#000000" stroke-miterlimit="10" cx="23.949" cy="29.023" r="5.755"/>
		<circle fill="none" stroke="#000000" stroke-miterlimit="10" cx="58.559" cy="29.023" r="5.755"/>
		<line fill="none" stroke="#000000" stroke-miterlimit="10" x1="29.704" y1="29.272" x2="52.471" y2="29.272"/>
		<polyline fill="none" stroke="#000000" stroke-miterlimit="10" points="64.314,29.272 69.902,29.272 69.902,16.43 59.81,11.676 
			51.971,0.5 12.69,0.5 12.69,3.919 		"/>
		<polyline fill="none" stroke="#000000" stroke-miterlimit="10" points="17.777,29.023 13.94,29.023 13.94,22.935 12.106,22.935 
			12.106,19.682 		"/>
		<line fill="none" stroke="#000000" stroke-miterlimit="10" x1="6.018" y1="8.671" x2="18.945" y2="8.671"/>
		<line fill="none" stroke="#000000" stroke-miterlimit="10" x1="8.603" y1="14.887" x2="15.942" y2="14.887"/>
		<line fill="none" stroke="#000000" stroke-miterlimit="10" x1="0" y1="11.752" x2="13.446" y2="11.752"/>
		<polygon fill="none" stroke="#000000" stroke-miterlimit="10" points="23.949,14.887 23.949,6.171 48.635,6.171 54.473,14.887 		
			"/>
		<line fill="none" stroke="#000000" stroke-miterlimit="10" x1="43.964" y1="6.755" x2="43.964" y2="14.428"/>
	</g>
</g>
</svg>
