<?xml version="1.0" encoding="utf-8"?>
<!-- Generator: Adobe Illustrator 16.0.0, SVG Export Plug-In . SVG Version: 6.00 Build 0)  -->
<!DOCTYPE svg PUBLIC "-//W3C//DTD SVG 1.1//EN" "http://www.w3.org/Graphics/SVG/1.1/DTD/svg11.dtd">
<svg version="1.1" id="Layer_1" xmlns="http://www.w3.org/2000/svg" xmlns:xlink="http://www.w3.org/1999/xlink" x="0px" y="0px"
	 width="57.004px" height="45.115px" viewBox="0 0 57.004 45.115" enable-background="new 0 0 57.004 45.115" xml:space="preserve">
<g>
	<g>
		<polygon fill="#D1D2D1" points="30.46,3.746 38.171,2.071 38.171,37.637 30.602,39.811 		"/>
		<polygon fill="#D1D2D1" points="9.991,5.363 18.717,6.085 18.839,42.806 10.159,42.083 		"/>
		<g>
			<g>
				<path fill-rule="evenodd" clip-rule="evenodd" fill="#D0B42C" d="M54.995,7.749c-0.013,1.613-0.528,2.847-1.39,3.97
					c-1.357,1.773-2.685,3.568-4.028,5.353c-0.339,0.451-0.375,0.455-0.709,0.009c-1.429-1.902-2.877-3.791-4.28-5.712
					c-2.556-3.5-0.566-8.458,3.689-9.136C51.889,1.657,54.954,4.39,54.995,7.749z"/>
				<path fill-rule="evenodd" clip-rule="evenodd" fill="#D0B42C" d="M49.281,4.999c1.168,0.019,2.091,0.975,2.079,2.153
					c-0.013,1.197-0.975,2.141-2.158,2.119c-1.212-0.023-2.13-0.958-2.121-2.157C47.094,5.895,48.044,4.981,49.281,4.999z"/>
			</g>
		</g>
		<g>
			<g>
				<path fill-rule="evenodd" clip-rule="evenodd" fill="#D0B42C" d="M17.958,19.961c-0.013,1.613-0.529,2.847-1.39,3.97
					c-1.357,1.773-2.685,3.569-4.028,5.353c-0.339,0.452-0.375,0.455-0.709,0.009c-1.429-1.901-2.877-3.791-4.28-5.712
					c-2.556-3.5-0.566-8.458,3.689-9.136C14.852,13.87,17.916,16.603,17.958,19.961z"/>
				<path fill-rule="evenodd" clip-rule="evenodd" fill="#D0B42C" d="M12.244,17.212c1.168,0.019,2.091,0.975,2.079,2.153
					c-0.013,1.197-0.975,2.141-2.158,2.119c-1.212-0.023-2.13-0.958-2.121-2.157C10.057,18.107,11.007,17.193,12.244,17.212z"/>
			</g>
		</g>
		
			<line fill-rule="evenodd" clip-rule="evenodd" fill="none" stroke="#000000" stroke-miterlimit="10" x1="38.044" y1="37.648" x2="38.044" y2="4.999"/>
		<circle fill="#D0B42C" cx="47.087" cy="19.969" r="2.134"/>
		<g>
			<g>
				<g>
					<path fill="none" stroke="#000000" stroke-miterlimit="10" d="M10.921,31.108c0,0,0.363,0.124,0.953,0.29"/>
					<path fill="none" stroke="#000000" stroke-miterlimit="10" stroke-dasharray="1.9668,1.9668" d="M13.786,31.857
						c2.015,0.403,4.617,0.652,6.162-0.257c2.79-1.641,11.526-9.499,11.526-9.499l12.658-3.707"/>
					<line fill="none" stroke="#000000" stroke-miterlimit="10" x1="45.082" y1="18.117" x2="46.042" y2="17.836"/>
				</g>
			</g>
			
				<line fill-rule="evenodd" clip-rule="evenodd" fill="none" stroke="#000000" stroke-miterlimit="10" x1="18.765" y1="42.433" x2="18.765" y2="9.784"/>
			<polyline fill="none" stroke="#000000" stroke-miterlimit="10" points="40.75,3.865 37.426,3.865 18.717,8.542 0.5,6.327 
				0.5,42.391 18.839,44.607 37.918,39.684 56.504,42.145 56.504,6.327 54.781,5.958 			"/>
			<g>
				<path fill-rule="evenodd" clip-rule="evenodd" fill="none" stroke="#000000" stroke-miterlimit="10" d="M15.821,18.508
					c-0.012,1.613-0.528,2.847-1.39,3.97c-1.357,1.772-2.686,3.568-4.029,5.353c-0.338,0.451-0.374,0.455-0.709,0.008
					c-1.43-1.901-2.876-3.79-4.279-5.711c-2.556-3.5-0.567-8.458,3.688-9.137C12.715,12.415,15.779,15.148,15.821,18.508z"/>
				<path fill-rule="evenodd" clip-rule="evenodd" fill="none" stroke="#000000" stroke-miterlimit="10" d="M10.107,15.758
					c1.168,0.02,2.091,0.975,2.079,2.153c-0.013,1.196-0.974,2.141-2.158,2.118c-1.213-0.022-2.13-0.958-2.12-2.157
					C7.92,16.653,8.87,15.739,10.107,15.758z"/>
			</g>
			<g>
				<path fill-rule="evenodd" clip-rule="evenodd" fill="none" stroke="#000000" stroke-miterlimit="10" d="M52.858,6.093
					c-0.013,1.613-0.529,2.847-1.39,3.97c-1.358,1.772-2.685,3.568-4.029,5.353c-0.338,0.451-0.374,0.455-0.709,0.008
					c-1.429-1.901-2.877-3.79-4.28-5.711c-2.556-3.5-0.566-8.458,3.689-9.136C49.752,0.001,52.816,2.734,52.858,6.093z"/>
				<path fill-rule="evenodd" clip-rule="evenodd" fill="none" stroke="#000000" stroke-miterlimit="10" d="M47.145,3.344
					c1.168,0.019,2.091,0.975,2.079,2.153c-0.013,1.197-0.975,2.141-2.158,2.119c-1.212-0.023-2.13-0.958-2.121-2.157
					C44.957,4.239,45.907,3.325,47.145,3.344z"/>
			</g>
		</g>
		<circle fill="#D0B42C" cx="31.474" cy="22.102" r="2.134"/>
		<circle fill="#D0B42C" cx="10.05" cy="30.693" r="2.134"/>
	</g>
	<circle fill="#D0B42C" cx="18.839" cy="32.826" r="2.133"/>
</g>
</svg>
