<?xml version="1.0" encoding="utf-8"?>
<!-- Generator: Adobe Illustrator 16.0.0, SVG Export Plug-In . SVG Version: 6.00 Build 0)  -->
<!DOCTYPE svg PUBLIC "-//W3C//DTD SVG 1.1//EN" "http://www.w3.org/Graphics/SVG/1.1/DTD/svg11.dtd">
<svg version="1.1" id="Layer_1" xmlns="http://www.w3.org/2000/svg" xmlns:xlink="http://www.w3.org/1999/xlink" x="0px" y="0px"
	 width="64.398px" height="28.826px" viewBox="0 0 64.398 28.826" enable-background="new 0 0 64.398 28.826" xml:space="preserve">
<g>
	<g>
		<rect x="24.836" y="0.497" fill="#D0B42C" width="39.563" height="25.427"/>
		<rect x="2.564" y="10.063" fill="#D1D2D1" width="20.25" height="1.335"/>
		<rect x="7.957" y="17.063" fill="#D1D2D1" width="14.857" height="1.335"/>
		<rect x="0.528" y="22.397" fill="#D1D2D1" width="14.857" height="1.335"/>
	</g>
	<g>
		<polygon points="38.084,19.313 17.009,1.352 17.657,0.59 38.086,18.001 53.441,4.953 54.09,5.715 		"/>
		<rect x="41.772" y="20.87" transform="matrix(0.701 0.7132 -0.7132 0.701 30.6465 -30.3571)" width="19.509" height="1"/>
		<rect x="24.221" y="10.502" transform="matrix(0.7071 0.7071 -0.7071 0.7071 22.0512 -11.3458)" width="1" height="20.887"/>
		<g>
			<polygon points="16.833,0 16.833,10.785 17.833,10.785 17.833,1 58.336,1 58.336,27.826 17.833,27.826 17.833,15.41 
				16.833,15.41 16.833,28.826 59.336,28.826 59.336,0 			"/>
		</g>
		<rect y="12.026" width="23.818" height="1"/>
		<rect x="2.123" y="5.069" width="11.909" height="1"/>
		<rect x="8.078" y="18.983" width="9.255" height="1"/>
		<rect y="24.76" width="11.91" height="1"/>
	</g>
</g>
</svg>
