<?xml version="1.0" encoding="utf-8"?>
<!-- Generator: Adobe Illustrator 16.0.0, SVG Export Plug-In . SVG Version: 6.00 Build 0)  -->
<!DOCTYPE svg PUBLIC "-//W3C//DTD SVG 1.1//EN" "http://www.w3.org/Graphics/SVG/1.1/DTD/svg11.dtd">
<svg version="1.1" id="Layer_1" xmlns="http://www.w3.org/2000/svg" xmlns:xlink="http://www.w3.org/1999/xlink" x="0px" y="0px"
	 width="53.583px" height="55.974px" viewBox="0 0 53.583 55.974" enable-background="new 0 0 53.583 55.974" xml:space="preserve">
<g>
	<g>
		<path fill="#D1D2D1" d="M19.166,4.384v24.67c0,0,3.027-2.811,5.822-1.77c0.416-20.768,0.416-20.768,0.416-20.768L19.166,4.384z"/>
		<path fill="#D1D2D1" d="M42.695,3.058v24.67c0,0,3.027-2.813,5.822-1.77C48.933,5.19,48.933,5.19,48.933,5.19L42.695,3.058z"/>
		<g>
			<g>
				<path fill="#D0B42C" d="M51.541,48.567c0,0-14.566,0.123-17.504,0.006s-2.467,2.115-2.467,2.115v5.285h21.969
					c0,0,0-3.172,0-5.051C53.539,49.042,51.541,48.567,51.541,48.567z"/>
				<path fill="#D0B42C" d="M51.351,25.487c-1.762-0.309-2.512,0.705-2.512,0.705l0.025,1.602l-0.773-0.707c0-0.225,0-0.439,0-0.631
					c0-1.145-0.486-3.348-2.336-3.172c-1.453,0.139-1.842,0.869-1.945,1.178c-0.264-0.061-0.545-0.117-0.84-0.168
					c-0.184-1.188-0.709-2.018-2.297-2.051c-2.129-0.045-2.408,2.805-2.408,2.805l0.072,0.066c-0.121,0.195-0.227,0.404-0.307,0.637
					c0-1.496,0-3.205,0-4.904c0-4.697-0.236-6.461-2.936-6.342c-2.703,0.115-1.998,3.523-1.998,3.523l-0.236,17.738
					c0,0-2.465-2.467-3.893-4.229c-1.426-1.762-3.391-2.82-5.152-1.174c-1.762,1.645-0.588,4.346-0.588,4.346l11.867,13.041
					l12.996,0.842l1.076-1.633l0.025,1.607c3.406-7.053,4.186-16.957,4.361-18.719C53.728,28.087,53.113,25.796,51.351,25.487z"/>
			</g>
		</g>
	</g>
	<g>
		<path fill="none" stroke="#000000" stroke-miterlimit="10" d="M28.929,54.366v-5.287c0,0-0.471-2.232,2.467-2.113
			C34.333,47.083,48.9,46.96,48.9,46.96s1.998,0.475,1.998,2.354c0,1.881,0,5.053,0,5.053"/>
		<path fill="none" stroke="#000000" stroke-miterlimit="10" d="M32.454,46.142L20.587,33.101c0,0-1.175-2.699,0.588-4.346
			c1.763-1.645,3.728-0.588,5.153,1.176c1.426,1.762,3.893,4.229,3.893,4.229l0.235-17.738c0,0-0.705-3.408,1.997-3.525
			c2.701-0.117,2.937,1.645,2.937,6.344s0,9.516,0,9.516"/>
		<path fill="none" stroke="#000000" stroke-miterlimit="10" d="M35.625,23.44c0,0,0.278-2.85,2.408-2.807
			c2.13,0.045,2.35,1.527,2.394,3.377c0.045,1.852,0,3.834,0,3.834"/>
		<path fill="none" stroke="#000000" stroke-miterlimit="10" d="M41.132,22.997c0,0,0.133-1.145,1.982-1.32
			c1.85-0.178,2.335,2.025,2.335,3.172c0,1.145,0,3.127,0,3.127"/>
		<path fill="none" stroke="#000000" stroke-miterlimit="10" d="M46.199,24.583c0,0,0.749-1.012,2.512-0.703
			c1.762,0.309,2.378,2.598,2.202,4.359c-0.176,1.764-0.955,11.668-4.361,18.721"/>
		<line fill="none" stroke="#000000" stroke-miterlimit="10" x1="6.49" y1="8.901" x2="18.473" y2="8.901"/>
		<line fill="none" stroke="#000000" stroke-miterlimit="10" x1="6.49" y1="12.866" x2="22.542" y2="12.931"/>
		<line fill="none" stroke="#000000" stroke-miterlimit="10" x1="6.49" y1="16.991" x2="22.542" y2="17.054"/>
		<line fill="none" stroke="#000000" stroke-miterlimit="10" x1="15.536" y1="21.036" x2="22.542" y2="21.063"/>
		<line fill="none" stroke="#000000" stroke-miterlimit="10" x1="6.49" y1="21.036" x2="8.984" y2="21.046"/>
		<line fill="none" stroke="#000000" stroke-miterlimit="10" x1="20.047" y1="8.929" x2="22.542" y2="8.938"/>
		<line fill="none" stroke="#000000" stroke-miterlimit="10" x1="44.203" y1="8.933" x2="46.698" y2="8.942"/>
		<line fill="none" stroke="#000000" stroke-miterlimit="10" x1="30.337" y1="8.886" x2="42.41" y2="8.935"/>
		<line fill="none" stroke="#000000" stroke-miterlimit="10" x1="38.929" y1="13.233" x2="46.483" y2="13.263"/>
		<line fill="none" stroke="#000000" stroke-miterlimit="10" x1="38.929" y1="16.976" x2="46.483" y2="17.007"/>
		<path fill="none" stroke="#000000" stroke-miterlimit="10" d="M16.711,34.394c0,0-8.753-1.352-15.009,2.084
			c0.529-32.424,0-32.424,0-32.424s12.336-7.93,24.583,0c0,21.764,0,21.764,0,21.764"/>
		<path fill="none" stroke="#000000" stroke-miterlimit="10" d="M27.254,3.437c0,0,10.486-6.607,23.085,0v17.197"/>
	</g>
</g>
</svg>
