<?xml version="1.0" encoding="utf-8"?>
<!-- Generator: Adobe Illustrator 16.0.0, SVG Export Plug-In . SVG Version: 6.00 Build 0)  -->
<!DOCTYPE svg PUBLIC "-//W3C//DTD SVG 1.1//EN" "http://www.w3.org/Graphics/SVG/1.1/DTD/svg11.dtd">
<svg version="1.1" id="Layer_1" xmlns="http://www.w3.org/2000/svg" xmlns:xlink="http://www.w3.org/1999/xlink" x="0px" y="0px"
	 width="308.569px" height="58.449px" viewBox="0.769 107.52 308.569 58.449" enable-background="new 0.769 107.52 308.569 58.449"
	 xml:space="preserve">
<polygon fill="#FFFFFF" points="57.477,126.23 57.477,126.18 57.466,126.18 "/>
<g>
	<g>
		<g>
			<path fill="#B2D7DB" d="M42.503,157.057c0-2.252,1.628-3.933,3.842-3.933c2.191,0,3.831,1.668,3.831,3.933
				c0,2.266-1.64,3.934-3.831,3.934C44.132,160.99,42.503,159.311,42.503,157.057z M49.403,157.057c0-1.845-1.305-3.203-3.058-3.203
				c-1.765,0-3.079,1.358-3.079,3.203c0,1.846,1.314,3.205,3.079,3.205C48.099,160.262,49.403,158.902,49.403,157.057z"/>
			<path fill="#B2D7DB" d="M53.115,154.428v0.686h1.691v0.662h-1.67v5.148h-0.741v-5.148h-0.981v-0.662h0.981v-0.719
				c0-1.039,0.584-1.724,1.66-1.724c0.406,0,0.823,0.122,1.096,0.365l-0.25,0.585c-0.208-0.188-0.501-0.287-0.814-0.287
				C53.449,153.334,53.115,153.71,53.115,154.428z"/>
			<path fill="#B2D7DB" d="M58.114,152.671c0.407,0,0.824,0.122,1.096,0.365l-0.25,0.585c-0.208-0.188-0.501-0.287-0.813-0.287
				c-0.637,0-0.972,0.375-0.972,1.094v0.684h1.691v0.664h-1.67v5.148h-0.741v-5.148h-0.98v-0.664h0.98v-0.717
				C56.453,153.355,57.038,152.671,58.114,152.671z M61.62,153.268c0,0.32-0.229,0.574-0.543,0.574
				c-0.303,0-0.542-0.254-0.542-0.563c0-0.299,0.24-0.553,0.542-0.553S61.62,152.971,61.62,153.268z M60.701,155.113h0.741v5.811
				h-0.741V155.113z"/>
			<path fill="#B2D7DB" d="M63.476,158.018c0-1.733,1.189-2.949,2.829-2.949c0.929,0,1.711,0.387,2.149,1.148l-0.553,0.397
				c-0.376-0.585-0.96-0.861-1.597-0.861c-1.2,0-2.077,0.906-2.077,2.265c0,1.371,0.877,2.266,2.077,2.266
				c0.637,0,1.221-0.266,1.597-0.852l0.553,0.397c-0.438,0.751-1.221,1.149-2.149,1.149
				C64.664,160.979,63.476,159.753,63.476,158.018z"/>
			<path fill="#B2D7DB" d="M70.256,153.279c0-0.299,0.24-0.553,0.543-0.553c0.304,0,0.542,0.242,0.542,0.541
				c0,0.32-0.229,0.574-0.542,0.574C70.497,153.842,70.256,153.588,70.256,153.279z M70.423,155.113h0.741v5.811h-0.741V155.113z"/>
			<path fill="#B2D7DB" d="M77.896,157.322v3.602h-0.709v-0.906c-0.334,0.597-0.981,0.961-1.89,0.961
				c-1.241,0-2.004-0.685-2.004-1.689c0-0.895,0.543-1.646,2.119-1.646h1.743v-0.354c0-0.994-0.532-1.535-1.555-1.535
				c-0.71,0-1.378,0.266-1.827,0.686l-0.334-0.586c0.553-0.496,1.367-0.783,2.233-0.783
				C77.091,155.068,77.896,155.82,77.896,157.322z M77.155,159.178v-0.949h-1.722c-1.064,0-1.409,0.44-1.409,1.037
				c0,0.674,0.512,1.094,1.388,1.094C76.246,160.359,76.863,159.939,77.155,159.178z"/>
			<path fill="#B2D7DB" d="M80.43,152.727h0.74v8.197h-0.74V152.727z"/>
			<path fill="#B2D7DB" d="M97.199,153.189l-2.463,7.734h-0.814l-2.14-6.596l-2.15,6.596h-0.804l-2.463-7.734h0.793l2.108,6.652
				l2.181-6.652h0.72l2.15,6.685l2.14-6.685H97.199z"/>
			<path fill="#B2D7DB" d="M103.332,158.262H98.74c0.083,1.215,0.96,2.021,2.161,2.021c0.668,0,1.263-0.254,1.68-0.762l0.417,0.508
				c-0.491,0.619-1.252,0.949-2.119,0.949c-1.712,0-2.881-1.236-2.881-2.959c0-1.725,1.139-2.951,2.684-2.951
				s2.661,1.205,2.661,2.951C103.343,158.084,103.332,158.174,103.332,158.262z M98.74,157.676h3.894
				c-0.095-1.138-0.877-1.933-1.952-1.933C99.617,155.743,98.833,156.538,98.74,157.676z"/>
			<path fill="#B2D7DB" d="M110.939,158.018c0,1.756-1.169,2.961-2.734,2.961c-0.908,0-1.67-0.42-2.119-1.205v1.15h-0.709v-8.197
				h0.741v3.49c0.459-0.75,1.211-1.148,2.087-1.148C109.77,155.068,110.939,156.262,110.939,158.018z M110.198,158.018
				c0-1.358-0.887-2.265-2.045-2.265c-1.169,0-2.046,0.906-2.046,2.265s0.877,2.266,2.046,2.266
				C109.311,160.283,110.198,159.377,110.198,158.018z"/>
			<path fill="#B2D7DB" d="M112.209,160.262l0.334-0.619c0.438,0.365,1.18,0.651,1.952,0.651c1.044,0,1.473-0.375,1.473-0.95
				c0-1.514-3.56-0.32-3.56-2.619c0-0.949,0.772-1.656,2.171-1.656c0.709,0,1.482,0.209,1.941,0.541l-0.324,0.63
				c-0.479-0.354-1.054-0.497-1.618-0.497c-0.992,0-1.43,0.408-1.43,0.961c0,1.568,3.559,0.387,3.559,2.618
				c0,1.005-0.835,1.657-2.265,1.657C113.535,160.979,112.658,160.67,112.209,160.262z"/>
			<path fill="#B2D7DB" d="M118.428,153.279c0-0.299,0.239-0.553,0.543-0.553c0.303,0,0.543,0.242,0.543,0.541
				c0,0.32-0.229,0.574-0.543,0.574C118.667,153.842,118.428,153.588,118.428,153.279z M118.595,155.113h0.74v5.811h-0.74V155.113z"
				/>
			<path fill="#B2D7DB" d="M124.815,160.57c-0.292,0.275-0.73,0.408-1.159,0.408c-1.033,0-1.607-0.619-1.607-1.689v-3.514h-0.98
				v-0.662h0.98v-1.271h0.741v1.271h1.67v0.662h-1.67v3.47c0,0.685,0.334,1.062,0.95,1.062c0.303,0,0.605-0.101,0.814-0.299
				L124.815,160.57z"/>
			<path fill="#B2D7DB" d="M131.263,158.262h-4.593c0.083,1.215,0.96,2.021,2.16,2.021c0.668,0,1.264-0.254,1.682-0.762l0.417,0.508
				c-0.49,0.619-1.252,0.949-2.119,0.949c-1.711,0-2.88-1.236-2.88-2.959c0-1.725,1.138-2.951,2.682-2.951s2.662,1.205,2.662,2.951
				C131.274,158.084,131.263,158.174,131.263,158.262z M126.67,157.676h3.894c-0.094-1.138-0.876-1.933-1.952-1.933
				C127.547,155.743,126.765,156.538,126.67,157.676z"/>
			<path fill="#B2D7DB" d="M141.947,161.045l-1.012-1.105c-0.616,0.697-1.451,1.051-2.442,1.051c-1.43,0-2.453-0.795-2.453-1.967
				c0-0.918,0.501-1.592,1.837-2.408c-0.709-0.773-0.918-1.237-0.918-1.834c0-0.982,0.721-1.646,1.848-1.646
				c1.032,0,1.7,0.575,1.7,1.536c0,0.772-0.438,1.315-1.628,2.044l2.004,2.188c0.221-0.408,0.388-0.905,0.491-1.491l0.605,0.198
				c-0.136,0.697-0.355,1.293-0.647,1.779l1.043,1.139L141.947,161.045z M140.496,159.467l-2.202-2.398
				c-1.169,0.707-1.523,1.193-1.523,1.879c0,0.84,0.709,1.392,1.764,1.392C139.327,160.338,139.995,160.051,140.496,159.467z
				 M137.647,154.77c0,0.453,0.157,0.773,0.825,1.492c1.054-0.642,1.397-1.027,1.397-1.58c0-0.576-0.386-0.961-1.063-0.961
				C138.074,153.721,137.647,154.152,137.647,154.77z"/>
			<path fill="#B2D7DB" d="M153.58,158.857c0,1.316-0.918,2.066-2.745,2.066h-3.36v-7.734h3.151c1.628,0,2.568,0.729,2.568,1.99
				c0,0.883-0.449,1.469-1.117,1.756C153.017,157.157,153.58,157.809,153.58,158.857z M148.247,153.865v2.806h2.327
				c1.169,0,1.848-0.475,1.848-1.403c0-0.928-0.679-1.402-1.848-1.402H148.247z M152.808,158.791c0-1.005-0.699-1.447-1.982-1.447
				h-2.578v2.905h2.578C152.109,160.25,152.808,159.809,152.808,158.791z"/>
			<path fill="#B2D7DB" d="M160.487,158.262h-4.592c0.083,1.215,0.96,2.021,2.16,2.021c0.668,0,1.263-0.254,1.681-0.762l0.417,0.508
				c-0.491,0.619-1.252,0.949-2.119,0.949c-1.712,0-2.881-1.236-2.881-2.959c0-1.725,1.138-2.951,2.683-2.951
				c1.544,0,2.661,1.205,2.661,2.951C160.497,158.084,160.487,158.174,160.487,158.262z M155.895,157.676h3.893
				c-0.094-1.138-0.877-1.933-1.952-1.933C156.772,155.743,155.989,156.538,155.895,157.676z"/>
			<path fill="#B2D7DB" d="M161.769,160.262l0.334-0.619c0.438,0.365,1.179,0.651,1.952,0.651c1.044,0,1.472-0.375,1.472-0.95
				c0-1.514-3.559-0.32-3.559-2.619c0-0.949,0.771-1.656,2.171-1.656c0.709,0,1.481,0.209,1.94,0.541l-0.324,0.63
				c-0.479-0.354-1.054-0.497-1.617-0.497c-0.992,0-1.431,0.408-1.431,0.961c0,1.568,3.56,0.387,3.56,2.618
				c0,1.005-0.835,1.657-2.266,1.657C163.094,160.979,162.216,160.67,161.769,160.262z"/>
			<path fill="#B2D7DB" d="M171.044,160.57c-0.292,0.275-0.73,0.408-1.158,0.408c-1.033,0-1.607-0.619-1.607-1.689v-3.514h-0.981
				v-0.662h0.981v-1.271h0.741v1.271h1.67v0.662h-1.67v3.47c0,0.685,0.334,1.062,0.95,1.062c0.303,0,0.604-0.101,0.813-0.299
				L171.044,160.57z"/>
			<path fill="#B2D7DB" d="M182.042,155.842c0,1.646-1.127,2.641-2.984,2.641h-1.962v2.441h-0.772v-7.734h2.734
				C180.914,153.189,182.042,154.186,182.042,155.842z M181.27,155.842c0-1.236-0.772-1.943-2.233-1.943h-1.94v3.867h1.94
				C180.497,157.764,181.27,157.057,181.27,155.842z"/>
			<path fill="#B2D7DB" d="M186.705,155.068v0.763c-0.063,0-0.125-0.011-0.178-0.011c-1.147,0-1.847,0.773-1.847,2.143v2.961h-0.741
				v-5.811h0.709v1.138C184.993,155.477,185.693,155.068,186.705,155.068z"/>
			<path fill="#B2D7DB" d="M188.395,153.279c0-0.299,0.24-0.553,0.542-0.553s0.542,0.242,0.542,0.541
				c0,0.32-0.229,0.574-0.542,0.574C188.635,153.842,188.395,153.588,188.395,153.279z M188.562,155.113h0.741v5.811h-0.741V155.113
				z"/>
			<path fill="#B2D7DB" d="M191.336,158.018c0-1.733,1.19-2.949,2.829-2.949c0.93,0,1.711,0.387,2.149,1.148l-0.553,0.397
				c-0.376-0.585-0.96-0.861-1.598-0.861c-1.201,0-2.077,0.906-2.077,2.265c0,1.371,0.876,2.266,2.077,2.266
				c0.637,0,1.222-0.266,1.598-0.852l0.553,0.397c-0.438,0.751-1.221,1.149-2.149,1.149
				C192.527,160.979,191.336,159.753,191.336,158.018z"/>
			<path fill="#B2D7DB" d="M202.972,158.262h-4.594c0.084,1.215,0.96,2.021,2.161,2.021c0.668,0,1.264-0.254,1.681-0.762
				l0.418,0.508c-0.491,0.619-1.253,0.949-2.119,0.949c-1.711,0-2.88-1.236-2.88-2.959c0-1.725,1.138-2.951,2.682-2.951
				c1.545,0,2.662,1.205,2.662,2.951C202.982,158.084,202.972,158.174,202.972,158.262z M198.378,157.676h3.895
				c-0.094-1.138-0.877-1.933-1.952-1.933C199.255,155.743,198.474,156.538,198.378,157.676z"/>
			<path fill="#B2D7DB" d="M213.573,157.057h0.741v2.951c-0.689,0.651-1.67,0.982-2.683,0.982c-2.223,0-3.852-1.668-3.852-3.934
				c0-2.265,1.628-3.933,3.862-3.933c1.105,0,2.065,0.375,2.713,1.116l-0.48,0.52c-0.616-0.642-1.346-0.906-2.202-0.906
				c-1.806,0-3.131,1.358-3.131,3.203c0,1.834,1.326,3.205,3.121,3.205c0.699,0,1.346-0.166,1.91-0.597V157.057z"/>
			<path fill="#B2D7DB" d="M221.804,155.113v5.811h-0.709v-1.061c-0.387,0.707-1.097,1.115-1.974,1.115
				c-1.397,0-2.316-0.828-2.316-2.496v-3.371h0.74v3.293c0,1.236,0.605,1.867,1.648,1.867c1.147,0,1.869-0.785,1.869-2.11v-3.05
				h0.741V155.113z"/>
			<path fill="#B2D7DB" d="M228.543,157.322v3.602h-0.709v-0.906c-0.334,0.597-0.98,0.961-1.89,0.961
				c-1.242,0-2.004-0.685-2.004-1.689c0-0.895,0.543-1.646,2.119-1.646h1.743v-0.354c0-0.994-0.533-1.535-1.557-1.535
				c-0.709,0-1.377,0.266-1.826,0.686l-0.334-0.586c0.554-0.496,1.367-0.783,2.233-0.783
				C227.74,155.068,228.543,155.82,228.543,157.322z M227.803,159.178v-0.949h-1.724c-1.063,0-1.409,0.44-1.409,1.037
				c0,0.674,0.512,1.094,1.389,1.094C226.895,160.359,227.511,159.939,227.803,159.178z"/>
			<path fill="#B2D7DB" d="M233.844,155.068v0.763c-0.063,0-0.125-0.011-0.178-0.011c-1.147,0-1.848,0.773-1.848,2.143v2.961h-0.741
				v-5.811h0.71v1.138C232.131,155.477,232.831,155.068,233.844,155.068z"/>
			<path fill="#B2D7DB" d="M239.832,157.322v3.602h-0.709v-0.906c-0.334,0.597-0.98,0.961-1.89,0.961
				c-1.242,0-2.004-0.685-2.004-1.689c0-0.895,0.543-1.646,2.119-1.646h1.742v-0.354c0-0.994-0.532-1.535-1.556-1.535
				c-0.709,0-1.377,0.266-1.826,0.686l-0.334-0.586c0.554-0.496,1.367-0.783,2.233-0.783
				C239.029,155.068,239.832,155.82,239.832,157.322z M239.091,159.178v-0.949h-1.723c-1.063,0-1.409,0.44-1.409,1.037
				c0,0.674,0.512,1.094,1.389,1.094C238.184,160.359,238.799,159.939,239.091,159.178z"/>
			<path fill="#B2D7DB" d="M247.417,157.555v3.369h-0.74v-3.291c0-1.228-0.605-1.857-1.649-1.857c-1.179,0-1.92,0.773-1.92,2.1
				v3.049h-0.741v-5.811h0.71v1.072c0.396-0.707,1.138-1.117,2.087-1.117C246.499,155.068,247.417,155.887,247.417,157.555z"/>
			<path fill="#B2D7DB" d="M252.843,160.57c-0.293,0.275-0.731,0.408-1.159,0.408c-1.033,0-1.607-0.619-1.607-1.689v-3.514h-0.98
				v-0.662h0.98v-1.271h0.741v1.271h1.67v0.662h-1.67v3.47c0,0.685,0.334,1.062,0.95,1.062c0.303,0,0.604-0.101,0.813-0.299
				L252.843,160.57z"/>
			<path fill="#B2D7DB" d="M259.29,158.262h-4.592c0.083,1.215,0.96,2.021,2.161,2.021c0.668,0,1.263-0.254,1.68-0.762l0.417,0.508
				c-0.491,0.619-1.252,0.949-2.119,0.949c-1.712,0-2.881-1.236-2.881-2.959c0-1.725,1.139-2.951,2.683-2.951
				c1.545,0,2.662,1.205,2.662,2.951C259.302,158.084,259.29,158.174,259.29,158.262z M254.698,157.676h3.893
				c-0.094-1.138-0.877-1.933-1.951-1.933C255.575,155.743,254.792,156.538,254.698,157.676z"/>
			<path fill="#B2D7DB" d="M266.115,158.262h-4.592c0.083,1.215,0.96,2.021,2.16,2.021c0.668,0,1.263-0.254,1.681-0.762l0.417,0.508
				c-0.49,0.619-1.252,0.949-2.119,0.949c-1.711,0-2.88-1.236-2.88-2.959c0-1.725,1.138-2.951,2.682-2.951s2.662,1.205,2.662,2.951
				C266.124,158.084,266.115,158.174,266.115,158.262z M261.523,157.676h3.893c-0.094-1.138-0.876-1.933-1.952-1.933
				C262.399,155.743,261.616,156.538,261.523,157.676z"/>
		</g>
		<g>
			<path id="SVGID_56_" fill="#4FA8B1" d="M0.769,136.102l9.368,0.108l-0.07-9.426C10.067,126.784,1.055,127.148,0.769,136.102"/>
		</g>
		<g>
			<path id="SVGID_55_" fill="#99CBD0" d="M0.769,148.219l9.368,0.107l-0.069-9.428C10.067,138.898,1.057,139.266,0.769,148.219"/>
		</g>
		<g>
			<path id="SVGID_54_" fill="#B2D7DB" d="M0.773,160.579l9.368,0.108l-0.07-9.428C10.071,151.26,1.06,151.625,0.773,160.579"/>
		</g>
		<g>
			<path id="SVGID_53_" fill="#B2D7DB" d="M13.259,148.232l9.366,0.107l-0.068-9.426C22.557,138.914,13.544,139.28,13.259,148.232"
				/>
		</g>
		<g>
			<path id="SVGID_52_" fill="#B2D7DB" d="M25.744,135.734l9.368,0.111l-0.071-9.428C35.041,126.418,26.031,126.782,25.744,135.734"
				/>
		</g>
		<g>
			<path id="SVGID_51_" fill="#E2EFF0" d="M25.606,148.23l9.367,0.108l-0.07-9.425C34.904,138.914,25.893,139.28,25.606,148.23"/>
		</g>
		<g>
			<path id="SVGID_50_" fill="#FDFEFF" d="M25.76,160.682l9.366,0.084l-0.093-9.427C35.033,151.34,26.022,151.729,25.76,160.682"/>
		</g>
		<rect x="219.769" y="130.531" fill="#FFFFFF" width="3.921" height="13.111"/>
		<path fill="none" d="M64.76,138.59c-0.318,0.309-0.474,0.678-0.474,1.127c0,0.354,0.107,0.622,0.328,0.825
			c0.224,0.205,0.549,0.31,0.968,0.31c0.537,0,1.022-0.135,1.442-0.401c0.398-0.253,0.678-0.542,0.833-0.86v-1.46h-1.646
			C65.565,138.129,65.075,138.284,64.76,138.59z"/>
		<path fill="none" d="M150.577,138.59c-0.317,0.309-0.473,0.678-0.473,1.127c0,0.354,0.106,0.622,0.328,0.825
			c0.224,0.205,0.55,0.31,0.968,0.31c0.538,0,1.022-0.135,1.442-0.401c0.397-0.253,0.678-0.542,0.831-0.86v-1.46h-1.646
			C151.38,138.129,150.894,138.284,150.577,138.59z"/>
		<path fill="#FFFFFF" d="M53.556,129.361v4.102h-6.375v-7.283h-0.715c-1.102,0.139-3.037,0.711-3.206,2.991v14.472h3.921v-7.037
			h6.375v7.037h3.921V126.23C57.477,126.23,53.718,126.064,53.556,129.361z"/>
		<path fill="#FFFFFF" d="M71.909,141.789c-0.086-0.502-0.13-1.047-0.13-1.62v-5.2c0-1.494-0.504-2.664-1.499-3.473
			c-0.979-0.795-2.269-1.199-3.836-1.199c-1.635,0-2.983,0.408-4.007,1.213c-1.047,0.824-1.549,1.823-1.49,2.971l0.096,0.32h3.722
			v-0.262c0-0.391,0.117-0.688,0.359-0.904c0.249-0.222,0.618-0.334,1.101-0.334c0.551,0,0.965,0.141,1.229,0.42
			c0.269,0.28,0.404,0.693,0.404,1.227v0.738h-1.646c-1.869,0-3.32,0.359-4.311,1.067c-1.02,0.728-1.535,1.765-1.535,3.081
			c0,1.24,0.388,2.238,1.152,2.965c0.76,0.723,1.846,1.09,3.229,1.09c0.842,0,1.582-0.22,2.198-0.652
			c0.417-0.293,0.78-0.641,1.085-1.041c0.027,0.117,0.056,0.234,0.088,0.35c0.092,0.328,0.203,0.645,0.332,0.941l0.068,0.158h3.937
			l-0.134-0.354C72.134,142.794,71.994,142.29,71.909,141.789z M67.858,139.589c-0.154,0.318-0.435,0.607-0.833,0.86
			c-0.419,0.266-0.905,0.4-1.442,0.4c-0.419,0-0.744-0.104-0.968-0.309c-0.221-0.203-0.328-0.473-0.328-0.824
			c0-0.451,0.154-0.818,0.474-1.128c0.315-0.306,0.805-0.461,1.451-0.461h1.646V139.589z"/>
		<path fill="#FFFFFF" d="M75.168,128.643v15h3.921V125.58h-0.741C77.247,125.719,75.298,126.299,75.168,128.643z"/>
		<path fill="#FFFFFF" d="M88.209,130.299c-1.924,0-3.455,0.635-4.548,1.887c-1.085,1.242-1.636,2.853-1.636,4.785v0.246
			c0,1.949,0.553,3.563,1.642,4.797c1.099,1.244,2.634,1.875,4.565,1.875c1.923,0,3.456-0.631,4.553-1.875
			c1.089-1.233,1.642-2.849,1.642-4.797v-0.246c0-1.94-0.555-3.554-1.647-4.791C91.678,130.932,90.141,130.299,88.209,130.299z
			 M90.506,137.215c0,1.088-0.192,1.971-0.574,2.625c-0.36,0.618-0.916,0.918-1.699,0.918c-0.807,0-1.372-0.299-1.729-0.912
			c-0.377-0.649-0.568-1.535-0.568-2.631v-0.244c0-1.058,0.193-1.932,0.576-2.599c0.359-0.628,0.916-0.933,1.697-0.933
			c0.791,0,1.353,0.304,1.718,0.929c0.385,0.662,0.58,1.538,0.58,2.603V137.215z"/>
		<path fill="#FFFFFF" d="M104.315,130.299c-0.803,0-1.541,0.192-2.19,0.571c-0.453,0.263-0.858,0.604-1.212,1.017l-0.114-1.354
			h-3.667v13.112h3.922v-9.283c0.214-0.268,0.483-0.482,0.802-0.641c0.346-0.17,0.755-0.257,1.216-0.257
			c0.552,0,0.948,0.153,1.212,0.47c0.272,0.326,0.41,0.914,0.41,1.746v7.963h3.933v-7.975c0-1.824-0.382-3.188-1.135-4.052
			C106.729,130.742,105.66,130.299,104.315,130.299z"/>
		<path fill="#FFFFFF" d="M119.589,131.744c-0.318-0.383-0.682-0.693-1.082-0.932c-0.572-0.342-1.244-0.514-1.994-0.514
			c-1.643,0-2.936,0.65-3.845,1.936c-0.889,1.259-1.34,2.927-1.34,4.957v0.246c0,1.91,0.453,3.475,1.345,4.648
			c0.909,1.195,2.192,1.801,3.815,1.801c0.689,0,1.313-0.134,1.85-0.398c0.34-0.167,0.652-0.383,0.938-0.646v0.471
			c0,0.74-0.192,1.283-0.569,1.617c-0.387,0.344-1.02,0.517-1.88,0.517c-0.621,0-1.206-0.063-1.739-0.185
			c-0.531-0.123-1.056-0.307-1.556-0.545l-0.297-0.142l-0.688,3.058l0.184,0.092c0.621,0.31,1.304,0.558,2.034,0.734
			c0.729,0.18,1.432,0.27,2.086,0.27c1.97,0,3.534-0.473,4.646-1.404c1.128-0.944,1.7-2.29,1.7-4v-12.793h-3.404L119.589,131.744z
			 M119.275,139.793c-0.188,0.295-0.426,0.516-0.728,0.674c-0.319,0.17-0.724,0.254-1.197,0.254c-0.744,0-1.263-0.268-1.583-0.818
			c-0.344-0.588-0.518-1.418-0.518-2.467v-0.246c0-1.139,0.183-2.068,0.541-2.764c0.334-0.65,0.853-0.964,1.583-0.964
			c0.455,0,0.848,0.095,1.165,0.278c0.3,0.174,0.547,0.423,0.736,0.74V139.793z"/>
		<path fill="#FFFFFF" d="M157.727,141.789c-0.086-0.502-0.129-1.047-0.129-1.62v-5.2c0-1.494-0.505-2.664-1.499-3.473
			c-0.979-0.795-2.27-1.199-3.836-1.199c-1.636,0-2.983,0.408-4.008,1.213c-1.047,0.824-1.549,1.823-1.489,2.971l0.096,0.32h3.72
			v-0.262c0-0.391,0.118-0.688,0.361-0.904c0.248-0.222,0.617-0.334,1.099-0.334c0.55,0,0.964,0.141,1.229,0.42
			c0.269,0.28,0.403,0.693,0.403,1.227v0.738h-1.646c-1.871,0-3.32,0.359-4.311,1.067c-1.02,0.728-1.535,1.765-1.535,3.081
			c0,1.24,0.388,2.238,1.151,2.965c0.76,0.723,1.847,1.09,3.229,1.09c0.843,0,1.582-0.22,2.198-0.652
			c0.417-0.293,0.779-0.641,1.086-1.041c0.025,0.117,0.055,0.234,0.088,0.35c0.092,0.328,0.203,0.645,0.332,0.941l0.068,0.158h3.938
			l-0.134-0.354C157.95,142.794,157.812,142.29,157.727,141.789z M153.674,139.589c-0.153,0.318-0.434,0.607-0.831,0.86
			c-0.42,0.266-0.905,0.4-1.442,0.4c-0.418,0-0.745-0.104-0.968-0.309c-0.222-0.203-0.328-0.473-0.328-0.824
			c0-0.451,0.155-0.818,0.473-1.128c0.316-0.306,0.803-0.461,1.452-0.461h1.646v1.461H153.674z"/>
		<path fill="#FFFFFF" d="M167.859,130.531l-2.212,7.354l-2.144-7.354h-4.221l4.559,12.832l-0.358,0.887
			c-0.147,0.372-0.359,0.686-0.631,0.932c-0.251,0.229-0.626,0.346-1.115,0.346c-0.083,0-0.176-0.008-0.279-0.021l-0.579-0.085
			l-0.475,2.974l0.234,0.058c0.354,0.086,0.654,0.153,0.903,0.2c0.258,0.05,0.543,0.074,0.847,0.074
			c1.292,0,2.281-0.336,2.942-1.002c0.634-0.639,1.144-1.434,1.517-2.373l5.229-14.82H167.859z"/>
		<g>
			<path fill="#FFFFFF" d="M143.079,135.768c-0.445-0.602-1.063-1.035-1.843-1.295c0.513-0.304,0.926-0.692,1.235-1.162
				c0.43-0.653,0.647-1.402,0.647-2.227c0-1.62-0.602-2.859-1.788-3.688c-1.155-0.808-2.775-1.217-4.814-1.217h-4.241
				c-0.812,0.442-1.528,1.239-1.565,2.688c-0.002-0.005-0.003-0.009-0.005-0.015v14.789h6.813c2.013,0,3.598-0.438,4.71-1.306
				c1.132-0.881,1.706-2.19,1.706-3.889C143.934,137.434,143.646,136.532,143.079,135.768z M134.626,129.322h1.891
				c0.914,0,1.603,0.17,2.047,0.505c0.427,0.323,0.634,0.821,0.634,1.524c0,0.633-0.206,1.098-0.629,1.42
				c-0.44,0.336-1.091,0.506-1.937,0.506h-2.006V129.322z M139.408,139.986c-0.421,0.35-1.058,0.527-1.892,0.527h-2.892v-4.363
				h2.856c0.864,0,1.512,0.199,1.925,0.592c0.415,0.395,0.616,0.951,0.616,1.706C140.024,139.141,139.823,139.643,139.408,139.986z"
				/>
		</g>
		<g>
			<path fill="#FFFFFF" d="M219.772,129.042h3.919v-3.071h-0.739C221.851,126.109,219.898,126.689,219.772,129.042z"/>
		</g>
		<path fill="#FFFFFF" d="M192.459,132.301l0.061-0.18l0.037-0.148c0.031-1.901-0.57-3.402-1.789-4.459
			c-1.207-1.047-2.894-1.576-5.012-1.576c-2.045,0-3.722,0.69-4.985,2.055c-1.258,1.359-1.896,3.124-1.896,5.244v3.363
			c0,2.131,0.655,3.896,1.946,5.248c1.294,1.354,3.014,2.041,5.111,2.041c2.051,0,3.687-0.541,4.863-1.604
			c1.187-1.071,1.771-2.566,1.738-4.445l-0.097-0.326h-3.743v0.262c0,1.027-0.229,1.791-0.679,2.269
			c-0.446,0.474-1.148,0.716-2.083,0.716c-0.991,0-1.742-0.369-2.295-1.127c-0.565-0.771-0.853-1.793-0.853-3.033v-3.387
			c0-1.234,0.272-2.25,0.809-3.02c0.522-0.75,1.23-1.115,2.164-1.115c1.017,0,1.77,0.242,2.239,0.719
			c0.472,0.479,0.709,1.233,0.709,2.242v0.262H192.459z"/>
		<path fill="#FFFFFF" d="M202.231,130.344c-0.159-0.029-0.333-0.045-0.521-0.045c-0.67,0-1.271,0.205-1.784,0.608
			c-0.297,0.233-0.562,0.521-0.794,0.862l-0.101-1.237h-3.657v13.112h3.91v-8.711c0.149-0.312,0.354-0.547,0.624-0.722
			c0.282-0.181,0.653-0.272,1.097-0.272l1.483,0.043l0.416-3.479l-0.221-0.057C202.531,130.407,202.379,130.372,202.231,130.344z"/>
		<path fill="#FFFFFF" d="M212.448,139.861c-0.213,0.271-0.482,0.48-0.799,0.623c-0.354,0.158-0.786,0.238-1.289,0.238
			c-0.545,0-0.93-0.166-1.179-0.504c-0.182-0.246-0.397-0.813-0.397-2.107v-7.579h-3.909v7.556c0,1.947,0.398,3.413,1.184,4.355
			c0.796,0.959,1.911,1.445,3.313,1.445c0.836,0,1.582-0.197,2.219-0.586c0.459-0.279,0.862-0.648,1.206-1.103l0.28,1.444h3.293
			v-13.113h-3.921V139.861L212.448,139.861z"/>
		<path fill="#FFFFFF" d="M236.538,137.074c-0.786-0.625-1.983-1.102-3.563-1.419c-1.202-0.231-1.697-0.459-1.9-0.61
			c-0.262-0.193-0.389-0.436-0.389-0.738c0-0.316,0.126-0.58,0.385-0.801c0.268-0.229,0.645-0.345,1.122-0.345
			c0.54,0,0.951,0.136,1.225,0.401c0.275,0.271,0.41,0.611,0.41,1.047v0.262h3.732l0.06-0.18l0.036-0.143
			c0.042-1.215-0.456-2.242-1.478-3.054c-1-0.794-2.342-1.196-3.984-1.196c-1.576,0-2.862,0.403-3.821,1.199
			c-0.973,0.809-1.467,1.805-1.467,2.959c0,1.104,0.42,1.991,1.247,2.639c0.793,0.619,1.96,1.086,3.465,1.387
			c0.936,0.193,1.575,0.414,1.904,0.658c0.292,0.217,0.435,0.463,0.435,0.75c0,0.352-0.128,0.621-0.392,0.821
			c-0.281,0.216-0.711,0.325-1.278,0.325c-0.615,0-1.116-0.137-1.485-0.404c-0.354-0.255-0.535-0.668-0.556-1.262l-0.009-0.253
			h-3.548l-0.061,0.179l-0.036,0.141c-0.051,1.166,0.447,2.211,1.479,3.111c1.018,0.889,2.412,1.338,4.146,1.338
			c1.641,0,2.984-0.381,3.995-1.133c1.036-0.771,1.561-1.775,1.561-2.99C237.772,138.629,237.357,137.725,236.538,137.074z"/>
		<path fill="#FFFFFF" d="M263.666,137.107c-0.786-0.625-1.983-1.102-3.563-1.418c-1.202-0.231-1.697-0.459-1.9-0.61
			c-0.262-0.194-0.389-0.437-0.389-0.737c0-0.318,0.126-0.58,0.385-0.802c0.269-0.229,0.646-0.345,1.121-0.345
			c0.54,0,0.952,0.136,1.225,0.402c0.275,0.27,0.41,0.61,0.41,1.045v0.263h3.731l0.06-0.179l0.036-0.144
			c0.042-1.215-0.456-2.243-1.478-3.054c-1-0.795-2.342-1.197-3.985-1.197c-1.576,0-2.862,0.404-3.821,1.2
			c-0.973,0.81-1.467,1.805-1.467,2.959c0,1.104,0.418,1.991,1.247,2.638c0.793,0.62,1.96,1.088,3.465,1.389
			c0.936,0.192,1.575,0.414,1.904,0.658c0.292,0.217,0.435,0.461,0.435,0.75c0,0.35-0.128,0.619-0.392,0.82
			c-0.281,0.216-0.711,0.325-1.277,0.325c-0.614,0-1.116-0.136-1.486-0.404c-0.354-0.255-0.534-0.668-0.556-1.262l-0.009-0.253
			h-3.548l-0.061,0.179l-0.035,0.142c-0.051,1.164,0.447,2.211,1.479,3.11c1.019,0.888,2.412,1.338,4.146,1.338
			c1.641,0,2.984-0.381,3.995-1.133c1.036-0.771,1.562-1.776,1.562-2.991C264.9,138.663,264.485,137.76,263.666,137.107z"/>
		<path fill="#FFFFFF" d="M251.632,136.296c0-1.81-0.478-3.274-1.42-4.354c-0.793-0.909-1.898-1.422-3.279-1.574
			c-0.275-0.031-0.545-0.068-0.844-0.068c-1.848,0-3.323,0.633-4.389,1.883c-1.06,1.246-1.598,2.86-1.598,4.799v0.466
			c0,1.874,0.555,3.431,1.65,4.627c0.938,1.024,2.2,1.614,3.756,1.769c0.271,0.026,0.547,0.043,0.835,0.043
			c1.003,0,1.94-0.142,2.799-0.408c0.03-0.01,0.066-0.013,0.098-0.022c0.887-0.288,1.605-0.651,2.132-1.082l0.154-0.126
			l-0.416-0.949l-0.699-1.593l-0.252,0.142c-0.545,0.307-1.081,0.539-1.591,0.688c-0.505,0.148-1.132,0.223-1.864,0.223
			c-0.852,0-1.471-0.232-1.891-0.714c-0.391-0.444-0.627-1.024-0.703-1.729h7.521L251.632,136.296L251.632,136.296z
			 M244.166,135.706c0.098-0.663,0.31-1.206,0.631-1.616c0.344-0.438,0.826-0.648,1.476-0.648c0.636,0,1.077,0.185,1.348,0.563
			c0.29,0.402,0.437,0.976,0.438,1.701H244.166z"/>
		<path fill="#FFFFFF" d="M247.766,131.455l1.67-0.208c0,0,2.875,1.584,2.195,7.067c-0.366-0.422-1.21-0.953-1.21-0.953
			s-0.188-0.969-0.188-1.063c0-0.095,0-1.345,0-1.345"/>
	</g>
	<g>
		<defs>
			<rect id="SVGID_1_" x="266.463" y="107.52" width="42.875" height="58.449"/>
		</defs>
		<clipPath id="SVGID_2_">
			<use xlink:href="#SVGID_1_"  overflow="visible"/>
		</clipPath>
		<g clip-path="url(#SVGID_2_)">
			
				<line id="XMLID_144_" fill="none" stroke="#00AA97" stroke-width="0.25" stroke-miterlimit="10" x1="280.479" y1="150.114" x2="280.479" y2="44.008"/>
			
				<line id="XMLID_214_" fill="none" stroke="#00AA97" stroke-width="0.25" stroke-miterlimit="10" x1="302.141" y1="125.018" x2="302.141" y2="18.912"/>
			<g id="XMLID_210_">
				
					<linearGradient id="XMLID_9_" gradientUnits="userSpaceOnUse" x1="297.7581" y1="129.0996" x2="308.6223" y2="129.0996" gradientTransform="matrix(1 0.0051 -0.0051 1 -0.3972 -1.4331)">
					<stop  offset="0" style="stop-color:#FFF23A"/>
					<stop  offset="0.0401" style="stop-color:#FEE62D"/>
					<stop  offset="0.1171" style="stop-color:#FED41A"/>
					<stop  offset="0.1964" style="stop-color:#FDC90F"/>
					<stop  offset="0.2809" style="stop-color:#FDC60B"/>
					<stop  offset="0.6685" style="stop-color:#F28F3F"/>
					<stop  offset="0.8876" style="stop-color:#ED693C"/>
					<stop  offset="1" style="stop-color:#E83E39"/>
				</linearGradient>
				<path id="XMLID_211_" fill="url(#XMLID_9_)" d="M299.065,134.389c-0.105-0.001-0.21-0.034-0.298-0.099
					c-0.155-0.114-0.232-0.307-0.199-0.496l0.553-3.125l-2.261-2.227c-0.138-0.135-0.188-0.337-0.126-0.521
					c0.06-0.183,0.22-0.315,0.411-0.342l3.143-0.44l1.418-2.838c0.087-0.173,0.264-0.282,0.456-0.281s0.368,0.112,0.452,0.285
					l1.391,2.853l3.138,0.473c0.19,0.028,0.349,0.163,0.407,0.347s0.008,0.385-0.131,0.519l-2.283,2.203l0.521,3.131
					c0.031,0.189-0.048,0.381-0.204,0.494c-0.156,0.112-0.363,0.127-0.533,0.036l-2.802-1.491l-2.815,1.462
					C299.227,134.369,299.145,134.389,299.065,134.389z M298.301,128.441l1.72,1.692c0.119,0.117,0.173,0.285,0.144,0.449
					l-0.42,2.376l2.141-1.111c0.148-0.077,0.324-0.076,0.473,0.002l2.13,1.134l-0.396-2.38c-0.027-0.164,0.027-0.332,0.147-0.448
					l1.737-1.676l-2.387-0.358c-0.165-0.025-0.307-0.13-0.381-0.279l-1.057-2.17l-1.078,2.159c-0.074,0.148-0.219,0.252-0.383,0.274
					L298.301,128.441z"/>
			</g>
			
				<line id="XMLID_102_" fill="none" stroke="#00AA97" stroke-width="0.25" stroke-miterlimit="10" x1="296.178" y1="137.951" x2="296.178" y2="66.95"/>
			
				<linearGradient id="XMLID_10_" gradientUnits="userSpaceOnUse" x1="287.5784" y1="214.5059" x2="304.7766" y2="214.5059" gradientTransform="matrix(1 0 0 0.7934 0 -23.9972)">
				<stop  offset="0" style="stop-color:#65C08A"/>
				<stop  offset="0.5" style="stop-color:#00A551"/>
				<stop  offset="1" style="stop-color:#00914D"/>
			</linearGradient>
			<polygon id="XMLID_107_" fill="url(#XMLID_10_)" points="304.777,155.998 299.5,149.129 302.823,149.129 298.446,141.947 
				300.713,141.947 296.178,136.386 296.178,136.386 291.643,141.947 293.91,141.947 289.533,149.129 292.856,149.129 
				287.578,155.998 			"/>
			
				<linearGradient id="XMLID_11_" gradientUnits="userSpaceOnUse" x1="296.178" y1="214.5059" x2="304.7766" y2="214.5059" gradientTransform="matrix(1 0 0 0.7934 0 -23.9972)">
				<stop  offset="0" style="stop-color:#B6D569"/>
				<stop  offset="0.5" style="stop-color:#00A551"/>
				<stop  offset="1" style="stop-color:#00914D"/>
			</linearGradient>
			<polygon id="XMLID_4_" fill="url(#XMLID_11_)" points="299.5,149.129 302.823,149.129 298.446,141.947 300.713,141.947 
				296.178,136.386 296.178,155.998 304.777,155.998 			"/>
			
				<line id="XMLID_122_" fill="none" stroke="#00AA97" stroke-width="0.25" stroke-miterlimit="10" x1="285.089" y1="125.018" x2="285.089" y2="54.016"/>
			<g>
				<linearGradient id="XMLID_12_" gradientUnits="userSpaceOnUse" x1="274.9768" y1="130.083" x2="295.2014" y2="130.083">
					<stop  offset="0.0056" style="stop-color:#89CFC2"/>
					<stop  offset="0.5" style="stop-color:#00B5A7"/>
					<stop  offset="1" style="stop-color:#00A084"/>
				</linearGradient>
				<polygon id="XMLID_133_" fill="url(#XMLID_12_)" points="295.201,130.686 295.198,129.422 292.576,129.43 293.729,128.406 
					292.889,127.461 290.667,129.436 286.613,129.447 289.471,126.571 292.438,126.379 292.355,125.119 290.818,125.218 
					292.665,123.359 291.77,122.468 289.921,124.327 290.012,122.789 288.75,122.714 288.575,125.682 285.716,128.557 
					285.705,124.502 287.666,122.268 286.715,121.434 285.699,122.592 285.692,119.971 284.428,119.975 284.436,122.596 
					283.411,121.443 282.467,122.283 284.441,124.506 284.452,128.561 281.577,125.701 281.385,122.734 280.123,122.817 
					280.223,124.355 278.365,122.507 277.473,123.403 279.332,125.252 277.793,125.16 277.719,126.422 280.686,126.597 
					283.562,129.456 279.507,129.469 277.274,127.508 276.44,128.457 277.598,129.474 274.977,129.481 274.981,130.744 
					277.602,130.737 276.449,131.761 277.288,132.705 279.51,130.731 283.565,130.721 280.707,133.596 277.74,133.788 
					277.823,135.049 279.36,134.949 277.512,136.809 278.408,137.699 280.257,135.84 280.165,137.379 281.428,137.453 
					281.602,134.486 284.461,131.611 284.473,135.666 282.512,137.899 283.462,138.732 284.479,137.574 284.487,140.195 
					285.75,140.192 285.742,137.57 286.766,138.724 287.711,137.885 285.737,135.662 285.725,131.607 288.601,134.466 
					288.793,137.432 290.055,137.35 289.955,135.813 291.813,137.66 292.704,136.764 290.845,134.916 292.384,135.007 
					292.459,133.745 289.491,133.57 286.615,130.711 290.67,130.699 292.905,132.66 293.739,131.711 292.58,130.693 				"/>
				<linearGradient id="XMLID_13_" gradientUnits="userSpaceOnUse" x1="285.0891" y1="130.082" x2="295.2014" y2="130.082">
					<stop  offset="0.0056" style="stop-color:#89CFC2"/>
					<stop  offset="0.5" style="stop-color:#00B5A7"/>
					<stop  offset="1" style="stop-color:#00A084"/>
				</linearGradient>
				<polygon id="XMLID_142_" fill="url(#XMLID_13_)" points="295.201,130.686 295.198,129.422 292.576,129.43 293.729,128.406 
					292.889,127.461 290.667,129.436 286.613,129.447 289.471,126.571 292.438,126.379 292.355,125.119 290.818,125.218 
					292.665,123.359 291.77,122.468 289.921,124.327 290.012,122.789 288.75,122.714 288.575,125.682 285.716,128.557 
					285.705,124.502 287.666,122.268 286.715,121.435 285.699,122.592 285.692,119.971 285.089,119.973 285.089,140.194 
					285.75,140.192 285.742,137.57 286.766,138.724 287.711,137.885 285.737,135.662 285.725,131.607 288.601,134.466 
					288.793,137.432 290.055,137.35 289.955,135.813 291.813,137.66 292.704,136.764 290.845,134.916 292.384,135.007 
					292.459,133.745 289.491,133.57 286.615,130.711 290.67,130.699 292.905,132.66 293.739,131.711 292.58,130.693 				"/>
			</g>
			<g id="XMLID_147_">
				<radialGradient id="XMLID_14_" cx="283.0315" cy="146.1309" r="2.9835" gradientUnits="userSpaceOnUse">
					<stop  offset="0" style="stop-color:#F7E9C6"/>
					<stop  offset="0.5" style="stop-color:#F2DB9A"/>
					<stop  offset="1" style="stop-color:#E9C44C"/>
				</radialGradient>
				<path id="XMLID_153_" fill="url(#XMLID_14_)" d="M280.031,148.777c0,0-0.012-0.064-0.025-0.182
					c-0.012-0.116-0.033-0.289-0.041-0.508c-0.01-0.219-0.019-0.485-0.002-0.793c0.013-0.308,0.039-0.656,0.107-1.039
					s0.172-0.801,0.359-1.241c0.19-0.434,0.465-0.917,0.973-1.304c0.252-0.191,0.566-0.34,0.897-0.41
					c0.333-0.078,0.671-0.066,0.98-0.016c0.624,0.105,1.138,0.375,1.596,0.666c0.045,0.028,0.112,0.076,0.176,0.122
					c0.065,0.046,0.124,0.093,0.183,0.14c0.117,0.094,0.233,0.203,0.348,0.324c0.22,0.246,0.447,0.588,0.512,1.039
					c0.031,0.221,0.01,0.452-0.05,0.652c-0.06,0.201-0.147,0.372-0.243,0.519c-0.195,0.289-0.415,0.489-0.631,0.656
					c-0.432,0.332-0.861,0.54-1.268,0.719c-0.408,0.175-0.796,0.306-1.156,0.412c-0.723,0.208-1.33,0.322-1.759,0.386
					c-0.214,0.035-0.384,0.049-0.499,0.063l-0.414,0.035L280.031,148.777z M280.571,148.395c0.066-0.032,0.144-0.067,0.229-0.107
					c0.38-0.18,0.925-0.43,1.551-0.752c0.313-0.161,0.645-0.341,0.979-0.542c0.33-0.2,0.667-0.428,0.933-0.675
					c0.132-0.124,0.239-0.253,0.297-0.357c0.056-0.108,0.046-0.15,0.04-0.17c-0.007-0.023-0.046-0.105-0.147-0.213
					c-0.053-0.053-0.112-0.109-0.185-0.164c-0.035-0.028-0.07-0.057-0.105-0.08s-0.064-0.047-0.123-0.082
					c-0.351-0.23-0.719-0.404-1.031-0.473c-0.319-0.064-0.548-0.035-0.784,0.102c-0.237,0.139-0.466,0.408-0.646,0.71
					c-0.185,0.302-0.331,0.634-0.452,0.948c-0.243,0.636-0.393,1.211-0.496,1.612C280.607,148.24,280.587,148.322,280.571,148.395z"
					/>
				<radialGradient id="XMLID_15_" cx="277.0413" cy="146.1309" r="2.9835" gradientUnits="userSpaceOnUse">
					<stop  offset="0" style="stop-color:#F7E9C6"/>
					<stop  offset="0.5" style="stop-color:#F2DB9A"/>
					<stop  offset="1" style="stop-color:#E9C44C"/>
				</radialGradient>
				<path id="XMLID_148_" fill="url(#XMLID_15_)" d="M279.502,148.395c-0.018-0.072-0.037-0.154-0.059-0.243
					c-0.104-0.401-0.252-0.977-0.495-1.612c-0.12-0.314-0.268-0.646-0.452-0.948c-0.181-0.302-0.41-0.571-0.646-0.71
					c-0.236-0.137-0.465-0.166-0.784-0.102c-0.313,0.068-0.681,0.242-1.032,0.473c-0.057,0.035-0.088,0.059-0.122,0.082
					s-0.07,0.052-0.106,0.08c-0.072,0.055-0.131,0.111-0.184,0.164c-0.102,0.107-0.141,0.189-0.147,0.213
					c-0.007,0.02-0.016,0.062,0.04,0.17c0.057,0.104,0.166,0.233,0.297,0.357c0.266,0.247,0.604,0.475,0.933,0.675
					c0.333,0.201,0.666,0.381,0.979,0.542c0.626,0.322,1.171,0.572,1.551,0.752C279.358,148.327,279.434,148.362,279.502,148.395z
					 M279.764,148.998c0,0-0.063-0.006-0.18-0.016c-0.115-0.014-0.287-0.027-0.5-0.063c-0.429-0.063-1.037-0.178-1.758-0.386
					c-0.361-0.106-0.75-0.237-1.156-0.412c-0.408-0.179-0.836-0.387-1.269-0.719c-0.216-0.167-0.437-0.367-0.631-0.656
					c-0.096-0.146-0.185-0.317-0.243-0.519c-0.059-0.2-0.08-0.432-0.049-0.652c0.063-0.451,0.291-0.793,0.512-1.039
					c0.113-0.121,0.229-0.23,0.347-0.324c0.059-0.047,0.116-0.094,0.183-0.14c0.063-0.046,0.131-0.094,0.176-0.122
					c0.457-0.291,0.971-0.561,1.596-0.666c0.31-0.051,0.648-0.063,0.98,0.016c0.332,0.07,0.646,0.219,0.897,0.41
					c0.509,0.387,0.782,0.87,0.973,1.304c0.188,0.44,0.29,0.858,0.359,1.241c0.067,0.383,0.095,0.731,0.108,1.039
					c0.016,0.308,0.007,0.574-0.003,0.793c-0.009,0.219-0.03,0.392-0.042,0.508l-0.067,0.422L279.764,148.998z"/>
			</g>
			<linearGradient id="XMLID_16_" gradientUnits="userSpaceOnUse" x1="272.1692" y1="148.1982" x2="285.2204" y2="160.2191">
				<stop  offset="0" style="stop-color:#F69353"/>
				<stop  offset="0.5" style="stop-color:#F37521"/>
				<stop  offset="1" style="stop-color:#D4622A"/>
			</linearGradient>
			<rect id="XMLID_146_" x="273.188" y="148.981" fill="url(#XMLID_16_)" width="13.695" height="12.923"/>
			<radialGradient id="XMLID_17_" cx="280.0354" cy="155.4121" r="4.6481" gradientUnits="userSpaceOnUse">
				<stop  offset="0" style="stop-color:#F7E9C6"/>
				<stop  offset="0.5" style="stop-color:#F2DB9A"/>
				<stop  offset="1" style="stop-color:#E9C44C"/>
			</radialGradient>
			<rect id="XMLID_159_" x="279.006" y="148.92" fill="url(#XMLID_17_)" width="2.06" height="12.984"/>
			<radialGradient id="XMLID_18_" cx="280.1438" cy="155.4121" r="4.9453" gradientUnits="userSpaceOnUse">
				<stop  offset="0" style="stop-color:#F7E9C6"/>
				<stop  offset="0.5" style="stop-color:#F2DB9A"/>
				<stop  offset="1" style="stop-color:#E9C44C"/>
			</radialGradient>
			<circle id="XMLID_174_" opacity="0.3" fill="url(#XMLID_18_)" cx="280.144" cy="155.412" r="4.945"/>
			<radialGradient id="XMLID_19_" cx="280.0354" cy="155.4121" r="4.8965" gradientUnits="userSpaceOnUse">
				<stop  offset="0" style="stop-color:#F7E9C6"/>
				<stop  offset="0.5" style="stop-color:#F2DB9A"/>
				<stop  offset="1" style="stop-color:#E9C44C"/>
			</radialGradient>
			<rect id="XMLID_162_" x="273.188" y="154.383" fill="url(#XMLID_19_)" width="13.695" height="2.06"/>
		</g>
	</g>
</g>
</svg>
