<?xml version="1.0" encoding="utf-8"?>
<!-- Generator: Adobe Illustrator 16.0.0, SVG Export Plug-In . SVG Version: 6.00 Build 0)  -->
<!DOCTYPE svg PUBLIC "-//W3C//DTD SVG 1.1//EN" "http://www.w3.org/Graphics/SVG/1.1/DTD/svg11.dtd">
<svg version="1.1" id="Layer_1" xmlns="http://www.w3.org/2000/svg" xmlns:xlink="http://www.w3.org/1999/xlink" x="0px" y="0px"
	 width="184.899px" height="43.798px" viewBox="-0.545 -59.033 184.899 43.798"
	 enable-background="new -0.545 -59.033 184.899 43.798" xml:space="preserve">
<g>
	<g>
		<path fill="#FFFFFF" d="M146.626-17.563c0-0.146,0.024-0.283,0.078-0.413c0.052-0.129,0.123-0.241,0.213-0.336
			c0.09-0.096,0.196-0.171,0.321-0.228s0.261-0.084,0.401-0.084s0.275,0.027,0.401,0.084s0.232,0.132,0.328,0.228
			c0.092,0.095,0.163,0.208,0.217,0.336c0.052,0.129,0.078,0.268,0.078,0.413c0,0.15-0.026,0.291-0.078,0.417
			c-0.054,0.126-0.125,0.236-0.217,0.333c-0.095,0.096-0.202,0.17-0.328,0.223c-0.126,0.054-0.261,0.08-0.401,0.08
			s-0.275-0.026-0.401-0.08c-0.126-0.053-0.231-0.127-0.321-0.223c-0.091-0.096-0.161-0.206-0.213-0.333
			C146.652-17.273,146.626-17.411,146.626-17.563z"/>
		<path fill="#FFFFFF" d="M157.86-23.648c-0.043,0.062-0.087,0.108-0.131,0.143c-0.043,0.034-0.104,0.052-0.188,0.052
			s-0.17-0.035-0.268-0.104c-0.095-0.07-0.217-0.146-0.362-0.23c-0.147-0.084-0.326-0.161-0.536-0.23
			c-0.21-0.07-0.47-0.104-0.773-0.104c-0.404,0-0.761,0.073-1.072,0.223c-0.311,0.148-0.569,0.364-0.779,0.645
			c-0.21,0.281-0.368,0.62-0.477,1.02c-0.105,0.398-0.16,0.845-0.16,1.338c0,0.517,0.059,0.976,0.173,1.376
			c0.113,0.401,0.274,0.738,0.482,1.011c0.207,0.271,0.459,0.479,0.757,0.623c0.297,0.144,0.631,0.215,1.002,0.215
			c0.354,0,0.646-0.043,0.876-0.13c0.23-0.087,0.42-0.185,0.572-0.291c0.153-0.105,0.278-0.203,0.377-0.291
			c0.098-0.087,0.196-0.13,0.294-0.13c0.125,0,0.218,0.048,0.278,0.144l0.409,0.547c-0.36,0.455-0.812,0.787-1.352,0.998
			s-1.108,0.314-1.71,0.314c-0.518,0-1-0.099-1.442-0.294c-0.444-0.196-0.831-0.48-1.158-0.854
			c-0.327-0.374-0.585-0.832-0.773-1.376c-0.188-0.544-0.282-1.164-0.282-1.86c0-0.634,0.088-1.22,0.26-1.759
			s0.423-1.003,0.753-1.394s0.735-0.693,1.223-0.913c0.485-0.219,1.042-0.327,1.669-0.327c0.578,0,1.091,0.097,1.538,0.29
			s0.843,0.467,1.188,0.82L157.86-23.648z"/>
		<path fill="#FFFFFF" d="M164.84-25.298c0.604,0,1.15,0.104,1.641,0.313c0.488,0.208,0.903,0.502,1.244,0.884
			s0.604,0.843,0.786,1.385s0.274,1.146,0.274,1.813c0,0.674-0.093,1.279-0.274,1.817c-0.182,0.539-0.445,0.999-0.786,1.381
			s-0.756,0.675-1.244,0.879c-0.488,0.205-1.035,0.308-1.641,0.308c-0.606,0-1.153-0.103-1.643-0.308
			c-0.486-0.205-0.902-0.498-1.248-0.879c-0.344-0.382-0.606-0.843-0.793-1.381c-0.186-0.538-0.276-1.145-0.276-1.817
			c0-0.667,0.093-1.271,0.276-1.813c0.187-0.542,0.45-1.003,0.793-1.385c0.346-0.382,0.762-0.677,1.248-0.884
			C163.688-25.194,164.234-25.298,164.84-25.298z M164.84-17.69c0.816,0,1.429-0.282,1.833-0.847
			c0.404-0.563,0.604-1.352,0.604-2.36c0-1.016-0.202-1.808-0.604-2.373c-0.403-0.567-1.017-0.851-1.833-0.851
			c-0.415,0-0.775,0.072-1.08,0.219c-0.306,0.146-0.563,0.355-0.765,0.632c-0.204,0.274-0.357,0.612-0.458,1.014
			c-0.103,0.401-0.151,0.854-0.151,1.359s0.05,0.957,0.151,1.354c0.101,0.397,0.254,0.733,0.458,1.006
			c0.203,0.271,0.459,0.48,0.765,0.627S164.426-17.69,164.84-17.69z"/>
		<path fill="#FFFFFF" d="M172.221-16.638v-8.524h0.868c0.207,0,0.338,0.104,0.393,0.312l0.106,0.875
			c0.305-0.388,0.646-0.704,1.025-0.951c0.381-0.247,0.819-0.37,1.321-0.37c0.563,0,1.018,0.16,1.363,0.479
			c0.346,0.32,0.596,0.752,0.749,1.297c0.115-0.31,0.266-0.575,0.454-0.801c0.188-0.225,0.397-0.408,0.634-0.556
			c0.234-0.146,0.484-0.253,0.749-0.319s0.533-0.102,0.806-0.102c0.438,0,0.825,0.071,1.166,0.215
			c0.341,0.143,0.63,0.354,0.867,0.627c0.237,0.274,0.418,0.612,0.544,1.014c0.125,0.401,0.188,0.86,0.188,1.376v5.429h-1.457
			v-5.429c0-0.668-0.144-1.174-0.427-1.521c-0.282-0.345-0.694-0.518-1.234-0.518c-0.24,0-0.468,0.043-0.685,0.13
			c-0.215,0.087-0.403,0.215-0.567,0.383s-0.293,0.38-0.391,0.636c-0.095,0.255-0.143,0.551-0.143,0.888v5.429h-1.457v-5.429
			c0-0.686-0.134-1.194-0.401-1.531c-0.267-0.337-0.655-0.505-1.17-0.505c-0.358,0-0.692,0.1-1.002,0.299
			c-0.309,0.198-0.591,0.47-0.847,0.813v6.354h-1.456v0.001H172.221z"/>
	</g>
	<polygon fill="#FFFFFF" points="69.755,-58.384 69.755,-58.434 69.746,-58.434 	"/>
	<path fill="#FFFFFF" d="M65.835-55.252v4.102H59.46v-7.283h-0.714c-1.104,0.138-3.038,0.71-3.207,2.99v14.473h3.921v-7.038h6.375
		v7.038h3.921v-17.413C69.755-58.384,65.997-58.549,65.835-55.252z"/>
	<path fill="#FFFFFF" d="M84.189-42.824c-0.086-0.502-0.13-1.047-0.13-1.62v-5.2c0-1.495-0.504-2.664-1.499-3.474
		c-0.979-0.795-2.269-1.199-3.836-1.199c-1.635,0-2.983,0.408-4.007,1.214c-1.047,0.823-1.549,1.822-1.49,2.971l0.096,0.319h3.723
		v-0.261c0-0.392,0.118-0.688,0.358-0.903c0.249-0.223,0.618-0.334,1.102-0.334c0.551,0,0.965,0.141,1.229,0.419
		c0.27,0.28,0.404,0.693,0.404,1.228v0.738h-1.646c-1.868,0-3.319,0.358-4.311,1.066c-1.019,0.729-1.535,1.765-1.535,3.081
		c0,1.24,0.388,2.238,1.152,2.965c0.76,0.723,1.846,1.09,3.229,1.09c0.844,0,1.582-0.22,2.198-0.652
		c0.417-0.292,0.78-0.641,1.085-1.04c0.027,0.117,0.056,0.234,0.088,0.35c0.092,0.328,0.203,0.645,0.332,0.94l0.068,0.158h3.937
		l-0.134-0.354C84.413-41.82,84.274-42.323,84.189-42.824z M80.137-45.025c-0.154,0.318-0.434,0.607-0.833,0.86
		c-0.419,0.267-0.905,0.4-1.442,0.4c-0.419,0-0.744-0.104-0.968-0.31c-0.221-0.203-0.328-0.473-0.328-0.824
		c0-0.45,0.154-0.818,0.475-1.128c0.314-0.306,0.805-0.461,1.45-0.461h1.646V-45.025z"/>
	<path fill="#FFFFFF" d="M87.448-55.971v15h3.923v-18.063h-0.742C89.527-58.896,87.578-58.315,87.448-55.971z"/>
	<path fill="#FFFFFF" d="M100.489-54.315c-1.924,0-3.455,0.635-4.548,1.887c-1.085,1.242-1.636,2.853-1.636,4.785v0.245
		c0,1.949,0.553,3.563,1.642,4.798c1.1,1.244,2.635,1.874,4.565,1.874c1.923,0,3.456-0.63,4.553-1.874
		c1.089-1.233,1.643-2.85,1.643-4.798v-0.245c0-1.94-0.556-3.555-1.647-4.792C103.957-53.682,102.42-54.315,100.489-54.315z
		 M102.786-47.399c0,1.087-0.193,1.971-0.575,2.625c-0.36,0.617-0.916,0.917-1.699,0.917c-0.807,0-1.372-0.299-1.729-0.911
		c-0.377-0.649-0.567-1.536-0.567-2.631v-0.245c0-1.058,0.192-1.932,0.576-2.599c0.358-0.628,0.916-0.934,1.696-0.934
		c0.791,0,1.354,0.305,1.719,0.93c0.385,0.661,0.581,1.538,0.581,2.603L102.786-47.399L102.786-47.399z"/>
	<path fill="#FFFFFF" d="M116.594-54.315c-0.803,0-1.541,0.191-2.19,0.57c-0.453,0.264-0.857,0.604-1.212,1.018l-0.112-1.354h-3.667
		v13.111h3.921v-9.283c0.214-0.267,0.482-0.481,0.802-0.64c0.346-0.171,0.755-0.258,1.216-0.258c0.552,0,0.948,0.153,1.212,0.471
		c0.272,0.326,0.41,0.914,0.41,1.746v7.963h3.933v-7.976c0-1.824-0.382-3.188-1.135-4.052
		C119.008-53.871,117.94-54.315,116.594-54.315z"/>
	<path fill="#FFFFFF" d="M131.869-52.869c-0.319-0.383-0.684-0.692-1.082-0.933c-0.573-0.341-1.245-0.514-1.995-0.514
		c-1.644,0-2.937,0.65-3.846,1.937c-0.889,1.259-1.34,2.927-1.34,4.957v0.245c0,1.911,0.453,3.476,1.347,4.648
		c0.907,1.195,2.19,1.802,3.813,1.802c0.689,0,1.313-0.135,1.85-0.398c0.341-0.167,0.652-0.384,0.938-0.646v0.47
		c0,0.74-0.192,1.284-0.569,1.618c-0.387,0.343-1.02,0.517-1.88,0.517c-0.621,0-1.206-0.063-1.739-0.186
		c-0.53-0.123-1.056-0.307-1.556-0.545l-0.297-0.142l-0.687,3.058l0.183,0.092c0.621,0.311,1.304,0.559,2.034,0.734
		c0.729,0.18,1.432,0.27,2.086,0.27c1.97,0,3.534-0.472,4.646-1.403c1.128-0.944,1.7-2.29,1.7-4v-12.793h-3.404L131.869-52.869z
		 M131.554-44.821c-0.188,0.295-0.426,0.517-0.729,0.675c-0.318,0.169-0.724,0.254-1.196,0.254c-0.744,0-1.264-0.269-1.583-0.818
		c-0.343-0.588-0.519-1.418-0.519-2.468v-0.246c0-1.139,0.184-2.068,0.541-2.765c0.334-0.649,0.854-0.964,1.583-0.964
		c0.455,0,0.849,0.095,1.165,0.278c0.3,0.174,0.547,0.423,0.736,0.739L131.554-44.821L131.554-44.821z"/>
	<path fill="#FFFFFF" d="M170.005-42.824c-0.086-0.502-0.129-1.047-0.129-1.62v-5.2c0-1.495-0.505-2.664-1.499-3.474
		c-0.979-0.795-2.271-1.199-3.836-1.199c-1.637,0-2.983,0.408-4.009,1.214c-1.047,0.823-1.549,1.822-1.488,2.971l0.096,0.319h3.72
		v-0.261c0-0.392,0.118-0.688,0.361-0.903c0.248-0.223,0.617-0.334,1.099-0.334c0.552,0,0.964,0.141,1.229,0.419
		c0.269,0.28,0.404,0.693,0.404,1.228v0.738h-1.646c-1.871,0-3.32,0.358-4.311,1.066c-1.021,0.729-1.535,1.765-1.535,3.081
		c0,1.24,0.388,2.238,1.15,2.965c0.761,0.723,1.848,1.09,3.229,1.09c0.843,0,1.582-0.22,2.198-0.652
		c0.417-0.292,0.778-0.641,1.086-1.04c0.024,0.117,0.055,0.234,0.088,0.35c0.092,0.328,0.203,0.645,0.332,0.94l0.067,0.158h3.938
		l-0.134-0.354C170.23-41.82,170.091-42.323,170.005-42.824z M165.954-45.025c-0.154,0.318-0.436,0.607-0.832,0.86
		c-0.419,0.267-0.905,0.4-1.442,0.4c-0.418,0-0.745-0.104-0.968-0.31c-0.223-0.203-0.328-0.473-0.328-0.824
		c0-0.45,0.155-0.818,0.473-1.128c0.316-0.306,0.803-0.461,1.452-0.461h1.646L165.954-45.025L165.954-45.025z"/>
	<path fill="#FFFFFF" d="M180.138-54.082l-2.212,7.354l-2.145-7.354h-4.22l4.561,12.832l-0.36,0.887
		c-0.147,0.372-0.359,0.687-0.631,0.933c-0.251,0.229-0.626,0.345-1.115,0.345c-0.083,0-0.176-0.007-0.279-0.021l-0.579-0.086
		l-0.475,2.975l0.234,0.058c0.354,0.086,0.653,0.152,0.902,0.2c0.26,0.05,0.543,0.074,0.848,0.074c1.292,0,2.28-0.337,2.941-1.002
		c0.634-0.64,1.145-1.435,1.518-2.373l5.229-14.82L180.138-54.082L180.138-54.082z"/>
	<path fill="#FFFFFF" d="M155.358-48.846c-0.444-0.603-1.063-1.036-1.843-1.295c0.513-0.305,0.926-0.692,1.235-1.163
		c0.43-0.652,0.646-1.401,0.646-2.227c0-1.62-0.602-2.859-1.788-3.688c-1.154-0.808-2.774-1.216-4.813-1.216h-4.241
		c-0.813,0.441-1.528,1.238-1.565,2.688c-0.002-0.006-0.003-0.01-0.005-0.015v14.789h6.813c2.013,0,3.598-0.438,4.71-1.307
		c1.132-0.881,1.706-2.189,1.706-3.889C156.212-47.18,155.925-48.081,155.358-48.846z M146.906-55.291h1.892
		c0.914,0,1.603,0.17,2.047,0.505c0.427,0.322,0.634,0.821,0.634,1.523c0,0.633-0.206,1.099-0.629,1.421
		c-0.44,0.335-1.091,0.505-1.936,0.505h-2.008V-55.291z M151.688-44.628c-0.421,0.351-1.058,0.527-1.892,0.527h-2.893v-4.362h2.856
		c0.864,0,1.512,0.199,1.925,0.592c0.415,0.395,0.616,0.951,0.616,1.706C152.303-45.473,152.102-44.971,151.688-44.628z"/>
	<g>
		<path fill="#FFFFFF" d="M67.281-20.271c0.124,0,0.236,0.051,0.339,0.15l0.882,0.963c-0.683,0.79-1.507,1.404-2.479,1.847
			c-0.971,0.44-2.142,0.662-3.511,0.662c-1.2,0-2.287-0.207-3.262-0.621c-0.977-0.414-1.809-0.995-2.496-1.741
			c-0.688-0.747-1.225-1.644-1.604-2.688s-0.567-2.193-0.567-3.446c0-1.254,0.203-2.403,0.607-3.448
			c0.406-1.044,0.979-1.941,1.712-2.692c0.735-0.75,1.615-1.333,2.643-1.747c1.023-0.414,2.157-0.621,3.395-0.621
			c1.225,0,2.277,0.189,3.164,0.568c0.886,0.38,1.673,0.895,2.362,1.545l-0.731,1.032c-0.055,0.077-0.114,0.142-0.186,0.19
			c-0.07,0.051-0.17,0.076-0.302,0.076c-0.103,0-0.207-0.037-0.319-0.109c-0.112-0.073-0.246-0.165-0.4-0.272
			c-0.152-0.107-0.336-0.225-0.545-0.349s-0.457-0.24-0.743-0.349c-0.284-0.107-0.617-0.198-0.998-0.272
			c-0.379-0.072-0.814-0.109-1.312-0.109c-0.89,0-1.705,0.152-2.443,0.458c-0.737,0.307-1.376,0.74-1.908,1.307
			c-0.534,0.564-0.95,1.253-1.248,2.065c-0.3,0.813-0.447,1.722-0.447,2.729c0,1.036,0.147,1.961,0.447,2.773
			c0.298,0.813,0.702,1.5,1.219,2.062c0.514,0.562,1.124,0.988,1.828,1.282s1.462,0.44,2.273,0.44c0.495,0,0.94-0.028,1.335-0.087
			c0.396-0.058,0.762-0.148,1.099-0.272c0.336-0.124,0.648-0.279,0.938-0.47c0.29-0.189,0.582-0.416,0.876-0.68
			C67.031-20.213,67.157-20.271,67.281-20.271z"/>
		<path fill="#FFFFFF" d="M73.458-16.835v-11.759h1.184c0.225,0,0.379,0.043,0.464,0.128s0.145,0.231,0.174,0.44l0.141,1.835
			c0.4-0.82,0.897-1.461,1.492-1.922c0.592-0.46,1.284-0.69,2.083-0.69c0.323,0,0.617,0.037,0.882,0.109
			c0.263,0.074,0.507,0.177,0.729,0.309l-0.267,1.544c-0.054,0.193-0.174,0.29-0.359,0.29c-0.106,0-0.273-0.037-0.5-0.109
			c-0.224-0.073-0.538-0.109-0.938-0.109c-0.722,0-1.322,0.209-1.807,0.626c-0.482,0.418-0.888,1.025-1.213,1.822v7.486H73.458z"/>
		<path fill="#FFFFFF" d="M86.923-28.594v7.499c0,0.891,0.205,1.579,0.615,2.065c0.408,0.486,1.027,0.73,1.855,0.73
			c0.604,0,1.172-0.143,1.707-0.43c0.534-0.286,1.025-0.686,1.474-1.196v-8.67h2.066v11.759h-1.229c-0.296,0-0.479-0.143-0.559-0.43
			l-0.163-1.266c-0.511,0.564-1.083,1.021-1.718,1.363c-0.635,0.344-1.362,0.519-2.182,0.519c-0.645,0-1.209-0.106-1.701-0.319
			c-0.491-0.213-0.903-0.513-1.236-0.899c-0.333-0.388-0.582-0.854-0.749-1.403c-0.167-0.55-0.25-1.157-0.25-1.823v-7.499H86.923z"
			/>
		<path fill="#FFFFFF" d="M102.663-28.594v11.759h-2.066v-11.759H102.663z"/>
		<path fill="#FFFFFF" d="M115.361-26.655c-0.093,0.17-0.234,0.256-0.43,0.256c-0.116,0-0.248-0.043-0.395-0.128
			c-0.147-0.085-0.327-0.18-0.54-0.284c-0.215-0.104-0.468-0.201-0.762-0.29s-0.643-0.134-1.045-0.134
			c-0.348,0-0.662,0.045-0.938,0.134c-0.279,0.089-0.519,0.211-0.714,0.365c-0.198,0.155-0.35,0.335-0.453,0.54
			c-0.104,0.205-0.157,0.429-0.157,0.667c0,0.303,0.087,0.555,0.262,0.756c0.174,0.2,0.404,0.375,0.69,0.521
			c0.286,0.147,0.609,0.277,0.975,0.39c0.364,0.112,0.737,0.231,1.12,0.359s0.756,0.27,1.12,0.424s0.688,0.35,0.975,0.581
			c0.286,0.231,0.519,0.518,0.69,0.854c0.174,0.337,0.261,0.74,0.261,1.213c0,0.542-0.097,1.043-0.29,1.503
			c-0.192,0.46-0.479,0.858-0.857,1.195c-0.381,0.337-0.846,0.603-1.395,0.796c-0.549,0.192-1.184,0.29-1.904,0.29
			c-0.818,0-1.563-0.134-2.229-0.4c-0.666-0.266-1.23-0.608-1.695-1.026l0.488-0.789c0.062-0.102,0.135-0.178,0.22-0.231
			c0.085-0.055,0.198-0.081,0.337-0.081c0.141,0,0.286,0.055,0.441,0.163s0.342,0.229,0.563,0.359
			c0.223,0.132,0.488,0.251,0.803,0.359c0.313,0.108,0.707,0.162,1.178,0.162c0.402,0,0.755-0.052,1.057-0.155
			c0.304-0.104,0.555-0.246,0.754-0.425c0.201-0.178,0.352-0.383,0.447-0.614c0.097-0.231,0.146-0.479,0.146-0.743
			c0-0.324-0.087-0.594-0.263-0.808c-0.174-0.212-0.402-0.395-0.688-0.545c-0.287-0.15-0.613-0.281-0.981-0.396
			c-0.368-0.112-0.743-0.229-1.126-0.354s-0.758-0.265-1.126-0.424s-0.693-0.357-0.979-0.599c-0.286-0.239-0.519-0.535-0.69-0.888
			c-0.174-0.353-0.261-0.779-0.261-1.283c0-0.448,0.093-0.88,0.279-1.294c0.186-0.414,0.455-0.776,0.813-1.091
			c0.355-0.313,0.793-0.563,1.313-0.749c0.519-0.187,1.108-0.278,1.774-0.278c0.774,0,1.468,0.122,2.083,0.366
			s1.147,0.579,1.597,1.004L115.361-26.655z"/>
		<path fill="#FFFFFF" d="M125.681-28.779c0.704,0,1.354,0.118,1.95,0.354c0.596,0.236,1.108,0.577,1.543,1.021
			c0.433,0.445,0.771,0.995,1.016,1.647c0.245,0.653,0.366,1.398,0.366,2.234c0,0.324-0.035,0.542-0.104,0.649
			c-0.069,0.107-0.201,0.162-0.396,0.162h-7.824c0.018,0.743,0.116,1.39,0.302,1.938c0.188,0.55,0.441,1.008,0.768,1.375
			s0.712,0.643,1.161,0.823c0.446,0.183,0.952,0.272,1.509,0.272c0.519,0,0.965-0.061,1.341-0.18c0.375-0.12,0.698-0.25,0.969-0.39
			c0.271-0.14,0.497-0.27,0.681-0.39c0.182-0.12,0.338-0.18,0.47-0.18c0.17,0,0.302,0.065,0.395,0.196l0.581,0.754
			c-0.255,0.311-0.561,0.579-0.917,0.808c-0.354,0.229-0.735,0.417-1.143,0.563c-0.406,0.146-0.826,0.259-1.26,0.331
			c-0.436,0.072-0.863,0.109-1.289,0.109c-0.813,0-1.563-0.138-2.246-0.412c-0.687-0.273-1.277-0.677-1.776-1.207
			c-0.499-0.529-0.888-1.186-1.167-1.968c-0.277-0.781-0.418-1.679-0.418-2.692c0-0.819,0.125-1.587,0.377-2.299
			c0.251-0.712,0.613-1.329,1.085-1.852c0.474-0.522,1.049-0.934,1.73-1.23C124.063-28.63,124.829-28.779,125.681-28.779z
			 M125.727-27.259c-0.999,0-1.784,0.289-2.354,0.865c-0.573,0.576-0.931,1.375-1.068,2.396h6.396c0-0.479-0.063-0.918-0.195-1.316
			c-0.131-0.398-0.325-0.743-0.58-1.033s-0.567-0.515-0.937-0.673C126.619-27.179,126.198-27.259,125.727-27.259z"/>
		<path fill="#FFFFFF" d="M142.244-26.655c-0.095,0.17-0.236,0.256-0.431,0.256c-0.116,0-0.248-0.043-0.395-0.128
			c-0.147-0.085-0.327-0.18-0.54-0.284s-0.466-0.201-0.76-0.29c-0.296-0.089-0.645-0.134-1.047-0.134
			c-0.348,0-0.659,0.045-0.938,0.134s-0.519,0.211-0.714,0.365c-0.197,0.155-0.35,0.335-0.453,0.54
			c-0.104,0.205-0.157,0.429-0.157,0.667c0,0.303,0.087,0.555,0.261,0.756c0.176,0.2,0.404,0.375,0.69,0.521
			c0.286,0.147,0.611,0.277,0.975,0.39c0.364,0.112,0.737,0.231,1.12,0.359s0.756,0.27,1.12,0.424s0.689,0.35,0.977,0.581
			c0.284,0.231,0.517,0.518,0.688,0.854c0.174,0.337,0.262,0.74,0.262,1.213c0,0.542-0.097,1.043-0.291,1.503
			c-0.192,0.46-0.479,0.858-0.857,1.195s-0.845,0.603-1.395,0.796c-0.549,0.192-1.184,0.29-1.902,0.29
			c-0.82,0-1.563-0.134-2.229-0.4c-0.666-0.266-1.229-0.608-1.694-1.026l0.487-0.789c0.063-0.102,0.135-0.178,0.221-0.231
			c0.085-0.055,0.197-0.081,0.338-0.081c0.139,0,0.284,0.055,0.439,0.163s0.343,0.229,0.563,0.359
			c0.22,0.131,0.486,0.251,0.801,0.359c0.313,0.109,0.706,0.162,1.178,0.162c0.402,0,0.755-0.052,1.057-0.155
			c0.304-0.104,0.555-0.246,0.756-0.425c0.199-0.178,0.35-0.383,0.445-0.614c0.099-0.231,0.146-0.479,0.146-0.743
			c0-0.324-0.087-0.594-0.262-0.808c-0.176-0.212-0.404-0.395-0.69-0.545c-0.286-0.149-0.613-0.281-0.981-0.396
			c-0.366-0.112-0.741-0.229-1.126-0.354c-0.383-0.124-0.758-0.265-1.125-0.424c-0.366-0.159-0.693-0.357-0.979-0.599
			c-0.286-0.239-0.518-0.535-0.69-0.888c-0.174-0.353-0.261-0.779-0.261-1.283c0-0.448,0.093-0.88,0.279-1.294
			c0.186-0.414,0.457-0.776,0.813-1.091c0.356-0.313,0.793-0.563,1.313-0.749c0.519-0.187,1.108-0.278,1.774-0.278
			c0.773,0,1.47,0.122,2.083,0.366c0.615,0.244,1.147,0.579,1.598,1.004L142.244-26.655z"/>
	</g>
	<ellipse fill="#FFFFFF" cx="48.17" cy="-36.81" rx="0.25" ry="21.574"/>
	<g>
		<path fill="#FFFFFF" d="M100.42-30.342h2.243v-2.035h-0.425C101.609-32.284,100.491-31.9,100.42-30.342z"/>
	</g>
	<g>
		<g>
			<path id="SVGID_56_" fill="#4FA8B1" d="M-0.545-46.347l11.437,0.131l-0.085-11.507C10.806-57.723-0.195-57.279-0.545-46.347"/>
		</g>
		<g>
			<path id="SVGID_55_" fill="#99CBD0" d="M-0.545-31.555l11.437,0.131l-0.084-11.509C10.806-42.933-0.193-42.485-0.545-31.555"/>
		</g>
		<g>
			<path id="SVGID_54_" fill="#B2D7DB" d="M-0.54-16.467l11.437,0.132l-0.086-11.509C10.811-27.844-0.189-27.397-0.54-16.467"/>
		</g>
		<g>
			<path id="SVGID_53_" fill="#B2D7DB" d="M14.703-31.539l11.434,0.131l-0.083-11.507C26.054-42.915,15.052-42.468,14.703-31.539"/>
		</g>
		<g>
			<path id="SVGID_52_" fill="#B2D7DB" d="M29.945-46.796l11.437,0.135L41.295-58.17C41.295-58.17,30.295-57.725,29.945-46.796"/>
		</g>
		<g>
			<path id="SVGID_51_" fill="#E2EFF0" d="M29.776-31.542l11.435,0.133l-0.085-11.506C41.127-42.915,30.127-42.468,29.776-31.542"/>
		</g>
		<g>
			<path id="SVGID_50_" fill="#FDFEFF" d="M29.964-16.342l11.435,0.103l-0.113-11.508C41.285-27.746,30.284-27.271,29.964-16.342"/>
		</g>
	</g>
</g>
</svg>
