<?xml version="1.0" encoding="utf-8"?>
<!-- Generator: Adobe Illustrator 16.0.0, SVG Export Plug-In . SVG Version: 6.00 Build 0)  -->
<!DOCTYPE svg PUBLIC "-//W3C//DTD SVG 1.1//EN" "http://www.w3.org/Graphics/SVG/1.1/DTD/svg11.dtd">
<svg version="1.1" id="Layer_1" xmlns="http://www.w3.org/2000/svg" xmlns:xlink="http://www.w3.org/1999/xlink" x="0px" y="0px"
	 width="159px" height="160px" viewBox="0 0 159 160" enable-background="new 0 0 159 160" xml:space="preserve">
<g>
	<path fill="#FFFFFF" d="M2.545,79.041c0.016-42.499,34.481-76.94,76.98-76.924c42.5,0.015,76.94,34.48,76.924,76.981
		c-0.006,18.591-6.743,36.552-18.966,50.562h2.096c27.979-33.184,23.762-82.762-9.421-110.742
		C96.979-9.063,47.397-4.844,19.417,28.337c-24.677,29.268-24.677,72.054,0,101.322h2.097C9.268,115.64,2.528,97.653,2.545,79.041
		 M4.295,79.041C4.308,37.507,37.988,3.848,79.522,3.861c41.535,0.014,75.194,33.694,75.18,75.229
		c-0.006,18.701-6.981,36.732-19.564,50.57h1.092c27.98-31.34,25.258-79.425-6.082-107.405C98.811-5.724,50.724-3.002,22.744,28.336
		c-25.768,28.86-25.768,72.461,0,101.323h1.113C11.255,115.813,4.28,97.761,4.295,79.041 M20.879,136.702l-2.444,0.848v3.193h-2.743
		v2.139h2.637v6.877c0,3.264,1.112,4.596,3.836,4.596c0.67,0.002,1.337-0.086,1.985-0.258h0.099v-2.219l-0.188,0.068
		c-0.409,0.164-0.842,0.258-1.282,0.279c-1.281,0-1.75-0.727-1.75-2.68v-6.637h3.13v-2.139h-3.121v-4.07h-0.159V136.702z
		 M38.921,140.753h-2.573v13.383h2.713v-13.383h-0.139H38.921z M36.089,136.833c0.001,0.893,0.728,1.619,1.622,1.617
		c0.896,0,1.619-0.729,1.619-1.621c-0.002-0.895-0.727-1.619-1.621-1.619H37.7C36.809,135.216,36.089,135.94,36.089,136.833
		 M29.294,142.919v-2.168h-2.455v13.385h2.681v-6.715c0-2.818,1.182-4.369,3.328-4.369c0.336,0.004,0.67,0.055,0.993,0.15
		l0.179,0.049l0.09-2.646l-1.163-0.09c-1.584,0.006-3.013,0.951-3.637,2.408 M48.628,140.438c-1.819-0.01-3.512,0.934-4.461,2.486
		v-2.168h-2.423v18.836h2.712v-7.305c0.946,1.33,2.492,2.102,4.124,2.061c3.428,0,5.644-2.816,5.644-7.166
		c0-4.027-2.226-6.75-5.544-6.75 M47.934,152.155c-2.156,0-3.474-1.84-3.474-4.797c0-2.955,1.399-4.676,3.573-4.676
		c2.173,0,3.35,1.742,3.35,4.658c0,2.914-1.321,4.816-3.447,4.816 M62.092,140.438c-1.537-0.014-3.057,0.326-4.441,0.992h-0.08
		v2.318l0.208-0.119c1.08-0.66,2.311-1.029,3.574-1.074c1.544-0.178,2.94,0.93,3.119,2.475c0.024,0.209,0.025,0.42,0.002,0.629
		v0.109h-1.547c-4.467,0-6.955,1.623-6.955,4.557c-0.011,2.197,1.762,3.984,3.958,3.994c0.001,0,0.001,0,0.001,0
		c0.117,0,0.235,0,0.352-0.014c1.707,0.061,3.333-0.729,4.342-2.109v1.932h2.442v-8.1c0-3.713-1.68-5.604-4.963-5.604
		 M64.486,148.485c0,2.299-1.39,3.791-3.537,3.791c-1.138,0.088-2.132-0.766-2.22-1.904l0,0c-0.004-0.064-0.006-0.131-0.006-0.197
		c0-1.623,1.551-2.518,4.362-2.518h1.4v0.824V148.485z M78.614,134.366v8.209c-0.934-1.385-2.514-2.191-4.182-2.137
		c-3.31,0-5.535,2.736-5.535,6.795c0,4.061,2.256,7.115,5.485,7.115c1.827,0.049,3.534-0.91,4.441-2.498v2.285h2.503v-19.771h-2.713
		V134.366z M75.087,152.099c-2.066,0-3.348-1.803-3.348-4.707c0-2.906,1.29-4.787,3.299-4.787c2.245,0,3.573,1.791,3.573,4.787
		c0,2.994-1.38,4.707-3.526,4.707 M93.435,140.755l-3.84,7.723l-3.558-7.721h-3.051l6.551,13.381l6.737-13.381h-2.836
		L93.435,140.755z M100.212,140.755h-2.561v13.381h2.714v-13.383h-0.145L100.212,140.755z M97.38,136.833
		c0.001,0.895,0.727,1.619,1.622,1.619c0.894-0.002,1.619-0.729,1.617-1.623c0-0.895-0.726-1.617-1.619-1.617
		c-0.896,0-1.62,0.725-1.62,1.619C97.38,136.833,97.38,136.833,97.38,136.833 M103.534,144.187c0,1.887,1.29,2.879,3.673,4.039
		c1.51,0.738,2.295,1.176,2.295,2.221c0,1.043-0.992,1.76-2.464,1.76c-1.185-0.029-2.348-0.326-3.398-0.875l-0.197-0.09l-0.1,2.383
		h0.09c1.112,0.439,2.299,0.666,3.496,0.666c3.309,0,5.459-1.582,5.459-4.029c0-2.049-1.36-3.086-3.705-4.18
		c-1.729-0.805-2.443-1.283-2.443-2.139s0.804-1.344,2.046-1.344c1.125,0,2.236,0.256,3.249,0.746l0.189,0.09l0.129-2.309h-0.118
		c-1.066-0.32-2.174-0.488-3.289-0.496c-2.978,0-4.967,1.443-4.967,3.594 M120.85,140.442c-4.07,0-6.599,2.686-6.599,6.965
		c0,4.277,2.524,6.965,6.599,6.965c4.073,0,6.637-2.68,6.637-6.965S124.942,140.442,120.85,140.442 M120.85,152.243
		c-2.247,0-3.756-1.99-3.756-4.816s1.509-4.836,3.756-4.836c2.246,0,3.765,1.891,3.765,4.836S123.145,152.243,120.85,152.243
		 M132.481,142.919v-2.168H130v13.385h2.713v-6.715c0-2.818,1.182-4.369,3.317-4.369c0.337,0.004,0.671,0.055,0.992,0.15l0.18,0.049
		l0.089-2.646l-1.162-0.09c-1.584,0.006-3.013,0.953-3.636,2.408 M143.729,140.157c0.443,0.453,0.687,1.066,0.676,1.701
		c0.006,0.65-0.256,1.273-0.725,1.723c-0.454,0.443-1.064,0.691-1.699,0.693c-0.65,0.004-1.273-0.264-1.719-0.734
		c-0.443-0.449-0.692-1.053-0.695-1.682c0.002-0.656,0.267-1.283,0.735-1.742c0.444-0.447,1.05-0.693,1.679-0.686
		c0.658-0.01,1.29,0.254,1.749,0.725 M140.611,140.425c-0.385,0.377-0.6,0.895-0.597,1.434c-0.005,0.514,0.195,1.008,0.556,1.371
		c0.37,0.385,0.88,0.604,1.411,0.607c0.523-0.004,1.026-0.211,1.402-0.576c0.379-0.367,0.591-0.875,0.585-1.402
		c0.006-1.084-0.87-1.969-1.954-1.973c-0.527-0.002-1.033,0.207-1.403,0.582 M142.032,140.468c0.755,0,1.151,0.279,1.151,0.777
		c0.003,0.346-0.238,0.645-0.575,0.715l0.595,1.176h-0.796l-0.496-1.055h-0.22v1.055h-0.725v-2.668h1.073H142.032z M141.684,141.642
		h0.27c0.317,0,0.477-0.109,0.477-0.338s-0.17-0.367-0.527-0.367h-0.219V141.642z M105.452,127.864
		c-8.383,3.125-17.711-1.137-20.836-9.52c-0.003-0.008-0.006-0.016-0.009-0.023l-0.021-0.061c-3.087-8.4,1.224-17.715,9.626-20.801
		s17.716,1.223,20.801,9.625c3.078,8.379-1.196,17.668-9.563,20.779 M79.617,111.089c-0.752-10.457-9.348-18.619-19.83-18.83
		c6.244-2.604,12.95-3.912,19.713-3.852c6.765-0.086,13.472,1.271,19.673,3.98c-7.68,0.213-14.573,4.762-17.786,11.742
		c-0.995,2.199-1.599,4.557-1.786,6.965 M59.38,128.786c-8.964,0.018-16.245-7.234-16.264-16.195
		c-0.019-8.963,7.232-16.246,16.196-16.264c8.963-0.02,16.245,7.232,16.263,16.195c0,0.008,0,0.016,0,0.023v0.021
		C75.571,121.513,68.328,128.769,59.38,128.786 M118.882,105.601c-0.671-1.816-1.602-3.525-2.763-5.074
		c0.843-2.92,2.187-5.67,3.971-8.129h-13.517c-8.103-5.084-17.509-7.701-27.074-7.533c-10.612,0-20.189,2.68-27.741,7.621H39.061
		c1.777,2.436,3.119,5.158,3.971,8.051c-6.672,9.004-4.783,21.709,4.22,28.381c8.783,6.512,21.146,4.891,27.955-3.664l4.292,6.469
		l4.361-6.537c6.936,8.811,19.701,10.334,28.514,3.4c6.926-5.451,9.545-14.748,6.481-23.014 M36.089,136.833
		c0.001,0.893,0.728,1.619,1.622,1.617c0.896,0,1.619-0.729,1.619-1.621c-0.002-0.895-0.727-1.619-1.621-1.619H37.7
		C36.809,135.216,36.089,135.94,36.089,136.833 M59.119,109.005c-1.869-0.008-3.389,1.498-3.397,3.367
		c-0.009,1.869,1.5,3.389,3.368,3.398c1.867,0.008,3.389-1.5,3.397-3.369c0,0,0-0.002,0-0.004v-0.01
		C62.491,110.522,60.983,109.009,59.119,109.005C59.119,109.005,59.119,109.005,59.119,109.005 M99.795,109.005
		c-1.868-0.008-3.389,1.5-3.396,3.369c-0.008,1.867,1.501,3.389,3.369,3.396s3.39-1.5,3.397-3.369c0-0.002,0-0.002,0-0.004v-0.01
		c0.004-1.861-1.499-3.375-3.359-3.383H99.795 M59.13,118.964c-3.632,0.012-6.586-2.924-6.597-6.557s2.924-6.586,6.558-6.598
		c3.631-0.01,6.586,2.926,6.597,6.559c0,0.002,0,0.006,0,0.01v0.01C65.679,116.009,62.752,118.944,59.13,118.964 M59.13,102.347
		c-5.545-0.018-10.054,4.463-10.073,10.006c-0.019,5.545,4.461,10.055,10.005,10.074c5.545,0.018,10.055-4.461,10.074-10.006
		c0-0.006,0-0.01,0-0.014v-0.02C69.135,106.856,64.662,102.366,59.13,102.347 M99.797,118.964c-3.631,0.006-6.58-2.936-6.586-6.568
		c-0.005-3.631,2.937-6.58,6.568-6.586c3.634-0.004,6.582,2.938,6.586,6.568c0,0.004,0,0.006,0,0.01
		c0.003,3.629-2.937,6.574-6.566,6.576C99.798,118.964,99.798,118.964,99.797,118.964 M99.797,102.347
		c-5.545-0.012-10.049,4.471-10.062,10.016c-0.014,5.545,4.471,10.051,10.016,10.064c5.544,0.012,10.049-4.473,10.062-10.016
		c0-0.006,0-0.01,0-0.014v-0.01C109.807,106.854,105.33,102.366,99.797,102.347 M127.69,92.376c0.913,0.924,0.913,2.41,0,3.334
		c-0.449,0.432-1.047,0.674-1.67,0.678c-0.63,0-1.234-0.258-1.668-0.717c-0.913-0.91-0.915-2.387-0.005-3.299
		c0.014-0.016,0.028-0.029,0.044-0.045c0.431-0.434,1.018-0.674,1.629-0.666c0.646-0.01,1.265,0.25,1.71,0.715 M124.69,92.626
		c-0.792,0.736-0.838,1.973-0.103,2.764c0.734,0.791,1.972,0.838,2.763,0.104c0.015-0.014,0.029-0.027,0.042-0.041
		c0.373-0.363,0.58-0.863,0.576-1.383c-0.001-0.506-0.2-0.992-0.557-1.354c-0.764-0.719-1.958-0.719-2.722,0 M126.07,92.767
		c0.746,0,1.124,0.268,1.124,0.756c0.003,0.332-0.224,0.621-0.548,0.695l0.568,1.145h-0.779l-0.487-0.992h-0.208v0.992h-0.717
		v-2.688L126.07,92.767z M125.743,93.911h0.248c0.318,0,0.467-0.109,0.467-0.338c0-0.23-0.158-0.359-0.496-0.359h-0.218v0.695
		L125.743,93.911z M36.845,62.054c-0.867,0.021-1.726-0.17-2.503-0.556c-0.717-0.36-1.314-0.92-1.72-1.612
		c-0.821-1.529-0.821-3.368,0-4.896c0.409-0.719,1.012-1.309,1.739-1.701c0.795-0.432,1.689-0.646,2.593-0.628
		c0.513,0.004,1.024,0.071,1.521,0.198c0.468,0.112,0.917,0.295,1.331,0.541l-0.308,1.551c-0.774-0.412-1.636-0.637-2.514-0.654
		c-0.55-0.01-1.094,0.12-1.581,0.378c-0.459,0.242-0.838,0.611-1.092,1.064c-0.275,0.499-0.413,1.062-0.399,1.632
		c-0.042,0.826,0.26,1.633,0.834,2.229c0.618,0.567,1.437,0.866,2.275,0.825c0.45-0.006,0.896-0.065,1.331-0.181
		c0.462-0.115,0.908-0.287,1.331-0.506l0.188,1.588c-0.438,0.242-0.908,0.424-1.394,0.539c-0.527,0.128-1.068,0.191-1.61,0.189
		 M41.389,52.823h6.022v1.532h-4.246v2.189h3.751v1.521h-3.751v2.339h4.41v1.543h-6.19v-9.126L41.389,52.823z M50.967,57.21h0.893
		c1.252,0,1.887-0.486,1.887-1.472c0.029-0.413-0.146-0.814-0.466-1.076c-0.398-0.274-0.879-0.404-1.361-0.368h-0.992L50.967,57.21z
		 M49.208,52.813h2.978c0.889-0.05,1.766,0.226,2.464,0.775c0.613,0.538,0.945,1.326,0.904,2.141
		c0.004,0.508-0.134,1.007-0.397,1.441c-0.282,0.425-0.674,0.769-1.132,0.993l2.444,3.74h-2.076l-1.985-3.283h-1.442v3.254h-1.758
		v-9.063L49.208,52.813z M59.264,54.335h-2.936v-1.515h7.691v1.513h-2.921v7.611H59.26v-7.611L59.264,54.335z M65.295,52.813h1.838
		v9.124h-1.842v-9.126L65.295,52.813z M69.066,52.823h5.872v1.532h-4.054v2.438h3.498v1.523h-3.498v3.633h-1.818v-9.128V52.823z
		 M76.34,52.813h1.838v9.124H76.34v-9.126V52.813z M84.468,62.054c-0.868,0.021-1.728-0.17-2.503-0.556
		c-0.716-0.362-1.313-0.922-1.72-1.612c-0.423-0.757-0.636-1.613-0.617-2.481c-0.015-0.845,0.195-1.68,0.607-2.419
		c0.401-0.721,1.001-1.311,1.729-1.701c0.799-0.43,1.696-0.645,2.604-0.627c0.512,0.004,1.022,0.07,1.519,0.199
		c0.467,0.11,0.912,0.293,1.32,0.543l-0.297,1.551c-0.777-0.414-1.643-0.639-2.523-0.658c-0.55-0.006-1.093,0.124-1.579,0.379
		c-0.458,0.244-0.836,0.613-1.093,1.065c-0.269,0.5-0.406,1.062-0.396,1.632c-0.041,0.827,0.266,1.635,0.845,2.229
		c0.612,0.569,1.43,0.867,2.265,0.825c0.45-0.004,0.897-0.065,1.331-0.181c0.463-0.113,0.909-0.285,1.331-0.506l0.188,1.588
		c-0.44,0.242-0.911,0.423-1.399,0.537c-0.527,0.129-1.067,0.191-1.609,0.189 M94.136,58.119l-1.34-3.672l-1.371,3.672h2.713H94.136
		z M91.882,52.811h1.985l3.628,9.132H95.51l-0.865-2.408h-3.669l-0.88,2.41h-1.834L91.882,52.811z M99.751,54.333h-2.923v-1.513
		h7.68v1.513h-2.92v7.611h-1.839v-7.611H99.751z M105.782,52.821h6.021v1.532h-4.242v2.189h3.755v1.522h-3.755v2.339h4.411v1.543
		h-6.193v-9.126H105.782z M118.389,60.902c0.354,0,0.698-0.104,0.992-0.299c0.317-0.209,0.574-0.496,0.746-0.836
		c0.191-0.367,0.29-0.776,0.287-1.191c0.023-0.441-0.122-0.875-0.407-1.213c-0.291-0.299-0.695-0.458-1.111-0.439
		c-0.354,0.002-0.702,0.108-0.992,0.311c-0.316,0.207-0.572,0.49-0.747,0.825c-0.189,0.372-0.286,0.785-0.277,1.204
		c-0.03,0.434,0.104,0.865,0.376,1.204c0.292,0.298,0.697,0.458,1.113,0.438 M118.25,62.138c-0.494,0.01-0.984-0.106-1.421-0.338
		c-0.416-0.232-0.76-0.577-0.993-0.992c-0.254-0.445-0.381-0.951-0.368-1.463c-0.002-0.625,0.152-1.238,0.448-1.788
		c0.287-0.555,0.721-1.022,1.252-1.353c0.535-0.346,1.161-0.525,1.798-0.517c0.498-0.01,0.99,0.106,1.431,0.337
		c0.417,0.232,0.762,0.576,0.992,0.993c0.249,0.448,0.376,0.952,0.368,1.463c0.003,0.623-0.151,1.237-0.447,1.786
		c-0.295,0.554-0.73,1.02-1.262,1.354c-0.538,0.346-1.168,0.526-1.808,0.517 M123.883,57.083h-1.104l0.219-1.164h1.114l0.198-0.993
		c0.12-0.749,0.466-1.44,0.992-1.985c0.512-0.467,1.187-0.715,1.879-0.686c0.247-0.002,0.494,0.028,0.734,0.088
		c0.213,0.043,0.415,0.129,0.596,0.248l-0.278,1.125c-0.304-0.168-0.646-0.254-0.992-0.248c-0.376-0.005-0.734,0.146-0.993,0.418
		c-0.308,0.363-0.5,0.811-0.558,1.283l-0.158,0.806h1.66l-0.229,1.114h-1.698l-0.935,4.906h-1.39L123.883,57.083z M22.946,65.985
		h8.425v2.149h-5.941v3.055h5.256v2.14h-5.256v3.283h6.18v2.149h-8.663V65.985z M37.471,72.115l-4.252-6.13h2.99l2.872,4.39
		l2.78-4.39h2.941l-4.292,6.169l4.58,6.607h-3.037l-3.159-4.855l-3.12,4.855h-2.941L37.471,72.115z M52.126,78.97
		c-1.214,0.021-2.417-0.248-3.507-0.786c-1.003-0.503-1.839-1.288-2.404-2.259c-0.602-1.057-0.904-2.258-0.875-3.475
		c-0.016-1.184,0.278-2.35,0.854-3.383c0.561-1.013,1.403-1.84,2.424-2.383c1.116-0.6,2.369-0.902,3.636-0.875
		c0.717,0.001,1.433,0.096,2.127,0.279c0.653,0.151,1.281,0.402,1.857,0.746l-0.417,2.184c-1.089-0.57-2.296-0.881-3.526-0.904
		c-0.77-0.017-1.532,0.16-2.216,0.516c-0.646,0.34-1.179,0.863-1.529,1.504c-0.383,0.699-0.576,1.486-0.557,2.283
		c-0.057,1.158,0.371,2.287,1.181,3.117c0.857,0.798,2.001,1.214,3.17,1.154c0.628-0.008,1.252-0.096,1.858-0.258
		c0.648-0.162,1.275-0.398,1.868-0.707l0.269,2.219c-0.621,0.348-1.29,0.602-1.985,0.756c-0.735,0.183-1.488,0.275-2.246,0.279
		 M58.487,65.982h8.438v2.148h-5.946v3.057h5.261v2.139h-5.261v3.283h6.18v2.152h-8.674V65.985L58.487,65.982z M69.437,65.982h2.573
		v10.66h5.773v2.119h-8.348V65.985L69.437,65.982z M79.561,65.982h2.573v10.66h5.773v2.119h-8.349V65.985L79.561,65.982z
		 M89.686,65.982h8.438v2.148h-5.956v3.057h5.261v2.139h-5.261v3.283h6.18v2.152h-8.663V65.985L89.686,65.982z M100.635,65.982
		h2.282l6.688,8.877v-8.874h2.433v12.776h-2.282l-6.688-8.847v8.847h-2.433V65.985V65.982z M120.854,78.967
		c-1.216,0.021-2.417-0.248-3.507-0.786c-1.005-0.504-1.839-1.289-2.404-2.258c-0.603-1.057-0.905-2.26-0.874-3.475
		c-0.016-1.184,0.279-2.35,0.854-3.383c0.564-1.01,1.406-1.836,2.424-2.383c1.119-0.603,2.376-0.904,3.646-0.876
		c0.715,0.001,1.426,0.097,2.116,0.279c0.654,0.15,1.28,0.402,1.857,0.747l-0.417,2.184c-1.09-0.572-2.297-0.881-3.526-0.906
		c-0.771-0.015-1.533,0.164-2.217,0.518c-0.649,0.328-1.188,0.84-1.55,1.473c-0.384,0.697-0.575,1.486-0.556,2.282
		c-0.059,1.161,0.37,2.294,1.183,3.124c0.856,0.799,2,1.215,3.17,1.156c0.63-0.01,1.258-0.098,1.866-0.26
		c0.646-0.161,1.271-0.398,1.857-0.707l0.269,2.22c-0.621,0.347-1.29,0.601-1.985,0.757c-0.737,0.182-1.495,0.275-2.256,0.279
		 M127.221,65.985h8.426v2.149h-5.944v3.055h5.261v2.14h-5.261v3.283h6.18v2.149h-8.661V65.985L127.221,65.985z"/>
	<g>
		<g>
			<g>
				<path fill="#FFFFFF" stroke="#FFFFFF" stroke-miterlimit="10" d="M51.563,28.1v-1.528h0.872c0.144,0.49,0.361,0.851,0.652,1.081
					C53.377,27.884,53.753,28,54.215,28c0.64,0,1.122-0.192,1.45-0.577c0.326-0.384,0.489-0.959,0.489-1.723
					c0-0.51-0.085-0.931-0.26-1.265c-0.172-0.333-0.405-0.576-0.698-0.724c-0.292-0.149-0.634-0.224-1.023-0.224
					c-0.328,0-0.607,0.021-0.843,0.061c-0.235,0.042-0.487,0.106-0.756,0.192l-0.578-0.339v-4.743h3.973
					c0.163,0,0.281-0.013,0.353-0.04c0.071-0.026,0.13-0.067,0.172-0.122s0.095-0.16,0.151-0.313h0.563l-0.108,1.672h-4.143v3.164
					c0.248-0.105,0.52-0.185,0.814-0.237c0.293-0.053,0.585-0.08,0.878-0.08c0.572,0,1.08,0.117,1.522,0.349
					c0.442,0.233,0.783,0.565,1.023,0.996c0.24,0.43,0.361,0.928,0.361,1.495c0,0.645-0.136,1.197-0.405,1.659
					c-0.268,0.46-0.657,0.812-1.167,1.052c-0.51,0.24-1.113,0.36-1.809,0.36C53.34,28.612,52.472,28.441,51.563,28.1z"/>
				<path fill="#FFFFFF" stroke="#FFFFFF" stroke-miterlimit="10" d="M65.38,24.366l-1.989-3.697
					c-0.24-0.447-0.423-0.767-0.549-0.958c-0.124-0.192-0.25-0.343-0.374-0.455c-0.126-0.11-0.27-0.192-0.433-0.245v-0.354h3.071
					v0.354c-0.452,0.053-0.679,0.248-0.679,0.584c0,0.139,0.033,0.295,0.097,0.467c0.066,0.174,0.182,0.419,0.351,0.735l1.441,2.747
					l1.421-2.508c0.192-0.341,0.328-0.621,0.407-0.84c0.079-0.218,0.118-0.418,0.118-0.601c0-0.173-0.05-0.309-0.155-0.408
					c-0.103-0.098-0.256-0.157-0.458-0.177v-0.354h2.732v0.354c-0.196,0.072-0.371,0.172-0.52,0.299
					c-0.147,0.128-0.299,0.299-0.454,0.516c-0.153,0.216-0.378,0.582-0.676,1.096l-2.005,3.415v2.336
					c0,0.273,0.016,0.495,0.042,0.663c0.029,0.168,0.078,0.302,0.146,0.403c0.068,0.101,0.155,0.18,0.266,0.238
					c0.113,0.057,0.285,0.112,0.52,0.166v0.353h-3.294v-0.353c0.231-0.049,0.401-0.101,0.512-0.155
					c0.11-0.055,0.2-0.135,0.268-0.239c0.066-0.103,0.116-0.238,0.147-0.406c0.031-0.169,0.047-0.392,0.047-0.671V24.366z"/>
				<path fill="#FFFFFF" stroke="#FFFFFF" stroke-miterlimit="10" d="M78.928,18.658v2.177h-0.706
					c-0.071-0.236-0.147-0.442-0.223-0.621c-0.078-0.177-0.157-0.327-0.238-0.447c-0.082-0.12-0.173-0.216-0.27-0.288
					c-0.099-0.072-0.215-0.121-0.351-0.147c-0.134-0.026-0.295-0.04-0.483-0.04h-2.278v3.777h1.543c0.211,0,0.378-0.03,0.499-0.09
					s0.219-0.162,0.298-0.306c0.08-0.144,0.155-0.37,0.227-0.678h0.677v2.768h-0.677c-0.068-0.288-0.142-0.506-0.223-0.651
					c-0.082-0.147-0.18-0.252-0.292-0.314c-0.113-0.062-0.281-0.094-0.508-0.094h-1.543v4.16h2.243c0.234,0,0.426-0.021,0.572-0.061
					c0.147-0.042,0.273-0.112,0.378-0.209c0.107-0.099,0.2-0.228,0.281-0.386c0.082-0.158,0.151-0.323,0.206-0.494
					c0.056-0.17,0.132-0.419,0.227-0.746h0.715l-0.138,2.53h-6.675v-0.353c0.299-0.078,0.499-0.163,0.599-0.256
					c0.101-0.094,0.167-0.228,0.198-0.4c0.031-0.172,0.046-0.437,0.046-0.792V20.46c0-0.333-0.011-0.574-0.035-0.725
					c-0.025-0.151-0.064-0.27-0.12-0.353c-0.055-0.084-0.128-0.151-0.219-0.202s-0.248-0.108-0.469-0.17v-0.354H78.928z"/>
				<path fill="#FFFFFF" stroke="#FFFFFF" stroke-miterlimit="10" d="M86.429,28.497v-0.353c0.242-0.049,0.421-0.102,0.539-0.159
					c0.116-0.057,0.203-0.138,0.262-0.241c0.058-0.103,0.087-0.242,0.087-0.414c0-0.164-0.02-0.341-0.058-0.53
					c-0.039-0.19-0.094-0.402-0.165-0.638l-0.268-0.931h-3.358l-0.246,0.708c-0.124,0.355-0.205,0.625-0.244,0.807
					c-0.039,0.183-0.059,0.349-0.059,0.497c0,0.289,0.074,0.5,0.22,0.635c0.147,0.134,0.372,0.223,0.675,0.267v0.353h-3.077v-0.353
					c0.268-0.044,0.502-0.2,0.702-0.469c0.199-0.269,0.394-0.653,0.579-1.153l3.007-7.979h1.139l2.45,8.036
					c0.114,0.375,0.218,0.661,0.307,0.858s0.195,0.35,0.319,0.461c0.127,0.111,0.297,0.192,0.513,0.246v0.353H86.429z
					 M83.662,24.604h3.013l-1.369-4.649L83.662,24.604z"/>
				<path fill="#FFFFFF" stroke="#FFFFFF" stroke-miterlimit="10" d="M93.953,24.223v2.451c0,0.346,0.013,0.597,0.038,0.753
					c0.027,0.156,0.066,0.273,0.12,0.353c0.053,0.08,0.124,0.145,0.216,0.195c0.091,0.05,0.248,0.107,0.469,0.17v0.353h-3.042
					v-0.353c0.299-0.078,0.499-0.163,0.6-0.256c0.099-0.094,0.167-0.228,0.197-0.4c0.031-0.172,0.047-0.437,0.047-0.792V20.46
					c0-0.333-0.012-0.574-0.037-0.725c-0.023-0.151-0.063-0.27-0.118-0.353c-0.055-0.084-0.128-0.151-0.219-0.202
					c-0.092-0.05-0.248-0.108-0.47-0.17v-0.354h3.567c1.125,0,1.966,0.205,2.522,0.613c0.559,0.409,0.838,1.043,0.838,1.903
					c0,0.659-0.183,1.218-0.545,1.68s-0.907,0.821-1.633,1.082v0.057c0.293,0.12,0.545,0.292,0.753,0.515
					c0.209,0.224,0.441,0.571,0.695,1.042l0.649,1.182c0.188,0.346,0.35,0.61,0.483,0.793c0.134,0.182,0.271,0.322,0.41,0.418
					c0.14,0.096,0.324,0.164,0.555,0.203v0.353h-1.997c-0.182-0.255-0.354-0.528-0.518-0.822c-0.164-0.293-0.325-0.591-0.482-0.894
					l-0.636-1.203c-0.192-0.366-0.349-0.635-0.472-0.808c-0.122-0.173-0.236-0.294-0.339-0.365c-0.103-0.07-0.213-0.117-0.331-0.143
					c-0.119-0.026-0.295-0.04-0.529-0.04H93.953z M93.953,19.321v4.282h0.813c0.419,0,0.757-0.029,1.017-0.09
					c0.26-0.06,0.5-0.174,0.721-0.342c0.222-0.167,0.397-0.402,0.529-0.703c0.132-0.3,0.2-0.669,0.2-1.106
					c0-0.457-0.08-0.837-0.235-1.139c-0.156-0.303-0.394-0.534-0.711-0.692c-0.316-0.158-0.745-0.238-1.281-0.238
					C94.573,19.292,94.223,19.302,93.953,19.321z"/>
				<path fill="#FFFFFF" stroke="#FFFFFF" stroke-miterlimit="10" d="M102.355,26.255c0.095,0.422,0.225,0.756,0.388,1.001
					c0.165,0.245,0.376,0.427,0.636,0.545c0.258,0.117,0.593,0.176,1,0.176c0.563,0,0.995-0.146,1.296-0.44
					c0.3-0.294,0.449-0.72,0.449-1.283c0-0.361-0.062-0.664-0.188-0.908c-0.125-0.245-0.328-0.476-0.613-0.692
					c-0.283-0.216-0.715-0.468-1.297-0.757c-0.563-0.278-1.006-0.551-1.334-0.818c-0.325-0.267-0.57-0.557-0.73-0.869
					c-0.161-0.312-0.24-0.653-0.24-1.024c0-0.537,0.124-1.005,0.378-1.401c0.252-0.396,0.622-0.703,1.108-0.919
					c0.489-0.216,1.047-0.324,1.678-0.324c0.364,0,0.721,0.019,1.069,0.058c0.348,0.039,0.783,0.125,1.309,0.26v1.945h-0.715
					c-0.11-0.422-0.25-0.752-0.417-0.987c-0.169-0.235-0.366-0.4-0.592-0.494c-0.227-0.093-0.52-0.141-0.88-0.141
					c-0.312,0-0.591,0.058-0.839,0.173c-0.247,0.114-0.442,0.289-0.588,0.522c-0.144,0.233-0.215,0.51-0.215,0.833
					c0,0.34,0.06,0.629,0.184,0.864c0.122,0.235,0.313,0.454,0.572,0.656c0.26,0.202,0.644,0.428,1.153,0.678
					c0.614,0.306,1.092,0.593,1.431,0.857c0.34,0.265,0.604,0.566,0.793,0.904c0.19,0.339,0.285,0.734,0.285,1.187
					c0,0.504-0.079,0.931-0.238,1.279c-0.159,0.349-0.378,0.632-0.659,0.851s-0.618,0.377-1.01,0.476
					c-0.392,0.098-0.82,0.147-1.286,0.147c-0.756,0-1.624-0.127-2.609-0.382v-1.975H102.355z"/>
			</g>
		</g>
		<path fill="#FFFFFF" stroke="#FFFFFF" stroke-width="0.5" stroke-miterlimit="10" d="M24.559,41.366v0.7h-4.045v-0.547
			l2.292-2.211c0.594-0.579,0.707-0.933,0.707-1.288c0-0.579-0.409-0.932-1.197-0.932c-0.603,0-1.094,0.192-1.44,0.611l-0.546-0.475
			c0.434-0.539,1.182-0.852,2.059-0.852c1.175,0,1.93,0.604,1.93,1.568c0,0.546-0.161,1.037-0.924,1.769l-1.721,1.656H24.559z"/>
		<path fill="#FFFFFF" stroke="#FFFFFF" stroke-width="0.5" stroke-miterlimit="10" d="M25.191,39.251
			c0-1.833,0.981-2.878,2.3-2.878c1.311,0,2.292,1.045,2.292,2.878s-0.98,2.879-2.292,2.879
			C26.172,42.13,25.191,41.084,25.191,39.251z M28.979,39.251c0-1.439-0.612-2.163-1.488-2.163c-0.884,0-1.496,0.723-1.496,2.163
			c0,1.44,0.612,2.164,1.496,2.164C28.368,41.415,28.979,40.691,28.979,39.251z"/>
		<path fill="#FFFFFF" stroke="#FFFFFF" stroke-width="0.5" stroke-miterlimit="10" d="M32.271,36.436v5.63h-0.795v-4.93h-1.271
			v-0.7H32.271z"/>
		<path fill="#FFFFFF" stroke="#FFFFFF" stroke-width="0.5" stroke-miterlimit="10" d="M37.448,40.378
			c0,0.972-0.691,1.752-2.132,1.752c-0.795,0-1.583-0.258-2.066-0.684l0.37-0.635c0.378,0.354,1.006,0.603,1.688,0.603
			c0.853,0,1.335-0.395,1.335-1.005c0-0.635-0.402-1.029-1.705-1.029h-1.28l0.298-2.944h3.177v0.7h-2.502l-0.152,1.544h0.627
			C36.788,38.681,37.448,39.38,37.448,40.378z"/>
		<path fill="#FFFFFF" stroke="#FFFFFF" stroke-width="0.5" stroke-miterlimit="10" d="M40.345,39.524h2.164v0.667h-2.164V39.524z"
			/>
		<path fill="#FFFFFF" stroke="#FFFFFF" stroke-width="0.5" stroke-miterlimit="10" d="M49.469,41.366v0.7h-4.045v-0.547
			l2.292-2.211c0.594-0.579,0.707-0.933,0.707-1.288c0-0.579-0.41-0.932-1.197-0.932c-0.603,0-1.094,0.192-1.44,0.611l-0.546-0.475
			c0.434-0.539,1.182-0.852,2.059-0.852c1.175,0,1.93,0.604,1.93,1.568c0,0.546-0.16,1.037-0.924,1.769l-1.721,1.656H49.469z"/>
		<path fill="#FFFFFF" stroke="#FFFFFF" stroke-width="0.5" stroke-miterlimit="10" d="M50.101,39.251
			c0-1.833,0.981-2.878,2.3-2.878c1.311,0,2.292,1.045,2.292,2.878s-0.98,2.879-2.292,2.879
			C51.083,42.13,50.101,41.084,50.101,39.251z M53.89,39.251c0-1.439-0.612-2.163-1.488-2.163c-0.884,0-1.496,0.723-1.496,2.163
			c0,1.44,0.612,2.164,1.496,2.164C53.278,41.415,53.89,40.691,53.89,39.251z"/>
		<path fill="#FFFFFF" stroke="#FFFFFF" stroke-width="0.5" stroke-miterlimit="10" d="M57.182,36.436v5.63h-0.795v-4.93h-1.271
			v-0.7H57.182z"/>
		<path fill="#FFFFFF" stroke="#FFFFFF" stroke-width="0.5" stroke-miterlimit="10" d="M62.768,40.353
			c0,1.086-0.876,1.778-1.994,1.778c-1.513,0-2.365-1.013-2.365-2.807c0-1.921,1.086-2.951,2.662-2.951
			c0.531,0,1.038,0.104,1.399,0.329l-0.306,0.628c-0.29-0.193-0.675-0.266-1.078-0.266c-1.142,0-1.874,0.716-1.874,2.124
			c0,0.064,0,0.129,0.009,0.201c0.321-0.482,0.917-0.74,1.616-0.74C61.956,38.647,62.768,39.315,62.768,40.353z M61.987,40.385
			c0-0.661-0.498-1.086-1.286-1.086c-0.764,0-1.295,0.476-1.295,1.094c0,0.58,0.467,1.086,1.334,1.086
			C61.473,41.479,61.987,41.053,61.987,40.385z"/>
		<path fill="#FFFFFF" stroke="#FFFFFF" stroke-width="0.5" stroke-miterlimit="10" d="M65.602,39.524h2.163v0.667h-2.163V39.524z"
			/>
		<path fill="#FFFFFF" stroke="#FFFFFF" stroke-width="0.5" stroke-miterlimit="10" d="M74.725,41.366v0.7h-4.046v-0.547
			l2.292-2.211c0.595-0.579,0.708-0.933,0.708-1.288c0-0.579-0.41-0.932-1.198-0.932c-0.604,0-1.094,0.192-1.44,0.611l-0.546-0.475
			c0.434-0.539,1.182-0.852,2.059-0.852c1.174,0,1.93,0.604,1.93,1.568c0,0.546-0.161,1.037-0.925,1.769l-1.721,1.656H74.725z"/>
		<path fill="#FFFFFF" stroke="#FFFFFF" stroke-width="0.5" stroke-miterlimit="10" d="M75.356,39.251
			c0-1.833,0.981-2.878,2.3-2.878c1.311,0,2.291,1.045,2.291,2.878s-0.98,2.879-2.291,2.879
			C76.338,42.13,75.356,41.084,75.356,39.251z M79.145,39.251c0-1.439-0.612-2.163-1.488-2.163c-0.884,0-1.496,0.723-1.496,2.163
			c0,1.44,0.612,2.164,1.496,2.164C78.533,41.415,79.145,40.691,79.145,39.251z"/>
		<path fill="#FFFFFF" stroke="#FFFFFF" stroke-width="0.5" stroke-miterlimit="10" d="M82.438,36.436v5.63h-0.796v-4.93h-1.27v-0.7
			H82.438z"/>
		<path fill="#FFFFFF" stroke="#FFFFFF" stroke-width="0.5" stroke-miterlimit="10" d="M87.768,36.436v0.547l-2.275,5.083H84.64
			l2.228-4.93h-2.575v1.005h-0.771v-1.706H87.768z"/>
		<path fill="#FFFFFF" stroke="#FFFFFF" stroke-width="0.5" stroke-miterlimit="10" d="M90.704,39.524h2.164v0.667h-2.164V39.524z"
			/>
		<path fill="#FFFFFF" stroke="#FFFFFF" stroke-width="0.5" stroke-miterlimit="10" d="M99.827,41.366v0.7h-4.046v-0.547
			l2.292-2.211c0.595-0.579,0.709-0.933,0.709-1.288c0-0.579-0.411-0.932-1.197-0.932c-0.604,0-1.096,0.192-1.441,0.611
			l-0.546-0.475c0.433-0.539,1.183-0.852,2.059-0.852c1.174,0,1.93,0.604,1.93,1.568c0,0.546-0.161,1.037-0.925,1.769l-1.722,1.656
			H99.827z"/>
		<path fill="#FFFFFF" stroke="#FFFFFF" stroke-width="0.5" stroke-miterlimit="10" d="M100.458,39.251
			c0-1.833,0.982-2.878,2.302-2.878c1.312,0,2.29,1.045,2.29,2.878s-0.979,2.879-2.29,2.879
			C101.44,42.13,100.458,41.084,100.458,39.251z M104.248,39.251c0-1.439-0.611-2.163-1.488-2.163c-0.885,0-1.497,0.723-1.497,2.163
			c0,1.44,0.612,2.164,1.497,2.164C103.637,41.415,104.248,40.691,104.248,39.251z"/>
		<path fill="#FFFFFF" stroke="#FFFFFF" stroke-width="0.5" stroke-miterlimit="10" d="M107.54,36.436v5.63h-0.796v-4.93h-1.271
			v-0.7H107.54z"/>
		<path fill="#FFFFFF" stroke="#FFFFFF" stroke-width="0.5" stroke-miterlimit="10" d="M113.208,40.474
			c0,1.021-0.869,1.657-2.244,1.657c-1.367,0-2.228-0.636-2.228-1.657c0-0.644,0.354-1.118,0.988-1.359
			c-0.514-0.241-0.787-0.659-0.787-1.214c0-0.941,0.812-1.528,2.026-1.528c1.222,0,2.044,0.587,2.044,1.528
			c0,0.555-0.283,0.973-0.798,1.214C112.854,39.363,113.208,39.83,113.208,40.474z M112.404,40.45c0-0.62-0.549-1.005-1.44-1.005
			c-0.895,0-1.423,0.386-1.423,1.005c0,0.635,0.528,1.029,1.423,1.029C111.855,41.479,112.404,41.084,112.404,40.45z
			 M109.734,37.932c0,0.555,0.459,0.902,1.229,0.902c0.78,0,1.255-0.347,1.255-0.902c0-0.563-0.499-0.908-1.255-0.908
			S109.734,37.369,109.734,37.932z"/>
		<path fill="#FFFFFF" stroke="#FFFFFF" stroke-width="0.5" stroke-miterlimit="10" d="M116.176,39.524h2.165v0.667h-2.165V39.524z"
			/>
		<path fill="#FFFFFF" stroke="#FFFFFF" stroke-width="0.5" stroke-miterlimit="10" d="M125.301,41.366v0.7h-4.045v-0.547
			l2.293-2.211c0.594-0.579,0.705-0.933,0.705-1.288c0-0.579-0.408-0.932-1.197-0.932c-0.604,0-1.094,0.192-1.44,0.611l-0.547-0.475
			c0.435-0.539,1.183-0.852,2.059-0.852c1.174,0,1.93,0.604,1.93,1.568c0,0.546-0.159,1.037-0.924,1.769l-1.721,1.656H125.301z"/>
		<path fill="#FFFFFF" stroke="#FFFFFF" stroke-width="0.5" stroke-miterlimit="10" d="M125.932,39.251
			c0-1.833,0.982-2.878,2.3-2.878c1.312,0,2.292,1.045,2.292,2.878s-0.98,2.879-2.292,2.879
			C126.914,42.13,125.932,41.084,125.932,39.251z M129.72,39.251c0-1.439-0.612-2.163-1.488-2.163c-0.885,0-1.495,0.723-1.495,2.163
			c0,1.44,0.61,2.164,1.495,2.164C129.107,41.415,129.72,40.691,129.72,39.251z"/>
		<path fill="#FFFFFF" stroke="#FFFFFF" stroke-width="0.5" stroke-miterlimit="10" d="M133.014,36.436v5.63h-0.796v-4.93h-1.271
			v-0.7H133.014z"/>
		<path fill="#FFFFFF" stroke="#FFFFFF" stroke-width="0.5" stroke-miterlimit="10" d="M138.431,39.179
			c0,1.922-1.086,2.952-2.661,2.952c-0.531,0-1.039-0.105-1.398-0.33l0.305-0.628c0.297,0.193,0.676,0.266,1.084,0.266
			c1.144,0,1.867-0.716,1.867-2.123v-0.201c-0.33,0.491-0.925,0.74-1.623,0.74c-1.12,0-1.925-0.667-1.925-1.705
			c0-1.086,0.871-1.777,1.987-1.777C137.579,36.373,138.431,37.386,138.431,39.179z M137.441,38.109
			c0-0.579-0.466-1.085-1.342-1.085c-0.732,0-1.24,0.426-1.24,1.094c0,0.659,0.492,1.085,1.279,1.085
			C136.912,39.203,137.441,38.729,137.441,38.109z"/>
	</g>
	<ellipse fill="#FFFFFF" cx="79.499" cy="46.866" rx="54.264" ry="0.435"/>
</g>
</svg>
