<?xml version="1.0" encoding="utf-8"?>
<!-- Generator: Adobe Illustrator 15.1.0, SVG Export Plug-In . SVG Version: 6.00 Build 0)  -->
<!DOCTYPE svg PUBLIC "-//W3C//DTD SVG 1.1//EN" "http://www.w3.org/Graphics/SVG/1.1/DTD/svg11.dtd">
<svg version="1.1" id="Layer_1" xmlns="http://www.w3.org/2000/svg" xmlns:xlink="http://www.w3.org/1999/xlink" x="0px" y="0px"
	 width="24px" height="24px" viewBox="-2 -2 24 24" enable-background="new -2 -2 24 24" xml:space="preserve">
<g>
	<g>
		<g>
			<path fill="none" stroke="#333333" stroke-width="0.5" stroke-miterlimit="10" d="M6.515,6.633v-2.08
				c0,0-1.229-1.406-0.639-2.935c0.59-1.528,2.459-1.162,2.756-0.489c0.688-1.284,3.396-3.608,4.969-0.581
				c0.592,1.132,0.632,2.599-0.374,3.76c-0.02,2.262-0.02,2.262-0.02,2.262"/>
			<path fill="none" stroke="#333333" stroke-width="0.5" stroke-miterlimit="10" d="M6.021,8.282h7.58c0,0-0.086,5.197-3.732,5.076
				C6.219,13.237,6.021,8.282,6.021,8.282z"/>
			<path fill="none" stroke="#333333" stroke-width="0.5" stroke-miterlimit="10" d="M7.009,12.687c0,0-2.165,1.406-2.608,6.36
				c1.573,0.977,5.265,3.912,10.873-0.368c-0.395-2.444-0.935-4.34-2.704-5.992"/>
			<line fill="none" stroke="#333333" stroke-width="0.5" stroke-miterlimit="10" x1="9.075" y1="14.03" x2="9.075" y2="20.513"/>
			<ellipse fill="#333333" cx="10.35" cy="15.589" rx="0.536" ry="0.669"/>
			<ellipse fill="#333333" cx="10.35" cy="18.5" rx="0.536" ry="0.666"/>
		</g>
	</g>
	<g>
		<g>
			<path fill="none" stroke="#333333" stroke-width="0.5" stroke-miterlimit="10" d="M16.117,5.397V4.064
				c0,0-0.79-0.903-0.409-1.882c0.378-0.982,1.576-0.747,1.766-0.317c0.441-0.822,2.177-2.312,3.186-0.373
				c0.379,0.727,0.404,1.667-0.239,2.412c-0.016,1.45-0.016,1.45-0.016,1.45"/>
			<path fill="none" stroke="#333333" stroke-width="0.5" stroke-miterlimit="10" d="M15.801,6.455h4.86
				c0,0-0.058,3.332-2.396,3.253C15.927,9.63,15.801,6.455,15.801,6.455z"/>
			<path fill="none" stroke="#333333" stroke-width="0.5" stroke-miterlimit="10" d="M16.433,9.278c0,0-1.39,0.902-1.673,4.076
				c1.01,0.629,3.377,2.511,6.972-0.234c-0.254-1.565-0.601-2.784-1.735-3.841"/>
			
				<line fill="none" stroke="#333333" stroke-width="0.5" stroke-miterlimit="10" x1="17.759" y1="10.141" x2="17.759" y2="14.295"/>
			<path fill="none" stroke="#333333" stroke-width="0.5" stroke-miterlimit="10" d="M17.046,5.453"/>
			<ellipse fill="#333333" cx="18.575" cy="11.14" rx="0.343" ry="0.426"/>
			<ellipse fill="#333333" cx="18.575" cy="13.008" rx="0.343" ry="0.426"/>
		</g>
	</g>
	<g>
		<g>
			<path fill="none" stroke="#333333" stroke-width="0.5" stroke-miterlimit="10" d="M-0.376,5.397V4.064
				c0,0-0.786-0.903-0.409-1.882C-0.407,1.2,0.792,1.436,0.98,1.866c0.442-0.822,2.177-2.312,3.187-0.373
				c0.38,0.727,0.407,1.668-0.24,2.413C3.914,5.357,3.914,5.357,3.914,5.357"/>
			<path fill="none" stroke="#333333" stroke-width="0.5" stroke-miterlimit="10" d="M-0.692,6.455h4.859
				c0,0-0.056,3.332-2.393,3.253C-0.566,9.629-0.692,6.455-0.692,6.455z"/>
			<path fill="none" stroke="#333333" stroke-width="0.5" stroke-miterlimit="10" d="M-0.06,9.278c0,0-1.389,0.902-1.672,4.076
				c1.009,0.629,3.375,2.511,6.971-0.234c-0.252-1.565-0.599-2.784-1.735-3.841"/>
			<line fill="none" stroke="#333333" stroke-width="0.5" stroke-miterlimit="10" x1="1.266" y1="10.141" x2="1.266" y2="14.295"/>
			<ellipse fill="#333333" cx="2.083" cy="11.14" rx="0.343" ry="0.426"/>
			<ellipse fill="#333333" cx="2.083" cy="13.008" rx="0.343" ry="0.426"/>
		</g>
	</g>
</g>
</svg>
