<?xml version="1.0" encoding="utf-8"?>
<!-- Generator: Adobe Illustrator 16.0.0, SVG Export Plug-In . SVG Version: 6.00 Build 0)  -->
<!DOCTYPE svg PUBLIC "-//W3C//DTD SVG 1.1//EN" "http://www.w3.org/Graphics/SVG/1.1/DTD/svg11.dtd">
<svg version="1.1" id="Layer_1" xmlns="http://www.w3.org/2000/svg" xmlns:xlink="http://www.w3.org/1999/xlink" x="0px" y="0px"
	 width="56.118px" height="53.553px" viewBox="0 0 56.118 53.553" enable-background="new 0 0 56.118 53.553" xml:space="preserve">
<g>
	<polyline fill="#D0B42C" points="35.41,9.57 55.647,17.622 35.092,25.41 	"/>
	<g>
		<g>
			<path fill="#D0B42C" d="M23.184,50.061c0,0.701-0.569,1.271-1.271,1.271H17.41c-0.702,0-1.271-0.57-1.271-1.271V33.214
				c0-0.702,0.569-1.271,1.271-1.271h4.503c0.702,0,1.271,0.569,1.271,1.271V50.061z"/>
		</g>
	</g>
	<g>
		<path fill="#D1D2D1" d="M37.608,4.016c0,1.905-1.544,3.451-3.45,3.451l0,0c-1.906,0-3.451-1.545-3.451-3.451l0,0
			c0-1.906,1.545-3.451,3.451-3.451l0,0C36.063,0.565,37.608,2.11,37.608,4.016L37.608,4.016z"/>
		<path fill="#D1D2D1" d="M16.138,47.983c0,0.927-3.613,1.678-8.069,1.678l0,0C3.613,49.661,0,48.91,0,47.983v-7.155
			c0-0.927,3.613-1.677,8.069-1.677l0,0c4.456,0,8.069,0.75,8.069,1.677V47.983z"/>
	</g>
	<g>
		<g>
			<path d="M32.01,8.628c-2.379,0-4.314-1.935-4.314-4.313C27.696,1.936,29.631,0,32.01,0s4.314,1.936,4.314,4.315
				C36.324,6.693,34.389,8.628,32.01,8.628z M32.01,1c-1.827,0-3.314,1.487-3.314,3.315c0,1.827,1.487,3.313,3.314,3.313
				c1.828,0,3.314-1.486,3.314-3.313C35.324,2.487,33.837,1,32.01,1z"/>
			<polygon points="34.359,22.742 34.005,21.806 53.356,14.475 34.315,6.898 34.685,5.969 56.118,14.497 			"/>
			<path d="M41.281,41.792h-7.47c-0.977,0-1.771-0.795-1.771-1.772v-1.324c0-0.977,0.795-1.771,1.771-1.771h7.47
				c0.977,0,1.771,0.795,1.771,1.771v1.324C43.052,40.998,42.258,41.792,41.281,41.792z M33.811,37.925
				c-0.425,0-0.771,0.346-0.771,0.771v1.324c0,0.426,0.346,0.772,0.771,0.772h7.47c0.425,0,0.771-0.346,0.771-0.772v-1.324
				c0-0.425-0.346-0.771-0.771-0.771H33.811z"/>
			<path d="M41.281,45.395h-7.47c-0.977,0-1.771-0.756-1.771-1.685v-1.233c0-0.929,0.795-1.685,1.771-1.685h7.47
				c0.977,0,1.771,0.756,1.771,1.685v1.233C43.052,44.639,42.258,45.395,41.281,45.395z M33.811,41.792
				c-0.425,0-0.771,0.307-0.771,0.685v1.233c0,0.377,0.346,0.685,0.771,0.685h7.47c0.425,0,0.771-0.307,0.771-0.685v-1.233
				c0-0.377-0.346-0.685-0.771-0.685H33.811z"/>
			<path d="M41.281,48.997h-7.47c-0.977,0-1.771-0.755-1.771-1.683V46.08c0-0.929,0.795-1.685,1.771-1.685h7.47
				c0.977,0,1.771,0.756,1.771,1.685v1.234C43.052,48.242,42.258,48.997,41.281,48.997z M33.811,45.395
				c-0.425,0-0.771,0.307-0.771,0.685v1.234c0,0.376,0.346,0.683,0.771,0.683h7.47c0.425,0,0.771-0.307,0.771-0.683V46.08
				c0-0.377-0.346-0.685-0.771-0.685H33.811z"/>
			<path d="M41.281,52.432h-7.47c-0.977,0-1.771-0.756-1.771-1.685v-1.233c0-0.929,0.795-1.685,1.771-1.685h7.47
				c0.977,0,1.771,0.756,1.771,1.685v1.233C43.052,51.676,42.258,52.432,41.281,52.432z M33.811,48.829
				c-0.425,0-0.771,0.307-0.771,0.685v1.233c0,0.378,0.346,0.685,0.771,0.685h7.47c0.425,0,0.771-0.307,0.771-0.685v-1.233
				c0-0.378-0.346-0.685-0.771-0.685H33.811z"/>
			<path d="M31.507,52.53c-6.75,0-7.198-0.774-7.386-1.099c-0.147-0.254-0.1-0.506-0.006-0.657l0.849,0.529
				c0.121-0.194,0.039-0.371-0.003-0.41c0.102,0.095,1.28,0.911,11.269,0.538l0.037,0.999C34.406,52.5,32.834,52.53,31.507,52.53z"
				/>
			<path d="M16.488,50.852H3.19c-0.977,0-1.771-0.795-1.771-1.772V38.326c0-0.977,0.795-1.771,1.771-1.771h13.297
				c0.977,0,1.771,0.795,1.771,1.771V49.08C18.259,50.057,17.464,50.852,16.488,50.852z M3.19,37.554
				c-0.425,0-0.771,0.346-0.771,0.771V49.08c0,0.426,0.346,0.772,0.771,0.772h13.297c0.425,0,0.771-0.346,0.771-0.772V38.326
				c0-0.425-0.346-0.771-0.771-0.771H3.19z"/>
			<path d="M23.533,53.553h-4.502c-0.977,0-1.771-0.794-1.771-1.771V34.935c0-0.977,0.795-1.771,1.771-1.771h4.502
				c0.977,0,1.771,0.794,1.771,1.771v16.848C25.305,52.759,24.51,53.553,23.533,53.553z M19.031,34.164
				c-0.425,0-0.771,0.346-0.771,0.771v16.848c0,0.425,0.346,0.771,0.771,0.771h4.502c0.425,0,0.771-0.346,0.771-0.771V34.935
				c0-0.425-0.346-0.771-0.771-0.771H19.031z"/>
			<path d="M31.659,52.52c-1.379,0-1.762-1.293-1.771-1.977V7.767h1v42.769c0.004,0.156,0.061,0.984,0.771,0.984V52.52z"/>
			<rect x="19.191" y="21.946" transform="matrix(8.148709e-004 1 -1 8.148709e-004 56.5876 -11.7426)" width="29.959" height="1"/>
			<g>
				<path d="M29.096,33.376c-2.198,0-4.023,1.254-4.1,1.308l0.571,0.821c0.016-0.011,1.653-1.129,3.529-1.129h1.792V33.38
					L29.096,33.376z"/>
				<path d="M40.175,35.1c-0.615-1.212-2.073-1.681-2.135-1.701l-4.382-0.011v0.988h4.147c0.244,0.092,1.118,0.464,1.479,1.176
					c0.201,0.396,0.214,0.834,0.042,1.341l0.946,0.322C40.532,36.451,40.5,35.739,40.175,35.1z"/>
			</g>
		</g>
		<path d="M24.559,45.394l-0.062-0.998c0.045-0.003,4.471-0.317,5.415-3.256l0.952,0.306C29.71,45.038,24.768,45.381,24.559,45.394z
			"/>
	</g>
</g>
</svg>
