<?xml version="1.0" encoding="utf-8"?>
<!-- Generator: Adobe Illustrator 16.0.0, SVG Export Plug-In . SVG Version: 6.00 Build 0)  -->
<!DOCTYPE svg PUBLIC "-//W3C//DTD SVG 1.1//EN" "http://www.w3.org/Graphics/SVG/1.1/DTD/svg11.dtd">
<svg version="1.1" id="Layer_1" xmlns="http://www.w3.org/2000/svg" xmlns:xlink="http://www.w3.org/1999/xlink" x="0px" y="0px"
	 width="100px" height="102.01px" viewBox="1036.821 122.065 100 102.01" enable-background="new 1036.821 122.065 100 102.01"
	 xml:space="preserve">
<path fill="#ECECEC" d="M1086.868,122.065c6.877,0,13.34,1.331,19.391,3.99c6.047,2.662,11.365,6.328,15.949,10.999
	c9.296,9.476,14.167,21.354,14.613,35.627v48.086h-0.191c-3.566,0-6.59-1.249-9.072-3.748c-2.484-2.498-3.821-5.629-4.013-9.394
	c-0.446,0.52-0.892,1.007-1.337,1.461c-4.585,4.671-9.902,8.337-15.95,10.997c-6.052,2.661-12.513,3.991-19.39,3.991
	c-6.94,0-13.436-1.33-19.484-3.991c-6.05-2.66-11.366-6.326-15.95-10.997c-4.521-4.675-8.087-10.091-10.697-16.257
	c-2.61-6.164-3.915-12.75-3.915-19.759c0-7.073,1.305-13.691,3.916-19.858c2.609-6.164,6.176-11.55,10.697-16.159
	c4.584-4.671,9.9-8.337,15.949-10.999C1073.433,123.396,1079.928,122.065,1086.868,122.065z M1123.545,173.364v-0.585
	c-0.318-10.513-3.885-19.239-10.697-26.185c-3.376-3.438-7.293-6.133-11.747-8.079c-4.458-1.945-9.203-2.92-14.232-2.92
	c-5.095,0-9.87,0.973-14.326,2.92c-4.458,1.945-8.343,4.64-11.653,8.079c-3.375,3.439-6.017,7.414-7.928,11.925
	c-1.91,4.511-2.865,9.36-2.865,14.552c0,5.193,0.955,10.043,2.865,14.553c1.91,4.512,4.551,8.485,7.928,11.926
	c3.311,3.439,7.195,6.131,11.653,8.077c4.456,1.947,9.231,2.922,14.326,2.922c5.03,0,9.774-0.974,14.232-2.922
	c4.454-1.946,8.371-4.639,11.747-8.077C1119.661,192.604,1123.227,183.875,1123.545,173.364z"/>
<g>
	<g>
		<path fill-rule="evenodd" clip-rule="evenodd" fill="#ECECEC" d="M1100.469,163.609c0.046,3.228-1.15,5.983-3.254,8.366
			c-1.004,1.136-2.077,2.212-3.137,3.296c-1.8,1.842-2.831,4.055-3.312,6.564c-0.146,0.769-0.381,1.531-0.667,2.262
			c-0.518,1.314-1.523,2.011-2.941,2.064c-1.366,0.052-2.512-0.403-3.285-1.577c-1.07-1.622-1.16-3.434-0.834-5.264
			c0.648-3.622,2.625-6.532,5.008-9.238c1.016-1.154,1.96-2.395,2.762-3.704c1.06-1.729,0.778-3.438-0.561-4.944
			c-1.327-1.495-2.968-2.076-4.918-1.477c-2.102,0.646-3.493,2.101-4.454,4.035c-0.932,1.881-2.699,2.755-4.56,2.308
			c-2.52-0.606-3.84-3.163-2.786-5.844c1.822-4.63,4.886-8.056,9.86-9.453c6.162-1.731,12.93,1.204,15.801,6.891
			C1100.097,159.685,1100.53,161.595,1100.469,163.609z"/>
		<path fill-rule="evenodd" clip-rule="evenodd" fill="#ECECEC" d="M1091.225,193.485c-0.09,2.416-2.157,4.335-4.56,4.232
			c-2.383-0.103-4.318-2.174-4.204-4.499c0.122-2.5,2.063-4.331,4.518-4.259C1089.432,189.031,1091.315,191.038,1091.225,193.485z"
			/>
	</g>
</g>
</svg>
