<?xml version="1.0" encoding="utf-8"?>
<!-- Generator: Adobe Illustrator 16.0.0, SVG Export Plug-In . SVG Version: 6.00 Build 0)  -->
<!DOCTYPE svg PUBLIC "-//W3C//DTD SVG 1.1//EN" "http://www.w3.org/Graphics/SVG/1.1/DTD/svg11.dtd">
<svg version="1.1" id="Layer_1" xmlns="http://www.w3.org/2000/svg" xmlns:xlink="http://www.w3.org/1999/xlink" x="0px" y="0px"
	 width="242.43px" height="289.426px" viewBox="0 0 242.43 289.426" enable-background="new 0 0 242.43 289.426"
	 xml:space="preserve">
<g>
	<path d="M242.429,121.214C242.429,54.269,188.159,0,121.214,0C54.269,0,0,54.269,0,121.214c0,32.049,12.443,61.187,32.754,82.863
		h-0.01c0,0,40.508,43.611,88.985,84.715v0.637c0.125-0.105,0.25-0.213,0.375-0.318c0.125,0.105,0.25,0.213,0.375,0.318v-0.637
		c48.463-41.109,87.807-85.361,87.807-85.361h-0.012C230.231,181.823,242.429,152.945,242.429,121.214z M122.265,261.422v0.529
		c-0.104-0.088-0.207-0.178-0.312-0.264c-0.104,0.086-0.207,0.176-0.313,0.264v-0.529c-40.278-34.149-73.936-70.387-73.936-70.387
		h0.009c-16.877-18.01-27.215-42.22-27.215-68.848c0-55.623,45.09-100.714,100.713-100.714s100.716,45.091,100.716,100.714
		c0,26.363-10.136,50.357-26.716,68.311h0.009C195.222,190.499,162.532,227.267,122.265,261.422z"/>
		<path d="M183.171,63.292c8.15,8.311,14.191,17.702,18.134,28.179c3.936,10.477,5.786,21.265,5.551,32.364
	c-0.486,22.509-9.129,42.529-25.922,60.055l-58.357,57.226l-0.227-0.23c-4.224-4.309-6.291-9.447-6.203-15.422
	c0.088-5.973,2.307-11.313,6.647-16.029c-1.16,0.08-2.278,0.121-3.356,0.125c-11.104,0.018-21.854-2.045-32.246-6.188
	c-10.399-4.144-19.671-10.369-27.82-18.679c-8.225-8.387-14.307-17.821-18.242-28.295c-3.94-10.476-5.792-21.262-5.555-32.361
	c0.314-11.024,2.664-21.781,7.055-32.271c4.386-10.492,10.834-19.908,19.341-28.249C70.552,55.1,80.129,48.8,90.709,44.619
	c10.572-4.183,21.332-6.286,32.285-6.305c11.101-0.019,21.851,2.042,32.248,6.185C165.634,48.64,174.946,54.904,183.171,63.292z"/>
<path fill="#D0B316" d="M164.374,168.661l0.709-0.695c12.379-12.897,18.748-27.59,19.103-44.086
	c0.174-8.171-1.197-16.11-4.115-23.812c-2.92-7.702-7.359-14.594-13.32-20.671c-6.035-6.156-12.875-10.769-20.518-13.836
	c-7.646-3.071-15.519-4.559-23.613-4.464c-8.174,0.013-16.125,1.553-23.865,4.61c-7.737,3.061-14.756,7.677-21.057,13.854
	c-6.301,6.18-11.053,13.107-14.264,20.782c-3.21,7.679-4.904,15.599-5.079,23.773c-0.256,8.093,1.083,15.99,4.002,23.694
	c2.918,7.703,7.393,14.63,13.431,20.787c5.958,6.076,12.763,10.652,20.407,13.721s15.551,4.596,23.727,4.583
	C136.421,186.866,151.239,180.784,164.374,168.661z"/>
</g>

</svg>
