<?xml version="1.0" encoding="utf-8"?>
<!-- Generator: Adobe Illustrator 16.0.0, SVG Export Plug-In . SVG Version: 6.00 Build 0)  -->
<!DOCTYPE svg PUBLIC "-//W3C//DTD SVG 1.1//EN" "http://www.w3.org/Graphics/SVG/1.1/DTD/svg11.dtd">
<svg version="1.1" id="Layer_1" xmlns="http://www.w3.org/2000/svg" xmlns:xlink="http://www.w3.org/1999/xlink" x="0px" y="0px"
	 width="388.307px" height="180.585px" viewBox="-22 0 388.307 180.585" enable-background="new -22 0 388.307 180.585"
	 xml:space="preserve">
<g>
	<path fill="#070909" d="M38.238,21.379c8.277,0,16.056,1.602,23.338,4.803c7.279,3.204,13.68,7.617,19.197,13.239
		c11.188,11.405,17.052,25.7,17.588,42.88v57.877h-0.229c-4.293,0-7.932-1.503-10.921-4.511c-2.989-3.006-4.599-6.774-4.829-11.307
		c-0.537,0.626-1.074,1.212-1.609,1.758c-5.519,5.623-11.918,10.036-19.197,13.237c-7.283,3.203-15.061,4.804-23.338,4.804
		c-8.354,0-16.171-1.601-23.451-4.804c-7.282-3.201-13.681-7.614-19.198-13.237c-5.442-5.625-9.733-12.145-12.875-19.565
		C-20.43,99.134-22,91.207-22,82.77c0-8.512,1.569-16.478,4.713-23.9c3.142-7.42,7.433-13.902,12.875-19.449
		c5.519-5.622,11.917-10.035,19.198-13.239C22.067,22.981,29.884,21.379,38.238,21.379z M82.383,83.123v-0.704
		c-0.384-12.653-4.676-23.157-12.875-31.515c-4.063-4.139-8.777-7.382-14.14-9.725c-5.366-2.342-11.076-3.514-17.13-3.514
		c-6.132,0-11.88,1.171-17.243,3.514c-5.365,2.342-10.041,5.585-14.025,9.725c-4.063,4.14-7.242,8.923-9.542,14.352
		c-2.299,5.43-3.449,11.267-3.449,17.515c0,6.25,1.15,12.087,3.449,17.516c2.299,5.43,5.478,10.213,9.542,14.354
		c3.984,4.141,8.66,7.38,14.025,9.723c5.363,2.344,11.11,3.516,17.243,3.516c6.055,0,11.765-1.172,17.13-3.516
		c5.362-2.343,10.076-5.583,14.14-9.723C77.707,106.281,81.999,95.774,82.383,83.123z"/>
	<path fill="#070909" d="M159.253,40.182c-2.583-1.779-5.475-2.67-8.679-2.67h-0.802c-3.562,0.156-6.677,1.239-9.347,3.25
		c-2.671,2.012-4.006,4.875-4.006,8.588c0,3.096,0.978,5.9,2.937,8.415c1.957,2.515,4.518,4.914,7.68,7.195
		c3.158,2.284,6.608,4.583,10.348,6.906c4.808,2.94,9.526,6.15,14.156,9.632c4.627,3.481,8.479,7.543,11.549,12.186
		c3.072,4.644,4.606,10.174,4.606,16.596c0,6.731-1.958,12.613-5.875,17.64c-3.917,5.033-8.725,8.783-14.422,11.259
		s-11.529,3.714-17.493,3.714c-0.892,0-1.781-0.041-2.67-0.116c-6.942-0.388-13.576-2.594-19.896-6.614
		c-6.59-4.488-11.04-10.33-13.354-17.524l4.675-1.044c1.778-0.389,3.471-0.581,5.073-0.581c4.718,0,8.991,1.625,12.819,4.875
		c2.67,2.319,5.252,3.694,7.745,4.118c2.491,0.428,4.406,0.641,5.742,0.641c2.313,0,4.583-0.35,6.811-1.045
		c3.473-1.083,6.387-2.919,8.746-5.514c2.358-2.59,3.539-5.859,3.539-9.807c0-3.714-1.068-7.021-3.205-9.923
		c-2.137-2.901-4.939-5.608-8.413-8.123c-3.472-2.514-7.211-5.008-11.217-7.487c-4.629-2.786-9.103-5.821-13.419-9.111
		c-4.319-3.287-7.902-7.039-10.75-11.257c-2.85-4.216-4.273-9.225-4.273-15.029c0-6.499,1.847-11.913,5.542-16.248
		c3.692-4.333,8.033-7.35,13.021-9.053c4.984-1.701,9.701-2.552,14.154-2.552c1.423,0,2.848,0.078,4.272,0.232
		c6.053,0.62,11.483,2.612,16.29,5.977c4.809,3.365,8.234,8.182,10.282,14.449l-5.607,1.277c-1.692,0.387-3.384,0.579-5.073,0.579
		C166.643,44.011,162.813,42.736,159.253,40.182z"/>
	<path fill="#070909" d="M223.122,3.026c2.019,2.018,3.026,4.439,3.026,7.265c0,2.824-1.008,5.246-3.026,7.263
		c-2.019,2.018-4.439,3.027-7.266,3.027c-2.823,0-5.229-1.01-7.212-3.027c-1.984-2.018-2.978-4.439-2.978-7.263
		c0-2.825,0.993-5.247,2.978-7.265C210.628,1.008,213.033,0,215.857,0C218.682,0,221.104,1.008,223.122,3.026z M224.378,139.972
		h-15.701V41.529c0-4.428,1.506-8.196,4.517-11.301c3.014-3.107,6.666-4.661,10.957-4.661h0.228V139.972z"/>
	<path fill="#070909" d="M306.443,21.379c8.243,0,15.986,1.602,23.237,4.803c7.248,3.204,13.621,7.617,19.115,13.239
		c11.14,11.405,16.977,25.7,17.512,42.88v57.877h-0.229c-4.272,0-7.896-1.503-10.873-4.511c-2.976-3.006-4.577-6.774-4.809-11.307
		c-0.534,0.626-1.068,1.212-1.601,1.758c-5.495,5.623-11.868,10.036-19.115,13.237c-7.25,3.203-14.994,4.804-23.237,4.804
		c-8.318,0-16.103-1.601-23.35-4.804c-7.25-3.201-13.621-7.614-19.115-13.237c-5.419-5.625-9.692-12.145-12.819-19.565
		c-3.13-7.419-4.694-15.349-4.694-23.784c0-8.512,1.564-16.478,4.694-23.9c3.127-7.42,7.399-13.902,12.819-19.449
		c5.494-5.622,11.865-10.035,19.115-13.239C290.341,22.981,298.124,21.379,306.443,21.379z M350.396,83.123v-0.704
		c-0.382-12.653-4.654-23.157-12.819-31.515c-4.045-4.139-8.738-7.382-14.079-9.725c-5.342-2.342-11.027-3.514-17.055-3.514
		c-6.105,0-11.828,1.171-17.169,3.514c-5.341,2.342-9.997,5.585-13.963,9.725c-4.046,4.14-7.211,8.923-9.501,14.352
		c-2.289,5.43-3.435,11.267-3.435,17.515c0,6.25,1.146,12.087,3.435,17.516c2.29,5.43,5.455,10.213,9.501,14.354
		c3.966,4.141,8.622,7.38,13.963,9.723c5.342,2.344,11.063,3.516,17.169,3.516c6.027,0,11.713-1.172,17.055-3.516
		c5.341-2.343,10.033-5.583,14.079-9.723C345.742,106.281,350.014,95.774,350.396,83.123z"/>
	<g>
		<g>
			<g>
				<path fill="#D0B316" d="M92.028,176.046c0,0.66,0.006,1.201,0.017,1.619c0.011,0.42,0.027,0.75,0.05,0.991
					c0.022,0.267,0.044,0.466,0.066,0.597c-1.368,0-2.415-0.285-3.144-0.859c-0.728-0.572-1.091-1.521-1.091-2.844l0.066-16.01
					h-7.276c0-0.992,0.275-1.787,0.827-2.381c0.551-0.597,1.334-0.894,2.349-0.894h15.413c0,0.992-0.276,1.786-0.827,2.381
					c-0.552,0.597-1.334,0.894-2.349,0.894h-4.134L92.028,176.046z"/>
				<path fill="#D0B316" d="M93.346,180.253H92.16c-1.592,0-2.858-0.361-3.763-1.074c-0.976-0.768-1.472-1.989-1.472-3.629
					l0.062-15.01h-7.272v-1c0-1.25,0.368-2.28,1.095-3.062c0.742-0.804,1.779-1.213,3.081-1.213h16.413v1
					c0,1.247-0.368,2.277-1.093,3.061c-0.745,0.806-1.782,1.214-3.083,1.214h-3.132l0.03,15.504c0,0.651,0.006,1.184,0.016,1.596
					c0.01,0.392,0.025,0.699,0.046,0.924c0.02,0.237,0.037,0.408,0.056,0.521L93.346,180.253z M81.863,158.541h7.134l-0.071,17.014
					c0,0.991,0.239,1.684,0.709,2.054c0.351,0.276,0.828,0.465,1.426,0.563c-0.006-0.146-0.012-0.306-0.016-0.48
					c-0.011-0.424-0.017-0.974-0.017-1.645l-0.034-17.506h5.136c0.73,0,1.258-0.188,1.614-0.572
					c0.184-0.198,0.321-0.431,0.414-0.702H83.892c-0.731,0-1.259,0.188-1.614,0.572C82.094,158.036,81.956,158.269,81.863,158.541z"
					/>
			</g>
			<g>
				<path fill="#D0B316" d="M132.777,155.903c1.455,0,2.861,0.253,4.218,0.761c1.355,0.508,2.563,1.258,3.622,2.248
					c1.058,0.992,1.901,2.224,2.529,3.689s0.942,3.17,0.942,5.109c0,1.94-0.314,3.649-0.942,5.127
					c-0.628,1.477-1.472,2.717-2.529,3.721c-1.06,1.004-2.267,1.76-3.622,2.266c-1.356,0.508-2.763,0.762-4.218,0.762
					c-1.456,0-2.86-0.254-4.217-0.762c-1.355-0.506-2.563-1.262-3.622-2.266c-1.059-1.004-1.901-2.244-2.529-3.721
					c-0.629-1.478-0.943-3.187-0.943-5.127c0-1.939,0.313-3.644,0.943-5.109c0.629-1.466,1.472-2.697,2.529-3.689
					c1.059-0.99,2.267-1.74,3.622-2.248C129.916,156.157,131.321,155.903,132.777,155.903z M132.777,176.74
					c0.86,0,1.703-0.176,2.53-0.529c0.827-0.352,1.571-0.903,2.232-1.651c0.662-0.75,1.19-1.688,1.588-2.813
					c0.396-1.125,0.595-2.469,0.595-4.035c0-1.543-0.199-2.877-0.595-4.002c-0.397-1.125-0.926-2.051-1.588-2.778
					s-1.406-1.269-2.232-1.619c-0.827-0.354-1.67-0.529-2.53-0.529c-0.859,0-1.704,0.177-2.529,0.529
					c-0.827,0.353-1.571,0.894-2.233,1.619c-0.661,0.729-1.189,1.653-1.587,2.778s-0.595,2.459-0.595,4.002
					c0,1.566,0.197,2.91,0.595,4.035s0.926,2.063,1.587,2.813c0.662,0.748,1.406,1.301,2.233,1.651
					C131.073,176.564,131.917,176.74,132.777,176.74z"/>
				<path fill="#D0B316" d="M132.777,180.585c-1.568,0-3.105-0.277-4.567-0.825c-1.473-0.55-2.805-1.383-3.959-2.477
					c-1.153-1.094-2.083-2.458-2.762-4.055c-0.679-1.595-1.023-3.452-1.023-5.519c0-2.07,0.345-3.922,1.024-5.504
					c0.682-1.589,1.612-2.943,2.764-4.024c1.152-1.077,2.482-1.903,3.955-2.455c2.932-1.096,6.217-1.093,9.136,0
					c1.471,0.551,2.802,1.377,3.954,2.454c1.155,1.084,2.085,2.438,2.766,4.026c0.679,1.585,1.023,3.437,1.023,5.503
					c0,2.065-0.344,3.922-1.022,5.519c-0.679,1.595-1.607,2.959-2.761,4.055c-1.155,1.094-2.487,1.927-3.961,2.477
					C135.883,180.308,134.345,180.585,132.777,180.585z M132.777,156.903c-1.327,0-2.628,0.234-3.867,0.697
					c-1.225,0.459-2.331,1.146-3.289,2.042c-0.949,0.89-1.721,2.019-2.293,3.354c-0.572,1.331-0.862,2.918-0.862,4.715
					c0,1.796,0.291,3.39,0.863,4.735c0.572,1.344,1.344,2.482,2.297,3.387c0.958,0.907,2.063,1.599,3.284,2.055
					c2.479,0.926,5.26,0.926,7.734,0c1.222-0.456,2.327-1.147,3.285-2.055c0.954-0.905,1.727-2.045,2.297-3.387
					c0.573-1.347,0.863-2.939,0.863-4.735c0-1.795-0.29-3.381-0.862-4.716c-0.571-1.333-1.343-2.461-2.294-3.354
					c-0.958-0.896-2.065-1.583-3.289-2.041C135.408,157.137,134.107,156.903,132.777,156.903z M132.777,177.74
					c-0.995,0-1.978-0.205-2.923-0.61c-0.955-0.404-1.827-1.047-2.589-1.907c-0.743-0.843-1.341-1.9-1.781-3.144
					c-0.433-1.225-0.652-2.694-0.652-4.368c0-1.652,0.219-3.11,0.652-4.335c0.439-1.243,1.041-2.292,1.789-3.117
					c0.761-0.833,1.629-1.461,2.583-1.867c1.896-0.81,3.959-0.809,5.846,0.001c0.951,0.403,1.819,1.031,2.578,1.865
					c0.748,0.821,1.351,1.871,1.791,3.118c0.433,1.23,0.652,2.688,0.652,4.335c0,1.668-0.219,3.138-0.651,4.367
					c-0.44,1.245-1.039,2.303-1.782,3.144c-0.76,0.859-1.631,1.502-2.591,1.909C134.753,177.535,133.77,177.74,132.777,177.74z
					 M132.777,159.782c-0.72,0-1.439,0.151-2.136,0.449c-0.689,0.293-1.324,0.755-1.888,1.373c-0.566,0.625-1.033,1.446-1.383,2.438
					c-0.357,1.01-0.538,2.244-0.538,3.669c0,1.446,0.181,2.692,0.538,3.702c0.354,1.001,0.823,1.837,1.394,2.485
					c0.562,0.634,1.192,1.104,1.874,1.392c1.395,0.597,2.881,0.597,4.276,0.001c0.685-0.291,1.316-0.76,1.876-1.394
					c0.572-0.647,1.041-1.483,1.395-2.484c0.356-1.015,0.538-2.261,0.538-3.702c0-1.42-0.181-2.654-0.538-3.67
					c-0.351-0.993-0.817-1.813-1.384-2.438c-0.563-0.618-1.197-1.08-1.883-1.371C134.209,159.928,133.51,159.782,132.777,159.782z"
					/>
			</g>
			<g>
				<path fill="#D0B316" d="M186.458,168.703c0,1.963-0.227,3.627-0.679,4.994s-1.092,2.492-1.918,3.375
					c-0.826,0.881-1.824,1.521-2.993,1.918c-1.169,0.397-2.459,0.596-3.87,0.596c-1.435,0-2.729-0.198-3.887-0.596
					c-1.156-0.396-2.145-1.037-2.96-1.918c-0.815-0.883-1.449-2.008-1.901-3.375s-0.679-3.031-0.679-4.994l0.1-8.766
					c0-1.322,0.353-2.266,1.058-2.827s1.742-0.843,3.109-0.843c-0.022,0.132-0.044,0.331-0.066,0.595
					c-0.021,0.243-0.039,0.574-0.049,0.992c-0.012,0.419-0.017,0.96-0.017,1.62v9.229c-0.044,1.479,0.044,2.707,0.265,3.688
					c0.22,0.981,0.563,1.76,1.025,2.332c0.463,0.573,1.029,0.981,1.703,1.225c0.672,0.242,1.438,0.363,2.299,0.363
					c0.859,0,1.626-0.121,2.299-0.363c0.672-0.241,1.24-0.649,1.703-1.225c0.463-0.572,0.805-1.351,1.024-2.332
					c0.221-0.979,0.319-2.209,0.298-3.688l0.1-8.766c0-1.322,0.353-2.266,1.059-2.827c0.706-0.563,1.742-0.843,3.109-0.843
					c-0.022,0.132-0.044,0.331-0.066,0.595c-0.021,0.243-0.039,0.574-0.05,0.992c-0.011,0.419-0.017,0.96-0.017,1.62
					L186.458,168.703L186.458,168.703z"/>
				<path fill="#D0B316" d="M176.998,180.585c-1.539,0-2.956-0.219-4.211-0.65c-1.309-0.448-2.443-1.184-3.369-2.184
					c-0.91-0.985-1.622-2.243-2.117-3.74c-0.484-1.464-0.729-3.25-0.729-5.309l0.1-8.777c0-1.625,0.483-2.84,1.435-3.598
					c0.884-0.704,2.14-1.061,3.732-1.061h1.185l-0.199,1.168c-0.02,0.113-0.037,0.285-0.056,0.512
					c-0.021,0.23-0.037,0.54-0.046,0.931c-0.011,0.416-0.016,0.948-0.016,1.597v9.229c-0.042,1.418,0.039,2.575,0.24,3.469
					c0.185,0.826,0.463,1.473,0.827,1.923c0.35,0.434,0.764,0.732,1.265,0.913c1.119,0.402,2.797,0.402,3.919,0
					c0.502-0.181,0.915-0.479,1.263-0.911c0.365-0.451,0.643-1.098,0.828-1.924c0.202-0.896,0.294-2.059,0.274-3.455l0.1-8.792
					c0-1.626,0.483-2.84,1.436-3.598c0.881-0.703,2.137-1.061,3.732-1.061h1.185l-0.199,1.168c-0.02,0.113-0.037,0.285-0.056,0.512
					c-0.021,0.23-0.037,0.541-0.047,0.933c-0.01,0.412-0.016,0.945-0.016,1.595v9.229c0.001,2.058-0.244,3.844-0.729,5.309
					c-0.496,1.498-1.214,2.758-2.137,3.744c-0.938,1-2.083,1.733-3.402,2.182C179.924,180.367,178.513,180.585,176.998,180.585z
					 M170.739,157.347c-0.588,0.097-1.053,0.278-1.387,0.545c-0.452,0.359-0.681,1.048-0.681,2.045l-0.1,8.777
					c0,1.833,0.211,3.408,0.628,4.668c0.405,1.225,0.973,2.237,1.687,3.011c0.699,0.755,1.557,1.311,2.55,1.65
					c1.047,0.359,2.245,0.542,3.563,0.542c1.296,0,2.49-0.183,3.548-0.542c1.005-0.342,1.875-0.898,2.585-1.656
					c0.723-0.771,1.294-1.782,1.698-3.005c0.417-1.26,0.628-2.834,0.628-4.68l-0.001-9.229c0-0.671,0.006-1.22,0.017-1.646
					c0.004-0.175,0.01-0.335,0.017-0.481c-0.589,0.097-1.053,0.278-1.387,0.544c-0.453,0.36-0.682,1.049-0.682,2.046l-0.1,8.777
					c0.023,1.55-0.083,2.833-0.322,3.896c-0.252,1.128-0.664,2.051-1.223,2.741c-0.576,0.716-1.297,1.233-2.143,1.537
					c-1.556,0.56-3.72,0.56-5.275-0.001c-0.843-0.304-1.564-0.821-2.142-1.537c-0.559-0.69-0.971-1.613-1.224-2.741
					c-0.241-1.071-0.335-2.359-0.288-3.937l0-9.199c0-0.672,0.005-1.222,0.017-1.648
					C170.727,157.653,170.733,157.494,170.739,157.347z"/>
			</g>
			<g>
				<path fill="#D0B316" d="M214.77,176.046c0,0.684,0.005,1.229,0.018,1.637c0.011,0.408,0.026,0.732,0.05,0.975
					c0.021,0.266,0.043,0.465,0.065,0.596c-1.367,0-2.403-0.28-3.108-0.844c-0.706-0.561-1.06-1.504-1.06-2.826v-13.992
					c0-1.059,0.188-1.938,0.563-2.646c0.375-0.705,0.888-1.272,1.538-1.702c0.649-0.432,1.428-0.738,2.332-0.927
					c0.903-0.187,1.885-0.313,2.943-0.38c0.684-0.044,1.411-0.018,2.184,0.083c0.771,0.099,1.538,0.276,2.299,0.528
					c0.761,0.255,1.483,0.58,2.167,0.977c0.683,0.396,1.284,0.889,1.803,1.473s0.926,1.252,1.225,2
					c0.298,0.75,0.424,1.588,0.38,2.514c-0.044,1.303-0.458,2.459-1.24,3.475c-0.783,1.014-1.913,1.74-3.39,2.182
					c0.507,0.179,0.937,0.459,1.29,0.845c0.352,0.387,0.667,0.85,0.941,1.389c0.275,0.541,0.551,1.131,0.827,1.771
					c0.275,0.641,0.579,1.291,0.909,1.951c0.243,0.508,0.507,0.965,0.794,1.373c0.286,0.407,0.551,0.768,0.794,1.075
					c0.265,0.353,0.54,0.66,0.827,0.927c-0.198,0.196-0.419,0.362-0.661,0.496c-0.243,0.108-0.529,0.196-0.86,0.264
					c-0.331,0.065-0.728,0.065-1.189,0c-0.529-0.066-1.016-0.219-1.456-0.463c-0.441-0.242-0.882-0.617-1.323-1.125
					c-0.441-0.506-0.91-1.178-1.406-2.019c-0.496-0.838-1.063-1.885-1.704-3.141c-0.375-0.707-0.826-1.24-1.355-1.605
					c-0.529-0.362-1.18-0.655-1.952-0.877c-0.132-0.043-0.259-0.075-0.38-0.098s-0.237-0.056-0.347-0.101
					c-0.154-0.021-0.37-0.061-0.646-0.115c-0.276-0.055-0.557-0.104-0.843-0.149c-0.331-0.063-0.673-0.131-1.025-0.196v6.678H214.77
					z M218.11,159.177c-0.662,0.066-1.208,0.182-1.637,0.348c-0.43,0.164-0.771,0.363-1.024,0.596
					c-0.255,0.23-0.437,0.49-0.547,0.777c-0.11,0.285-0.166,0.572-0.166,0.859s0,0.666,0,1.141s0.006,0.955,0.018,1.439
					c0.011,0.483,0.017,0.932,0.017,1.34s0,0.678,0,0.809c0.507,0.111,1.025,0.211,1.556,0.299c0.44,0.066,0.926,0.127,1.454,0.182
					c0.529,0.056,1.048,0.082,1.556,0.082c1.389,0,2.479-0.274,3.273-0.825c0.794-0.552,1.269-1.455,1.422-2.713
					c0.089-0.814-0.032-1.517-0.363-2.101s-0.783-1.047-1.356-1.389s-1.234-0.584-1.983-0.729
					C219.576,159.15,218.838,159.111,218.11,159.177z"/>
				<path fill="#D0B316" d="M227.853,180.306c-0.241,0-0.503-0.019-0.784-0.059c-0.644-0.081-1.255-0.276-1.8-0.578
					c-0.546-0.3-1.068-0.74-1.594-1.344c-0.48-0.551-0.989-1.28-1.513-2.167c-0.499-0.843-1.082-1.918-1.733-3.194
					c-0.289-0.544-0.639-0.965-1.033-1.236c-0.437-0.299-0.996-0.549-1.659-0.739c-0.122-0.039-0.206-0.061-0.287-0.075
					c-0.144-0.026-0.283-0.063-0.416-0.11c-0.155-0.024-0.352-0.062-0.588-0.108c-0.222-0.043-0.445-0.084-0.674-0.121v5.473
					c-0.002,0.672,0.003,1.206,0.016,1.605c0.01,0.384,0.023,0.685,0.045,0.909c0.02,0.244,0.037,0.412,0.056,0.523l0.201,1.169
					h-1.187c-1.595,0-2.851-0.357-3.732-1.063c-0.952-0.756-1.436-1.97-1.436-3.607v-13.992c0-1.217,0.229-2.265,0.679-3.114
					c0.453-0.852,1.082-1.547,1.871-2.067c0.745-0.496,1.647-0.856,2.679-1.071c0.949-0.196,1.986-0.33,3.085-0.399
					c0.741-0.048,1.547-0.019,2.375,0.09c0.822,0.104,1.658,0.297,2.484,0.57c0.826,0.276,1.617,0.634,2.354,1.061
					c0.771,0.448,1.46,1.011,2.049,1.674c0.59,0.665,1.063,1.437,1.405,2.293c0.35,0.88,0.501,1.866,0.45,2.933
					c-0.051,1.493-0.537,2.855-1.447,4.037c-0.557,0.721-1.263,1.318-2.11,1.789c0.398,0.447,0.751,0.972,1.052,1.562
					c0.284,0.559,0.568,1.168,0.854,1.828c0.269,0.625,0.564,1.258,0.886,1.9c0.227,0.474,0.466,0.887,0.718,1.245
					c0.273,0.391,0.527,0.735,0.76,1.03c0.241,0.32,0.479,0.587,0.724,0.814l0.764,0.709l-0.741,0.734
					c-0.264,0.261-0.56,0.483-0.881,0.66c-0.386,0.176-0.745,0.287-1.145,0.368C228.365,180.284,228.115,180.306,227.853,180.306z
					 M213.772,168.167l2.214,0.416c0.266,0.042,0.56,0.094,0.849,0.15c0.249,0.05,0.443,0.087,0.583,0.105l0.248,0.066
					c0.043,0.018,0.094,0.032,0.149,0.042c0.161,0.03,0.331,0.073,0.507,0.13c0.836,0.239,1.59,0.58,2.207,1.003
					c0.664,0.458,1.227,1.117,1.675,1.962c0.639,1.254,1.202,2.292,1.681,3.1c0.462,0.782,0.898,1.411,1.3,1.871
					c0.363,0.418,0.716,0.722,1.051,0.905c0.329,0.183,0.688,0.296,1.099,0.348c0.359,0.05,0.635,0.058,0.871,0.011
					c0.05-0.01,0.098-0.021,0.145-0.031c-0.019-0.024-0.037-0.049-0.056-0.073c-0.238-0.301-0.514-0.677-0.813-1.101
					c-0.315-0.448-0.61-0.959-0.878-1.517c-0.331-0.662-0.643-1.33-0.926-1.988c-0.267-0.617-0.533-1.188-0.8-1.711
					c-0.23-0.453-0.496-0.847-0.79-1.17c-0.238-0.261-0.528-0.449-0.883-0.574l-2.896-1.021l2.943-0.88
					c1.283-0.384,2.227-0.984,2.885-1.835c0.657-0.854,0.995-1.802,1.032-2.897c0.037-0.793-0.067-1.499-0.311-2.11
					c-0.255-0.64-0.606-1.214-1.043-1.705c-0.446-0.504-0.971-0.932-1.557-1.272c-0.62-0.359-1.287-0.659-1.982-0.893
					c-0.701-0.232-1.411-0.396-2.108-0.484c-0.704-0.092-1.373-0.117-1.992-0.077c-1.007,0.063-1.95,0.185-2.806,0.361
					c-0.779,0.162-1.446,0.425-1.98,0.78c-0.517,0.341-0.911,0.778-1.209,1.339c-0.295,0.557-0.445,1.289-0.445,2.176v13.992
					c0,0.997,0.229,1.684,0.682,2.043c0.335,0.268,0.799,0.45,1.388,0.546c-0.007-0.14-0.012-0.295-0.017-0.463
					c-0.013-0.411-0.018-0.967-0.018-1.663L213.772,168.167z M219.335,168.048c-0.55,0-1.108-0.029-1.66-0.088
					c-0.544-0.056-1.044-0.118-1.499-0.187c-0.562-0.094-1.098-0.196-1.621-0.312l-0.785-0.173v-1.612
					c0-0.401-0.006-0.842-0.017-1.317c-0.012-0.491-0.018-0.979-0.018-1.462v-1.141c0-0.409,0.078-0.82,0.233-1.221
					c0.167-0.433,0.439-0.823,0.809-1.158c0.341-0.313,0.793-0.579,1.339-0.788c0.511-0.197,1.132-0.332,1.894-0.408
					c0.844-0.076,1.662-0.032,2.504,0.128c0.864,0.167,1.641,0.453,2.309,0.852c0.722,0.431,1.299,1.021,1.715,1.755
					c0.436,0.768,0.599,1.677,0.487,2.702c-0.189,1.558-0.811,2.706-1.846,3.426C222.219,167.71,220.926,168.048,219.335,168.048z
					 M215.77,165.67c0.237,0.045,0.477,0.088,0.719,0.128c0.412,0.062,0.883,0.12,1.394,0.173c0.485,0.052,0.974,0.077,1.453,0.077
					c1.175,0,2.085-0.218,2.703-0.646c0.555-0.386,0.882-1.044,1-2.013c0.063-0.587-0.017-1.091-0.241-1.486
					c-0.246-0.435-0.573-0.77-0.998-1.022c-0.47-0.28-1.028-0.483-1.661-0.606c-0.656-0.125-1.305-0.159-1.938-0.101
					c-0.563,0.057-1.026,0.152-1.366,0.284c-0.309,0.117-0.552,0.255-0.709,0.399c-0.143,0.129-0.235,0.258-0.29,0.399
					c-0.067,0.174-0.1,0.337-0.1,0.501v1.141c0,0.467,0.006,0.939,0.018,1.415C215.764,164.804,215.77,165.257,215.77,165.67z"/>
			</g>
			<g>
				<path fill="#D0B316" d="M260.248,179.585c-1.125,0-2.134-0.133-3.026-0.398c-0.893-0.264-1.659-0.578-2.299-0.941
					c-0.641-0.365-1.152-0.731-1.538-1.108c-0.386-0.373-0.624-0.673-0.711-0.894l0.099-0.1c0.199-0.285,0.419-0.518,0.662-0.693
					c0.22-0.133,0.452-0.199,0.695-0.199c0.154,0,0.303,0.023,0.446,0.066c0.143,0.045,0.303,0.1,0.479,0.166
					c0.176,0.043,0.354,0.104,0.529,0.182s0.375,0.17,0.595,0.281c0.441,0.176,0.959,0.336,1.555,0.479
					c0.596,0.145,1.313,0.237,2.15,0.28h0.364c0.814,0,1.51-0.094,2.084-0.28c0.572-0.187,1.036-0.431,1.389-0.728
					c0.354-0.299,0.606-0.629,0.761-0.992c0.154-0.364,0.231-0.711,0.231-1.043c0.021-0.571-0.149-1.096-0.513-1.569
					c-0.364-0.474-0.866-0.933-1.506-1.373c-0.64-0.441-1.389-0.894-2.249-1.354c-0.859-0.463-1.774-0.96-2.745-1.488
					c-1.588-0.904-2.768-1.914-3.539-3.027c-0.772-1.113-1.104-2.287-0.992-3.521c0.088-0.926,0.342-1.729,0.761-2.416
					c0.419-0.682,0.943-1.25,1.571-1.703c0.628-0.451,1.334-0.781,2.117-0.991c0.782-0.209,1.57-0.314,2.364-0.314
					c1.346,0,2.525,0.177,3.539,0.529c1.015,0.353,1.874,0.739,2.58,1.158c0.815,0.485,1.51,1.036,2.084,1.653l-0.065,0.101
					c-0.266,0.33-0.485,0.551-0.662,0.659c-0.222,0.154-0.463,0.232-0.729,0.232c-0.243,0-0.541-0.078-0.893-0.232
					c-0.177-0.065-0.358-0.137-0.546-0.215c-0.188-0.076-0.393-0.16-0.612-0.248c-0.64-0.241-1.318-0.436-2.034-0.578
					c-0.717-0.145-1.351-0.204-1.901-0.182c-0.287,0-0.596,0.021-0.927,0.064c-0.331,0.045-0.645,0.123-0.942,0.232
					c-0.298,0.11-0.563,0.266-0.794,0.463c-0.231,0.199-0.393,0.453-0.479,0.762c-0.198,0.66-0.061,1.246,0.414,1.752
					c0.474,0.508,1.113,1.004,1.918,1.488c0.805,0.485,1.698,0.965,2.679,1.438c0.98,0.476,1.902,1.009,2.763,1.604
					c1.189,0.838,2.078,1.692,2.663,2.563c0.584,0.871,0.941,1.726,1.074,2.563c0.134,0.838,0.089,1.643-0.132,2.414
					c-0.221,0.772-0.528,1.457-0.926,2.051c-0.706,1.104-1.759,1.947-3.159,2.531C263.495,179.292,261.946,179.585,260.248,179.585z
					"/>
				<path fill="#D0B316" d="M260.248,180.585c-1.217,0-2.33-0.148-3.312-0.44c-0.958-0.282-1.803-0.63-2.508-1.03
					c-0.729-0.415-1.298-0.828-1.743-1.263c-0.498-0.481-0.799-0.877-0.942-1.242l-0.238-0.606l0.5-0.506
					c0.253-0.347,0.536-0.635,0.844-0.857c0.701-0.432,1.356-0.479,2.015-0.28c0.155,0.049,0.316,0.104,0.49,0.168
					c0.212,0.056,0.426,0.13,0.637,0.224c0.189,0.084,0.403,0.184,0.641,0.304c0.316,0.121,0.794,0.268,1.337,0.398
					c0.53,0.129,1.192,0.215,1.967,0.254l0.313-0.001c0.705,0,1.303-0.078,1.775-0.231c0.443-0.145,0.799-0.327,1.053-0.541
					c0.232-0.196,0.392-0.399,0.484-0.618c0.102-0.238,0.152-0.458,0.152-0.652c0.013-0.378-0.085-0.672-0.307-0.961
					c-0.3-0.391-0.73-0.78-1.279-1.158c-0.613-0.423-1.338-0.858-2.154-1.296c-0.862-0.465-1.778-0.963-2.751-1.492
					c-1.728-0.983-3.028-2.103-3.883-3.336c-0.906-1.306-1.298-2.713-1.166-4.181c0.103-1.076,0.406-2.032,0.903-2.847
					c0.488-0.795,1.106-1.465,1.84-1.993c0.724-0.521,1.546-0.906,2.443-1.146c0.866-0.231,1.748-0.349,2.623-0.349
					c1.45,0,2.752,0.196,3.867,0.585c1.069,0.371,1.998,0.789,2.763,1.242c0.894,0.533,1.669,1.148,2.306,1.832l0.531,0.572
					l-0.55,0.837c-0.349,0.433-0.641,0.714-0.919,0.885c-0.626,0.439-1.468,0.536-2.546,0.063c-0.134-0.048-0.328-0.124-0.528-0.208
					l-0.599-0.242c-0.576-0.217-1.207-0.396-1.858-0.526c-0.551-0.11-1.046-0.167-1.476-0.167l-0.189,0.004
					c-0.288,0.001-0.554,0.021-0.839,0.057c-0.248,0.034-0.495,0.095-0.727,0.18c-0.184,0.068-0.345,0.162-0.49,0.285
					c-0.08,0.069-0.132,0.154-0.165,0.272c-0.101,0.334-0.049,0.553,0.181,0.796c0.409,0.439,0.982,0.882,1.704,1.316
					c0.772,0.466,1.646,0.935,2.598,1.395c1.035,0.502,2.009,1.067,2.897,1.683c1.293,0.911,2.274,1.86,2.924,2.828
					c0.662,0.988,1.076,1.985,1.231,2.965c0.156,0.976,0.104,1.934-0.157,2.846c-0.25,0.873-0.605,1.657-1.057,2.332
					c-0.804,1.256-2.021,2.236-3.605,2.897C263.761,180.265,262.068,180.585,260.248,180.585z M253.961,176.301
					c0.036,0.036,0.076,0.075,0.119,0.117c0.32,0.313,0.769,0.634,1.338,0.958c0.571,0.324,1.273,0.611,2.087,0.852
					c0.798,0.237,1.72,0.357,2.743,0.357c1.555,0,2.989-0.269,4.263-0.798c1.218-0.509,2.102-1.211,2.7-2.147
					c0.348-0.519,0.615-1.113,0.807-1.786c0.181-0.629,0.216-1.296,0.106-1.982c-0.11-0.691-0.419-1.42-0.918-2.164
					c-0.512-0.763-1.322-1.538-2.408-2.303c-0.797-0.552-1.682-1.065-2.623-1.522c-1.005-0.485-1.934-0.984-2.759-1.481
					c-0.881-0.53-1.599-1.09-2.133-1.663c-0.711-0.758-0.939-1.726-0.641-2.722c0.136-0.481,0.401-0.901,0.785-1.231
					c0.325-0.277,0.694-0.493,1.099-0.643c0.37-0.136,0.758-0.232,1.155-0.286c0.378-0.049,0.733-0.073,1.062-0.073
					c0.048-0.003,0.138-0.005,0.23-0.005c0.562,0,1.19,0.069,1.868,0.206c0.757,0.15,1.494,0.36,2.189,0.623l0.635,0.257
					c0.185,0.076,0.354,0.143,0.518,0.204c0.335,0.145,0.485,0.166,0.533,0.17c-0.342-0.28-0.718-0.543-1.127-0.786
					c-0.647-0.385-1.454-0.745-2.396-1.073c-0.904-0.314-1.984-0.474-3.211-0.474c-0.701,0-1.409,0.095-2.106,0.28
					c-0.663,0.178-1.266,0.46-1.791,0.838c-0.517,0.372-0.956,0.849-1.304,1.414c-0.336,0.551-0.544,1.221-0.617,1.987
					c-0.09,0.997,0.178,1.934,0.818,2.856c0.684,0.986,1.764,1.903,3.213,2.729c0.952,0.519,1.866,1.015,2.725,1.477
					c0.88,0.472,1.669,0.947,2.343,1.412c0.72,0.496,1.302,1.029,1.73,1.587c0.507,0.66,0.748,1.405,0.719,2.215
					c0.001,0.428-0.104,0.91-0.31,1.396c-0.216,0.508-0.564,0.968-1.036,1.366c-0.454,0.382-1.033,0.689-1.725,0.915
					c-0.673,0.219-1.479,0.329-2.394,0.329h-0.364c-0.963-0.048-1.728-0.148-2.386-0.309c-0.634-0.152-1.203-0.328-1.689-0.522
					c-0.284-0.14-0.469-0.224-0.631-0.296c-0.12-0.054-0.24-0.095-0.36-0.124l-0.116-0.036c-0.156-0.06-0.299-0.107-0.426-0.147
					C254.204,176.25,254.14,176.198,253.961,176.301z"/>
			</g>
		</g>
	</g>
</g>
</svg>
