<?xml version="1.0" encoding="utf-8"?>
<!-- Generator: Adobe Illustrator 16.0.0, SVG Export Plug-In . SVG Version: 6.00 Build 0)  -->
<!DOCTYPE svg PUBLIC "-//W3C//DTD SVG 1.1//EN" "http://www.w3.org/Graphics/SVG/1.1/DTD/svg11.dtd">
<svg version="1.1" id="Layer_1" xmlns="http://www.w3.org/2000/svg" xmlns:xlink="http://www.w3.org/1999/xlink" x="0px" y="0px"
	 width="576.653px" height="269.042px" viewBox="0 0 576.653 269.042" enable-background="new 0 0 576.653 269.042"
	 xml:space="preserve">
<g>
	<path fill="#070909" d="M89.455,31.749c12.292,0,23.844,2.379,34.658,7.133c10.81,4.758,20.315,11.311,28.509,19.66
		c16.615,16.937,25.322,38.166,26.119,63.679v85.95H178.4c-6.375,0-11.779-2.232-16.218-6.699
		c-4.439-4.465-6.829-10.061-7.171-16.791c-0.797,0.93-1.595,1.8-2.39,2.611c-8.195,8.35-17.699,14.902-28.509,19.656
		c-10.816,4.758-22.366,7.135-34.658,7.135c-12.405,0-24.014-2.377-34.826-7.135c-10.814-4.754-20.316-11.308-28.51-19.656
		c-8.082-8.354-14.454-18.035-19.12-29.057C2.331,147.218,0,135.446,0,122.917c0-12.642,2.331-24.471,6.999-35.493
		c4.665-11.019,11.038-20.645,19.12-28.883c8.195-8.349,17.697-14.902,28.51-19.66C65.441,34.128,77.05,31.749,89.455,31.749z
		 M155.013,123.442v-1.046c-0.57-18.79-6.944-34.389-19.12-46.802c-6.035-6.146-13.035-10.962-20.998-14.441
		c-7.969-3.478-16.449-5.219-25.439-5.219c-9.106,0-17.642,1.739-25.607,5.219c-7.967,3.478-14.911,8.294-20.828,14.441
		c-6.033,6.148-10.755,13.252-14.17,21.313c-3.414,8.064-5.122,16.732-5.122,26.011c0,9.282,1.708,17.951,5.122,26.012
		c3.414,8.063,8.134,15.167,14.17,21.315c5.917,6.148,12.861,10.959,20.828,14.438c7.965,3.48,16.5,5.223,25.607,5.223
		c8.992,0,17.471-1.74,25.439-5.223c7.963-3.479,14.963-8.291,20.998-14.438C148.07,157.832,154.444,142.229,155.013,123.442z"/>
	<path fill="#070909" d="M269.169,59.672c-3.836-2.643-8.13-3.965-12.889-3.965h-1.19c-5.289,0.231-9.915,1.839-13.88,4.826
		c-3.967,2.987-5.949,7.24-5.949,12.753c0,4.597,1.452,8.762,4.361,12.497c2.906,3.734,6.709,7.298,11.404,10.685
		c4.69,3.393,9.813,6.807,15.367,10.256c7.14,4.366,14.146,9.134,21.022,14.305c6.871,5.169,12.591,11.201,17.15,18.098
		c4.563,6.896,6.842,15.107,6.842,24.646c0,9.996-2.908,18.729-8.726,26.194c-5.817,7.476-12.956,13.043-21.417,16.721
		c-8.461,3.678-17.122,5.516-25.979,5.516c-1.324,0-2.646-0.062-3.965-0.172c-10.31-0.576-20.161-3.854-29.546-9.822
		c-9.786-6.666-16.395-15.342-19.83-26.024l6.942-1.552c2.641-0.576,5.153-0.861,7.533-0.861c7.007,0,13.353,2.413,19.038,7.238
		c3.965,3.445,7.799,5.486,11.502,6.115c3.699,0.637,6.543,0.951,8.527,0.951c3.436,0,6.806-0.519,10.113-1.552
		c5.157-1.606,9.484-4.334,12.988-8.188c3.503-3.846,5.256-8.701,5.256-14.563c0-5.516-1.586-10.426-4.76-14.734
		c-3.173-4.311-7.335-8.33-12.493-12.063c-5.156-3.733-10.709-7.437-16.658-11.118c-6.874-4.138-13.518-8.645-19.928-13.53
		c-6.414-4.882-11.735-10.453-15.964-16.718c-4.231-6.261-6.347-13.7-6.347-22.318c0-9.651,2.743-17.691,8.23-24.129
		c5.483-6.435,11.93-10.916,19.336-13.444c7.402-2.526,14.407-3.79,21.02-3.79c2.113,0,4.229,0.116,6.345,0.344
		c8.989,0.921,17.054,3.879,24.192,8.876c7.142,4.997,12.228,12.151,15.271,21.457l-8.328,1.897c-2.514,0.575-5.024,0.86-7.533,0.86
		C280.143,65.359,274.455,63.465,269.169,59.672z"/>
	<path fill="#070909" d="M364.018,4.494c2.998,2.997,4.494,6.592,4.494,10.789c0,4.193-1.496,7.791-4.494,10.786
		c-2.998,2.996-6.594,4.495-10.791,4.495c-4.191,0-7.764-1.5-10.709-4.495c-2.945-2.997-4.422-6.593-4.422-10.786
		c0-4.196,1.477-7.792,4.422-10.789S349.036,0,353.227,0C357.422,0,361.02,1.497,364.018,4.494z M365.883,207.865h-23.316V61.672
		c0-6.576,2.234-12.171,6.707-16.782c4.475-4.614,9.898-6.922,16.271-6.922h0.338V207.865L365.883,207.865z"/>
	<path fill="#070909" d="M487.752,31.749c12.24,0,23.74,2.379,34.508,7.133c10.766,4.758,20.229,11.311,28.389,19.66
		c16.543,16.937,25.211,38.166,26.006,63.679v85.95h-0.342c-6.346,0-11.727-2.232-16.146-6.699
		c-4.418-4.465-6.797-10.061-7.141-16.791c-0.793,0.93-1.586,1.8-2.377,2.611c-8.16,8.35-17.625,14.902-28.389,19.656
		c-10.766,4.758-22.268,7.135-34.508,7.135c-12.354,0-23.914-2.377-34.676-7.135c-10.768-4.754-20.229-11.308-28.387-19.656
		c-8.049-8.354-14.395-18.035-19.037-29.057c-4.648-11.018-6.973-22.794-6.973-35.321c0-12.641,2.324-24.471,6.973-35.492
		c4.643-11.02,10.986-20.646,19.037-28.883c8.158-8.349,17.619-14.902,28.387-19.66C463.84,34.128,475.401,31.749,487.752,31.749z
		 M553.026,123.442v-1.046c-0.566-18.79-6.912-34.389-19.037-46.802c-6.008-6.146-12.979-10.962-20.908-14.441
		c-7.934-3.478-16.377-5.219-25.328-5.219c-9.064,0-17.564,1.739-25.496,5.219c-7.932,3.478-14.846,8.294-20.734,14.441
		c-6.01,6.148-10.709,13.252-14.109,21.313c-3.4,8.064-5.102,16.732-5.102,26.011c0,9.282,1.701,17.951,5.102,26.012
		c3.4,8.063,8.102,15.167,14.109,21.315c5.889,6.148,12.805,10.959,20.734,14.438c7.934,3.48,16.432,5.223,25.496,5.223
		c8.951,0,17.396-1.74,25.328-5.223c7.932-3.479,14.898-8.291,20.908-14.438C546.116,157.832,552.458,142.229,553.026,123.442z"/>
	<g>
		<g>
			<path fill="#D0B316" d="M169.336,261.437c0,0.98,0.009,1.784,0.024,2.404c0.016,0.623,0.041,1.113,0.074,1.473
				c0.033,0.396,0.065,0.691,0.099,0.887c-2.032,0-3.586-0.425-4.668-1.277c-1.081-0.85-1.62-2.26-1.62-4.223l0.099-23.775h-10.806
				c0-1.473,0.409-2.653,1.229-3.535c0.818-0.887,1.981-1.327,3.488-1.327h22.889c0,1.474-0.411,2.653-1.229,3.536
				c-0.819,0.886-1.981,1.326-3.488,1.326h-6.139L169.336,261.437z"/>
			<path fill="#D0B316" d="M229.851,231.523c2.16,0,4.249,0.376,6.263,1.13c2.014,0.755,3.806,1.868,5.379,3.339
				c1.571,1.473,2.824,3.303,3.757,5.479s1.399,4.707,1.399,7.588s-0.467,5.419-1.399,7.613c-0.933,2.193-2.186,4.035-3.757,5.524
				c-1.573,1.491-3.365,2.613-5.379,3.364c-2.014,0.755-4.103,1.132-6.263,1.132c-2.163,0-4.248-0.377-6.263-1.132
				c-2.013-0.751-3.806-1.873-5.379-3.364c-1.572-1.489-2.823-3.331-3.756-5.524c-0.935-2.194-1.401-4.732-1.401-7.613
				s0.466-5.411,1.401-7.588c0.934-2.178,2.186-4.006,3.756-5.479c1.572-1.471,3.366-2.584,5.379-3.339
				C225.603,231.9,227.688,231.523,229.851,231.523z M229.851,262.466c1.277,0,2.528-0.262,3.757-0.785
				c1.229-0.521,2.334-1.342,3.315-2.453c0.983-1.113,1.768-2.507,2.358-4.178c0.587-1.672,0.883-3.666,0.883-5.992
				c0-2.292-0.296-4.271-0.883-5.943c-0.591-1.671-1.375-3.046-2.358-4.125c-0.983-1.08-2.088-1.885-3.315-2.404
				c-1.229-0.526-2.479-0.787-3.757-0.787c-1.276,0-2.531,0.264-3.757,0.787c-1.229,0.522-2.333,1.326-3.316,2.404
				c-0.981,1.082-1.767,2.454-2.356,4.125c-0.591,1.672-0.884,3.651-0.884,5.943c0,2.326,0.293,4.32,0.884,5.992
				c0.59,1.671,1.375,3.064,2.356,4.178c0.983,1.111,2.088,1.932,3.316,2.453C227.32,262.207,228.574,262.466,229.851,262.466z"/>
			<path fill="#D0B316" d="M309.571,250.531c0,2.915-0.336,5.387-1.008,7.418c-0.672,2.029-1.621,3.7-2.85,5.012
				c-1.228,1.309-2.709,2.26-4.444,2.849c-1.735,0.59-3.651,0.885-5.747,0.885c-2.131,0-4.055-0.295-5.771-0.885
				c-1.717-0.589-3.186-1.54-4.396-2.849c-1.211-1.312-2.152-2.981-2.823-5.012c-0.672-2.031-1.008-4.503-1.008-7.418l0.147-13.017
				c0-1.964,0.523-3.365,1.57-4.199c1.048-0.833,2.588-1.251,4.618-1.251c-0.033,0.195-0.065,0.491-0.099,0.883
				c-0.032,0.361-0.059,0.854-0.072,1.475c-0.018,0.621-0.025,1.426-0.025,2.406v13.703c-0.064,2.197,0.065,4.021,0.394,5.479
				c0.326,1.457,0.835,2.613,1.522,3.464c0.688,0.853,1.527,1.457,2.528,1.817c0.998,0.359,2.136,0.539,3.414,0.539
				c1.276,0,2.414-0.18,3.414-0.539c0.997-0.357,1.842-0.965,2.528-1.817c0.688-0.851,1.195-2.007,1.521-3.464
				c0.328-1.454,0.475-3.28,0.442-5.479l0.147-13.017c0-1.964,0.523-3.365,1.572-4.199c1.049-0.836,2.588-1.251,4.617-1.251
				c-0.033,0.195-0.064,0.491-0.1,0.883c-0.031,0.361-0.057,0.854-0.074,1.475c-0.016,0.621-0.023,1.426-0.023,2.406
				L309.571,250.531L309.571,250.531z"/>
			<path fill="#D0B316" d="M351.614,261.437c0,1.016,0.008,1.824,0.025,2.432c0.018,0.605,0.039,1.088,0.074,1.446
				c0.031,0.396,0.064,0.69,0.098,0.886c-2.029,0-3.568-0.416-4.615-1.254c-1.049-0.832-1.574-2.232-1.574-4.197V239.97
				c0-1.571,0.279-2.879,0.836-3.93c0.557-1.047,1.318-1.89,2.285-2.526c0.963-0.642,2.119-1.097,3.463-1.376
				c1.342-0.277,2.799-0.467,4.371-0.564c1.014-0.064,2.096-0.025,3.242,0.123c1.145,0.146,2.283,0.41,3.414,0.785
				c1.129,0.378,2.201,0.861,3.217,1.45s1.908,1.319,2.678,2.187c0.771,0.867,1.375,1.859,1.818,2.971
				c0.441,1.113,0.631,2.357,0.564,3.732c-0.064,1.936-0.682,3.651-1.842,5.16c-1.164,1.505-2.842,2.584-5.035,3.239
				c0.754,0.266,1.393,0.682,1.916,1.255c0.523,0.574,0.99,1.262,1.398,2.063c0.408,0.803,0.816,1.68,1.229,2.629
				c0.408,0.951,0.859,1.918,1.352,2.897c0.359,0.754,0.752,1.433,1.178,2.039c0.426,0.604,0.818,1.14,1.18,1.597
				c0.395,0.523,0.803,0.98,1.229,1.377c-0.293,0.291-0.621,0.537-0.98,0.736c-0.361,0.161-0.787,0.291-1.277,0.393
				c-0.492,0.096-1.08,0.096-1.768,0c-0.785-0.1-1.508-0.326-2.162-0.688c-0.654-0.358-1.309-0.917-1.965-1.671
				c-0.656-0.751-1.352-1.749-2.088-2.997c-0.736-1.245-1.58-2.8-2.531-4.664c-0.557-1.052-1.227-1.842-2.014-2.386
				c-0.785-0.537-1.752-0.973-2.898-1.301c-0.195-0.064-0.385-0.112-0.563-0.146c-0.18-0.034-0.354-0.082-0.516-0.148
				c-0.229-0.031-0.551-0.09-0.959-0.172c-0.41-0.08-0.826-0.154-1.252-0.222c-0.49-0.095-1-0.194-1.521-0.292v9.917
				L351.614,261.437L351.614,261.437z M356.573,236.384c-0.982,0.1-1.793,0.271-2.432,0.518c-0.637,0.243-1.145,0.539-1.52,0.885
				c-0.379,0.342-0.648,0.729-0.814,1.154c-0.164,0.424-0.246,0.85-0.246,1.275c0,0.427,0,0.99,0,1.693
				c0,0.705,0.01,1.42,0.025,2.139c0.016,0.718,0.025,1.384,0.025,1.99c0,0.605,0,1.006,0,1.199
				c0.752,0.166,1.521,0.313,2.311,0.444c0.654,0.099,1.375,0.188,2.158,0.271c0.787,0.082,1.557,0.121,2.311,0.121
				c2.064,0,3.684-0.406,4.861-1.226c1.18-0.819,1.885-2.161,2.111-4.029c0.133-1.209-0.047-2.252-0.539-3.118
				c-0.492-0.867-1.162-1.556-2.016-2.064c-0.852-0.506-1.832-0.866-2.943-1.08C358.752,236.345,357.657,236.287,356.573,236.384z"
				/>
			<path fill="#D0B316" d="M419.153,266.693c-1.672,0-3.17-0.197-4.494-0.592c-1.326-0.393-2.465-0.857-3.414-1.398
				c-0.951-0.541-1.711-1.086-2.285-1.646c-0.572-0.554-0.926-0.999-1.055-1.327l0.145-0.148c0.297-0.422,0.623-0.769,0.984-1.029
				c0.326-0.196,0.67-0.295,1.031-0.295c0.229,0,0.449,0.035,0.664,0.099c0.211,0.065,0.447,0.147,0.711,0.247
				c0.26,0.063,0.523,0.152,0.783,0.27c0.264,0.117,0.559,0.252,0.885,0.418c0.654,0.262,1.424,0.498,2.309,0.713
				c0.885,0.213,1.949,0.353,3.193,0.416h0.541c1.211,0,2.242-0.141,3.096-0.416c0.85-0.277,1.539-0.641,2.063-1.082
				c0.523-0.442,0.9-0.934,1.131-1.473c0.229-0.541,0.344-1.057,0.344-1.55c0.029-0.849-0.225-1.627-0.762-2.33
				c-0.541-0.702-1.287-1.385-2.236-2.038c-0.951-0.656-2.064-1.328-3.34-2.013c-1.277-0.688-2.637-1.427-4.076-2.21
				c-2.359-1.344-4.111-2.844-5.256-4.496c-1.148-1.652-1.641-3.396-1.475-5.229c0.131-1.375,0.508-2.568,1.129-3.588
				c0.623-1.013,1.4-1.855,2.334-2.529c0.934-0.67,1.98-1.16,3.145-1.473c1.162-0.311,2.332-0.467,3.512-0.467
				c1.998,0,3.75,0.264,5.256,0.786c1.508,0.522,2.783,1.099,3.83,1.72c1.211,0.721,2.242,1.539,3.096,2.455l-0.098,0.149
				c-0.395,0.489-0.721,0.817-0.982,0.979c-0.328,0.229-0.688,0.344-1.082,0.344c-0.361,0-0.803-0.115-1.324-0.344
				c-0.264-0.099-0.533-0.203-0.813-0.32c-0.279-0.112-0.582-0.237-0.908-0.367c-0.949-0.357-1.957-0.646-3.021-0.857
				c-1.063-0.216-2.006-0.305-2.822-0.271c-0.428,0-0.885,0.031-1.377,0.096c-0.49,0.066-0.957,0.184-1.398,0.346
				c-0.441,0.164-0.836,0.396-1.18,0.688c-0.344,0.296-0.584,0.673-0.713,1.131c-0.293,0.979-0.09,1.851,0.615,2.603
				c0.703,0.754,1.654,1.49,2.848,2.209c1.195,0.721,2.523,1.435,3.98,2.137c1.455,0.707,2.824,1.498,4.102,2.384
				c1.768,1.244,3.086,2.513,3.955,3.808c0.867,1.293,1.398,2.563,1.596,3.807c0.199,1.244,0.133,2.439-0.195,3.584
				c-0.328,1.148-0.785,2.164-1.375,3.047c-1.049,1.639-2.611,2.893-4.691,3.759C423.973,266.257,421.672,266.693,419.153,266.693z"
				/>
		</g>
	</g>
</g>
</svg>
