<?xml version="1.0" encoding="utf-8"?>
<!-- Generator: Adobe Illustrator 16.0.0, SVG Export Plug-In . SVG Version: 6.00 Build 0)  -->
<!DOCTYPE svg PUBLIC "-//W3C//DTD SVG 1.1//EN" "http://www.w3.org/Graphics/SVG/1.1/DTD/svg11.dtd">
<svg version="1.1" id="Layer_1" xmlns="http://www.w3.org/2000/svg" xmlns:xlink="http://www.w3.org/1999/xlink" x="0px" y="0px"
	 width="388.307px" height="180.085px" viewBox="0 0 388.307 180.085" enable-background="new 0 0 388.307 180.085"
	 xml:space="preserve">
<g>
	<path fill="#070909" d="M60.238,21.379c8.277,0,16.055,1.602,23.337,4.803c7.28,3.204,13.68,7.617,19.198,13.239
		c11.188,11.405,17.051,25.7,17.588,42.88v57.877h-0.23c-4.293,0-7.932-1.503-10.921-4.511c-2.989-3.006-4.598-6.774-4.829-11.306
		c-0.537,0.626-1.074,1.212-1.609,1.757c-5.519,5.624-11.918,10.037-19.198,13.238c-7.283,3.203-15.06,4.804-23.337,4.804
		c-8.354,0-16.171-1.601-23.452-4.804c-7.282-3.201-13.68-7.614-19.198-13.238c-5.442-5.624-9.733-12.144-12.875-19.565
		C1.57,99.134,0,91.206,0,82.77c0-8.512,1.57-16.478,4.713-23.9c3.142-7.42,7.433-13.902,12.875-19.449
		c5.519-5.622,11.917-10.035,19.198-13.239C44.067,22.981,51.884,21.379,60.238,21.379z M104.383,83.123v-0.704
		c-0.384-12.653-4.676-23.157-12.875-31.515c-4.063-4.139-8.777-7.382-14.14-9.725c-5.366-2.342-11.076-3.514-17.129-3.514
		c-6.132,0-11.88,1.171-17.244,3.514c-5.365,2.342-10.041,5.585-14.025,9.725c-4.063,4.14-7.242,8.923-9.542,14.352
		c-2.299,5.43-3.449,11.267-3.449,17.515c0,6.25,1.15,12.087,3.449,17.516c2.299,5.43,5.478,10.213,9.542,14.353
		c3.984,4.141,8.66,7.38,14.025,9.723c5.364,2.344,11.111,3.515,17.244,3.515c6.054,0,11.764-1.171,17.129-3.515
		c5.363-2.343,10.077-5.583,14.14-9.723C99.707,106.281,103.999,95.774,104.383,83.123z"/>
	<path fill="#070909" d="M181.253,40.182c-2.583-1.779-5.474-2.67-8.679-2.67h-0.801c-3.562,0.156-6.677,1.239-9.347,3.25
		c-2.671,2.012-4.006,4.875-4.006,8.588c0,3.096,0.978,5.9,2.937,8.415c1.957,2.515,4.517,4.914,7.679,7.195
		c3.159,2.284,6.609,4.583,10.348,6.906c4.808,2.94,9.526,6.15,14.156,9.632c4.627,3.481,8.479,7.543,11.549,12.186
		c3.072,4.643,4.607,10.174,4.607,16.596c0,6.731-1.958,12.613-5.875,17.64c-3.917,5.032-8.725,8.783-14.422,11.258
		c-5.698,2.476-11.53,3.714-17.493,3.714c-0.892,0-1.782-0.041-2.67-0.116c-6.943-0.388-13.577-2.594-19.896-6.615
		c-6.59-4.487-11.04-10.329-13.353-17.524l4.674-1.044c1.779-0.388,3.471-0.581,5.074-0.581c4.717,0,8.991,1.625,12.819,4.875
		c2.67,2.32,5.252,3.695,7.745,4.119c2.491,0.427,4.406,0.64,5.742,0.64c2.314,0,4.583-0.349,6.811-1.045
		c3.472-1.083,6.387-2.919,8.746-5.514c2.358-2.59,3.539-5.859,3.539-9.806c0-3.714-1.068-7.021-3.205-9.923
		c-2.137-2.901-4.94-5.608-8.413-8.123c-3.472-2.514-7.211-5.008-11.217-7.487c-4.629-2.786-9.103-5.821-13.419-9.111
		c-4.319-3.287-7.902-7.039-10.75-11.257c-2.85-4.216-4.273-9.225-4.273-15.029c0-6.499,1.846-11.913,5.542-16.248
		c3.692-4.333,8.033-7.35,13.02-9.053c4.984-1.701,9.701-2.552,14.154-2.552c1.423,0,2.848,0.078,4.273,0.232
		c6.053,0.62,11.483,2.612,16.29,5.977c4.808,3.365,8.234,8.182,10.282,14.449l-5.607,1.277c-1.693,0.387-3.384,0.579-5.074,0.579
		C188.643,44.011,184.813,42.736,181.253,40.182z"/>
	<path fill="#070909" d="M245.122,3.026c2.019,2.018,3.027,4.439,3.027,7.265c0,2.824-1.008,5.246-3.027,7.263
		c-2.018,2.018-4.439,3.027-7.265,3.027c-2.824,0-5.229-1.01-7.212-3.027c-1.985-2.018-2.978-4.439-2.978-7.263
		c0-2.825,0.993-5.247,2.978-7.265C232.628,1.008,235.033,0,237.857,0C240.682,0,243.104,1.008,245.122,3.026z M246.378,139.972
		h-15.701V41.529c0-4.428,1.506-8.196,4.517-11.301c3.013-3.107,6.666-4.661,10.957-4.661h0.227V139.972z"/>
	<path fill="#070909" d="M328.443,21.379c8.243,0,15.986,1.602,23.237,4.803c7.248,3.204,13.621,7.617,19.115,13.239
		c11.14,11.405,16.977,25.7,17.512,42.88v57.877h-0.229c-4.273,0-7.896-1.503-10.873-4.511c-2.976-3.006-4.578-6.774-4.809-11.306
		c-0.534,0.626-1.068,1.212-1.601,1.757c-5.495,5.624-11.868,10.037-19.115,13.238c-7.25,3.203-14.994,4.804-23.237,4.804
		c-8.318,0-16.103-1.601-23.35-4.804c-7.25-3.201-13.621-7.614-19.115-13.238c-5.419-5.624-9.693-12.144-12.82-19.565
		c-3.129-7.419-4.694-15.348-4.694-23.784c0-8.512,1.565-16.478,4.694-23.9c3.127-7.42,7.4-13.902,12.82-19.449
		c5.494-5.622,11.865-10.035,19.115-13.239C312.341,22.981,320.125,21.379,328.443,21.379z M372.396,83.123v-0.704
		c-0.382-12.653-4.654-23.157-12.819-31.515c-4.045-4.139-8.739-7.382-14.079-9.725c-5.342-2.342-11.028-3.514-17.055-3.514
		c-6.106,0-11.828,1.171-17.169,3.514c-5.341,2.342-9.997,5.585-13.963,9.725c-4.046,4.14-7.211,8.923-9.501,14.352
		c-2.289,5.43-3.435,11.267-3.435,17.515c0,6.25,1.146,12.087,3.435,17.516c2.29,5.43,5.455,10.213,9.501,14.353
		c3.966,4.141,8.622,7.38,13.963,9.723c5.342,2.344,11.063,3.515,17.169,3.515c6.027,0,11.713-1.171,17.055-3.515
		c5.34-2.343,10.033-5.583,14.079-9.723C367.743,106.281,372.014,95.774,372.396,83.123z"/>
	<g>
		<path fill="#D2A02A" stroke="#D2A02A" stroke-miterlimit="10" d="M114.028,176.046c0,0.66,0.005,1.201,0.016,1.619
			c0.011,0.42,0.028,0.75,0.05,0.992c0.022,0.266,0.044,0.465,0.066,0.596c-1.368,0-2.415-0.285-3.143-0.859
			c-0.728-0.572-1.091-1.521-1.091-2.844l0.066-16.01h-7.276c0-0.992,0.275-1.786,0.827-2.381c0.551-0.596,1.334-0.893,2.349-0.893
			h15.413c0,0.992-0.276,1.786-0.827,2.381c-0.552,0.596-1.334,0.893-2.349,0.893h-4.134L114.028,176.046z"/>
		<path fill="#D2A02A" stroke="#D2A02A" stroke-miterlimit="10" d="M154.777,155.903c1.455,0,2.861,0.253,4.217,0.761
			c1.356,0.507,2.563,1.257,3.622,2.248c1.058,0.992,1.902,2.223,2.53,3.689s0.942,3.17,0.942,5.109c0,1.941-0.314,3.65-0.942,5.127
			s-1.472,2.717-2.53,3.721c-1.059,1.004-2.266,1.76-3.622,2.266c-1.356,0.508-2.762,0.762-4.217,0.762
			c-1.456,0-2.861-0.254-4.217-0.762c-1.356-0.506-2.563-1.262-3.622-2.266c-1.059-1.004-1.902-2.244-2.53-3.721
			s-0.943-3.186-0.943-5.127c0-1.939,0.314-3.643,0.943-5.109s1.472-2.697,2.53-3.689c1.058-0.991,2.266-1.741,3.622-2.248
			S153.321,155.903,154.777,155.903z M154.777,176.74c0.86,0,1.703-0.176,2.53-0.529c0.827-0.352,1.571-0.904,2.232-1.652
			c0.662-0.75,1.191-1.688,1.588-2.813c0.396-1.125,0.595-2.469,0.595-4.035c0-1.543-0.199-2.877-0.595-4.002
			c-0.397-1.125-0.926-2.051-1.588-2.779c-0.662-0.727-1.406-1.268-2.232-1.619c-0.827-0.354-1.67-0.529-2.53-0.529
			s-1.704,0.176-2.53,0.529c-0.827,0.352-1.571,0.893-2.233,1.619c-0.661,0.729-1.19,1.654-1.587,2.779s-0.595,2.459-0.595,4.002
			c0,1.566,0.198,2.91,0.595,4.035s0.926,2.063,1.587,2.813c0.662,0.748,1.406,1.301,2.233,1.652
			C153.073,176.564,153.917,176.74,154.777,176.74z"/>
		<path fill="#D2A02A" stroke="#D2A02A" stroke-miterlimit="10" d="M208.458,168.703c0,1.963-0.226,3.627-0.678,4.994
			c-0.453,1.367-1.092,2.492-1.918,3.375c-0.827,0.881-1.825,1.521-2.994,1.918s-2.459,0.596-3.87,0.596
			c-1.434,0-2.729-0.199-3.886-0.596s-2.145-1.037-2.96-1.918c-0.816-0.883-1.45-2.008-1.902-3.375
			c-0.452-1.367-0.678-3.031-0.678-4.994l0.099-8.766c0-1.322,0.353-2.265,1.058-2.827s1.742-0.843,3.109-0.843
			c-0.022,0.132-0.044,0.331-0.066,0.595c-0.022,0.243-0.039,0.574-0.049,0.992c-0.012,0.419-0.017,0.96-0.017,1.62v9.229
			c-0.044,1.479,0.044,2.707,0.265,3.688c0.22,0.982,0.562,1.76,1.025,2.332c0.463,0.574,1.03,0.982,1.703,1.225
			c0.672,0.242,1.439,0.363,2.299,0.363s1.626-0.121,2.299-0.363c0.672-0.242,1.24-0.65,1.703-1.225
			c0.463-0.572,0.805-1.35,1.025-2.332c0.22-0.98,0.319-2.209,0.298-3.688l0.099-8.766c0-1.322,0.353-2.265,1.059-2.827
			c0.706-0.563,1.742-0.843,3.109-0.843c-0.022,0.132-0.044,0.331-0.066,0.595c-0.022,0.243-0.039,0.574-0.05,0.992
			c-0.011,0.419-0.017,0.96-0.017,1.62V168.703z"/>
		<path fill="#D2A02A" stroke="#D2A02A" stroke-miterlimit="10" d="M236.77,176.046c0,0.684,0.005,1.229,0.017,1.637
			c0.011,0.408,0.027,0.732,0.05,0.975c0.021,0.266,0.043,0.465,0.066,0.596c-1.368,0-2.404-0.281-3.109-0.844
			c-0.706-0.561-1.059-1.504-1.059-2.826v-13.992c0-1.059,0.187-1.939,0.562-2.646c0.375-0.705,0.888-1.272,1.538-1.703
			s1.428-0.738,2.332-0.926c0.904-0.187,1.885-0.314,2.944-0.38c0.683-0.044,1.411-0.017,2.183,0.083
			c0.772,0.099,1.538,0.276,2.299,0.529c0.761,0.254,1.483,0.579,2.167,0.976c0.683,0.397,1.284,0.888,1.803,1.472
			c0.518,0.584,0.926,1.252,1.224,2c0.298,0.75,0.424,1.588,0.38,2.514c-0.044,1.303-0.458,2.459-1.24,3.475
			c-0.783,1.014-1.913,1.74-3.39,2.182c0.507,0.178,0.937,0.459,1.29,0.844c0.352,0.387,0.667,0.85,0.942,1.389
			c0.275,0.541,0.551,1.131,0.827,1.77c0.275,0.641,0.579,1.291,0.909,1.951c0.243,0.508,0.507,0.965,0.794,1.373
			c0.286,0.408,0.551,0.768,0.794,1.076c0.265,0.352,0.54,0.66,0.827,0.926c-0.198,0.197-0.419,0.363-0.661,0.496
			c-0.243,0.109-0.529,0.197-0.86,0.264c-0.331,0.066-0.728,0.066-1.19,0c-0.529-0.066-1.015-0.219-1.456-0.463
			c-0.441-0.242-0.882-0.617-1.323-1.125c-0.441-0.506-0.91-1.178-1.406-2.018c-0.496-0.838-1.064-1.885-1.704-3.141
			c-0.375-0.707-0.827-1.24-1.356-1.605c-0.529-0.363-1.18-0.656-1.952-0.877c-0.132-0.043-0.259-0.076-0.38-0.098
			s-0.237-0.055-0.347-0.1c-0.154-0.021-0.37-0.061-0.645-0.115c-0.276-0.055-0.557-0.105-0.843-0.15
			c-0.331-0.064-0.673-0.131-1.025-0.197V176.046z M240.11,159.177c-0.662,0.066-1.208,0.182-1.637,0.348
			c-0.43,0.164-0.772,0.363-1.025,0.596c-0.254,0.23-0.436,0.49-0.546,0.777c-0.111,0.285-0.166,0.572-0.166,0.859s0,0.666,0,1.141
			s0.005,0.955,0.017,1.439c0.011,0.484,0.017,0.932,0.017,1.34s0,0.678,0,0.809c0.507,0.111,1.025,0.211,1.555,0.299
			c0.441,0.066,0.926,0.127,1.455,0.182s1.047,0.082,1.555,0.082c1.389,0,2.48-0.275,3.274-0.826s1.268-1.455,1.422-2.713
			c0.088-0.814-0.033-1.516-0.364-2.1c-0.331-0.584-0.783-1.047-1.356-1.389s-1.235-0.584-1.984-0.729
			C241.576,159.15,240.838,159.111,240.11,159.177z"/>
		<path fill="#D2A02A" stroke="#D2A02A" stroke-miterlimit="10" d="M282.248,179.585c-1.125,0-2.133-0.133-3.026-0.398
			c-0.893-0.264-1.659-0.578-2.299-0.941c-0.64-0.365-1.152-0.732-1.538-1.109c-0.386-0.373-0.624-0.672-0.711-0.893l0.099-0.1
			c0.199-0.285,0.419-0.518,0.662-0.693c0.22-0.133,0.452-0.199,0.695-0.199c0.154,0,0.303,0.023,0.446,0.066
			c0.143,0.045,0.303,0.1,0.479,0.166c0.176,0.043,0.353,0.104,0.529,0.182c0.176,0.078,0.375,0.17,0.595,0.281
			c0.441,0.176,0.959,0.336,1.555,0.479c0.595,0.145,1.312,0.238,2.15,0.281h0.364c0.815,0,1.51-0.094,2.084-0.281
			c0.573-0.186,1.036-0.43,1.389-0.727c0.353-0.299,0.606-0.629,0.761-0.992c0.154-0.365,0.231-0.711,0.231-1.043
			c0.021-0.572-0.149-1.096-0.513-1.57s-0.866-0.932-1.505-1.373c-0.64-0.441-1.389-0.893-2.249-1.355s-1.775-0.959-2.746-1.488
			c-1.587-0.904-2.767-1.914-3.539-3.027s-1.103-2.287-0.992-3.521c0.088-0.926,0.342-1.73,0.761-2.416
			c0.419-0.682,0.943-1.25,1.571-1.703c0.628-0.452,1.334-0.782,2.117-0.992c0.783-0.209,1.571-0.314,2.365-0.314
			c1.345,0,2.525,0.177,3.539,0.529c1.014,0.353,1.874,0.739,2.58,1.158c0.815,0.485,1.51,1.037,2.084,1.654l-0.066,0.1
			c-0.265,0.33-0.485,0.551-0.662,0.66c-0.221,0.154-0.463,0.232-0.728,0.232c-0.243,0-0.541-0.078-0.893-0.232
			c-0.177-0.066-0.358-0.137-0.546-0.215c-0.188-0.076-0.392-0.16-0.612-0.248c-0.64-0.242-1.318-0.436-2.034-0.578
			c-0.717-0.145-1.351-0.205-1.902-0.182c-0.287,0-0.595,0.021-0.926,0.064c-0.331,0.045-0.645,0.123-0.943,0.232
			c-0.298,0.111-0.562,0.266-0.794,0.463c-0.231,0.199-0.392,0.453-0.479,0.762c-0.198,0.66-0.061,1.246,0.414,1.752
			c0.474,0.508,1.113,1.004,1.918,1.488c0.805,0.486,1.698,0.965,2.679,1.439c0.98,0.475,1.902,1.008,2.762,1.604
			c1.19,0.838,2.078,1.693,2.663,2.564c0.584,0.871,0.942,1.725,1.075,2.563s0.088,1.643-0.132,2.414
			c-0.221,0.773-0.529,1.457-0.926,2.051c-0.706,1.104-1.759,1.947-3.159,2.531C285.495,179.292,283.946,179.585,282.248,179.585z"
			/>
	</g>
</g>
</svg>
