<?xml version="1.0" encoding="utf-8"?>
<!-- Generator: Adobe Illustrator 16.0.0, SVG Export Plug-In . SVG Version: 6.00 Build 0)  -->
<!DOCTYPE svg PUBLIC "-//W3C//DTD SVG 1.1//EN" "http://www.w3.org/Graphics/SVG/1.1/DTD/svg11.dtd">
<svg version="1.1" id="Layer_1" xmlns="http://www.w3.org/2000/svg" xmlns:xlink="http://www.w3.org/1999/xlink" x="0px" y="0px"
	 width="37.584px" height="37.584px" viewBox="0 0 37.584 37.584" enable-background="new 0 0 37.584 37.584" xml:space="preserve">
<g>
	<g>
		<circle fill="#505455" cx="13.641" cy="14.564" r="2.519"/>
		<circle fill="#505455" cx="23.639" cy="14.564" r="2.52"/>
		<path fill="#505455" d="M19.416,28.243c-5.455,0-8.962-4.866-9.109-5.073l1.631-1.157c0.03,0.042,3.071,4.23,7.478,4.23
			c4.801,0,7.783-4.063,7.907-4.235l1.623,1.169C28.797,23.384,25.229,28.243,19.416,28.243z"/>
	</g>
	<path fill="#505455" d="M18.792,37.584C8.43,37.584,0,29.154,0,18.792S8.43,0,18.792,0s18.792,8.43,18.792,18.792
		S29.154,37.584,18.792,37.584z M18.792,2C9.533,2,2,9.533,2,18.792s7.533,16.792,16.792,16.792s16.792-7.533,16.792-16.792
		S28.051,2,18.792,2z"/>
</g>
</svg>
