<?xml version="1.0" encoding="utf-8"?>
<!-- Generator: Adobe Illustrator 16.0.0, SVG Export Plug-In . SVG Version: 6.00 Build 0)  -->
<!DOCTYPE svg PUBLIC "-//W3C//DTD SVG 1.1//EN" "http://www.w3.org/Graphics/SVG/1.1/DTD/svg11.dtd">
<svg version="1.1" id="Layer_1" xmlns="http://www.w3.org/2000/svg" xmlns:xlink="http://www.w3.org/1999/xlink" x="0px" y="0px"
	 width="57.393px" height="52.596px" viewBox="0 0 57.393 52.596" enable-background="new 0 0 57.393 52.596" xml:space="preserve">
<path fill="#505455" d="M19.563,27.919c-5.414-3.294-10.318-1.729-10.367-1.713l-0.164-0.857c0.21-0.07,5.186-1.656,10.813,1.768
	L19.563,27.919z"/>
<path fill="#505455" d="M19.563,32.317c-5.414-3.293-10.318-1.729-10.367-1.713l-0.164-0.858c0.21-0.069,5.186-1.655,10.813,1.769
	L19.563,32.317z"/>
<path fill="#505455" d="M19.563,36.717c-5.414-3.293-10.318-1.73-10.367-1.713l-0.164-0.857c0.21-0.07,5.186-1.656,10.813,1.769
	L19.563,36.717z"/>
<path fill="#505455" d="M19.563,41.116c-5.414-3.294-10.318-1.729-10.367-1.713l-0.164-0.857c0.21-0.07,5.186-1.656,10.813,1.768
	L19.563,41.116z"/>
<path fill="#505455" d="M19.563,45.514c-5.414-3.293-10.318-1.729-10.367-1.713l-0.164-0.856c0.21-0.07,5.186-1.656,10.813,1.768
	L19.563,45.514z"/>
<g>
	<path fill="#505455" d="M0,23.261l0.135,27.615c0,0,6.492-4.633,19.458,0.542c1.179,1.639,4.25,1.542,4.958-0.125
		c1.854-1.323,14.78-4.078,20.084-0.249l-0.078-22.137c0,0-0.731,0.553-2.057,0.7c0,18.822,0,18.822,0,18.822
		s-8.832-3.536-20.182,1.989c-3.614-1.436-13.376-4.641-20.154-1.915c0.037-0.995,0.037-27.737,0.037-27.737
		s12.229-3.758,19.284,3.094c-0.019,16.134-0.019,16.134-0.019,16.134l0.852-0.872l-0.173,11.076c0,0,0.295,0.394,0.5-0.055
		c0.005-0.283,0-10.94,0-10.94l0.718,0.884l-0.092-16.41c0,0,4.863-4.396,13.206-3.939c0.663-1.255,0.663-1.255,0.663-1.255
		s-8.095-1.216-14.822,4.476c-0.871-1.05-9.656-7.681-21.259-3.04c0.055,2.818,0.055,2.818,0.055,2.818S0.46,22.598,0,23.261z"/>
	<g>
		<path fill="#505455" d="M49.104,7.293c-5.378,4.751-8.012,8.491-8.38,9.191c-0.369,0.7,0.46,1.493,0.46,1.493s0,0-1.171,0.073
			c-5.262,5.931-0.829,8.822-0.829,8.822l-0.43,1.087l-1.179-0.811l-0.331,0.589l1.032,0.883l-5.047,6.746
			c1.731,0.023,2.266-1.22,2.266-1.22l3.666-5.009l0.055,0.073l0.718,0.571l0.534-0.553l-0.903-0.719l0.755-1.067
			c0,0,0.682,0.368,3.205,0.165c2.524-0.203,4.328-2.209,4.549-2.542c0.222-0.331-0.111-1.271-0.111-1.271s0.479,0.516,1.216,0
			C51.941,20.26,57.393,0,57.393,0S54.482,2.542,49.104,7.293z M48.504,22.238c-1.742-0.563-1.742-0.563-1.742-0.563l0.256,2.203
			c0,0-2.02,2.901-5.246,1.876C49,14.435,51.708,9.96,51.708,9.96L40.479,25.054c0,0-2.873-1.586,0.04-6.145
			c3.067-0.256,3.067-0.256,3.067-0.256s-1.639-1.844-1.331-2.28c0.307-0.435,9.219-9.295,9.219-9.295l0.256,1.638l1.742-0.256
			C53.472,8.46,49.221,22.187,48.504,22.238z M52.243,8V6.515l2.459-2.306L53.728,8H52.243z"/>
	</g>
	<path fill="#505455" d="M26.492,26.36l-0.319-0.823c0.154-0.061,3.798-1.473,8.439-0.659l-0.151,0.87
		C30.06,24.978,26.527,26.346,26.492,26.36z"/>
	<path fill="#505455" d="M26.408,30.752l-0.261-0.822c0.13-0.064,3.206-1.548,6.78-0.563l-0.153,0.863
		C29.42,29.307,26.438,30.738,26.408,30.752z"/>
	<path fill="#505455" d="M26.945,34.624l-0.19-0.643c0.094-0.05,2.342-1.21,4.955-0.44l-0.112,0.675
		C29.147,33.493,26.968,34.612,26.945,34.624z"/>
	<path fill="#505455" d="M51.438,10.485L32.902,34.888c0,0,0.911,1.246,2.585,0c5.876-8.294,5.876-8.294,5.876-8.294l0.212-1.153"/>
	<polyline fill="#505455" points="36.793,27.969 37.593,27.168 40.466,29.229 39.717,30.35 36.658,28.162 	"/>
</g>
<polygon fill="#505455" points="5.251,28.836 3.467,26.274 4.288,25.703 5.236,27.064 6.885,24.61 7.715,25.168 "/>
<polygon fill="#505455" points="4.902,34.787 3.118,32.226 3.938,31.654 4.887,33.016 6.536,30.561 7.366,31.119 "/>
<polygon fill="#505455" points="4.902,39.767 3.118,37.206 3.938,36.634 4.887,37.996 6.536,35.541 7.366,36.099 "/>
<polygon fill="#505455" points="4.902,44.934 3.118,42.372 3.938,41.801 4.887,43.162 6.536,40.708 7.366,41.265 "/>
</svg>
