<?xml version="1.0" encoding="utf-8"?>
<!-- Generator: Adobe Illustrator 16.0.0, SVG Export Plug-In . SVG Version: 6.00 Build 0)  -->
<!DOCTYPE svg PUBLIC "-//W3C//DTD SVG 1.1//EN" "http://www.w3.org/Graphics/SVG/1.1/DTD/svg11.dtd">
<svg version="1.1" id="Layer_1" xmlns="http://www.w3.org/2000/svg" xmlns:xlink="http://www.w3.org/1999/xlink" x="0px" y="0px"
	 width="69.443px" height="69.447px" viewBox="0 0 69.443 69.447" enable-background="new 0 0 69.443 69.447" xml:space="preserve">
<circle fill="none" stroke="#007D70" stroke-miterlimit="10" cx="34.722" cy="34.724" r="34.104"/>
<g>
	<g>
		<g>
			<path fill="#007D70" d="M34.114,17.101c-12.268,0.223-21.891,8.562-24.812,20.672l12.623,3.939
				c0.341-0.494,0.707-0.971,1.095-1.424l11.094,3.926L33.031,44.7c0,0,0.367,1.277,1.689,1.277c1.382,0,1.749-1.207,1.749-1.207
				l-1.145-0.555l11.111-3.912c0.383,0.447,0.746,0.918,1.082,1.408l12.623-3.939C57.222,25.662,46.384,17.323,34.114,17.101z
				 M41.073,20.04l2.529,1.055l2.531,1.051L40.288,33.76c-0.785-0.282-1.598-0.503-2.432-0.653L41.073,20.04z M34.751,19.484h2.717
				l-1.49,13.381c-0.428-0.037-0.854-0.07-1.292-0.07c-0.393,0-0.778,0.033-1.164,0.063l-1.488-13.374H34.751z M25.896,21.09
				l2.53-1.051l3.209,13.044c-0.839,0.146-1.656,0.354-2.445,0.633l-5.825-11.573L25.896,21.09z M20.79,40.271l-9.388-3.062
				l1.099-2.639l1.097-2.642l9.331,5.848C22.139,38.53,21.425,39.364,20.79,40.271z M16.025,28.064l1.983-1.973l1.981-1.973
				l7.259,10.455c-0.83,0.402-1.628,0.867-2.375,1.41L16.025,28.064z M30.972,42.386l-0.153-0.094l-6.099-3.715
				c0.604-0.525,1.242-1.012,1.916-1.437l4.956,4.312l0.014,0.012C31.359,41.741,31.146,42.048,30.972,42.386z M31.923,41.169
				l-0.019-0.02l-2.515-3.521l0,0l-1.021-1.433c0.588-0.275,1.192-0.512,1.815-0.711l2.624,5.065
				C32.485,40.72,32.191,40.925,31.923,41.169z M33.276,40.31l-0.871-3.438l0,0l-0.464-1.834c0.628-0.117,1.27-0.197,1.917-0.232
				l0.057,0.479l0.165,1.432l0.372,3.257l-0.132,0.094C33.956,40.099,33.607,40.187,33.276,40.31z M34.728,44.956
				c-0.301,0-0.544-0.252-0.544-0.563c0-0.055,0.032-0.092,0.053-0.135l0.468-0.027l0.517,0.023
				c0.021,0.045,0.054,0.084,0.054,0.139C35.275,44.704,35.029,44.956,34.728,44.956z M35.127,40.063l-0.078-0.059l0.595-5.202
				c0.65,0.039,1.287,0.121,1.912,0.24l-0.463,1.832l0,0l-0.873,3.446C35.876,40.19,35.509,40.101,35.127,40.063z M37.556,41.198
				c-0.266-0.246-0.557-0.453-0.875-0.625l2.627-5.077c0.621,0.201,1.225,0.439,1.811,0.715l-1.021,1.431l0,0l-2.518,3.525
				L37.556,41.198z M38.644,42.313l-0.156,0.096c-0.17-0.336-0.379-0.643-0.623-0.92l0.014-0.012l4.963-4.317
				c0.67,0.427,1.305,0.911,1.906,1.438l-1.25,0.76L38.644,42.313z M44.564,36.043c-0.738-0.543-1.525-1.01-2.348-1.416
				l7.291-10.503l1.982,1.973l1.982,1.973L44.564,36.043z M46.49,37.827l9.41-5.895l1.098,2.64l1.098,2.641l-9.492,3.095
				C47.976,39.405,47.269,38.577,46.49,37.827z"/>
			<circle fill="#007D70" cx="34.751" cy="21.561" r="1.211"/>
			<circle fill="#007D70" cx="34.751" cy="25.917" r="1.029"/>
			<circle fill="#007D70" cx="34.751" cy="30.272" r="0.874"/>
			<circle fill="#007D70" cx="42.634" cy="23.031" r="1.124"/>
			<circle fill="#007D70" cx="41.273" cy="26.836" r="0.955"/>
			<circle fill="#007D70" cx="39.915" cy="30.643" r="0.812"/>
			<circle fill="#007D70" cx="50.046" cy="27.716" r="1.079"/>
			<circle fill="#007D70" cx="47.404" cy="30.562" r="0.917"/>
			<circle fill="#007D70" cx="44.763" cy="33.408" r="0.78"/>
			<circle fill="#007D70" cx="55.277" cy="35.476" r="0.913"/>
			<circle fill="#007D70" cx="52.265" cy="36.783" r="0.775"/>
			<circle fill="#007D70" cx="49.255" cy="38.09" r="0.659"/>
			<circle fill="#007D70" cx="26.804" cy="23.031" r="1.124"/>
			<circle fill="#007D70" cx="28.164" cy="26.836" r="0.955"/>
			<circle fill="#007D70" cx="29.523" cy="30.643" r="0.812"/>
			<circle fill="#007D70" cx="19.39" cy="27.715" r="1.079"/>
			<circle fill="#007D70" cx="22.032" cy="30.562" r="0.917"/>
			<circle fill="#007D70" cx="24.676" cy="33.408" r="0.78"/>
			<circle fill="#007D70" cx="14.16" cy="35.476" r="0.913"/>
			<circle fill="#007D70" cx="17.172" cy="36.784" r="0.776"/>
			<circle fill="#007D70" cx="20.183" cy="38.09" r="0.659"/>
		</g>
	</g>
	<path fill="#007D70" d="M34.454,44.763c0,0-0.958,2.709-0.375,5.293c0.583,2.582-2.542,5.5-3.125,5.5s0.625,0.5,0.625,0.5
		l0.292,0.291c0,0,3.499-2.875,2.875-6.084c-0.625-3.207-0.375-3.25,0.042-5.041"/>
	<path fill="#007D70" d="M34.994,45.224c0,0-0.015,2.658,1.372,4.66c1.385,2.004-0.584,5.609-1.129,5.816
		c-0.546,0.209,0.746,0.207,0.746,0.207l0.367,0.145c0,0,2.334-3.703,0.705-6.229c-1.629-2.52-1.408-2.646-1.604-4.328"/>
</g>
</svg>
