<?xml version="1.0" encoding="utf-8"?>
<!-- Generator: Adobe Illustrator 15.1.0, SVG Export Plug-In . SVG Version: 6.00 Build 0)  -->
<!DOCTYPE svg PUBLIC "-//W3C//DTD SVG 1.1//EN" "http://www.w3.org/Graphics/SVG/1.1/DTD/svg11.dtd">
<svg version="1.1" id="Layer_1" xmlns="http://www.w3.org/2000/svg" xmlns:xlink="http://www.w3.org/1999/xlink" x="0px" y="0px"
	 width="104.167px" height="65.333px" viewBox="2.333 3.5 104.167 65.333" enable-background="new 2.333 3.5 104.167 65.333"
	 xml:space="preserve">
<path fill="#FFFFFF" d="M54.354,67.617l-0.347-0.015c-0.359-0.016-0.731-0.022-1.215-0.032c-0.625-0.015-1.432-0.031-2.624-0.07
	l-0.266-0.009l-0.069-0.079c-1.951-0.065-3.66-0.128-5.019-0.183l0.04,0.056l-1.257-0.045c-3.768-0.134-8.705-0.599-13.901-1.31
	l-0.242-0.031l0,0c-0.006,0-3.766-0.454-5.045-2.799c-0.712-1.303-0.524-2.86,0.559-4.631c0.032-0.072,1.526-2.975,8.319-3.834
	c3.783-0.479,6.521-0.742,8.157-0.879l-4.552-3.055c-0.117-0.082-2.547-1.839-2.087-4.232c0.313-1.634,1.651-3.926,2.451-5.295
	c0.217-0.373,0.381-0.647,0.436-0.771c0.019-0.047,0.06-0.161,0.118-0.325c0.54-1.515,2.185-6.121,4.544-7.631
	c2.068-1.321,2.441-1.423,5.346-2.208c0.61-0.165,1.334-0.362,2.215-0.607c0.194-0.908,0.32-1.502,0.401-1.894
	c-0.218-0.073-0.426-0.195-0.617-0.363c-0.468-0.378-0.656-0.956-0.837-1.513c-0.125-0.385-0.256-0.784-0.482-1.107
	c-0.424-0.598-1.478-2.703-0.906-3.81c0.106-0.207,0.263-0.367,0.456-0.476c-0.034-0.232-0.068-0.457-0.101-0.672
	c-0.228-1.478-0.407-2.645,0.302-3.402c0.55-0.588,3.252-3.522,4.082-4.424c-0.044-0.123-0.09-0.244-0.135-0.359
	c-0.318-0.835-0.715-1.875,0.304-3.09c0.86-1.006,0.948-1.92,0.966-2.846c0.012-0.757,0.513-0.959,0.807-0.959
	c0.761,0,1.412,1.125,1.499,1.713c0.022,0.153,0.042,0.322,0.063,0.496c0.055,0.455,0.129,1.078,0.273,1.314
	c0.25,0.425,1.291,2.35,0.588,3.73c3.537,2.848,5.088,4.365,4.909,5.601c-0.137,0.967-0.219,2.121-0.192,2.577
	c0.865,0.629,0.765,2.365,0.386,3.443c-0.159,0.463-0.354,0.846-0.528,1.185c-0.203,0.397-0.365,0.712-0.348,0.937
	c0.021,0.369-0.145,0.739-0.492,1.109c-0.324,0.345-0.838,0.707-1.305,0.855l0.236,1.765l0.416,0.04l0.061,0.49
	c0.167,1.336-1.042,3.726-2.868,6.295c0.606,0.358,0.951,1.291,1.17,2.031c0.128,0.438,0.188,1.074,0.287,2.127
	c0.083,0.881,0.192,2.064,0.394,3.664c0.19,0.156,1.268,0.686,4.035,1.486c0.304-3.137,1.729-12.086,4.376-13.311l0.561-0.26
	l0.259,0.561c0.96,2.082,4.846,10.811,4.88,12.252l0.008,0.219c0.049,1.245,0.15,3.834-0.874,6.323
	c-0.315,0.581-0.45,1.508-0.073,2.313c0.348,0.743,1.043,1.221,2.066,1.422c2.46,0.473,10.512,2.25,10.745,5.254
	c0.015,0.19,0.038,0.393,0.062,0.602c0.137,1.205,0.305,2.703-0.734,3.979c-0.999,1.227-2.922,1.951-5.879,2.219
	c-2.03,0.025-4.428,0.104-7.036,0.189c-3.917,0.127-8.356,0.271-12.56,0.271c-0.002,0-0.002,0-0.002,0
	c-1.412,0-2.802-0.017-4.139-0.056L54.354,67.617z M53.673,66.227l0.408,0.084c1.433,0.045,2.929,0.064,4.452,0.064c0,0,0,0,0.002,0
	c4.185,0,8.613-0.145,12.52-0.27c2.617-0.086,5.023-0.164,7.012-0.189c2.525-0.229,4.221-0.824,4.987-1.766
	c0.712-0.873,0.586-1.984,0.465-3.061c-0.026-0.224-0.05-0.439-0.065-0.646c-0.117-1.494-5.109-3.248-9.75-4.14
	c-1.783-0.348-2.588-1.34-2.949-2.109c-0.496-1.057-0.465-2.378,0.08-3.368c0.892-2.176,0.797-4.586,0.752-5.742l-0.008-0.229
	c-0.02-0.795-2.367-6.5-4.438-11.055c-1.356,1.646-2.736,7.236-3.179,11.922c-0.015,0.24-0.037,0.48-0.061,0.713l-0.074,0.728
	l-0.703-0.194c-5.23-1.449-5.47-2.115-5.599-2.474l-0.032-0.133c-0.211-1.677-0.326-2.908-0.412-3.819
	c-0.088-0.947-0.147-1.572-0.242-1.896c-0.229-0.772-0.428-1.102-0.531-1.233c-0.002,0.003-0.005,0.007-0.008,0.011
	c-0.084,0.785-0.492,4.735-0.59,7.321c-0.022,0.498,0.172,0.584,0.496,0.729c0.131,0.058,0.24,0.113,0.318,0.168
	c0.278,0.275,1.868,1.609,5.771,4.767l0.448,0.36l-0.33,0.472c-0.057,0.08-0.118,0.166-0.179,0.258
	c0.484,0.072,1.076,0.16,1.582,0.238l0.178,0.026l0.377,0.313l1.268,1.024l-1.629,0.068c-1.045,0.045-2.584,0.25-4.213,0.467
	l-3.084,0.406l2.117-1.641c-0.045-0.002-0.097-0.004-0.154-0.004c-0.836,0-2.307,0.227-4.341,0.537
	c-2.716,0.434-4.894,0.48-6.029,0.32l0.001,0.102l-0.822-0.168c-0.972-0.328-4.529-4.418-6.013-6.161l-0.24-0.282l0.136-0.344
	c2.24-5.663,3.087-5.663,3.449-5.663c0.969,0.022,1.584,1.118,2.542,3.692c4.725-3.299,10.481-10.76,11.097-13.688L58.24,30.79
	l-0.148-0.658l-1.043-7.807l1.777,4.1c0.293-0.162,0.698-0.494,0.75-0.677c-0.043-0.517,0.209-1.011,0.478-1.536
	c0.161-0.314,0.329-0.642,0.462-1.027c0.32-0.914,0.227-1.866,0.056-2.037l-0.274-0.184c-0.113-0.132-0.461-0.531-0.03-3.57
	c0.116-0.807-3.543-3.731-4.921-4.834l-0.558-0.444l0.521-0.487c0.657-0.613-0.05-2.197-0.378-2.757
	c-0.279-0.457-0.361-1.14-0.438-1.801c-0.007-0.05-0.013-0.099-0.019-0.147c-0.136,0.76-0.442,1.563-1.151,2.395
	c-0.551,0.654-0.398,1.055-0.093,1.854c0.095,0.248,0.192,0.508,0.271,0.785l0.095,0.332l-0.233,0.253c0,0-3.678,3.996-4.331,4.696
	c-0.3,0.32-0.154,1.271,0.016,2.372c0.06,0.387,0.124,0.804,0.179,1.247l0.092,0.734l-0.738-0.043
	c-0.174,0.256,0.256,1.719,0.809,2.495c0.334,0.478,0.5,0.987,0.646,1.437c0.138,0.424,0.256,0.789,0.458,0.953
	c0.125,0.107,0.226,0.156,0.317,0.156l0.952-0.26l-0.097,0.956c-0.035,0.185-0.154,0.795-0.623,2.97l-0.078,0.364l-0.357,0.101
	c-1.049,0.295-1.891,0.521-2.584,0.709c-2.862,0.775-3.096,0.84-5.004,2.059c-1.33,0.85-2.692,3.208-4.047,7.006
	c-0.068,0.189-0.117,0.326-0.145,0.393c-0.068,0.155-0.252,0.479-0.505,0.912c-0.71,1.215-2.032,3.479-2.304,4.905
	c-0.312,1.61,1.557,2.974,1.576,2.985l7.554,5.068l-1.844,0.1c-0.034,0-3.414,0.188-9.862,1.003
	c-6.043,0.766-7.384,3.188-7.397,3.211c-0.837,1.37-1.027,2.489-0.592,3.364c0.79,1.586,3.484,2.176,4.108,2.236l0,0
	c-0.004,0,0.109,0.012,0.304,0.039c4.891,0.668,9.543,1.117,13.19,1.273l0.007-0.063l0.572,0.024
	c1.522,0.065,3.766,0.147,6.457,0.239l0.226,0.009l0.087,0.077c1.081,0.035,1.829,0.053,2.417,0.063
	c0.305,0.007,0.565,0.013,0.809,0.021L53.673,66.227z M58.674,51.167c0.521,0,1.162,0.063,1.476,0.541
	c0.106,0.165,0.159,0.35,0.155,0.551l0.363-0.605c0.146-0.243,0.283-0.455,0.408-0.645c-2.229-1.805-4.744-3.855-5.285-4.367
	c-0.026-0.014-0.057-0.025-0.09-0.041c-0.385-0.172-1.286-0.576-1.226-1.906c0.068-1.823,0.29-4.311,0.446-5.92
	c-2.407,2.916-5.283,5.703-7.549,7.127l-0.648,0.406l-0.26-0.721c-0.284-0.783-1.104-3.061-1.595-3.543
	c-0.477,0.549-1.46,2.59-2.223,4.469c1.971,2.299,4.18,4.703,5.01,5.359l0.202,0.035c0.259,0.08,0.867,0.215,2.02,0.215
	c1.152,0,2.562-0.133,4.192-0.393C56.313,51.385,57.744,51.167,58.674,51.167z"/>
</svg>
