<?xml version="1.0" encoding="utf-8"?>
<!-- Generator: Adobe Illustrator 15.1.0, SVG Export Plug-In . SVG Version: 6.00 Build 0)  -->
<!DOCTYPE svg PUBLIC "-//W3C//DTD SVG 1.1//EN" "http://www.w3.org/Graphics/SVG/1.1/DTD/svg11.dtd">
<svg version="1.1" id="Layer_1" xmlns="http://www.w3.org/2000/svg" xmlns:xlink="http://www.w3.org/1999/xlink" x="0px" y="0px"
	 width="104.167px" height="65.333px" viewBox="2.333 3.5 104.167 65.333" enable-background="new 2.333 3.5 104.167 65.333"
	 xml:space="preserve">
<g>
	<g>
		<g>
			<path fill="#FFFFFF" d="M104.569,67.082H4.265l1.864-1.143c1.819-1.113,4.162-3.16,6.043-4.803
				c1.078-0.939,2.008-1.752,2.693-2.27c0.434-0.326,0.795-0.619,1.104-0.869c0.82-0.664,1.316-1.064,1.894-1.064
				c0.848,0,1.309,0.826,1.966,2.188c0.416,0.857,1.073,1.273,2.014,1.273c0.623,0,1.211-0.186,1.547-0.314
				c0.137-1.002,0.494-3.387,0.887-4.15c0.318-0.617,0.713-2.203,0.838-2.762l0.729-3.25l0.483,3.297
				c0.142,0.967,0.492,1.92,0.807,2.287c0.474-1.908,2.324-3.768,3.206-4.393c0.235-0.166,0.498-0.252,0.779-0.252
				c0.702,0,1.311,0.535,1.782,1.064c0.078-0.387,0.164-0.838,0.24-1.252l0.43-5.725l0.996,2.176c0.029,0.064,0.73,1.602,1.129,2.74
				c0.3,0.859,0.473,2.461,0.548,3.332l1.743-0.064l-0.012-0.719c-0.018-1.193,0.896-1.801,1.646-2.043
				c0.081-1.008,0.255-3.551,0.076-5.455c-0.672-0.503-1.026-1.098-1.056-1.767c-0.044-0.979,0.643-1.758,1.005-2.098l1.199-9.735
				l0.495,5.957c0.114,1.39,0.45,2.85,0.72,3.185c0.395-0.035,0.626-0.246,0.709-0.352c-0.043-0.309-0.007-0.653,0.008-0.764
				l0.48-9.297l0.973,4.649c0.291,1.391,0.627,2.917,0.8,3.602c0.153-0.997,0.395-3.894,0.563-6.517l0.162-2.517l1.018,2.309
				c0.104,0.233,0.23,1.02,0.365,2.234c0.328-0.316,0.777-0.675,1.404-1.1c-0.136-5.917,1.893-9.37,3.381-11.903l0.117-0.202
				c-0.068-3.043,0.692-4.557,1.045-5.086l-0.125-4.113c-0.121-0.123-0.207-0.247-0.269-0.366l-0.679,0.346l0.56-0.805
				c-0.002-0.044,0-0.087,0.003-0.126c0.036-0.49,0.387-0.85,0.75-1.095l0.093-0.681l0.077,0.031l0.051-0.762l-0.001-2.644
				L53.73,5.27l0.281,0.01l0.766-0.027l0.004,0.053l0.181,0.006v2.581l0.094,1.359c0.347,0.208,0.813,0.585,0.879,1.133
				c0.031,0.262-0.02,0.63-0.383,0.998l-0.125,4.112c0.352,0.53,1.119,2.042,1.051,5.085l0.117,0.2
				c1.496,2.534,3.534,5.986,3.4,11.905c0.635,0.426,1.089,0.789,1.419,1.106c0.136-1.218,0.267-2.008,0.372-2.243l1.018-2.267
				l0.16,2.479c0.173,2.675,0.418,5.636,0.572,6.573c0.132-0.559,0.494-2.186,0.803-3.66l0.975-4.624l0.484,9.319
				c0.012,0.073,0.047,0.411,0.002,0.719c0.092,0.117,0.338,0.316,0.721,0.351c0.273-0.333,0.609-1.795,0.728-3.187l0.493-5.923
				l1.203,9.701c0.365,0.34,1.057,1.119,1.013,2.098c-0.03,0.67-0.388,1.264-1.063,1.767c-0.178,1.907-0.004,4.448,0.078,5.454
				c0.752,0.242,1.674,0.848,1.653,2.043l-0.013,0.719l1.763,0.066c0.076-0.873,0.25-2.475,0.552-3.334
				c0.401-1.139,1.104-2.676,1.135-2.74l0.991-2.164l0.445,5.775c0.071,0.383,0.155,0.814,0.233,1.193
				c0.478-0.529,1.09-1.066,1.797-1.066c0.281,0,0.543,0.084,0.779,0.25c0.881,0.619,2.729,2.461,3.219,4.361
				c0.346-0.377,0.688-1.311,0.826-2.258l0.479-3.287l0.729,3.242c0.125,0.559,0.521,2.145,0.844,2.762
				c0.394,0.762,0.752,3.146,0.892,4.15c0.338,0.129,0.933,0.316,1.56,0.316c0.946,0,1.61-0.418,2.028-1.277
				c0.661-1.361,1.124-2.188,1.974-2.188c0.58,0,1.078,0.4,1.901,1.064c0.312,0.25,0.675,0.543,1.109,0.869
				c0.69,0.518,1.631,1.332,2.717,2.273c1.901,1.65,4.267,3.703,6.101,4.814L104.569,67.082z M8.434,65.849h91.935
				c-1.536-1.141-3.188-2.574-4.593-3.793c-1.068-0.928-1.99-1.729-2.646-2.219c-0.449-0.338-0.824-0.641-1.145-0.896
				c-0.451-0.363-0.965-0.777-1.131-0.793c-0.187,0.102-0.679,1.113-0.863,1.492c-0.627,1.289-1.711,1.971-3.137,1.971
				c-1.261,0-2.355-0.547-2.402-0.568l-0.291-0.148L84.12,60.57c-0.168-1.301-0.537-3.561-0.813-4.092
				c-0.125-0.244-0.255-0.578-0.371-0.934c-0.353,0.717-0.875,1.328-1.646,1.328c-0.15,0-0.305-0.025-0.455-0.074l-0.402-0.129
				l-0.023-0.422c-0.086-1.504-1.85-3.471-2.813-4.148c-0.403-0.039-1.079,0.779-1.329,1.084c-0.318,0.391-0.494,0.605-0.843,0.607
				h-0.336l-0.201-0.295c-0.065-0.104-0.188-0.293-0.612-2.623l-0.072-0.934c-0.039,0.107-0.078,0.211-0.113,0.313
				c-0.304,0.857-0.486,2.891-0.531,3.602l-0.037,0.6l-4.16-0.154l0.031-1.926c0.012-0.764-1.066-0.914-1.078-0.916l-0.482-0.064
				l-0.049-0.486c-0.016-0.156-0.383-3.879-0.086-6.428l0.033-0.29l0.246-0.158c0.479-0.309,0.731-0.629,0.748-0.954
				c0.024-0.525-0.527-1.081-0.742-1.25l-0.199-0.157l-0.1-0.8c-0.271,0.494-0.619,0.807-1.072,0.807
				c-0.867-0.015-1.496-0.451-1.801-0.856c-0.226-0.298-0.308-0.613-0.232-0.888c0.018-0.066,0.014-0.289-0.006-0.456l-0.02-0.338
				c-0.021,0.046-0.035,0.068-0.05,0.089c-0.116,0.166-0.347,0.36-0.797,0.36c-0.283,0-0.601-0.075-0.812-0.13
				c-0.289-0.077-0.471-0.125-0.66-1.511l-0.946-1.987c-0.058-0.118-0.097-0.237-0.134-0.367c-0.107-0.362-0.256-0.857-2.121-2.066
				l-0.293-0.19l0.013-0.349c0.21-5.771-1.69-8.992-3.221-11.581l-0.3-0.508l0.007-0.179c0.11-3.358-0.896-4.62-0.905-4.632
				l-0.069-0.083l-0.091,0.104c-0.003,0.005-1.005,1.269-0.895,4.629l0.007,0.178l-0.3,0.509c-1.52,2.588-3.411,5.811-3.2,11.58
				l0.012,0.349l-0.291,0.19c-1.852,1.206-1.999,1.703-2.106,2.065c-0.039,0.13-0.077,0.25-0.134,0.369l-0.938,1.964
				c-0.19,1.406-0.368,1.454-0.657,1.531c-1.03,0.28-1.438,0.016-1.607-0.229c-0.012-0.019-0.024-0.038-0.042-0.073l-0.015,0.278
				c-0.024,0.211-0.027,0.432-0.01,0.5c0.073,0.278-0.011,0.595-0.236,0.893c-0.305,0.402-0.93,0.837-1.771,0.851
				c-0.431,0-0.791-0.262-1.079-0.785l-0.098,0.778l-0.202,0.157c-0.211,0.168-0.76,0.725-0.733,1.251
				c0.016,0.326,0.266,0.647,0.742,0.956l0.243,0.159l0.033,0.288c0.296,2.551-0.067,6.27-0.084,6.428l-0.049,0.486l-0.484,0.064
				c-0.041,0.006-1.079,0.164-1.066,0.916l0.031,1.924l-4.144,0.156l-0.038-0.6c-0.045-0.711-0.229-2.746-0.526-3.604
				c-0.033-0.094-0.068-0.189-0.104-0.289l-0.064,0.848c-0.433,2.395-0.556,2.586-0.621,2.688l-0.183,0.283l-0.354,0.01
				c-0.347,0-0.531-0.229-0.838-0.605c-0.246-0.305-0.901-1.109-1.248-1.109c-1.025,0.705-2.778,2.67-2.863,4.174l-0.027,0.42
				l-0.399,0.131c-0.152,0.049-0.306,0.072-0.455,0.072c-0.766,0-1.287-0.604-1.638-1.32c-0.114,0.354-0.239,0.684-0.365,0.926
				c-0.274,0.533-0.643,2.793-0.809,4.092l-0.041,0.324l-0.29,0.146c-0.046,0.023-1.138,0.572-2.392,0.572
				c-1.419,0-2.5-0.684-3.124-1.973c-0.185-0.381-0.671-1.389-0.889-1.496c-0.128,0.021-0.637,0.434-1.084,0.797
				c-0.317,0.258-0.69,0.559-1.138,0.895c-0.649,0.49-1.564,1.289-2.625,2.215C11.593,63.279,9.958,64.71,8.434,65.849z
				 M53.83,10.531c0.02,0.013,0.055,0.045,0.106,0.085l0.24,0.178l0.078,2.605l0.08-2.623l0.239-0.178
				c0.162-0.121,0.143-0.137,0.139-0.135c-0.044,0-0.249-0.143-0.44-0.233l-0.124,0.063C53.979,10.387,53.876,10.477,53.83,10.531z"
				/>
		</g>
		<rect x="36.891" y="53.144" fill="#FFFFFF" width="32.98" height="1.232"/>
		<rect x="23.2" y="60.236" fill="#FFFFFF" width="61.867" height="1.232"/>
	</g>
</g>
</svg>
