<?xml version="1.0" encoding="utf-8"?>
<!-- Generator: Adobe Illustrator 15.1.0, SVG Export Plug-In . SVG Version: 6.00 Build 0)  -->
<!DOCTYPE svg PUBLIC "-//W3C//DTD SVG 1.1//EN" "http://www.w3.org/Graphics/SVG/1.1/DTD/svg11.dtd">
<svg version="1.1" id="Layer_1" xmlns="http://www.w3.org/2000/svg" xmlns:xlink="http://www.w3.org/1999/xlink" x="0px" y="0px"
	 width="104.167px" height="65.333px" viewBox="0 0 104.167 65.333" enable-background="new 0 0 104.167 65.333"
	 xml:space="preserve">
<g>
	<g>
		<g>
			<g>
				<path fill="#FFFFFF" d="M53.256,51.651H33.889l-0.411-0.263c-3.816-2.391-5.544-4.527-5.13-6.346
					c0.554-2.424,11.802-22.444,15.184-26.566c2.179-2.657,4.49-3.215,6.045-3.215c2.007,0,3.392,0.897,3.543,1l0.763,0.509
					L53.256,51.651z M34.329,50.151h17.455l0.585-32.588l-0.085-0.057c-0.048-0.033-1.119-0.745-2.707-0.745
					c-1.231,0-3.078,0.462-4.885,2.666c-3.407,4.152-14.466,24.132-14.881,25.948c-0.239,1.05,1.475,2.868,4.471,4.745
					L34.329,50.151z"/>
				<path fill="#FFFFFF" d="M70.73,51.787H55.366l-0.179-29.088l0.697-0.507c0.033-0.026,1.212-0.916,2.945-0.916
					c1.276,0,3.162,0.488,4.897,2.813c2.55,3.41,11.002,19.943,11.411,21.938c0.33,1.575-1.007,3.414-3.977,5.462L70.73,51.787z
					 M56.856,50.287l13.454-0.032c2.254-1.555,3.541-3.059,3.359-3.923c-0.306-1.492-8.584-17.921-11.145-21.346
					c-1.363-1.828-2.762-2.211-3.695-2.211c-1.218,0-2.039,0.611-2.048,0.618l-0.091,0.066L56.856,50.287z"/>
			</g>
			
				<rect x="51.407" y="28.569" transform="matrix(0.0043 1 -1 0.0043 108.0456 3.8581)" fill="#FFFFFF" width="1.357" height="55.233"/>
			<rect x="29.728" y="59.678" fill="#FFFFFF" width="44.711" height="1.285"/>
			<polygon fill="#FFFFFF" points="39.698,65.022 39.693,63.736 64.467,63.682 64.473,64.967 			"/>
		</g>
	</g>
	<polygon fill="#FFFFFF" points="53.101,9.492 51.68,9.565 51.68,0.383 53.101,0.31 	"/>
	<polygon fill="#FFFFFF" points="41.534,14.025 34.806,7.893 35.691,6.863 42.42,12.994 	"/>
	<polygon fill="#FFFFFF" points="62.355,13.251 61.342,12.453 67.23,5.607 68.245,6.404 	"/>
</g>
</svg>
