<?xml version="1.0" encoding="utf-8"?>
<!-- Generator: Adobe Illustrator 15.1.0, SVG Export Plug-In . SVG Version: 6.00 Build 0)  -->
<!DOCTYPE svg PUBLIC "-//W3C//DTD SVG 1.1//EN" "http://www.w3.org/Graphics/SVG/1.1/DTD/svg11.dtd">
<svg version="1.1" id="Layer_1" xmlns="http://www.w3.org/2000/svg" xmlns:xlink="http://www.w3.org/1999/xlink" x="0px" y="0px"
	 width="104.167px" height="65.333px" viewBox="0 0 104.167 65.333" enable-background="new 0 0 104.167 65.333"
	 xml:space="preserve">
<g>
	<g>
		<path fill="#B7A346" d="M64.421,22.408c0.278,0.115,0.542,0.2,0.774,0.271C64.721,22.495,64.437,22.411,64.421,22.408z"/>
		<path fill="#FFFFFF" d="M64.979,23.396c-0.254-0.077-0.541-0.17-0.845-0.295l-6.664-2.759l7.09,1.329
			c0.119,0.022,0.518,0.158,0.906,0.308L64.979,23.396z"/>
	</g>
	<path fill="#FFFFFF" d="M69.637,49.22c-1.37,0-2.702-0.165-3.696-0.64l0.646-1.354c2.079,0.994,6.617,0.261,8.655-0.204
		l0.278-0.898c0.705-4.326,0.757-8.151,0.138-10.239l-0.046-0.159c-1.683-7.202-6.8-10.56-9.7-11.92
		c-0.386-0.182-0.717-0.322-0.989-0.429c-0.198-0.058-0.485-0.151-0.789-0.276c-2.345-0.961-3.422-2.882-3.2-5.708l0.035-0.445
		l0.408-0.181c1.026-0.457,2.156-1.519,2.98-2.295c0.289-0.271,0.543-0.509,0.745-0.68c0.385-0.324,1.265-0.812,4.459-1.303
		l0.125-0.019c0.135-0.022,0.261-0.049,0.375-0.08l0.11-0.034c0.415-0.132,0.654-0.313,0.782-0.442
		c-0.018-0.031-0.04-0.062-0.071-0.084c-0.139-0.104-0.456-0.115-0.85-0.028c-1.85,0.646-3.246,0.171-4.267-0.175
		c-0.26-0.088-0.501-0.171-0.731-0.223l-0.396-0.089l-0.143-0.381c-0.03-0.083-0.063-0.181-0.101-0.292
		c-0.209-0.626-0.524-1.572-1.369-2.152c-0.445-0.308-0.851-0.658-1.185-1.012l-0.004,0.01l-0.267,0.136
		c-0.803,0.41-1.302,0.016-1.646-0.372L59.788,7.02c-0.071-0.183-0.221-0.412-0.299-0.459c-0.075-0.037-0.19-0.068-0.317-0.107
		c-0.087-0.027-0.183-0.057-0.283-0.091L59,6.567l-0.547,0.399c-0.806,0.557-1.68,0.418-2.278-0.359
		c-0.118-0.156-0.415-0.247-0.702-0.335c-0.007-0.002-0.014-0.004-0.021-0.006c0.006,0.188,0.033,0.399,0.097,0.613l0.218,0.732
		l-0.529,0.146c0.299,0.703,0.464,1.418,0.448,1.999l-1.5-0.042c0.014-0.486-0.232-1.399-0.805-2.256L52.54,6.199l1.416,0.088
		c-0.024-0.752,0.142-1.518,0.599-1.765l0.535-0.29l0.427,0.471c0.039,0.024,0.255,0.091,0.397,0.135
		c0.373,0.115,0.861,0.266,1.25,0.633c0.041-0.413,0.154-0.754,0.194-0.863l0.696-1.925l0.712,1.919
		c0.065,0.175,0.596,0.34,0.851,0.419c0.211,0.066,0.398,0.128,0.533,0.194c0.293,0.143,0.521,0.384,0.688,0.62
		c0.065-0.178,0.107-0.291,0.107-0.291l1.453-3.916v4.103c0.094,0.22,0.554,0.882,1.479,1.521c1.194,0.819,1.655,2.062,1.903,2.799
		c0.151,0.046,0.307,0.099,0.468,0.154c0.95,0.322,1.932,0.655,3.376,0.155c0.973-0.223,1.686-0.112,2.203,0.303
		c0.661,0.531,0.681,1.325,0.681,1.414v0.155l-0.062,0.143c-0.036,0.084-0.344,0.739-1.285,1.199
		c0.008,0.388,0.014,0.806,0.014,1.245c0,0.464-0.003,0.906-0.007,1.311c0.612,0.323,1.022,0.962,1.022,1.688
		c0,1.056-0.859,1.914-1.915,1.914c-1.055,0-1.912-0.858-1.912-1.914c0-0.769,0.466-1.439,1.131-1.741
		c-0.004-0.392-0.006-0.815-0.006-1.258c0-0.297,0.001-0.562,0.003-0.799c-2.739,0.442-3.329,0.842-3.422,0.92
		c-0.187,0.158-0.419,0.376-0.685,0.625c-0.802,0.754-1.867,1.756-2.977,2.363c-0.06,2.516,1.269,3.366,2.297,3.788
		c0.256,0.106,0.496,0.183,0.707,0.247c0.354,0.135,0.718,0.29,1.138,0.487c3.146,1.476,8.696,5.119,10.523,12.937
		c1.007,3.394,0.278,8.844-0.081,11.033l-0.023,0.101l-0.545,1.759l-0.408,0.104C75.824,48.428,72.64,49.22,69.637,49.22z
		 M70.288,17.406l-0.021,0c-0.223,0.004-0.403,0.188-0.403,0.409c0,0.232,0.181,0.414,0.412,0.414c0.229,0,0.415-0.186,0.415-0.414
		c0-0.207-0.158-0.381-0.368-0.406L70.288,17.406z"/>
	<path fill="#FFFFFF" d="M59.461,48.579c-2.022,0-4.355-0.234-6.242-1.072c-1.416-0.537-14.551-5.25-27.911-0.618l-1.486,0.515
		l0.535-1.479c0.078-0.217,1.657-4.448,5.848-6.401c-0.673-0.346-1.007-0.835-0.996-1.466c0.032-1.834,3.661-3.574,6.979-3.96
		c-0.167-0.539-0.064-0.976,0.05-1.245c0.743-1.749,4.432-2.537,11.274-2.425c8.504,0.146,11.659,4.567,12.782,7.19
		c1.387,3.236,1.035,6.53,0.173,7.467c-0.313,0.341-0.741,0.464-1.138,0.329l0.475-1.422c-0.203-0.07-0.387,0.017-0.441,0.077
		c0.366-0.414,0.768-3.104-0.486-5.951c-1.214-2.756-4.175-6.067-11.39-6.19c-8.901-0.148-9.795,1.34-9.868,1.512
		c-0.107,0.253,0.287,0.676,0.41,0.799l1.278,1.28h-1.809c-3.632,0-6.741,1.936-6.79,2.564c0,0,0,0,0,0
		c0.016,0,0.409,0.472,2.714,0.551l0.067,1.494c-3.794,0.475-5.951,3.089-6.975,4.802c13.254-3.874,25.831,0.643,27.275,1.19
		c3.184,1.413,7.993,0.897,9.548,0.68l0.127-0.647c0.708-4.325,0.763-8.172,0.142-10.267l-0.046-0.159
		c-1.683-7.201-6.799-10.56-9.698-11.921c-0.387-0.181-0.721-0.322-0.992-0.429c-0.197-0.057-0.485-0.15-0.788-0.276
		c-2.345-0.961-3.422-2.882-3.2-5.708l0.035-0.445l0.408-0.181c1.026-0.457,2.157-1.52,2.982-2.295
		c0.289-0.271,0.542-0.508,0.744-0.679c0.384-0.324,1.265-0.813,4.463-1.304l0.121-0.019c0.135-0.021,0.259-0.049,0.372-0.079
		l0.114-0.034c0.414-0.132,0.653-0.314,0.781-0.443c-0.018-0.031-0.04-0.061-0.071-0.084c-0.138-0.105-0.457-0.115-0.851-0.028
		c-1.849,0.646-3.246,0.172-4.267-0.175c-0.26-0.088-0.501-0.171-0.731-0.223l-0.397-0.089l-0.142-0.382
		c-0.03-0.082-0.063-0.178-0.099-0.288c-0.208-0.627-0.524-1.575-1.371-2.155c-0.669-0.462-0.983-0.703-1.248-0.972l-0.207,0.105
		c-0.805,0.41-1.303,0.018-1.646-0.372L47.736,7.02c-0.072-0.183-0.221-0.411-0.299-0.458c-0.077-0.038-0.192-0.069-0.319-0.108
		c-0.086-0.027-0.182-0.057-0.282-0.091l0.112,0.205l-0.547,0.399c-0.807,0.56-1.679,0.419-2.279-0.36
		C44,6.445,43.688,6.298,43.403,6.188c0,0.209,0.023,0.449,0.094,0.69l0.217,0.733l-0.738,0.203
		c-0.029,0.008-0.088,0.022-0.169,0.041c0.396,0.763,0.582,1.417,0.565,1.981l-0.006,0.228l-1.218,1.709
		c-0.587,0.715-1.09,1.551-1.206,1.968c0.326-0.01,1.194-0.162,3.221-1.124l0.643,1.355c-2.961,1.404-4.445,1.623-5.122,0.754
		c-0.81-1.04,0.451-2.869,1.275-3.866l0.9-1.267c-0.049-0.336-0.25-0.938-0.911-1.928l-0.839-1.255l1.507,0.09
		c0.078,0.005,0.187-0.002,0.303-0.016c-0.058-0.812,0.083-1.761,0.656-2L43.2,4.225l0.219,0.378
		c0.021,0.007,0.042,0.014,0.065,0.021c0.444,0.149,1.147,0.386,1.628,0.845c0.042-0.413,0.155-0.753,0.194-0.862l0.696-1.925
		l0.712,1.919c0.065,0.175,0.595,0.339,0.85,0.419c0.212,0.066,0.399,0.128,0.534,0.194c0.304,0.148,0.538,0.401,0.707,0.645
		l0.483-1.226l1.095,1.343c0.442,0.551,0.499,0.622,1.442,1.274c1.194,0.819,1.655,2.061,1.904,2.799
		c0.15,0.046,0.307,0.099,0.467,0.154c0.95,0.322,1.932,0.655,3.376,0.155c0.976-0.222,1.688-0.112,2.204,0.303
		c0.661,0.531,0.681,1.324,0.681,1.413v0.155l-0.062,0.143c-0.037,0.084-0.346,0.739-1.285,1.198
		c0.007,0.388,0.013,0.806,0.013,1.245c0,0.464-0.003,0.906-0.008,1.312c0.613,0.322,1.023,0.962,1.023,1.688
		c0,1.056-0.858,1.914-1.914,1.914c-1.055,0-1.913-0.858-1.913-1.914c0-0.769,0.467-1.44,1.131-1.741
		c-0.003-0.392-0.005-0.815-0.005-1.258c0-0.297,0.001-0.562,0.003-0.799c-2.739,0.441-3.329,0.842-3.421,0.92
		c-0.188,0.158-0.419,0.376-0.685,0.626c-0.803,0.754-1.869,1.756-2.979,2.363c-0.059,2.515,1.269,3.365,2.298,3.788
		c0.255,0.106,0.495,0.183,0.707,0.246c0.353,0.136,0.718,0.29,1.139,0.488c3.145,1.477,8.694,5.121,10.521,12.937
		c1.007,3.392,0.278,8.843-0.08,11.033l-0.331,1.69l-0.505,0.091C63.957,48.225,61.942,48.579,59.461,48.579z M58.235,17.406
		l-0.02,0c-0.226,0.004-0.403,0.184-0.403,0.409c0,0.229,0.186,0.414,0.413,0.414c0.229,0,0.414-0.186,0.414-0.414
		c0-0.206-0.159-0.381-0.369-0.406L58.235,17.406z"/>
	<path fill="#FFFFFF" d="M38.526,19.805c-0.5,0-1.024-0.133-1.326-0.613c-0.66-1.048,0.55-2.744,1.33-3.661l1.143,0.971
		c-0.524,0.618-1.01,1.401-1.136,1.803c0.142-0.003,0.381-0.03,0.758-0.129c3.407-0.896,6.361-3.815,6.391-3.844l1.061,1.061
		c-0.132,0.131-3.264,3.234-7.07,4.234C39.45,19.686,38.998,19.805,38.526,19.805z"/>
	<path fill="#FFFFFF" d="M37.437,24.453c-0.5,0-1.024-0.133-1.326-0.613c-0.66-1.048,0.55-2.743,1.33-3.66l1.143,0.971
		c-0.523,0.617-1.01,1.4-1.136,1.802c0.142-0.003,0.381-0.03,0.758-0.129c3.401-0.895,8.051-5.977,8.098-6.028l1.11,1.009
		c-0.203,0.223-5.001,5.464-8.826,6.47C38.36,24.334,37.909,24.453,37.437,24.453z"/>
	<path fill="#FFFFFF" d="M36.731,29.549c-0.5,0-1.023-0.134-1.325-0.613c-0.66-1.047,0.55-2.743,1.33-3.661l1.143,0.971
		c-0.523,0.617-1.009,1.4-1.136,1.802c0.142-0.003,0.381-0.03,0.757-0.129c2.779-0.731,7.162-6.281,8.616-8.358l1.229,0.86
		c-0.226,0.323-5.587,7.929-9.462,8.948C37.655,29.43,37.203,29.549,36.731,29.549z"/>
	<path fill="#FFFFFF" d="M14.522,60.572l-1.486-0.205c0.027-0.196,0.334-1.962,2.756-3.648c4.014-2.793,13.511-5.081,35.97-0.121
		c19.05,4.207,35.096,0.031,38.132-6.507l1.361,0.631c-3.747,8.07-21.611,11.36-39.817,7.341c-23.084-5.1-31.706-2.26-34.79-0.112
		C14.75,59.272,14.524,60.559,14.522,60.572z"/>
	<path fill="#FFFFFF" d="M14.326,60.149l-1.469-0.304c0.036-0.176,0.939-4.33,5.954-7.427c6.75-4.167,17.28-4.377,31.299-0.62
		c17.438,4.672,32.923,0.323,35.916-6.501l1.373,0.602c-3.235,7.385-19.503,12.22-37.678,7.349
		c-16.894-4.528-25.676-2.273-30.069,0.415C15.171,56.404,14.334,60.112,14.326,60.149z"/>
</g>
</svg>
