<?xml version="1.0" encoding="utf-8"?>
<!-- Generator: Adobe Illustrator 16.0.0, SVG Export Plug-In . SVG Version: 6.00 Build 0)  -->
<!DOCTYPE svg PUBLIC "-//W3C//DTD SVG 1.1//EN" "http://www.w3.org/Graphics/SVG/1.1/DTD/svg11.dtd">
<svg version="1.1" id="Layer_1" xmlns="http://www.w3.org/2000/svg" xmlns:xlink="http://www.w3.org/1999/xlink" x="0px" y="0px"
	 width="59.32px" height="58.519px" viewBox="92.565 -113.345 59.32 58.519" enable-background="new 92.565 -113.345 59.32 58.519"
	 xml:space="preserve">
<g>
	<path fill="#FFFFFF" d="M92.779-82.66c-0.42-0.364-0.152-0.746,0.219-1.274c0.066-0.096,0.133-0.188,0.176-0.254l0.05-0.089
		c0.027-0.05,2.774-5.073,1.792-9.321l1.148-0.265c1.08,4.667-1.753,9.877-1.908,10.155c-0.062,0.122-0.161,0.263-0.292,0.451
		c-0.107,0.153-0.223,0.314-0.263,0.39l-0.5-0.276L92.779-82.66z"/>
	<path fill="#FFFFFF" d="M95.044-72.531l0.229-1.085c0.591-2.795-0.482-7.212-1.774-8.867l-0.738-0.944l29.668-0.214L95.044-72.531z
		 M95.021-82.264c1.021,1.958,1.777,5.225,1.557,7.838l19.7-7.992L95.021-82.264z"/>
	<path fill="#FFFFFF" d="M102.359-62.998c-1.015-4.508-5.958-9.384-6.914-9.621l0.285-1.144c1.607,0.399,6.708,5.744,7.779,10.506
		L102.359-62.998z"/>
	<path fill="#FFFFFF" d="M150.781-83.343c-1.987-2.134-3.273-7.281-2.87-11.476l1.174,0.114c-0.4,4.17,1.027,8.912,2.56,10.559
		L150.781-83.343z"/>
	<path fill="#FFFFFF" d="M142.796-103.921c-0.091,0-0.233-0.019-0.358-0.119c-3.997-0.458-7.43-3.534-10.753-6.512l-0.292-0.261
		l0.787-0.878l0.291,0.261c3.259,2.919,6.627,5.938,10.354,6.244l0.449,0.036l0.078,0.419c0.013,0.05,0.023,0.105,0.029,0.166
		l-0.506,0.639C142.86-103.923,142.831-103.921,142.796-103.921z"/>
	<path fill="#FFFFFF" d="M121.834-83.285l-11.032-27.094v-0.725l0.611-0.028c0.066,0.007,6.627,0.203,10.241-2.213l0.656,0.979
		c-3.142,2.1-8.061,2.391-10.06,2.417l10.676,26.218L121.834-83.285z"/>
	<path fill="#FFFFFF" d="M111.824-57.01l-0.84-0.765c-4.276-3.953-6.51-4.913-7.632-5.022l-1.197-0.116l20.569-21.313L111.824-57.01
		z M104.549-63.729c1.735,0.579,3.983,2.132,6.823,4.709l8.554-20.961L104.549-63.729z"/>
	<path fill="#FFFFFF" d="M122.501-83.295L94.519-93.493l0.651-0.655c0.052-0.051,5.149-5.248,5.893-8.981l0.214-1.071
		L122.501-83.295z M96.632-93.978l21.179,7.719l-15.87-15.632C100.885-98.826,97.932-95.393,96.632-93.978z"/>
	<path fill="#FFFFFF" d="M122.053-82.364l-0.413-30.981l0.921,0.587c1.467,0.936,4.665,2.018,6.908,2.076
		c1.142,0.029,1.578-0.218,1.737-0.368l0.177-0.166l1.06,0.027l-0.259,0.769L122.053-82.364z M122.847-111.255l0.299,22.396
		l7.481-20.719c-0.351,0.061-0.748,0.085-1.189,0.074C127.365-109.557,124.636-110.378,122.847-111.255z"/>
	<path fill="#FFFFFF" d="M122.03-83.385l20.939-21.767l0.276,0.994c0.788,2.829,3.729,7.816,5.544,8.851l0.298,0.169v0.739
		l-0.367,0.184L122.03-83.385z M142.424-102.886L126.72-86.562l20.626-8.369C145.487-96.632,143.374-100.32,142.424-102.886z"/>
	<path fill="#FFFFFF" d="M101.466-102.92l-0.241-1.155c2.665-0.554,6.798-2.732,9.677-7.047l0.98,0.654
		C108.806-105.857,104.347-103.521,101.466-102.92z"/>
	<path fill="#FFFFFF" d="M148.706-73.292l-0.21-0.038L121.64-83.526l30.245-0.59l-0.448,0.877c-1.054,2.068-2.853,6.643-2.11,9.139
		l0.129,0.432l-0.281,0.174l-0.114,0.177L148.706-73.292z M127.753-82.467l20.251,7.689c-0.271-2.787,1.194-6.432,1.964-8.122
		L127.753-82.467z"/>
	<path fill="#FFFFFF" d="M122.918-55.29c-3.027-1.635-10.101-2.6-10.99-1.962l-0.687-0.958c1.612-1.158,9.574,0.446,12.237,1.882
		L122.918-55.29z"/>
	<path fill="#FFFFFF" d="M132.399-57.378l-1.137-0.313c0.564-2.048,8.377-6.595,10.885-7.437l0.376,1.118
		C139.69-63.059,132.753-58.667,132.399-57.378z"/>
	<path fill="#FFFFFF" d="M122.853-54.826l-0.766-30.769l10.325,28.746l-1.022-0.204c-0.66-0.132-1.356-0.198-2.071-0.198
		c-2.21,0-4.379,0.634-5.524,1.616L122.853-54.826z M123.447-78.321l0.526,21.145c1.712-0.952,4.31-1.436,6.644-1.185
		L123.447-78.321z"/>
	<path fill="#FFFFFF" d="M142.335-63.98h-0.241l-21.04-20.615l28.714,10.473l-0.641,0.653c-1.861,1.894-5.987,6.769-6.132,8.913
		l-0.027,0.422l-0.423,0.142L142.335-63.98z M125.777-81.616l16.271,15.942c0.909-2.661,4.226-6.446,5.616-7.959L125.777-81.616z"/>
</g>
</svg>
