<?xml version="1.0" encoding="utf-8"?>
<!-- Generator: Adobe Illustrator 15.1.0, SVG Export Plug-In . SVG Version: 6.00 Build 0)  -->
<!DOCTYPE svg PUBLIC "-//W3C//DTD SVG 1.1//EN" "http://www.w3.org/Graphics/SVG/1.1/DTD/svg11.dtd">
<svg version="1.1" id="Layer_1" xmlns="http://www.w3.org/2000/svg" xmlns:xlink="http://www.w3.org/1999/xlink" x="0px" y="0px"
	 width="87px" height="49.834px" viewBox="10.917 11.167 87 49.834" enable-background="new 10.917 11.167 87 49.834"
	 xml:space="preserve">
<g>
	<g>
		<path fill="#FFFFFF" d="M54.796,57.124l-1.742-0.129c-6.938-0.506-12.5-3.215-16.529-8.056
			c-8.881-10.651-7.143-27.822-7.063-28.549l0.202-1.856l1.847,0.275c26.223,3.891,23.495,36.245,23.463,36.569L54.796,57.124z
			 M30.749,19.94l-0.063,0.584c-0.076,0.703-1.764,17.371,6.787,27.625c3.807,4.572,9.08,7.135,15.672,7.613l0.547,0.041
			l0.056-0.545c0.028-0.313,2.662-31.511-22.418-35.231L30.749,19.94z"/>
		<path fill="#FFFFFF" d="M40.954,59.812H40.95c-20.351-0.002-28.271-24.28-28.345-24.524l-0.439-1.385l1.275-0.715
			c1.781-1.004,3.76-1.514,5.873-1.514c4.457,0,7.975,2.243,8.121,2.338l0.658,0.422l0.141,0.77
			C31.552,53.767,44.146,55.917,44.681,56l12.563,1.818l-12.587,1.734C43.423,59.726,42.177,59.812,40.954,59.812z M13.644,34.489
			l0.139,0.432c0.076,0.244,7.601,23.658,27.168,23.66l0.004,0.617v-0.617c1.166,0,2.355-0.082,3.531-0.246l3.947-0.543l-3.937-0.57
			c-0.573-0.09-14.006-2.379-17.479-21.797l-0.043-0.238l-0.209-0.135c-0.033-0.023-3.355-2.142-7.453-2.142
			c-1.9,0-3.674,0.457-5.27,1.353L13.644,34.489z"/>
		<path fill="#FFFFFF" d="M53.921,34.346l-0.57-1.477c-0.672-1.74-2.691-6.163-6.906-9.618l-0.356-0.295l0.182-0.426
			c0.828-1.935,3.156-6.769,6.887-9.854l0.383-0.315l0.391,0.305c1.71,1.338,5.813,4.979,6.979,9.893l0.075,0.32l-0.229,0.241
			c-0.17,0.183-4.209,4.544-6.256,9.753L53.921,34.346z M47.585,22.599c3.366,2.881,5.34,6.314,6.342,8.48
			c1.684-3.621,4.207-6.904,5.697-8.553c-1.08-4.043-4.336-7.156-6.063-8.575C50.493,16.667,48.47,20.619,47.585,22.599z"/>
		<path fill="#FFFFFF" d="M54.58,57.34l-0.285-1.741c-0.053-0.326-4.832-32.39,21.926-38.249l1.834-0.406l0.32,1.854
			c0.121,0.699,2.922,17.324-5.338,28.701c-3.853,5.313-9.474,8.539-16.711,9.588L54.58,57.34z M77.057,18.427l-0.569,0.129
			C50.849,24.167,55.46,55.088,55.509,55.403l0.091,0.545l0.547-0.08c6.896-1.002,12.242-4.063,15.894-9.095
			c7.957-10.958,5.24-27.084,5.119-27.764L77.057,18.427z"/>
		<path fill="#FFFFFF" d="M66.985,59.974c-1.12,0-2.271-0.069-3.418-0.207l-10.649-1.89L63.5,56.209
			c0.551-0.086,13.543-2.35,16.713-21.041l0.129-0.783l0.674-0.43c0.156-0.101,3.879-2.442,8.494-2.442
			c2.092,0,4.057,0.478,5.84,1.416l1.32,0.696l-0.443,1.426C96.147,35.299,88.285,59.974,66.985,59.974z M60.378,57.952l3.365,0.598
			c1.064,0.127,2.166,0.191,3.238,0.191c20.346,0,27.988-23.814,28.063-24.054l0.14-0.446l-0.412-0.218
			c-1.604-0.849-3.377-1.275-5.267-1.275c-4.26,0-7.688,2.159-7.832,2.25l-0.209,0.133l-0.039,0.242
			C78.112,54.93,64.278,57.336,63.692,57.43L60.378,57.952z"/>
	</g>
</g>
</svg>
