<?xml version="1.0" encoding="utf-8"?>
<!-- Generator: Adobe Illustrator 15.1.0, SVG Export Plug-In . SVG Version: 6.00 Build 0)  -->
<!DOCTYPE svg PUBLIC "-//W3C//DTD SVG 1.1//EN" "http://www.w3.org/Graphics/SVG/1.1/DTD/svg11.dtd">
<svg version="1.1" id="Layer_1" xmlns="http://www.w3.org/2000/svg" xmlns:xlink="http://www.w3.org/1999/xlink" x="0px" y="0px"
	 width="104.167px" height="65.333px" viewBox="2.333 3.5 104.167 65.333" enable-background="new 2.333 3.5 104.167 65.333"
	 xml:space="preserve">
<g>
	<g>
		<path fill="#FFFFFF" d="M79.207,28.752c0.221-0.291,0.428-0.155,0.016-0.221c-0.309-0.054,0.023,0.409,0.014,0.194
			c-0.014-0.261-0.102-0.474-0.271-0.672c-0.133-0.156-0.407-0.228-0.603-0.16c-0.67,0.239-0.806,1.287-1.011,1.885
			c-0.247,0.729-0.12,1.426,0.316,2.037c0.461,0.644,1.537,0.029,1.069-0.626c-0.108-0.152-0.217-0.261-0.269-0.447
			c-0.016-0.138-0.01-0.273,0.016-0.411c0.087-0.521-0.08,0.283,0.063-0.224c0.115-0.409,0.242-0.917,0.459-1.283
			c-0.127,0.095-0.248,0.191-0.373,0.286c0.019-0.007,0.039-0.014,0.058-0.021c-0.201-0.054-0.403-0.106-0.603-0.159
			c-0.268-0.307-0.045,0.236,0.02,0.323c0.188,0.247,0.365,0.373,0.665,0.454c0.574,0.152,1.126,0.169,1.506-0.331
			C80.764,28.742,79.685,28.124,79.207,28.752L79.207,28.752z"/>
		<path fill="#FFFFFF" d="M87.242,32.161c0.336-0.456,0.375-1.043,0.313-1.589c-0.056-0.524-0.128-1.131-0.31-1.628
			c-0.197-0.542-1.041-0.637-1.195,0c-0.031,0.127-0.063,0.251-0.094,0.377c0.146-0.145,0.291-0.289,0.437-0.433
			c-0.198,0.049-0.396,0.087-0.597,0.121c-0.785,0.129-0.453,1.326,0.328,1.196c0.201-0.035,0.398-0.07,0.594-0.122
			c0.205-0.051,0.387-0.229,0.439-0.432c0.025-0.125,0.059-0.25,0.088-0.376c-0.399,0-0.797,0-1.195,0
			c0.131,0.356,0.166,0.76,0.232,1.131c0.064,0.387,0.137,0.794-0.111,1.129C85.698,32.182,86.774,32.798,87.242,32.161
			L87.242,32.161z"/>
		<path fill="#FFFFFF" d="M85.759,29.454c0.545-0.369,1.031-0.588,1.031-1.344c0-0.583-0.295-1.192-0.758-1.524
			c-0.354-0.253-0.777,0.032-0.908,0.371c-0.061,0.145-0.072,0.277-0.076,0.437c0.104-0.18,0.205-0.36,0.309-0.538
			c0.199-0.134,0.404,0.623,0.602-0.093c0.053-0.201-0.016-0.41-0.059-0.604c-0.09-0.429-0.635-0.554-0.977-0.689
			c0.142,0.144,0.289,0.287,0.434,0.433c0.068,0.181,0.497-0.651,0.297-1.014c-0.277-0.505-0.744-0.552-1.219-0.792
			c0.098,0.234,0.191,0.467,0.283,0.7c0.18-1.089-0.145-2.137-0.617-3.191c-0.092-0.199-0.331-0.293-0.538-0.307
			c-0.375-0.021-0.757-0.044-1.133-0.069c-0.222-0.016-0.425,0.13-0.536,0.305c-0.576,0.901-1.018,1.925-0.979,2.939
			c0.147-0.198,0.299-0.398,0.453-0.597c-0.486,0.166-1.031,0.146-1.369,0.592c-0.102,0.139-0.184,0.262-0.184,0.44
			c0,0.553,0.075,0.472,0.551,0.352c-0.551,0.136-0.763,0.311-0.943,0.844c-0.223,0.652,0.955,1.184,0.752,0.472
			c-0.107-0.395-0.561-0.57-0.909-0.373c-0.464,0.26-0.876,0.919-0.874,1.468c0.004,0.783,0.462,0.82,0.811,1.376
			c0.418,0.677,1.49,0.056,1.071-0.627c-0.203-0.321-1.005-0.798-0.382-1.146c-0.303-0.123-0.607-0.247-0.91-0.37
			c0.29,1.022,1.546,1.189,1.916,0.053c0.086-0.266-0.08-0.51-0.195-0.736c-0.076,0.234-0.021,0.298,0.166,0.192
			c0.151-0.035,0.299-0.149,0.37-0.285c0.093-0.171,0.209-0.388,0.124-0.59c-0.229-0.546-0.175-0.292,0.334-0.467
			c0.256-0.085,0.469-0.312,0.457-0.598c-0.023-0.729,0.354-1.601,0.811-2.312c-0.178,0.099-0.355,0.205-0.533,0.306
			c0.376,0.023,0.758,0.047,1.133,0.071c-0.177-0.103-0.354-0.203-0.535-0.308c0.294,0.642,0.609,1.561,0.497,2.237
			c-0.043,0.263,0.021,0.564,0.285,0.7c0.104,0.057,0.217,0.11,0.328,0.151c0.481,0.144,0.538,0.172,0.174,0.082
			c-0.185,0.275-0.269,0.513-0.147,0.831c0.08,0.225,0.209,0.346,0.433,0.432c0.196,0.122,0.215,0.074,0.057-0.137
			c-0.12,0.173-0.241,0.333-0.241,0.553c0,0.507,0.448,1.077,1.006,1.033c0.603-0.041,0.709-0.337,0.901-0.828
			c-0.303,0.125-0.606,0.25-0.909,0.373c0.463,0.331-0.072,0.589-0.279,0.729C84.475,28.83,85.093,29.905,85.759,29.454
			L85.759,29.454z"/>
		<path fill="#FFFFFF" d="M31.062,30.156c0.802-0.818,1.253-2.143-0.137-2.841c-0.335-0.167-0.82-0.043-0.906,0.372
			c-0.11,0.51,0.948,0.072,0.635-0.714c-0.19-0.478-0.572-0.349-0.93-0.592c0.096,0.233,0.191,0.467,0.29,0.701
			c0.422-1.437,0.108-1.592-1.254-1.995c0.148,0.199,0.304,0.398,0.452,0.599c-0.019-1.033-0.497-1.999-1.106-2.889
			c-0.115-0.164-0.316-0.33-0.535-0.304c-0.377,0.042-0.75,0.087-1.127,0.134c-0.305,0.036-0.476,0.168-0.596,0.452
			c-0.423,1.004-0.669,2.06-0.433,3.071c0.095-0.231,0.191-0.464,0.287-0.699c-1.269,0.718-1.505,0.926-0.745,2.235
			c0.03-0.249,0.065-0.499,0.094-0.75c-0.367,0.402-0.695,0.292-0.799,0.923c-0.116,0.699,1.056,0.976,0.78,0.395
			c-0.188-0.39-0.69-0.358-0.976-0.126c-0.413,0.34-0.667,1.09-0.563,1.623c0.054,0.251,0.92,1.151,0.93,1
			c-0.06,0.8,1.184,0.793,1.239,0c0.026-0.368-0.169-0.674-0.43-0.91c-0.285-0.253-0.923-0.321-0.297-0.835
			c-0.325-0.042-0.647-0.084-0.973-0.125c0.266,0.554,0.736,0.873,1.37,0.503c0.837-0.489,0.411-1.235-0.046-1.799
			c0.054,0.203,0.106,0.403,0.161,0.603c0.016-0.09,0.401-0.292,0.481-0.378c0.19-0.207,0.241-0.501,0.097-0.75
			c-0.318-0.552-0.159-0.278,0.304-0.54c0.245-0.142,0.347-0.43,0.28-0.702c-0.167-0.718,0.135-1.695,0.43-2.411
			c-0.193,0.15-0.396,0.303-0.597,0.456c0.377-0.048,0.75-0.091,1.127-0.136c-0.179-0.102-0.359-0.203-0.539-0.305
			c0.457,0.658,0.929,1.513,0.939,2.261c0.007,0.279,0.188,0.519,0.456,0.598c0.499,0.145,0.565-0.123,0.389,0.466
			c-0.084,0.281,0.054,0.544,0.285,0.7c0.543,0.375,0.508-0.355,0.228,0.316c-0.121,0.284,0.11,0.753,0.361,0.901
			c0.746,0.451,1.355,0.136,1.521-0.654c-0.306,0.123-0.604,0.248-0.911,0.371c0.538,0.27,0.117,0.657-0.115,0.892
			C29.627,29.848,30.501,30.727,31.062,30.156L31.062,30.156z"/>
		<path fill="#FFFFFF" d="M24.631,30.375c-0.219-0.05-0.438-0.095-0.639-0.2c-0.103,0.387-0.209,0.77-0.312,1.155
			c0.071,0.012,0.134,0.014,0.205,0.019c0.402,0.024,0.703-0.418,0.597-0.786c-0.059-0.211-0.149-0.373-0.29-0.539
			c-0.147-0.177-0.396-0.2-0.603-0.159c-0.765,0.14-0.69,1.543-0.767,2.119c-0.041,0.32,0.008,0.647,0.07,0.958
			c0.041,0.21,0.153,0.418,0.273,0.592c0.059,0.085,0.124,0.165,0.202,0.229c0.162,0.164,0.185,0.149,0.061-0.038
			c0.08,0.789,1.32,0.794,1.242,0c-0.063-0.636-0.607-0.863-0.621-1.508c-0.006-0.485,0.066-1.127,0.237-1.58
			c-0.144,0.146-0.288,0.289-0.43,0.432c0.018,0,0.039-0.007,0.062-0.011c-0.204-0.052-0.403-0.107-0.604-0.158
			c-0.01-0.002-0.019-0.004-0.028-0.008c0.2-0.262,0.402-0.523,0.599-0.783c-0.071-0.004-0.134-0.009-0.205-0.018
			c-0.621-0.061-0.838,0.881-0.312,1.156c0.294,0.154,0.606,0.251,0.934,0.323C25.083,31.739,25.412,30.543,24.631,30.375
			L24.631,30.375z"/>
		<path fill="#FFFFFF" d="M33.04,32.317c0.187-0.563,0.1-1.171-0.112-1.708c-0.196-0.505-0.336-1.345-0.838-1.64
			c-0.178-0.103-0.45-0.124-0.625,0c-0.198,0.139-0.316,0.304-0.366,0.542c-0.021,0.101-0.032,0.206-0.027,0.305
			c-0.005-0.162,0.353-0.363,0.021-0.246c-0.751,0.266-0.427,1.465,0.331,1.196c0.29-0.107,0.549-0.134,0.735-0.419
			c0.142-0.216,0.09-0.445,0.178-0.653c-0.093,0.125-0.189,0.247-0.284,0.373c0.013-0.011,0.024-0.02,0.037-0.03
			c-0.209,0-0.419,0-0.625,0c-0.236-0.137-0.031,0.107,0.034,0.274c0.078,0.208,0.148,0.417,0.233,0.625
			c0.045,0.101,0.084,0.206,0.113,0.313c-0.013-0.153-0.011-0.13,0.012,0.067c0.057,0.239,0.066,0.434-0.012,0.67
			C31.593,32.749,32.788,33.072,33.04,32.317L33.04,32.317z"/>
		<path fill="#FFFFFF" d="M4.414,64.638c0.242-0.056,0.48-0.328,0.451-0.58c-0.099-0.884-0.35-2.646,0.687-2.946
			c1.646-0.469,2.604-0.986,4.126-1.736c0.233-0.113,0.374-0.44,0.286-0.68c-1.146-3.047,2.89-3.211,4.63-3.766
			c0.307-0.098,0.552-0.419,0.432-0.738c-0.128-0.378-0.265-0.754-0.406-1.128c-0.115-0.312-0.415-0.503-0.759-0.418
			c-0.137,0.035-0.274,0.068-0.408,0.101c0.202,0.336,0.401,0.672,0.604,1.008c0.687-0.572,1.028-2.727,1.468-2.889
			c2.369-0.869,4.874-1.434,7.339-1.997c0.328-0.075,0.515-0.433,0.43-0.739c-0.307-1.007-0.512-2.034-0.603-3.085
			c-0.882-0.337-1.206-0.303-0.975,0.104c0.271,0.486,0.327,0.562,0.798,0.842c0.361,0.212,0.782,0,0.909-0.359
			c0.615-1.708-1.819-3.38-0.879-4.875c-0.357,0-0.717,0-1.07,0c0.412,0.841,0.994,0.949,1.878,0.81
			c0.245-0.036,0.487-0.337,0.458-0.578c-0.043-0.339-0.087-0.674-0.128-1.013c-0.033-0.267-0.163-0.505-0.454-0.58
			c-0.313-0.556-0.43-1.145-0.353-1.763c-0.715-0.634-0.733-0.623-0.051,0.035c0.144,0.144,0.403,0.228,0.604,0.155
			c0.085-0.029,0.172-0.062,0.254-0.091c0.314-0.109,0.538-0.408,0.439-0.74c-0.314-1.023-1.213-1.878-0.529-3.023
			c-0.378-0.05-0.754-0.097-1.132-0.144c0.031,0.166,0.031,0.359,0.057,0.53c0.036,0.273,0.348,0.425,0.596,0.442
			c0.598,0.041,0.689-0.063,1.265-0.354c0.708-0.363,0.079-1.4-0.624-1.04l0,0c-0.201,0.101,0.025,0.701-0.1,0.101
			c-0.106-0.524-0.877-0.573-1.132-0.146c-0.304,0.509-0.387,1.063-0.41,1.639c-0.013,0.244,0.049,0.71,0.17,0.985
			c0.25,0.571,1.207,0.668,0.669,0.042c-0.206-0.238-0.674-0.233-0.878,0c-0.692,0.787-0.573,2.42-0.316,3.332
			c0.16,0.568,0.388,0.794,0.841,1.103c-0.347-0.236,0.412,0.643-0.054-0.309c-0.206-0.421-0.847-0.359-1.07,0
			c-1.193,1.9,1.245,3.803,0.759,5.162c0.3-0.12,0.604-0.238,0.909-0.358c-0.129-0.199-0.261-0.397-0.387-0.596
			c-0.072-0.255-0.321-0.446-0.595-0.442c-0.031,0.001-0.065,0.001-0.094,0.003c-0.338,0.006-0.627,0.271-0.623,0.604
			c0.006,0.354,0.588,3.303,0.147,3.406c-1.806,0.414-3.593,0.901-5.364,1.438c-0.559,0.171-2.037,0.368-2.363,0.973
			c-0.221,0.412-0.494,2.412-0.685,2.568c-0.491,0.408,0.035,1.149,0.603,1.008c-1.311,0.326-3.592,0.541-4.789,1.445
			c-0.348,0.26-0.832,0.629-0.77,1.141c0.28,2.261,0.605,2.066-1.872,3.07c-0.893,0.361-1.709,0.551-2.448,1.205
			c-0.646,0.568-0.529,3.68,0,3.553"/>
		<path fill="#FFFFFF" d="M32.979,35.08c0,0.09,0,0.182,0,0.274c0,0.713,1.012,0.828,1.215,0.164
			c0.099-0.318,0.226-0.57,0.266-0.906c0.038-0.343-0.036-0.719-0.104-1.053c-0.11-0.538-0.403-1.312-0.896-1.602
			c-0.243-0.143-0.551-0.095-0.752,0.099c-0.229,0.222-0.215,0.505-0.15,0.79c0.014,0.076,0.038,0.151,0.053,0.227
			c0.4-0.409,0.437-0.592,0.107-0.548c-0.081,0-0.158-0.02-0.228-0.063c-0.737-0.308-1.054,0.892-0.325,1.195
			c0.404,0.173,1.348,0.227,1.573-0.283c0.098-0.223,0.125-0.392,0.067-0.63c-0.018-0.072-0.051-0.372-0.054-0.236
			c-0.063,0.146-0.122,0.294-0.184,0.439c0.009-0.005,0.012-0.009,0.019-0.017c-0.252,0.034-0.505,0.066-0.754,0.097
			c-0.095-0.044-0.076,0,0.054,0.14c0.057,0.1,0.106,0.204,0.15,0.31c0.056,0.142,0.099,0.295,0.127,0.444
			c0.048,0.233,0.062,0.456,0.057,0.692c-0.007,0.174-0.166,0.403-0.218,0.576c0.404,0.056,0.811,0.112,1.219,0.167
			c0-0.092,0-0.184,0-0.274C34.222,34.281,32.979,34.281,32.979,35.08L32.979,35.08z"/>
		<path fill="#FFFFFF" d="M23.583,37.652c0.8,0,0.8-1.239,0-1.239C22.78,36.413,22.78,37.652,23.583,37.652L23.583,37.652z"/>
		<path fill="#FFFFFF" d="M34.306,38.462c0,0.043,0,0.086,0,0.128c0,0.644,0.821,0.812,1.154,0.314
			c0.623-0.932,0.103-2.397-0.192-3.373c-0.146-0.486-0.397-0.956-0.951-0.992c-0.222-0.016-0.498,0.16-0.597,0.354
			c-0.075,0.151-0.125,0.289-0.171,0.448c-0.112,0.403-0.149,0.131,0.187,0.225c-0.772-0.219-1.098,0.979-0.328,1.197
			c0.269,0.076,0.542,0.009,0.763-0.156c0.166-0.125,0.276-0.267,0.389-0.441c0.073-0.117,0.115-0.506,0.193-0.571
			c-0.146,0.063-0.292,0.121-0.436,0.183c0.02,0.001,0.039,0.001,0.061,0.005c-0.149-0.062-0.294-0.124-0.438-0.183
			c0.233,0.19,0.303,0.852,0.37,1.135c0.106,0.43,0.344,1.144,0.08,1.54c0.384,0.105,0.771,0.21,1.155,0.313
			c0-0.042,0-0.084,0-0.128C35.544,37.66,34.306,37.66,34.306,38.462L34.306,38.462z"/>
		<path fill="#FFFFFF" d="M36.429,42.911c-0.003-0.019-0.003-0.038-0.006-0.056c-0.062,0.147-0.12,0.291-0.179,0.438
			c0.221-0.247,0.625-0.604,0.674-0.953c0.066-0.471-0.012-0.943-0.075-1.41c-0.094-0.712-0.132-1.959-0.773-2.421
			c-0.188-0.136-0.432-0.087-0.626,0c-0.274,0.126-0.363,0.462-0.396,0.736c-0.021,0.213,0.096-0.034-0.148-0.015
			c-0.054,0.004-0.104,0.011-0.156,0.012c0.2,0.153,0.4,0.304,0.597,0.455c-0.005-0.049-0.017-0.099-0.022-0.149
			c-0.128-0.787-1.32-0.45-1.197,0.329c0.012,0.05,0.017,0.1,0.023,0.151c0.043,0.252,0.349,0.472,0.6,0.454
			c0.303-0.024,0.741,0.017,1.006-0.165c0.168-0.117,0.281-0.225,0.394-0.399c0.042-0.083,0.076-0.174,0.098-0.266
			c0.118-0.407,0.046-0.171-0.17-0.072c-0.207,0-0.414,0-0.626,0c-0.178-0.132-0.196-0.242-0.125-0.02
			c0.061,0.195,0.097,0.395,0.142,0.595c0.071,0.349,0.138,0.703,0.179,1.057c0.05,0.406,0.173,0.678-0.075,0.975
			c-0.18,0.219-0.408,0.407-0.375,0.724C35.266,43.7,36.507,43.707,36.429,42.911L36.429,42.911z"/>
		<path fill="#FFFFFF" d="M37.743,40.858c0.021,0.483,0.014,0.12,0.031,0.604c-0.03-0.716-0.272-0.785-0.992-0.232
			c-0.586,0.446-0.479,1.43-0.479,2.071c0.001,0.308,0.001,0.612,0.008,0.917c-0.252,1.049,0.145,1.197,1.188,0.445
			c-0.03-0.579-0.138-1.124-0.267-1.683c-0.076-0.343-0.444-0.501-0.763-0.435c-0.027,0.007-0.055,0.013-0.085,0.018
			c-0.277,0.062-0.445,0.334-0.455,0.6c-0.065,0.261-0.128,0.521-0.19,0.783c0.398,0,0.796,0,1.194,0
			c-0.031-0.085-0.063-0.172-0.095-0.257c-0.277-0.741-1.476-0.423-1.194,0.33c0.031,0.087,0.063,0.172,0.095,0.257
			c0.215,0.573,0.992,0.604,1.194,0c0.625-1.866-0.663,0.521-0.619,1.303c0.014,0.337,0.267,0.622,0.619,0.622h0.01
			c0.337,0,0.625-0.285,0.62-0.622c-0.019-1.27-0.683-3.434,0.838-3.449c0.324-0.004,0.919-0.876,0.903-1.215"/>
		<path fill="#FFFFFF" d="M38.17,41.507c0.013,0.336,0.268,0.623,0.62,0.619c1.354-0.011,2.711-0.024,4.067-0.034
			c0.336-0.001,0.622-0.28,0.619-0.619c-0.007-1.037-0.013-2.075-0.019-3.113c-0.004-0.9,2.18-0.493,2.783-0.459
			c0.397,0.022,0.711-0.414,0.597-0.785c-0.466-1.552-0.599-3.145-0.605-4.761c0.007,1.815-1.626-1.507-0.641,0.614
			c0.095,0.205,0.509,0.414,0.637,0.499c0.28,0.184,0.688,0.059,0.851-0.222c1.092-1.911-1.776-4.245-0.434-5.758
			c-0.323-0.041-0.648-0.084-0.975-0.125c0.488,0.986,0.871,1.107,2.017,1.063c0.334-0.013,0.618-0.273,0.618-0.621
			c0-0.395-0.006-0.79-0.008-1.184c-0.002-0.283-0.188-0.516-0.454-0.598c-0.444-0.88-0.499-1.786-0.164-2.715
			c-0.062,0.332-0.15,0.433,0.146,0.607c0.437,0.259,0.768,0.315,1.181,0.042c0.245-0.158,0.348-0.413,0.288-0.698
			c-0.249-1.154-1.159-2.421-0.252-3.469c-0.354-0.147-0.706-0.293-1.06-0.438c0.019,0.21-0.013,0.407-0.009,0.616
			c0.006,0.253,0.183,0.558,0.455,0.598c4.14,0.628,0.095-3.171,1.914-4.164c-0.301-0.121-0.603-0.244-0.905-0.37
			c0.388,1.125,1.739,1.563,2.646,0.647c0.144-0.144,0.243-0.404,0.161-0.605c-0.099-0.239-1.041-1.561-0.802-1.619
			c-0.259-0.201-0.522-0.4-0.783-0.601c0.067,1.237,1.331,1.197,1.966,0.381c0.159-0.207,0.27-0.508,0.099-0.75
			c-0.279-0.391-0.383-0.088,0.119-0.247c0.3-0.094,0.554-0.438,0.434-0.761c-0.227-0.604-0.251-0.593,0.428-0.747
			c0.192-0.044,0.396-0.232,0.433-0.432c0.093-0.543,0.39-2.603,0.593-2.603c0.337,0,0.621-0.281,0.621-0.62
			c0,0.738-1.086,0.626-0.036,0.613c0.74-0.008,0.578,0.421,0.914,1.233c0.205,0.487,0.187,0.849,0.271,1.348
			c0.033,0.198,0.238,0.39,0.433,0.432c0.674,0.144,0.646,0.124,0.43,0.728c-0.12,0.324,0.13,0.67,0.431,0.762
			c0.485,0.149,0.396-0.164,0.131,0.241c-0.164,0.25-0.069,0.539,0.096,0.752c0.637,0.795,1.906,0.84,1.941-0.398
			c-0.262,0.198-0.521,0.398-0.781,0.598c0.721,0.17-0.626,1.183-0.57,1.135c-0.595,0.533,0.284,1.408,0.878,0.875l0,0
			c0.853-0.768,2.128-2.704,0.021-3.207c-0.398-0.095-0.771,0.188-0.786,0.599c0.008-0.216,0.921-0.205,0.627-1.082
			c-0.054-0.156-0.142-0.285-0.288-0.371c-0.83-0.486-0.414,0.162-0.116-0.396c0.119-0.223,0.13-0.58-0.095-0.75
			c-0.417-0.326-1.043-0.497-1.043-0.776c0-0.732-0.848-1.996-1.208-2.66c-0.106-0.189-0.321-0.307-0.536-0.307
			c-0.432,0.004-0.896,0.028-1.329,0.007c-0.337-0.016-0.616,0.294-0.616,0.619c0.145-0.205,0.295-0.411,0.438-0.615
			c-0.211,0-0.433,0.118-0.533,0.306c-0.396,0.749-0.96,1.722-1.18,2.52c-0.155,0.556-0.461,0.466-1.073,0.958
			c-0.22,0.171-0.226,0.528-0.099,0.75c0.321,0.562,0.743-0.089-0.105,0.408c-0.142,0.081-0.234,0.214-0.284,0.368
			c-0.291,0.894,0.606,0.821,0.621,1.088c-0.022-0.406-0.375-0.696-0.786-0.598c-0.69,0.169-1.174,0.919-1.174,1.638
			c0,0.761,1.054,1.856,0.692,0.809c-0.135-0.386-0.546-0.571-0.913-0.369c-0.716,0.389-1.031,1.671-1.031,2.418
			c0,0.471,0.616,2.532,0.535,1.599c-0.04-0.49-0.673-0.885-1.057-0.438c-0.454,0.522-0.831,1.228-0.815,1.939
			c0.018,0.833-0.018,0.796,0.242,1.521c0.072,0.191,0.997,0.553,0.306-0.316c-0.223-0.288-0.634-0.192-0.874,0
			c-1.065,0.852-0.963,3.278-0.519,4.388c0.125,0.326,0.482,0.611,0.809,0.713c-0.31-0.395-0.394-0.283-0.255,0.339
			c0.182-0.103,0.356-0.207,0.534-0.308c-0.471,0.084-0.754-0.068-0.853-0.453c-0.172-0.347-0.718-0.412-0.974-0.125
			c-0.652,0.736-0.518,2.124-0.523,3.033c-0.004,0.459-0.009,0.966,0.235,1.38c0.045,0.076,0.955,0.689,0.926,0.559
			c-0.056-0.28-0.334-0.436-0.596-0.454c-0.042-0.001-0.088-0.005-0.128-0.009c-0.364-0.022-0.581,0.302-0.62,0.62
			c-0.223,1.885,0.034,3.889,0.583,5.705c0.2-0.262,0.397-0.522,0.597-0.784c-1.032-0.059-4.156-0.554-4.029,1.41
			c0.067,1.066,0.021,2.15,0.022,3.219c0.633-0.377,0.667-0.52,0.111-0.432c-0.396,0.002-0.794,0.007-1.184,0.011
			c-0.747,0.007-1.489,0.012-2.233,0.018c0.522-0.005,0.504,1.021,0.459,0.198"/>
		<path fill="#FFFFFF" d="M51.676,16.672c0.802,0,0.802-1.24,0-1.24C50.878,15.432,50.878,16.672,51.676,16.672L51.676,16.672z"/>
		<path fill="#FFFFFF" d="M61.315,19.5c0.352-0.314,0.561-0.655,0.635-1.126c0.051-0.34,0.096-0.911-0.188-1.169
			c0.061,0.147,0.118,0.292,0.18,0.44c-0.078-0.636-0.293-1.526-0.614-2.085c-0.195-0.335-0.701-0.418-0.976-0.125
			c-0.095,0.1-0.185,0.202-0.28,0.302c-0.201,0.217,0.112-0.015-0.199,0.147c-0.164,0.086-0.332,0.17-0.504,0.235
			c-0.261,0.102,0-0.034,0.155,0.129c-0.272-0.285-0.01-0.009-0.084,0.167c0.319-0.723-0.749-1.355-1.071-0.626
			c-0.371,0.838,0.269,1.799,1.223,1.561c0.682-0.17,1.177-0.542,1.64-1.037c-0.325-0.043-0.649-0.084-0.976-0.126
			c0.109,0.19,0.218,0.715,0.298,1.01c0.071,0.254,0.139,0.715,0.341,0.894c-0.061-0.145-0.12-0.292-0.184-0.438
			c0.049,0.416,0.054,0.687-0.27,0.972C59.843,19.155,60.722,20.031,61.315,19.5L61.315,19.5z"/>
		<path fill="#FFFFFF" d="M63.238,27.083c0.713-0.177,1.217-0.86,1.23-1.591c0.021-0.979,0.054-2.872-0.787-3.572
			c-0.234-0.199-0.475-0.218-0.752-0.098c-0.108,0.03-0.201,0.085-0.28,0.165c-0.482,0.484,0.187,0.568-0.035,1.022
			c0.165-0.342,0.515-0.618,0.593-0.999c0.224-1.07,0.076-2.202-0.603-3.086c-0.237-0.304-0.672-0.443-0.974-0.125
			c-0.127,0.133-0.252,0.296-0.234,0.493c0.066,0.716-0.09-0.117-0.156,0.141c0.194-0.777-1.003-1.105-1.195-0.329
			c-0.178,0.731,0.229,1.443,1.039,1.511c0.446,0.037,0.976,0.07,1.329-0.281c0.174-0.171,0.484-1.064,0.094-0.659
			c-0.325-0.04-0.647-0.082-0.976-0.124c0.632,0.816,0.745,1.832,0.115,2.676c-0.272,0.368-0.401,0.812-0.243,1.245
			c0.121,0.336,0.631,0.684,0.999,0.54c0.178-0.066,0.355-0.118,0.502-0.247c0.191-0.176,0.48-0.797,0.653-0.869
			c-0.25-0.035-0.5-0.068-0.751-0.097c0.451,0.377,0.695,2.945,0.104,3.09C62.13,26.077,62.458,27.274,63.238,27.083L63.238,27.083z
			"/>
		<path fill="#FFFFFF" d="M77.611,31.676c-0.018,0.404,0.27,0.047,0.264-0.161c-0.01-0.504-0.688-0.866-1.058-0.438
			c-0.394,0.456-0.588,0.979-0.733,1.569c-0.078,0.326-0.11,0.7-0.031,1.03c0.133,0.566,1.136,1.039,0.689,0.251
			c-0.217-0.375-0.672-0.37-0.975-0.125c-0.725,0.587-1.028,2.497-0.813,3.358c0.148,0.61,0.155,0.708,0.567,1.119
			c-0.087-0.089,0.337,0.818,0.058-0.233c-0.117-0.442-0.716-0.619-1.039-0.275c-0.594,0.648-0.545,1.893-0.6,2.722
			c-0.064,0.93,0.842,1.856,0.391,2.634c0.332-0.042,0.653-0.087,0.977-0.125c-0.102-0.215-0.201-0.433-0.303-0.646
			c-0.023-0.253-0.17-0.555-0.455-0.6c-0.032-0.003-0.061-0.009-0.092-0.013c-0.309-0.049-0.699,0.073-0.763,0.43
			c-0.116,0.67-0.14,1.044-0.184,1.782c0.968,1.146,1.339,1.135,1.106-0.033c-0.004-0.591-0.011-1.182-0.029-1.769
			c-0.014-0.618-0.26-1.363-0.928-1.548c-1.662-0.454-3.918-0.003-5.635,0.014c-0.295,0.001-0.5,0.189-0.6,0.453
			c-0.004,0.016-0.014,0.034-0.02,0.052c0.408,0.056,0.811,0.108,1.221,0.166c-0.043-3.736,0.319-5.074-3.979-4.79
			c0.196,0.261,0.399,0.524,0.597,0.785c0.5-1.833,0.705-3.823,0.465-5.708c-0.039-0.313-0.252-0.654-0.617-0.621
			c-0.041,0.004-0.082,0.007-0.118,0.008c-0.261,0.025-0.548,0.173-0.603,0.457c-0.183,0.988,0.377,1.333,0.295-0.031
			c0.019,0.287,0.776-0.972,0.797-1.042c0.293-0.905,0.154-3.149-0.534-3.898c-0.253-0.27-0.813-0.236-0.979,0.127
			c0.012-0.016-0.582,1.356-0.479-0.046c0.064-0.799-1.176-0.792-1.238,0c-0.151,1.977,2.039,2.392,2.789,0.669
			c-0.32,0.042-0.648,0.083-0.97,0.128c0.854,0.928-0.142,2.801-0.558,3.508c-0.275,0.475-0.021,1.354,0.012,1.865
			c0.023,0.364,0.267,0.587,0.621,0.622c0.547,0.052,1.006-0.196,1.211-0.751c0.236-0.641-0.795-0.809-0.77,0.896
			c0.014,1.136-0.218,2.376-0.518,3.487c-0.104,0.368,0.188,0.811,0.598,0.785c0.555-0.037,2.693-0.458,2.706,0.366
			c0.009,1.061,0.021,2.122,0.032,3.184c0.009,0.731,0.98,0.8,1.219,0.165c-0.268,0.718-0.38,0.401,0.795,0.39
			c0.852-0.007,1.703-0.015,2.555-0.022c0.461-0.004,0.916-0.007,1.377-0.011c0.049-0.001,0.051,3.104,0.051,3.458
			c0,0.349,0.283,0.611,0.619,0.621c0.031,0.002,0.056,0.002,0.084,0.002c0.248,0.01,0.559-0.191,0.6-0.455
			c0.025-0.164,0.048-0.325,0.068-0.488c0.193-0.924-0.127-1.67-0.957-2.246c0.056,0.553,0.246,0.829,0.635,1.176
			c0.291,0.264,0.766,0.234,0.975-0.125c0.922-1.596-1.181-3.808,0.016-5.104c-0.348-0.09-0.69-0.183-1.035-0.273
			c0.236,0.899,0.754,1.179,1.665,1.205c0.349,0.011,0.599-0.29,0.618-0.618c0.019-0.352,0.037-0.703,0.054-1.054
			c0.013-0.198-0.118-0.454-0.308-0.538c-0.086-0.037-0.303-2.258,0.229-2.689c-0.326-0.044-0.651-0.083-0.976-0.124
			c0.172,0.327,0.371,0.638,0.601,0.934c0.169,0.248,0.406,0.339,0.7,0.284c0.089-0.016,0.177-0.032,0.27-0.049
			c0.247-0.045,0.479-0.343,0.452-0.598c-0.099-1.044-0.829-2.216,0.002-3.172c-0.354-0.147-0.707-0.292-1.06-0.439
			c0.007,0.181-0.029,0.364-0.04,0.547c-0.017,0.267,0.198,0.53,0.456,0.596c0.834,0.214,1.758,0.022,1.798-0.982
			C78.88,30.875,77.643,30.881,77.611,31.676L77.611,31.676z"/>
		<path fill="#FFFFFF" d="M87.951,35.184c0.391-0.562,0.403-1.063,0.445-1.728c0.031-0.511-0.154-1.413-0.563-1.76
			c-0.205-0.169-0.512-0.262-0.752-0.096c-0.262,0.18-0.348,0.418-0.332,0.721c0,0.077,0.008,0.154,0.01,0.229
			c0.008,0.25,0.14,0.107,0.398-0.431c-0.109,0.007-0.238-0.034-0.337-0.087c-0.696-0.393-1.317,0.679-0.625,1.07
			c0.438,0.25,1.15,0.418,1.573,0.052c0.167-0.145,0.225-0.343,0.234-0.555c0-0.079-0.002-0.415-0.032-0.288
			c-0.095,0.122-0.187,0.247-0.284,0.37c0.007-0.003,0.018-0.009,0.02-0.012c-0.248-0.031-0.502-0.064-0.75-0.097
			c0.109,0.089,0.213,0.669,0.199,0.918c-0.029,0.451-0.017,0.693-0.275,1.066C86.425,35.22,87.503,35.839,87.951,35.184
			L87.951,35.184z"/>
		<path fill="#FFFFFF" d="M77.248,35.3c0.799,0,0.799-1.241,0-1.241C76.449,34.058,76.449,35.3,77.248,35.3L77.248,35.3z"/>
		<path fill="#FFFFFF" d="M87.893,39.229c1.325-0.555,1.198-2.011,1.097-3.24c-0.042-0.483-0.048-1.227-0.518-1.517
			c-0.24-0.147-0.518-0.159-0.766-0.014c-0.141,0.08-0.549,0.791-0.455,0.776c-0.778,0.101-0.793,1.341,0,1.242
			c0.227-0.029,0.408-0.078,0.598-0.21c0.111-0.078,0.672-0.787,0.408-0.7c-0.155-0.021-0.316-0.042-0.479-0.064
			c-0.128-0.161-0.156-0.146-0.082,0.048c0.018,0.092,0.026,0.185,0.038,0.277c0.022,0.24,0.039,0.482,0.054,0.723
			c0.018,0.33,0.153,1.322-0.226,1.483C86.835,38.34,87.158,39.537,87.893,39.229L87.893,39.229z"/>
		<path fill="#FFFFFF" d="M88.776,42.94c0.009-0.045,0.013-0.09,0.013-0.136c-0.061,0.144-0.119,0.291-0.183,0.438
			c0.536-0.414,0.815-0.72,0.878-1.41c0.063-0.759,0.087-1.512,0.046-2.274c-0.034-0.537-0.192-1.278-0.916-1.104
			c-0.334,0.082-0.479,0.433-0.562,0.729c0.046-0.028,0.091-0.053,0.134-0.078c-0.123-0.013-0.245-0.026-0.37-0.034
			c-0.054-0.007-0.107-0.015-0.16-0.018c0.209,0.206,0.412,0.416,0.619,0.619c0.003-0.029,0.01-0.054,0.014-0.083
			c0.098-0.794-1.146-0.783-1.242,0c0,0.028-0.006,0.054-0.008,0.083c-0.047,0.358,0.316,0.592,0.617,0.622
			c0.346,0.034,0.69,0.105,1.014-0.042c0.438-0.197,0.399-0.56,0.646-0.887c-0.124,0.095-0.245,0.192-0.369,0.287
			c0.007-0.002,0.015-0.005,0.022-0.008c-0.196-0.05-0.398-0.105-0.602-0.157c-0.203-0.212-0.113-0.255-0.089-0.065
			c0.022,0.202,0.025,0.409,0.03,0.612c0.01,0.415,0.005,0.827-0.02,1.24c-0.025,0.453,0.015,0.626-0.32,0.901
			c-0.28,0.237-0.393,0.391-0.434,0.767C87.453,43.736,88.695,43.728,88.776,42.94L88.776,42.94z"/>
		<path fill="#FFFFFF" d="M101.052,60.706c-1.842-1.008,0.75-4.584-1.342-5.321c-0.478-0.172-3.362-0.836-3.596-0.205
			c0.407-1.117,0.521-2.345,0.456-3.521c-0.13-2.459-3.263-2.56-5.063-2.867c-1.207-0.203-2.862,0.303-2.475-1.104
			c0.391-1.426,0.598-2.979,0.521-4.45c-0.016-0.331-0.27-0.629-0.615-0.62c-0.035,0.003-0.063,0.003-0.094,0.005
			c-0.268,0.004-0.537,0.181-0.6,0.454c-0.025,0.112-0.049,0.225-0.074,0.339c-0.174,0.777,1.021,1.108,1.195,0.33
			c-1.039-0.295-1.404,0.093-1.092,1.178c-0.087,0.821-0.232,1.634-0.439,2.435c-0.133,0.563-0.219,1.046-0.271,1.631
			c-0.034,0.362,0.312,0.584,0.619,0.618c3.218,0.361,7.92,0.2,6.892,4.712c-0.143,0.625-0.607,1.357,0.147,1.803
			c2.251,1.316,4.807-1.283,3.653,3.568c-0.264,1.09,0.77,1.661,1.549,2.09C101.126,62.163,101.753,61.091,101.052,60.706
			L101.052,60.706z"/>
		<path fill="#FFFFFF" d="M3.901,64.89"/>
		<rect x="3.901" y="63.435" fill="#FFFFFF" width="97.458" height="1.233"/>
		<rect x="8.967" y="58.476" fill="#FFFFFF" width="90.759" height="1.231"/>
		<rect x="13.936" y="53.659" fill="#FFFFFF" width="82.187" height="1.232"/>
		<path fill="#FFFFFF" d="M50.442,32.821c1.778-1.072,3.283,0.86,5.031,1.032c1.89,0.188,2.604-2.529,4.681-0.67
			c1.418,1.268,3.989,0.5,4.537-1.205c0.246-0.763-0.951-1.087-1.195-0.328c-0.699,2.17-2.939-0.084-4.004-0.377
			c-1.05-0.288-2.011,0.024-2.851,0.636c-2.262,1.647-2.557-0.789-4.447-0.766c-0.857,0.011-1.633,0.16-2.377,0.608
			C49.132,32.164,49.753,33.235,50.442,32.821L50.442,32.821z"/>
		<path fill="#FFFFFF" d="M78.262,42.061c1.204-0.699,2.382,0.88,3.599,1.083c1.367,0.227,2.189-1.891,3.695-0.319
			c1.127,1.172,3.111,0.511,3.641-0.909c0.275-0.743-0.83-1.061-1.104-0.331c-0.643,1.729-2.186-0.443-2.934-0.596
			c-0.871-0.176-1.525-0.095-2.275,0.433c-1.391,0.979-2.059-0.803-3.313-0.86c-0.674-0.032-1.282,0.08-1.884,0.427
			C77.035,41.366,77.612,42.438,78.262,42.061L78.262,42.061z"/>
		<path fill="#FFFFFF" d="M25.368,41.504c1.058-0.957,2.467,0.432,3.696,0.091c0.39-0.109,0.653-0.334,0.955-0.589
			c0.701-0.593,1.444-0.718,2.317-0.477c1.419,0.392,2.982-0.2,3.168-1.753c0.095-0.794-1.146-0.785-1.239,0
			c-0.178,1.472-2.167,0.047-2.796,0.085c-0.859,0.054-1.468,0.288-2.057,0.925c-1.03,1.105-2.078-0.225-3.238,0.017
			c-0.641,0.132-1.191,0.38-1.681,0.822C23.897,41.166,24.779,42.041,25.368,41.504L25.368,41.504z"/>
		<path fill="#FFFFFF" d="M26.953,36.109c0.563-0.562,1.46,0.239,2.159,0.177c0.696-0.06,1.307-1.299,2.032-0.813
			c1.027,0.689,2.355-0.264,2.456-1.342c0.074-0.796-1.14-0.792-1.215,0c-0.064,0.686-1.321-0.163-1.613-0.147
			c-0.617,0.03-1.069,0.212-1.476,0.699c-0.502,0.593-1.374-0.212-2.02-0.072c-0.456,0.096-0.847,0.291-1.183,0.622
			C25.535,35.792,26.393,36.669,26.953,36.109L26.953,36.109z"/>
		<path fill="#FFFFFF" d="M27.549,30.976c0.258-0.436,0.867,0.449,1.278,0.287c0.303-0.116,0.796-1.026,0.988-0.801
			c0.717,0.841,1.696-0.079,1.712-1.164c0.012-0.801-0.931-0.799-0.94,0c-0.007,0.364-0.727-0.223-0.953-0.259
			c-0.393-0.062-0.734,0.393-0.917,0.783c-0.169,0.357-0.259,0.027-0.505-0.181c-0.165-0.141-0.389-0.144-0.575-0.12
			c-0.288,0.04-0.575,0.278-0.753,0.579C26.515,30.722,27.177,31.604,27.549,30.976L27.549,30.976z"/>
		<path fill="#FFFFFF" d="M79.783,36.204c0.954-0.445,1.771,0.604,2.688,0.736c1.005,0.145,1.804-1.105,2.814-0.243
			c0.862,0.74,2.59,0.548,3.064-0.519c0.328-0.722-0.741-1.354-1.069-0.625c-0.465,1.035-1.604-0.316-2.146-0.406
			c-0.719-0.125-1.271-0.076-1.908,0.29c-1.053,0.6-1.498-0.555-2.51-0.598c-0.551-0.023-1.053,0.059-1.559,0.296
			C78.437,35.476,79.065,36.542,79.783,36.204L79.783,36.204z"/>
		<path fill="#FFFFFF" d="M82.021,30.958c0.301-0.223,0.838,0.587,1.279,0.572c0.195-0.008,0.443-0.024,0.609-0.151
			c0.162-0.123,0.401-0.483,0.559-0.275c0.662,0.892,1.976,0.485,2.262-0.485c0.227-0.766-0.969-1.095-1.195-0.328
			c-0.031,0.111-0.135-0.004-0.066,0.092c-0.148-0.206-0.273-0.339-0.479-0.494c-0.372-0.285-0.927-0.14-1.297,0.049
			c-0.339,0.176-0.308,0.302-0.646-0.042c-0.166-0.165-0.41-0.243-0.633-0.273c-0.353-0.049-0.728,0.053-1.014,0.263
			C80.763,30.354,81.378,31.433,82.021,30.958L82.021,30.958z"/>
		<path fill="#FFFFFF" d="M52.459,27.054c1.275-0.742,2.51,0.664,3.799,0.787c1.429,0.136,1.988-1.812,3.527-0.529
			c1.195,0.995,3.213,0.409,3.706-0.981c0.272-0.753-0.927-1.077-1.196-0.33c-0.479,1.354-2.201-0.098-2.904-0.387
			c-0.76-0.314-1.688,0.054-2.305,0.486c-1.375,0.962-2.149-0.605-3.353-0.59c-0.68,0.009-1.303,0.127-1.899,0.475
			C51.144,26.386,51.769,27.457,52.459,27.054L52.459,27.054z"/>
		<path fill="#FFFFFF" d="M53.618,20.776c0.877-0.578,1.817,0.57,2.73,0.668c1.021,0.109,1.446-1.472,2.514-0.469
			c0.929,0.873,2.476,0.37,2.863-0.859c0.237-0.755-0.817-1.079-1.056-0.331c-0.308,0.981-1.557-0.187-2.01-0.395
			c-0.572-0.269-1.287,0.042-1.755,0.412c-0.911,0.725-1.553-0.513-2.401-0.502c-0.516,0.006-0.988,0.108-1.438,0.407
			C52.458,20.105,53.006,21.18,53.618,20.776L53.618,20.776z"/>
		<path fill="#FFFFFF" d="M54.729,16.866c0.413-0.302,1.057,0.406,1.531,0.462c0.539,0.065,0.873-0.882,1.365-0.367
			c0.654,0.678,1.713,0.305,1.986-0.659c0.215-0.754-0.742-1.076-0.955-0.328c-0.096,0.321-0.838-0.334-0.98-0.41
			c-0.375-0.194-0.863,0.022-1.174,0.292c-0.418,0.366-0.885-0.365-1.338-0.357c-0.334,0.005-0.644,0.082-0.936,0.295
			C53.677,16.195,54.173,17.266,54.729,16.866L54.729,16.866z"/>
		<path fill="#FFFFFF" d="M105.375,64.668h-5.808l-0.071-1.233h4.539c-0.115-0.653-0.367-1.528-0.845-1.896
			c-0.213-0.164-0.455-0.205-0.771-0.139c-1.146,0.25-2.06,0.148-2.715-0.303c-0.695-0.479-0.817-1.166-0.83-1.242l1.221-0.186
			l-0.61,0.093l0.606-0.106c0.002,0.01,0.058,0.262,0.332,0.439c0.363,0.234,0.963,0.27,1.734,0.1
			c0.661-0.145,1.28-0.018,1.782,0.366c1.25,0.958,1.392,3.206,1.401,3.46L105.375,64.668z"/>
	</g>
</g>
</svg>
