<?xml version="1.0" encoding="utf-8"?>
<!-- Generator: Adobe Illustrator 15.1.0, SVG Export Plug-In . SVG Version: 6.00 Build 0)  -->
<!DOCTYPE svg PUBLIC "-//W3C//DTD SVG 1.1//EN" "http://www.w3.org/Graphics/SVG/1.1/DTD/svg11.dtd">
<svg version="1.1" id="Layer_1" xmlns="http://www.w3.org/2000/svg" xmlns:xlink="http://www.w3.org/1999/xlink" x="0px" y="0px"
	 width="104.167px" height="65.333px" viewBox="2.333 3.5 104.167 65.333" enable-background="new 2.333 3.5 104.167 65.333"
	 xml:space="preserve">
<g>
	<g>
		<g>
			<path fill="#FFFFFF" d="M52.69,66.823c2.813,0,5.017-1.154,6.043-3.166l0.285-0.557l-0.562-0.277
				c-2.369-1.166-4.358-4.545-4.094-6.951c0.17-1.545,1.18-2.555,3.006-2.998c0.662-0.158,1.336-0.24,2.004-0.24
				c4.112,0,7.896,3.068,11.553,6.035c3.66,2.969,7.447,6.037,11.675,6.143l0.276,0.002c2.629,0,4.652-0.885,5.701-2.49
				c0.963-1.475,0.984-3.441,0.064-5.541l-0.17-0.391l-0.426,0.021c-2.617,0.135-4.49-0.744-5.476-2.518
				c-1.198-2.156-0.946-5.496,0.582-8.315c0.183,0.129,0.363,0.259,0.545,0.388c1.978,1.41,4.021,2.868,7.119,3.306l2.365,0.332
				l-1.91-1.436c-3.699-2.782-5.071-7.312-6.397-11.692c-2.027-6.689-4.123-13.608-14.488-14.01
				c-2.295-0.09-5.906,0.127-7.414,2.014l-0.891,1.115l1.42-0.115c3.758-0.305,7.039,1.688,8.584,5.057
				c1.354,2.959,0.985,6.202-0.963,8.465c-0.07,0.096-3.42,4.793-7.517,5.655c-1.11,0.234-2.185,0.354-3.189,0.354
				c-8.481,0-10.296-8.58-10.313-8.668c-0.357-2.096-0.051-3.748,0.912-4.891c0.924-1.094,2.459-1.695,4.323-1.695
				c2.688,0,5.312,1.254,5.849,2.795c0.381,1.099-0.461,2.104-1.276,2.775c-0.166,0.041-0.31,0.063-0.427,0.063
				c-0.282,0-0.36-0.066-0.569-0.767c-0.104-0.352-0.226-0.748-0.484-1.072l-0.34-0.422l-0.461,0.283
				c-1.832,1.123-1.799,2.377-1.617,3.024c0.459,1.627,2.885,2.95,5.406,2.95c0.533,0,1.053-0.059,1.543-0.176
				c2.153-0.518,3.668-2.219,4.147-4.668c0.57-2.901-0.489-5.979-2.582-7.483c-1.418-1.028-2.973-1.483-4.344-1.888
				c-1.423-0.418-2.649-0.778-3.556-1.644c-0.979-0.95-1.539-2.213-2.128-3.55c-0.908-2.055-1.848-4.182-4.422-5.115
				c-3.438-0.887-7.564,0.421-11.557,1.709c-2.967,0.957-6.033,1.946-8.676,1.946c-0.738,0-1.428-0.079-2.053-0.232
				c-1.393-0.347-2.719-1.671-2.893-2.892c-0.117-0.814,0.268-1.506,1.143-2.059c2.396-0.075,3.621,0.838,4.916,1.811
				c1.166,0.878,2.373,1.786,4.363,1.82l0.131,0.001c1.76,0,3.111-0.466,4.02-1.386c0.787-0.797,1.203-1.917,1.203-3.241
				c0-2.983-2.244-6.833-4.629-6.833c-1.154,0-2.637,0.862-3.139,4.965c-0.316-0.284-0.645-0.597-0.977-0.915
				c-1.529-1.464-3.266-3.124-5.482-3.533c-0.492-0.092-1.01-0.14-1.535-0.14c-3.02,0-6.121,1.525-7.545,3.708
				c-2.279,3.469-2.291,7.866-0.029,12.063c2.691,4.992,7.865,8.397,13.002,8.608c-0.629,0.88-1.936,1.164-3.824,1.476
				c-0.941,0.156-1.916,0.317-2.762,0.64l-0.729,0.276l0.438,0.646c1.344,1.98,3.191,2.757,4.979,3.506
				c0.98,0.41,1.906,0.799,2.715,1.373c4.059,2.893,6.236,8.347,8.34,13.622c2.033,5.098,4.137,10.363,7.971,13.4
				C48.752,66.217,50.704,66.823,52.69,66.823z M57.328,63.604c-1.266,1.781-3.623,1.986-4.639,1.986
				c-1.693,0-3.4-0.518-4.455-1.354c-3.576-2.83-5.525-7.717-7.59-12.891c-2.17-5.44-4.416-11.067-8.771-14.17
				c-0.92-0.653-1.953-1.086-2.951-1.506c-1.449-0.605-2.828-1.185-3.908-2.386c0.529-0.131,1.107-0.228,1.707-0.325
				c2.146-0.354,4.578-0.757,5.158-3.162l0.191-0.791l-0.813,0.029c-5,0.198-10.189-3.063-12.83-7.963
				c-2.039-3.786-2.049-7.723-0.025-10.802c1.398-2.145,4.994-3.562,7.824-3.033c1.857,0.343,3.451,1.867,4.855,3.213
				c1.396,1.334,2.6,2.487,3.951,2.487c0.902,0,1.697-0.512,2.43-1.564l0.332-0.475l-0.453-0.36
				c-0.514-0.41-1.285-0.285-1.945-0.072c-0.281,0.091-0.572,0.185-0.801,0.185c-0.127,0-0.273-0.021-0.436-0.228
				c0.311-2.311,1.012-3.682,1.889-3.682c1.371,0,3.396,2.95,3.396,5.6c0,1.006-0.285,1.805-0.848,2.375
				c-0.668,0.676-1.725,1.018-3.143,1.018c-1.699-0.027-2.652-0.744-3.756-1.573c-1.365-1.027-2.908-2.197-5.869-2.05l-0.152,0.008
				l-0.127,0.079c-1.887,1.104-1.979,2.588-1.867,3.375c0.248,1.723,1.924,3.442,3.818,3.914c0.721,0.177,1.51,0.268,2.348,0.268
				c2.836,0,5.998-1.02,9.055-2.006c2.973-0.959,6.047-1.951,8.701-1.951c0.762,0,1.473,0.083,2.115,0.246
				c2.021,0.735,2.816,2.533,3.656,4.436c0.611,1.387,1.244,2.82,2.402,3.941c1.125,1.074,2.551,1.494,4.061,1.938
				c1.338,0.393,2.724,0.8,3.972,1.704c1.688,1.215,2.567,3.841,2.096,6.245c-0.387,1.957-1.563,3.31-3.229,3.707
				c-0.396,0.096-0.818,0.144-1.256,0.144c-2.146,0-3.944-1.082-4.219-2.051c-0.133-0.47,0.133-0.89,0.506-1.224
				c0.01,0.031,0.021,0.063,0.029,0.097c0.182,0.614,0.49,1.646,1.75,1.646c0.264,0,0.553-0.047,0.883-0.144l0.211-0.108
				c2.211-1.755,2.06-3.4,1.772-4.225c-0.719-2.064-3.733-3.623-7.01-3.623c-2.234,0-4.104,0.758-5.264,2.134
				c-1.209,1.433-1.607,3.421-1.186,5.91c0.023,0.114,2.047,9.676,11.526,9.676c1.088,0,2.247-0.127,3.442-0.379
				c4.574-0.964,8.086-5.896,8.232-6.105c2.229-2.586,2.67-6.336,1.111-9.736c-1.476-3.221-4.394-5.344-7.781-5.74
				c1.035-0.388,2.459-0.599,4.151-0.599c0.269,0,0.522,0.005,0.763,0.015c9.487,0.367,11.367,6.569,13.356,13.135
				c1.147,3.791,2.33,7.688,4.994,10.632c-1.617-0.605-2.92-1.537-4.274-2.503c-0.367-0.264-0.734-0.525-1.107-0.781l-0.533-0.363
				l-0.34,0.547c-2.072,3.341-2.449,7.413-0.938,10.129c0.801,1.443,2.5,3.164,6.041,3.164c0.014-0.02,0.088,0,0.135-0.002
				c0.598,1.572,0.559,2.943-0.125,3.99c-0.813,1.246-2.472,1.932-4.67,1.932l-0.248-0.002c-3.808-0.094-7.267-2.898-10.929-5.867
				c-3.825-3.102-7.778-6.309-12.328-6.309c-0.767,0-1.537,0.092-2.293,0.273c-2.317,0.563-3.718,2.004-3.942,4.063
				C52.834,58.485,54.749,61.993,57.328,63.604z M36.396,25.34l0.676-0.428c1.545-0.982,3.145-1.998,5.186-2.506l0.529-0.132
				l-0.064-0.54c-0.203-1.685-1.348-2.772-2.922-2.772c-1.189,0-2.387,0.627-3.125,1.637c-0.801,1.096-0.986,2.509-0.521,3.979
				L36.396,25.34z M41.387,21.366c-1.631,0.493-3.004,1.271-4.234,2.036c-0.107-0.959,0.199-1.643,0.516-2.076
				c0.504-0.687,1.34-1.132,2.131-1.132C40.586,20.194,41.146,20.615,41.387,21.366z"/>
		</g>
		<path fill="#FFFFFF" d="M35.547,65.967c1.221,0,2.445-0.361,3.539-1.043c1.4-0.873,2.287-2.197,2.633-3.932
			c0.816-4.084-1.613-9.447-3.336-11.871l-0.656-0.92l-0.924,2.328c-1.729,4.389-3.092,7.854-6.488,10.494l-0.326,0.252l0.109,0.396
			C30.829,64.323,32.917,65.967,35.547,65.967z M38.015,50.819c1.555,2.623,3.111,6.85,2.496,9.934
			c-0.277,1.387-0.977,2.439-2.076,3.127c-0.896,0.561-1.896,0.855-2.887,0.855c-1.955,0-3.477-1.115-4.141-3.006
			c3.42-2.814,4.871-6.5,6.543-10.746L38.015,50.819z"/>
		<path fill="#FFFFFF" d="M65.808,66.723c1.978,0,3.819-0.721,4.93-1.93c0.869-0.945,1.269-2.164,1.154-3.527
			c-0.257-2.904-2.388-4.15-4.646-5.467c-0.631-0.369-1.289-0.754-1.938-1.191l-0.529-0.357l-0.338,0.541
			c-0.565,0.91-0.545,1.842-0.521,2.828c0.021,0.844,0.043,1.715-0.271,2.758c-0.111,0.365-0.512,1.238-1.778,3.313
			c-0.125,0.203-0.176,0.289-0.176,0.463C61.853,65.715,63.502,66.723,65.808,66.723z M65.239,56.034
			c0.469,0.293,0.934,0.564,1.389,0.83c2.144,1.252,3.836,2.24,4.037,4.51c0.084,1.021-0.195,1.891-0.834,2.586
			c-0.869,0.943-2.41,1.531-4.022,1.531c-1.271,0-2.599-0.418-2.849-1.223c1.062-1.742,1.672-2.898,1.865-3.531
			c0.373-1.234,0.348-2.25,0.326-3.146C65.137,56.995,65.124,56.487,65.239,56.034z"/>
	</g>
</g>
</svg>
