<?xml version="1.0" encoding="utf-8"?>
<!-- Generator: Adobe Illustrator 15.1.0, SVG Export Plug-In . SVG Version: 6.00 Build 0)  -->
<!DOCTYPE svg PUBLIC "-//W3C//DTD SVG 1.1//EN" "http://www.w3.org/Graphics/SVG/1.1/DTD/svg11.dtd">
<svg version="1.1" id="Layer_1" xmlns="http://www.w3.org/2000/svg" xmlns:xlink="http://www.w3.org/1999/xlink" x="0px" y="0px"
	 width="104.167px" height="65.333px" viewBox="0 0 104.167 65.333" enable-background="new 0 0 104.167 65.333"
	 xml:space="preserve">
<g>
	<polygon fill="#FFFFFF" points="14.173,52.56 14.125,51.323 90.125,51.083 90.094,52.311 	"/>
	<polygon fill="#FFFFFF" points="21.368,57.243 21.357,55.816 82.883,55.7 82.89,57.128 	"/>
	<polygon fill="#FFFFFF" points="35.082,62.569 35.074,61.303 69.166,61.247 69.175,62.513 	"/>
	<g>
		<path fill="#FFFFFF" d="M50.426,12.572c-2.329,0-4.682-0.366-6.994-1.084l-2.754-0.856l9.66-9.512l9.902,8.935l-2.36,1.12
			C57.574,11.319,54.782,12.572,50.426,12.572z M43.545,9.936l0.338,0.105c2.166,0.675,4.367,1.016,6.543,1.016
			c4.097,0,6.699-1.201,6.807-1.252l0.308-0.146l-7.157-6.459L43.545,9.936z"/>
		<path fill="#FFFFFF" d="M40.701,52.458l-8.034-11.951l18.183-6.444l18.116,5.552L63.462,52.36L40.701,52.458z M35.197,41.252
			l6.796,10.475l20.549-0.392l4.588-10.776l-16.016-4.961L35.197,41.252z"/>
		<polygon fill="#FFFFFF" points="15.063,52.063 14.121,51.317 43.753,18.941 44.546,19.895 		"/>
		<polygon fill="#FFFFFF" points="89.048,52.012 57.031,18.857 57.945,17.786 90.128,51.083 		"/>
		<polygon fill="#FFFFFF" points="64.701,39.286 63.673,38.603 72.201,27.55 73.232,28.309 		"/>
		<polygon fill="#FFFFFF" points="37.131,39.417 28.602,28.706 29.556,27.892 38.159,38.59 		"/>
		<polygon fill="#FFFFFF" points="40.671,38.824 45.321,25.051 42.615,15.542 48.01,10.968 49.716,11.573 44.844,15.881 
			46.974,25.093 43.228,37.101 50.515,34.047 58.452,36.698 54.852,24.766 56.853,15.926 51.659,12.088 53.722,11.579 
			58.916,15.394 56.441,24.807 61.045,38.68 50.688,35.045 		"/>
	</g>
</g>
</svg>
