<?xml version="1.0" encoding="utf-8"?>
<!-- Generator: Adobe Illustrator 21.0.0, SVG Export Plug-In . SVG Version: 6.00 Build 0)  -->
<svg version="1.1" id="Layer_1" xmlns="http://www.w3.org/2000/svg" xmlns:xlink="http://www.w3.org/1999/xlink" x="0px" y="0px"
	 viewBox="0 0 4946.5 929.8" style="enable-background:new 0 0 4946.5 929.8;" xml:space="preserve">
<style type="text/css">
	.st0{fill:#F19825;}
	.st1{fill:#D7E1E2;}
	.st2{fill:#EDF7F9;}
</style>
<g id="XMLID_24_">
	<g>
		<path class="st0" d="M1925.7,684.3c18.2,14.2,12.2,34.9,4.2,46c0.2,0.1,0.5,0.2,0.8,0.4c-84.1,113.7-219.1,187.5-371.3,187.5
			c-148.9,0-281.1-70.6-365.4-179.9c-1.8-5.7-7.2-27.7,11.6-39.8c21.6-13.9,42.6,10.5,42.6,10.5h0.4
			c74.1,84.7,184,138.4,306.7,138.4c134.6,0,253.9-64.6,327.3-163.8C1889.2,680.5,1910.6,672.4,1925.7,684.3z"/>
	</g>
</g>
<g>
	<path class="st0" d="M4744.6,102.1H4716V85.2h77.8V102h-28.6v72.5h-20.7v-72.4H4744.6z"/>
	<path class="st0" d="M4886.3,174.5l-0.1-53.6l-26.3,44.1h-9.3l-26.2-43v52.4H4805V85.2h17.1l33.4,55.5l32.9-55.5h17l0.3,89.3
		H4886.3z"/>
</g>
<g>
	<path class="st1" d="M2315.6,725.7h56c41.6,0,69.9,25.6,69.9,64.1c0,38.4-28.4,64.1-69.9,64.1h-56V725.7z M2370.5,833.7
		c28.6,0,47-17.4,47-43.9s-18.5-43.9-47-43.9h-31.1v87.9L2370.5,833.7L2370.5,833.7z"/>
	<path class="st1" d="M2559.2,756.1v97.7h-21.8v-12.4c-7.3,9-18.9,13.7-31.5,13.7c-25.1,0-42.1-13.7-42.1-43.2v-55.8h22.9v52.7
		c0,17.8,8.4,26.2,22.9,26.2c15.9,0,26.7-9.9,26.7-29.5v-49.4H2559.2z"/>
	<path class="st1" d="M2639.7,718h22.9v135.8h-22.9V718z"/>
	<path class="st1" d="M2689.5,726.2c0-7.7,6.2-13.7,14.6-13.7c8.4,0,14.6,5.7,14.6,13.2c0,8-6,14.3-14.6,14.3
		C2695.7,740,2689.5,733.9,2689.5,726.2z M2692.6,756.1h22.9v97.7h-22.9V756.1z M2693.1,880.2c0-6.4,4.8-11.2,11-11.2
		s11,4.8,11,11.2c0,6.6-4.8,10.8-11,10.8S2693.1,886.8,2693.1,880.2z"/>
	<path class="st1" d="M2737.4,804.9c0-29.3,22-50,52.9-50c19,0,34.2,7.9,41.7,22.7l-17.6,10.3c-5.9-9.3-14.6-13.5-24.3-13.5
		c-16.8,0-29.6,11.7-29.6,30.6c0,19,12.8,30.6,29.6,30.6c9.7,0,18.5-4.2,24.3-13.5l17.6,10.3c-7.5,14.6-22.7,22.9-41.7,22.9
		C2759.4,855.1,2737.4,834.2,2737.4,804.9z"/>
	<path class="st1" d="M2947.1,797.8v56h-22.9v-53.1c0-17.4-8.6-25.8-23.2-25.8c-16.3,0-27.3,9.9-27.3,29.5v49.4h-22.9V718h22.9v49.4
		c7.5-8,19-12.4,32.6-12.4C2929.8,755,2947.1,768.3,2947.1,797.8z"/>
	<path class="st1" d="M3118.2,756.1l-41.9,97.7h-23.6l-41.9-97.7h23.8l30.4,72.5l31.3-72.5H3118.2z"/>
	<path class="st1" d="M3225.8,804.9c0,29.3-22,50.2-52.2,50.2c-30,0-52-20.9-52-50.2s22-50,52.3-50c9.5,0,14.3,1.3,21.8,1.3
		c8.8,0,12.8-5.3,12.8-12.1c0-4.4-1.6-8.2-3.8-11.3l13.9-5.1c3.3,4.6,5.7,10.6,5.7,17.2c0,10.8-5.3,18.9-14.6,22.9
		C3219.8,776.8,3225.8,789.6,3225.8,804.9z M3202.8,804.9c0-18.7-12.4-30.6-29.1-30.6c-16.5,0-28.9,11.9-28.9,30.6
		c0,18.7,12.4,30.6,28.9,30.6C3190.3,835.5,3202.8,823.6,3202.8,804.9z M3178.1,742.7h-19.8l24.7-25.1h26.9L3178.1,742.7z"/>
	<path class="st1" d="M3244.7,726.2c0-7.7,6.2-13.7,14.6-13.7c8.4,0,14.6,5.7,14.6,13.2c0,8-6,14.3-14.6,14.3
		C3250.9,740,3244.7,733.9,3244.7,726.2z M3247.8,756.1h22.9v97.7h-22.9V756.1z"/>
	<path class="st1" d="M3447.5,797.8v56h-22.9v-53.1c0-17.4-8.6-25.8-23.2-25.8c-16.3,0-27.3,9.9-27.3,29.5v49.4h-22.9v-97.7h21.8
		v12.6c7.5-9,19.4-13.7,33.7-13.7C3430.1,755,3447.5,768.3,3447.5,797.8z"/>
	<path class="st1" d="M3572.8,797.8v56h-22.9v-53.1c0-17.4-8.6-25.8-23.2-25.8c-16.3,0-27.3,9.9-27.3,29.5v49.4h-22.9V718h22.9v49.4
		c7.5-8,19-12.4,32.6-12.4C3555.4,755,3572.8,768.3,3572.8,797.8z"/>
	<path class="st1" d="M3696.5,770.5v83.3h-21.8v-12.4c-7.3,9-18.9,13.7-31.5,13.7c-25.1,0-42.1-13.7-42.1-43.2v-55.8h22.9v52.7
		c0,17.8,8.4,26.2,22.9,26.2c15.9,0,26.7-9.9,26.7-29.5v-49.4h11.9c7.3,0,11.3-4.9,11.3-11.7c0-4.4-1.5-8.4-3.7-11.3l14.1-5.1
		c3.5,4.4,5.5,10.4,5.5,17.2C3712.8,757.9,3707,767,3696.5,770.5z M3628.1,741.6h-12.3c0.4-15,8.1-24.5,19.8-24.5
		c12.1,0,18.3,12.1,24.9,12.1c5.1,0,8.6-3.8,9-10.4h12.3c-0.4,14.3-8.1,24-19.8,24c-12.1,0-18.3-12.1-24.9-12.1
		C3631.9,730.6,3628.4,734.7,3628.1,741.6z"/>
	<path class="st1" d="M3823,797.8v56h-22.9v-53.1c0-17.4-8.6-25.8-23.2-25.8c-16.3,0-27.3,9.9-27.3,29.5v49.4h-22.9v-97.7h21.8v12.6
		c7.5-9,19.4-13.7,33.7-13.7C3805.6,755,3823,768.3,3823,797.8z"/>
	<path class="st1" d="M3950,756.1V839c0,35.5-18.5,51.6-52.7,51.6c-18.3,0-36.4-4.8-47.6-13.9l10.3-17.2
		c8.6,7.1,22.5,11.7,36.1,11.7c21.6,0,31.1-9.9,31.1-29.7v-5.1c-8.1,8.8-19.6,13-32.8,13c-28,0-49.4-19-49.4-47.4s21.4-47,49.4-47
		c13.7,0,25.8,4.4,33.9,14.1v-13L3950,756.1L3950,756.1z M3927.5,802c0-16.5-12.4-27.6-29.6-27.6c-17.4,0-29.8,11.2-29.8,27.6
		c0,16.7,12.4,28,29.8,28C3915,830,3927.5,818.7,3927.5,802z"/>
	<path class="st1" d="M4126.8,797.8v56h-22.9v-53.1c0-17.4-8.6-25.8-23.2-25.8c-16.3,0-27.3,9.9-27.3,29.5v49.4h-22.9v-97.7h21.8
		v12.6c7.5-9,19.4-13.7,33.7-13.7C4109.4,755,4126.8,768.3,4126.8,797.8z"/>
	<path class="st1" d="M4250.5,756.1v97.7h-21.8v-12.4c-7.3,9-18.9,13.7-31.5,13.7c-25.1,0-42.1-13.7-42.1-43.2v-55.8h22.9v52.7
		c0,17.8,8.4,26.2,22.9,26.2c15.9,0,26.7-9.9,26.7-29.5v-49.4H4250.5z M4213.7,880.2c0,6.6-4.8,10.8-11,10.8s-11-4.2-11-10.8
		c0-6.4,4.8-11.2,11-11.2S4213.7,873.8,4213.7,880.2z"/>
	<path class="st1" d="M4322.9,804.9c0-29.3,22-50,52.9-50c19,0,34.2,7.9,41.7,22.7l-17.6,10.3c-5.9-9.3-14.6-13.5-24.3-13.5
		c-16.8,0-29.6,11.7-29.6,30.6c0,19,12.8,30.6,29.6,30.6c9.7,0,18.5-4.2,24.3-13.5l17.6,10.3c-7.5,14.6-22.7,22.9-41.7,22.9
		C4344.9,855.1,4322.9,834.2,4322.9,804.9z"/>
	<path class="st1" d="M4531.9,770.5v83.3h-21.8v-12.4c-7.3,9-18.9,13.7-31.5,13.7c-25.1,0-42.1-13.7-42.1-43.2v-55.8h22.9v52.7
		c0,17.8,8.4,26.2,22.9,26.2c15.9,0,26.7-9.9,26.7-29.5v-49.4h11.9c7.3,0,11.3-4.9,11.3-11.7c0-4.4-1.5-8.4-3.7-11.3l14.1-5.1
		c3.5,4.4,5.5,10.4,5.5,17.2C4548.2,757.9,4542.3,767,4531.9,770.5z"/>
	<path class="st1" d="M4656.4,804.9c0,29.3-22,50.2-52.2,50.2c-30,0-52-20.9-52-50.2s22-50,52.3-50c9.5,0,14.3,1.3,21.8,1.3
		c8.8,0,12.8-5.3,12.8-12.1c0-4.4-1.6-8.2-3.8-11.3l13.9-5.1c3.3,4.6,5.7,10.6,5.7,17.2c0,10.8-5.3,18.9-14.6,22.9
		C4650.3,776.8,4656.4,789.6,4656.4,804.9z M4599.8,742.7l-31.8-25.1h26.9l24.7,25.1H4599.8z M4633.3,804.9
		c0-18.7-12.4-30.6-29.1-30.6c-16.5,0-28.9,11.9-28.9,30.6c0,18.7,12.4,30.6,28.9,30.6C4620.9,835.5,4633.3,823.6,4633.3,804.9z"/>
	<path class="st1" d="M4675.2,726.2c0-7.7,6.2-13.7,14.6-13.7s14.6,5.7,14.6,13.2c0,8-6,14.3-14.6,14.3
		C4681.4,740,4675.2,733.9,4675.2,726.2z M4678.3,756.1h22.9v97.7h-22.9V756.1z"/>
</g>
<g>
	<path class="st2" d="M4626.1,73H4562v488.8h109v-444C4671,93,4650.9,73,4626.1,73z"/>
	<path class="st2" d="M4489.5,375.4c0-120.8-85.2-194.8-195.5-194.8c-114.5,0-200.4,81-200.4,193.4c0,111.7,84.5,193.4,214.4,193.4
		c67.7,0,152.8-31.1,181.5-122.2L4423,444c-11-0.1-21.6,3.5-30.3,10.1c-22.6,17.5-48.4,26-82,26c-57.2,0-97-28.6-107.5-75.4h284.2
		C4488.1,395.6,4489.5,383.8,4489.5,375.4z M4201.7,341.1L4201.7,341.1c7.7-48.2,43.3-78.2,92.8-78.2c48.9,0,84.5,30.7,92.2,78.2
		H4201.7z"/>
	<path class="st2" d="M3971.8,211.4L3875,441.6l-93.6-229.7c-6.3-15.6-21.5-25.8-38.4-25.8h-84.5l157.8,375.7h112.4l158.5-375.7V186
		H4010C3993.3,186,3978.3,196,3971.8,211.4z"/>
	<path class="st2" d="M3442.1,180.6c-60.1,0-120.8,16.1-162,45.4l17.7,34.4c10.6,20.7,35.3,30.1,56.8,21.3
		c22.3-9.3,47.9-14.5,72.9-14.5c58.7,0,86.6,27.2,86.6,74h-86.6c-114.5,0-161.3,46.1-161.3,112.4c0,64.9,52.3,113.8,140.3,113.8
		c55.1,0,94.3-18.2,114.5-52.4v12c0,19.2,15.6,34.8,34.8,34.8h67.1V347.4C3622.9,233.6,3556.5,180.5,3442.1,180.6z M3513.9,443
		c-12.5,34.3-43.9,51-80.3,51c-38.4,0-61.4-18.2-61.4-45.4c0-25.1,16-44,67-44h74.7V443z"/>
	<path class="st2" d="M3188.3,183.5c-39.2,0.4-62.6,8.3-89.7,39.3v-36.7h-104v375.6h108.9V384.3c0-71.9,39.8-104.7,99.8-104.7
		c8.3,0,15.3,0.7,24.4,1.4v-62.6C3227.7,197.3,3209.9,183.2,3188.3,183.5z"/>
	<path class="st2" d="M2523.9,114.7L2523.9,114.7c0,27.8,22.6,50.4,50.3,50.4h106.1v396.7h113.1V165.2h106.1
		c27.8,0,50.3-22.5,50.3-50.2V73h-425.9V114.7z"/>
	<path class="st2" d="M2284.1,221l-90.8,217.9l-92.1-222.5c-9.1-21.9-30.4-36.1-54.1-36.1h-74.9l165.1,384l-1.4,3.5
		c-14.9,34.1-31.9,47.5-62.4,47.5c-6.6,0-13.4-0.8-20-2.3c-28.5-6.8-57.8,8.3-71.2,34.4l-11.5,22.5c24.8,22,67.3,34.8,106.3,34.8
		c68.7,0,121.1-27.7,158-119.9l172.2-404.5h-62.2C2318.4,180.3,2294.3,196.3,2284.1,221z"/>
	<path class="st2" d="M1854.5,208.9c-30.6-17.8-66.4-28.3-104.7-28.3c-41.9,0-80.7,12.3-113.2,33.2v-0.1v-21.9h-107.4v186.9
		l-0.1,325.9h40.5c30.1-3.3,62.7-9,72.2-67.1V547l0,0c31.3,19.1,68.2,30.2,108,30.2c21.3,0,42-3.3,61.3-9.2
		c63.1-19.3,112.9-67.5,133-128.6c5.1-18.3,7.8-37.9,7.8-59.1c0-29.4-5.2-56.2-14.7-79.9C1920.1,262.1,1891,230.2,1854.5,208.9z
		 M1739.1,484.8c-56.3,0-98.8-39.3-98.8-104.5s42.5-104.4,98.8-104.4s98.9,39.2,98.9,104.4S1795.4,484.8,1739.1,484.8z"/>
	<path class="st2" d="M1370.8,208.8c-30.6-17.8-66.3-28.3-104.7-28.3c-41.9,0-80.7,12.3-113.1,33.2v0.2h-0.2c0,0,0.1,0,0.1-0.1v-22
		h-107.5v187h-0.1v325.6h40.4c30.1-3.3,62.8-9,72.2-67.1v-90.5c-0.1-0.1-0.2-0.1-0.3-0.2c0.1,0.1,0.3,0.1,0.4,0.2
		c31.4,19.1,68.3,30.3,108.1,30.3c21.4,0,42-3.3,61.4-9.2c62.9-19.3,112.8-67.5,133-128.6c5-18.3,7.8-37.9,7.8-59.1
		c0-29.4-5.3-56.2-14.8-79.9C1436.6,262,1407.3,230.1,1370.8,208.8z M1255.3,484.8c-56.2,0-98.8-39.3-98.8-104.5
		s42.6-104.4,98.8-104.4c56.3,0,98.9,39.2,98.9,104.4S1311.6,484.8,1255.3,484.8z"/>
	<path class="st2" d="M778.2,174.5c-60.9,0-122.5,16.3-164.4,46.1l21.3,41.4c9.5,18.3,31.4,25.3,50.3,16.9
		c23.5-10.6,51.1-16.5,78-16.5c59.6,0,87.9,27.6,87.9,75.1h-87.9c-116.1,0-163.6,46.8-163.6,114.2c0,65.8,53,115.4,142.4,115.4
		c55.9,0,95.6-18.4,116.1-53.1v10c0,20.7,16.8,37.5,37.5,37.5h66V343.9C961.8,228.4,894.6,174.6,778.2,174.5z M769.8,492.7
		c-39,0-62.4-18.4-62.4-46.1c0-25.5,16.3-44.6,68.1-44.6h75.8v38.9h0C838.6,475.7,806.7,492.7,769.8,492.7z"/>
	<path class="st2" d="M468.5,65.4h-63.7c-2.7,0-4.8,2.2-4.8,4.9V261H174.7V103.1c0-20.8-16.9-37.7-37.7-37.7H59.8v496.1h114.9V358.1
		H400v203.4h114.7V111.7C514.7,86.2,494,65.4,468.5,65.4z"/>
</g>
</svg>
