<?xml version="1.0" encoding="utf-8"?>
<!-- Generator: Adobe Illustrator 18.0.0, SVG Export Plug-In . SVG Version: 6.00 Build 0)  -->
<!DOCTYPE svg PUBLIC "-//W3C//DTD SVG 1.0//EN" "http://www.w3.org/TR/2001/REC-SVG-20010904/DTD/svg10.dtd">
<svg version="1.0" id="Layer_1" xmlns="http://www.w3.org/2000/svg" xmlns:xlink="http://www.w3.org/1999/xlink" x="0px" y="0px"
	 viewBox="0 0 266.9 190.9" enable-background="new 0 0 266.9 190.9" xml:space="preserve">
<rect x="0" y="0" fill="#DDF2F8" width="266.9" height="190.9"/>
<g>
	<defs>
		<rect id="SVGID_1_" x="0" y="0" width="266.9" height="190.9"/>
	</defs>
	<clipPath id="SVGID_2_">
		<use xlink:href="#SVGID_1_"  overflow="visible"/>
	</clipPath>
	<g clip-path="url(#SVGID_2_)">
		
			<rect x="50.4" y="-49.7" transform="matrix(-0.866 -0.5 0.5 -0.866 117.5352 -47.4129)" fill="none" stroke="#B1DCE2" stroke-width="0.5002" stroke-miterlimit="3.8636" width="4.1" height="20.4"/>
		
			<rect x="14.9" y="-70.1" transform="matrix(-0.5 0.866 -0.866 -0.5 -26.4039 -104.4503)" fill="none" stroke="#B1DCE2" stroke-width="0.5002" stroke-miterlimit="3.8636" width="4.1" height="20.4"/>
		<polygon fill="none" stroke="#B1DCE2" stroke-width="0.5002" stroke-miterlimit="3.8636" points="-8.5,-77 -2.4,-87.6 4.7,-83.5 
			6.7,-87 -0.4,-91.1 3.7,-98.2 0.2,-100.2 -26.4,-54.2 -22.8,-52.2 -18.7,-59.3 -11.7,-55.2 -9.6,-58.7 -16.7,-62.8 -10.6,-73.4 
			3.6,-65.3 5.6,-68.8 		"/>
		<polygon fill="none" stroke="#B1DCE2" stroke-width="0.5002" stroke-miterlimit="3.8636" points="-28.3,-83.6 -34.4,-73 
			-41.5,-77.1 -43.5,-73.6 -36.4,-69.5 -40.5,-62.4 -37,-60.4 -10.4,-106.3 -14,-108.4 -18.1,-101.3 -25.1,-105.4 -27.2,-101.9 
			-20.1,-97.8 -26.2,-87.2 -40.4,-95.3 -42.4,-91.8 		"/>
		<polygon fill="none" stroke="#B1DCE2" stroke-width="0.5002" stroke-miterlimit="3.8636" points="42.5,-42.8 36.3,-32.2 
			29.3,-36.3 27.2,-32.7 34.3,-28.6 30.2,-21.6 33.8,-19.5 60.3,-65.5 56.8,-67.5 52.7,-60.5 45.6,-64.6 43.6,-61 50.6,-56.9 
			44.5,-46.3 30.4,-54.5 28.3,-51 		"/>
		<polygon fill="none" stroke="#B1DCE2" stroke-width="0.5002" stroke-miterlimit="3.8636" points="47.2,-91.9 53.3,-102.5 
			60.4,-98.4 62.4,-102 55.4,-106.1 59.5,-113.1 55.9,-115.2 29.4,-69.2 32.9,-67.2 37,-74.2 44.1,-70.2 46.1,-73.7 39,-77.8 
			45.2,-88.4 59.3,-80.2 61.3,-83.8 		"/>
		<polygon fill="none" stroke="#B1DCE2" stroke-width="0.5002" stroke-miterlimit="3.8636" points="-13.3,-27.8 -19.4,-17.2 
			-26.5,-21.3 -28.6,-17.8 -21.5,-13.7 -25.6,-6.6 -22,-4.6 4.5,-50.6 1,-52.6 -3.1,-45.5 -10.2,-49.6 -12.2,-46.1 -5.1,-42 
			-11.3,-31.4 -25.4,-39.6 -27.5,-36 		"/>
		<polygon fill="none" stroke="#B1DCE2" stroke-width="0.5002" stroke-miterlimit="3.8636" points="-34.5,49.5 -28.3,38.9 -21.3,43 
			-19.2,39.5 -26.3,35.4 -22.2,28.3 -25.7,26.3 -52.3,72.2 -48.7,74.3 -44.7,67.2 -37.6,71.3 -35.6,67.7 -42.6,63.7 -36.5,53.1 
			-22.4,61.2 -20.3,57.7 		"/>
		<polygon fill="none" stroke="#B1DCE2" stroke-width="0.5002" stroke-miterlimit="3.8636" points="13.6,-50 24.2,-43.9 20.2,-36.8 
			23.7,-34.8 27.8,-41.8 34.8,-37.8 36.9,-41.3 -9.1,-67.8 -11.1,-64.3 -4.1,-60.2 -8.1,-53.1 -4.6,-51.1 -0.5,-58.2 10.1,-52.1 
			1.9,-37.9 5.5,-35.9 		"/>
		<polygon fill="none" stroke="#B1DCE2" stroke-width="0.5002" stroke-miterlimit="3.8636" points="20.3,-69.7 9.7,-75.9 
			13.8,-82.9 10.2,-85 6.2,-77.9 -0.9,-82 -3,-78.4 43,-51.9 45.1,-55.4 38,-59.5 42.1,-66.6 38.5,-68.6 34.4,-61.6 23.8,-67.7 
			32,-81.8 28.5,-83.9 		"/>
		
			<rect x="-5.5" y="-34.7" transform="matrix(-0.866 -0.5 0.5 -0.866 5.8152 -47.4683)" fill="none" stroke="#B1DCE2" stroke-width="0.5002" stroke-miterlimit="3.8636" width="4.1" height="20.4"/>
		<polygon fill="none" stroke="#B1DCE2" stroke-width="0.5002" stroke-miterlimit="3.8636" points="6.4,-21.2 12.5,-31.8 
			19.6,-27.7 21.6,-31.3 14.5,-35.3 18.6,-42.4 15.1,-44.5 -11.5,1.5 -7.9,3.6 -3.8,-3.5 3.2,0.6 5.3,-3 -1.8,-7.1 4.3,-17.7 
			18.5,-9.5 20.5,-13 		"/>
		
			<rect x="-40.9" y="-55.1" transform="matrix(-0.5 0.866 -0.866 -0.5 -97.1244 -33.7283)" fill="none" stroke="#B1DCE2" stroke-width="0.5002" stroke-miterlimit="3.8636" width="4.1" height="20.4"/>
		
			<rect x="-25.9" y="0.7" transform="matrix(-0.5 0.866 -0.866 -0.5 -26.4025 36.9923)" fill="none" stroke="#B1DCE2" stroke-width="0.5002" stroke-miterlimit="3.8636" width="4.1" height="20.4"/>
		<polygon fill="none" stroke="#B1DCE2" stroke-width="0.5002" stroke-miterlimit="3.8636" points="-49.4,-6.2 -43.2,-16.8 
			-36.2,-12.8 -34.1,-16.3 -41.2,-20.4 -37.1,-27.4 -40.7,-29.5 -67.2,16.5 -63.7,18.5 -59.6,11.4 -52.5,15.5 -50.5,12 -57.5,7.9 
			-51.4,-2.7 -37.3,5.5 -35.2,1.9 		"/>
		<polygon fill="none" stroke="#B1DCE2" stroke-width="0.5002" stroke-miterlimit="3.8636" points="-27.2,20.7 -16.6,26.8 
			-20.7,33.9 -17.1,35.9 -13.1,28.9 -6,33 -3.9,29.4 -49.9,2.9 -52,6.4 -44.9,10.5 -49,17.6 -45.4,19.6 -41.3,12.5 -30.7,18.7 
			-38.9,32.8 -35.4,34.9 		"/>
		<polygon fill="none" stroke="#B1DCE2" stroke-width="0.5002" stroke-miterlimit="3.8636" points="-20.5,1 -31.1,-5.1 -27.1,-12.2 
			-30.6,-14.3 -34.7,-7.2 -41.7,-11.3 -43.8,-7.7 2.2,18.8 4.2,15.3 -2.9,11.2 1.2,4.1 -2.3,2.1 -6.4,9.2 -17,3 -8.8,-11.1 
			-12.4,-13.2 		"/>
		<polygon fill="none" stroke="#B1DCE2" stroke-width="0.5002" stroke-miterlimit="3.8636" points="-42.1,-35.1 -31.5,-28.9 
			-35.6,-21.9 -32.1,-19.8 -28,-26.9 -20.9,-22.8 -18.9,-26.4 -64.9,-52.9 -66.9,-49.4 -59.8,-45.3 -63.9,-38.2 -60.4,-36.2 
			-56.3,-43.2 -45.7,-37.1 -53.9,-23 -50.3,-20.9 		"/>
		<polygon fill="none" stroke="#B1DCE2" stroke-width="0.5002" stroke-miterlimit="3.8636" points="-35.5,-54.8 -46.1,-60.9 
			-42,-68 -45.5,-70 -49.6,-63 -56.7,-67 -58.7,-63.5 -12.8,-37 -10.7,-40.5 -17.8,-44.6 -13.7,-51.7 -17.2,-53.7 -21.3,-46.6 
			-31.9,-52.7 -23.8,-66.9 -27.3,-68.9 		"/>
		
			<rect x="-36.8" y="183" transform="matrix(-0.5 0.866 -0.866 -0.5 115.1474 319.9435)" fill="none" stroke="#B1DCE2" stroke-width="0.5002" stroke-miterlimit="3.8636" width="4.1" height="20.4"/>
		<polygon fill="none" stroke="#B1DCE2" stroke-width="0.5002" stroke-miterlimit="3.8636" points="39.3,224.2 28.7,218 32.8,211 
			29.2,208.9 25.1,216 18.1,211.9 16,215.4 62,242 64,238.4 57,234.4 61,227.3 57.5,225.2 53.4,232.3 42.8,226.2 51,212.1 47.4,210 
					"/>
		<polygon fill="none" stroke="#B1DCE2" stroke-width="0.5002" stroke-miterlimit="3.8636" points="-31.4,183.3 -42,177.2 
			-38,170.1 -41.5,168.1 -45.6,175.2 -52.7,171.1 -54.7,174.6 -8.7,201.2 -6.7,197.6 -13.8,193.5 -9.7,186.5 -13.2,184.4 
			-17.3,191.5 -27.9,185.4 -19.7,171.2 -23.3,169.2 		"/>
		<polygon fill="none" stroke="#B1DCE2" stroke-width="0.5002" stroke-miterlimit="3.8636" points="-38.1,203 -27.5,209.2 
			-31.6,216.2 -28,218.3 -24,211.2 -16.9,215.3 -14.9,211.8 -60.8,185.2 -62.9,188.8 -55.8,192.8 -59.9,199.9 -56.3,202 
			-52.3,194.9 -41.6,201 -49.8,215.1 -46.3,217.2 		"/>
		
			<rect x="-1.5" y="203.4" transform="matrix(-0.866 -0.5 0.5 -0.866 -105.7156 398.8738)" fill="none" stroke="#B1DCE2" stroke-width="0.5002" stroke-miterlimit="3.8636" width="4.1" height="20.4"/>
		<polygon fill="none" stroke="#B1DCE2" stroke-width="0.5002" stroke-miterlimit="3.8636" points="10.4,216.9 16.6,206.3 
			23.6,210.4 25.7,206.9 18.6,202.8 22.7,195.7 19.2,193.7 -7.4,239.6 -3.8,241.7 0.2,234.6 7.3,238.7 9.4,235.2 2.3,231.1 
			8.4,220.5 22.5,228.6 24.6,225.1 		"/>
		<polygon fill="none" stroke="#B1DCE2" stroke-width="0.5002" stroke-miterlimit="3.8636" points="-9.3,210.3 -15.4,220.9 
			-22.5,216.8 -24.5,220.3 -17.4,224.4 -21.5,231.5 -18,233.5 8.6,187.6 5,185.5 0.9,192.6 -6.1,188.5 -8.2,192 -1.1,196.1 
			-7.2,206.7 -21.4,198.6 -23.4,202.1 		"/>
		
			<rect x="180.8" y="214.4" transform="matrix(-0.866 -0.5 0.5 -0.866 228.9194 510.4787)" fill="none" stroke="#B1DCE2" stroke-width="0.5002" stroke-miterlimit="3.8636" width="4.1" height="20.4"/>
		<polygon fill="none" stroke="#B1DCE2" stroke-width="0.5002" stroke-miterlimit="3.8636" points="221.6,235.1 210.9,229 
			215,221.9 211.5,219.9 207.4,227 200.3,222.9 198.3,226.4 244.3,252.9 246.3,249.4 239.2,245.3 243.3,238.3 239.8,236.2 
			235.7,243.3 225.1,237.2 233.3,223 229.7,221 		"/>
		
			<rect x="272" y="219.8" transform="matrix(-0.5 0.866 -0.866 -0.5 610.2839 107.7424)" fill="none" stroke="#B1DCE2" stroke-width="0.5002" stroke-miterlimit="3.8636" width="4.1" height="20.4"/>
		
			<rect x="201.3" y="179" transform="matrix(-0.5 0.866 -0.866 -0.5 468.8419 107.744)" fill="none" stroke="#B1DCE2" stroke-width="0.5002" stroke-miterlimit="3.8636" width="4.1" height="20.4"/>
		
			<rect x="257.1" y="164.1" transform="matrix(-0.5 0.866 -0.866 -0.5 539.5621 37.0222)" fill="none" stroke="#B1DCE2" stroke-width="0.5002" stroke-miterlimit="3.8636" width="4.1" height="20.4"/>
		<polygon fill="none" stroke="#B1DCE2" stroke-width="0.5002" stroke-miterlimit="3.8636" points="310.5,64.8 304.4,75.4 
			297.3,71.4 295.3,74.9 302.3,79 298.2,86 301.8,88.1 328.3,42.1 324.8,40.1 320.7,47.1 313.6,43.1 311.6,46.6 318.7,50.7 
			312.5,61.3 298.4,53.1 296.3,56.7 		"/>
		<polygon fill="none" stroke="#B1DCE2" stroke-width="0.5002" stroke-miterlimit="3.8636" points="269.7,135.5 263.5,146.2 
			256.5,142.1 254.4,145.6 261.5,149.7 257.4,156.8 260.9,158.8 287.5,112.8 284,110.8 279.9,117.9 272.8,113.8 270.8,117.3 
			277.8,121.4 271.7,132 257.6,123.8 255.5,127.4 		"/>
		<polygon fill="none" stroke="#B1DCE2" stroke-width="0.5002" stroke-miterlimit="3.8636" points="228.8,206.3 222.7,216.9 
			215.6,212.8 213.6,216.3 220.7,220.4 216.6,227.5 220.1,229.5 246.7,183.6 243.1,181.5 239,188.6 232,184.5 229.9,188 237,192.1 
			230.9,202.7 216.7,194.6 214.7,198.1 		"/>
		
			<rect x="242.1" y="108.3" transform="matrix(-0.5 0.866 -0.866 -0.5 468.8404 -33.698)" fill="none" stroke="#B1DCE2" stroke-width="0.5002" stroke-miterlimit="3.8636" width="4.1" height="20.4"/>
		
			<rect x="282.9" y="37.6" transform="matrix(-0.5 0.866 -0.866 -0.5 468.8389 -175.1405)" fill="none" stroke="#B1DCE2" stroke-width="0.5002" stroke-miterlimit="3.8636" width="4.1" height="20.4"/>
		
			<rect x="297.9" y="93.3" transform="matrix(-0.5 0.866 -0.866 -0.5 539.5609 -104.4199)" fill="none" stroke="#B1DCE2" stroke-width="0.5002" stroke-miterlimit="3.8636" width="4.1" height="20.4"/>
		
			<rect x="277.5" y="128.7" transform="matrix(-0.866 -0.5 0.5 -0.866 452.1566 398.9207)" fill="none" stroke="#B1DCE2" stroke-width="0.5002" stroke-miterlimit="3.8636" width="4.1" height="20.4"/>
		
			<rect x="221.7" y="143.6" transform="matrix(-0.866 -0.5 0.5 -0.866 340.604 398.922)" fill="none" stroke="#B1DCE2" stroke-width="0.5002" stroke-miterlimit="3.8636" width="4.1" height="20.4"/>
		
			<rect x="236.6" y="199.4" transform="matrix(-0.866 -0.5 0.5 -0.866 340.6053 510.4745)" fill="none" stroke="#B1DCE2" stroke-width="0.5002" stroke-miterlimit="3.8636" width="4.1" height="20.4"/>
		<polygon fill="none" stroke="#B1DCE2" stroke-width="0.5002" stroke-miterlimit="3.8636" points="192.8,227.9 198.9,217.3 
			206,221.4 208,217.8 200.9,213.7 205,206.7 201.5,204.6 174.9,250.6 178.5,252.6 182.6,245.6 189.6,249.7 191.7,246.1 184.6,242 
			190.7,231.4 204.9,239.6 206.9,236.1 		"/>
		<polygon fill="none" stroke="#B1DCE2" stroke-width="0.5002" stroke-miterlimit="3.8636" points="233.6,157.2 239.7,146.6 
			246.8,150.6 248.8,147.1 241.8,143 245.9,135.9 242.3,133.9 215.8,179.9 219.3,181.9 223.4,174.8 230.5,178.9 232.5,175.4 
			225.4,171.3 231.6,160.7 245.7,168.9 247.8,165.3 		"/>
		<polygon fill="none" stroke="#B1DCE2" stroke-width="0.5002" stroke-miterlimit="3.8636" points="248.6,213 254.7,202.3 
			261.8,206.4 263.8,202.9 256.7,198.8 260.8,191.7 257.3,189.7 230.7,235.7 234.3,237.7 238.4,230.6 245.4,234.7 247.5,231.2 
			240.4,227.1 246.5,216.5 260.7,224.7 262.7,221.1 		"/>
		<polygon fill="none" stroke="#B1DCE2" stroke-width="0.5002" stroke-miterlimit="3.8636" points="277.4,220.2 266.8,214 
			270.9,207 267.3,204.9 263.3,212 256.2,207.9 254.1,211.5 300.1,238 302.2,234.5 295.1,230.4 299.2,223.3 295.6,221.3 
			291.5,228.3 280.9,222.2 289.1,208.1 285.6,206 		"/>
		<polygon fill="none" stroke="#B1DCE2" stroke-width="0.5002" stroke-miterlimit="3.8636" points="299.6,247.1 293.4,257.7 
			286.4,253.6 284.3,257.2 291.4,261.3 287.3,268.3 290.9,270.4 317.4,224.4 313.9,222.4 309.8,229.4 302.7,225.3 300.7,228.9 
			307.7,233 301.6,243.6 287.5,235.4 285.4,238.9 		"/>
		<polygon fill="none" stroke="#B1DCE2" stroke-width="0.5002" stroke-miterlimit="3.8636" points="289.4,142.2 295.5,131.6 
			302.6,135.7 304.6,132.2 297.6,128.1 301.6,121 298.1,119 271.6,164.9 275.1,167 279.2,159.9 286.3,164 288.3,160.5 281.2,156.4 
			287.4,145.8 301.5,153.9 303.5,150.4 		"/>
		<polygon fill="none" stroke="#B1DCE2" stroke-width="0.5002" stroke-miterlimit="3.8636" points="311.6,169.2 322.2,175.3 
			318.1,182.4 321.6,184.4 325.7,177.3 332.8,181.4 334.8,177.9 288.9,151.3 286.8,154.9 293.9,159 289.8,166 293.3,168.1 
			297.4,161 308,167.1 299.9,181.3 303.4,183.3 		"/>
		
			<rect x="292.4" y="184.5" transform="matrix(-0.866 -0.5 0.5 -0.866 452.1629 510.5067)" fill="none" stroke="#B1DCE2" stroke-width="0.5002" stroke-miterlimit="3.8636" width="4.1" height="20.4"/>
		<polygon fill="none" stroke="#B1DCE2" stroke-width="0.5002" stroke-miterlimit="3.8636" points="262.5,164.4 251.8,158.3 
			255.9,151.2 252.4,149.2 248.3,156.2 241.2,152.1 239.2,155.7 285.2,182.2 287.2,178.7 280.1,174.6 284.2,167.5 280.7,165.5 
			276.6,172.6 266,166.4 274.2,152.3 270.6,150.2 		"/>
		<polygon fill="none" stroke="#B1DCE2" stroke-width="0.5002" stroke-miterlimit="3.8636" points="304.3,198 310.5,187.4 
			317.5,191.5 319.6,187.9 312.5,183.9 316.6,176.8 313.1,174.7 286.5,220.7 290.1,222.8 294.1,215.7 301.2,219.8 303.2,216.2 
			296.2,212.1 302.3,201.5 316.4,209.7 318.5,206.2 		"/>
		<polygon fill="none" stroke="#B1DCE2" stroke-width="0.5002" stroke-miterlimit="3.8636" points="255.8,184.1 266.4,190.2 
			262.3,197.3 265.8,199.4 269.9,192.3 277,196.4 279,192.8 233.1,166.3 231,169.8 238.1,173.9 234,181 237.6,183 241.6,175.9 
			252.2,182.1 244.1,196.2 247.6,198.3 		"/>
		<polygon fill="none" stroke="#B1DCE2" stroke-width="0.5002" stroke-miterlimit="3.8636" points="284.6,191.3 278.5,201.9 
			271.4,197.9 269.4,201.4 276.5,205.5 272.4,212.6 275.9,214.6 302.4,168.6 298.9,166.6 294.8,173.7 287.8,169.6 285.7,173.1 
			292.8,177.2 286.7,187.8 272.5,179.6 270.5,183.2 		"/>
		<polygon fill="none" stroke="#B1DCE2" stroke-width="0.5002" stroke-miterlimit="3.8636" points="318.2,149.4 307.6,143.3 
			311.7,136.3 308.2,134.2 304.1,141.3 297,137.2 295,140.7 340.9,167.3 343,163.7 335.9,159.7 340,152.6 336.5,150.5 332.4,157.6 
			321.8,151.5 329.9,137.3 326.4,135.3 		"/>
		<polygon fill="none" stroke="#B1DCE2" stroke-width="0.5002" stroke-miterlimit="3.8636" points="303.3,93.7 292.7,87.5 
			296.8,80.5 293.2,78.4 289.1,85.5 282.1,81.4 280,85 326,111.5 328,108 321,103.9 325.1,96.8 321.5,94.8 317.4,101.8 306.8,95.7 
			315,81.6 311.5,79.5 		"/>
		<polygon fill="none" stroke="#B1DCE2" stroke-width="0.5002" stroke-miterlimit="3.8636" points="296.6,113.4 307.2,119.5 
			303.1,126.6 306.7,128.6 310.8,121.6 317.8,125.6 319.9,122.1 273.9,95.6 271.9,99.1 278.9,103.2 274.9,110.3 278.4,112.3 
			282.5,105.2 293.1,111.4 284.9,125.5 288.5,127.5 		"/>
		<polygon fill="none" stroke="#B1DCE2" stroke-width="0.5002" stroke-miterlimit="3.8636" points="274.4,86.4 280.6,75.8 
			287.6,79.9 289.7,76.4 282.6,72.3 286.7,65.2 283.2,63.2 256.6,109.2 260.1,111.2 264.2,104.1 271.3,108.2 273.3,104.7 
			266.3,100.6 272.4,90 286.5,98.1 288.6,94.6 		"/>
		<polygon fill="none" stroke="#B1DCE2" stroke-width="0.5002" stroke-miterlimit="3.8636" points="270.7,239.9 281.3,246 
			277.2,253.1 280.8,255.1 284.9,248 291.9,252.1 294,248.6 248,222.1 246,225.6 253,229.7 249,236.7 252.5,238.8 256.6,231.7 
			267.2,237.8 259,252 262.5,254 		"/>
		<polygon fill="none" stroke="#B1DCE2" stroke-width="0.5002" stroke-miterlimit="3.8636" points="240.8,128.3 251.4,134.5 
			247.4,141.5 250.9,143.6 255,136.5 262,140.6 264.1,137 218.1,110.5 216.1,114 223.1,118.1 219.1,125.2 222.6,127.2 226.7,120.2 
			237.3,126.3 229.1,140.4 232.7,142.5 		"/>
		<polygon fill="none" stroke="#B1DCE2" stroke-width="0.5002" stroke-miterlimit="3.8636" points="173.1,221.2 167,231.8 
			159.9,227.8 157.8,231.3 164.9,235.4 160.8,242.4 164.4,244.5 190.9,198.5 187.4,196.5 183.3,203.6 176.2,199.5 174.2,203 
			181.2,207.1 175.1,217.7 161,209.5 158.9,213.1 		"/>
		<polygon fill="none" stroke="#B1DCE2" stroke-width="0.5002" stroke-miterlimit="3.8636" points="213.9,150.5 207.8,161.1 
			200.7,157 198.7,160.6 205.7,164.7 201.7,171.7 205.2,173.8 231.7,127.8 228.2,125.8 224.1,132.8 217,128.7 215,132.3 
			222.1,136.4 216,147 201.8,138.8 199.8,142.3 		"/>
		<polygon fill="none" stroke="#B1DCE2" stroke-width="0.5002" stroke-miterlimit="3.8636" points="136.9,242.8 143.1,232.2 
			150.1,236.3 152.2,232.7 145.1,228.6 149.2,221.6 145.6,219.5 119.1,265.5 122.6,267.5 126.7,260.5 133.8,264.6 135.8,261 
			128.8,256.9 134.9,246.3 149,254.5 151.1,251 		"/>
		
			<rect x="186.3" y="123.2" transform="matrix(-0.5 0.866 -0.866 -0.5 398.1198 37.024)" fill="none" stroke="#B1DCE2" stroke-width="0.5002" stroke-miterlimit="3.8636" width="4.1" height="20.4"/>
		
			<rect x="268" y="-18.2" transform="matrix(-0.5 0.866 -0.866 -0.5 398.1174 -245.8603)" fill="none" stroke="#B1DCE2" stroke-width="0.5002" stroke-miterlimit="3.8636" width="4.1" height="20.4"/>
		
			<rect x="-31.3" y="91.9" transform="matrix(-0.866 -0.5 0.5 -0.866 -105.6135 175.8167)" fill="none" stroke="#B1DCE2" stroke-width="0.5002" stroke-miterlimit="3.8636" width="4.1" height="20.4"/>
		
			<rect x="166" y="158.6" transform="matrix(-0.866 -0.5 0.5 -0.866 229.0777 398.9673)" fill="none" stroke="#B1DCE2" stroke-width="0.5002" stroke-miterlimit="3.8636" width="4.1" height="20.4"/>
		
			<rect x="206.8" y="87.8" transform="matrix(-0.866 -0.5 0.5 -0.866 340.6028 287.3694)" fill="none" stroke="#B1DCE2" stroke-width="0.5002" stroke-miterlimit="3.8636" width="4.1" height="20.4"/>
		
			<rect x="288.4" y="-53.6" transform="matrix(-0.866 -0.5 0.5 -0.866 563.7059 64.2618)" fill="none" stroke="#B1DCE2" stroke-width="0.5002" stroke-miterlimit="3.8636" width="4.1" height="20.4"/>
		
			<rect x="161.9" y="-79.5" transform="matrix(-0.866 -0.5 0.5 -0.866 340.5983 -47.2782)" fill="none" stroke="#B1DCE2" stroke-width="0.5002" stroke-miterlimit="3.8636" width="4.1" height="20.4"/>
		
			<rect x="232.6" y="-38.7" transform="matrix(-0.866 -0.5 0.5 -0.866 452.1533 64.2631)" fill="none" stroke="#B1DCE2" stroke-width="0.5002" stroke-miterlimit="3.8636" width="4.1" height="20.4"/>
		<polygon fill="none" stroke="#B1DCE2" stroke-width="0.5002" stroke-miterlimit="3.8636" points="244.5,-25.1 250.7,-35.7 
			257.7,-31.6 259.8,-35.2 252.7,-39.3 256.8,-46.3 253.3,-48.4 226.7,-2.4 230.3,-0.4 234.3,-7.4 241.4,-3.3 243.5,-6.9 236.4,-11 
			242.5,-21.6 256.6,-13.4 258.7,-16.9 		"/>
		<polygon fill="none" stroke="#B1DCE2" stroke-width="0.5002" stroke-miterlimit="3.8636" points="224.8,-31.8 218.7,-21.2 
			211.6,-25.3 209.6,-21.7 216.7,-17.6 212.6,-10.6 216.1,-8.5 242.7,-54.5 239.1,-56.5 235,-49.5 228,-53.5 225.9,-50 233,-45.9 
			226.9,-35.3 212.7,-43.5 210.7,-39.9 		"/>
		
			<rect x="197.3" y="-59" transform="matrix(-0.5 0.866 -0.866 -0.5 256.6748 -245.8589)" fill="none" stroke="#B1DCE2" stroke-width="0.5002" stroke-miterlimit="3.8636" width="4.1" height="20.4"/>
		<polygon fill="none" stroke="#B1DCE2" stroke-width="0.5002" stroke-miterlimit="3.8636" points="173.8,-65.9 179.9,-76.5 
			187,-72.5 189.1,-76 182,-80.1 186.1,-87.2 182.5,-89.2 156,-43.2 159.5,-41.2 163.6,-48.3 170.7,-44.2 172.7,-47.7 165.7,-51.8 
			171.8,-62.4 185.9,-54.2 188,-57.8 		"/>
		<polygon fill="none" stroke="#B1DCE2" stroke-width="0.5002" stroke-miterlimit="3.8636" points="154.1,-72.6 148,-62 
			140.9,-66.1 138.9,-62.5 145.9,-58.5 141.9,-51.4 145.4,-49.4 171.9,-95.3 168.4,-97.4 164.3,-90.3 157.2,-94.4 155.2,-90.8 
			162.3,-86.8 156.1,-76.1 142,-84.3 140,-80.8 		"/>
		<polygon fill="none" stroke="#B1DCE2" stroke-width="0.5002" stroke-miterlimit="3.8636" points="280.6,-46.7 274.5,-36.1 
			267.4,-40.2 265.4,-36.7 272.4,-32.6 268.4,-25.5 271.9,-23.5 298.4,-69.4 294.9,-71.5 290.8,-64.4 283.7,-68.5 281.7,-65 
			288.8,-60.9 282.6,-50.3 268.5,-58.4 266.5,-54.9 		"/>
		<polygon fill="none" stroke="#B1DCE2" stroke-width="0.5002" stroke-miterlimit="3.8636" points="307.5,-68.9 318.2,-62.8 
			314.1,-55.7 317.6,-53.7 321.7,-60.7 328.8,-56.6 330.8,-60.2 284.8,-86.7 282.8,-83.2 289.9,-79.1 285.8,-72 289.3,-70 
			293.4,-77.1 304,-70.9 295.8,-56.8 299.4,-54.7 		"/>
		<polygon fill="none" stroke="#B1DCE2" stroke-width="0.5002" stroke-miterlimit="3.8636" points="288.3,37.9 277.7,31.8 
			281.8,24.7 278.3,22.6 274.2,29.7 267.1,25.6 265.1,29.2 311,55.7 313.1,52.2 306,48.1 310.1,41 306.6,39 302.5,46.1 291.9,39.9 
			300,25.8 296.5,23.7 		"/>
		<polygon fill="none" stroke="#B1DCE2" stroke-width="0.5002" stroke-miterlimit="3.8636" points="251.7,-54 262.3,-47.9 
			258.2,-40.8 261.8,-38.8 265.8,-45.9 272.9,-41.8 274.9,-45.3 229,-71.9 226.9,-68.3 234,-64.2 229.9,-57.2 233.5,-55.1 
			237.5,-62.2 248.2,-56.1 240,-41.9 243.5,-39.9 		"/>
		
			<rect x="253" y="-74.1" transform="matrix(-0.5 0.866 -0.866 -0.5 327.1978 -316.6592)" fill="none" stroke="#B1DCE2" stroke-width="0.5002" stroke-miterlimit="3.8636" width="4.1" height="20.4"/>
		<polygon fill="none" stroke="#B1DCE2" stroke-width="0.5002" stroke-miterlimit="3.8636" points="258.4,-73.8 247.8,-79.9 
			251.8,-87 248.3,-89 244.2,-81.9 237.1,-86 235.1,-82.5 281.1,-55.9 283.1,-59.5 276,-63.6 280.1,-70.6 276.6,-72.7 272.5,-65.6 
			261.9,-71.7 270.1,-85.9 266.5,-87.9 		"/>
		<polygon fill="none" stroke="#B1DCE2" stroke-width="0.5002" stroke-miterlimit="3.8636" points="202.7,-58.8 192.1,-64.9 
			196.2,-72 192.6,-74 188.6,-67 181.5,-71 179.4,-67.5 225.4,-41 227.5,-44.5 220.4,-48.6 224.5,-55.7 220.9,-57.7 216.8,-50.6 
			206.2,-56.8 214.4,-70.9 210.9,-72.9 		"/>
		<polygon fill="none" stroke="#B1DCE2" stroke-width="0.5002" stroke-miterlimit="3.8636" points="295.5,9.1 289.4,19.7 
			282.3,15.6 280.3,19.1 287.4,23.2 283.3,30.3 286.8,32.3 313.4,-13.7 309.8,-15.7 305.8,-8.6 298.7,-12.7 296.6,-9.2 303.7,-5.1 
			297.6,5.5 283.4,-2.7 281.4,0.9 		"/>
		<polygon fill="none" stroke="#B1DCE2" stroke-width="0.5002" stroke-miterlimit="3.8636" points="300.3,-40.1 306.4,-50.7 
			313.5,-46.6 315.5,-50.1 308.5,-54.2 312.5,-61.3 309,-63.3 282.5,-17.4 286,-15.3 290.1,-22.4 297.2,-18.3 299.2,-21.8 
			292.1,-25.9 298.2,-36.5 312.4,-28.4 314.4,-31.9 		"/>
		<polygon fill="none" stroke="#B1DCE2" stroke-width="0.5002" stroke-miterlimit="3.8636" points="196,-39 206.6,-32.9 
			202.5,-25.8 206.1,-23.8 210.1,-30.8 217.2,-26.7 219.2,-30.3 173.3,-56.8 171.2,-53.3 178.3,-49.2 174.2,-42.1 177.8,-40.1 
			181.8,-47.2 192.5,-41 184.3,-26.9 187.8,-24.9 		"/>
		<polygon fill="none" stroke="#B1DCE2" stroke-width="0.5002" stroke-miterlimit="3.8636" points="239.8,24 233.6,34.6 226.6,30.5 
			224.5,34.1 231.6,38.1 227.5,45.2 231.1,47.3 257.6,1.3 254.1,-0.8 250,6.3 242.9,2.2 240.9,5.8 247.9,9.9 241.8,20.5 227.7,12.3 
			225.6,15.8 		"/>
		<polygon fill="none" stroke="#B1DCE2" stroke-width="0.5002" stroke-miterlimit="3.8636" points="229.5,-81 235.7,-91.6 
			242.7,-87.5 244.8,-91 237.7,-95.1 241.8,-102.2 238.2,-104.2 211.7,-58.3 215.2,-56.2 219.3,-63.3 226.4,-59.2 228.4,-62.8 
			221.4,-66.8 227.5,-77.4 241.6,-69.3 243.7,-72.8 		"/>
		<polygon fill="none" stroke="#B1DCE2" stroke-width="0.5002" stroke-miterlimit="3.8636" points="209.8,-87.7 203.7,-77 
			196.6,-81.1 194.6,-77.6 201.6,-73.5 197.6,-66.4 201.1,-64.4 227.6,-110.4 224.1,-112.4 220,-105.3 212.9,-109.4 210.9,-105.9 
			218,-101.8 211.8,-91.2 197.7,-99.4 195.7,-95.8 		"/>
		
			<rect x="176.9" y="-23.7" transform="matrix(-0.866 -0.5001 0.5001 -0.866 340.5923 64.2805)" fill="none" stroke="#B1DCE2" stroke-width="0.5002" stroke-miterlimit="3.8636" width="4.1" height="20.4"/>
		<polygon fill="none" stroke="#B1DCE2" stroke-width="0.5002" stroke-miterlimit="3.8636" points="218.6,101.4 224.7,90.8 
			231.8,94.8 233.9,91.3 226.8,87.2 230.9,80.2 227.3,78.1 200.8,124.1 204.3,126.1 208.4,119 215.5,123.1 217.5,119.6 210.5,115.5 
			216.6,104.9 230.7,113.1 232.8,109.5 		"/>
		<polygon fill="none" stroke="#B1DCE2" stroke-width="0.5002" stroke-miterlimit="3.8636" points="281.6,57.6 292.2,63.7 
			288.1,70.8 291.6,72.8 295.7,65.7 302.8,69.8 304.8,66.3 258.9,39.7 256.8,43.3 263.9,47.4 259.8,54.4 263.3,56.5 267.4,49.4 
			278,55.5 269.9,69.7 273.4,71.7 		"/>
		<polygon fill="none" stroke="#B1DCE2" stroke-width="0.5002" stroke-miterlimit="3.8636" points="266.7,1.8 277.3,8 273.2,15 
			276.8,17.1 280.9,10 287.9,14.1 290,10.5 244,-16 242,-12.5 249,-8.4 244.9,-1.3 248.5,0.7 252.6,-6.3 263.2,-0.2 255,13.9 
			258.5,16 		"/>
		<polygon fill="none" stroke="#B1DCE2" stroke-width="0.5002" stroke-miterlimit="3.8636" points="273.4,-17.9 262.8,-24 
			266.9,-31.1 263.3,-33.1 259.2,-26.1 252.2,-30.1 250.1,-26.6 296.1,-0.1 298.1,-3.6 291.1,-7.7 295.1,-14.8 291.6,-16.8 
			287.5,-9.7 276.9,-15.8 285.1,-30 281.5,-32 		"/>
		<polygon fill="none" stroke="#B1DCE2" stroke-width="0.5002" stroke-miterlimit="3.8636" points="177.8,172.1 183.9,161.5 
			191,165.5 193,162 185.9,157.9 190,150.9 186.5,148.8 159.9,194.8 163.5,196.8 167.5,189.7 174.6,193.8 176.7,190.3 169.6,186.2 
			175.7,175.6 189.9,183.8 191.9,180.2 		"/>
		<polygon fill="none" stroke="#B1DCE2" stroke-width="0.5002" stroke-miterlimit="3.8636" points="125.3,-79.8 135.9,-73.7 
			131.8,-66.6 135.3,-64.6 139.4,-71.7 146.5,-67.6 148.5,-71.1 102.6,-97.7 100.5,-94.1 107.6,-90 103.5,-83 107,-80.9 111.1,-88 
			121.7,-81.9 113.6,-67.7 117.1,-65.7 		"/>
		
			<rect x="262.5" y="72.9" transform="matrix(-0.866 -0.5 0.5 -0.866 452.1554 287.3681)" fill="none" stroke="#B1DCE2" stroke-width="0.5002" stroke-miterlimit="3.8636" width="4.1" height="20.4"/>
		
			<rect x="247.6" y="17.1" transform="matrix(-0.866 -0.5 0.5 -0.866 452.1541 175.8156)" fill="none" stroke="#B1DCE2" stroke-width="0.5002" stroke-miterlimit="3.8636" width="4.1" height="20.4"/>
		
			<rect x="106.1" y="-64.5" transform="matrix(-0.866 -0.5 0.5 -0.866 229.0466 -47.2876)" fill="none" stroke="#B1DCE2" stroke-width="0.5002" stroke-miterlimit="3.8636" width="4.1" height="20.4"/>
		<polygon fill="none" stroke="#B1DCE2" stroke-width="0.5002" stroke-miterlimit="3.8636" points="247.5,108.6 236.9,102.5 
			241,95.4 237.4,93.4 233.4,100.4 226.3,96.4 224.2,99.9 270.2,126.4 272.2,122.9 265.2,118.8 269.3,111.7 265.7,109.7 
			261.6,116.8 251,110.7 259.2,96.5 255.7,94.5 		"/>
		<polygon fill="none" stroke="#B1DCE2" stroke-width="0.5002" stroke-miterlimit="3.8636" points="254.7,79.8 248.6,90.4 
			241.5,86.3 239.5,89.8 246.5,93.9 242.5,101 246,103 272.5,57.1 269,55 264.9,62.1 257.9,58 255.8,61.5 262.9,65.6 256.8,76.2 
			242.6,68.1 240.6,71.6 		"/>
		<polygon fill="none" stroke="#B1DCE2" stroke-width="0.5002" stroke-miterlimit="3.8636" points="259.5,30.6 265.6,20 272.7,24.1 
			274.7,20.6 267.6,16.5 271.7,9.4 268.2,7.4 241.6,53.4 245.2,55.4 249.2,48.3 256.3,52.4 258.4,48.9 251.3,44.8 257.4,34.2 
			271.6,42.3 273.6,38.8 		"/>
		<polygon fill="none" stroke="#B1DCE2" stroke-width="0.5002" stroke-miterlimit="3.8636" points="200,199.1 210.6,205.2 
			206.5,212.2 210.1,214.3 214.1,207.2 221.2,211.3 223.3,207.8 177.3,181.2 175.2,184.8 182.3,188.8 178.2,195.9 181.8,198 
			185.8,190.9 196.5,197 188.3,211.2 191.8,213.2 		"/>
		<polygon fill="none" stroke="#B1DCE2" stroke-width="0.5002" stroke-miterlimit="3.8636" points="158.1,165.4 152,176 144.9,172 
			142.9,175.5 149.9,179.6 145.9,186.7 149.4,188.7 175.9,142.7 172.4,140.7 168.3,147.8 161.2,143.7 159.2,147.2 166.3,151.3 
			160.2,161.9 146,153.7 144,157.3 		"/>
		<polygon fill="none" stroke="#B1DCE2" stroke-width="0.5002" stroke-miterlimit="3.8636" points="206.5,179.2 195.9,173.1 
			200,166 196.5,164 192.4,171.1 185.3,167 183.3,170.5 229.2,197.1 231.3,193.5 224.2,189.5 228.3,182.4 224.7,180.3 220.7,187.4 
			210.1,181.3 218.2,167.1 214.7,165.1 		"/>
		<polygon fill="none" stroke="#B1DCE2" stroke-width="0.5002" stroke-miterlimit="3.8636" points="117.3,236.2 111.2,246.8 
			104.1,242.7 102.1,246.2 109.1,250.3 105.1,257.4 108.6,259.4 135.1,213.5 131.6,211.4 127.5,218.5 120.4,214.4 118.4,218 
			125.5,222 119.3,232.6 105.2,224.5 103.2,228 		"/>
		
			<rect x="145.5" y="194" transform="matrix(-0.5 0.866 -0.866 -0.5 398.1733 178.487)" fill="none" stroke="#B1DCE2" stroke-width="0.5002" stroke-miterlimit="3.8636" width="4.1" height="20.4"/>
		<polygon fill="none" stroke="#B1DCE2" stroke-width="0.5002" stroke-miterlimit="3.8636" points="144.2,214 154.8,220.1 
			150.8,227.2 154.3,229.3 158.4,222.2 165.5,226.3 167.5,222.7 121.5,196.2 119.5,199.7 126.6,203.8 122.5,210.9 126,212.9 
			130.1,205.8 140.7,212 132.5,226.1 136.1,228.2 		"/>
		<polygon fill="none" stroke="#B1DCE2" stroke-width="0.5002" stroke-miterlimit="3.8636" points="150.9,194.3 140.3,188.2 
			144.4,181.1 140.9,179.1 136.8,186.1 129.7,182 127.7,185.6 173.6,212.1 175.7,208.6 168.6,204.5 172.7,197.4 169.1,195.4 
			165.1,202.5 154.4,196.3 162.6,182.2 159.1,180.1 		"/>
		<polygon fill="none" stroke="#B1DCE2" stroke-width="0.5002" stroke-miterlimit="3.8636" points="198.9,94.7 192.8,105.3 
			185.7,101.2 183.7,104.8 190.8,108.9 186.7,115.9 190.2,118 216.8,72 213.2,70 209.1,77 202.1,73 200,76.5 207.1,80.6 201,91.2 
			186.8,83 184.8,86.6 		"/>
		
			<rect x="191.8" y="32.1" transform="matrix(-0.866 -0.5 0.5 -0.866 340.6017 175.8164)" fill="none" stroke="#B1DCE2" stroke-width="0.5002" stroke-miterlimit="3.8636" width="4.1" height="20.4"/>
		
			<rect x="212.2" y="-3.3" transform="matrix(-0.5 0.866 -0.866 -0.5 327.4075 -175.132)" fill="none" stroke="#B1DCE2" stroke-width="0.5002" stroke-miterlimit="3.8636" width="4.1" height="20.4"/>
		
			<rect x="70.8" y="-84.9" transform="matrix(-0.5 0.866 -0.866 -0.5 44.5125 -175.1359)" fill="none" stroke="#B1DCE2" stroke-width="0.5002" stroke-miterlimit="3.8636" width="4.1" height="20.4"/>
		
			<rect x="141.5" y="-44.1" transform="matrix(-0.5 0.866 -0.866 -0.5 185.9547 -175.1371)" fill="none" stroke="#B1DCE2" stroke-width="0.5002" stroke-miterlimit="3.8636" width="4.1" height="20.4"/>
		
			<rect x="227.2" y="52.5" transform="matrix(-0.5 0.866 -0.866 -0.5 398.1186 -104.4181)" fill="none" stroke="#B1DCE2" stroke-width="0.5002" stroke-miterlimit="3.8636" width="4.1" height="20.4"/>
		<polygon fill="none" stroke="#B1DCE2" stroke-width="0.5002" stroke-miterlimit="3.8636" points="203.7,45.6 209.8,35 216.9,39.1 
			219,35.6 211.9,31.5 216,24.4 212.4,22.4 185.9,68.3 189.4,70.4 193.5,63.3 200.6,67.4 202.6,63.8 195.5,59.8 201.7,49.1 
			215.8,57.3 217.9,53.8 		"/>
		<polygon fill="none" stroke="#B1DCE2" stroke-width="0.5002" stroke-miterlimit="3.8636" points="225.9,72.6 236.5,78.7 
			232.4,85.8 235.9,87.8 240,80.7 247.1,84.8 249.1,81.3 203.2,54.7 201.1,58.3 208.2,62.3 204.1,69.4 207.7,71.5 211.7,64.4 
			222.3,70.5 214.2,84.7 217.7,86.7 		"/>
		<polygon fill="none" stroke="#B1DCE2" stroke-width="0.5002" stroke-miterlimit="3.8636" points="232.6,52.8 221.9,46.7 226,39.6 
			222.5,37.6 218.4,44.7 211.3,40.6 209.3,44.1 255.3,70.7 257.3,67.1 250.2,63 254.3,56 250.8,53.9 246.7,61 236.1,54.9 
			244.3,40.7 240.7,38.7 		"/>
		<polygon fill="none" stroke="#B1DCE2" stroke-width="0.5002" stroke-miterlimit="3.8636" points="188.9,-10.1 195,-20.7 
			202.1,-16.6 204.1,-20.2 197.1,-24.2 201.1,-31.3 197.6,-33.4 171.1,12.6 174.6,14.7 178.7,7.6 185.8,11.7 187.8,8.1 180.7,4.1 
			186.9,-6.6 201,1.6 203,-1.9 		"/>
		<polygon fill="none" stroke="#B1DCE2" stroke-width="0.5002" stroke-miterlimit="3.8636" points="210.9,16.8 221.5,22.9 217.5,30 
			221,32 225.1,24.9 232.2,29 234.2,25.5 188.2,-1 186.2,2.5 193.3,6.6 189.2,13.6 192.7,15.7 196.8,8.6 207.4,14.7 199.2,28.9 
			202.8,30.9 		"/>
		<polygon fill="none" stroke="#B1DCE2" stroke-width="0.5002" stroke-miterlimit="3.8636" points="217.6,-2.9 207,-9.1 
			211.1,-16.1 207.5,-18.2 203.5,-11.1 196.4,-15.2 194.3,-11.7 240.3,14.9 242.4,11.3 235.3,7.3 239.4,0.2 235.8,-1.8 231.8,5.2 
			221.1,-0.9 229.3,-15 225.8,-17.1 		"/>
		<polygon fill="none" stroke="#B1DCE2" stroke-width="0.5002" stroke-miterlimit="3.8636" points="88.4,228.9 99,235.1 95,242.1 
			98.5,244.2 102.6,237.1 109.7,241.2 111.7,237.7 65.7,211.1 63.7,214.7 70.8,218.7 66.7,225.8 70.2,227.8 74.3,220.8 84.9,226.9 
			76.7,241 80.3,243.1 		"/>
		
			<rect x="89.7" y="208.9" transform="matrix(-0.5 0.866 -0.866 -0.5 327.4012 249.1878)" fill="none" stroke="#B1DCE2" stroke-width="0.5002" stroke-miterlimit="3.8636" width="4.1" height="20.4"/>
		<polygon fill="none" stroke="#B1DCE2" stroke-width="0.5002" stroke-miterlimit="3.8636" points="95.1,209.2 84.5,203.1 88.6,196 
			85.1,194 81,201.1 73.9,197 71.9,200.5 117.8,227 119.9,223.5 112.8,219.4 116.9,212.4 113.3,210.3 109.3,217.4 98.6,211.3 
			106.8,197.1 103.3,195.1 		"/>
		<polygon fill="none" stroke="#B1DCE2" stroke-width="0.5002" stroke-miterlimit="3.8636" points="129.3,158.2 139.9,164.3 
			135.8,171.4 139.3,173.5 143.4,166.4 150.5,170.5 152.5,166.9 106.6,140.4 104.5,143.9 111.6,148 107.5,155.1 111,157.1 
			115.1,150.1 125.7,156.2 117.6,170.3 121.1,172.4 		"/>
		
			<rect x="110.2" y="173.5" transform="matrix(-0.866 -0.5 0.5 -0.866 117.4984 398.9243)" fill="none" stroke="#B1DCE2" stroke-width="0.5002" stroke-miterlimit="3.8636" width="4.1" height="20.4"/>
		<polygon fill="none" stroke="#B1DCE2" stroke-width="0.5002" stroke-miterlimit="3.8636" points="122.1,187.1 128.2,176.4 
			135.3,180.5 137.3,177 130.2,172.9 134.3,165.8 130.8,163.8 104.2,209.8 107.8,211.8 111.8,204.7 118.9,208.8 121,205.3 
			113.9,201.2 120,190.6 134.2,198.8 136.2,195.2 		"/>
		<polygon fill="none" stroke="#B1DCE2" stroke-width="0.5002" stroke-miterlimit="3.8636" points="102.3,180.4 96.2,191 
			89.1,186.9 87.1,190.4 94.2,194.5 90.1,201.6 93.6,203.6 120.2,157.7 116.6,155.6 112.5,162.7 105.5,158.6 103.4,162.2 
			110.5,166.2 104.4,176.8 90.2,168.7 88.2,172.2 		"/>
		
			<rect x="151" y="102.8" transform="matrix(-0.866 -0.5 0.5 -0.866 229.0398 287.3752)" fill="none" stroke="#B1DCE2" stroke-width="0.5002" stroke-miterlimit="3.8636" width="4.1" height="20.4"/>
		
			<rect x="130.6" y="138.2" transform="matrix(-0.5 0.866 -0.866 -0.5 327.3996 107.7458)" fill="none" stroke="#B1DCE2" stroke-width="0.5002" stroke-miterlimit="3.8636" width="4.1" height="20.4"/>
		<polygon fill="none" stroke="#B1DCE2" stroke-width="0.5002" stroke-miterlimit="3.8636" points="135.9,138.5 125.3,132.4 
			129.4,125.3 125.9,123.3 121.8,130.3 114.7,126.2 112.7,129.8 158.7,156.3 160.7,152.8 153.6,148.7 157.7,141.6 154.2,139.6 
			150.1,146.7 139.5,140.5 147.6,126.4 144.1,124.4 		"/>
		
			<rect x="171.4" y="67.5" transform="matrix(-0.5 0.866 -0.866 -0.5 327.3978 -33.6965)" fill="none" stroke="#B1DCE2" stroke-width="0.5002" stroke-miterlimit="3.8636" width="4.1" height="20.4"/>
		<polygon fill="none" stroke="#B1DCE2" stroke-width="0.5002" stroke-miterlimit="3.8636" points="184,38.9 177.9,49.6 170.8,45.5 
			168.8,49 175.8,53.1 171.7,60.2 175.3,62.2 201.8,16.2 198.3,14.2 194.2,21.3 187.1,17.2 185.1,20.7 192.2,24.8 186,35.4 
			171.9,27.2 169.8,30.8 		"/>
		<polygon fill="none" stroke="#B1DCE2" stroke-width="0.5002" stroke-miterlimit="3.8636" points="162.9,116.3 169,105.7 
			176.1,109.8 178.1,106.3 171.1,102.2 175.1,95.1 171.6,93.1 145.1,139 148.6,141.1 152.7,134 159.7,138.1 161.8,134.6 
			154.7,130.5 160.8,119.9 175,128 177,124.5 		"/>
		<polygon fill="none" stroke="#B1DCE2" stroke-width="0.5002" stroke-miterlimit="3.8636" points="170.1,87.5 180.7,93.6 
			176.6,100.7 180.2,102.7 184.2,95.7 191.3,99.7 193.4,96.2 147.4,69.7 145.4,73.2 152.4,77.3 148.3,84.4 151.9,86.4 156,79.3 
			166.6,85.5 158.4,99.6 161.9,101.6 		"/>
		<polygon fill="none" stroke="#B1DCE2" stroke-width="0.5002" stroke-miterlimit="3.8636" points="143.2,109.7 137,120.3 
			130,116.2 127.9,119.7 135,123.8 130.9,130.9 134.4,132.9 161,87 157.5,84.9 153.4,92 146.3,87.9 144.3,91.4 151.3,95.5 
			145.2,106.1 131.1,98 129,101.5 		"/>
		<polygon fill="none" stroke="#B1DCE2" stroke-width="0.5002" stroke-miterlimit="3.8636" points="176.8,67.8 166.2,61.7 
			170.3,54.6 166.7,52.5 162.6,59.6 155.6,55.5 153.5,59.1 199.5,85.6 201.5,82.1 194.5,78 198.5,70.9 195,68.9 190.9,75.9 
			180.3,69.8 188.5,55.7 184.9,53.6 		"/>
		<polygon fill="none" stroke="#B1DCE2" stroke-width="0.5002" stroke-miterlimit="3.8636" points="-39.1,98.7 -45.2,109.3 
			-52.3,105.2 -54.3,108.8 -47.3,112.9 -51.4,119.9 -47.8,122 -21.3,76 -24.8,74 -28.9,81 -36,77 -38,80.5 -30.9,84.6 -37.1,95.2 
			-51.2,87 -53.3,90.6 		"/>
		
			<rect x="19" y="168.1" transform="matrix(-0.5 0.866 -0.866 -0.5 185.9544 249.199)" fill="none" stroke="#B1DCE2" stroke-width="0.5002" stroke-miterlimit="3.8636" width="4.1" height="20.4"/>
		<polygon fill="none" stroke="#B1DCE2" stroke-width="0.5002" stroke-miterlimit="3.8636" points="-19.4,105.4 -13.3,94.8 
			-6.2,98.9 -4.2,95.3 -11.2,91.3 -7.1,84.2 -10.7,82.1 -37.2,128.1 -33.7,130.1 -29.6,123.1 -22.5,127.2 -20.5,123.6 -27.6,119.5 
			-21.4,108.9 -7.3,117.1 -5.2,113.6 		"/>
		<polygon fill="none" stroke="#B1DCE2" stroke-width="0.5002" stroke-miterlimit="3.8636" points="73.5,173.2 84.1,179.3 80,186.4 
			83.6,188.4 87.6,181.3 94.7,185.4 96.8,181.9 50.8,155.3 48.7,158.9 55.8,163 51.7,170 55.3,172.1 59.4,165 70,171.1 61.8,185.3 
			65.3,187.3 		"/>
		
			<rect x="54.4" y="188.5" transform="matrix(-0.866 -0.5 0.5 -0.866 5.9458 398.9256)" fill="none" stroke="#B1DCE2" stroke-width="0.5002" stroke-miterlimit="3.8636" width="4.1" height="20.4"/>
		<polygon fill="none" stroke="#B1DCE2" stroke-width="0.5002" stroke-miterlimit="3.8636" points="24.4,168.4 13.8,162.3 
			17.9,155.2 14.3,153.2 10.2,160.2 3.2,156.1 1.1,159.7 47.1,186.2 49.1,182.7 42.1,178.6 46.2,171.5 42.6,169.5 38.5,176.6 
			27.9,170.4 36.1,156.3 32.6,154.2 		"/>
		<polygon fill="none" stroke="#B1DCE2" stroke-width="0.5002" stroke-miterlimit="3.8636" points="66.3,202 72.4,191.4 79.5,195.5 
			81.5,191.9 74.4,187.9 78.5,180.8 75,178.7 48.5,224.7 52,226.8 56.1,219.7 63.1,223.8 65.2,220.2 58.1,216.1 64.2,205.5 
			78.4,213.7 80.4,210.2 		"/>
		<polygon fill="none" stroke="#B1DCE2" stroke-width="0.5002" stroke-miterlimit="3.8636" points="17.7,188.1 28.3,194.2 
			24.2,201.3 27.8,203.4 31.9,196.3 38.9,200.4 41,196.8 -5,170.3 -7,173.8 0,177.9 -4,185 -0.5,187 3.6,179.9 14.2,186.1 6,200.2 
			9.6,202.3 		"/>
		<polygon fill="none" stroke="#B1DCE2" stroke-width="0.5002" stroke-miterlimit="3.8636" points="46.6,195.3 40.4,205.9 
			33.4,201.9 31.3,205.4 38.4,209.5 34.3,216.5 37.8,218.6 64.4,172.6 60.8,170.6 56.8,177.6 49.7,173.6 47.7,177.1 54.7,181.2 
			48.6,191.8 34.5,183.6 32.4,187.2 		"/>
		<polygon fill="none" stroke="#B1DCE2" stroke-width="0.5002" stroke-miterlimit="3.8636" points="2.8,132.3 13.4,138.5 9.3,145.5 
			12.8,147.6 16.9,140.5 24,144.6 26,141 -19.9,114.5 -22,118 -14.9,122.1 -19,129.2 -15.5,131.2 -11.4,124.2 -0.8,130.3 
			-8.9,144.4 -5.4,146.5 		"/>
		
			<rect x="-16.3" y="147.6" transform="matrix(-0.866 -0.5 0.5 -0.866 -105.6085 287.3741)" fill="none" stroke="#B1DCE2" stroke-width="0.5002" stroke-miterlimit="3.8636" width="4.1" height="20.4"/>
		<polygon fill="none" stroke="#B1DCE2" stroke-width="0.5002" stroke-miterlimit="3.8636" points="-46.3,127.6 -56.9,121.4 
			-52.9,114.4 -56.4,112.3 -60.5,119.4 -67.5,115.3 -69.6,118.8 -23.6,145.4 -21.6,141.8 -28.6,137.8 -24.6,130.7 -28.1,128.7 
			-32.2,135.7 -42.8,129.6 -34.6,115.5 -38.2,113.4 		"/>
		<polygon fill="none" stroke="#B1DCE2" stroke-width="0.5002" stroke-miterlimit="3.8636" points="-4.4,161.2 1.7,150.6 8.8,154.6 
			10.8,151.1 3.7,147 7.8,140 4.3,137.9 -22.3,183.9 -18.7,185.9 -14.7,178.9 -7.6,182.9 -5.5,179.4 -12.6,175.3 -6.5,164.7 
			7.7,172.9 9.7,169.3 		"/>
		<polygon fill="none" stroke="#B1DCE2" stroke-width="0.5002" stroke-miterlimit="3.8636" points="-53,147.3 -42.4,153.4 
			-46.5,160.5 -42.9,162.5 -38.9,155.4 -31.8,159.5 -29.7,156 -75.7,129.5 -77.8,133 -70.7,137.1 -74.8,144.1 -71.2,146.2 
			-67.1,139.1 -56.5,145.2 -64.7,159.4 -61.2,161.4 		"/>
		<polygon fill="none" stroke="#B1DCE2" stroke-width="0.5002" stroke-miterlimit="3.8636" points="-24.2,154.5 -30.3,165.1 
			-37.4,161 -39.4,164.6 -32.3,168.6 -36.4,175.7 -32.9,177.8 -6.3,131.8 -9.9,129.7 -14,136.8 -21,132.7 -23.1,136.3 -16,140.4 
			-22.1,151 -36.3,142.8 -38.3,146.3 		"/>
		
			<rect x="39.4" y="132.7" transform="matrix(-0.866 -0.5 0.5 -0.866 5.9446 287.373)" fill="none" stroke="#B1DCE2" stroke-width="0.5002" stroke-miterlimit="3.8636" width="4.1" height="20.4"/>
		
			<rect x="74.8" y="153.1" transform="matrix(-0.5 0.866 -0.866 -0.5 256.6783 178.4779)" fill="none" stroke="#B1DCE2" stroke-width="0.5002" stroke-miterlimit="3.8636" width="4.1" height="20.4"/>
		
			<rect x="4.1" y="112.3" transform="matrix(-0.5 0.866 -0.866 -0.5 115.2373 178.4688)" fill="none" stroke="#B1DCE2" stroke-width="0.5002" stroke-miterlimit="3.8636" width="4.1" height="20.4"/>
		<polygon fill="none" stroke="#B1DCE2" stroke-width="0.5002" stroke-miterlimit="3.8636" points="80.2,153.4 69.6,147.3 
			73.6,140.2 70.1,138.2 66,145.3 59,141.2 56.9,144.7 102.9,171.3 104.9,167.7 97.8,163.7 101.9,156.6 98.4,154.5 94.3,161.6 
			83.7,155.5 91.9,141.3 88.3,139.3 		"/>
		<polygon fill="none" stroke="#B1DCE2" stroke-width="0.5002" stroke-miterlimit="3.8636" points="9.4,112.6 -1.2,106.5 2.9,99.4 
			-0.6,97.4 -4.7,104.4 -11.8,100.4 -13.8,103.9 32.2,130.4 34.2,126.9 27.1,122.8 31.2,115.7 27.7,113.7 23.6,120.8 13,114.7 
			21.1,100.5 17.6,98.5 		"/>
		<polygon fill="none" stroke="#B1DCE2" stroke-width="0.5002" stroke-miterlimit="3.8636" points="51.3,146.2 57.5,135.6 
			64.5,139.7 66.6,136.2 59.5,132.1 63.6,125 60,123 33.5,168.9 37,171 41.1,163.9 48.2,168 50.2,164.5 43.2,160.4 49.3,149.8 
			63.4,157.9 65.5,154.4 		"/>
		<polygon fill="none" stroke="#B1DCE2" stroke-width="0.5002" stroke-miterlimit="3.8636" points="31.6,139.6 25.5,150.2 
			18.4,146.1 16.4,149.6 23.4,153.7 19.4,160.8 22.9,162.8 49.4,116.8 45.9,114.8 41.8,121.9 34.7,117.8 32.7,121.3 39.8,125.4 
			33.7,136 19.5,127.9 17.5,131.4 		"/>
		
			<rect x="59.8" y="97.3" transform="matrix(-0.5 0.866 -0.866 -0.5 185.9574 107.747)" fill="none" stroke="#B1DCE2" stroke-width="0.5002" stroke-miterlimit="3.8636" width="4.1" height="20.4"/>
		
			<rect x="9.5" y="21.1" transform="matrix(-0.866 -0.5 0.5 -0.866 5.9423 64.2669)" fill="none" stroke="#B1DCE2" stroke-width="0.5002" stroke-miterlimit="3.8636" width="4.1" height="20.4"/>
		<polygon fill="none" stroke="#B1DCE2" stroke-width="0.5002" stroke-miterlimit="3.8636" points="21.4,34.7 27.6,24.1 34.6,28.1 
			36.7,24.6 29.6,20.5 33.7,13.5 30.2,11.4 3.6,57.4 7.2,59.4 11.2,52.4 18.3,56.4 20.3,52.9 13.3,48.8 19.4,38.2 33.5,46.4 
			35.6,42.8 		"/>
		<polygon fill="none" stroke="#B1DCE2" stroke-width="0.5002" stroke-miterlimit="3.8636" points="1.7,28 -4.4,38.6 -11.5,34.5 
			-13.5,38.1 -6.4,42.1 -10.5,49.2 -7,51.3 19.5,5.3 16,3.2 11.9,10.3 4.9,6.2 2.8,9.8 9.9,13.9 3.8,24.5 -10.4,16.3 -12.4,19.8 		
			"/>
		<polygon fill="none" stroke="#B1DCE2" stroke-width="0.5002" stroke-miterlimit="3.8636" points="114.3,102.4 124.9,108.6 
			120.9,115.6 124.4,117.7 128.5,110.6 135.5,114.7 137.6,111.2 91.6,84.6 89.6,88.2 96.6,92.2 92.6,99.3 96.1,101.4 100.2,94.3 
			110.8,100.4 102.6,114.5 106.2,116.6 		"/>
		
			<rect x="95.2" y="117.7" transform="matrix(-0.866 -0.5 0.5 -0.866 117.4972 287.3718)" fill="none" stroke="#B1DCE2" stroke-width="0.5002" stroke-miterlimit="3.8636" width="4.1" height="20.4"/>
		<polygon fill="none" stroke="#B1DCE2" stroke-width="0.5002" stroke-miterlimit="3.8636" points="65.2,97.7 54.6,91.5 58.7,84.5 
			55.2,82.4 51.1,89.5 44,85.4 42,89 87.9,115.5 90,112 82.9,107.9 87,100.8 83.5,98.8 79.4,105.8 68.8,99.7 76.9,85.6 73.4,83.5 		
			"/>
		<polygon fill="none" stroke="#B1DCE2" stroke-width="0.5002" stroke-miterlimit="3.8636" points="107.1,131.3 113.2,120.7 
			120.3,124.8 122.3,121.2 115.3,117.1 119.4,110.1 115.8,108 89.3,154 92.8,156 96.9,149 104,153 106,149.5 98.9,145.4 
			105.1,134.8 119.2,143 121.3,139.4 		"/>
		<polygon fill="none" stroke="#B1DCE2" stroke-width="0.5002" stroke-miterlimit="3.8636" points="58.6,117.4 69.2,123.5 
			65.1,130.6 68.6,132.6 72.7,125.6 79.8,129.6 81.8,126.1 35.8,99.6 33.8,103.1 40.9,107.2 36.8,114.3 40.3,116.3 44.4,109.2 
			55,115.3 46.8,129.5 50.4,131.5 		"/>
		<polygon fill="none" stroke="#B1DCE2" stroke-width="0.5002" stroke-miterlimit="3.8636" points="87.4,124.6 81.3,135.2 
			74.2,131.1 72.1,134.7 79.2,138.8 75.1,145.8 78.7,147.9 105.2,101.9 101.7,99.9 97.6,106.9 90.5,102.8 88.5,106.4 95.6,110.5 
			89.4,121.1 75.3,112.9 73.2,116.4 		"/>
		<polygon fill="none" stroke="#B1DCE2" stroke-width="0.5002" stroke-miterlimit="3.8636" points="43.6,61.6 54.2,67.7 50.1,74.8 
			53.7,76.9 57.8,69.8 64.8,73.9 66.9,70.3 20.9,43.8 18.9,47.3 25.9,51.4 21.8,58.5 25.4,60.5 29.5,53.4 40.1,59.6 31.9,73.7 
			35.4,75.8 		"/>
		<polygon fill="none" stroke="#B1DCE2" stroke-width="0.5002" stroke-miterlimit="3.8636" points="185,143.3 195.7,149.4 
			191.6,156.5 195.1,158.5 199.2,151.4 206.3,155.5 208.3,152 162.3,125.4 160.3,129 167.4,133.1 163.3,140.1 166.8,142.2 
			170.9,135.1 181.5,141.2 173.3,155.4 176.9,157.4 		"/>
		
			<rect x="24.5" y="76.9" transform="matrix(-0.866 -0.5 0.5 -0.866 5.9434 175.82)" fill="none" stroke="#B1DCE2" stroke-width="0.5002" stroke-miterlimit="3.8636" width="4.1" height="20.4"/>
		<polygon fill="none" stroke="#B1DCE2" stroke-width="0.5002" stroke-miterlimit="3.8636" points="-5.5,56.8 -16.1,50.7 -12,43.6 
			-15.6,41.6 -19.6,48.7 -26.7,44.6 -28.8,48.1 17.2,74.7 19.3,71.1 12.2,67 16.3,60 12.7,57.9 8.6,65 -2,58.9 6.2,44.7 2.7,42.7 		
			"/>
		
			<rect x="-10.9" y="56.5" transform="matrix(-0.5 0.866 -0.866 -0.5 44.5155 107.7486)" fill="none" stroke="#B1DCE2" stroke-width="0.5002" stroke-miterlimit="3.8636" width="4.1" height="20.4"/>
		<polygon fill="none" stroke="#B1DCE2" stroke-width="0.5002" stroke-miterlimit="3.8636" points="36.4,90.4 42.5,79.8 49.6,83.9 
			51.6,80.4 44.6,76.3 48.6,69.2 45.1,67.2 18.6,113.2 22.1,115.2 26.2,108.1 33.3,112.2 35.3,108.7 28.2,104.6 34.3,94 48.5,102.2 
			50.5,98.6 		"/>
		<polygon fill="none" stroke="#B1DCE2" stroke-width="0.5002" stroke-miterlimit="3.8636" points="-12.2,76.6 -1.6,82.7 -5.6,89.8 
			-2.1,91.8 2,84.7 9,88.8 11.1,85.3 -34.9,58.7 -36.9,62.3 -29.9,66.4 -33.9,73.4 -30.4,75.5 -26.3,68.4 -15.7,74.5 -23.9,88.7 
			-20.3,90.7 		"/>
		<polygon fill="none" stroke="#B1DCE2" stroke-width="0.5002" stroke-miterlimit="3.8636" points="16.7,83.8 10.5,94.4 3.5,90.3 
			1.4,93.8 8.5,97.9 4.4,105 8,107 34.5,61.1 31,59 26.9,66.1 19.8,62 17.8,65.6 24.8,69.6 18.7,80.2 4.6,72.1 2.5,75.6 		"/>
		
			<rect x="80.3" y="62" transform="matrix(-0.866 -0.5 0.5 -0.866 117.496 175.8187)" fill="none" stroke="#B1DCE2" stroke-width="0.5002" stroke-miterlimit="3.8636" width="4.1" height="20.4"/>
		
			<rect x="136" y="47" transform="matrix(-0.866 -0.5 0.5 -0.866 229.042 175.823)" fill="none" stroke="#B1DCE2" stroke-width="0.5002" stroke-miterlimit="3.8636" width="4.1" height="20.4"/>
		
			<rect x="65.3" y="6.2" transform="matrix(-0.866 -0.5 0.5 -0.866 117.4952 64.2663)" fill="none" stroke="#B1DCE2" stroke-width="0.5002" stroke-miterlimit="3.8636" width="4.1" height="20.4"/>
		
			<rect x="121.1" y="-8.8" transform="matrix(-0.866 -0.5 0.5 -0.866 229.0478 64.265)" fill="none" stroke="#B1DCE2" stroke-width="0.5002" stroke-miterlimit="3.8636" width="4.1" height="20.4"/>
		
			<rect x="115.6" y="82.4" transform="matrix(-0.5 0.866 -0.866 -0.5 256.678 37.025)" fill="none" stroke="#B1DCE2" stroke-width="0.5002" stroke-miterlimit="3.8636" width="4.1" height="20.4"/>
		
			<rect x="44.9" y="41.6" transform="matrix(-0.5 0.866 -0.866 -0.5 115.2357 37.0268)" fill="none" stroke="#B1DCE2" stroke-width="0.5002" stroke-miterlimit="3.8636" width="4.1" height="20.4"/>
		<polygon fill="none" stroke="#B1DCE2" stroke-width="0.5002" stroke-miterlimit="3.8636" points="121,82.7 110.4,76.6 114.5,69.5 
			110.9,67.5 106.9,74.6 99.8,70.5 97.7,74 143.7,100.5 145.8,97 138.7,92.9 142.8,85.9 139.2,83.8 135.1,90.9 124.5,84.8 
			132.7,70.6 129.2,68.6 		"/>
		<polygon fill="none" stroke="#B1DCE2" stroke-width="0.5002" stroke-miterlimit="3.8636" points="50.3,41.9 39.7,35.8 43.8,28.7 
			40.2,26.7 36.1,33.7 29.1,29.6 27,33.2 73,59.7 75,56.2 68,52.1 72,45 68.5,43 64.4,50.1 53.8,43.9 62,29.8 58.4,27.7 		"/>
		<polygon fill="none" stroke="#B1DCE2" stroke-width="0.5002" stroke-miterlimit="3.8636" points="35.3,-13.9 24.7,-20 28.8,-27.1 
			25.3,-29.1 21.2,-22.1 14.1,-26.1 12.1,-22.6 58,3.9 60.1,0.4 53,-3.7 57.1,-10.7 53.6,-12.8 49.5,-5.7 38.9,-11.8 47,-26 
			43.5,-28 		"/>
		
			<rect x="29.9" y="-14.2" transform="matrix(-0.5 0.866 -0.866 -0.5 44.5155 -33.693)" fill="none" stroke="#B1DCE2" stroke-width="0.5002" stroke-miterlimit="3.8636" width="4.1" height="20.4"/>
		
			<rect x="156.4" y="11.7" transform="matrix(-0.5 0.866 -0.866 -0.5 256.684 -104.4111)" fill="none" stroke="#B1DCE2" stroke-width="0.5002" stroke-miterlimit="3.8636" width="4.1" height="20.4"/>
		
			<rect x="85.7" y="-29.1" transform="matrix(-0.5 0.866 -0.866 -0.5 115.2344 -104.4153)" fill="none" stroke="#B1DCE2" stroke-width="0.5002" stroke-miterlimit="3.8636" width="4.1" height="20.4"/>
		<polygon fill="none" stroke="#B1DCE2" stroke-width="0.5002" stroke-miterlimit="3.8636" points="169,-16.8 162.9,-6.2 
			155.9,-10.3 153.8,-6.8 160.9,-2.7 156.8,4.4 160.3,6.4 186.9,-39.5 183.3,-41.6 179.3,-34.5 172.2,-38.6 170.1,-35.1 177.2,-31 
			171.1,-20.4 156.9,-28.5 154.9,-25 		"/>
		<polygon fill="none" stroke="#B1DCE2" stroke-width="0.5002" stroke-miterlimit="3.8636" points="133,4.8 139.1,-5.8 146.2,-1.7 
			148.2,-5.3 141.2,-9.4 145.2,-16.4 141.7,-18.5 115.2,27.5 118.7,29.5 122.8,22.5 129.9,26.5 131.9,23 124.8,18.9 131,8.3 
			145.1,16.5 147.1,12.9 		"/>
		<polygon fill="none" stroke="#B1DCE2" stroke-width="0.5002" stroke-miterlimit="3.8636" points="118,-51 124.2,-61.6 
			131.2,-57.5 133.3,-61.1 126.2,-65.1 130.3,-72.2 126.8,-74.3 100.2,-28.3 103.8,-26.2 107.8,-33.3 114.9,-29.2 117,-32.8 
			109.9,-36.8 116,-47.5 130.2,-39.3 132.2,-42.8 		"/>
		<polygon fill="none" stroke="#B1DCE2" stroke-width="0.5002" stroke-miterlimit="3.8636" points="77.2,19.7 83.3,9.1 90.4,13.2 
			92.5,9.7 85.4,5.6 89.5,-1.5 85.9,-3.5 59.4,42.4 62.9,44.5 67,37.4 74.1,41.5 76.1,38 69.1,33.9 75.2,23.3 89.3,31.4 91.4,27.9 
					"/>
		<polygon fill="none" stroke="#B1DCE2" stroke-width="0.5002" stroke-miterlimit="3.8636" points="147.9,60.6 154.1,50 161.1,54 
			163.2,50.5 156.1,46.4 160.2,39.3 156.7,37.3 130.1,83.3 133.6,85.3 137.7,78.2 144.8,82.3 146.8,78.8 139.8,74.7 145.9,64.1 
			160,72.3 162.1,68.7 		"/>
		<polygon fill="none" stroke="#B1DCE2" stroke-width="0.5002" stroke-miterlimit="3.8636" points="92.2,75.5 98.3,64.9 105.4,69 
			107.4,65.4 100.3,61.4 104.4,54.3 100.9,52.2 74.3,98.2 77.9,100.3 82,93.2 89,97.3 91.1,93.7 84,89.6 90.1,79 104.3,87.2 
			106.3,83.7 		"/>
		<polygon fill="none" stroke="#B1DCE2" stroke-width="0.5002" stroke-miterlimit="3.8636" points="62.3,-36 68.4,-46.7 75.5,-42.6 
			77.5,-46.1 70.4,-50.2 74.5,-57.3 71,-59.3 44.4,-13.3 48,-11.3 52.1,-18.4 59.1,-14.3 61.2,-17.8 54.1,-21.9 60.2,-32.5 
			74.4,-24.3 76.4,-27.9 		"/>
		<polygon fill="none" stroke="#B1DCE2" stroke-width="0.5002" stroke-miterlimit="3.8636" points="84.4,-9.1 95,-3 91,4.1 
			94.5,6.1 98.6,-0.9 105.7,3.1 107.7,-0.4 61.7,-26.9 59.7,-23.4 66.8,-19.3 62.7,-12.2 66.2,-10.2 70.3,-17.3 80.9,-11.1 72.7,3 
			76.3,5 		"/>
		<polygon fill="none" stroke="#B1DCE2" stroke-width="0.5002" stroke-miterlimit="3.8636" points="69.5,-64.9 80.1,-58.8 76,-51.7 
			79.6,-49.6 83.6,-56.7 90.7,-52.6 92.7,-56.2 46.8,-82.7 44.7,-79.2 51.8,-75.1 47.7,-68 51.3,-66 55.3,-73 66,-66.9 57.8,-52.8 
			61.3,-50.7 		"/>
		<polygon fill="none" stroke="#B1DCE2" stroke-width="0.5002" stroke-miterlimit="3.8636" points="99.4,46.7 110,52.8 105.9,59.9 
			109.4,61.9 113.5,54.8 120.6,58.9 122.6,55.4 76.7,28.8 74.6,32.4 81.7,36.5 77.6,43.5 81.2,45.6 85.2,38.5 95.8,44.6 87.7,58.8 
			91.2,60.8 		"/>
		<polygon fill="none" stroke="#B1DCE2" stroke-width="0.5002" stroke-miterlimit="3.8636" points="140.2,-24.1 150.8,-17.9 
			146.7,-10.9 150.3,-8.8 154.4,-15.9 161.4,-11.8 163.5,-15.3 117.5,-41.9 115.5,-38.3 122.5,-34.3 118.4,-27.2 122,-25.1 
			126.1,-32.2 136.7,-26.1 128.5,-11.9 132,-9.9 		"/>
		<polygon fill="none" stroke="#B1DCE2" stroke-width="0.5002" stroke-miterlimit="3.8636" points="155.2,31.7 165.8,37.8 
			161.7,44.9 165.2,47 169.3,39.9 176.4,44 178.4,40.4 132.4,13.9 130.4,17.4 137.5,21.5 133.4,28.6 136.9,30.6 141,23.6 
			151.6,29.7 143.5,43.8 147,45.9 		"/>
		<polygon fill="none" stroke="#B1DCE2" stroke-width="0.5002" stroke-miterlimit="3.8636" points="28.7,5.8 39.3,12 35.2,19 
			38.7,21.1 42.8,14 49.9,18.1 51.9,14.6 5.9,-12 3.9,-8.5 11,-4.4 6.9,2.7 10.4,4.7 14.5,-2.3 25.1,3.8 17,17.9 20.5,20 		"/>
		<polygon fill="none" stroke="#B1DCE2" stroke-width="0.5002" stroke-miterlimit="3.8636" points="113.3,-1.9 107.1,8.7 100.1,4.6 
			98,8.2 105.1,12.3 101,19.3 104.6,21.4 131.1,-24.6 127.6,-26.6 123.5,-19.6 116.4,-23.7 114.4,-20.1 121.4,-16 115.3,-5.4 
			101.2,-13.6 99.1,-10.1 		"/>
		<polygon fill="none" stroke="#B1DCE2" stroke-width="0.5002" stroke-miterlimit="3.8636" points="57.5,13.1 51.4,23.7 44.3,19.6 
			42.3,23.1 49.3,27.2 45.2,34.3 48.8,36.3 75.3,-9.7 71.8,-11.7 67.7,-4.6 60.6,-8.7 58.6,-5.2 65.7,-1.1 59.5,9.5 45.4,1.4 
			43.4,4.9 		"/>
		<polygon fill="none" stroke="#B1DCE2" stroke-width="0.5002" stroke-miterlimit="3.8636" points="72.4,68.8 66.3,79.4 59.2,75.4 
			57.2,78.9 64.3,83 60.2,90 63.7,92.1 90.3,46.1 86.7,44.1 82.6,51.2 75.6,47.1 73.5,50.6 80.6,54.7 74.5,65.3 60.3,57.1 
			58.3,60.7 		"/>
		<polygon fill="none" stroke="#B1DCE2" stroke-width="0.5002" stroke-miterlimit="3.8636" points="128.2,53.9 122.1,64.5 115,60.4 
			113,63.9 120.1,68 116,75.1 119.5,77.1 146,31.2 142.5,29.1 138.4,36.2 131.4,32.1 129.3,35.7 136.4,39.7 130.3,50.4 116.1,42.2 
			114.1,45.7 		"/>
		<polygon fill="none" stroke="#B1DCE2" stroke-width="0.5002" stroke-miterlimit="3.8636" points="98.3,-57.7 92.2,-47.1 
			85.1,-51.1 83.1,-47.6 90.2,-43.5 86.1,-36.4 89.6,-34.4 116.2,-80.4 112.6,-82.4 108.5,-75.3 101.5,-79.4 99.4,-75.9 
			106.5,-71.8 100.4,-61.2 86.2,-69.4 84.2,-65.8 		"/>
		<polygon fill="none" stroke="#B1DCE2" stroke-width="0.5002" stroke-miterlimit="3.8636" points="146.9,-43.8 136.3,-49.9 
			140.4,-57 136.8,-59 132.7,-51.9 125.7,-56 123.6,-52.5 169.6,-25.9 171.6,-29.5 164.6,-33.6 168.6,-40.6 165.1,-42.7 161,-35.6 
			150.4,-41.7 158.6,-55.9 155.1,-57.9 		"/>
		<polygon fill="none" stroke="#B1DCE2" stroke-width="0.5002" stroke-miterlimit="3.8636" points="76.1,-84.5 65.5,-90.6 
			69.6,-97.7 66,-99.7 61.9,-92.7 54.9,-96.7 52.8,-93.2 98.8,-66.7 100.8,-70.2 93.8,-74.3 97.9,-81.4 94.3,-83.4 90.2,-76.3 
			79.6,-82.4 87.8,-96.6 84.3,-98.6 		"/>
		<polygon fill="none" stroke="#B1DCE2" stroke-width="0.5002" stroke-miterlimit="3.8636" points="191.7,123.6 181.1,117.4 
			185.2,110.4 181.7,108.3 177.6,115.4 170.5,111.3 168.5,114.8 214.4,141.4 216.5,137.8 209.4,133.8 213.5,126.7 209.9,124.6 
			205.9,131.7 195.3,125.6 203.4,111.5 199.9,109.4 		"/>
		<polygon fill="none" stroke="#B1DCE2" stroke-width="0.5002" stroke-miterlimit="3.8636" points="106.1,26.9 95.4,20.8 99.5,13.7 
			96,11.7 91.9,18.8 84.8,14.7 82.8,18.2 128.8,44.8 130.8,41.2 123.7,37.2 127.8,30.1 124.3,28 120.2,35.1 109.6,29 117.8,14.8 
			114.2,12.8 		"/>
		<polygon fill="none" stroke="#B1DCE2" stroke-width="0.5002" stroke-miterlimit="3.8636" points="161.8,12 151.2,5.9 155.3,-1.2 
			151.8,-3.2 147.7,3.8 140.6,-0.2 138.6,3.3 184.5,29.8 186.6,26.3 179.5,22.2 183.6,15.1 180.1,13.1 176,20.2 165.4,14 
			173.5,-0.1 170,-2.1 		"/>
		<polygon fill="none" stroke="#B1DCE2" stroke-width="0.5002" stroke-miterlimit="3.8636" points="91.1,-28.8 80.5,-35 84.6,-42 
			81,-44.1 77,-37 69.9,-41.1 67.9,-37.5 113.8,-11 115.9,-14.5 108.8,-18.6 112.9,-25.7 109.3,-27.7 105.3,-20.7 94.6,-26.8 
			102.8,-40.9 99.3,-43 		"/>
		
			<rect x="100.7" y="26.6" transform="matrix(-0.5 0.866 -0.866 -0.5 185.9604 -33.6902)" fill="none" stroke="#B1DCE2" stroke-width="0.5002" stroke-miterlimit="3.8636" width="4.1" height="20.4"/>
		<polygon fill="none" stroke="#B1DCE2" stroke-width="0.5002" stroke-miterlimit="3.8636" points="-16.5,239.1 -27.1,233 
			-23,225.9 -26.6,223.9 -30.6,230.9 -37.7,226.9 -39.8,230.4 6.2,256.9 8.3,253.4 1.2,249.3 5.3,242.2 1.7,240.2 -2.3,247.3 
			-13,241.1 -4.8,227 -8.3,225 		"/>
		<polygon fill="none" stroke="#B1DCE2" stroke-width="0.5002" stroke-miterlimit="3.8636" points="-45.3,231.9 -39.2,221.3 
			-32.1,225.4 -30.1,221.8 -37.2,217.7 -33.1,210.7 -36.6,208.6 -63.2,254.6 -59.6,256.6 -55.5,249.6 -48.5,253.6 -46.4,250.1 
			-53.5,246 -47.4,235.4 -33.2,243.6 -31.2,240 		"/>
	</g>
</g>
</svg>
