<?xml version="1.0" encoding="utf-8"?>
<!-- Generator: Adobe Illustrator 15.1.0, SVG Export Plug-In . SVG Version: 6.00 Build 0)  -->
<!DOCTYPE svg PUBLIC "-//W3C//DTD SVG 1.1//EN" "http://www.w3.org/Graphics/SVG/1.1/DTD/svg11.dtd">
<svg version="1.1" id="Layer_1" xmlns="http://www.w3.org/2000/svg" xmlns:xlink="http://www.w3.org/1999/xlink" x="0px" y="0px"
	 width="396.667px" height="117.5px" viewBox="0 0 396.667 117.5" enable-background="new 0 0 396.667 117.5" xml:space="preserve">
<text transform="matrix(1 0 0 1 -648.9336 1185.4795)" font-family="'MyriadPro-Bold'" font-size="73.4137">Save 10% - 40%</text>
<image overflow="visible" opacity="0.75" enable-background="new    " width="763" height="158" xlink:href="324F89E5.png"  transform="matrix(0.2384 0 0 0.2385 102.7329 81.0615)">
</image>
<g>
	<g>
		<path fill="#F5F5F5" d="M122.578,83.063c7.012,0.433,11.78,3.356,14.306,8.772c0.531,1.662,0.798,3.39,0.798,5.185
			c0,3.821-1.13,7.095-3.39,9.819c-3.323,4.886-8.258,7.327-14.804,7.327h-1.895c-0.199,0-0.997-0.066-2.393-0.199l-1.595-0.15
			c-0.599,0.117-1.496,0.233-2.692,0.35h-1.346c-2.16,0-3.756-0.465-4.785-1.396c-0.033-0.065-0.05-0.115-0.05-0.149v-0.101
			c0-0.166,0.091-0.355,0.274-0.572c0.182-0.217,0.356-0.324,0.523-0.324l0.598-0.1c0.399-0.066,0.78-0.101,1.146-0.101h0.599
			c1.362,0,2.94,0.159,4.735,0.476c0.1,0,0.257,0.018,0.474,0.053c0.216,0.035,0.373,0.052,0.474,0.052
			c0.896,0.142,1.844,0.247,2.841,0.317c1.562-1.129,3.023-2.625,4.387-4.486c0.797-1.129,1.711-2.643,2.741-4.536
			c0.897-1.662,1.595-2.741,2.094-3.239c2.691-5.052,5.217-8.641,7.576-10.768c-3.329-3.854-7.441-5.782-12.335-5.782
			c-1.399,0-2.88,0.233-4.445,0.698c-0.2,0.066-0.633,0.25-1.298,0.548c-0.5,0.233-0.933,0.349-1.299,0.349
			c-4.628,3.09-6.941,6.879-6.941,11.365v0.598c0,0.199,0.017,0.399,0.05,0.599c0.467,0.997,0.983,1.894,1.551,2.692
			c0.833,1.229,2.385,1.844,4.652,1.844c1.435,0,2.868-0.299,4.303-0.896l0.2-0.199c0.066-0.066,0.133-0.116,0.2-0.149
			c1.9-1.994,2.852-3.739,2.852-5.233c0-1.264-0.316-2.16-0.947-2.693c-0.199-0.165-0.549-0.414-1.047-0.747l-0.1-0.101
			c-0.067-0.033-0.184-0.1-0.35-0.199c-0.864-0.032-1.911,0.383-3.14,1.246c-0.134,0.133-0.267,0.233-0.398,0.299
			c0.398-1.195,1.512-2.06,3.339-2.592c0.066,0,0.157-0.017,0.274-0.05c0.116-0.032,0.207-0.05,0.274-0.05
			c0.764,0.033,1.445,0.309,2.044,0.822c0.598,0.516,0.963,1.154,1.096,1.919c0.101,2.094-0.44,3.963-1.619,5.608
			c-1.181,1.645-2.767,2.898-4.761,3.763c-1.429,0.267-2.625,0.399-3.589,0.399c-2.16,0-3.688-0.565-4.586-1.695
			c-1.229-1.528-1.844-3.439-1.844-5.732c0-1.063,0.115-1.895,0.349-2.492c1.328-3.39,3.589-5.98,6.779-7.775
			c2.924-1.661,6.297-2.51,10.118-2.543v-0.047H122.578z M106.229,112.77c0.73,0.731,1.777,1.097,3.141,1.097h0.349
			c1.296,0,2.442-0.166,3.439-0.498c-0.466-0.033-1.246-0.282-2.343-0.748c-0.033,0-0.066-0.017-0.1-0.05h-0.05
			c-1.196-0.465-2.044-0.698-2.542-0.698c-0.798,0-1.43,0.315-1.895,0.946L106.229,112.77L106.229,112.77z M133.395,89.891
			c-2.293,3.125-3.987,6.016-5.084,8.674c-0.033,0.1-0.083,0.183-0.149,0.248c-1.729,3.489-3.174,6.049-4.337,7.677
			c-1.828,2.526-3.987,4.47-6.479,5.831c0.764,0.199,1.844,0.383,3.239,0.549h0.3c0.465,0.056,1.146,0.139,2.043,0.249
			c2.393-0.066,4.586-0.813,6.58-2.238c1.86-1.325,3.356-3.101,4.486-5.321c1.263-2.488,1.894-5.041,1.894-7.66
			c0-3.149-0.831-5.803-2.492-7.959L133.395,89.891L133.395,89.891z M152.236,84.258c1.396,0.766,2.276,1.729,2.642,2.891
			c-0.332,0-0.681-0.188-1.046-0.568l-0.051-0.104c-0.199-0.207-0.598-0.466-1.196-0.775c-1.628-0.862-3.556-1.293-5.781-1.293
			c-3.756,0-7.66,1.213-11.714,3.639c3.256-3.322,7.128-4.984,11.614-4.984c2.026,0,3.87,0.416,5.532,1.246V84.258L152.236,84.258z"
			/>
		<path fill="#F5F5F5" d="M142.467,104.396c0.398-0.101,0.764-0.149,1.097-0.149h0.299c1.229,0,1.877,0.466,1.944,1.396
			c0.265,3.09-1.629,5.782-5.683,8.075c-0.765,0.433-1.43,0.615-1.994,0.548c-0.598,0-1.03-0.065-1.296-0.199
			c-0.765-0.299-1.146-0.963-1.146-1.993v-0.448c0.032-0.133,0.133-0.548,0.299-1.246c0.931-2.625,3.091-4.604,6.48-5.932V104.396
			L142.467,104.396z M141.221,105.492c-2.526,2.048-3.789,4.096-3.789,6.144v0.544c0,0.166,0.034,0.348,0.101,0.545
			c0.067,0.596,0.535,0.893,1.406,0.893h0.151c0.133,0,0.25-0.018,0.351-0.051l0.302-0.099c1.205-0.659,2.242-1.601,3.113-2.823
			c0.87-1.223,1.339-2.479,1.405-3.768c0.066-1.123-0.542-1.686-1.824-1.686h-0.203c-0.067,0-0.136,0.033-0.202,0.101
			c-0.271,0.056-0.541,0.14-0.811,0.249V105.492z M145.457,112.189c0.266-0.236,0.681-0.608,1.246-1.114v-0.05l0.399-0.399
			c0.132-0.132,0.281-0.267,0.448-0.399c-0.565,1.784-2.193,3.129-4.885,4.039c0.166-0.168,0.997-0.76,2.492-1.772l0.149-0.152
			c0.033-0.034,0.083-0.067,0.149-0.102v-0.05H145.457z"/>
		<path fill="#F5F5F5" d="M151.438,104.695c0.232-0.1,0.481-0.182,0.748-0.25h0.199c0.499,0,0.748,0.199,0.748,0.599v0.149
			c0.1-0.066,0.249-0.133,0.448-0.2c0.665-0.232,1.213-0.349,1.646-0.349h0.149c-1.733,0.563-3.216,1.84-4.449,3.83
			c-0.498,0.797-1.528,2.56-3.09,5.284c-0.198,0-0.347,0.052-0.445,0.153c-0.396,0.104-0.643,0.152-0.743,0.152h-0.198
			c-0.065,0-0.214-0.082-0.445-0.25L151.438,104.695z M155.525,104.445c0.066,0.033,0.132,0.043,0.199,0.025
			c0.066-0.017,0.133-0.025,0.199-0.025c0.266,0,0.564,0,0.897,0h0.149c1.029,0.101,1.628,0.482,1.795,1.146
			c-0.267,0.897-0.923,2.127-1.97,3.689c-1.046,1.562-1.703,2.791-1.969,3.688v0.217c0,0.287,0.216,0.432,0.648,0.432
			c0.798,0,1.545-0.219,2.243-0.657c0.066,0,0.132-0.034,0.199-0.103c1.229-0.808,2.176-1.75,2.841-2.83
			c-0.366,1.197-1.08,2.062-2.143,2.593c-0.034,0.034-0.067,0.06-0.101,0.075c-0.033,0.018-0.066,0.041-0.1,0.074
			c-1.595,0.998-2.958,1.496-4.087,1.496c-0.632,0-1.015-0.27-1.146-0.807v-0.301c0-0.436,0.183-0.924,0.548-1.46l0.2-0.302
			c0.1-0.135,0.215-0.336,0.349-0.604l0.349-0.655c0.266-0.671,0.947-1.779,2.044-3.322l0.498-0.705v-0.102l0.1-0.101v-0.05v-0.201
			l-0.05-0.051c-0.033-0.234-0.299-0.554-0.797-0.957l-0.449-0.15L155.525,104.445z"/>
		<path fill="#F5F5F5" d="M169.382,91.436c0.765,0.067,1.146,0.482,1.146,1.246c0,0.334-0.681,1.414-2.043,3.24
			c-0.267,0.268-0.532,0.467-0.798,0.598c0.83-0.563,1.246-1.361,1.246-2.393c0-0.199-0.031-0.332-0.093-0.398
			c-0.403-0.232-0.604-0.582-0.604-1.047c0-0.798,0.381-1.195,1.146-1.195V91.436L169.382,91.436z"/>
		<path fill="#F5F5F5" d="M172.023,99.262c0.133,0.033,0.282,0.033,0.448,0l0.798-0.199c0.133-0.033,0.249-0.051,0.349-0.051
			c0.2,0,0.35,0.051,0.449,0.15c-0.267,0.432-0.798,1.329-1.596,2.691c-0.1,0.166-0.349,0.614-0.747,1.346
			c-0.1,0.199-0.299,0.564-0.599,1.097l2.742,0.149l-0.2,0.453c-0.033,0.031-0.066,0.045-0.1,0.045h-0.199c-0.033,0-0.066,0-0.1,0
			h-0.598c-0.134,0-0.267,0-0.399,0c-0.366,0-0.682,0-0.947,0c-0.266,0.035-0.681,0.434-1.246,1.197
			c-0.731,1.195-1.861,2.975-3.389,5.332c-0.433,0.434-0.648,0.897-0.648,1.396c0,0.333,0.216,0.615,0.648,0.847
			c0.73-0.065,1.619-0.415,2.666-1.047c1.047-0.631,1.77-1.246,2.169-1.844c0.165-0.101,0.398-0.282,0.697-0.548l0.1,0.05v0.1
			c-0.033,0.101-0.066,0.183-0.1,0.249c-1.063,0.932-2.31,1.895-3.738,2.891c-0.665,0.467-1.413,0.682-2.243,0.648
			c-0.731-0.033-1.313-0.216-1.744-0.548c-0.1-0.101-0.149-0.231-0.149-0.399v0.648c0-0.698,0.05-1.096,0.149-1.195
			c2.824-4.52,5.333-8.988,7.526-13.408L172.023,99.262L172.023,99.262z"/>
		<path fill="#F5F5F5" d="M190.067,105.691c-0.99,0.869-2.048,2.186-3.17,3.951c-0.1,0.2-0.964,1.678-2.592,4.436l-1.715-0.111
			l1.595-2.792c0.539-0.925,1.095-1.835,1.667-2.729c0-0.031,0.019-0.063,0.057-0.096l0.049-0.017c0.23-0.42,0.6-1.035,1.107-1.844
			c0.509-0.81,0.878-1.425,1.107-1.845h1.496v0.135c0,0.029,0.016,0.059,0.05,0.089v0.178c0,0.119-0.067,0.209-0.199,0.269
			l0.199,0.178h0.249c0.032,0,0.066-0.016,0.1-0.051c1.462-0.729,2.542-1.08,3.24-1.047c0.697,0.035,1.246,0.299,1.645,0.799
			c0.266,0.199,0.515,0.299,0.748,0.299c0.1,0,0.315-0.055,0.647-0.164c0.864-0.622,1.512-0.934,1.944-0.934h0.848
			c1.362,0,2.075,0.489,2.144,1.465c-1.063,2.322-2.343,4.509-3.839,6.562v0.748c0,0.267,0.116,0.449,0.35,0.548
			c0.996-0.066,1.959-0.499,2.891-1.296c0.133-0.166,0.863-0.963,2.193-2.394c-0.467,0.932-1.047,1.746-1.746,2.443
			c-1.295,1.295-2.625,1.877-3.986,1.744c-0.433,0-0.798-0.049-1.097-0.148c-0.232-0.231-0.349-0.529-0.349-0.894v-0.248
			c0.032-0.099,0.05-0.181,0.05-0.248c0.132-0.528,0.415-1.091,0.848-1.686c0.631-0.925,0.979-1.454,1.046-1.587
			c0.565-0.825,1.229-2.049,1.994-3.67c-0.23-0.562-0.693-0.842-1.386-0.842h-0.297c-0.297,0.063-0.66,0.188-1.089,0.377
			l-1.682,0.803l-4.9,8.121c0,0.046-0.049,0.053-0.146,0.02c-0.295,0-0.604,0-0.93,0h-0.686c1.694-2.484,3.322-5.357,4.885-8.615
			c-0.1-0.471-0.416-0.707-0.947-0.707c-0.167,0-0.349,0-0.548,0h-0.15c-0.066,0.039-0.116,0.058-0.149,0.058
			c-0.266,0.075-0.647,0.245-1.146,0.508l-0.199,0.112c-0.033,0.039-0.066,0.066-0.1,0.086c-0.034,0.019-0.066,0.047-0.1,0.085
			L190.067,105.691L190.067,105.691z"/>
		<path fill="#F5F5F5" d="M205.968,104.445l1.445,0.051c-0.221,0.574-0.471,1.132-0.752,1.671l-0.927,1.578
			c-0.065,0-0.101,0.05-0.101,0.149c-1.271,2.123-2.107,3.864-2.508,5.225c0.164,0.398,0.431,0.597,0.797,0.597
			c0.065-0.032,0.432-0.149,1.097-0.349c0.065-0.033,0.183-0.1,0.349-0.2l3.34-2.892c-0.598,0.932-1.595,1.945-2.99,3.041
			c-0.797,0.633-1.661,0.947-2.592,0.947h-0.448c-0.166,0-0.315-0.018-0.448-0.052c-0.432-0.069-0.73-0.401-0.896-0.995v-0.396
			c0-0.131,0.033-0.23,0.1-0.297l0.398-0.693c0.066-0.132,0.199-0.363,0.398-0.694l0.947-1.733c0.166-0.299,0.48-0.893,0.945-1.785
			c0.267-0.463,0.881-1.503,1.846-3.122V104.445z M208.56,100.208c0.6,0.101,0.896,0.349,0.896,0.748v0.104
			c0,0.316-0.199,0.598-0.599,0.842h-0.101c-0.032,0-0.065,0-0.1,0h-0.199c-0.531,0-0.797-0.231-0.797-0.697v-0.199
			c0.065-0.499,0.364-0.748,0.896-0.748v-0.05H208.56z"/>
		<path fill="#F5F5F5" d="M207.812,111.175c1.195-1.595,2.809-3.522,4.835-5.782c0.563-0.631,1.03-1.129,1.396-1.494
			c-0.1,1.096-0.148,1.994-0.148,2.69c0,0.333,0,0.683,0,1.047v1.196c0,2.525-0.896,4.236-2.691,5.134
			c-0.498,0.167-0.914,0.249-1.246,0.249h-0.199c-0.863,0-1.362-0.548-1.494-1.645v-0.299c0-0.332,0.1-0.799,0.299-1.396l-0.299,0.2
			c-0.2,0.133-0.35,0.183-0.449,0.149v-0.05H207.812z M211.85,106.938l-2.843,3.39l1.146-0.349c0.465,0.266,0.698,0.564,0.698,0.896
			c0,0.598-0.366,0.896-1.097,0.896h-0.149c-0.167,0.033-0.383,0.134-0.647,0.299c-0.033,0.068-0.051,0.134-0.051,0.201v0.397
			c0,0.067,0.018,0.133,0.051,0.2c0.199,0.665,0.647,0.997,1.346,0.997c0.765,0,1.379-0.382,1.845-1.146
			c0.365-0.664,0.548-1.412,0.548-2.244c0-1.029-0.248-2.094-0.746-3.189c0-0.133-0.035-0.232-0.101-0.299V106.938z M214.441,112.32
			c0.066-0.065,0.182-0.148,0.35-0.25l0.996-0.896c0.332-0.299,0.582-0.531,0.748-0.697c-1.396,1.662-2.742,2.84-4.037,3.539
			c0.133-0.133,0.779-0.682,1.943-1.646V112.32L214.441,112.32z"/>
		<path fill="#F5F5F5" d="M215.289,111.175c1.195-1.595,2.808-3.522,4.834-5.782c0.564-0.631,1.03-1.129,1.396-1.494
			c-0.1,1.096-0.148,1.994-0.148,2.69c0,0.333,0,0.683,0,1.047v1.196c0,2.525-0.897,4.236-2.691,5.134
			c-0.498,0.167-0.914,0.249-1.246,0.249h-0.199c-0.863,0-1.363-0.548-1.495-1.645v-0.299c0-0.332,0.101-0.799,0.3-1.396l-0.3,0.2
			c-0.2,0.133-0.35,0.183-0.448,0.149v-0.05H215.289z M219.326,106.938l-2.842,3.39l1.146-0.349
			c0.465,0.266,0.697,0.564,0.697,0.896c0,0.598-0.365,0.896-1.097,0.896h-0.149c-0.166,0.033-0.383,0.134-0.647,0.299
			c-0.033,0.068-0.05,0.134-0.05,0.201v0.397c0,0.067,0.017,0.133,0.05,0.2c0.198,0.665,0.647,0.997,1.346,0.997
			c0.765,0,1.38-0.382,1.845-1.146c0.365-0.664,0.549-1.412,0.549-2.244c0-1.029-0.25-2.094-0.748-3.189
			c0-0.133-0.033-0.232-0.1-0.299V106.938z M221.917,112.32c0.066-0.065,0.183-0.148,0.35-0.25l0.997-0.896
			c0.332-0.299,0.581-0.531,0.747-0.697c-1.396,1.662-2.741,2.84-4.037,3.539c0.133-0.133,0.779-0.682,1.943-1.646V112.32
			L221.917,112.32z"/>
		<path fill="#F5F5F5" d="M241.755,104.396c0.398-0.101,0.765-0.149,1.098-0.149h0.299c1.229,0,1.877,0.466,1.944,1.396
			c0.265,3.09-1.63,5.782-5.683,8.075c-0.766,0.433-1.431,0.615-1.994,0.548c-0.599,0-1.03-0.065-1.297-0.199
			c-0.765-0.299-1.146-0.963-1.146-1.993v-0.448c0.032-0.133,0.133-0.548,0.299-1.246c0.931-2.625,3.091-4.604,6.479-5.932V104.396
			L241.755,104.396z M240.509,105.492c-2.525,2.048-3.788,4.096-3.788,6.144v0.544c0,0.166,0.034,0.348,0.101,0.545
			c0.067,0.596,0.535,0.893,1.406,0.893h0.15c0.134,0,0.25-0.018,0.352-0.051l0.303-0.099c1.204-0.659,2.241-1.601,3.112-2.823
			c0.87-1.223,1.339-2.479,1.405-3.768c0.066-1.123-0.543-1.686-1.824-1.686h-0.203c-0.066,0-0.136,0.033-0.202,0.101
			c-0.271,0.056-0.541,0.14-0.812,0.249V105.492z M244.746,112.189c0.267-0.236,0.682-0.608,1.246-1.114v-0.05l0.399-0.399
			c0.132-0.132,0.28-0.267,0.448-0.399c-0.565,1.784-2.193,3.129-4.885,4.039c0.166-0.168,0.996-0.76,2.491-1.772l0.149-0.152
			c0.033-0.034,0.083-0.067,0.148-0.102v-0.05H244.746z"/>
		<path fill="#F5F5F5" d="M251.326,104.396c0.031,0,0.065,0,0.1,0h0.498c0.3,0,0.516,0.066,0.647,0.199
			c-0.466,0.869-0.997,1.738-1.595,2.606c-0.434,0.668-1.047,1.671-1.846,3.007c-0.631,1.17-0.996,2.122-1.096,2.857v0.199
			c0,0.301,0.182,0.451,0.549,0.451c0.465,0,1.078-0.182,1.844-0.548c0.332-0.166,0.979-0.448,1.943-0.847
			c0.83-1.03,1.694-2.293,2.592-3.789l2.394-3.938h1.595c-0.598,1.362-2.143,3.938-4.636,7.725v0.748
			c0,0.334,0.133,0.549,0.399,0.648h0.148c0,0.034,0.018,0.051,0.051,0.051h0.049c0.6,0,1.463-0.382,2.593-1.146
			c0.997-0.664,1.745-1.296,2.243-1.895c-0.398,1.164-1.495,2.162-3.291,2.991c-0.696,0.433-1.396,0.648-2.092,0.648
			c-0.6,0-1.064-0.166-1.396-0.499l-0.646-1.196c-0.467,0.247-0.965,0.463-1.496,0.647l-0.797,0.441
			c-0.965,0.404-1.746,0.606-2.344,0.606c-0.167,0-0.466-0.05-0.896-0.15c-0.365-0.233-0.549-0.6-0.549-1.102
			c0-0.802,0.199-1.452,0.599-1.954c1.528-2.537,3.007-4.775,4.437-6.712V104.396L251.326,104.396z"/>
		<path fill="#F5F5F5" d="M266.628,99.262c0.133,0.033,0.281,0.033,0.447,0l0.799-0.199c0.133-0.033,0.248-0.051,0.349-0.051
			c0.2,0,0.351,0.051,0.448,0.15c-0.267,0.432-0.797,1.329-1.596,2.691c-0.1,0.166-0.349,0.614-0.746,1.346
			c-0.101,0.199-0.3,0.564-0.6,1.097l2.742,0.149l-0.2,0.453c-0.033,0.031-0.065,0.045-0.101,0.045h-0.198c-0.033,0-0.066,0-0.101,0
			h-0.598c-0.134,0-0.268,0-0.398,0c-0.367,0-0.683,0-0.947,0c-0.266,0.035-0.682,0.434-1.246,1.197
			c-0.73,1.195-1.861,2.975-3.389,5.332c-0.434,0.434-0.648,0.897-0.648,1.396c0,0.333,0.216,0.615,0.648,0.847
			c0.729-0.065,1.619-0.415,2.666-1.047c1.047-0.631,1.77-1.246,2.168-1.844c0.166-0.101,0.398-0.282,0.697-0.548l0.1,0.05v0.1
			c-0.032,0.101-0.065,0.183-0.1,0.249c-1.063,0.932-2.31,1.895-3.738,2.891c-0.664,0.467-1.412,0.682-2.242,0.648
			c-0.731-0.033-1.313-0.216-1.744-0.548c-0.1-0.101-0.148-0.231-0.148-0.399v0.648c0-0.698,0.049-1.096,0.148-1.195
			c2.824-4.52,5.333-8.988,7.525-13.408v-0.051H266.628z"/>
		<path fill="#F5F5F5" d="M271.611,112.62v0.299c-0.166,1.063-0.797,1.595-1.895,1.595c-0.896,0-1.346-0.438-1.346-1.315v-0.304
			c0.166-1.113,0.797-1.67,1.895-1.67C271.164,111.292,271.611,111.756,271.611,112.62z M280.634,92.134
			c0.033,0.897-0.232,1.894-0.799,2.991c-0.198,0.366-0.765,1.264-1.693,2.691c-2.691,4.086-4.686,7.443-5.98,10.068l-0.3-0.05
			c0.83-1.627,2.159-5.284,3.987-10.966c0.232-0.764,0.664-1.911,1.296-3.439c0.53-1.296,1.229-1.943,2.094-1.943
			c0.931,0,1.396,0.232,1.396,0.697V92.134L280.634,92.134z"/>
	</g>
</g>
<image overflow="visible" opacity="0.75" enable-background="new    " width="508" height="192" xlink:href="324F89E7.png"  transform="matrix(0.2395 0 0 0.2375 -0.7061 28.1714)">
</image>
<g>
	<g>
		<path fill="#F7D442" d="M3.052,60.038c2.267,1.19,5.894,2.38,9.578,2.38c3.967,0,6.063-1.645,6.063-4.137
			c0-2.38-1.813-3.74-6.404-5.327c-6.347-2.267-10.54-5.78-10.54-11.334c0-6.517,5.497-11.448,14.45-11.448
			c4.364,0,7.481,0.85,9.748,1.927l-1.927,6.914c-1.474-0.737-4.251-1.813-7.935-1.813c-3.74,0-5.554,1.757-5.554,3.684
			c0,2.437,2.098,3.514,7.084,5.384c6.744,2.494,9.861,6.007,9.861,11.391c0,6.403-4.874,11.844-15.358,11.844
			c-4.363,0-8.671-1.19-10.824-2.38L3.052,60.038z"/>
		<path fill="#F7D442" d="M56.607,62.248c0,2.607,0.113,5.156,0.453,6.688h-7.764l-0.511-2.777h-0.17
			c-1.813,2.21-4.646,3.4-7.934,3.4c-5.61,0-8.954-4.082-8.954-8.502c0-7.197,6.46-10.597,16.265-10.597v-0.34
			c0-1.53-0.794-3.627-5.044-3.627c-2.833,0-5.837,0.963-7.65,2.097l-1.587-5.554c1.927-1.077,5.724-2.493,10.768-2.493
			c9.237,0,12.128,5.44,12.128,12.014V62.248z M48.276,55.844c-4.533,0-8.047,1.077-8.047,4.363c0,2.21,1.473,3.287,3.399,3.287
			c2.098,0,3.911-1.417,4.478-3.174c0.113-0.453,0.17-0.963,0.17-1.473V55.844z"/>
		<path fill="#F7D442" d="M69.189,41.223l3.741,12.865c0.68,2.38,1.133,4.534,1.586,6.744h0.17c0.454-2.267,0.907-4.364,1.53-6.744
			l3.57-12.865h9.067L78.541,68.936h-8.614L59.839,41.223H69.189z"/>
		<path fill="#F7D442" d="M98.604,57.828c0.227,3.57,3.797,5.271,7.82,5.271c2.946,0,5.327-0.397,7.65-1.19l1.134,5.837
			c-2.834,1.189-6.291,1.757-10.031,1.757c-9.407,0-14.791-5.44-14.791-14.111c0-7.027,4.363-14.791,13.998-14.791
			c8.954,0,12.354,6.97,12.354,13.828c0,1.474-0.171,2.777-0.284,3.4L98.604,57.828L98.604,57.828z M108.747,51.934
			c0-2.097-0.906-5.61-4.874-5.61c-3.627,0-5.1,3.344-5.326,5.61H108.747z"/>
	</g>
</g>
<image overflow="visible" opacity="0.75" enable-background="new    " width="1117" height="188" xlink:href="324F89E2.png"  transform="matrix(0.2385 0 0 0.2349 129.9312 31.3208)">
</image>
<g>
	<g>
		<path fill="#F7D442" d="M140.488,41.594h-0.113l-7.027,3.344l-1.416-6.461l9.804-4.534h7.084v36.836h-8.331V41.594H140.488z"/>
		<path fill="#F7D442" d="M188.149,52.192c0,11.333-4.59,19.21-13.94,19.21c-9.521,0-13.715-8.557-13.771-18.984
			c0-10.711,4.478-19.098,13.998-19.098C184.239,33.32,188.149,42.104,188.149,52.192z M169.052,52.418
			c0,8.443,2.04,12.468,5.327,12.468c3.344,0,5.157-4.194,5.157-12.581c0-8.161-1.757-12.468-5.214-12.468
			C171.205,39.837,169.052,43.804,169.052,52.418z"/>
		<path fill="#F7D442" d="M211.783,44.258c0,7.707-4.873,11.788-10.201,11.788c-5.609,0-10.03-4.194-10.03-11.165
			c0-6.574,4.023-11.561,10.372-11.561C208.212,33.32,211.783,37.967,211.783,44.258z M197.955,44.711
			c-0.057,3.854,1.304,6.631,3.796,6.631c2.438,0,3.627-2.494,3.627-6.688c0-3.74-1.02-6.63-3.739-6.63
			C199.089,38.024,197.955,40.971,197.955,44.711z M201.979,71.402l21.194-38.025h4.591l-21.14,38.025H201.979z M238.306,59.559
			c0,7.65-4.874,11.731-10.201,11.731c-5.555,0-9.975-4.194-9.975-11.108c0-6.574,4.023-11.561,10.313-11.561
			C234.735,48.622,238.306,53.269,238.306,59.559z M224.535,59.956c-0.058,3.854,1.303,6.63,3.739,6.63s3.627-2.493,3.627-6.63
			c0-3.74-1.021-6.63-3.685-6.63C225.667,53.325,224.535,56.272,224.535,59.956z"/>
		<path fill="#F7D442" d="M267.89,53.042v5.724h-14.848v-5.724H267.89z"/>
		<path fill="#F7D442" d="M298.664,70.779v-8.783h-16.322v-5.61l13.885-22.442h10.598v21.592h4.363v6.46h-4.363v8.783H298.664z
			 M298.664,55.535v-8.161c0-2.21,0.112-4.477,0.227-6.857h-0.17c-1.19,2.38-2.211,4.534-3.457,6.857l-4.874,8.047l-0.058,0.113
			L298.664,55.535L298.664,55.535z"/>
		<path fill="#F7D442" d="M342.074,52.192c0,11.333-4.59,19.21-13.941,19.21c-9.52,0-13.715-8.557-13.77-18.984
			c0-10.711,4.477-19.098,13.998-19.098C338.164,33.32,342.074,42.104,342.074,52.192z M322.976,52.418
			c0,8.443,2.039,12.468,5.326,12.468c3.346,0,5.158-4.194,5.158-12.581c0-8.161-1.758-12.468-5.215-12.468
			C325.128,39.837,322.976,43.804,322.976,52.418z"/>
		<path fill="#F7D442" d="M365.707,44.258c0,7.707-4.873,11.788-10.201,11.788c-5.609,0-10.029-4.194-10.029-11.165
			c0-6.574,4.023-11.561,10.371-11.561C362.136,33.32,365.707,37.967,365.707,44.258z M351.878,44.711
			c-0.057,3.854,1.305,6.631,3.797,6.631c2.439,0,3.627-2.494,3.627-6.688c0-3.74-1.02-6.63-3.738-6.63
			C353.013,38.024,351.878,40.971,351.878,44.711z M355.904,71.402l21.193-38.025h4.592L360.55,71.402H355.904z M392.228,59.559
			c0,7.65-4.873,11.731-10.199,11.731c-5.555,0-9.977-4.194-9.977-11.108c0-6.574,4.025-11.561,10.314-11.561
			C388.66,48.622,392.228,53.269,392.228,59.559z M378.458,59.956c-0.057,3.854,1.303,6.63,3.74,6.63
			c2.436,0,3.627-2.493,3.627-6.63c0-3.74-1.021-6.63-3.686-6.63C379.591,53.325,378.458,56.272,378.458,59.956z"/>
	</g>
</g>
<image overflow="visible" opacity="0.75" enable-background="new    " width="1042" height="71" xlink:href="324F89E3.png"  transform="matrix(0.2391 0 0 0.2332 71.8306 -0.7158)">
</image>
<g>
	<g>
		<path fill="#F5F5F5" d="M73.831,1.597c0.595-0.104,1.784-0.208,2.929-0.208c1.382,0,2.229,0.134,2.972,0.565
			c0.699,0.371,1.189,1.055,1.189,1.977c0,0.877-0.521,1.694-1.65,2.125v0.03c1.145,0.297,1.992,1.174,1.992,2.452
			c0,0.921-0.416,1.635-1.041,2.14c-0.728,0.58-1.946,0.907-3.938,0.907c-1.115,0-1.947-0.074-2.453-0.148V1.597z M76.075,5.431
			h0.743c1.204,0,1.828-0.49,1.828-1.233c0-0.758-0.579-1.159-1.604-1.159c-0.506,0-0.788,0.029-0.967,0.059V5.431z M76.075,9.875
			c0.224,0.03,0.491,0.03,0.877,0.03c1.025,0,1.933-0.401,1.933-1.457c0-0.996-0.907-1.397-2.036-1.397h-0.773L76.075,9.875
			L76.075,9.875z"/>
		<path fill="#F5F5F5" d="M106.9,6.368c0,3.299-1.977,5.276-4.919,5.276c-2.958,0-4.711-2.244-4.711-5.113
			c0-3.002,1.932-5.246,4.874-5.246C105.222,1.285,106.9,3.588,106.9,6.368z M99.663,6.486c0,1.977,0.921,3.359,2.438,3.359
			c1.53,0,2.407-1.457,2.407-3.403c0-1.813-0.847-3.359-2.407-3.359C100.555,3.083,99.663,4.54,99.663,6.486z"/>
		<path fill="#F5F5F5" d="M132.479,6.368c0,3.299-1.977,5.276-4.919,5.276c-2.958,0-4.711-2.244-4.711-5.113
			c0-3.002,1.932-5.246,4.874-5.246C130.801,1.285,132.479,3.588,132.479,6.368z M125.242,6.486c0,1.977,0.921,3.359,2.438,3.359
			c1.53,0,2.407-1.457,2.407-3.403c0-1.813-0.847-3.359-2.407-3.359C126.134,3.083,125.242,4.54,125.242,6.486z"/>
		<path fill="#F5F5F5" d="M148.89,1.463h2.244v4.429h0.03c0.223-0.387,0.461-0.743,0.698-1.1l2.259-3.329h2.795l-3.314,4.266
			l3.478,5.751h-2.631l-2.467-4.325l-0.848,1.055v3.27h-2.244V1.463z"/>
		<path fill="#F5F5F5" d="M185.958,11.48L183.58,1.463h2.423l0.758,4.117c0.223,1.204,0.431,2.497,0.595,3.508h0.029
			c0.164-1.085,0.401-2.289,0.654-3.538l0.847-4.087h2.408l0.803,4.221c0.223,1.174,0.386,2.244,0.535,3.359h0.029
			c0.148-1.115,0.371-2.289,0.579-3.493l0.817-4.087h2.304l-2.586,10.017h-2.452l-0.847-4.31c-0.193-1.011-0.356-1.947-0.476-3.091
			h-0.03c-0.178,1.129-0.342,2.081-0.579,3.091l-0.951,4.31H185.958z"/>
		<path fill="#F5F5F5" d="M214.732,1.463V11.48h-2.259V1.463H214.732z"/>
		<path fill="#F5F5F5" d="M232.984,3.365h-2.705V1.463h7.699v1.902h-2.734v8.115h-2.26V3.365z"/>
		<path fill="#F5F5F5" d="M256.378,1.463v3.849h3.73V1.463h2.26V11.48h-2.26V7.289h-3.73v4.191h-2.258V1.463H256.378z"/>
		<path fill="#F5F5F5" d="M287.503,1.463v5.751c0,1.739,0.668,2.616,1.813,2.616c1.189,0,1.844-0.832,1.844-2.616V1.463h2.26v5.618
			c0,3.092-1.562,4.563-4.178,4.563c-2.525,0-3.998-1.412-3.998-4.592V1.463H287.503z"/>
		<path fill="#F5F5F5" d="M310.376,9.146c0.594,0.312,1.545,0.625,2.512,0.625c1.041,0,1.59-0.431,1.59-1.085
			c0-0.625-0.475-0.981-1.68-1.397c-1.664-0.595-2.764-1.516-2.764-2.973c0-1.709,1.441-3.002,3.789-3.002
			c1.145,0,1.963,0.223,2.557,0.505l-0.506,1.813c-0.385-0.193-1.113-0.476-2.08-0.476c-0.98,0-1.457,0.461-1.457,0.966
			c0,0.639,0.551,0.922,1.859,1.412c1.768,0.654,2.586,1.575,2.586,2.987c0,1.679-1.279,3.106-4.027,3.106
			c-1.145,0-2.273-0.312-2.84-0.624L310.376,9.146z"/>
	</g>
</g>
<path fill="none" d="M734.167,652c0.824-0.006,1.49,0.327,2,1"/>
</svg>
