<?xml version="1.0" encoding="utf-8"?>
<!-- Generator: Adobe Illustrator 16.0.0, SVG Export Plug-In . SVG Version: 6.00 Build 0)  -->
<!DOCTYPE svg PUBLIC "-//W3C//DTD SVG 1.1//EN" "http://www.w3.org/Graphics/SVG/1.1/DTD/svg11.dtd">
<svg version="1.1" id="Layer_1" xmlns="http://www.w3.org/2000/svg" xmlns:xlink="http://www.w3.org/1999/xlink" x="0px" y="0px"
	 width="47.843px" height="45.18px" viewBox="0 0 47.843 45.18" enable-background="new 0 0 47.843 45.18" xml:space="preserve">
<g>
	<path fill="#505455" d="M25.282,29.211C25.281,29.211,25.281,29.211,25.282,29.211c-0.805,0-1.609-0.008-2.41-0.017
		c-4.648-0.052-8.526-0.293-12.341-1.304c-7.122-1.887-9.918-5.98-10.034-6.153L0,20.992L23.447,1.35h0.838l23.559,19.735
		l-0.62,0.764c-0.143,0.177-3.589,4.347-10.996,6.271C32.541,29.079,28.788,29.211,25.282,29.211z M2.733,21.311
		c1.06,1.137,3.655,3.414,8.31,4.646c3.615,0.958,7.352,1.188,11.851,1.237c0.793,0.009,1.59,0.017,2.388,0.017
		c3.374,0,6.974-0.125,10.443-1.026c4.957-1.288,7.991-3.693,9.258-4.887L23.866,3.607L2.733,21.311z"/>
	<polygon fill="#505455" points="20.442,28.567 19.453,28.417 23.646,0.586 34.287,26.711 33.361,27.088 24.092,4.334 	"/>
	<polygon fill="#505455" points="13.261,27.747 12.339,27.36 21.247,6.104 5.892,25.124 5.113,24.496 24.889,0 	"/>
	<polygon fill="#505455" points="26.389,27.738 23.183,0.109 41.42,23.826 40.627,24.435 24.593,3.583 27.382,27.623 	"/>
	<path fill="#505455" d="M24.774,38.075l13.33-8.457c-0.629,0.131-1.289,0.257-1.994,0.37l0.002,0.001l-0.109,0.017l-0.064,0.01
		l-0.002,0c-0.707,0.111-1.452,0.21-2.217,0.298L24.44,37.28c-0.518-0.473-1.482-0.587-2.183-0.251l-8.946-6.715
		c-0.764-0.088-1.509-0.187-2.217-0.298v0l-0.066-0.01l-0.108-0.017l0.001-0.001c-0.846-0.136-1.646-0.287-2.378-0.449l13.014,8.544
		c0.028,0.221,0.141,0.423,0.32,0.591c-1.063,1.015-1.217,2.39-0.388,3.51c0.386,0.522,1.03,0.925,1.142,1.536
		c0.094,0.523-0.141,1.08-0.66,1.46c0.99-0.066,1.986-0.085,2.979-0.058c0.161-1.105-0.431-2.03-1.313-2.909
		c-0.975-0.97-1.216-1.98-1.026-3.153c0.193,0.05,0.389,0.073,0.594,0.07c-0.102,1.034,0.256,2.142,1.349,2.878
		c0.485,0.326,1.083,0.543,1.54,0.896c0.504,0.39,0.869,0.87,1.045,1.384c0.479-0.5,1.54-0.44,2.019-0.952
		c0.487-0.521-0.573-1.374-1.11-1.686c-0.775-0.45-1.801-0.604-2.588-1.058c-0.716-0.414-1.279-0.957-1.635-1.561
		C24.352,38.863,24.725,38.502,24.774,38.075z"/>
</g>
</svg>
