<?xml version="1.0" encoding="utf-8"?>
<!-- Generator: Adobe Illustrator 16.0.0, SVG Export Plug-In . SVG Version: 6.00 Build 0)  -->
<!DOCTYPE svg PUBLIC "-//W3C//DTD SVG 1.1//EN" "http://www.w3.org/Graphics/SVG/1.1/DTD/svg11.dtd">
<svg version="1.1" id="Layer_1" xmlns="http://www.w3.org/2000/svg" xmlns:xlink="http://www.w3.org/1999/xlink" x="0px" y="0px"
	 width="45.431px" height="46.2px" viewBox="0 0 45.431 46.2" enable-background="new 0 0 45.431 46.2" xml:space="preserve">
<g>
	<g>
		<path fill-rule="evenodd" clip-rule="evenodd" fill="#505455" d="M22.753,26.609c0-1.434-0.006-2.869,0.003-4.303
			c0.007-0.891,0.244-1.155,0.978-1.155s0.984,0.276,1.007,1.14c0.01,0.41-0.004,0.82,0.003,1.229
			c0.01,0.708,0.084,0.741,0.761,0.547c1.424-0.404,2.767-0.197,3.706,0.987c0.448,0.565,0.706,1.388,0.773,2.122
			c0.127,1.284,0.088,2.593,0.012,3.887c-0.021,0.347-0.37,0.845-0.685,0.955c-0.313,0.113-0.806-0.104-1.146-0.305
			c-0.164-0.096-0.206-0.482-0.21-0.74c-0.024-1.161-0.008-2.322-0.015-3.483c-0.005-0.914-0.325-1.378-0.992-1.465
			c-1.073-0.143-1.856,0.245-2.008,1.149c-0.154,0.934-0.151,1.897-0.202,2.847c-0.019,0.362,0.01,0.729-0.005,1.092
			c-0.03,0.695-0.307,0.972-0.95,0.977c-0.718,0.009-1.01-0.243-1.019-0.972c-0.02-1.502-0.007-3.005-0.007-4.508
			C22.756,26.609,22.756,26.609,22.753,26.609z"/>
		<path fill-rule="evenodd" clip-rule="evenodd" fill="#505455" d="M10.184,29.907c1.205,0,2.18-0.008,3.158,0.002
			c0.792,0.007,1.07,0.248,1.076,0.898c0.005,0.66-0.321,0.959-1.109,0.964c-1.615,0.009-3.231-0.005-4.848,0.007
			c-0.475,0.005-0.926-0.012-1.134-0.534c-0.218-0.545-0.071-1.012,0.319-1.437c1.067-1.177,2.128-2.36,3.184-3.549
			c0.271-0.305,0.543-0.62,0.752-0.968c0.285-0.467,0.559-0.981,0.172-1.52c-0.314-0.439-1.243-0.596-1.831-0.319
			c-0.366,0.172-0.713,0.39-1.04,0.622C8.354,24.451,7.836,24.438,7.49,24c-0.343-0.435-0.28-0.989,0.215-1.375
			c1.199-0.936,2.488-1.433,4.051-0.968c2.079,0.621,2.589,2.67,1.521,4.361c-0.695,1.102-1.646,2.043-2.477,3.061
			C10.625,29.297,10.463,29.53,10.184,29.907z"/>
		<path fill-rule="evenodd" clip-rule="evenodd" fill="#505455" d="M16.532,27.266c0.538,0,0.907,0.057,1.243-0.021
			c0.188-0.043,0.429-0.295,0.458-0.482c0.068-0.446,0.017-0.909,0.03-1.365c0.019-0.596,0.397-0.86,0.933-0.858
			c0.518,0.004,0.844,0.309,0.886,0.844c0.025,0.271,0.017,0.547,0.007,0.82c-0.019,0.571-0.121,1.115,0.772,1.162
			c0.479,0.025,0.614,0.549,0.567,1.021c-0.041,0.425-0.204,0.753-0.708,0.73c-0.526-0.026-0.662,0.266-0.633,0.73
			c0.019,0.317,0.011,0.637,0,0.956c-0.024,0.571-0.401,0.957-0.932,0.968c-0.56,0.013-0.873-0.319-0.9-0.948
			c-0.068-1.678-0.068-1.678-1.725-1.678c-0.5,0-1.003,0.011-1.502-0.012c-0.883-0.042-1.299-0.693-0.874-1.456
			c1.061-1.9,2.154-3.782,3.254-5.659c0.309-0.531,0.965-0.707,1.407-0.44c0.46,0.274,0.53,0.751,0.177,1.375
			C18.213,24.33,17.424,25.703,16.532,27.266z"/>
		<path fill="#505455" d="M33.341,46.2l-8.131-5.683c-11.233,1.817-18.961-2.552-22.467-7.279
			c-3.033-4.089-3.586-9.045-1.479-13.257C6.253,9.998,17.643,9.899,17.809,9.899c0,0,0.001,0,0.001,0l-0.004,1.5l0,0
			c-0.12,0-10.625,0.098-15.201,9.251c-1.848,3.696-1.347,8.067,1.342,11.693c3.273,4.413,10.595,8.474,21.315,6.644l0.304-0.052
			l6.786,4.743l1.971-9.117l0.184-0.163c1.091-0.967,2.865-2.922,2.978-4.048l1.492,0.149c-0.186,1.857-2.556,4.175-3.291,4.854
			L33.341,46.2z"/>
	</g>
	<path fill="#505455" d="M39.523,27.417c-2.459,0-5.278-1.328-8.379-3.948C25.225,18.218,19.071,12.177,18.177,7.07
		c-0.422-2.4,0.404-3.993,1.171-4.907C20.604,0.669,22.51,0,23.843,0c0.472,0,0.879,0.081,1.209,0.241l0.125,0.073
		c1.208,0.819,4.705,4.091,5.062,5.086l0.059,0.146c0.445,1.061,0.672,2.432-0.827,4.618c1.417,1.735,4.21,4.943,5.997,6.14
		c0.244-0.174,0.559-0.446,0.685-0.578l0.006,0.006c0.358-0.37,1.167-0.781,2.161-0.781c0.774,0,1.957,0.257,3.193,1.48
		c0.356,0.353,0.732,0.685,1.1,1.009c1.782,1.576,3.999,3.538,2.073,6.9C43.548,26.324,41.715,27.416,39.523,27.417z M23.843,2
		c-0.868,0-2.164,0.498-2.963,1.45c-0.718,0.855-0.965,1.957-0.733,3.275c0.793,4.527,6.993,10.519,12.306,15.232
		c4.715,3.983,8.679,4.56,10.498,1.389c1.071-1.871,0.264-2.703-1.663-4.408c-0.395-0.349-0.798-0.707-1.181-1.085
		c-0.605-0.599-1.207-0.902-1.787-0.902c-0.42,0-0.712,0.164-0.776,0.203c-0.389,0.396-1.357,1.273-2.141,1.273c0,0,0,0,0,0
		c-0.297,0-0.57-0.105-0.779-0.29c-2.723-1.667-7.015-7.094-7.199-7.328l-0.486-0.618l0.485-0.618
		c1.561-1.989,1.229-2.781,1.03-3.254c-0.038-0.09-0.072-0.172-0.099-0.248c-0.279-0.483-2.933-3.135-4.212-4.042
		C24.09,2.017,23.991,2,23.843,2z"/>
</g>
</svg>
