<?xml version="1.0" encoding="utf-8"?>
<!-- Generator: Adobe Illustrator 16.0.0, SVG Export Plug-In . SVG Version: 6.00 Build 0)  -->
<!DOCTYPE svg PUBLIC "-//W3C//DTD SVG 1.1//EN" "http://www.w3.org/Graphics/SVG/1.1/DTD/svg11.dtd">
<svg version="1.1" id="Layer_1" xmlns="http://www.w3.org/2000/svg" xmlns:xlink="http://www.w3.org/1999/xlink" x="0px" y="0px"
	 width="69.443px" height="69.447px" viewBox="0 0 69.443 69.447" enable-background="new 0 0 69.443 69.447" xml:space="preserve">
<path fill="#FFFFFF" d="M34.722,69.328c-19.081,0-34.604-15.522-34.604-34.604c0-19.081,15.523-34.604,34.604-34.604
	c19.079,0,34.604,15.523,34.604,34.604C69.326,53.806,53.802,69.328,34.722,69.328z M34.722,1.12
	c-18.53,0-33.604,15.075-33.604,33.604c0,18.53,15.075,33.604,33.604,33.604c18.528,0,33.604-15.074,33.604-33.604
	C68.326,16.195,53.252,1.12,34.722,1.12z"/>
<path fill="none" d="M-15.647,506.576c-0.484-0.648-1.215-1.146-2.14-1.479C-16.862,505.432-16.131,505.928-15.647,506.576z"/>
<path fill="none" d="M-18.512,504.876c0.12,0.03,0.229,0.07,0.344,0.104C-18.283,504.946-18.392,504.906-18.512,504.876z"/>
<path fill="#FFFFFF" d="M-18.168,504.98c0.128,0.036,0.264,0.07,0.384,0.114C-17.906,505.053-18.04,505.019-18.168,504.98z"/>
<path fill="#FFFFFF" d="M46.273,42.642c0.583-1.053,0.313-2.098-0.71-2.729c-0.485-0.301-0.993-0.564-1.473-0.876
	c-0.119-0.079-0.227-0.271-0.232-0.415c-0.031-0.52-0.02-1.041-0.022-1.563c-0.012-1.328-0.791-2.108-2.108-2.119
	c-0.521-0.003-1.043,0.013-1.563-0.021c-0.154-0.01-0.354-0.123-0.438-0.251c-0.303-0.455-0.555-0.941-0.837-1.407
	c-0.652-1.075-1.721-1.349-2.815-0.73c-0.453,0.255-0.913,0.502-1.351,0.782c-0.229,0.146-0.401,0.125-0.621-0.011
	c-0.453-0.281-0.92-0.538-1.388-0.797c-1.042-0.581-2.102-0.309-2.73,0.709c-0.294,0.475-0.578,0.957-0.843,1.448
	c-0.114,0.21-0.252,0.279-0.483,0.273c-0.533-0.012-1.067,0.001-1.601,0.005c-1.226,0.008-2.023,0.792-2.052,2.023
	c-0.012,0.546,0.009,1.096-0.025,1.639c-0.012,0.154-0.122,0.355-0.25,0.441c-0.454,0.303-0.938,0.559-1.405,0.84
	c-1.072,0.646-1.354,1.686-0.752,2.775c0.251,0.457,0.495,0.918,0.778,1.354c0.166,0.254,0.143,0.444-0.011,0.688
	c-0.275,0.438-0.53,0.896-0.779,1.352c-0.575,1.054-0.302,2.097,0.721,2.729c0.464,0.285,0.935,0.563,1.416,0.82
	c0.218,0.117,0.313,0.252,0.307,0.506c-0.014,0.533-0.001,1.066,0.011,1.602c0.023,1.251,0.768,2.002,2.025,2.037
	c0.533,0.016,1.067,0.018,1.602,0.004c0.248-0.006,0.396,0.083,0.515,0.301c0.236,0.436,0.505,0.854,0.745,1.284
	c0.229,0.418,0.555,0.729,0.958,0.956c0.767,0.348,1.763,0.532,2.579,0.143c0.646-0.311,1.547-0.184,2.071-0.066
	c0.667,0.117,1.44,0.385,2.471-0.094c0.004-0.002,0.008-0.002,0.012-0.004c0.036-0.018,0.07-0.03,0.109-0.047
	c0.748-0.445,1.039-1.24,1.438-1.933c0.231-0.396,0.483-0.585,0.956-0.548c0.519,0.039,1.042,0.021,1.563-0.014
	c0.952-0.061,1.695-0.787,1.761-1.736c0.042-0.62,0.035-1.244,0.027-1.866c-0.003-0.243,0.063-0.396,0.289-0.517
	c0.46-0.242,0.902-0.518,1.354-0.779c1.102-0.646,1.393-1.707,0.771-2.83c-0.264-0.479-0.558-0.938-0.804-1.426
	c-0.063-0.126-0.058-0.344,0.008-0.473C45.708,43.604,46.003,43.13,46.273,42.642z M41.682,42.925
	c-0.651,0.486-1.313,0.959-1.972,1.438c-0.462,0.337-0.919,0.681-1.388,1.006c-0.185,0.129-0.229,0.244-0.154,0.472
	c0.434,1.287,0.852,2.579,1.26,3.873c0.215,0.683-0.08,1.249-0.697,1.284c-0.265,0.018-0.576-0.104-0.8-0.262
	c-1.073-0.744-2.132-1.518-3.177-2.301c-0.263-0.197-0.429-0.188-0.687,0.006c-1.046,0.785-2.11,1.545-3.17,2.313
	c-0.47,0.338-0.854,0.359-1.229,0.088c-0.332-0.238-0.425-0.637-0.254-1.172c0.406-1.271,0.811-2.539,1.239-3.799
	c0.09-0.266,0.019-0.389-0.182-0.53c-1.083-0.774-2.158-1.563-3.24-2.345c-0.309-0.223-0.522-0.486-0.506-0.881
	c0.021-0.51,0.396-0.848,0.979-0.859c0.698-0.016,1.397-0.004,2.095-0.004c0,0,0-0.002,0-0.004c0.675,0,1.348-0.012,2.021,0.006
	c0.243,0.006,0.355-0.068,0.433-0.309c0.404-1.27,0.813-2.537,1.252-3.795c0.092-0.26,0.267-0.541,0.485-0.688
	c0.507-0.34,1.104-0.044,1.325,0.617c0.342,1.021,0.671,2.049,1.006,3.072c0.032,0.099,0.063,0.192,0.097,0.289
	c0.27,0.8,0.27,0.804,1.09,0.807c1.095,0.004,2.187,0,3.277,0.001c0.127,0,0.254-0.003,0.381,0.006
	c0.477,0.033,0.773,0.249,0.896,0.642C42.18,42.28,42.059,42.642,41.682,42.925z"/>
<path fill="#FFFFFF" d="M37.993,56.263c0.03-0.016,0.07-0.025,0.1-0.043c-0.037,0.018-0.071,0.031-0.107,0.047
	C37.986,56.265,37.989,56.265,37.993,56.263z"/>
<path fill="#FFFFFF" d="M26.448,33.073c0.372-0.063,0.761-0.021,1.138-0.065c0.146-0.018,0.316-0.122,0.41-0.238
	c0.412-0.511,0.812-1.034,1.191-1.568c0.183-0.255,0.327-0.541,0.478-0.818c1.171-2.166,2.335-4.335,3.515-6.499
	c0.109-0.204,0.11-0.353,0.001-0.556c-1.542-2.845-3.081-5.693-4.608-8.547c-0.272-0.509-0.638-0.89-1.154-1.119
	c-0.62-0.069-1.067-0.054-1.067-0.054c-2.646,0.982-5.205,1.929-7.763,2.882c-1.055,0.394-1.567,1.078-1.477,2.043
	c0.032,0.34,0.162,0.701,0.345,0.991c2.787,4.426,5.592,8.841,8.383,13.264C25.998,33.041,26.145,33.125,26.448,33.073z"/>
<path fill="#FFFFFF" d="M50.311,16.513c-2.535-0.951-5.076-1.886-7.617-2.879c-0.708-0.031-1.125-0.039-1.125-0.039l-0.32,0.135
	c-0.54,0.288-0.852,0.796-1.145,1.34c-2.633,4.897-5.276,9.788-7.916,14.681c-0.083,0.155-0.162,0.313-0.271,0.521
	c0.199,0.036,0.364,0.04,0.506,0.097c0.551,0.222,1.104,0.437,1.634,0.706c0.269,0.137,0.469,0.16,0.723-0.008
	c0.576-0.381,1.197-0.673,1.896-0.741c1.671-0.161,2.98,0.468,3.811,1.911c0.352,0.61,0.74,0.756,1.412,0.826
	c0.784,0.082,1.094-0.243,1.456-0.823c2.646-4.229,5.323-8.439,7.997-12.652C52.142,18.339,51.719,17.041,50.311,16.513z"/>
<path fill="#FFFFFF" d="M37.555,56.454c0.008-0.004,0.012-0.006,0.012-0.006c-0.004,0.002-0.009,0.004-0.014,0.006
	C37.553,56.454,37.554,56.454,37.555,56.454z"/>
<path fill="#FFFFFF" d="M37.567,56.448c0.16-0.049,0.295-0.115,0.426-0.186c-0.004,0.002-0.007,0.002-0.01,0.004
	C37.741,56.37,37.567,56.448,37.567,56.448z"/>
<path fill="#FFFFFF" d="M31.088,56.469c-0.038-0.014-0.059-0.021-0.059-0.021s0.002,0.009,0.006,0.021
	C31.053,56.469,31.071,56.469,31.088,56.469z"/>
</svg>
