<?xml version="1.0" encoding="utf-8"?>
<!-- Generator: Adobe Illustrator 15.1.0, SVG Export Plug-In . SVG Version: 6.00 Build 0)  -->
<!DOCTYPE svg PUBLIC "-//W3C//DTD SVG 1.1//EN" "http://www.w3.org/Graphics/SVG/1.1/DTD/svg11.dtd">
<svg version="1.1" id="Layer_1" xmlns="http://www.w3.org/2000/svg" xmlns:xlink="http://www.w3.org/1999/xlink" x="0px" y="0px"
	 width="340.833px" height="77.75px" viewBox="0 0 340.833 77.75" enable-background="new 0 0 340.833 77.75" xml:space="preserve">
<g>
	<path fill="#6DAC44" d="M207.004,34.213c0,0,8.403-31.068,45.604-29.265c32.063,1.555,34.627,0.467,40.575-1.563
		c0,0-3.441,5.112-37.313,3.697C234.137,6.174,219.281,12.791,207.004,34.213z"/>
	<path fill="#768035" d="M202.927,43.748c0,0,9.709-39.235,53.76-35.448c36.833,3.167,41.178,0.49,51.748-4.275
		c0,0-9.833,11.387-45.255,7.542C234.766,8.482,217.059,18.369,202.927,43.748z"/>
	<polygon fill="#5A4B2B" points="218.414,29.823 218.91,30.715 218.421,29.812 	"/>
	<polygon fill="#5A4B2B" points="222.952,27.615 222.796,27.331 222.946,27.617 	"/>
	<polygon fill="#5A4B2B" points="220.399,27.331 220.24,27.021 220.236,27.027 	"/>
	<path fill="#5A4B2B" d="M139.247,40.803V17.189c0-0.343,0.2-0.734,0.598-1.175h-4.476c0.4,0.44,0.599,0.832,0.599,1.175v23.613
		c0,0.33-0.199,0.708-0.599,1.134h20.123l0.578-2.104c-0.51,0.646-1.059,0.969-1.65,0.969H139.247z"/>
	<path fill="#5A4B2B" d="M190.688,16.015h-4.433c0.356,0.44,0.535,0.818,0.535,1.134v20.065c0,0.358-0.687,0.937-2.062,1.732
		c-1.746,1.004-3.601,1.506-5.568,1.506c-0.714,0-1.409-0.069-2.083-0.206c-1.003-0.165-2.2-0.907-3.587-2.228
		c-1.608-1.554-2.414-3.095-2.414-4.619V17.149c0-0.316,0.2-0.694,0.598-1.134h-4.475c0.399,0.44,0.598,0.818,0.598,1.134V33.4
		c0,2.515,1.127,4.673,3.382,6.474c2.075,1.692,4.392,2.536,6.948,2.536c3.699,0,6.586-1.244,8.662-3.732v2.125
		c0,0.302-0.179,0.679-0.535,1.134h4.433c-0.371-0.455-0.556-0.833-0.556-1.134V17.149
		C190.131,16.833,190.316,16.455,190.688,16.015z"/>
	<path fill="#5A4B2B" d="M222.829,40.803l-7.125-13.188l-0.006,0.002l-0.149-0.286l-0.164-0.304l0.004-0.006l-0.516-0.991
		l-4.851-8.881c-0.164-0.316-0.178-0.694-0.042-1.134h-4.474c0.646,0.44,1.057,0.818,1.237,1.134l6.331,11.692l-0.031,0.049
		l0.518,0.934l0.009-0.012l0.488,0.903l0.215,0.385l-0.215-0.385l5.47,10.088c0.165,0.302,0.18,0.679,0.041,1.134h4.477
		C223.398,41.482,222.993,41.104,222.829,40.803z"/>
	<path fill="#5A4B2B" d="M264.199,16.015h-4.433c0.357,0.44,0.536,0.818,0.536,1.134v20.065c0,0.358-0.688,0.937-2.063,1.732
		c-1.745,1.004-3.602,1.506-5.566,1.506c-0.716,0-1.41-0.069-2.083-0.206c-1.004-0.165-2.201-0.907-3.589-2.228
		c-1.607-1.554-2.413-3.095-2.413-4.619V17.149c0-0.316,0.2-0.694,0.597-1.134h-4.474c0.398,0.44,0.597,0.818,0.597,1.134V33.4
		c0,2.515,1.127,4.673,3.382,6.474c2.076,1.692,4.393,2.536,6.949,2.536c3.7,0,6.584-1.244,8.663-3.732v2.125
		c0,0.302-0.179,0.679-0.536,1.134h4.433c-0.371-0.455-0.556-0.833-0.556-1.134V17.149
		C263.644,16.833,263.828,16.455,264.199,16.015z"/>
	<path fill="#5A4B2B" d="M291.601,29.481c1.772-0.702,3.098-1.814,3.979-3.341c0.618-1.072,0.941-2.145,0.969-3.216
		c0.028-2.049-0.888-3.734-2.74-5.054c-1.722-1.236-3.773-1.855-6.168-1.855h-5.753c0.397,0.44,0.597,0.818,0.597,1.134v23.654
		c0,0.302-0.199,0.679-0.597,1.134h4.474c-0.369-0.455-0.556-0.833-0.556-1.134V30.284h2.083c2.104,2.928,4.131,5.376,6.083,7.343
		c0.811,0.811,1.566,1.498,2.268,2.063c1.953,1.718,3.994,2.577,6.126,2.577c0.881,0,1.656-0.139,2.33-0.413
		c-1.472-0.028-3.43-1.238-5.878-3.628C295.298,34.787,292.892,31.874,291.601,29.481z M287.537,29.006l-1.732,0.042V17.272h1.609
		c1.689,0,3.113,0.647,4.268,1.938c1.016,1.183,1.552,2.448,1.606,3.795c0.056,1.746-0.591,3.232-1.936,4.454
		C290.141,28.491,288.869,29.006,287.537,29.006z"/>
	<path fill="#5A4B2B" d="M328.306,16.015c0.264,0.137,0.395,0.343,0.395,0.619c0,0.178-0.077,0.364-0.229,0.556l-6.536,10.848
		l-6.619-10.889c-0.208-0.316-0.256-0.694-0.143-1.134h-4.727c0.675,0.44,1.095,0.818,1.261,1.134l7.484,12.291v11.363
		c0,0.302-0.185,0.679-0.556,1.134h4.435c-0.36-0.455-0.537-0.833-0.537-1.134V28.966l7.01-11.653
		c0.249-0.398,0.613-0.736,1.094-1.01c0.192-0.11,0.406-0.207,0.638-0.289H328.306z"/>
	<g>
		<g>
			<g>
				<path fill="#6B431C" d="M129.447,59.531c0.119,0.485,0.578,1.776,0.579,2.28c0.604-0.885,1.233-1.746,1.888-2.582
					c0.656-0.836,1.335-1.646,2.041-2.431c0.688-0.765,1.39-1.509,2.105-2.234c0.713-0.724,1.466-1.397,2.256-2.021
					c0.706-0.543,1.471-1.055,2.295-1.537c0.824-0.481,1.666-0.75,2.525-0.809c0.387-0.039,0.754,0.038,1.1,0.231
					c0.345,0.193,0.561,0.543,0.647,1.047c0.068,0.465,0.027,0.919-0.123,1.363c-0.151,0.443-0.327,0.867-0.528,1.27
					c-0.47,0.967-1.01,1.879-1.623,2.735c-0.613,0.856-1.187,1.737-1.724,2.644c-0.218,0.363-0.432,0.72-0.642,1.073
					c-0.21,0.353-0.406,0.71-0.592,1.072c0.773-0.946,1.567-1.856,2.382-2.732c0.814-0.875,1.65-1.725,2.508-2.55
					c0.706-0.664,1.449-1.333,2.231-2.006c0.782-0.674,1.61-1.17,2.485-1.49c0.118-0.04,0.266-0.085,0.442-0.135
					c0.176-0.049,0.349-0.075,0.518-0.074c0.168,0,0.308,0.051,0.417,0.152c0.11,0.102,0.148,0.273,0.115,0.515
					c-0.049,0.323-0.197,0.626-0.44,0.907c-0.244,0.282-0.449,0.523-0.616,0.725c-0.539,0.665-1.096,1.34-1.676,2.023
					c-0.58,0.685-1.134,1.394-1.662,2.129c-0.529,0.735-1.003,1.511-1.422,2.327c-0.419,0.817-0.729,1.679-0.928,2.586
					c-0.05,0.222-0.083,0.439-0.099,0.651c-0.017,0.211-0.007,0.409,0.026,0.59c0.034,0.182,0.111,0.338,0.229,0.47
					c0.118,0.132,0.294,0.209,0.53,0.229c0.456,0.042,0.923-0.001,1.403-0.131c0.48-0.129,0.938-0.273,1.376-0.435
					c0.437-0.16,0.875-0.35,1.313-0.571c0.438-0.221,0.867-0.441,1.288-0.662l1.261-0.662c0.084-0.04,0.164-0.086,0.24-0.135
					c0.075-0.051,0.156-0.035,0.24,0.045c0.101,0.061,0.148,0.162,0.14,0.304s-0.063,0.241-0.164,0.302
					c-0.403,0.241-0.808,0.457-1.21,0.647c-0.404,0.19-0.8,0.396-1.187,0.617c-0.438,0.221-0.88,0.436-1.325,0.646
					c-0.446,0.21-0.888,0.417-1.325,0.617c-0.236,0.1-0.493,0.195-0.77,0.285c-0.277,0.089-0.56,0.154-0.846,0.194
					s-0.568,0.029-0.847-0.032c-0.278-0.062-0.527-0.205-0.747-0.427c-0.203-0.202-0.342-0.445-0.418-0.728
					c-0.077-0.283-0.107-0.576-0.09-0.878c0.015-0.303,0.065-0.605,0.149-0.908c0.083-0.302,0.175-0.575,0.276-0.816
					c0.233-0.706,0.527-1.362,0.879-1.966s0.713-1.198,1.082-1.782c0.067-0.101,0.265-0.378,0.592-0.831
					c0.327-0.454,0.701-0.972,1.121-1.557c0.419-0.584,0.844-1.172,1.272-1.767c0.428-0.595,0.776-1.092,1.044-1.496
					c-0.269,0.08-0.534,0.18-0.795,0.3c-0.26,0.121-0.509,0.261-0.744,0.422c-0.438,0.281-0.858,0.577-1.261,0.889
					c-0.403,0.312-0.799,0.638-1.186,0.98c-0.772,0.704-1.516,1.438-2.23,2.203c-0.715,0.765-1.416,1.56-2.104,2.386
					c-1.428,1.71-2.754,3.483-3.979,5.316c-0.084,0.121-0.168,0.267-0.252,0.438s-0.193,0.307-0.327,0.408
					c-0.136,0.1-0.274,0.1-0.417-0.001c-0.144-0.102-0.224-0.253-0.241-0.455c-0.018-0.223,0.065-0.454,0.25-0.696
					c0.185-0.241,0.319-0.442,0.404-0.604l1.032-1.692c0.62-1.007,1.232-2.015,1.837-3.022c0.603-1.007,1.207-2.015,1.811-3.022
					c0.353-0.584,0.708-1.164,1.07-1.738c0.36-0.574,0.691-1.173,0.993-1.798c0.051-0.121,0.139-0.307,0.264-0.56
					c0.125-0.251,0.234-0.514,0.327-0.786c0.091-0.272,0.145-0.54,0.162-0.802c0.017-0.262-0.043-0.454-0.179-0.576
					c-0.168-0.142-0.371-0.213-0.606-0.214c-0.236,0-0.48,0.033-0.733,0.104c-0.252,0.07-0.497,0.161-0.732,0.27
					c-0.236,0.111-0.429,0.195-0.581,0.255c-0.926,0.4-1.809,0.908-2.649,1.52c-0.841,0.613-1.647,1.302-2.421,2.066
					c-1.814,1.791-3.469,3.773-4.962,5.949c-0.235,0.343-0.462,0.68-0.68,1.012c-0.218,0.333-0.437,0.669-0.654,1.012
					c-0.199,0.807-0.488,1.593-0.865,2.359c-0.377,0.766-0.793,1.421-1.246,1.964c-0.151,0.181-0.303,0.307-0.454,0.377
					c-0.152,0.07-0.283,0.09-0.391,0.059c-0.11-0.03-0.182-0.102-0.216-0.213c-0.034-0.111-0.001-0.278,0.1-0.499
					c0.268-0.686,0.582-1.331,0.943-1.935c0.36-0.604,0.725-1.199,1.095-1.783c0.217-0.646,0.325-1.341,0.323-2.089
					c0-0.101-0.022-0.222-0.064-0.363c-0.042-0.142-0.072-0.288-0.09-0.439c-0.017-0.152-0.42-1.089-0.412-1.221
					c0.008-0.131,0.063-0.247,0.164-0.348c0.134-0.12,0.273-0.145,0.417-0.074C129.298,59.253,129.396,59.369,129.447,59.531z"/>
				<path fill="#6B431C" d="M151.535,63.399c0.304-0.181,0.619-0.381,0.945-0.603c0.328-0.221,0.661-0.411,0.998-0.572
					c0.217-0.463,0.527-0.84,0.931-1.132c0.403-0.291,0.833-0.486,1.288-0.586c0.235-0.039,0.509-0.039,0.821,0.003
					c0.312,0.042,0.553,0.194,0.722,0.457c0.119,0.162,0.148,0.333,0.089,0.515c-0.058,0.182-0.159,0.353-0.302,0.514
					c-0.143,0.162-0.302,0.307-0.479,0.438c-0.176,0.131-0.307,0.226-0.39,0.286c-0.303,0.222-0.635,0.387-0.998,0.497
					c-0.362,0.11-0.728,0.144-1.099,0.102h-0.101c0.067,0.444,0.221,0.788,0.458,1.032c0.237,0.242,0.515,0.42,0.835,0.531
					c0.32,0.112,0.653,0.159,0.998,0.14c0.346-0.019,0.661-0.058,0.948-0.118c0.404-0.1,0.8-0.225,1.187-0.375
					c0.387-0.15,0.765-0.325,1.136-0.526c0.167-0.1,0.34-0.195,0.517-0.285c0.177-0.09,0.341-0.186,0.491-0.286
					c0.119-0.041,0.241-0.019,0.367,0.062c0.127,0.082,0.14,0.212,0.039,0.393c-0.084,0.162-0.201,0.272-0.353,0.332
					c-0.15,0.061-0.286,0.121-0.404,0.181l-1.261,0.662c-0.774,0.361-1.54,0.661-2.297,0.9c-0.336,0.08-0.678,0.104-1.023,0.072
					c-0.346-0.031-0.666-0.124-0.961-0.276c-0.295-0.152-0.561-0.37-0.797-0.653c-0.238-0.284-0.407-0.647-0.509-1.092
					c-0.034-0.161-0.063-0.324-0.089-0.485c-0.026-0.161-0.022-0.313,0.012-0.455c-0.186,0.101-0.366,0.216-0.543,0.348
					c-0.177,0.13-0.332,0.246-0.466,0.346c-0.084,0.04-0.194,0.115-0.328,0.226c-0.135,0.111-0.27,0.115-0.404,0.013
					c-0.102-0.08-0.148-0.192-0.14-0.333C151.38,63.531,151.434,63.44,151.535,63.399z M154.11,62.561
					c0.405-0.019,0.796-0.138,1.175-0.359c0.378-0.221,0.709-0.502,0.996-0.845c-0.236-0.102-0.468-0.132-0.695-0.093
					c-0.227,0.04-0.438,0.12-0.631,0.24c-0.194,0.121-0.366,0.277-0.518,0.468C154.286,62.163,154.177,62.359,154.11,62.561z"/>
				<path fill="#6B431C" d="M160.404,63.46c0.942-0.562,1.846-1.205,2.713-1.929c0.865-0.724,1.701-1.478,2.508-2.263l0.429-0.453
					c0.251-0.584,0.515-1.168,0.792-1.753c0.276-0.585,0.573-1.149,0.892-1.693c0.202-0.342,0.424-0.68,0.667-1.012
					c0.244-0.332,0.534-0.588,0.87-0.769c0.101-0.06,0.223-0.1,0.367-0.12c0.142-0.02,0.273-0.014,0.392,0.016
					c0.118,0.031,0.218,0.097,0.303,0.198c0.084,0.102,0.119,0.253,0.102,0.455c-0.016,0.182-0.062,0.358-0.137,0.529
					c-0.076,0.171-0.167,0.333-0.277,0.484c-0.11,0.151-0.223,0.301-0.34,0.452c-0.119,0.151-0.227,0.287-0.327,0.408
					c-0.287,0.343-0.576,0.685-0.87,1.027c-0.294,0.343-0.592,0.685-0.895,1.026c-0.186,0.202-0.371,0.407-0.555,0.619
					c-0.185,0.211-0.37,0.408-0.554,0.589l-1.507,3.568c0.167-0.14,0.336-0.281,0.504-0.423c0.167-0.14,0.343-0.271,0.529-0.392
					c0.219-0.16,0.467-0.341,0.745-0.542c0.277-0.2,0.567-0.376,0.87-0.527c0.302-0.15,0.61-0.24,0.921-0.27s0.595,0.048,0.848,0.23
					c0.151,0.103,0.244,0.224,0.278,0.365c0.034,0.141,0.034,0.288,0.001,0.439c-0.034,0.151-0.092,0.297-0.176,0.438
					c-0.084,0.142-0.176,0.272-0.276,0.393c-0.471,0.482-1.013,0.834-1.627,1.054c-0.615,0.22-1.233,0.328-1.857,0.327
					c0.288,0.405,0.625,0.734,1.013,0.987c0.388,0.254,0.81,0.341,1.265,0.262c0.589-0.099,1.162-0.273,1.717-0.524
					c0.556-0.25,1.094-0.546,1.615-0.889c0.084-0.06,0.193-0.145,0.328-0.255c0.135-0.111,0.269-0.125,0.403-0.044
					c0.085,0.061,0.131,0.157,0.14,0.289c0.009,0.131-0.038,0.237-0.139,0.317c-0.067,0.061-0.129,0.105-0.188,0.136
					c-0.06,0.031-0.123,0.065-0.19,0.105c-0.235,0.161-0.47,0.312-0.707,0.452c-0.235,0.141-0.471,0.27-0.706,0.391
					c-0.37,0.221-0.741,0.432-1.111,0.632c-0.371,0.201-0.741,0.331-1.111,0.39c-0.371,0.059-0.741,0.032-1.112-0.08
					c-0.372-0.111-0.734-0.371-1.088-0.776c-0.188-0.202-0.36-0.424-0.521-0.667c-0.161-0.243-0.309-0.485-0.444-0.729
					c-0.167,0.181-0.328,0.373-0.479,0.574c-0.15,0.201-0.293,0.403-0.428,0.605c-0.05,0.1-0.104,0.191-0.163,0.271
					c-0.059,0.081-0.131,0.171-0.214,0.272c-0.135,0.161-0.273,0.267-0.417,0.316c-0.143,0.05-0.257-0.096-0.341-0.44
					c-0.051-0.141-0.052-0.262-0.001-0.364c0.05-0.1,0.109-0.211,0.175-0.332l0.805-1.36c0.251-0.443,0.482-0.887,0.692-1.331
					c0.209-0.444,0.423-0.887,0.641-1.33l0.251-0.514c-0.319,0.301-0.639,0.588-0.958,0.859c-0.32,0.271-0.639,0.548-0.958,0.829
					c-0.37,0.302-0.736,0.588-1.097,0.858c-0.361,0.272-0.744,0.548-1.147,0.83c-0.084,0.081-0.197,0.181-0.34,0.302
					c-0.143,0.121-0.282,0.16-0.417,0.12c-0.152-0.001-0.244-0.086-0.278-0.259C160.195,63.667,160.253,63.54,160.404,63.46z
					 M165.812,63.207c0.54-0.018,1.041-0.154,1.502-0.404c0.463-0.25,0.871-0.607,1.223-1.071c-0.151,0-0.307,0.024-0.467,0.074
					c-0.161,0.051-0.308,0.096-0.441,0.135c-0.152,0.041-0.337,0.125-0.556,0.255c-0.219,0.132-0.434,0.267-0.644,0.407
					c-0.21,0.14-0.395,0.271-0.554,0.392c-0.16,0.12-0.257,0.192-0.291,0.211L165.812,63.207z M168.019,56.612
					c0.202-0.261,0.419-0.548,0.654-0.86c0.236-0.312,0.437-0.64,0.604-0.982c-0.42,0.282-0.798,0.668-1.135,1.162
					c-0.335,0.494-0.628,1.023-0.879,1.587L168.019,56.612z"/>
				<path fill="#6B431C" d="M174.427,62.115c0.336-0.16,0.687-0.3,1.048-0.42c0.362-0.12,0.711-0.24,1.047-0.36
					c0.219-0.14,0.463-0.25,0.732-0.331s0.513-0.039,0.733,0.124c0.135,0.122,0.185,0.284,0.152,0.485
					c0.118-0.02,0.236,0.021,0.354,0.123c0.22,0.263,0.296,0.577,0.231,0.939c-0.067,0.363-0.193,0.716-0.376,1.059
					c0.067,0.101,0.168,0.202,0.304,0.303c0.27,0.204,0.565,0.295,0.885,0.276c0.319-0.019,0.623-0.079,0.909-0.179
					c0.083-0.02,0.21-0.08,0.378-0.18c0.167-0.1,0.341-0.196,0.518-0.287c0.177-0.089,0.34-0.149,0.492-0.18
					c0.152-0.03,0.253,0.016,0.304,0.138c0.067,0.162,0.06,0.298-0.024,0.408c-0.084,0.112-0.198,0.202-0.34,0.271
					c-0.143,0.07-0.292,0.136-0.443,0.196c-0.151,0.06-0.251,0.1-0.302,0.12c-0.253,0.101-0.518,0.18-0.795,0.24
					c-0.278,0.059-0.551,0.089-0.822,0.088c-0.269-0.001-0.53-0.047-0.783-0.139c-0.253-0.092-0.473-0.248-0.657-0.471l-0.555,0.694
					c-0.202,0.222-0.428,0.443-0.681,0.664c-0.252,0.222-0.516,0.407-0.794,0.558c-0.277,0.15-0.568,0.245-0.871,0.285
					c-0.304,0.039-0.59-0.013-0.86-0.154c-0.337-0.183-0.536-0.42-0.595-0.714c-0.061-0.292-0.04-0.601,0.06-0.923
					c0.1-0.323,0.242-0.635,0.427-0.938c0.185-0.302,0.361-0.554,0.528-0.755l0.479-0.573c-0.389,0.16-0.766,0.34-1.136,0.542
					c-0.37,0.2-0.741,0.411-1.11,0.631c-0.067,0.041-0.151,0.096-0.252,0.166c-0.101,0.07-0.202,0.136-0.303,0.195
					c-0.1,0.061-0.197,0.106-0.29,0.136s-0.172,0.014-0.24-0.046c-0.118-0.081-0.169-0.192-0.153-0.334
					c0.017-0.14,0.075-0.241,0.176-0.302L174.427,62.115z M175.289,63.177c-0.067,0.082-0.189,0.232-0.366,0.454
					c-0.176,0.222-0.332,0.453-0.465,0.695c-0.135,0.242-0.213,0.469-0.238,0.68c-0.025,0.212,0.081,0.339,0.317,0.38
					c0.437,0.083,0.854,0.063,1.25-0.056c0.396-0.121,0.753-0.351,1.074-0.693c0.133-0.161,0.259-0.312,0.376-0.453
					c0.118-0.14,0.219-0.302,0.302-0.483c-0.085-0.262-0.13-0.545-0.141-0.849c-0.01-0.302,0.053-0.564,0.188-0.786
					c-0.472,0.039-0.897,0.159-1.275,0.359C175.932,62.625,175.591,62.876,175.289,63.177z"/>
				<path fill="#6B431C" d="M181.658,63.533c0.185-0.121,0.505-0.327,0.959-0.618s0.921-0.567,1.4-0.828
					c0.48-0.26,0.921-0.441,1.325-0.541c0.405-0.1,0.658-0.018,0.758,0.244c0.069,0.203,0.048,0.399-0.061,0.591
					c-0.109,0.191-0.188,0.368-0.238,0.528l-0.301,0.848c0.218-0.161,0.437-0.302,0.656-0.422c0.218-0.12,0.437-0.241,0.656-0.361
					c0.538-0.342,1.093-0.703,1.665-1.084c0.571-0.381,1.151-0.672,1.741-0.872c0.22-0.06,0.413-0.063,0.582-0.013
					c0.168,0.051,0.299,0.142,0.392,0.273c0.093,0.132,0.14,0.304,0.14,0.516c0.001,0.212-0.066,0.438-0.201,0.68
					c-0.151,0.283-0.314,0.534-0.491,0.756c-0.176,0.221-0.357,0.463-0.542,0.725c-0.034,0.061-0.092,0.141-0.175,0.241
					c-0.085,0.101-0.172,0.217-0.266,0.348c-0.092,0.131-0.176,0.262-0.25,0.392c-0.077,0.132-0.123,0.248-0.139,0.348
					c0.117,0.041,0.265,0.042,0.441,0.002c0.177-0.04,0.354-0.095,0.531-0.165c0.176-0.069,0.344-0.145,0.504-0.225
					c0.16-0.08,0.281-0.14,0.366-0.181l1.034-0.542c0.067-0.04,0.155-0.1,0.265-0.181c0.109-0.08,0.223-0.155,0.341-0.226
					c0.117-0.07,0.232-0.135,0.341-0.195c0.109-0.062,0.197-0.09,0.265-0.09c0.151,0,0.227,0.091,0.229,0.273
					c0,0.181-0.067,0.323-0.202,0.423c-0.151,0.101-0.311,0.196-0.479,0.287c-0.168,0.089-0.344,0.186-0.529,0.286
					c-0.236,0.161-0.463,0.301-0.681,0.421c-0.219,0.121-0.447,0.25-0.682,0.391c-0.135,0.081-0.35,0.195-0.644,0.346
					c-0.294,0.151-0.589,0.26-0.884,0.33c-0.294,0.07-0.551,0.059-0.771-0.033c-0.22-0.091-0.329-0.339-0.33-0.743
					c-0.001-0.202,0.041-0.383,0.125-0.545c0.083-0.161,0.18-0.317,0.289-0.468c0.109-0.152,0.227-0.297,0.353-0.438
					c0.126-0.141,0.239-0.271,0.341-0.394c0.1-0.1,0.268-0.311,0.502-0.633c0.236-0.322,0.386-0.625,0.454-0.907
					c-0.456,0.059-0.914,0.199-1.377,0.419c-0.462,0.221-0.887,0.452-1.274,0.692c-0.488,0.281-0.993,0.597-1.514,0.949
					c-0.521,0.351-0.975,0.769-1.361,1.251c-0.085,0.081-0.173,0.126-0.266,0.136s-0.181-0.011-0.266-0.062
					c-0.084-0.05-0.147-0.126-0.19-0.228c-0.043-0.1-0.047-0.231-0.014-0.393c0.05-0.182,0.176-0.343,0.378-0.483
					c0.084-0.161,0.167-0.348,0.251-0.56c0.083-0.211,0.142-0.337,0.176-0.377c0.033-0.141,0.065-0.288,0.1-0.439
					c0.033-0.151,0.058-0.307,0.075-0.469c-0.185,0.06-0.371,0.131-0.556,0.21c-0.186,0.08-0.328,0.14-0.429,0.18
					c-0.236,0.121-0.471,0.236-0.708,0.346c-0.236,0.111-0.471,0.236-0.707,0.376c-0.134,0.08-0.256,0.161-0.365,0.241
					c-0.109,0.081-0.232,0.15-0.366,0.211c-0.101,0.06-0.199,0.074-0.291,0.044c-0.093-0.031-0.165-0.077-0.215-0.137
					c-0.051-0.061-0.073-0.136-0.064-0.227C181.477,63.668,181.541,63.593,181.658,63.533z"/>
				<path fill="#6B431C" d="M193.182,63.573c0.438-0.261,0.866-0.513,1.287-0.753c0.421-0.241,0.849-0.461,1.287-0.662
					c0.472-0.2,0.938-0.35,1.401-0.449c0.462-0.099,0.948-0.148,1.453-0.146c0.186,0,0.329,0.057,0.43,0.167
					c0.102,0.112,0.11,0.298,0.028,0.561c-0.101,0.201-0.253,0.302-0.454,0.301c-0.44-0.042-0.882-0.043-1.328-0.004
					c-0.446,0.039-0.872,0.159-1.276,0.359c-0.134,0.06-0.277,0.151-0.428,0.271c-0.151,0.121-0.29,0.257-0.417,0.408
					c-0.125,0.15-0.213,0.317-0.264,0.499c-0.051,0.182-0.033,0.374,0.052,0.575c0.135,0.344,0.393,0.547,0.772,0.609
					c0.378,0.062,0.703,0.052,0.973-0.027c0.219-0.06,0.412-0.14,0.58-0.241c0.168-0.1,0.32-0.19,0.454-0.271
					c0.135-0.08,0.257-0.135,0.367-0.165s0.223,0.016,0.341,0.138c0.118,0.202,0.124,0.435,0.016,0.696
					c-0.11,0.262-0.198,0.483-0.265,0.666l-0.352,0.998c0.455-0.563,0.933-1.102,1.438-1.615c0.504-0.513,1.041-0.97,1.614-1.373
					c0.05-0.04,0.116-0.1,0.201-0.181c0.083-0.08,0.176-0.155,0.278-0.226c0.1-0.07,0.201-0.121,0.302-0.15
					c0.101-0.03,0.186-0.015,0.253,0.046c0.118,0.102,0.16,0.203,0.127,0.303c-0.033,0.101-0.092,0.202-0.177,0.302
					c-0.438,0.281-0.857,0.583-1.261,0.905c-0.402,0.321-0.797,0.683-1.185,1.085c-0.437,0.443-0.853,0.916-1.248,1.419
					s-0.759,1.027-1.094,1.571l-0.654,1.815c-0.2,0.605-0.4,1.22-0.602,1.846c-0.201,0.624-0.417,1.239-0.652,1.845
					c-0.05,0.12-0.113,0.266-0.188,0.438c-0.075,0.17-0.159,0.333-0.251,0.483c-0.093,0.15-0.202,0.272-0.328,0.362
					s-0.266,0.125-0.417,0.105c-0.202-0.042-0.333-0.153-0.393-0.334c-0.059-0.183-0.077-0.384-0.052-0.606
					c0.025-0.222,0.066-0.443,0.125-0.666c0.059-0.222,0.113-0.404,0.163-0.544c0.318-0.907,0.716-1.789,1.193-2.646
					c0.479-0.856,0.986-1.667,1.523-2.432l0.852-2.935c-0.303,0.1-0.628,0.174-0.973,0.224c-0.344,0.048-0.669,0.053-0.972,0.012
					c-0.305-0.042-0.578-0.144-0.822-0.306c-0.245-0.163-0.427-0.426-0.546-0.79c-0.153-0.465-0.146-0.889,0.023-1.271
					c-0.135,0.1-0.274,0.206-0.417,0.316c-0.143,0.111-0.265,0.146-0.365,0.105c-0.169,0-0.271-0.086-0.305-0.258
					C192.997,63.779,193.047,63.653,193.182,63.573z"/>
				<path fill="#6B431C" d="M209.311,66.353c-0.151-0.262-0.238-0.556-0.254-0.879c-0.018-0.323,0.141-0.554,0.478-0.694
					c0.387-0.14,0.771-0.108,1.151,0.094c0.379,0.203,0.72,0.407,1.025,0.609l0.024-0.03c0.333-1.069,0.731-2.097,1.192-3.084
					c0.461-0.987,0.95-1.955,1.471-2.903c0.487-0.907,0.998-1.798,1.535-2.674c0.537-0.876,1.099-1.738,1.686-2.583
					c-1.144,0.44-2.065,0.836-2.764,1.187c-0.699,0.352-1.316,0.748-1.854,1.19c-0.084,0.061-0.173,0.146-0.265,0.257
					c-0.093,0.111-0.194,0.222-0.302,0.332c-0.11,0.111-0.219,0.201-0.329,0.271c-0.109,0.071-0.214,0.085-0.315,0.045
					c-0.204-0.062-0.326-0.208-0.368-0.441c-0.044-0.232,0.028-0.408,0.213-0.529c0.772-0.623,1.601-1.15,2.485-1.581
					s1.771-0.807,2.664-1.127c0.235-0.099,0.475-0.189,0.719-0.27c0.244-0.079,0.493-0.159,0.745-0.24
					c0.504-0.705,1.046-1.383,1.625-2.038c0.58-0.654,1.222-1.151,1.93-1.492c0.101-0.041,0.218-0.081,0.353-0.121
					c0.135-0.039,0.273-0.064,0.417-0.074c0.143-0.01,0.278,0.011,0.404,0.062c0.127,0.051,0.231,0.137,0.317,0.258
					c0.136,0.223,0.131,0.439-0.01,0.651c-0.144,0.212-0.325,0.257-0.544,0.134c-0.117-0.061-0.248-0.081-0.391-0.062
					c-0.145,0.02-0.292,0.07-0.442,0.15c-0.152,0.08-0.299,0.17-0.442,0.271c-0.143,0.101-0.265,0.191-0.366,0.271
					c-0.639,0.523-1.209,1.087-1.713,1.691c1.027-0.24,2.037-0.347,3.032-0.323c0.455,0.042,0.905,0.14,1.353,0.292
					c0.446,0.153,0.851,0.372,1.214,0.655c0.363,0.284,0.66,0.648,0.888,1.094c0.229,0.445,0.343,0.97,0.345,1.576
					c0.001,0.545-0.082,1.064-0.249,1.558c-0.167,0.494-0.39,0.958-0.666,1.391c-0.276,0.434-0.583,0.836-0.92,1.208
					c-0.335,0.373-0.671,0.709-1.008,1.011c-1.513,1.327-3.148,2.372-4.907,3.132c-1.758,0.762-3.555,1.311-5.391,1.647
					c0.674,0.346,1.357,0.641,2.049,0.885c0.691,0.245,1.391,0.449,2.099,0.613c0.911,0.226,1.766,0.273,2.565,0.145
					c0.8-0.129,1.637-0.383,2.513-0.764c0.925-0.42,1.82-0.897,2.688-1.43c0.865-0.531,1.736-1.079,2.61-1.642
					c0.051-0.04,0.122-0.095,0.215-0.166c0.092-0.07,0.188-0.136,0.29-0.196c0.101-0.06,0.202-0.09,0.302-0.089
					c0.101,0,0.177,0.061,0.228,0.182c0.084,0.224,0.039,0.39-0.138,0.5c-0.176,0.111-0.315,0.185-0.417,0.226
					c-0.438,0.261-0.862,0.522-1.275,0.783c-0.411,0.261-0.828,0.533-1.248,0.813c-0.808,0.542-1.64,1.079-2.498,1.611
					c-0.859,0.532-1.75,0.928-2.677,1.187c-0.471,0.139-0.946,0.204-1.426,0.192c-0.48-0.012-0.961-0.074-1.441-0.187
					s-0.953-0.26-1.416-0.444c-0.464-0.183-0.916-0.377-1.354-0.58c-0.439-0.204-0.878-0.417-1.316-0.641
					c-0.438-0.224-0.86-0.447-1.266-0.671c-0.1,0.424-0.149,0.867-0.147,1.333c0,0.222,0.01,0.836,0.027,1.049
					c0.017,0.212,0.076,0.399,0.178,0.561c0.102,0.162,0.182,0.334,0.242,0.516c0.059,0.182-0.021,0.353-0.239,0.514
					c-0.152,0.1-0.287,0.11-0.404,0.029c-0.119-0.082-0.216-0.203-0.292-0.364c-0.075-0.163-0.139-0.339-0.189-0.531
					c-0.051-0.192-0.078-0.348-0.078-0.47c-0.068-0.384-0.078-1.161-0.028-1.534c0.049-0.374,0.115-0.751,0.199-1.135
					c-0.522,0.079-0.969,0.143-1.339,0.192C209.725,66.783,209.464,66.656,209.311,66.353z M210.347,65.781l0.353-0.12
					c-0.337-0.143-0.598-0.164-0.783-0.064l0.126,0.122L210.347,65.781z M215.332,58.924c-0.537,0.966-1.04,1.954-1.509,2.962
					c-0.468,1.007-0.871,2.046-1.205,3.115l-0.175,0.544c0.624-0.058,1.238-0.152,1.845-0.282c0.605-0.129,1.212-0.293,1.818-0.493
					c1.228-0.399,2.426-0.919,3.595-1.563c1.17-0.642,2.241-1.457,3.216-2.442c0.37-0.361,0.76-0.83,1.172-1.404
					c0.411-0.574,0.729-1.179,0.955-1.813c0.226-0.635,0.296-1.25,0.21-1.846c-0.086-0.596-0.458-1.096-1.116-1.503
					c-0.794-0.506-1.673-0.752-2.642-0.735c-0.97,0.017-1.917,0.155-2.842,0.414c-0.621,0.786-1.205,1.596-1.75,2.432
					S215.835,58.017,215.332,58.924z"/>
				<path fill="#6B431C" d="M230.729,62.217c0.067-0.04,0.224-0.12,0.468-0.241c0.244-0.12,0.483-0.21,0.719-0.27
					c0.235-0.06,0.437-0.063,0.606-0.013c0.168,0.051,0.229,0.239,0.178,0.561c-0.034,0.182-0.104,0.363-0.213,0.545
					c-0.109,0.181-0.188,0.362-0.24,0.544c-0.099,0.262-0.195,0.585-0.287,0.968c-0.091,0.383-0.062,0.697,0.091,0.939
					c0.285,0.042,0.602,0.002,0.947-0.117c0.346-0.12,0.66-0.24,0.946-0.361c0.085-0.039,0.245-0.14,0.479-0.3
					c0.235-0.161,0.484-0.317,0.744-0.467c0.262-0.15,0.5-0.26,0.72-0.331c0.218-0.069,0.354-0.044,0.404,0.078
					c0.068,0.141,0.026,0.293-0.125,0.454c-0.152,0.161-0.34,0.307-0.568,0.437c-0.228,0.13-0.459,0.251-0.694,0.361
					c-0.235,0.11-0.388,0.186-0.455,0.226c-0.369,0.221-0.744,0.437-1.123,0.647c-0.379,0.21-0.77,0.355-1.174,0.435
					c-0.354,0.06-0.597-0.033-0.733-0.275c-0.136-0.243-0.204-0.551-0.205-0.925c0-0.373,0.044-0.777,0.136-1.21
					c0.092-0.434,0.188-0.833,0.287-1.196c-0.387,0.181-0.765,0.346-1.135,0.496c-0.372,0.15-0.733,0.326-1.085,0.526
					c-0.304,0.161-0.606,0.341-0.909,0.542c-0.185,0.061-0.333,0.004-0.443-0.168c-0.111-0.172-0.065-0.318,0.138-0.439
					L230.729,62.217z M233.629,58.894c0,0-1.712,0.187-0.997,0.871c0.717,0.685,1.338,0.063,1.4-0.404
					C234.096,58.894,234.003,58.832,233.629,58.894z M310.921,58.26c0,0-1.71,0.187-0.995,0.871
					c0.716,0.685,1.338,0.063,1.399-0.404C311.388,58.26,311.295,58.198,310.921,58.26z"/>
				<path fill="#6B431C" d="M235.889,63.688c0.639-0.321,1.27-0.652,1.891-0.993c0.624-0.341,1.245-0.672,1.869-0.993
					c0.135-0.08,0.282-0.166,0.442-0.256c0.159-0.09,0.306-0.084,0.441,0.017c0.136,0.102,0.211,0.203,0.229,0.304
					c0.017,0.101,0,0.202-0.049,0.302c-0.05,0.102-0.113,0.203-0.189,0.303c-0.076,0.1-0.147,0.181-0.215,0.241
					c-0.185,0.222-0.348,0.454-0.49,0.695s-0.281,0.494-0.415,0.756c-0.067,0.121-0.126,0.251-0.175,0.392
					c-0.051,0.142-0.101,0.283-0.151,0.424c-0.117,0.404-0.086,0.621,0.09,0.651c0.177,0.031,0.404-0.018,0.682-0.148
					s0.55-0.296,0.821-0.497c0.268-0.201,0.436-0.333,0.503-0.393l0.228-0.21c-0.035-0.323-0.002-0.656,0.098-1
					c0.101-0.343,0.269-0.655,0.504-0.938c0.134-0.161,0.301-0.321,0.504-0.482c0.201-0.161,0.412-0.2,0.63-0.119
					c0.253,0.081,0.372,0.253,0.356,0.516c-0.017,0.262-0.074,0.504-0.176,0.726c-0.133,0.283-0.293,0.544-0.478,0.786
					c-0.185,0.242-0.386,0.474-0.604,0.694c0.202,0.103,0.417,0.159,0.645,0.169c0.227,0.011,0.459-0.008,0.694-0.058
					c0.235-0.049,0.467-0.109,0.694-0.179c0.228-0.07,0.434-0.145,0.619-0.225c0.186-0.04,0.357-0.1,0.518-0.181
					c0.159-0.08,0.314-0.17,0.467-0.271c0.134-0.08,0.252-0.054,0.354,0.078c0.102,0.131,0.111,0.268,0.025,0.409
					c-0.05,0.121-0.146,0.227-0.289,0.317c-0.143,0.091-0.294,0.166-0.454,0.226c-0.161,0.059-0.32,0.109-0.48,0.149
					c-0.16,0.041-0.291,0.07-0.391,0.09c-0.337,0.1-0.679,0.185-1.023,0.253c-0.345,0.07-0.686,0.084-1.023,0.042
					c-0.338-0.021-0.607-0.143-0.81-0.366c-0.236,0.242-0.475,0.458-0.718,0.649c-0.245,0.19-0.484,0.367-0.72,0.527
					c-0.185,0.141-0.412,0.26-0.68,0.36c-0.269,0.101-0.522,0.135-0.759,0.104c-0.235-0.031-0.421-0.144-0.556-0.335
					c-0.135-0.192-0.144-0.521-0.028-0.984c0.184-0.807,0.485-1.624,0.904-2.45c-0.237,0.1-0.466,0.201-0.695,0.3
					c-0.227,0.101-0.459,0.2-0.694,0.3c-0.27,0.12-0.521,0.251-0.756,0.391c-0.235,0.141-0.471,0.292-0.707,0.452
					c-0.101,0.041-0.211,0.08-0.328,0.12c-0.118,0.041-0.219-0.021-0.304-0.182C235.671,63.95,235.721,63.789,235.889,63.688z"/>
				<path fill="#6B431C" d="M245.921,63.722c0.303-0.18,0.619-0.38,0.946-0.602c0.327-0.221,0.659-0.411,0.997-0.572
					c0.216-0.464,0.527-0.841,0.932-1.133c0.403-0.291,0.832-0.486,1.287-0.585c0.236-0.04,0.509-0.039,0.822,0.003
					c0.313,0.041,0.553,0.194,0.721,0.457c0.119,0.162,0.15,0.333,0.091,0.514c-0.059,0.182-0.16,0.354-0.302,0.515
					c-0.142,0.162-0.302,0.307-0.479,0.437c-0.176,0.131-0.308,0.226-0.392,0.287c-0.302,0.221-0.633,0.387-0.996,0.496
					c-0.363,0.11-0.729,0.145-1.101,0.103h-0.099c0.068,0.443,0.221,0.788,0.457,1.031c0.237,0.243,0.515,0.421,0.835,0.532
					c0.32,0.112,0.654,0.159,0.999,0.141c0.345-0.019,0.661-0.059,0.947-0.118c0.405-0.1,0.8-0.224,1.188-0.375
					s0.765-0.326,1.136-0.526c0.168-0.1,0.341-0.195,0.517-0.286c0.177-0.09,0.342-0.185,0.493-0.286
					c0.117-0.04,0.24-0.019,0.366,0.062c0.127,0.081,0.14,0.213,0.039,0.394c-0.083,0.161-0.202,0.272-0.354,0.332
					c-0.15,0.06-0.286,0.12-0.403,0.181l-1.262,0.662c-0.774,0.36-1.54,0.661-2.298,0.9c-0.336,0.08-0.677,0.104-1.023,0.072
					c-0.346-0.032-0.666-0.124-0.961-0.276c-0.295-0.152-0.562-0.37-0.797-0.654c-0.238-0.283-0.407-0.647-0.509-1.092
					c-0.034-0.16-0.065-0.322-0.09-0.484c-0.025-0.161-0.022-0.313,0.012-0.455c-0.186,0.101-0.367,0.216-0.543,0.347
					c-0.177,0.131-0.333,0.247-0.466,0.347c-0.084,0.04-0.193,0.115-0.328,0.226c-0.136,0.111-0.27,0.115-0.404,0.014
					c-0.102-0.081-0.147-0.192-0.141-0.333C245.765,63.854,245.82,63.763,245.921,63.722z M248.496,62.883
					c0.405-0.018,0.796-0.138,1.174-0.359c0.378-0.221,0.71-0.502,0.997-0.844c-0.236-0.102-0.468-0.133-0.695-0.094
					c-0.229,0.041-0.439,0.12-0.633,0.24c-0.192,0.121-0.364,0.277-0.517,0.468C248.671,62.485,248.563,62.682,248.496,62.883z"/>
				<path fill="#6B431C" d="M254.842,63.752c0.354-0.221,0.702-0.441,1.048-0.662c0.344-0.221,0.718-0.472,1.122-0.753
					c-0.036-0.383,0.06-0.747,0.286-1.089c0.228-0.343,0.519-0.502,0.871-0.482c0.236,0.042,0.389,0.184,0.456,0.426
					s0.035,0.475-0.098,0.696c-0.136,0.242-0.312,0.443-0.529,0.604c0.117,0.082,0.261,0.122,0.431,0.122
					c0.353,0.042,0.723-0.032,1.109-0.223s0.731-0.396,1.035-0.617c0.304-0.12,0.497-0.079,0.582,0.123
					c0.084,0.203,0.051,0.445-0.1,0.727c-0.084,0.162-0.181,0.368-0.289,0.62c-0.109,0.252-0.2,0.509-0.277,0.771
					c-0.074,0.261-0.116,0.514-0.122,0.756c-0.01,0.242,0.055,0.435,0.19,0.576c0.084,0.122,0.308,0.122,0.669,0.002
					s0.846-0.32,1.45-0.601c0.204-0.1,0.409-0.215,0.62-0.346c0.21-0.131,0.425-0.256,0.644-0.376
					c0.05-0.02,0.126-0.065,0.227-0.136c0.101-0.07,0.198-0.121,0.292-0.15c0.092-0.03,0.175-0.03,0.251,0.001
					c0.076,0.03,0.114,0.136,0.114,0.318c0.001,0.101-0.036,0.192-0.112,0.272c-0.076,0.081-0.159,0.151-0.252,0.211
					c-0.094,0.06-0.19,0.11-0.29,0.15c-0.102,0.041-0.178,0.071-0.229,0.09l-1.059,0.572c-0.186,0.121-0.416,0.271-0.694,0.452
					c-0.278,0.181-0.56,0.331-0.845,0.451c-0.287,0.12-0.565,0.18-0.834,0.179c-0.271,0-0.481-0.132-0.633-0.396
					c-0.085-0.141-0.136-0.298-0.152-0.47c-0.019-0.172-0.015-0.343,0.012-0.515c0.024-0.171,0.056-0.343,0.1-0.515
					c0.04-0.171,0.078-0.338,0.112-0.499l0.199-1c-0.085,0.021-0.257,0.071-0.517,0.15c-0.264,0.08-0.544,0.134-0.849,0.164
					c-0.303,0.029-0.594,0.024-0.871-0.019c-0.278-0.041-0.484-0.173-0.62-0.396c-0.287,0.18-0.521,0.332-0.706,0.452
					c-0.186,0.121-0.376,0.252-0.568,0.392c-0.193,0.142-0.349,0.252-0.467,0.332c-0.101,0.04-0.22,0.116-0.353,0.226
					c-0.135,0.111-0.252,0.125-0.354,0.044c-0.101-0.08-0.152-0.191-0.153-0.333C254.69,63.914,254.74,63.813,254.842,63.752z"/>
				<path fill="#6B431C" d="M278.821,62.502c0.336-0.302,0.646-0.664,0.932-1.087c0.284-0.423,0.549-0.876,0.792-1.36
					c0.243-0.483,0.461-0.971,0.652-1.466c0.192-0.493,0.364-0.973,0.516-1.437c0.184-0.504,0.324-1.029,0.425-1.573
					c0.101-0.544,0.132-1.09,0.097-1.635c-0.034-0.585-0.209-0.949-0.521-1.092c-0.312-0.143-0.686-0.164-1.124-0.064
					c-0.454,0.1-0.889,0.285-1.3,0.556c-0.413,0.271-0.803,0.599-1.173,0.98c-0.37,0.383-0.717,0.79-1.046,1.223
					c-0.327,0.433-0.626,0.851-0.894,1.253c-0.604,0.907-1.153,1.849-1.647,2.826s-0.909,2.011-1.244,3.1
					c-0.133,0.363-0.263,0.817-0.386,1.361c-0.125,0.544-0.196,1.09-0.211,1.634c-0.016,0.545,0.056,1.04,0.218,1.484
					c0.161,0.445,0.47,0.749,0.925,0.913c0.455,0.163,0.924,0.225,1.403,0.187c0.479-0.04,0.964-0.133,1.452-0.283
					c0.488-0.15,0.968-0.335,1.439-0.556c0.471-0.221,0.91-0.431,1.312-0.632c0.438-0.221,0.871-0.456,1.3-0.707
					c0.43-0.25,0.862-0.507,1.3-0.768l1.313-0.752c0.082-0.06,0.188-0.135,0.313-0.226c0.127-0.091,0.26-0.186,0.405-0.287
					c0.142-0.1,0.279-0.181,0.415-0.241c0.136-0.06,0.252-0.09,0.353-0.09c0.151,0.021,0.237,0.127,0.254,0.319
					c0.018,0.192-0.04,0.317-0.177,0.378c-0.134,0.161-0.31,0.276-0.528,0.346c-0.219,0.07-0.412,0.155-0.581,0.256
					c-0.471,0.281-0.938,0.567-1.4,0.857c-0.463,0.291-0.937,0.578-1.425,0.858c-0.773,0.462-1.561,0.923-2.359,1.385
					c-0.799,0.461-1.636,0.802-2.512,1.021c-0.388,0.099-0.8,0.148-1.237,0.147c-0.438-0.001-0.848-0.075-1.226-0.217
					c-0.381-0.142-0.718-0.376-1.014-0.7c-0.295-0.324-0.495-0.77-0.597-1.334c-0.087-0.485-0.108-0.989-0.068-1.514
					s0.123-1.044,0.248-1.559c0.127-0.515,0.276-1.014,0.452-1.498c0.175-0.483,0.355-0.938,0.54-1.361
					c0.836-2.057,1.868-3.94,3.093-5.652c0.269-0.362,0.546-0.735,0.831-1.117c0.286-0.382,0.593-0.74,0.92-1.072
					c0.328-0.332,0.672-0.628,1.033-0.89c0.361-0.261,0.745-0.452,1.149-0.571c0.354-0.14,0.744-0.205,1.174-0.193
					s0.797,0.179,1.1,0.503c0.306,0.325,0.482,0.713,0.533,1.168c0.054,0.454,0.046,0.904-0.02,1.347
					c-0.149,1.071-0.425,2.109-0.826,3.117c-0.401,1.008-0.82,1.976-1.256,2.902c-0.235,0.464-0.471,0.922-0.705,1.376
					c-0.234,0.453-0.503,0.881-0.806,1.284c-0.134,0.101-0.264,0.135-0.391,0.104c-0.126-0.03-0.227-0.096-0.304-0.197
					c-0.076-0.102-0.113-0.222-0.114-0.364C278.619,62.754,278.687,62.623,278.821,62.502z"/>
				<path fill="#6B431C" d="M284.458,63.854c0.354-0.221,0.703-0.441,1.048-0.663s0.72-0.472,1.122-0.753
					c-0.034-0.383,0.063-0.747,0.289-1.089c0.227-0.342,0.516-0.502,0.871-0.481c0.234,0.042,0.387,0.184,0.455,0.425
					c0.067,0.243,0.034,0.476-0.099,0.697c-0.135,0.241-0.312,0.443-0.53,0.604c0.117,0.081,0.261,0.122,0.43,0.122
					c0.355,0.042,0.726-0.033,1.111-0.224c0.388-0.19,0.732-0.395,1.036-0.617c0.301-0.121,0.495-0.079,0.58,0.123
					c0.085,0.203,0.051,0.445-0.098,0.727c-0.086,0.161-0.182,0.368-0.291,0.62c-0.108,0.252-0.201,0.509-0.274,0.771
					c-0.076,0.263-0.117,0.515-0.125,0.757c-0.008,0.243,0.056,0.435,0.191,0.576c0.084,0.121,0.306,0.122,0.669,0.003
					c0.362-0.121,0.846-0.321,1.452-0.602c0.202-0.1,0.407-0.215,0.617-0.345c0.211-0.131,0.426-0.256,0.644-0.377
					c0.052-0.021,0.126-0.064,0.228-0.135c0.102-0.07,0.197-0.121,0.29-0.151s0.177-0.03,0.253,0.001
					c0.076,0.03,0.114,0.137,0.114,0.318c0.001,0.101-0.037,0.193-0.113,0.272c-0.075,0.081-0.158,0.15-0.252,0.211
					c-0.092,0.06-0.188,0.11-0.29,0.151c-0.102,0.04-0.176,0.07-0.228,0.09l-1.059,0.571c-0.187,0.121-0.417,0.271-0.694,0.452
					c-0.277,0.182-0.56,0.331-0.845,0.452c-0.287,0.121-0.565,0.179-0.834,0.179c-0.27,0-0.48-0.133-0.633-0.396
					c-0.085-0.142-0.136-0.298-0.152-0.47c-0.018-0.171-0.014-0.343,0.011-0.515c0.024-0.171,0.057-0.343,0.101-0.514
					c0.04-0.172,0.078-0.338,0.111-0.5l0.199-0.998c-0.084,0.02-0.257,0.07-0.518,0.149c-0.261,0.081-0.543,0.135-0.847,0.164
					s-0.594,0.024-0.871-0.019c-0.277-0.041-0.485-0.172-0.62-0.396c-0.286,0.181-0.521,0.332-0.706,0.452
					c-0.187,0.121-0.374,0.252-0.568,0.392c-0.193,0.142-0.349,0.252-0.466,0.332c-0.101,0.041-0.219,0.116-0.354,0.227
					c-0.136,0.11-0.252,0.125-0.354,0.044c-0.103-0.081-0.152-0.192-0.153-0.334C284.308,64.015,284.358,63.914,284.458,63.854z"/>
				<path fill="#6B431C" d="M294.011,63.887c0.438-0.16,0.866-0.355,1.287-0.586s0.841-0.457,1.264-0.678
					c0.1-0.06,0.255-0.175,0.465-0.347c0.211-0.17,0.426-0.326,0.643-0.467c0.22-0.14,0.426-0.236,0.618-0.286
					c0.194-0.05,0.343,0.017,0.443,0.199c0.086,0.162,0.098,0.318,0.04,0.469c-0.06,0.151-0.147,0.303-0.265,0.454
					c-0.118,0.151-0.243,0.292-0.378,0.423c-0.134,0.131-0.234,0.237-0.302,0.317c-0.252,0.302-0.496,0.634-0.73,0.997
					c-0.235,0.363-0.353,0.746-0.353,1.149c0.306,0.001,0.624-0.088,0.962-0.269c0.335-0.181,0.63-0.331,0.882-0.451
					c0.809-0.441,1.607-0.943,2.397-1.506c0.437-0.321,0.833-0.643,1.186-0.965c0.151-0.12,0.307-0.12,0.467,0.001
					c0.161,0.122,0.224,0.304,0.19,0.546c-0.033,0.182-0.104,0.358-0.212,0.529c-0.109,0.171-0.206,0.348-0.291,0.529
					c-0.084,0.161-0.162,0.383-0.236,0.666c-0.076,0.283-0.08,0.535-0.011,0.756c0.186,0.123,0.413,0.138,0.682,0.048
					c0.271-0.09,0.488-0.164,0.656-0.224c0.725-0.3,1.397-0.642,2.02-1.023c0.117-0.061,0.265-0.145,0.441-0.255
					c0.176-0.11,0.308-0.064,0.391,0.138c0.085,0.182,0.073,0.318-0.035,0.409c-0.109,0.09-0.223,0.166-0.34,0.226l-1.666,0.933
					c-0.354,0.181-0.741,0.387-1.162,0.617c-0.42,0.231-0.842,0.285-1.263,0.163c-0.303-0.102-0.477-0.31-0.519-0.622
					c-0.044-0.313-0.023-0.611,0.06-0.894l0.377-1.088c-0.438,0.24-0.862,0.492-1.275,0.752c-0.412,0.261-0.836,0.502-1.273,0.723
					c-0.186,0.121-0.402,0.266-0.656,0.437c-0.252,0.171-0.518,0.332-0.795,0.482c-0.276,0.15-0.552,0.26-0.818,0.33
					c-0.271,0.07-0.507,0.054-0.709-0.048c-0.203-0.081-0.309-0.239-0.317-0.47c-0.01-0.232,0.037-0.5,0.138-0.803
					c0.1-0.302,0.242-0.625,0.427-0.967c0.184-0.343,0.377-0.675,0.578-0.998l-0.606,0.332c-0.688,0.3-1.187,0.531-1.487,0.691
					c-0.304,0.161-0.539,0.261-0.708,0.3c-0.102,0.04-0.181,0.03-0.24-0.031c-0.059-0.061-0.102-0.131-0.127-0.212
					c-0.024-0.08-0.024-0.162,0-0.243C293.873,63.987,293.928,63.927,294.011,63.887z"/>
				<path fill="#6B431C" d="M308.412,62.482c0.066-0.04,0.223-0.121,0.467-0.241c0.243-0.121,0.482-0.21,0.72-0.27
					c0.234-0.06,0.438-0.064,0.606-0.013s0.227,0.238,0.178,0.561c-0.033,0.182-0.104,0.363-0.213,0.545
					c-0.109,0.182-0.188,0.362-0.239,0.544c-0.1,0.262-0.196,0.585-0.288,0.968c-0.092,0.384-0.061,0.696,0.092,0.939
					c0.285,0.042,0.601,0.002,0.947-0.119c0.345-0.119,0.66-0.24,0.946-0.359c0.084-0.04,0.243-0.141,0.479-0.301
					c0.234-0.16,0.483-0.316,0.744-0.467s0.5-0.26,0.72-0.331c0.219-0.069,0.353-0.044,0.404,0.077
					c0.066,0.142,0.025,0.293-0.126,0.454c-0.15,0.162-0.34,0.307-0.567,0.437c-0.228,0.131-0.459,0.252-0.693,0.362
					c-0.235,0.111-0.388,0.185-0.454,0.225c-0.371,0.221-0.745,0.438-1.122,0.647c-0.38,0.21-0.77,0.356-1.176,0.435
					c-0.353,0.059-0.598-0.032-0.732-0.275c-0.137-0.243-0.204-0.551-0.205-0.925c-0.001-0.373,0.045-0.777,0.137-1.21
					c0.091-0.434,0.186-0.833,0.287-1.195c-0.387,0.18-0.767,0.345-1.136,0.496c-0.372,0.149-0.733,0.325-1.085,0.526
					c-0.304,0.16-0.606,0.341-0.909,0.542c-0.185,0.06-0.331,0.003-0.442-0.167c-0.109-0.172-0.064-0.319,0.137-0.439
					L308.412,62.482z"/>
				<path fill="#6B431C" d="M313.52,63.983c0.118-0.08,0.332-0.226,0.643-0.437c0.313-0.211,0.656-0.427,1.036-0.648
					c0.378-0.221,0.76-0.425,1.147-0.617c0.388-0.19,0.724-0.295,1.01-0.315c0.102-0.04,0.206-0.034,0.316,0.017
					c0.108,0.051,0.19,0.117,0.241,0.198c0.101,0.202,0.109,0.358,0.026,0.47c-0.085,0.111-0.193,0.206-0.328,0.287
					c-0.135,0.08-0.282,0.145-0.441,0.195c-0.16,0.049-0.266,0.115-0.315,0.195c-0.085,0.121-0.063,0.232,0.063,0.333
					c0.126,0.102,0.282,0.183,0.468,0.244c0.185,0.062,0.371,0.118,0.557,0.169c0.185,0.051,0.305,0.097,0.354,0.137
					c0.337,0.223,0.536,0.462,0.595,0.713c0.061,0.253,0.024,0.51-0.111,0.771l0.683-0.421l2.018-1.266
					c0.117-0.08,0.224-0.084,0.315-0.014c0.094,0.072,0.14,0.187,0.14,0.349c0,0.163-0.071,0.278-0.214,0.348
					c-0.143,0.071-0.272,0.136-0.39,0.196c-0.404,0.221-0.813,0.457-1.224,0.708c-0.414,0.251-0.821,0.507-1.226,0.769
					c-0.487,0.28-0.954,0.53-1.4,0.751c-0.444,0.22-0.903,0.33-1.375,0.328c-0.339-0.001-0.638-0.143-0.898-0.427
					c-0.263-0.284-0.394-0.606-0.396-0.97c-0.018-0.182,0.016-0.328,0.101-0.439c0.084-0.11,0.186-0.181,0.303-0.211
					c0.117-0.03,0.224-0.004,0.316,0.077c0.093,0.081,0.147,0.212,0.165,0.395c0.035,0.404,0.183,0.642,0.444,0.713
					c0.261,0.072,0.568,0.058,0.922-0.042c0.236-0.1,0.451-0.226,0.645-0.377c0.191-0.15,0.33-0.297,0.415-0.438
					c0.217-0.282,0.276-0.503,0.174-0.666c-0.101-0.162-0.273-0.293-0.518-0.395c-0.245-0.101-0.503-0.188-0.771-0.26
					c-0.27-0.072-0.456-0.157-0.557-0.259c-0.152-0.163-0.241-0.324-0.268-0.486c-0.024-0.161-0.021-0.323,0.013-0.484
					c-0.252,0.121-0.502,0.246-0.745,0.375c-0.244,0.131-0.467,0.247-0.669,0.346c-0.151,0.101-0.333,0.247-0.543,0.437
					c-0.21,0.192-0.399,0.287-0.566,0.287c-0.085,0.02-0.156,0.005-0.215-0.046c-0.06-0.05-0.094-0.11-0.103-0.182
					c-0.008-0.071-0.001-0.146,0.025-0.228C313.406,64.084,313.453,64.024,313.52,63.983z"/>
				<path fill="#6B431C" d="M321.606,63.981c0.304-0.181,0.619-0.381,0.947-0.603c0.327-0.22,0.659-0.411,0.996-0.571
					c0.217-0.464,0.527-0.841,0.933-1.132c0.403-0.291,0.831-0.487,1.287-0.586c0.235-0.04,0.509-0.039,0.82,0.003
					c0.313,0.042,0.554,0.194,0.721,0.457c0.119,0.162,0.15,0.333,0.09,0.515c-0.058,0.182-0.158,0.353-0.301,0.514
					c-0.143,0.162-0.302,0.308-0.479,0.438c-0.178,0.131-0.308,0.226-0.392,0.287c-0.302,0.221-0.634,0.386-0.997,0.496
					c-0.362,0.11-0.728,0.144-1.099,0.102l-0.102-0.001c0.068,0.445,0.221,0.789,0.459,1.031c0.235,0.244,0.513,0.421,0.835,0.533
					c0.319,0.112,0.651,0.159,0.997,0.14s0.662-0.058,0.947-0.118c0.406-0.1,0.8-0.225,1.188-0.374
					c0.387-0.15,0.766-0.326,1.136-0.527c0.169-0.1,0.341-0.195,0.519-0.285c0.174-0.091,0.34-0.186,0.49-0.286
					c0.118-0.04,0.242-0.02,0.368,0.061c0.125,0.081,0.14,0.213,0.038,0.395c-0.084,0.162-0.201,0.271-0.353,0.332
					c-0.151,0.06-0.287,0.12-0.404,0.179l-1.262,0.662c-0.773,0.362-1.539,0.661-2.298,0.901c-0.336,0.079-0.678,0.104-1.022,0.072
					c-0.346-0.031-0.666-0.123-0.961-0.276c-0.295-0.152-0.563-0.371-0.799-0.654c-0.237-0.283-0.404-0.647-0.508-1.092
					c-0.034-0.162-0.063-0.323-0.089-0.485c-0.026-0.162-0.022-0.313,0.011-0.455c-0.186,0.101-0.365,0.216-0.543,0.346
					c-0.176,0.132-0.331,0.247-0.466,0.348c-0.084,0.04-0.194,0.116-0.328,0.226c-0.136,0.111-0.27,0.115-0.404,0.013
					c-0.101-0.08-0.146-0.191-0.139-0.333C321.452,64.112,321.505,64.021,321.606,63.981z M324.182,63.142
					c0.404-0.019,0.797-0.139,1.175-0.359c0.379-0.221,0.71-0.502,0.995-0.845c-0.235-0.102-0.468-0.133-0.694-0.093
					c-0.228,0.04-0.438,0.12-0.633,0.24c-0.191,0.121-0.363,0.276-0.515,0.467C324.357,62.744,324.248,62.94,324.182,63.142z"/>
				<path fill="#6B431C" d="M330.477,64.042c0.117-0.08,0.332-0.226,0.644-0.437c0.312-0.211,0.655-0.426,1.034-0.647
					s0.761-0.426,1.149-0.617c0.387-0.19,0.723-0.295,1.01-0.315c0.1-0.039,0.205-0.034,0.315,0.017
					c0.109,0.051,0.189,0.117,0.24,0.197c0.102,0.203,0.11,0.359,0.027,0.47c-0.084,0.111-0.192,0.207-0.328,0.287
					c-0.136,0.081-0.282,0.146-0.443,0.195c-0.158,0.05-0.264,0.116-0.313,0.196c-0.085,0.121-0.063,0.232,0.063,0.333
					c0.127,0.102,0.283,0.183,0.47,0.244c0.185,0.061,0.37,0.118,0.556,0.168c0.186,0.051,0.304,0.098,0.354,0.138
					c0.337,0.223,0.535,0.461,0.595,0.713c0.061,0.253,0.023,0.51-0.11,0.772l0.68-0.422l2.019-1.265
					c0.118-0.08,0.224-0.085,0.316-0.014c0.094,0.072,0.14,0.188,0.141,0.349c0,0.162-0.073,0.278-0.214,0.348
					c-0.143,0.07-0.273,0.135-0.393,0.195c-0.403,0.221-0.811,0.457-1.224,0.707c-0.41,0.251-0.819,0.508-1.223,0.768
					c-0.487,0.281-0.955,0.531-1.401,0.752c-0.446,0.22-0.903,0.33-1.376,0.328c-0.337-0.001-0.637-0.144-0.897-0.427
					c-0.263-0.284-0.394-0.607-0.395-0.97c-0.019-0.183,0.015-0.328,0.101-0.439c0.084-0.111,0.185-0.181,0.301-0.211
					c0.119-0.03,0.225-0.004,0.316,0.077c0.093,0.082,0.148,0.212,0.165,0.395c0.035,0.404,0.185,0.641,0.445,0.713
					c0.262,0.071,0.568,0.057,0.922-0.042c0.235-0.1,0.451-0.226,0.643-0.377c0.193-0.15,0.332-0.296,0.417-0.437
					c0.218-0.282,0.277-0.504,0.175-0.666c-0.102-0.162-0.274-0.293-0.519-0.396c-0.245-0.101-0.503-0.188-0.771-0.26
					c-0.27-0.071-0.455-0.158-0.558-0.259c-0.152-0.162-0.24-0.324-0.266-0.486c-0.026-0.162-0.023-0.323,0.011-0.484
					c-0.252,0.121-0.501,0.246-0.744,0.376c-0.243,0.131-0.466,0.246-0.668,0.347c-0.152,0.1-0.333,0.246-0.542,0.437
					c-0.211,0.19-0.4,0.286-0.567,0.286c-0.086,0.02-0.158,0.004-0.217-0.047c-0.06-0.05-0.092-0.11-0.102-0.182
					c-0.007-0.07,0-0.146,0.025-0.228C330.363,64.142,330.41,64.083,330.477,64.042z"/>
			</g>
		</g>
	</g>
	<g>
		<g>
			<path fill="#AA9E89" d="M99.769,55.814c-8.667,0-20.722-0.594-27.754-2.223c-8.059-1.865-23.595-7.455-34.938-11.536
				c-3.679-1.323-6.856-2.466-9.346-3.33c-5.002-1.734-7.433-3.16-7.433-4.36c0-0.694,0.775-0.97,0.808-0.981l0.12,0.438
				c-0.005,0.002-0.518,0.194-0.518,0.544c0,0.434,0.699,1.685,7.144,3.92c2.492,0.864,5.67,2.007,9.351,3.331
				c11.334,4.078,26.858,9.663,34.895,11.523c10.461,2.421,32.083,2.549,36.956,1.835c1.082-0.157,4.374-0.639,4.415-1.28
				c0.017-0.245-0.466-0.977-5.262-2.483l0.11-0.443c4.968,1.56,5.599,2.371,5.562,2.959c-0.049,0.759-1.252,1.188-4.771,1.703
				C107.491,55.669,104.042,55.814,99.769,55.814z"/>
			<path fill="#AA9E89" d="M92.465,59.539c-2.996,0-5.739-0.06-7.716-0.198c-0.75-0.051-1.423-0.092-2.048-0.129
				c-5.808-0.344-7.56-0.448-29.966-7.923c-25.586-8.537-30.387-11.05-31.707-12.382c-1.448-1.462-0.771-3.892-0.741-3.996
				l0.391,0.142c-0.007,0.022-0.625,2.251,0.625,3.513c1.211,1.222,5.893,3.723,31.549,12.282
				c22.359,7.46,24.101,7.563,29.872,7.906c0.626,0.037,1.299,0.077,2.052,0.13c8.072,0.559,25.945-0.103,27.291-0.821
				c1.326-0.709,1.795-4.057,1.795-4.849c0-0.588-3.369-2.592-5.825-2.834l0.037-0.459c2.188,0.217,6.198,2.189,6.198,3.293
				c0,0.922-0.484,4.44-2.028,5.264C111.136,59.068,100.819,59.539,92.465,59.539z"/>
			<path fill="#AA9E89" d="M91.911,63.337c-1.88,0-2.253-0.069-2.618-0.136c-0.293-0.055-0.57-0.105-1.799-0.105
				c-3.036,0-5.552-0.553-9.333-1.461c-1.958-0.47-2.412-0.125-2.936,0.275c-0.49,0.374-1.045,0.797-2.708,0.648
				c-2.415-0.216-10.37-3.286-16.763-5.751c-2.711-1.045-5.055-1.949-6.507-2.454c-1.03-0.357-2.749-0.925-4.923-1.644
				c-13.333-4.401-21.146-7.14-21.631-8.116c-0.697-1.408-0.905-4.927-0.913-5.075l0.408-0.03c0.002,0.036,0.21,3.564,0.864,4.882
				c0.527,1.014,14.615,5.664,21.385,7.899c2.177,0.718,3.897,1.286,4.93,1.645c1.46,0.508,3.803,1.411,6.52,2.458
				c6.369,2.458,14.297,5.516,16.662,5.729c1.518,0.136,1.989-0.224,2.444-0.571c0.577-0.441,1.122-0.856,3.252-0.344
				c3.756,0.903,6.253,1.45,9.248,1.45c1.262,0,1.555,0.055,1.866,0.112c0.413,0.076,0.879,0.164,4.144,0.119
				c3.93-0.053,6.961-0.525,9.396-0.906c1.052-0.164,1.96-0.304,2.813-0.396c0.281-0.03,0.561-0.058,0.838-0.084
				c2.526-0.244,4.705-0.455,4.989-2.556l0.406,0.069c-0.333,2.46-2.773,2.695-5.359,2.945c-0.276,0.026-0.556,0.053-0.834,0.084
				c-0.845,0.09-1.748,0.23-2.796,0.393c-2.446,0.381-5.492,0.857-9.448,0.91C92.88,63.333,92.353,63.337,91.911,63.337z"/>
			<path fill="#AA9E89" d="M97.105,50.027c-7.492,0-13.5-0.579-17.854-1.723c-0.33-0.086-0.893-0.231-1.654-0.426
				C58.67,43.028,44.72,38.994,36.131,35.89c-14.608-5.278-15.7-5.737-15.025-8.176l0.482-1.74l-0.082,1.82
				c0.001,0.006,0.29,2.231,11.018,5.512c4.35,1.33,9.752,3.094,14.977,4.799c8.386,2.736,16.304,5.32,19.125,5.882
				c0.941,0.187,2.234,0.508,3.872,0.915c5.52,1.369,14.758,3.661,22.741,3.661c0.954,0,1.878-0.034,2.746-0.098
				c3.551-0.265,6.484-0.281,8.842-0.294c4.784-0.025,7.185-0.038,7.889-1.976l0.516-1.418l-0.122,1.525
				c-0.024,0.287-0.161,1.735-0.626,2.094c-0.025,0.02-0.049,0.042-0.076,0.067c-0.462,0.428-1.424,1.32-12.205,1.535
				C99.15,50.017,98.108,50.027,97.105,50.027z M21.384,28.461c-0.065,1.495,2.038,2.354,14.873,6.992
				c8.577,3.1,22.517,7.129,41.431,11.978c0.763,0.196,1.327,0.339,1.656,0.426c4.326,1.135,10.301,1.711,17.762,1.711
				c0.999,0,2.04-0.011,3.091-0.032c10.636-0.211,11.59-1.096,11.95-1.429c0.037-0.034,0.07-0.065,0.105-0.091
				c0.111-0.086,0.209-0.366,0.288-0.701c-1.163,1.28-3.583,1.293-7.71,1.315c-2.353,0.013-5.28,0.029-8.816,0.293
				c-0.878,0.065-1.811,0.1-2.774,0.1c-8.029,0-17.294-2.299-22.831-3.672c-1.632-0.405-2.922-0.725-3.853-0.912
				c-2.842-0.567-10.772-3.153-19.168-5.893c-5.222-1.705-10.624-3.468-14.971-4.797C24.452,31.313,22.083,29.426,21.384,28.461z"/>
			<path fill="#AA9E89" d="M102.08,44.494c-8.478,0-21.593-1.184-26.637-2.007c-6.398-1.044-23.271-6.218-36.829-10.375
				c-1.35-0.414-2.657-0.815-3.909-1.197c-13.304-4.068-13.554-6.28-13.539-6.519l0.409,0.033c0.001-0.017,0-0.026,0-0.026
				c0.012,0.086,0.439,2.154,13.239,6.069c1.252,0.383,2.56,0.784,3.909,1.198c13.546,4.153,30.406,9.322,36.779,10.363
				c6.752,1.104,27.989,2.859,33.054,1.536c3.063-0.799,3.72-1.301,3.733-1.581c0.009-0.2-0.35-0.583-2.115-1.271l0.135-0.435
				c1.769,0.691,2.417,1.16,2.39,1.73c-0.028,0.592-0.715,1.134-4.05,2.005C107.346,44.355,104.985,44.494,102.08,44.494z"/>
			<path fill="#AA9E89" d="M95.811,38.579L95.811,38.579c-7.101,0-14.861-0.674-19.068-1.3c-7.974-1.187-26.554-6.325-40.737-10.424
				c-14.461-4.18-15.214-6.416-15.182-6.895c-0.015-0.563,0.153-0.926,0.161-0.943l0.385-0.817v0.925
				c0,0.275,0.461,1.125,4.723,3.081c2.626,1.206,21.008,6.313,33.173,9.692c1.724,0.479,3.336,0.926,4.78,1.329
				c9.957,2.774,19.328,3.211,27.596,3.597c1.573,0.074,3.059,0.144,4.54,0.227c0.83,0.046,1.655,0.07,2.453,0.07
				c7.635,0,11.269-2.166,11.305-2.187l0.257-0.157l0.2,1.461l-0.104,0.082C107.901,38.187,101.098,38.579,95.811,38.579z
				 M21.234,19.984c0.029,0.179,0.699,2.328,14.873,6.426c14.173,4.097,32.737,9.229,40.689,10.412
				c4.196,0.625,11.933,1.296,19.014,1.297h0.001c7.358,0,12.238-0.725,14.14-2.097l-0.075-0.541
				c-0.957,0.498-4.554,2.099-11.243,2.099c-0.805,0-1.636-0.023-2.475-0.07c-1.478-0.084-2.963-0.153-4.534-0.226
				c-8.289-0.387-17.681-0.825-27.677-3.611c-1.445-0.403-3.054-0.851-4.78-1.329c-12.176-3.383-30.577-8.497-33.229-9.712
				c-3.014-1.384-4.234-2.249-4.703-2.837c-0.002,0.052-0.003,0.106-0.001,0.165L21.234,19.984L21.234,19.984z"/>
			<path fill="#AA9E89" d="M92.347,28.531c-0.406,0-0.788-0.026-1.259-0.058c-0.767-0.052-1.722-0.116-3.388-0.116
				c-4.3,0-9.734-0.223-11.014-0.583c-0.279-0.079-0.614-0.206-1.003-0.354c-1.338-0.511-3.36-1.282-5.792-1.019
				c-2.528,0.275-3.939-0.107-5.576-0.549c-0.456-0.123-0.928-0.251-1.453-0.374c-0.313-0.073-0.623-0.147-0.932-0.222
				c-2.113-0.508-4.109-0.988-5.86-0.694c-0.622,0.104-1.042-0.021-1.248-0.373c-0.401-0.685,0.25-1.907,0.324-2.045l0.349,0.243
				c-0.231,0.422-0.527,1.216-0.332,1.55c0.14,0.233,0.536,0.223,0.845,0.169c1.827-0.307,3.858,0.183,6.007,0.7
				c0.307,0.074,0.619,0.15,0.93,0.223c0.532,0.124,1.006,0.252,1.466,0.376c1.665,0.45,2.981,0.806,5.439,0.539
				c2.521-0.273,4.593,0.517,5.964,1.041c0.38,0.144,0.708,0.271,0.972,0.344c1.21,0.339,6.621,0.567,10.914,0.567
				c1.679,0,2.68,0.067,3.412,0.117c1.211,0.082,1.819,0.123,3.83-0.229c0.663-0.117,1.239-0.229,1.748-0.328
				c2.042-0.399,3.166-0.62,5.486-0.247c0.997,0.16,1.489,0.361,1.85,0.51c0.655,0.27,0.854,0.35,3.293-0.389
				c1.359-0.412,2.594-0.593,3.494-0.725c0.753-0.11,1.606-0.235,1.662-0.428c0.004-0.016,0.029-0.163-0.427-0.642
				c-1.018-1.069-1.851-1.259-3.509-1.635c-0.915-0.207-2.051-0.464-3.579-0.954c-1.416-0.454-2.396-0.86-3.184-1.187
				c-1.646-0.683-2.472-1.026-4.843-0.874c-2.411,0.154-3.502-0.103-5.014-0.461c-0.759-0.179-1.619-0.383-2.814-0.575
				c-1.561-0.25-2.6-0.526-3.434-0.749c-1.12-0.297-1.927-0.514-3.299-0.514c-0.894,0-1.814-0.015-2.626-0.028
				c-1.418-0.024-2.642-0.044-3.084,0.026c-0.639,0.102-1.038,0.116-1.134,0.118c-0.364,0.083-4.437,0.988-5.933-0.121
				c-0.826-0.071-1.386-0.145-1.798-0.198c-0.895-0.115-1.107-0.142-1.979,0.083c-1.109,0.288-2.883,0.415-4.307,0.517
				c-0.304,0.022-0.591,0.044-0.846,0.063c-0.541,0.043-1.374-0.006-2.18-0.056c-0.414-0.025-0.887-0.052-1.242-0.059
				c1.019,0.514,1.237,1.106,1.274,1.423c0.038,0.326-0.076,0.635-0.306,0.829c-0.442,0.372-1.888,0.39-2.173,0.39v-0.459
				c0.607,0,1.668-0.082,1.926-0.299c0.112-0.093,0.165-0.239,0.147-0.401c-0.024-0.193-0.188-0.689-1.227-1.155
				c-0.228-0.101-0.538-0.24-0.484-0.516c0.062-0.31,0.375-0.315,2.106-0.212c0.756,0.046,1.614,0.097,2.127,0.057
				c0.26-0.021,0.545-0.041,0.851-0.064c1.409-0.101,3.165-0.227,4.242-0.506c0.94-0.243,1.213-0.208,2.119-0.091
				c0.416,0.054,0.989,0.129,1.836,0.201l0.057,0.005l0.047,0.038c1.346,1.078,5.635,0.087,5.679,0.076l0.042-0.005
				c0.004,0,0.406-0.001,1.099-0.111c0.472-0.076,1.652-0.057,3.146-0.031c0.812,0.013,1.73,0.029,2.621,0.029
				c1.42,0,2.291,0.23,3.394,0.525c0.87,0.232,1.856,0.494,3.398,0.741c1.208,0.194,2.076,0.399,2.842,0.58
				c1.479,0.35,2.547,0.604,4.904,0.452c2.457-0.158,3.364,0.219,5.009,0.902c0.781,0.323,1.754,0.728,3.154,1.175
				c1.512,0.485,2.641,0.74,3.547,0.946c1.681,0.38,2.606,0.59,3.71,1.75c0.325,0.342,0.644,0.743,0.535,1.118
				c-0.135,0.469-0.796,0.566-1.998,0.742c-0.939,0.138-2.109,0.31-3.44,0.713c-2.463,0.747-2.768,0.695-3.541,0.377
				c-0.343-0.141-0.813-0.334-1.767-0.487c-2.255-0.361-3.357-0.146-5.357,0.246c-0.511,0.1-1.088,0.213-1.755,0.33
				C93.732,28.461,93.009,28.531,92.347,28.531z"/>
			<path fill="#AA9E89" d="M72.897,18.919L72.897,18.919c-1.689,0-3.243-0.444-3.258-0.449l-0.076-0.022l-0.105-7.099h5.74v7.208
				l-0.071,0.026C74.504,18.807,73.754,18.919,72.897,18.919z M69.767,18.269c0.329,0.087,1.679,0.42,3.131,0.42l0,0
				c0.802,0,1.506-0.101,2.097-0.299v-6.808h-5.327L69.767,18.269z"/>
			<path fill="#AA9E89" d="M70.111,11.707c-0.163,0-0.347-0.004-0.555-0.012c-1.71-0.063-3.284-0.092-5.105-0.125
				c-1.419-0.025-3.028-0.055-4.935-0.105c-4.292-0.115-5.556-0.231-7.518-0.694c-1.899-0.448-3.02-0.455-3.032-0.455h-0.22
				l0.016-0.248c0.041-0.59,0.35-1.706,1.229-1.706c2.14,0,6.021-0.029,7.973-0.228c1.051-0.107,1.885-0.292,2.62-0.455
				c0.852-0.188,1.586-0.351,2.42-0.351c0.575,0,0.801-0.048,1.003-0.091c0.15-0.032,0.293-0.062,0.537-0.062
				c0.306,0,0.758,0.048,1.46,0.155c1.005,0.154,1.131,0.246,1.225,0.387c0.19,0.074,1.378,0.157,1.833,0.186
				c2.103,0.144,2.722,0.245,3.378,0.352c0.411,0.067,0.836,0.137,1.65,0.223c0.583,0.063,1.046,0.082,1.454,0.099
				c1.098,0.046,1.702,0.071,2.646,0.866c0.588,0.495,0.822,0.929,0.718,1.328c-0.121,0.458-0.674,0.73-1.646,0.809
				c-0.78,0.062-1.68-0.101-2.632-0.273c-0.81-0.148-1.647-0.301-2.403-0.301c-0.484,0-0.552,0.076-0.553,0.08
				c-0.005,0.006-0.014,0.034-0.018,0.053C71.558,11.524,71.302,11.707,70.111,11.707z M49.205,9.865
				c0.43,0.024,1.424,0.113,2.878,0.457c1.93,0.456,3.183,0.571,7.442,0.684c1.907,0.051,3.514,0.08,4.932,0.105
				c1.823,0.032,3.399,0.06,5.112,0.125c0.204,0.007,0.382,0.012,0.542,0.012c1.091,0,1.133-0.159,1.152-0.236
				c0.092-0.356,0.317-0.465,0.964-0.465c0.79,0,1.644,0.155,2.469,0.306c0.928,0.168,1.799,0.329,2.538,0.269
				c0.872-0.069,1.235-0.302,1.282-0.479c0.017-0.068,0.028-0.328-0.571-0.832c-0.841-0.708-1.368-0.73-2.415-0.774
				C75.116,9.02,74.647,9,74.051,8.937c-0.824-0.088-1.254-0.159-1.67-0.227c-0.675-0.11-1.257-0.206-3.343-0.347
				c-1.983-0.135-2.018-0.188-2.131-0.364c-0.022-0.017-0.167-0.091-0.958-0.212c-0.684-0.104-1.116-0.151-1.404-0.151
				c-0.206,0-0.318,0.025-0.462,0.055c-0.207,0.044-0.464,0.099-1.078,0.099c-0.793,0-1.51,0.159-2.34,0.342
				c-0.746,0.165-1.59,0.353-2.663,0.461c-1.968,0.201-5.865,0.231-8.01,0.231C49.468,8.823,49.272,9.495,49.205,9.865z"/>
			<path fill="#AA9E89" d="M102.671,33.17c-3.088,0-7.351-0.244-12.881-0.559l-2.102-0.119c-13.222-0.747-33.173-5.602-47.582-9.543
				c-17.098-4.676-18.47-5.792-18.699-7.071c-0.061-0.341,0.057-0.544,0.165-0.654c0.506-0.516,1.962-0.054,2.248,0.044
				l-0.119,0.439c-0.62-0.212-1.606-0.396-1.854-0.144c-0.019,0.02-0.065,0.068-0.038,0.223c0.179,1.004,1.647,2.136,18.394,6.716
				c14.392,3.936,34.316,8.785,47.506,9.53l2.102,0.12c10.765,0.613,16.694,0.952,18.376-0.201l0.215,0.394
				C107.524,32.945,105.641,33.17,102.671,33.17z"/>
			
				<rect x="49.74" y="36.096" transform="matrix(0.0115 0.9999 -0.9999 0.0115 89.7644 -18.4076)" fill="#AA9E89" width="8.905" height="0.205"/>
			<rect x="57.114" y="32.838" fill="#AA9E89" width="0.205" height="8.501"/>
			<rect x="64.52" y="34.667" fill="#AA9E89" width="0.205" height="8.503"/>
			<rect x="71.3" y="36.005" fill="#AA9E89" width="0.204" height="9.472"/>
			<rect x="77.388" y="37.554" fill="#AA9E89" width="0.207" height="9.558"/>
			<rect x="84.292" y="38.609" fill="#AA9E89" width="0.205" height="9.824"/>
			<rect x="92.83" y="38.328" fill="#AA9E89" width="0.204" height="9.825"/>
			<rect x="100.174" y="38.258" fill="#AA9E89" width="0.205" height="9.823"/>
			<rect x="106.828" y="37.905" fill="#AA9E89" width="0.205" height="9.824"/>
			<rect x="110.154" y="36.076" fill="#AA9E89" width="0.206" height="12.429"/>
			<rect x="69.598" y="14.965" fill="#AA9E89" width="5.406" height="0.23"/>
			<path fill="#AA9E89" d="M55.943,21.73l-1.28-0.005l-29.645-7.156l-0.298-1.836l0.402-0.083l0.043,0.257l0.077-0.363l29.284,7.826
				L55.943,21.73z M54.727,21.271h0.107l-0.498-0.479L25.181,13l0.191,1.183L54.727,21.271z"/>
			<path fill="#AA9E89" d="M54.81,20.606c-0.039-0.2-0.088-0.592-0.15-1.09c-0.149-1.193-0.373-2.996-0.655-3.468
				c-0.521-0.528-17.364-4.476-28.556-6.998l0.04-0.225c4.718,1.063,28.275,6.403,28.686,7.097c0.308,0.515,0.527,2.277,0.687,3.563
				c0.06,0.473,0.11,0.881,0.148,1.071L54.81,20.606z"/>
			
				<rect x="26.971" y="8.439" transform="matrix(0.9999 0.0152 -0.0152 0.9999 0.1334 -0.4847)" fill="#AA9E89" width="10.111" height="0.23"/>
			<path fill="#AA9E89" d="M21.855,25.62c0,0.995,0,1.991,0,2.987c0,0.066,0.396,0.004,0.396-0.119c0-0.996,0-1.992,0-2.988
				C22.251,25.435,21.855,25.497,21.855,25.62L21.855,25.62z"/>
			<path fill="#AA9E89" d="M23.084,26.692c0.247,0.991,0.207,2.003,0.203,3.023c0,0.229,0.4,0.161,0.401-0.037
				c0.004-1.046,0.046-2.087-0.208-3.106C23.43,26.371,23.034,26.49,23.084,26.692L23.084,26.692z"/>
			<path fill="#AA9E89" d="M26.842,28.301c0.322,0.99,0.084,2.041,0.137,3.065c0.008,0.16,0.405,0.064,0.395-0.12
				c-0.053-1.026,0.187-2.069-0.137-3.063C27.184,28.013,26.79,28.14,26.842,28.301L26.842,28.301z"/>
			<path fill="#AA9E89" d="M28.069,24.66c0.008,2.376,0.129,4.75,0.137,7.125c0.001,0.224,0.4,0.148,0.4-0.039
				c-0.009-2.375-0.128-4.748-0.136-7.123C28.469,24.398,28.069,24.474,28.069,24.66L28.069,24.66z"/>
			<path fill="#AA9E89" d="M26.772,24.049c-0.004,1.378-0.04,2.742,0.207,4.1c0.033,0.187,0.431,0.072,0.395-0.119
				c-0.242-1.332-0.208-2.672-0.203-4.022C27.172,23.79,26.772,23.87,26.772,24.049L26.772,24.049z"/>
			<path fill="#AA9E89" d="M23.084,22.675c0.01,1.636,0.126,3.267,0.136,4.902c0.001,0.195,0.398,0.103,0.397-0.051
				c-0.011-1.636-0.126-3.267-0.138-4.904C23.48,22.428,23.083,22.521,23.084,22.675L23.084,22.675z"/>
			<path fill="#AA9E89" d="M32.375,26.309c0,2.4,0,4.801,0,7.201c0,0.066,0.396,0.004,0.396-0.119c0-2.399,0-4.8,0-7.201
				C32.771,26.124,32.375,26.186,32.375,26.309L32.375,26.309z"/>
			<path fill="#AA9E89" d="M33.537,26.506c0,2.413,0.006,4.824,0.136,7.234c0.008,0.151,0.405,0.056,0.396-0.119
				c-0.128-2.387-0.136-4.777-0.136-7.168C33.933,26.261,33.535,26.354,33.537,26.506L33.537,26.506z"/>
			<path fill="#AA9E89" d="M37.771,27.841c0.007,2.376,0.128,4.748,0.137,7.124c0,0.108,0.395,0.033,0.395-0.119
				c-0.008-2.376-0.128-4.749-0.136-7.124C38.167,27.613,37.771,27.689,37.771,27.841L37.771,27.841z"/>
			<path fill="#AA9E89" d="M39.412,27.995c0.074,2.527,0.257,5.052,0.204,7.583c0,0.083,0.394,0.019,0.397-0.119
				c0.053-2.533-0.129-5.055-0.205-7.583C39.804,27.786,39.407,27.86,39.412,27.995L39.412,27.995z"/>
			<path fill="#AA9E89" d="M35.982,31.436c0.005,0.971,0.063,1.939,0.068,2.911c0,0.233,0.402,0.166,0.4-0.033
				c-0.004-0.972-0.063-1.941-0.067-2.911C36.382,31.168,35.982,31.236,35.982,31.436L35.982,31.436z"/>
			<path fill="#AA9E89" d="M43.578,29.449c0.82,2.533,0.755,5.281,0.683,7.935c-0.004,0.188,0.393,0.095,0.397-0.054
				c0.074-2.674,0.142-5.447-0.684-7.999C43.923,29.172,43.531,29.301,43.578,29.449L43.578,29.449z"/>
			<path fill="#AA9E89" d="M45.012,30.139c0.058,2.403-0.049,4.815,0.273,7.201c0.018,0.126,0.417,0.025,0.396-0.119
				c-0.324-2.386-0.215-4.798-0.273-7.201C45.405,29.905,45.009,29.985,45.012,30.139L45.012,30.139z"/>
			<path fill="#AA9E89" d="M42.301,33.111c-0.184,1.093-0.077,2.19-0.068,3.293c0.002,0.197,0.398,0.105,0.397-0.051
				c-0.009-1.102-0.115-2.203,0.068-3.294C42.729,32.877,42.329,32.95,42.301,33.111L42.301,33.111z"/>
			<path fill="#AA9E89" d="M47.751,35.25c0.125,0.901,0.133,1.806,0.133,2.715c0,0.231,0.402,0.161,0.402-0.034
				c-0.002-0.938-0.012-1.872-0.141-2.8C48.119,34.929,47.722,35.04,47.751,35.25L47.751,35.25z"/>
			<path fill="#AA9E89" d="M49.588,31.059c0.529,2.699,0.676,5.439,0.684,8.197c0,0.083,0.396,0.015,0.395-0.12
				c-0.007-2.756-0.155-5.498-0.683-8.196C49.964,30.834,49.567,30.944,49.588,31.059L49.588,31.059z"/>
			<path fill="#AA9E89" d="M51.366,31.671c0.56,2.419,0.286,4.963,0.272,7.431c0,0.078,0.395,0.013,0.396-0.119
				c0.013-2.468,0.286-5.012-0.273-7.431C51.738,31.448,51.341,31.565,51.366,31.671L51.366,31.671z"/>
			<path fill="#AA9E89" d="M26.364,33.05c0.634,1.433,0.292,3.142,0.273,4.673c-0.001,0.1,0.394,0.028,0.396-0.12
				c0.019-1.532,0.362-3.241-0.272-4.672C26.703,32.802,26.321,32.954,26.364,33.05L26.364,33.05z"/>
			<path fill="#AA9E89" d="M25.271,32.284c0.125,1.35,0.072,2.705,0.068,4.06c0,0.119,0.396,0.041,0.396-0.12
				c0.004-1.354,0.057-2.709-0.068-4.06C25.654,32.035,25.256,32.13,25.271,32.284L25.271,32.284z"/>
			<path fill="#AA9E89" d="M22.742,30.792c0.015,1.689,0.192,3.367,0.206,5.056c0,0.208,0.399,0.124,0.397-0.047
				c-0.014-1.688-0.191-3.367-0.204-5.055C23.139,30.538,22.741,30.624,22.742,30.792L22.742,30.792z"/>
			<path fill="#AA9E89" d="M21.173,29.449c0.379,1.957,0.279,3.948,0.271,5.935c-0.001,0.227,0.398,0.156,0.399-0.038
				c0.009-2.015,0.11-4.032-0.275-6.015C21.53,29.131,21.134,29.247,21.173,29.449L21.173,29.449z"/>
			<path fill="#AA9E89" d="M29.301,34.505c0.174,1.476-0.038,2.965,0.138,4.443c0.023,0.207,0.419,0.097,0.395-0.119
				c-0.174-1.477,0.039-2.965-0.136-4.442C29.673,34.18,29.275,34.291,29.301,34.505L29.301,34.505z"/>
			<path fill="#AA9E89" d="M30.534,34.64c-0.829,1.198-0.295,3.305-0.276,4.691c0,0.063,0.396-0.001,0.396-0.119
				c-0.019-1.371-0.544-3.477,0.269-4.654C30.942,34.532,30.604,34.539,30.534,34.64L30.534,34.64z"/>
			<path fill="#AA9E89" d="M31.075,35c0,1.354,0,2.707,0,4.06c0,0.229,0.4,0.158,0.4-0.036c0-1.354,0-2.707,0-4.06
				C31.475,34.735,31.075,34.807,31.075,35L31.075,35z"/>
			<path fill="#AA9E89" d="M34.219,35.655c0.172,2.094-0.094,4.196,0.206,6.281c0.022,0.162,0.42,0.056,0.396-0.119
				c-0.3-2.083-0.034-4.188-0.206-6.281C34.602,35.377,34.205,35.477,34.219,35.655L34.219,35.655z"/>
			<path fill="#AA9E89" d="M35.788,36.303c0.01,1.687,0.126,3.368,0.137,5.056c0.001,0.227,0.4,0.154,0.399-0.038
				c-0.01-1.685-0.126-3.368-0.136-5.055C36.186,36.039,35.788,36.112,35.788,36.303L35.788,36.303z"/>
			<path fill="#AA9E89" d="M36.061,36.913c0.08,1.612,0.322,3.209,0.342,4.825c0.002,0.241,0.404,0.18,0.4-0.029
				c-0.018-1.618-0.262-3.212-0.341-4.827C36.451,36.642,36.051,36.705,36.061,36.913L36.061,36.913z"/>
			<path fill="#AA9E89" d="M39,37.876c0.264,1.419,0.475,2.848,0.615,4.289c0.012,0.114,0.411,0.021,0.397-0.118
				c-0.141-1.443-0.353-2.87-0.615-4.291C39.375,37.636,38.977,37.744,39,37.876L39,37.876z"/>
			<path fill="#AA9E89" d="M40.367,38.029c0.186,1.383,0.139,2.774,0.134,4.168c0,0.241,0.4,0.18,0.401-0.03
				c0.004-1.423,0.049-2.846-0.14-4.257C40.735,37.696,40.338,37.808,40.367,38.029L40.367,38.029z"/>
			<path fill="#AA9E89" d="M41.461,38.565c0.078,1.638,0.265,3.265,0.34,4.903c0.006,0.123,0.404,0.037,0.396-0.12
				c-0.076-1.637-0.262-3.265-0.341-4.902C41.85,38.322,41.453,38.408,41.461,38.565L41.461,38.565z"/>
			<path fill="#AA9E89" d="M44.739,39.484c0.665,1.609,0.238,3.431,0.478,5.132c0.03,0.213,0.427,0.1,0.396-0.119
				c-0.24-1.704,0.191-3.519-0.478-5.132C45.052,39.165,44.66,39.292,44.739,39.484L44.739,39.484z"/>
			<path fill="#AA9E89" d="M46.989,40.282c0.021,1.689,0.25,3.365,0.207,5.056c-0.007,0.241,0.396,0.183,0.401-0.029
				c0.043-1.691-0.186-3.367-0.206-5.056C47.389,40.011,46.987,40.072,46.989,40.282L46.989,40.282z"/>
			<path fill="#AA9E89" d="M49.794,40.634c0.78,1.802,0.364,3.94,0.341,5.864c-0.003,0.194,0.395,0.104,0.396-0.052
				c0.023-1.936,0.445-4.117-0.342-5.932C50.121,40.354,49.734,40.494,49.794,40.634L49.794,40.634z"/>
			<path fill="#AA9E89" d="M50.971,41.282c0.873,1.332,0.473,3.511,0.46,5.057c-0.002,0.22,0.398,0.143,0.399-0.04
				c0.015-1.59,0.408-3.831-0.495-5.207C51.237,40.943,50.858,41.108,50.971,41.282L50.971,41.282z"/>
			<path fill="#AA9E89" d="M52.593,41.894c0.005,1.685,0.063,3.37,0.069,5.056c0,0.231,0.4,0.162,0.399-0.034
				c-0.004-1.687-0.063-3.372-0.068-5.057C52.992,41.627,52.592,41.696,52.593,41.894L52.593,41.894z"/>
			<path fill="#AA9E89" d="M55.737,42.932c0.187,1.653,0.216,3.32,0.342,4.979c0.005,0.073,0.404-0.008,0.395-0.118
				c-0.125-1.661-0.154-3.326-0.341-4.979C56.125,42.735,55.725,42.825,55.737,42.932L55.737,42.932z"/>
			<path fill="#AA9E89" d="M57.034,43.544c0.465,1.517,0.219,3.139,0.203,4.707c-0.003,0.236,0.399,0.173,0.402-0.032
				c0.017-1.596,0.266-3.249-0.207-4.793C57.367,43.218,56.973,43.342,57.034,43.544L57.034,43.544z"/>
			<path fill="#AA9E89" d="M61.815,44.655c0,1.711,0,3.422,0,5.132c0,0.215,0.398,0.135,0.398-0.043c0-1.71,0-3.421,0-5.132
				C62.214,44.398,61.815,44.479,61.815,44.655L61.815,44.655z"/>
			<path fill="#AA9E89" d="M64.41,45.454c0,1.71,0,3.421,0,5.132c0,0.214,0.398,0.134,0.398-0.042c0-1.711,0-3.423,0-5.133
				C64.808,45.195,64.41,45.276,64.41,45.454L64.41,45.454z"/>
			<path fill="#AA9E89" d="M67.213,45.688c0,1.711,0,3.422,0,5.133c0,0.215,0.398,0.134,0.398-0.043c0-1.71,0-3.421,0-5.132
				C67.612,45.429,67.213,45.511,67.213,45.688L67.213,45.688z"/>
			<path fill="#AA9E89" d="M70.101,46.814c0,1.711,0,3.421,0,5.131c0,0.216,0.4,0.134,0.4-0.042c0-1.71,0-3.422,0-5.132
				C70.5,46.556,70.101,46.637,70.101,46.814L70.101,46.814z"/>
			<path fill="#AA9E89" d="M75.123,48.222c0,1.71,0,3.422,0,5.132c0,0.215,0.399,0.134,0.399-0.043c0-1.711,0-3.422,0-5.132
				C75.522,47.964,75.123,48.044,75.123,48.222L75.123,48.222z"/>
			<path fill="#AA9E89" d="M77.843,48.738c0,1.71,0,3.421,0,5.132c0,0.215,0.398,0.134,0.398-0.042c0-1.712,0-3.423,0-5.133
				C78.241,48.479,77.843,48.562,77.843,48.738L77.843,48.738z"/>
			<path fill="#AA9E89" d="M80.94,49.114c0,1.71,0,3.421,0,5.132c0,0.215,0.398,0.135,0.398-0.043c0-1.71,0-3.421,0-5.132
				C81.338,48.855,80.94,48.936,80.94,49.114L80.94,49.114z"/>
			<path fill="#AA9E89" d="M93.786,50.521c0,1.712,0,3.422,0,5.133c0,0.215,0.399,0.135,0.399-0.043c0-1.711,0-3.421,0-5.131
				C94.185,50.264,93.786,50.344,93.786,50.521L93.786,50.521z"/>
			<path fill="#AA9E89" d="M84.359,49.979c-0.046,1.564,0.186,3.112,0.205,4.674c0.001,0.082,0.398,0.013,0.396-0.119
				c-0.018-1.562-0.25-3.109-0.206-4.673C84.757,49.784,84.363,49.845,84.359,49.979L84.359,49.979z"/>
			<path fill="#AA9E89" d="M86.889,50.19c-0.405,1.471-0.156,3.029-0.139,4.538c0,0.066,0.397,0.002,0.396-0.119
				c-0.017-1.494-0.269-3.043,0.133-4.5C87.302,50.029,86.92,50.081,86.889,50.19L86.889,50.19z"/>
			<path fill="#AA9E89" d="M89.958,50.477c-0.005,1.699-0.052,3.397,0.07,5.094c0.014,0.185,0.41,0.081,0.396-0.119
				c-0.12-1.671-0.071-3.343-0.067-5.017C90.358,50.216,89.958,50.294,89.958,50.477L89.958,50.477z"/>
			<path fill="#AA9E89" d="M98.02,49.979c0.097,0.85-0.507,3.672,0.714,3.669c0.627-0.002,1.268-0.152,1.882-0.272
				c0.984-0.19,1.985-0.221,2.963-0.459c0.158-0.038,0.347-0.239,0.07-0.172c-1.391,0.338-2.927,0.511-4.352,0.688
				c-1.412,0.177-0.771-2.593-0.88-3.572C98.406,49.766,98.007,49.857,98.02,49.979L98.02,49.979z"/>
			<path fill="#AA9E89" d="M103.004,50.781c0,0.767,0,1.533,0,2.298c0,0.224,0.401,0.147,0.401-0.038c0-0.766,0-1.532,0-2.299
				C103.405,50.52,103.004,50.595,103.004,50.781L103.004,50.781z"/>
			<path fill="#AA9E89" d="M21.513,16.548c-0.011,1.132-0.142,2.256-0.153,3.39c-0.001,0.19,0.395,0.098,0.396-0.054
				c0.011-1.133,0.143-2.256,0.154-3.39C21.912,16.304,21.515,16.396,21.513,16.548L21.513,16.548z"/>
			<path fill="#AA9E89" d="M22.641,17.327c0,0.862,0,1.724,0,2.586c0,0.125,0.396,0.044,0.396-0.118c0-0.862,0-1.724,0-2.586
				C23.037,17.084,22.641,17.164,22.641,17.327L22.641,17.327z"/>
			<path fill="#AA9E89" d="M24.38,18.563c0.14,0.932,0.108,1.874,0.153,2.814c0.003,0.072,0.401-0.002,0.396-0.119
				c-0.044-0.94-0.012-1.883-0.153-2.814C24.764,18.359,24.364,18.458,24.38,18.563L24.38,18.563z"/>
			<path fill="#AA9E89" d="M26.021,18.822c0,1.187,0,2.374,0,3.562c0,0.075,0.397,0.01,0.397-0.118c0-1.188,0-2.376,0-3.563
				C26.418,18.626,26.021,18.692,26.021,18.822L26.021,18.822z"/>
			<path fill="#AA9E89" d="M29.558,20.027c0.133,1.136,0.058,2.275,0.051,3.416c-0.001,0.185,0.394,0.088,0.396-0.056
				c0.007-1.163,0.085-2.321-0.052-3.478C29.936,19.761,29.537,19.862,29.558,20.027L29.558,20.027z"/>
			<path fill="#AA9E89" d="M31.801,20.782c0.127,1.102-0.085,2.193-0.103,3.296c-0.002,0.202,0.396,0.115,0.398-0.049
				c0.017-1.127,0.23-2.24,0.102-3.367C32.178,20.493,31.78,20.598,31.801,20.782L31.801,20.782z"/>
			<path fill="#AA9E89" d="M33.605,21.349c0.194,1.166,0.246,2.351,0.048,3.52c-0.037,0.218,0.367,0.159,0.401-0.035
				C34.257,23.638,34.2,22.421,34,21.23C33.967,21.029,33.569,21.143,33.605,21.349L33.605,21.349z"/>
			<path fill="#AA9E89" d="M36.085,21.814c0.047,1.187,0.052,2.374,0.052,3.562c0,0.239,0.401,0.176,0.401-0.031
				c0-1.188-0.005-2.374-0.052-3.562C36.478,21.544,36.078,21.609,36.085,21.814L36.085,21.814z"/>
			<path fill="#AA9E89" d="M37.804,22.631c0,0.938,0,1.877,0,2.816c0,0.218,0.399,0.139,0.399-0.042c0-0.938,0-1.876,0-2.814
				C38.204,22.372,37.804,22.45,37.804,22.631L37.804,22.631z"/>
			<path fill="#AA9E89" d="M40.434,23.049c0.57,1.186,0.255,2.667,0.239,3.95c-0.002,0.213,0.397,0.132,0.399-0.044
				c0.017-1.345,0.325-2.848-0.273-4.092C40.726,22.709,40.343,22.86,40.434,23.049L40.434,23.049z"/>
			<path fill="#AA9E89" d="M44.824,24.303c0,1.226,0,2.451,0,3.677c0,0.197,0.397,0.105,0.397-0.051c0-1.226,0-2.451,0-3.677
				C45.222,24.055,44.824,24.146,44.824,24.303L44.824,24.303z"/>
			<path fill="#AA9E89" d="M47.06,24.839c0.386,1.208,0.218,2.48,0.206,3.734c-0.001,0.091,0.394,0.022,0.396-0.119
				c0.013-1.255,0.182-2.526-0.205-3.735C47.418,24.599,47.026,24.732,47.06,24.839L47.06,24.839z"/>
			<path fill="#AA9E89" d="M50.612,25.676c0,1.211,0,2.422,0,3.633c0,0.309,0.404,0.227,0.404-0.04c0-1.211,0-2.422,0-3.633
				C51.016,25.328,50.612,25.41,50.612,25.676L50.612,25.676z"/>
			<path fill="#AA9E89" d="M55.238,27.292c-0.131,1.281,0.024,2.573-0.153,3.85c-0.029,0.199,0.374,0.129,0.398-0.045
				c0.178-1.277,0.022-2.568,0.153-3.85C55.657,27.043,55.257,27.119,55.238,27.292L55.238,27.292z"/>
			<path fill="#AA9E89" d="M58.76,27.898c0,1.417,0,2.835,0,4.252c0,0.106,0.396,0.032,0.396-0.119c0-1.417,0-2.834,0-4.251
				C59.156,27.674,58.76,27.748,58.76,27.898L58.76,27.898z"/>
			<path fill="#AA9E89" d="M64.037,29.22c0,1.264,0,2.527,0,3.792c0,0.112,0.396,0.036,0.396-0.119c0-1.263,0-2.528,0-3.792
				C64.433,28.988,64.037,29.065,64.037,29.22L64.037,29.22z"/>
			<path fill="#AA9E89" d="M64.651,29.392c0.153,1.309,0.391,2.604,0.409,3.927c0.004,0.212,0.4,0.128,0.397-0.044
				c-0.017-1.349-0.254-2.668-0.41-4.001C65.025,29.094,64.629,29.201,64.651,29.392L64.651,29.392z"/>
			<path fill="#AA9E89" d="M67.639,30.173c0.548,1.066,0.304,2.377,0.289,3.548c-0.002,0.215,0.397,0.136,0.4-0.043
				c0.014-1.232,0.253-2.569-0.325-3.691C67.923,29.831,67.542,29.987,67.639,30.173L67.639,30.173z"/>
			<path fill="#AA9E89" d="M69.006,30.081c0,1.552,0,3.103,0,4.654c0,0.106,0.396,0.032,0.396-0.119c0-1.552,0-3.103,0-4.654
				C69.402,29.857,69.006,29.931,69.006,30.081L69.006,30.081z"/>
			<path fill="#AA9E89" d="M70.876,30.973c0.245,1.268,0.208,2.56,0.205,3.85c0,0.112,0.396,0.036,0.396-0.119
				c0.003-1.29,0.039-2.582-0.206-3.85C71.247,30.722,70.85,30.833,70.876,30.973L70.876,30.973z"/>
			<path fill="#AA9E89" d="M73.925,31.345c0.008,1.476,0.154,3.061-0.512,4.399c-0.046,0.091,0.332,0.055,0.395-0.068
				c0.672-1.349,0.521-2.963,0.513-4.45C74.32,31.12,73.925,31.196,73.925,31.345L73.925,31.345z"/>
			<path fill="#AA9E89" d="M76.077,31.662c-0.08,1.093,0.084,2.179,0.052,3.273c-0.005,0.172,0.39,0.075,0.394-0.061
				c0.032-1.094-0.131-2.181-0.051-3.274C76.484,31.433,76.087,31.524,76.077,31.662L76.077,31.662z"/>
			<path fill="#AA9E89" d="M78.074,32.035c0.124,1.238,0.395,2.449,0.769,3.62c0.041,0.126,0.433-0.007,0.397-0.119
				c-0.376-1.171-0.647-2.382-0.769-3.619C78.459,31.804,78.061,31.896,78.074,32.035L78.074,32.035z"/>
			<path fill="#AA9E89" d="M81.351,32.453c0.02,1.54,0.286,3.057,0.308,4.596c0.003,0.233,0.402,0.164,0.4-0.034
				c-0.021-1.54-0.287-3.057-0.307-4.597C81.749,32.185,81.348,32.254,81.351,32.453L81.351,32.453z"/>
			<path fill="#AA9E89" d="M83.915,32.667c0.233,1.042,0.161,2.098,0.155,3.16c0,0.063,0.394,0.004,0.396-0.119
				c0.005-1.063,0.078-2.118-0.155-3.16C84.291,32.457,83.894,32.572,83.915,32.667L83.915,32.667z"/>
			<path fill="#AA9E89" d="M87.194,32.639c-0.096,1.063-0.102,2.13,0.051,3.188c0.019,0.135,0.417,0.032,0.395-0.119
				c-0.149-1.039-0.148-2.085-0.051-3.131C87.604,32.415,87.206,32.501,87.194,32.639L87.194,32.639z"/>
			<path fill="#AA9E89" d="M106.303,33.145c0,0.996,0,1.992,0,2.987c0,0.221,0.399,0.143,0.399-0.04c0-0.996,0-1.992,0-2.987
				C106.702,32.883,106.303,32.961,106.303,33.145L106.303,33.145z"/>
			<path fill="#AA9E89" d="M104.305,33.701c0.22,0.822,0.587,1.666,0.459,2.543c-0.033,0.224,0.371,0.166,0.401-0.035
				c0.133-0.908-0.236-1.775-0.464-2.627C104.646,33.377,104.252,33.499,104.305,33.701L104.305,33.701z"/>
			<path fill="#AA9E89" d="M102.256,33.816c0.07,0.892,0.337,1.744,0.357,2.643c0.004,0.136,0.4,0.05,0.398-0.119
				c-0.022-0.899-0.29-1.751-0.361-2.643C102.642,33.556,102.243,33.65,102.256,33.816L102.256,33.816z"/>
			<path fill="#AA9E89" d="M96.875,33.657c0,1.035-0.005,2.069-0.053,3.102c-0.01,0.24,0.393,0.18,0.403-0.03
				c0.047-1.034,0.051-2.068,0.051-3.103C97.276,33.386,96.875,33.447,96.875,33.657L96.875,33.657z"/>
			<path fill="#AA9E89" d="M93.596,33.375c0,1.13,0,2.26,0,3.39c0,0.219,0.4,0.141,0.4-0.042c0-1.129,0-2.259,0-3.389
				C93.996,33.115,93.596,33.194,93.596,33.375L93.596,33.375z"/>
			<path fill="#AA9E89" d="M90.216,33.241c0.388,1.035,0.217,2.152,0.205,3.24c-0.002,0.202,0.395,0.114,0.397-0.049
				c0.012-1.109,0.189-2.254-0.206-3.31C90.549,32.954,90.157,33.085,90.216,33.241L90.216,33.241z"/>
			<path fill="#AA9E89" d="M89.602,29.449c0.067,1.025-0.558,2.015-1.108,2.771c-0.084,0.115,0.297,0.055,0.358-0.028
				c0.576-0.788,1.218-1.792,1.146-2.86C89.992,29.242,89.594,29.323,89.602,29.449L89.602,29.449z"/>
			<path fill="#AA9E89" d="M84.647,29.25c0.841,0.896,0.776,2.47,1.87,3.124c0.121,0.072,0.483-0.121,0.313-0.222
				c-1.053-0.629-0.998-2.207-1.817-3.08C84.907,28.959,84.535,29.128,84.647,29.25L84.647,29.25z"/>
			<path fill="#AA9E89" d="M78.074,28.474c0.068,0.981-0.426,1.972-1.259,2.338c-0.26,0.114-0.018,0.218,0.147,0.145
				c0.95-0.416,1.588-1.445,1.508-2.602C78.462,28.237,78.064,28.324,78.074,28.474L78.074,28.474z"/>
			<path fill="#AA9E89" d="M75.667,27.783c0,1.671,0.014,3.338,0.204,4.999c0.011,0.104,0.41,0.011,0.396-0.12
				c-0.191-1.659-0.205-3.326-0.205-4.998C76.063,27.575,75.667,27.644,75.667,27.783L75.667,27.783z"/>
			<path fill="#AA9E89" d="M87.246,29.277c0.014,1.573,0.186,3.138,0.153,4.711c-0.002,0.113,0.393,0.04,0.396-0.119
				c0.032-1.574-0.139-3.139-0.154-4.711C87.64,29.041,87.244,29.12,87.246,29.277L87.246,29.277z"/>
			<path fill="#AA9E89" d="M97.132,28.071c0.317,2.205,1.538,3.837,1.947,5.975c0.027,0.141,0.425,0.029,0.396-0.12
				c-0.412-2.144-1.631-3.776-1.946-5.975C97.51,27.813,97.111,27.917,97.132,28.071L97.132,28.071z"/>
			<path fill="#AA9E89" d="M69.878,27.324c0.006,0.622,0.123,1.318-0.368,1.758c-0.167,0.151,0.229,0.114,0.31,0.042
				c0.559-0.5,0.461-1.199,0.454-1.919C70.271,27.099,69.875,27.175,69.878,27.324L69.878,27.324z"/>
			<path fill="#AA9E89" d="M67.11,26.98c0.131,1.205,0.529,2.72,1.721,3.039c0.201,0.053,0.393-0.269,0.132-0.338
				c-1.038-0.278-1.347-1.803-1.458-2.821C67.483,26.645,67.087,26.756,67.11,26.98L67.11,26.98z"/>
			<path fill="#AA9E89" d="M73.566,27.898c0.458,0.897,0.681,1.933,1.294,2.724c0.08,0.105,0.458-0.051,0.369-0.165
				c-0.603-0.778-0.818-1.797-1.269-2.677C73.893,27.644,73.514,27.798,73.566,27.898L73.566,27.898z"/>
			<path fill="#AA9E89" d="M64.805,26.577c0.038,0.445-0.03,0.932-0.385,1.2c-0.222,0.168,0.123,0.215,0.244,0.124
				c0.448-0.339,0.585-0.855,0.537-1.441C65.189,26.318,64.792,26.414,64.805,26.577L64.805,26.577z"/>
			<path fill="#AA9E89" d="M61.886,25.658c0.25,0.833,0.56,1.578,1.319,1.942c0.116,0.055,0.478-0.134,0.316-0.212
				c-0.72-0.344-1.005-1.06-1.241-1.849C62.235,25.387,61.842,25.515,61.886,25.658L61.886,25.658z"/>
			<path fill="#AA9E89" d="M60.33,25.25c-0.43,0.557-0.663,1.334-1.254,1.716c-0.233,0.151-0.02,0.377,0.173,0.252
				c0.675-0.436,0.922-1.212,1.411-1.845C60.823,25.162,60.444,25.103,60.33,25.25L60.33,25.25z"/>
			<path fill="#AA9E89" d="M57.121,25.428c0.118,0.49,0.367,0.925,0.73,1.23c0.104,0.086,0.463-0.088,0.369-0.166
				c-0.352-0.296-0.589-0.707-0.704-1.183C57.483,25.172,57.087,25.291,57.121,25.428L57.121,25.428z"/>
			<path fill="#AA9E89" d="M45.132,19.683c0.103,1.346,0.244,2.688,0.255,4.041c0.001,0.216,0.399,0.136,0.399-0.042
				c-0.012-1.379-0.152-2.746-0.259-4.117C45.513,19.384,45.117,19.486,45.132,19.683L45.132,19.683z"/>
			<path fill="#AA9E89" d="M40.979,18.892c0,1.226,0,2.452,0,3.676c0,0.24,0.402,0.176,0.402-0.031c0-1.226,0-2.451,0-3.676
				C41.381,18.622,40.979,18.685,40.979,18.892L40.979,18.892z"/>
			<path fill="#AA9E89" d="M38.111,18.093c0,1.359,0,2.719,0,4.08c0,0.216,0.399,0.136,0.399-0.043c0-1.359,0-2.719,0-4.079
				C38.511,17.833,38.111,17.913,38.111,18.093L38.111,18.093z"/>
			<path fill="#AA9E89" d="M30.633,16.466c0.189,0.888,0.116,1.805,0.256,2.701c0.021,0.131,0.419,0.025,0.396-0.119
				c-0.139-0.895-0.068-1.813-0.256-2.7C31,16.212,30.604,16.327,30.633,16.466L30.633,16.466z"/>
			<path fill="#AA9E89" d="M50.459,21.349c0,1.232-0.002,2.484,0.308,3.677c0.028,0.109,0.423-0.014,0.396-0.119
				c-0.309-1.193-0.306-2.445-0.306-3.677C50.857,21.148,50.459,21.215,50.459,21.349L50.459,21.349z"/>
			<path fill="#AA9E89" d="M34.527,7.183c0,0.805,0,1.608,0,2.413c0,0.197,0.396,0.106,0.396-0.051c0-0.804,0-1.608,0-2.414
				C34.923,6.934,34.527,7.024,34.527,7.183L34.527,7.183z"/>
			<path fill="#AA9E89" d="M34.349,5.941C39.646,5.8,44.951,6.268,50.238,5.738c1.121-0.112,2.219-0.288,3.315-0.569
				c1.444-0.371,2.568-0.64,3.975,0.029c1.077,0.511,2.277,0.833,3.402,1.182c1.308,0.406,2.545,1.05,3.857,1.444
				c0.17,0.051,0.468-0.228,0.228-0.3c-1.195-0.358-2.336-0.888-3.51-1.325c-1.24-0.461-2.529-0.772-3.749-1.301
				c-0.936-0.407-1.479-0.603-2.488-0.452c-1.283,0.193-2.521,0.639-3.809,0.823C45.8,6.078,40.066,5.464,34.384,5.616
				C34.158,5.622,34.079,5.948,34.349,5.941L34.349,5.941z"/>
			<path fill="#AA9E89" d="M38.347,6.26c1.274,0.379,2.497,0.884,3.704,1.476c0.138,0.068,0.493-0.148,0.31-0.239
				c-1.233-0.602-2.479-1.124-3.779-1.512C38.43,5.94,38.113,6.19,38.347,6.26L38.347,6.26z"/>
			<path fill="#AA9E89" d="M43.662,7.961c2.755,0.002,5.509,0.038,8.263,0.02c2.561-0.017,4.955-0.472,7.464-1
				c0.177-0.038,0.335-0.279,0.06-0.221c-2.612,0.55-5.091,0.977-7.758,0.994c-2.622,0.018-5.245-0.021-7.87-0.022
				C43.687,7.731,43.396,7.961,43.662,7.961L43.662,7.961z"/>
			<path fill="#AA9E89" d="M25.305,9.802c0,0.823,0,1.646,0,2.469c0,0.104,0.396,0.031,0.396-0.118c0-0.824,0-1.647,0-2.471
				C25.701,9.58,25.305,9.652,25.305,9.802L25.305,9.802z"/>
			<path fill="#AA9E89" d="M26.226,10.047c-0.005,0.859-0.037,1.715,0.053,2.569c0.02,0.198,0.417,0.089,0.396-0.119
				c-0.087-0.828-0.054-1.656-0.05-2.486C26.626,9.784,26.226,9.855,26.226,10.047L26.226,10.047z"/>
			<path fill="#AA9E89" d="M27.507,10.32c0.134,1.249,0.057,2.5,0.051,3.755c-0.001,0.205,0.398,0.117,0.398-0.048
				c0.007-1.278,0.083-2.553-0.052-3.827C27.886,10.03,27.489,10.134,27.507,10.32L27.507,10.32z"/>
			<path fill="#AA9E89" d="M28.583,10.508c-0.004,0.821-0.045,1.645,0.104,2.453c0.036,0.193,0.432,0.079,0.396-0.119
				c-0.145-0.783-0.104-1.579-0.1-2.374C28.982,10.247,28.583,10.324,28.583,10.508L28.583,10.508z"/>
			<path fill="#AA9E89" d="M30.223,11.353c0.141,0.76,0.106,1.527,0.104,2.297c0,0.104,0.394,0.032,0.396-0.118
				c0.003-0.771,0.038-1.54-0.103-2.298C30.596,11.11,30.198,11.219,30.223,11.353L30.223,11.353z"/>
			<path fill="#AA9E89" d="M31.863,12.1c0.003,0.653,0.049,1.303,0.102,1.953c0.009,0.103,0.407,0.016,0.396-0.118
				c-0.052-0.651-0.099-1.301-0.103-1.953C32.258,11.887,31.861,11.958,31.863,12.1L31.863,12.1z"/>
			<path fill="#AA9E89" d="M33.195,12.329c0.007,0.656,0.097,1.302,0.153,1.954c0.011,0.123,0.409,0.031,0.396-0.119
				c-0.055-0.652-0.146-1.298-0.153-1.954C33.59,12.095,33.193,12.174,33.195,12.329L33.195,12.329z"/>
			<path fill="#AA9E89" d="M34.373,12.616c0.231,0.688,0.165,1.413,0.257,2.125c0.018,0.143,0.416,0.041,0.396-0.118
				c-0.093-0.713-0.026-1.439-0.256-2.125C34.719,12.349,34.328,12.482,34.373,12.616L34.373,12.616z"/>
			<path fill="#AA9E89" d="M36.371,12.903c0.109,0.793,0.293,1.568,0.306,2.375c0.004,0.215,0.402,0.133,0.4-0.043
				c-0.014-0.833-0.198-1.632-0.31-2.451C36.743,12.602,36.345,12.711,36.371,12.903L36.371,12.903z"/>
			<path fill="#AA9E89" d="M37.957,13.665c0,0.783,0.007,1.564,0.105,2.341c0.027,0.214,0.423,0.101,0.396-0.118
				c-0.095-0.749-0.1-1.501-0.1-2.255C38.358,13.394,37.957,13.457,37.957,13.665L37.957,13.665z"/>
			<path fill="#AA9E89" d="M40.52,13.65c0.004,0.767,0.049,1.533,0.052,2.299c0,0.07,0.397,0.005,0.395-0.119
				c-0.003-0.767-0.047-1.532-0.051-2.298C40.916,13.461,40.52,13.526,40.52,13.65L40.52,13.65z"/>
			<path fill="#AA9E89" d="M41.597,14.11c0,1.034,0,2.068,0,3.102c0,0.136,0.396,0.053,0.396-0.119c0-1.034,0-2.069,0-3.102
				C41.993,13.854,41.597,13.938,41.597,14.11L41.597,14.11z"/>
			<path fill="#AA9E89" d="M44.209,14.225c0.06,1.038,0.198,2.066,0.257,3.102c0.004,0.064,0.402-0.01,0.396-0.119
				c-0.058-1.037-0.196-2.064-0.256-3.102C44.602,14.043,44.203,14.116,44.209,14.225L44.209,14.225z"/>
			<path fill="#AA9E89" d="M46.259,15.432c0.09,0.86,0.055,1.721,0.052,2.585c0,0.078,0.396,0.012,0.396-0.119
				c0.003-0.864,0.04-1.726-0.05-2.585C46.646,15.221,46.246,15.312,46.259,15.432L46.259,15.432z"/>
			<path fill="#AA9E89" d="M48.206,15.662c0.056,0.771,0.197,1.528,0.257,2.298c0.009,0.136,0.407,0.042,0.395-0.119
				c-0.06-0.77-0.199-1.528-0.256-2.298C48.593,15.407,48.193,15.5,48.206,15.662L48.206,15.662z"/>
			<path fill="#AA9E89" d="M50.204,16.237c0.004,0.797,0.057,1.585,0.256,2.354c0.024,0.092,0.419-0.031,0.398-0.119
				c-0.2-0.77-0.255-1.557-0.258-2.355C50.6,16.054,50.203,16.117,50.204,16.237L50.204,16.237z"/>
			<path fill="#AA9E89" d="M52.15,17.385c0.408,0.947,0.652,1.956,0.821,2.987c0.015,0.091,0.414-0.01,0.395-0.119
				c-0.168-1.032-0.411-2.041-0.819-2.988C52.5,17.158,52.12,17.313,52.15,17.385L52.15,17.385z"/>
			<path fill="#AA9E89" d="M76.56,15.402c2.74-0.046,5.478-0.017,8.219-0.08c1.447-0.033,2.384,0.069,3.199,1.5
				c0.505,0.884,0.754,1.963,0.958,2.976c0.038,0.184,0.433,0.069,0.396-0.119c-0.334-1.658-1.009-4.359-2.826-4.639
				c-1.534-0.237-3.205,0.024-4.752,0.033c-1.716,0.012-3.433,0.01-5.15,0.04C76.39,15.116,76.289,15.407,76.56,15.402L76.56,15.402
				z"/>
			<path fill="#AA9E89" d="M83.685,14.52c2.124,0.505,4.246,0.212,6.388,0.338c2.192,0.128,2.36,3.828,3.167,5.515
				c0.075,0.155,0.458,0.011,0.396-0.119c-0.453-0.946-0.69-1.997-1.007-3.004c-0.241-0.771-0.631-1.936-1.339-2.331
				c-0.824-0.461-1.751-0.324-2.643-0.307c-1.578,0.03-3.17,0.03-4.72-0.339C83.795,14.241,83.458,14.465,83.685,14.52L83.685,14.52
				z"/>
			<path fill="#AA9E89" d="M81.301,10.778c0,1.225,0,2.451,0,3.677c0,0.064,0.397,0.002,0.397-0.119c0-1.226,0-2.451,0-3.676
				C81.698,10.595,81.301,10.656,81.301,10.778L81.301,10.778z"/>
			<path fill="#AA9E89" d="M79.355,10.399c-0.021,1.684-0.281,3.377,0.103,5.033c0.039,0.168,0.436,0.05,0.397-0.119
				c-0.378-1.634-0.122-3.304-0.104-4.964C79.754,10.151,79.356,10.24,79.355,10.399L79.355,10.399z"/>
			<path fill="#AA9E89" d="M74.922,12.998c1.557-0.008,3.113-0.095,4.667-0.037c1.398,0.052,2.667,0.763,4.043,0.785
				c0.181,0.001,0.408-0.304,0.14-0.309c-0.766-0.011-1.455-0.305-2.18-0.539c-0.601-0.194-1.242-0.21-1.862-0.245
				c-1.586-0.09-3.18,0.028-4.769,0.037C74.741,12.691,74.653,13,74.922,12.998L74.922,12.998z"/>
			<path fill="#AA9E89" d="M53.38,11.64c-0.01,0.942-0.14,1.896,0.103,2.815c0.028,0.111,0.423-0.012,0.395-0.119
				c-0.241-0.92-0.111-1.873-0.102-2.815C53.777,11.438,53.382,11.504,53.38,11.64L53.38,11.64z"/>
			<path fill="#AA9E89" d="M50.921,11.64c0.004,1.072,0.048,2.144,0.051,3.217c0,0.113,0.396,0.037,0.396-0.119
				c-0.005-1.072-0.048-2.144-0.051-3.217C51.316,11.407,50.921,11.485,50.921,11.64L50.921,11.64z"/>
			<path fill="#AA9E89" d="M38.102,10.418c2.968,1.473,6.18,1.975,9.371,2.468c1.641,0.254,3.279,0.521,4.897,0.922
				c1.658,0.412,3.284,1.03,4.98,1.217c0.113,0.012,0.463-0.203,0.246-0.227c-1.467-0.162-2.876-0.654-4.304-1.035
				c-1.607-0.429-3.227-0.735-4.862-0.995c-3.4-0.54-6.84-0.983-10.01-2.557C38.31,10.16,37.945,10.342,38.102,10.418L38.102,10.418
				z"/>
			<path fill="#AA9E89" d="M58.349,15.394c-0.081,0.412-0.12,0.975-0.5,1.186c-0.244,0.134-0.023,0.333,0.167,0.229
				c0.526-0.291,0.616-0.868,0.73-1.458C58.787,15.151,58.383,15.216,58.349,15.394L58.349,15.394z"/>
			<path fill="#AA9E89" d="M44.927,9.054c0.161,0.825,0.257,1.745,0.009,2.56c-0.075,0.242,0.321,0.233,0.377,0.049
				c0.267-0.872,0.182-1.841,0.01-2.727C45.284,8.731,44.887,8.848,44.927,9.054L44.927,9.054z"/>
			<path fill="#AA9E89" d="M42.723,9.054c0.041,0.467-0.05,0.912-0.15,1.36c-0.02,0.09,0.367,0.029,0.39-0.08
				c0.103-0.461,0.198-0.92,0.157-1.398C43.113,8.855,42.714,8.939,42.723,9.054L42.723,9.054z"/>
			<path fill="#AA9E89" d="M64.105,17.413c0.153,0,0.307,0,0.461,0c0.094,0,0.198-0.03,0.28-0.084
				c0.063-0.042,0.054-0.09-0.021-0.09c-0.153,0-0.309,0-0.461,0c-0.095,0-0.199,0.028-0.28,0.083
				C64.021,17.365,64.029,17.413,64.105,17.413L64.105,17.413z"/>
			<path fill="#AA9E89" d="M84.356,38.826c-0.311,1.391-0.119,2.801-0.103,4.213c0.003,0.243,0.405,0.182,0.402-0.028
				c-0.016-1.412-0.208-2.823,0.102-4.213C84.808,38.573,84.402,38.621,84.356,38.826L84.356,38.826z"/>
			<path fill="#AA9E89" d="M88.492,38.91c0.385,1.486,0.245,3.026,0.236,4.551c-0.002,0.241,0.401,0.18,0.401-0.029
				c0.01-1.555,0.152-3.126-0.242-4.642C88.833,38.577,88.437,38.698,88.492,38.91L88.492,38.91z"/>
			<path fill="#AA9E89" d="M86.716,38.335c0.193,1.813,0.23,3.624,0.137,5.446c-0.008,0.175,0.388,0.083,0.396-0.059
				c0.093-1.84,0.058-3.674-0.137-5.507C87.096,38.077,86.699,38.176,86.716,38.335L86.716,38.335z"/>
			<path fill="#AA9E89" d="M86.134,39.406c0.011,1.341,0.153,2.683,0,4.021c-0.026,0.218,0.377,0.152,0.4-0.039
				c0.153-1.336,0.011-2.679,0-4.021C86.531,39.143,86.132,39.217,86.134,39.406L86.134,39.406z"/>
			<path fill="#AA9E89" d="M55.666,37.542c0,0.949,0,1.897,0,2.847c0,0.311,0.402,0.221,0.402-0.044c0-0.949,0-1.898,0-2.846
				C56.068,37.188,55.666,37.278,55.666,37.542L55.666,37.542z"/>
			<path fill="#AA9E89" d="M63.136,39.274c0,1.254,0,2.508,0,3.762c0,0.41,0.401,0.292,0.401-0.059c0-1.254,0-2.508,0-3.761
				C63.537,38.806,63.136,38.924,63.136,39.274L63.136,39.274z"/>
			<path fill="#AA9E89" d="M59.463,38.641c0,1.253,0,2.508,0,3.761c0,0.41,0.401,0.292,0.401-0.059c0-1.254,0-2.507,0-3.762
				C59.865,38.172,59.463,38.29,59.463,38.641L59.463,38.641z"/>
			<path fill="#AA9E89" d="M61.347,39.063c0,1.254,0,2.508,0,3.761c0,0.41,0.4,0.292,0.4-0.059c0-1.253,0-2.507,0-3.761
				C61.748,38.594,61.347,38.712,61.347,39.063L61.347,39.063z"/>
			<path fill="#AA9E89" d="M66.557,40.225c0,1.254,0,2.507,0,3.762c0,0.41,0.402,0.292,0.402-0.059c0-1.253,0-2.508,0-3.761
				C66.959,39.756,66.557,39.874,66.557,40.225L66.557,40.225z"/>
			<path fill="#AA9E89" d="M68.848,40.859c0,1.253,0,2.507,0,3.762c0,0.409,0.401,0.292,0.401-0.06c0-1.254,0-2.508,0-3.761
				C69.249,40.389,68.848,40.507,68.848,40.859L68.848,40.859z"/>
			<path fill="#AA9E89" d="M72.959,42.372c0,1.254,0,2.508,0,3.762c0,0.409,0.401,0.292,0.401-0.06c0-1.254,0-2.507,0-3.761
				C73.36,41.903,72.959,42.021,72.959,42.372L72.959,42.372z"/>
			<path fill="#AA9E89" d="M75.407,42.618c0,1.254,0,2.508,0,3.762c0,0.41,0.401,0.292,0.401-0.059c0-1.254,0-2.508,0-3.762
				C75.808,42.15,75.407,42.267,75.407,42.618L75.407,42.618z"/>
			<path fill="#AA9E89" d="M79.801,43.534c0,1.253,0,2.507,0,3.761c0,0.41,0.402,0.292,0.402-0.06c0-1.253,0-2.507,0-3.761
				C80.203,43.064,79.801,43.182,79.801,43.534L79.801,43.534z"/>
			<path fill="#AA9E89" d="M82.124,43.815c0,1.253,0,2.507,0,3.762c0,0.41,0.401,0.292,0.401-0.059c0-1.254,0-2.508,0-3.762
				C82.525,43.346,82.124,43.464,82.124,43.815L82.124,43.815z"/>
			<path fill="#AA9E89" d="M86.58,44.237c0,1.254,0,2.507,0,3.762c0,0.411,0.402,0.292,0.402-0.059c0-1.254,0-2.508,0-3.762
				C86.982,43.768,86.58,43.886,86.58,44.237L86.58,44.237z"/>
			<path fill="#AA9E89" d="M89.971,44.519c0,1.253,0,2.507,0,3.761c0,0.411,0.4,0.293,0.4-0.059c0-1.252,0-2.506,0-3.76
				C90.371,44.049,89.971,44.167,89.971,44.519L89.971,44.519z"/>
			<path fill="#AA9E89" d="M95.558,45.152c0,1.253,0,2.507,0,3.762c0,0.409,0.4,0.292,0.4-0.059c0-1.254,0-2.508,0-3.762
				C95.958,44.684,95.558,44.8,95.558,45.152L95.558,45.152z"/>
			<path fill="#AA9E89" d="M98.068,44.66c0,1.253,0,2.507,0,3.761c0,0.41,0.401,0.292,0.401-0.059c0-1.253,0-2.508,0-3.761
				C98.47,44.191,98.068,44.308,98.068,44.66L98.068,44.66z"/>
			<path fill="#AA9E89" d="M102.211,44.66c0,1.253,0,2.507,0,3.761c0,0.41,0.4,0.292,0.4-0.059c0-1.253,0-2.508,0-3.761
				C102.612,44.191,102.211,44.308,102.211,44.66L102.211,44.66z"/>
			<path fill="#AA9E89" d="M104.784,44.589c0,1.254,0,2.508,0,3.762c0,0.41,0.401,0.292,0.401-0.059c0-1.253,0-2.507,0-3.762
				C105.185,44.12,104.784,44.238,104.784,44.589L104.784,44.589z"/>
			<path fill="#AA9E89" d="M112.567,42.829c0,1.254,0,2.507,0,3.762c0,0.41,0.402,0.292,0.402-0.059c0-1.254,0-2.508,0-3.761
				C112.969,42.36,112.567,42.479,112.567,42.829L112.567,42.829z"/>
			<g>
				<path fill="#AA9E89" d="M21.635,47.018c-2.221,0.075-4.318,0.605-6.41,1.435c-0.346,0.138-0.625,0.597-0.096,0.694
					c3.743,0.688,7.419-0.195,11.172-0.282c0.297-0.007,0.838-0.522,0.339-0.7c-4.206-1.492-9.901-4.728-14.302-2.478
					c-0.61,0.311-0.061,0.808,0.411,0.565c3.921-2.005,9.521,1.244,13.318,2.59c0.112-0.233,0.225-0.467,0.338-0.699
					c-3.667,0.084-7.262,0.952-10.923,0.28c-0.033,0.231-0.064,0.464-0.098,0.695c2.004-0.795,4.012-1.308,6.146-1.381
					C22.057,47.721,22.298,46.995,21.635,47.018L21.635,47.018z"/>
				<path fill="#AA9E89" d="M17.857,42.841c-5.282-1.439-9.906-1.482-15.179,0.015c-0.333,0.095-0.639,0.592-0.111,0.631
					c1.589,0.118,3.18,0.205,4.77,0.315c0.626,0.046,1.251,0.103,1.875,0.171c0.644,0.064,4.457,0.475,1.633,0.827
					c-0.491,0.061-0.79,0.737-0.121,0.654c1.022-0.127,1.74-0.434,2.626-0.988c0.204-0.126,0.262-0.433-0.013-0.499
					c-3.43-0.805-6.918-0.886-10.403-1.143c-0.038,0.209-0.075,0.42-0.112,0.63c5.033-1.429,9.413-1.356,14.45,0.016
					C17.61,43.561,18.42,42.994,17.857,42.841L17.857,42.841z"/>
				<path fill="#AA9E89" d="M22.639,51.338c-1.989-0.288-4.351,0.066-5.306,2.314c-0.11,0.262,0.831,0.155,0.964-0.16
					c0.716-1.685,2.249-1.842,3.732-1.628C22.29,51.902,23.165,51.415,22.639,51.338L22.639,51.338z"/>
				<path fill="#AA9E89" d="M24.808,52.338c-2.596,1.419-7.113,2.725-5.72,7.011c0.051,0.156,0.301,0.109,0.405,0.096
					c1.211-0.156,2.172-0.745,2.866-1.877c0.909-1.484,1.255-3.411,2.915-4.112c0.642-0.271,0.042-0.496-0.354-0.328
					c-1.042,0.44-1.76,1.167-2.35,2.219c-0.792,1.414-1.181,3.391-2.916,3.616c0.136,0.032,0.27,0.064,0.405,0.097
					c-1.314-4.047,2.859-5.156,5.328-6.504C25.967,52.237,25.072,52.194,24.808,52.338L24.808,52.338z"/>
				<path fill="#AA9E89" d="M115.422,63.382c1.438-1.508,4.202-1.857,4.099,1.035c0.294-0.118,0.589-0.235,0.884-0.354
					c-2.331-0.339-4.766-0.828-6.955,0.424c-0.571,0.326,0.334,0.258,0.557,0.131c1.697-0.97,3.799-0.401,5.598-0.14
					c0.188,0.026,0.874-0.049,0.885-0.353c0.137-3.846-4.436-2.237-5.945-0.654C114.345,63.682,115.257,63.557,115.422,63.382
					L115.422,63.382z"/>
				<path fill="#AA9E89" d="M115.44,58.109c1.209-2.283,3.27-3.542,5.641-3.351c-0.102-0.094-0.205-0.188-0.306-0.283
					c-0.592,2.886-3.912,3.084-5.431,5.175c-0.375,0.516,0.558,0.552,0.79,0.233c1.639-2.254,4.958-2.311,5.616-5.525
					c0.04-0.196-0.178-0.273-0.307-0.283c-2.82-0.226-5.461,1.23-6.914,3.972C114.276,58.522,115.258,58.451,115.44,58.109
					L115.44,58.109z"/>
				<path fill="#AA9E89" d="M109.771,61.798c-3.723,0.94-6.857,3.434-10.641,4.34c-2.332,0.559-4.876,0.78-7.246,1.063
					c-1.323,0.158-6.776,1.329-5.411-1.105c0.111-0.197-0.312-0.195-0.367-0.192c-5.08,0.203-9.792,2.521-14.833,3.083
					c-1.75,0.196-3.485,0.482-5.24,0.62c-1.397,0.108-3.021,0.222-4.271-0.612c-2.296-1.527,0.37-4.318,1.58-5.203
					c0.112-0.083,0.246-0.283,0.03-0.334c-4.929-1.165-9.683,1.327-14.295,2.948c-2.229,0.785-4.519,1.298-6.854,0.842
					c-3.24-0.632,2.527-3.145,3.742-3.389c1.817-0.364,3.621-0.683,5.252-1.695c0.101-0.062,0.458-0.336,0.153-0.413
					c-1.466-0.364-8.956,0.285-8.509-1.722c0.033-0.151-0.122-0.19-0.226-0.193c-1.784-0.036-3.259,0.485-4.898,1.264
					c-1.023,0.626-2.134,0.752-3.335,0.378c0.247-1.26,1.7-2.178,2.539-2.889c0.694-0.589,1.201-1.186,1.694-1.972
					c0.09-0.143-0.173-0.187-0.226-0.193c-1.9-0.244-11.131,3.142-9.072-1.324c0.021-0.054,0.011-0.098-0.031-0.132
					c-0.799-0.557-0.49-0.429-1.432-0.61c-0.321-0.061-1.455,0.518-1.068,0.592c1.581,0.304,0.252,2.23,1.55,2.947
					c0.942,0.52,2.363,0.292,3.348,0.154c1.668-0.23,3.311-0.624,4.968-0.933c1.479-0.276-1.649,2.115-2.103,2.575
					c-0.88,0.891-1.363,1.545-1.62,2.856c-0.03,0.151,0.117,0.19,0.226,0.192c1.132,0.021,2.086-0.121,3.184-0.461
					c1.111-0.344,5.113-3.042,5.035-0.607c0.024,0.056,0.063,0.09,0.119,0.1c1.706,0.558,3.344,0.467,5.103,0.335
					c0.831-0.063,4.067,0.169,1.101,0.86c-1.006,0.234-2.024,0.4-3.032,0.624c-2.076,0.463-4.147,1.269-5.142,3.504
					c-0.044,0.102,0.049,0.146,0.112,0.173c3.487,1.552,7.151,0.533,10.587-0.733c3.436-1.266,6.89-2.905,10.572-2.765
					c1.92,0.074,0.133,1.144-0.351,1.729c-0.629,0.761-0.788,1.529-0.842,2.499c-0.204,3.597,7.85,2.053,9.145,1.883
					c2.059-0.269,4.149-0.424,6.173-0.95c1.467-0.38,2.917-0.816,4.371-1.255c1.125-0.341,6.026-2.516,5.198,0.178
					c-0.045,0.151,0.133,0.188,0.227,0.192c4.362,0.155,8.666-0.42,12.981-1.09c4.477-0.693,7.887-3.578,12.178-4.663
					C110.669,62.101,110.539,61.604,109.771,61.798L109.771,61.798z"/>
			</g>
		</g>
	</g>
</g>
</svg>
